<svg xmlns="http://www.w3.org/2000/svg" width="300" height="189"><g filter="blur(12px)"><rect width="200%" height="200%" x="-50%" y="-50%" fill="#957d6e"/><rect width="100%" height="100%" fill="#957d6e"/><g fill-opacity=".5" transform="translate(.6 .6)scale(1.17188)"><circle cx="176" cy="161" r="185" fill="#00132e"/><circle cx="245" cy="87" r="99" fill="#001424"/><circle r="1" fill="#9fa59a" transform="matrix(31.16314 -60.67732 25.68458 13.1913 109.1 103.8)"/><circle r="1" fill="#00303c" transform="matrix(76.1073 111.15191 -49.64294 33.99123 211 57.4)"/><circle r="1" fill="#426d6c" transform="rotate(-173.5 20.5 26.8)scale(36.78538 82.93948)"/><path d="m-25.1 123.6 85.1 26-14.9 48.8-85.1-26z"/><circle r="1" fill="#959b94" transform="matrix(-17.1283 -28.84735 13.24632 -7.86509 134.8 126.8)"/><path fill="#a7b5ae" d="m120.2 57.9-5.6-5.8 35.2-34 5.6 5.8z"/></g></g></svg>