<svg xmlns="http://www.w3.org/2000/svg" width="300" height="199"><g filter="blur(12px)"><rect width="200%" height="200%" x="-50%" y="-50%" fill="#846c44"/><rect width="100%" height="100%" fill="#846c44"/><circle r="1" fill-opacity=".5" transform="rotate(-132.6 100.7 29.8)scale(170.77085 250.08631)"/><circle r="1" fill-opacity=".5" transform="rotate(171.5 45.7 85)scale(126.71084 163.03107)"/><circle r="1" fill="#bd5703" fill-opacity=".5" transform="matrix(-28.38883 10.18215 -32.77822 -91.38886 241.6 102)"/><path fill-opacity=".5" d="m385.2 110.6-91 40.5-80.6-180.9 91-40.5z"/><circle r="1" fill-opacity=".5" transform="matrix(-10.30822 113.70348 -151.9396 -13.77466 86.5 154.3)"/><circle r="1" fill="#b4570a" fill-opacity=".5" transform="rotate(-22.6 96.6 -475)scale(26.51363 39.70986)"/><circle r="1" fill-opacity=".5" transform="matrix(-27.43716 13.20462 -40.84964 -84.87927 283.2 16.8)"/><circle r="1" fill="#5e3006" fill-opacity=".5" transform="rotate(156 97 88.8)scale(13.35992 107.17677)"/></g></svg>