<svg xmlns="http://www.w3.org/2000/svg" width="299" height="391"><g filter="blur(12px)"><rect width="200%" height="200%" x="-50%" y="-50%" fill="#516a86"/><rect width="100%" height="100%" fill="#516a86"/><g fill-opacity=".5" transform="translate(.8 .8)scale(1.52734)"><circle r="1" fill="#ff9378" transform="matrix(138.11565 -54.4052 71.46774 181.43143 66.8 140.6)"/><circle r="1" fill="#ff8181" transform="matrix(-117.9975 52.0431 -78.69133 -178.41714 65.1 134.3)"/><circle r="1" fill="#e60000" transform="matrix(-70.61088 -18.6562 8.0837 -30.59557 29.2 67.8)"/><path fill="#efecec" d="M112 114 75 271l-91-170z"/><circle r="1" fill="#da0000" transform="matrix(28.08306 -7.5019 5.66966 21.22414 21.5 230.2)"/><circle r="1" fill="#ef0000" transform="matrix(16.2681 -1.76728 4.15538 38.2509 115.8 178.1)"/><ellipse cx="21" cy="1" fill="#edffff" rx="79" ry="17"/><path fill="#f10000" d="m150.9 226.5 63 1-.8 42-63-1z"/></g></g></svg>