<svg xmlns="http://www.w3.org/2000/svg" width="299" height="391"><g filter="blur(12px)"><rect width="200%" height="200%" x="-50%" y="-50%" fill="#74746c"/><rect width="100%" height="100%" fill="#74746c"/><g fill-opacity=".5" transform="translate(.8 .8)scale(1.52734)"><circle r="1" fill="#fff" transform="matrix(17.98488 -114.84902 192.65216 30.16852 112.4 75.8)"/><circle r="1" fill="#0000e9" transform="matrix(10.0781 -39.01424 28.38954 7.33354 108.4 160.5)"/><path d="m121.7 122.5.6-32 60 1-.6 32z"/><circle r="1" fill="#fff" transform="matrix(122.39464 -25.13202 14.75127 71.83971 60.5 47.7)"/><ellipse cx="29" cy="222" fill="#e6e6ee" rx="33" ry="64"/><circle r="1" transform="matrix(57.54037 -34.84769 7.08788 11.70348 140.1 236.5)"/><path d="M184 122h12v47h-12z"/><path fill="#fffff9" d="M146 211.7 87.2 185l16.7 34.9 21.6-18.1z"/></g></g></svg>