<svg xmlns="http://www.w3.org/2000/svg" width="299" height="391"><g filter="blur(12px)"><rect width="200%" height="200%" x="-50%" y="-50%" fill="#6d9962"/><rect width="100%" height="100%" fill="#6d9962"/><g fill-opacity=".5" transform="translate(.8 .8)scale(1.52734)"><circle cx="174" cy="131" r="223" fill="#c288c0"/><circle r="1" fill="#1b2e20" transform="rotate(-50.1 275.4 28.2)scale(29.57729 53.04728)"/><circle r="1" fill="#383b3c" transform="matrix(8.69684 28.98809 -51.16505 15.35025 130.2 63)"/><circle r="1" transform="rotate(57.6 -65.3 35.9)scale(15.56522 40.30403)"/><circle r="1" fill="#fde4ed" transform="rotate(68.7 -8.8 166)scale(19.27757 85.11949)"/><path fill="#fffbff" d="M25 117 11 271l-27-154z"/><circle r="1" fill="#e9edee" transform="matrix(123.03475 -16.55664 3.18566 23.67308 71.6 0)"/><path d="m115.1 122.7-46-9.8L73 95.3l46 9.8z"/></g></g></svg>