<svg xmlns="http://www.w3.org/2000/svg" width="299" height="391"><g filter="blur(12px)"><rect width="200%" height="200%" x="-50%" y="-50%" fill="#55a852"/><rect width="100%" height="100%" fill="#55a852"/><g fill-opacity=".5" transform="translate(.8 .8)scale(1.52734)"><circle r="1" fill="#ffc8ef" transform="rotate(-141.5 47.2 31.6)scale(95.25786 195)"/><circle r="1" fill="#dc4442" transform="rotate(124.2 2 126)scale(56.36236 119.9431)"/><circle r="1" fill="#f6fafd" transform="rotate(-177.4 65.4 37.7)scale(189.65863 35.84983)"/><ellipse cx="80" cy="31" fill="#008300" rx="47" ry="12"/><circle r="1" fill="#d50400" transform="matrix(-54.62871 6.1862 -2.31387 -20.43322 84.5 148.3)"/><circle r="1" fill="#61e297" transform="matrix(-65.77112 13.02303 -5.83689 -29.47845 58 200)"/><circle r="1" fill="#fff" transform="rotate(-2.1 5421.4 -4934.3)scale(10.52615 36.29867)"/><circle r="1" fill="#fef6ff" transform="matrix(14.4933 -86.37905 22.46003 3.7685 146.2 39.8)"/></g></g></svg>