<svg xmlns="http://www.w3.org/2000/svg" width="299" height="391"><g filter="blur(12px)"><rect width="200%" height="200%" x="-50%" y="-50%" fill="#8b6363"/><rect width="100%" height="100%" fill="#8b6363"/><g fill-opacity=".5" transform="translate(.8 .8)scale(1.52734)"><circle r="1" fill="#2f29bf" transform="matrix(3.091 53.6077 -99.8525 5.75746 171.2 226.6)"/><circle cx="72" cy="18" r="132" fill="#bb979b"/><circle r="1" fill="#c2aaac" transform="matrix(-47.26558 -1.31615 2.39982 -86.18218 .8 187.7)"/><circle r="1" fill="#553b78" transform="rotate(60.8 -84.3 140)scale(46.34293 29.88516)"/><path fill="#f3ffff" d="M106.8 116.7 124.7 90l16.5 11.2-17.9 26.6z"/><path fill="#bbc1be" d="m138 0 45-16 19 111z"/><circle r="1" fill="#f2fefd" transform="matrix(-15.10777 14.64045 -12.32659 -12.72005 -.1 196.7)"/><path fill="#9e2624" d="m60.4 38.1 19.4-18.8-63.5 13.1 51.8 48.3z"/></g></g></svg>