<svg xmlns="http://www.w3.org/2000/svg" width="299" height="391"><g filter="blur(12px)"><rect width="200%" height="200%" x="-50%" y="-50%" fill="#9e9b9b"/><rect width="100%" height="100%" fill="#9e9b9b"/><g fill-opacity=".5" transform="translate(.8 .8)scale(1.52734)"><circle r="1" fill="#ff0601" transform="matrix(6.3167 69.49752 -121.00122 10.99792 71.6 225.4)"/><circle r="1" fill="#ffbcbd" transform="matrix(-18.77902 106.5011 -192.03752 -33.8614 97 75.7)"/><circle r="1" fill="#f20d11" transform="rotate(155.6 80.3 41.4)scale(45.57565 26.39205)"/><circle cx="56" cy="55" r="82" fill="#f1dede"/><path fill="#dc0000" d="m17.4 39.3-28.8 26 58.8-2-8.8-1.1z"/><path fill="#da0000" d="M65 46h31v20H65z"/><path fill="#dd3e3a" d="M168 158-16 270l94-143z"/><path fill="#e8f9f7" d="M160 39.3 88.6 51.6l-39-40.7L168.4-16z"/></g></g></svg>