<svg xmlns="http://www.w3.org/2000/svg" width="299" height="391"><g filter="blur(12px)"><rect width="200%" height="200%" x="-50%" y="-50%" fill="#5c985d"/><rect width="100%" height="100%" fill="#5c985d"/><g fill-opacity=".5" transform="translate(.8 .8)scale(1.52734)"><circle r="1" fill="#ecb7ea" transform="rotate(-145.4 76 19.8)scale(195 103.27217)"/><circle r="1" transform="matrix(.84621 15.10531 -35.21414 1.97272 26 69.3)"/><path fill="#005000" d="m66.7 244.5 1.6-94 57 1-1.6 94z"/><circle r="1" fill="#ffe7ff" transform="matrix(21.64385 .30222 -1.15775 82.91247 140.7 194.4)"/><path fill="#fff" d="m-.7 212-1.5-43 33-1 1.4 43z"/><circle r="1" transform="matrix(8.45807 .54242 -2.41973 37.73111 76 87.6)"/><circle cx="177" cy="21" r="61" fill="#f3eff3"/><circle r="1" fill="#444144" transform="matrix(-32.86763 -17.25589 11.27538 -21.47643 127.5 64.4)"/></g></g></svg>