<svg xmlns="http://www.w3.org/2000/svg" width="299" height="391"><g filter="blur(12px)"><rect width="200%" height="200%" x="-50%" y="-50%" fill="#75699c"/><rect width="100%" height="100%" fill="#75699c"/><g fill-opacity=".5" transform="translate(.8 .8)scale(1.52734)"><circle r="1" fill="#fff" transform="matrix(67.58418 -3.30542 9.5257 194.7672 44 152.9)"/><ellipse cx="124" cy="52" fill="#99a2ff" rx="195" ry="60"/><circle r="1" fill="#02003d" transform="matrix(-25.62574 -96.98954 30.04942 -7.9394 150.2 209)"/><circle r="1" fill="#0000d8" transform="matrix(-43.91638 -6.04501 1.81768 -13.20522 92.2 95)"/><circle cx="48" cy="164" r="61" fill="#fffff3"/><path fill="#cad1ff" d="m202.5 189.8-40.8-4.3 13.8-131.3 40.8 4.3z"/><circle r="1" fill="#ffe" transform="matrix(-35.77147 -18.38404 7.04873 -13.71535 107.4 31.6)"/><circle r="1" fill="#0000ed" transform="matrix(8.18877 18.30621 -16.26648 7.27635 179.9 35.3)"/></g></g></svg>