<svg xmlns="http://www.w3.org/2000/svg" width="299" height="391"><g filter="blur(12px)"><rect width="200%" height="200%" x="-50%" y="-50%" fill="#ac5252"/><rect width="100%" height="100%" fill="#ac5252"/><g fill-opacity=".5" transform="translate(.8 .8)scale(1.52734)"><ellipse cx="94" cy="145" fill="#ffbab0" rx="119" ry="241"/><path fill="#67090f" d="m67.5 230.6 57.3-17.5 11.7 38.3-57.3 17.5z"/><path fill="#ecc6ca" d="m86 112 91-64-44-64z"/><path fill="#edc5c1" d="m135 65-4 89 80 21z"/><path fill="#eee2e4" d="m25.8 174.7 3.4-98 15 .6-3.4 98z"/><circle r="1" fill="#eec8ca" transform="matrix(-18.00617 21.15718 -23.32474 -19.8509 51 10.3)"/><path fill="#d80000" d="m28.8 128.1-6-11.8H6l3.4 31.5z"/><ellipse cx="55" cy="199" fill="#efdfe4" rx="7" ry="49"/></g></g></svg>