<svg xmlns="http://www.w3.org/2000/svg" width="299" height="391"><g filter="blur(12px)"><rect width="200%" height="200%" x="-50%" y="-50%" fill="#b4c985"/><rect width="100%" height="100%" fill="#b4c985"/><circle r="1" fill="#ff2367" fill-opacity=".5" transform="matrix(-4.87987 61.39128 -234.52787 -18.64215 201 123.3)"/><circle r="1" fill="#513916" fill-opacity=".5" transform="rotate(-84 167 90.8)scale(50.65082 111.63842)"/><circle r="1" fill="#ffa6c3" fill-opacity=".5" transform="matrix(92.72232 116.56793 -75.21579 59.82934 283.1 277.8)"/><circle r="1" fill="#ffba00" fill-opacity=".5" transform="matrix(-32.34103 -47.7675 64.18267 -43.45494 186.1 362)"/><circle r="1" fill="#ffaae3" fill-opacity=".5" transform="matrix(188.4041 -17.98803 5.29255 55.43346 155.4 23.4)"/><circle r="1" fill="#eae9f9" fill-opacity=".5" transform="rotate(-63.1 197.8 -5.5)scale(59.0603 26.17601)"/><circle r="1" fill="#ff70aa" fill-opacity=".5" transform="matrix(3.75735 -143.4873 29.68814 .77741 11.4 288.3)"/><circle r="1" fill="#d00000" fill-opacity=".5" transform="rotate(-130.3 35.2 48.5)scale(45.57786 34.14314)"/></g></svg>