<svg xmlns="http://www.w3.org/2000/svg" width="299" height="391"><g filter="blur(12px)"><rect width="200%" height="200%" x="-50%" y="-50%" fill="#4db24d"/><rect width="100%" height="100%" fill="#4db24d"/><g fill-opacity=".5" transform="translate(.8 .8)scale(1.52734)"><circle r="1" fill="#fec6b8" transform="matrix(37.06153 -99.35435 182.70262 68.15242 126.5 24.8)"/><circle r="1" fill="#997353" transform="matrix(112.54232 -44.3316 40.66745 103.24034 90.1 199.3)"/><circle r="1" fill="#011" transform="matrix(-27.30278 -66.60868 25.66343 -10.5194 111.8 175.8)"/><ellipse cx="162" cy="214" fill="#f9ffff" rx="14" ry="61"/><ellipse cx="76" cy="232" fill="#ffc535" rx="27" ry="31"/><circle r="1" fill="#e4f1ff" transform="rotate(-82.1 62 -44.7)scale(33.57071 28.67341)"/><circle r="1" fill="#e8d95c" transform="matrix(13.12265 -14.44156 76.3328 69.36151 179 156.4)"/><circle r="1" fill="#d2d0ea" transform="matrix(-2.7891 -17.05067 43.61717 -7.13475 25.4 91.8)"/></g></g></svg>