<svg xmlns="http://www.w3.org/2000/svg" width="299" height="391"><g filter="blur(12px)"><rect width="200%" height="200%" x="-50%" y="-50%" fill="#bcb074"/><rect width="100%" height="100%" fill="#bcb074"/><g fill-opacity=".5" transform="translate(.8 .8)scale(1.52734)"><circle r="1" fill="#777cff" transform="rotate(4.4 -1352.6 825.8)scale(171.04133 195)"/><circle r="1" fill="#0000f5" transform="matrix(65.48799 3.8907 -1.747 29.40532 29.9 201.2)"/><path fill="#0000ed" d="m-13.4 5 55.9-3.9L45.4 43l-55.9 3.9z"/><circle r="1" fill="#e6ddbc" transform="matrix(-68.64124 -10.14497 14.46439 -97.86658 104.1 84)"/><circle cx="187" cy="161" r="59" fill="#4f52ff"/><path fill="#0001ff" d="m-9.6 146.3-17.3-18 52.5-50.6 17.3 18z"/><circle r="1" fill="#fff" transform="rotate(122.9 93.3 60.8)scale(43.10762 19.60129)"/><path fill="#0000b3" d="M73 175h19v78H73z"/></g></g></svg>