<svg xmlns="http://www.w3.org/2000/svg" width="299" height="391"><g filter="blur(12px)"><rect width="200%" height="200%" x="-50%" y="-50%" fill="#9f974c"/><rect width="100%" height="100%" fill="#9f974c"/><g fill-opacity=".5" transform="translate(.8 .8)scale(1.52734)"><circle r="1" fill="#ffffed" transform="matrix(-125.46616 119.78533 -131.03218 -137.2464 85.1 103)"/><circle r="1" fill="#978f4d" transform="matrix(-88.13582 21.01123 -9.24157 -38.7656 98.4 236.7)"/><path fill="#58583c" d="m181 263-8-93-18 101z"/><path fill="#453a1e" d="M90 199h17v44H90z"/><circle r="1" fill="#e9e6b3" transform="matrix(134.90123 -11.6161 8.19153 95.1307 96.3 69.5)"/><circle cx="26" cy="211" r="34" fill="#ecdc80"/><path fill="#29262a" d="m108 217.3 31 7.7-3 11.7-31-7.7z"/><circle r="1" fill="#d8e3ae" transform="matrix(5.95593 8.2581 -27.56773 19.88248 149.7 234.2)"/></g></g></svg>