<svg xmlns="http://www.w3.org/2000/svg" width="299" height="391"><g filter="blur(12px)"><rect width="200%" height="200%" x="-50%" y="-50%" fill="#111187"/><rect width="100%" height="100%" fill="#111187"/><g fill-opacity=".5" transform="translate(.8 .8)scale(1.52734)"><circle r="1" fill="#fff" transform="matrix(-159.7085 52.56562 -57.96804 -176.12253 78 139.6)"/><circle r="1" fill="#fffff4" transform="matrix(47.86857 .75198 -1.63542 104.10534 178.9 236)"/><circle r="1" fill="#f5f5fc" transform="rotate(-40.9 95.7 -119)scale(81.65862 54.73625)"/><circle r="1" fill="#fff500" transform="matrix(.60025 22.4604 -19.0825 .50997 108 206.9)"/><circle r="1" fill="#f6e6a4" transform="matrix(65.63463 1.4968 -.86163 37.78216 29 222.9)"/><circle r="1" fill="#0000f5" transform="matrix(-.10953 12.55127 -61.9244 -.5404 96.2 172.9)"/><circle r="1" fill="#0707e7" transform="rotate(-168.9 5.4 32.4)scale(23.63079 51.99107)"/><ellipse cx="88" cy="111" fill="#f1f0f8" rx="28" ry="45"/></g></g></svg>