<svg xmlns="http://www.w3.org/2000/svg" width="299" height="391"><g filter="blur(12px)"><rect width="200%" height="200%" x="-50%" y="-50%" fill="#838281"/><rect width="100%" height="100%" fill="#838281"/><g fill-opacity=".5" transform="translate(.8 .8)scale(1.52734)"><circle r="1" fill="#fffff7" transform="rotate(-21.5 138 -63.8)scale(195 51.431)"/><circle r="1" fill="#691708" transform="matrix(-31.0567 -75.3492 96.47865 -39.76563 142 218)"/><circle r="1" fill="#eaa229" transform="matrix(-43.65656 -59.63214 35.40836 -25.92238 121 98.6)"/><ellipse cx="4" cy="247" fill="#fff" rx="36" ry="44"/><path d="m-13.6 194.2 1.2-34 44 1.6-1.2 34z"/><circle r="1" fill="#f9f9fc" transform="matrix(60.73123 49.40564 -16.38256 20.13804 181.5 31.2)"/><circle r="1" fill="#f44e56" transform="matrix(31.9309 12.37014 -25.99842 67.10945 170 227.9)"/><circle cx="85" cy="225" r="47" fill="#0e2f37"/></g></g></svg>