<svg xmlns="http://www.w3.org/2000/svg" width="299" height="391"><g filter="blur(12px)"><rect width="200%" height="200%" x="-50%" y="-50%" fill="#965c60"/><rect width="100%" height="100%" fill="#965c60"/><g fill-opacity=".5" transform="translate(.8 .8)scale(1.52734)"><ellipse cx="112" cy="33" fill="#83bdc5" rx="195" ry="39"/><circle r="1" fill="#523043" transform="matrix(-72.58475 -81.13682 56.84318 -50.85174 58.1 188.7)"/><circle r="1" fill="#556b7a" transform="matrix(-64.50541 32.06514 -13.27704 -26.7094 64.6 71.5)"/><path fill="#fcfcf6" d="m101.7 28.2-29-1.5 1.6-31 29 1.6z"/><ellipse cy="19" fill="#e0e0da" rx="31" ry="29"/><circle r="1" fill="#465266" transform="rotate(147 83 32.4)scale(36.2717 22.08476)"/><circle r="1" fill="#b4b4ad" transform="matrix(-12.71488 -8.73577 14.43048 -21.00351 75.6 96.8)"/><circle r="1" fill="#8e1116" transform="matrix(-14.88726 8.03974 -20.34636 -37.67554 180 168.6)"/></g></g></svg>