<svg xmlns="http://www.w3.org/2000/svg" width="299" height="391"><g filter="blur(12px)"><rect width="200%" height="200%" x="-50%" y="-50%" fill="#ab6871"/><rect width="100%" height="100%" fill="#ab6871"/><g fill-opacity=".5" transform="translate(.8 .8)scale(1.52734)"><ellipse cx="110" cy="83" fill="#c6fffa" rx="154" ry="85"/><circle r="1" fill="#373c3a" transform="rotate(7.4 -424.2 397.4)scale(54.08589 35.29801)"/><circle r="1" fill="#00762b" transform="rotate(-159.2 88.4 95.3)scale(53.61843 37.54804)"/><circle r="1" fill="#e4ffff" transform="matrix(-52.62047 3.49505 -1.12703 -16.96823 67.3 251.2)"/><circle r="1" fill="#000800" transform="matrix(-52.20286 -2.94755 1.13595 -20.11831 0 219.3)"/><circle r="1" fill="#f0f6f4" transform="matrix(-69.70359 -108.8482 41.94642 -26.8614 168.9 53.5)"/><circle r="1" fill="#fdfefd" transform="matrix(-16.9354 -16.04865 34.99074 -36.9241 15.8 122.6)"/><circle r="1" transform="matrix(-25.3376 6.1085 -4.41082 -18.29576 165.7 218.7)"/></g></g></svg>