<svg xmlns="http://www.w3.org/2000/svg" width="299" height="391"><g filter="blur(12px)"><rect width="200%" height="200%" x="-50%" y="-50%" fill="#878c8e"/><rect width="100%" height="100%" fill="#878c8e"/><g fill-opacity=".5" transform="translate(.8 .8)scale(1.52734)"><circle r="1" fill="#fff" transform="matrix(8.52653 -50.95252 128.03609 21.4259 186.8 103.5)"/><circle r="1" transform="matrix(88.03009 -1.84397 .40815 19.4847 134 30.6)"/><ellipse cx="55" cy="228" rx="180" ry="14"/><path d="M48 164h41v30H48z"/><circle r="1" fill="#fff" transform="rotate(-75.6 166.3 59.3)scale(11.55549 29.06236)"/><path fill="#1b1615" d="m142.1 178.5 3.6 40.8-47.8 4.2-3.6-40.8z"/><path fill="#fff" d="m100.3 171.7 13.5 25.7 27.6-40.1H115z"/><circle r="1" fill="#fefbfa" transform="matrix(-1.75172 55.74057 -30.83247 -.96895 171 103)"/></g></g></svg>