<svg xmlns="http://www.w3.org/2000/svg" width="299" height="391"><g filter="blur(12px)"><rect width="200%" height="200%" x="-50%" y="-50%" fill="#5f9858"/><rect width="100%" height="100%" fill="#5f9858"/><circle r="1" fill="#c5c2ca" fill-opacity=".5" transform="matrix(291.21047 6.73096 -5.44843 235.72293 155.4 184.2)"/><path fill="#233933" fill-opacity=".5" d="m16.2 186.5 14.5-28.6 58.5 29.8-14.5 28.6z"/><path fill="#230c44" fill-opacity=".5" d="m234.8 185.1-16-65.5-14.7 49 37 30.1z"/><path fill="#e2edde" fill-opacity=".5" d="M.8 113.8H19v163.4H.8z"/><path fill="#f2e8e7" fill-opacity=".5" d="m214.6 272.6 35.1 53.5-32 87z"/><path fill="#2c5338" fill-opacity=".5" d="m199.6 326.6 23.8 19.2-70.2 86.7-23.7-19.2z"/><path fill="#39524e" fill-opacity=".5" d="m151.7 211.7 62.3-74.8L152 262l-10.4 6.1z"/><path fill="#4d6c55" fill-opacity=".5" d="m323 89.3-81 111.5 44.4-126.7z"/></g></svg>