<svg xmlns="http://www.w3.org/2000/svg" width="299" height="391"><g filter="blur(12px)"><rect width="200%" height="200%" x="-50%" y="-50%" fill="#888c99"/><rect width="100%" height="100%" fill="#888c99"/><circle r="1" fill="#b5b0ff" fill-opacity=".5" transform="matrix(248.97507 -163.44835 108.40006 165.12197 91.6 179.6)"/><circle r="1" fill="#00003d" fill-opacity=".5" transform="rotate(173.8 93.1 189.3)scale(27.22118 47.60011)"/><circle r="1" fill="#4949e8" fill-opacity=".5" transform="matrix(16.94186 18.2316 -58.0672 53.95937 149.4 62.2)"/><circle r="1" fill="#e0e1f4" fill-opacity=".5" transform="matrix(48.61707 -29.44355 50.43693 83.28128 22.8 270.6)"/><path fill="#0909ee" fill-opacity=".5" d="M66.4 10h50.4v32H66.4z"/><path fill="#0000f1" fill-opacity=".5" d="M71 236h41.3v18.3H71z"/><path fill="#2222d0" fill-opacity=".5" d="m46.5 346.8 3.1 59.4-58 3-3-59.4z"/><path fill="#fffffd" fill-opacity=".5" d="m46.5-26.2-1.3 73.3-62.6-1 1.2-73.4z"/></g></svg>