<svg xmlns="http://www.w3.org/2000/svg" width="299" height="391"><g filter="blur(12px)"><rect width="200%" height="200%" x="-50%" y="-50%" fill="#a0a09a"/><rect width="100%" height="100%" fill="#a0a09a"/><g fill-opacity=".5" transform="translate(.8 .8)scale(1.52734)"><circle r="1" fill="#ff9d46" transform="matrix(175.37598 -30.92352 33.62258 190.6831 82.8 169.8)"/><circle r="1" fill="#f8bcda" transform="matrix(15.9106 20.14632 -48.55445 38.346 164.7 22.4)"/><circle r="1" fill="#f38e42" transform="matrix(-70.9204 -9.58881 14.76945 -109.23718 151.4 175.2)"/><circle r="1" fill="#f1a3b1" transform="matrix(-30.47626 -25.5924 55.34489 -65.90646 0 170.7)"/><ellipse cx="25" cy="5" fill="#f2b8c4" rx="33" ry="44"/><path fill="#e597a1" d="m109 134 67-28-97-60z"/><circle r="1" fill="#f1d8fc" transform="matrix(55.28919 70.76694 -5.5743 4.35513 24.3 255.1)"/><path fill="#db4b00" d="M141 8h20v13h-20z"/></g></g></svg>