<svg xmlns="http://www.w3.org/2000/svg" width="299" height="391"><g filter="blur(12px)"><rect width="200%" height="200%" x="-50%" y="-50%" fill="#446182"/><rect width="100%" height="100%" fill="#446182"/><g fill-opacity=".5" transform="translate(.8 .8)scale(1.52734)"><circle r="1" fill="#fffffc" transform="matrix(-16.48993 61.9737 -111.60399 -29.69553 45.8 31.8)"/><circle cx="159" cy="152" r="108" fill="#a3907e"/><circle r="1" fill="#fffffa" transform="matrix(55.46086 26.93097 -7.97553 16.42457 168.2 154.5)"/><circle r="1" fill="#fff7e8" transform="matrix(-18.45368 -43.70853 78.42339 -33.11024 55.5 38)"/><path fill="#070000" d="m156.9 69.1-2.4-8.5 14.1-55.4-62.5 62.9z"/><path d="M89 156h46v23H89z"/><circle r="1" fill="#fff" transform="matrix(-6.93775 -25.08607 11.54028 -3.19156 124.4 244.5)"/><path fill="#fffffb" d="m181 31-29-47-4 25z"/></g></g></svg>