<svg xmlns="http://www.w3.org/2000/svg" width="299" height="391"><g filter="blur(12px)"><rect width="200%" height="200%" x="-50%" y="-50%" fill="#c49396"/><rect width="100%" height="100%" fill="#c49396"/><g fill-opacity=".5" transform="translate(.8 .8)scale(1.52734)"><circle cx="120" cy="111" r="151" fill="#fa9e9d"/><path fill="#7528b0" d="m-4.9 235.8 61.6 7.6-3.8 30.8-61.6-7.6z"/><circle r="1" fill="#de7171" transform="matrix(-36.35635 -4.30372 1.49829 -12.657 162.3 164.2)"/><ellipse cx="26" cy="185" fill="#e5d4d3" rx="49" ry="7"/><path fill="#f2cece" d="m-16 231.9 46 6.3-35.1-50.6 22.6 18.6z"/><path fill="#de7e7e" d="m70 146.7-25.3 9.2L14 71.3l25.4-9.2z"/><path fill="#e3c6c5" d="M211 203.3 85.8 92.5l24.1-4.4-23.4 15.5z"/><path fill="#dd696a" d="M162 116h31v21h-31z"/></g></g></svg>