<svg xmlns="http://www.w3.org/2000/svg" width="299" height="391"><g filter="blur(12px)"><rect width="200%" height="200%" x="-50%" y="-50%" fill="#55aa56"/><rect width="100%" height="100%" fill="#55aa56"/><g fill-opacity=".5" transform="translate(.8 .8)scale(1.52734)"><circle r="1" fill="#fff8ff" transform="rotate(-35.6 209 -128.2)scale(125.59601 193.53317)"/><circle r="1" fill="#027702" transform="matrix(26.16433 -10.76277 24.19191 58.81062 97.8 179.8)"/><circle r="1" fill="#ffecff" transform="matrix(-21.5922 -48.70827 137.89027 -61.12624 134.5 48.2)"/><circle r="1" fill="#fff0ff" transform="matrix(-2.12363 70.99172 -31.8738 -.95347 153.6 129.3)"/><circle r="1" fill="#fef" transform="rotate(161 21 107.5)scale(35.03055 13.9956)"/><path fill="#007500" d="M185 44h11v85h-11z"/><circle cx="97" cy="155" r="27" fill="#067d07"/><path fill="#fef" d="m8.9 268.6-24.9-4.5 40.7-63.2 13.1-9.7z"/></g></g></svg>