<svg xmlns="http://www.w3.org/2000/svg" width="299" height="391"><g filter="blur(12px)"><rect width="200%" height="200%" x="-50%" y="-50%" fill="#7da76d"/><rect width="100%" height="100%" fill="#7da76d"/><g fill-opacity=".5" transform="translate(.8 .8)scale(1.52734)"><circle r="1" fill="#caad8a" transform="matrix(145.74936 129.54583 -72.07261 81.08742 148.9 107.4)"/><circle r="1" fill="#6b5b2e" transform="matrix(46.50673 13.2478 -20.90263 73.37927 68.5 218)"/><ellipse cx="3" cy="220" fill="#d0b694" rx="16" ry="166"/><path fill="#bcbb95" d="m123.3 200.8 78 28.4-22.6 62-78-28.4z"/><circle r="1" fill="#926539" transform="matrix(-13.30492 9.27165 -14.65022 -21.02322 23.4 166.9)"/><path fill="#225434" d="M88 190h23v31H88z"/><path fill="#b3d5b9" d="M128 39 109-7l93 70z"/><circle r="1" fill="#aacda6" transform="matrix(-2.933 -12.25926 60.86808 -14.56252 92.7 97.1)"/></g></g></svg>