<svg xmlns="http://www.w3.org/2000/svg" width="299" height="391"><g filter="blur(12px)"><rect width="200%" height="200%" x="-50%" y="-50%" fill="#796498"/><rect width="100%" height="100%" fill="#796498"/><g fill-opacity=".5" transform="translate(.8 .8)scale(1.52734)"><circle r="1" fill="#fcffde" transform="matrix(-71.29774 70.66947 -41.30593 -41.67315 39.3 123.6)"/><circle r="1" fill="#232523" transform="matrix(71.61994 -110.82775 25.825 16.68882 118.1 184.9)"/><circle r="1" fill="#505950" transform="matrix(-29.44535 -5.42703 5.49031 -29.7887 63.6 136)"/><path fill="#f8ffda" d="m172.6 237.7-5-71.9 49.8-3.5 5 71.9z"/><circle r="1" fill="#e8fbcf" transform="matrix(-85.72798 -96.7103 21.51735 -19.07386 180.5 19.6)"/><circle r="1" fill="#f1faee" transform="matrix(5.8868 54.31185 -37.62178 4.07779 12.1 109.2)"/><ellipse cx="133" cy="94" fill="#34294a" rx="15" ry="87"/><path fill="#0b0b0d" d="M-4.6 15.7 17.1-13l33.5 25.3L28.9 41z"/></g></g></svg>