<svg xmlns="http://www.w3.org/2000/svg" width="299" height="391"><g filter="blur(12px)"><rect width="200%" height="200%" x="-50%" y="-50%" fill="#9e546c"/><rect width="100%" height="100%" fill="#9e546c"/><g fill-opacity=".5" transform="translate(.8 .8)scale(1.52734)"><circle r="1" fill="#b3c794" transform="rotate(-172.9 64.3 59)scale(149.36806 184.69546)"/><path fill="#492117" d="m182 228-29 14 11 29z"/><circle r="1" fill="#b3c2c4" transform="matrix(1.94112 -7.84369 58.8364 14.56054 45.8 236.3)"/><path fill="#dcf4ff" d="M-13.2 145 3 137.2 13.1 159l-16.3 7.6z"/><ellipse cx="110" cy="137" fill="#a7755f" rx="69" ry="20"/><ellipse cx="131" cy="255" fill="#c0c7bf" rx="16" ry="31"/><path fill="#bfbcac" d="m82.1 141.7-17.3 42.1L87 73.8l13.5 59.5z"/><path fill="#c3c9ce" d="m73.8 228.6 18.4-37.4-41 28.2 2.8-21.3z"/></g></g></svg>