<svg xmlns="http://www.w3.org/2000/svg" width="299" height="391"><g filter="blur(12px)"><rect width="200%" height="200%" x="-50%" y="-50%" fill="#a56353"/><rect width="100%" height="100%" fill="#a56353"/><g fill-opacity=".5" transform="translate(.8 .8)scale(1.52734)"><circle r="1" fill="#ffc6c8" transform="rotate(-63.6 140 -69.2)scale(106.80932 194.99999)"/><circle r="1" fill="#ffcbc5" transform="matrix(35.22464 -2.47434 10.96861 156.14891 2.1 193.9)"/><circle r="1" fill="#ffdce8" transform="matrix(-18.7475 -77.8013 22.8794 -5.51317 194.5 249.6)"/><path fill="#411e13" d="M176.4 156.3 163 192.9l-25.4-9.2 13.4-36.6z"/><ellipse cx="61" cy="154" fill="#7c3635" rx="16" ry="53"/><path fill="#ffcfc1" d="M47 217h52v17H47z"/><circle r="1" fill="#f2eaed" transform="matrix(26.93395 -23.05326 10.23313 11.95574 119.8 67.3)"/><circle r="1" fill="#531624" transform="matrix(13.9573 7.10909 -14.3442 28.16201 121.3 221.3)"/></g></g></svg>