<svg xmlns="http://www.w3.org/2000/svg" width="299" height="391"><g filter="blur(12px)"><rect width="200%" height="200%" x="-50%" y="-50%" fill="#9f717e"/><rect width="100%" height="100%" fill="#9f717e"/><g fill-opacity=".5" transform="translate(.8 .8)scale(1.52734)"><circle cx="36" cy="75" r="183" fill="#ffa795"/><circle r="1" fill="#e7ffff" transform="matrix(61.28838 -14.37506 9.69093 41.3175 39.3 237.5)"/><circle r="1" fill="#de2e1b" transform="matrix(25.63625 .27478 -1.09698 102.34425 75.5 81.3)"/><path fill="#edffff" d="M102 54.5h46v83h-46z"/><circle r="1" fill="#f62c2e" transform="matrix(-3.19938 55.90256 -33.15576 -1.89755 175.7 51.1)"/><circle r="1" fill="#344f7f" transform="rotate(102.2 -28.3 160.7)scale(37.70206 24.58109)"/><circle r="1" fill="#f10000" transform="matrix(95.13777 -36.05043 3.74951 9.89503 0 26.4)"/><path fill="#f1dad6" d="m226.1 103.5-8.5 97.6-75.7-6.6 8.5-97.6z"/></g></g></svg>