<svg xmlns="http://www.w3.org/2000/svg" width="299" height="391"><g filter="blur(12px)"><rect width="200%" height="200%" x="-50%" y="-50%" fill="#a48cc6"/><rect width="100%" height="100%" fill="#a48cc6"/><g fill-opacity=".5" transform="translate(.8 .8)scale(1.52734)"><ellipse cx="46" cy="218" fill="#00035a" rx="195" ry="49"/><ellipse cx="166" cy="19" fill="#0a1abf" rx="84" ry="75"/><path fill="#0003fb" d="M126 69 76 82l36 41z"/><path d="m-24.5 249-2.8-31.8 71.8-6.3 2.8 31.9z"/><circle r="1" fill="#ebfffd" transform="matrix(-6.06934 -22.33887 57.33594 -15.57783 38.8 72.7)"/><path d="m187.9 167.7-.8 41-27-.4.8-41z"/><circle r="1" fill="azure" transform="matrix(-1.26145 18.50364 -117.90927 -8.03825 177.7 137.4)"/><path fill="#0a1de8" d="m54 94-15 95-55-2z"/></g></g></svg>