<svg xmlns="http://www.w3.org/2000/svg" width="299" height="391"><g filter="blur(12px)"><rect width="200%" height="200%" x="-50%" y="-50%" fill="#479643"/><rect width="100%" height="100%" fill="#479643"/><g fill-opacity=".5" transform="translate(.8 .8)scale(1.52734)"><circle cx="87" cy="121" r="182" fill="#ffa3da"/><ellipse cx="82" cy="168" fill="#ff9c8e" rx="195" ry="218"/><circle r="1" fill="#9e5708" transform="matrix(-36.87152 37.65195 -19.39135 -18.98942 107.8 218.5)"/><circle r="1" fill="#e5d4da" transform="matrix(6.14978 18.66382 -67.1953 22.14103 114.4 47.7)"/><circle r="1" fill="#228f24" transform="matrix(-10.7825 -5.78573 7.70583 -14.36086 78.6 178.7)"/><circle r="1" fill="#efdfed" transform="matrix(9.05667 -6.7589 37.40854 50.1261 34.4 219.7)"/><path fill="#f11c2b" d="m179.3 139-20-6 13.4-44 20 6z"/><path fill="#f2e7f1" d="m168 267.3-22.8-3.2 8.9-63.4 22.7 3.2z"/></g></g></svg>