<svg xmlns="http://www.w3.org/2000/svg" width="299" height="391"><g filter="blur(12px)"><rect width="200%" height="200%" x="-50%" y="-50%" fill="#b15b5d"/><rect width="100%" height="100%" fill="#b15b5d"/><g fill-opacity=".5" transform="translate(.8 .8)scale(1.52734)"><circle r="1" fill="#a6d1d5" transform="matrix(-15.06967 -70.89722 190.73878 -40.54278 114.5 68)"/><path d="m110 81-69-5 65-25z"/><circle r="1" fill="#d0c5cf" transform="matrix(-16.13736 -30.03572 44.06148 -23.67301 11.7 199.5)"/><circle r="1" transform="matrix(.18223 11.8765 -32.06955 .49208 131.4 228.3)"/><circle cx="20" cy="115" r="38" fill="#f7ebea"/><path d="M79 110h27v24H79z"/><circle r="1" fill="#000c0e" transform="matrix(-.34765 -9.95536 31.72604 -1.1079 155.8 177.5)"/><path fill="#d8bac4" d="m140.1 172.6-7.2-45.4 87-13.8 7.2 45.4z"/></g></g></svg>