<svg xmlns="http://www.w3.org/2000/svg" width="299" height="391"><g filter="blur(12px)"><rect width="200%" height="200%" x="-50%" y="-50%" fill="#9b61a6"/><rect width="100%" height="100%" fill="#9b61a6"/><g fill-opacity=".5" transform="translate(.8 .8)scale(1.52734)"><circle r="1" fill="#dbffff" transform="rotate(-17.4 205.5 -266.9)scale(177.62527 102.03939)"/><circle r="1" fill="azure" transform="rotate(36.3 -326 125.4)scale(34.3687 42.2147)"/><circle r="1" fill="#00000e" transform="matrix(4.81103 50.99796 -9.83604 .92791 159 154.4)"/><path fill="#00e" d="m106.8 43-1.6 30-36-2 1.6-30z"/><ellipse cx="183" cy="177" fill="#d6f1ff" rx="15" ry="144"/><circle r="1" fill="#ffaf93" transform="matrix(12.44633 61.17329 -32.552 6.62304 108.1 234)"/><path fill="#002710" d="M110 148h43v35h-43z"/><circle r="1" fill="#0000ea" transform="matrix(.03747 10.73541 -26.11952 .09117 12.1 26.2)"/></g></g></svg>