<svg xmlns="http://www.w3.org/2000/svg" width="299" height="391"><g filter="blur(12px)"><rect width="200%" height="200%" x="-50%" y="-50%" fill="#828187"/><rect width="100%" height="100%" fill="#828187"/><g fill-opacity=".5" transform="translate(.8 .8)scale(1.52734)"><circle r="1" fill="#292930" transform="matrix(-5.93508 69.29673 -62.52477 -5.35507 170.5 220)"/><path fill="#dadbd6" d="m59 164-54-2 14-80z"/><circle r="1" fill="#eff0ec" transform="matrix(4.664 5.57582 -30.58874 25.58658 145.3 145.7)"/><circle r="1" fill="#fff" transform="matrix(-31.4857 -16.74125 5.49925 -10.34258 0 195.2)"/><path fill="#dcddd8" d="m51 110 34 9 49-51z"/><circle r="1" fill="#fff" transform="rotate(132.3 84 58)scale(16.62005 7.80121)"/><ellipse cx="87" cy="252" fill="#34323e" rx="37" ry="17"/><circle r="1" fill="#4e4c59" transform="rotate(-34.9 88 -114.3)scale(36.96899 23.11463)"/></g></g></svg>