<svg xmlns="http://www.w3.org/2000/svg" width="299" height="391"><g filter="blur(12px)"><rect width="200%" height="200%" x="-50%" y="-50%" fill="#999693"/><rect width="100%" height="100%" fill="#999693"/><g fill-opacity=".5" transform="translate(.8 .8)scale(1.52734)"><circle cx="112" cy="147" r="182" fill="#ffffa8"/><circle r="1" fill="#87703e" transform="matrix(16.016 -35.59686 22.5923 10.1649 150.3 214.9)"/><circle r="1" fill="#eed9a3" transform="matrix(-87.68508 -50.625 97.5 -168.87496 81.3 104)"/><path fill="#4d4630" d="m141 225 21 13-39 10z"/><path fill="#8c8359" d="m133 188.6 47.8 3.5-54.5-19.4 2.3 66.5z"/><path fill="#18170e" d="m175 225.3-10.8-9.8-.2 11.8-12 10.2z"/><path fill="#efe8d0" d="m171 160.8 5.7 1.6-15.7 54.8-5.7-1.6z"/><path fill="#e9dec2" d="m130.3 225.9 18.4-10.9-59 56 27.7-71.3z"/></g></g></svg>