<svg xmlns="http://www.w3.org/2000/svg" width="299" height="391"><g filter="blur(12px)"><rect width="200%" height="200%" x="-50%" y="-50%" fill="#9f904d"/><rect width="100%" height="100%" fill="#9f904d"/><g fill-opacity=".5" transform="translate(.8 .8)scale(1.52734)"><circle r="1" fill="#ffffa4" transform="matrix(-8.06259 159.75117 -194.24409 -9.80344 81 117.5)"/><ellipse cx="163" cy="204" fill="#ec0023" rx="20" ry="27"/><circle r="1" fill="#f7efff" transform="matrix(71.70257 -45.11906 8.65817 13.75945 77.4 11.3)"/><circle r="1" fill="#faae0c" transform="rotate(68.3 -102 163.8)scale(61.26858 23.86708)"/><path fill="#fae6d5" d="m111.8 89.6 69.9 63-39.5 43.8-69.9-63z"/><circle r="1" fill="#f8c140" transform="rotate(102.9 -17 70.9)scale(64.85231 48.85045)"/><circle r="1" fill="#f4eeff" transform="matrix(-.0674 64.61749 -8.4758 -.00884 137.4 233.6)"/><ellipse cx="65" cy="252" fill="#f7f5ff" rx="11" ry="55"/></g></g></svg>