<svg xmlns="http://www.w3.org/2000/svg" width="299" height="391"><g filter="blur(12px)"><rect width="200%" height="200%" x="-50%" y="-50%" fill="#6ba25e"/><rect width="100%" height="100%" fill="#6ba25e"/><circle r="1" fill="#fff" fill-opacity=".5" transform="matrix(-100.8096 90.27728 -64.43214 -71.9492 32.7 41.5)"/><circle r="1" fill="#d7e1e4" fill-opacity=".5" transform="matrix(1.61888 48.8006 -162.08718 5.37699 59.5 342.1)"/><circle r="1" fill="#b8dcc5" fill-opacity=".5" transform="matrix(-43.16563 20.88902 -67.4813 -139.44517 206.1 196.7)"/><path fill="#006100" fill-opacity=".5" d="M158 74 94 26.8 72.4 74.1z"/><path fill="#fff" fill-opacity=".5" d="m75.6 225.3-1.5 48.9-97.8-44.3z"/><path fill="#faf2ff" fill-opacity=".5" d="m219.2-23.7 21.4 105.4-70.3-81z"/><circle r="1" fill="#fff6ff" fill-opacity=".5" transform="matrix(13.23916 33.86418 -131.80223 51.5279 29 28)"/><circle r="1" fill="#006500" fill-opacity=".5" transform="matrix(-34.86401 -42.66124 11.90043 -9.72538 146.2 390.2)"/></g></svg>