<svg xmlns="http://www.w3.org/2000/svg" width="299" height="391"><g filter="blur(12px)"><rect width="200%" height="200%" x="-50%" y="-50%" fill="#7d7d7d"/><rect width="100%" height="100%" fill="#7d7d7d"/><g fill-opacity=".5" transform="translate(.8 .8)scale(1.52734)"><circle r="1" transform="rotate(176.1 10 16.4)scale(38.86837 28.39175)"/><path fill="#e2f1ff" d="m-7.6 169.6-3.7-106.9 67-2.3 3.6 106.9z"/><ellipse cx="167" cy="159" rx="69" ry="17"/><circle r="1" fill="#e9e9e9" transform="matrix(-18.25465 38.90911 -27.34002 -12.82688 89.4 31.6)"/><path fill="#fff" d="M104 176h92v16h-92z"/><circle r="1" transform="rotate(-107.2 154.4 57.1)scale(20.05961 31.46798)"/><circle r="1" fill="#fff" transform="matrix(11.20077 -11.98306 16.2197 15.16084 103 135.7)"/><path d="m73.8 225.4-19-22 35.4-30.8 19 22z"/></g></g></svg>