<svg xmlns="http://www.w3.org/2000/svg" width="299" height="391"><g filter="blur(12px)"><rect width="200%" height="200%" x="-50%" y="-50%" fill="#878888"/><rect width="100%" height="100%" fill="#878888"/><g fill-opacity=".5" transform="translate(.8 .8)scale(1.52734)"><path fill="#fff" d="M247.9 113.4 206 167 16.1 18.6 58-35z"/><circle r="1" transform="matrix(-29.50456 -1.76677 3.17976 -53.10124 125 153.6)"/><circle r="1" fill="#064e56" transform="matrix(-59.41483 58.59098 -38.94462 -39.49223 148.4 247.7)"/><path d="M156 26h40v25h-40zM27.7 151.3l38.9 3.4-2.3 26-38.9-3.4z"/><path fill="#fff" d="M154 51h26v130h-26z"/><ellipse cx="177" cy="6" fill="#f5f4f4" rx="128" ry="15"/><circle r="1" transform="matrix(-5.59193 -5.2265 22.35479 -23.9178 41.7 220.2)"/></g></g></svg>