<svg xmlns="http://www.w3.org/2000/svg" width="299" height="391"><g filter="blur(12px)"><rect width="200%" height="200%" x="-50%" y="-50%" fill="#8a4940"/><rect width="100%" height="100%" fill="#8a4940"/><g fill-opacity=".5" transform="translate(.8 .8)scale(1.52734)"><circle r="1" fill="#a8bba7" transform="matrix(175.97115 -53.62513 39.99067 131.2296 103 68)"/><circle r="1" fill="#f9f253" transform="matrix(-13.8557 -14.33996 51.2536 -49.52275 143.5 246.4)"/><ellipse cx="108" cy="100" fill="#0a1217" rx="15" ry="57"/><circle r="1" fill="#00323a" transform="matrix(3.78158 39.04487 -64.02072 6.20055 39.8 241.1)"/><circle r="1" fill="#ffc032" transform="matrix(3.69268 -50.28469 25.10664 1.84372 74.5 91.4)"/><path fill="#d9eaf0" d="m175.2 92.5-33.4 37.1-29-26 33.4-37.2z"/><ellipse cx="61" cy="20" fill="#000009" rx="37" ry="12"/><circle r="1" fill="#ff8d9a" transform="matrix(30.15883 8.13748 -8.574 31.77669 107.6 183.1)"/></g></g></svg>