<svg xmlns="http://www.w3.org/2000/svg" width="299" height="391"><g filter="blur(12px)"><rect width="200%" height="200%" x="-50%" y="-50%" fill="#8f746c"/><rect width="100%" height="100%" fill="#8f746c"/><g fill-opacity=".5" transform="translate(.8 .8)scale(1.52734)"><circle r="1" fill="#fbffff" transform="matrix(-4.12588 31.18703 -107.56943 -14.23085 104.5 11.4)"/><circle r="1" fill="#f0feff" transform="matrix(26.7874 54.91797 -35.20086 17.16997 165.7 183.3)"/><circle r="1" fill="#e0f8ff" transform="matrix(-25.37884 -12.05076 47.34157 -99.70113 58.4 73)"/><circle r="1" fill="#00080f" transform="matrix(4.6762 38.0846 -22.93177 2.81567 66.6 169.1)"/><circle r="1" fill="#00050d" transform="matrix(19.43114 -20.34995 16.61875 15.8684 111.7 109.4)"/><ellipse cx="15" cy="217" fill="#243d45" rx="125" ry="34"/><path d="m43.8 60.3-59.1 19.9-.7 12.1 60.4-6.6z"/><ellipse cx="191" cy="212" rx="15" ry="13"/></g></g></svg>