<svg xmlns="http://www.w3.org/2000/svg" width="299" height="391"><g filter="blur(12px)"><rect width="200%" height="200%" x="-50%" y="-50%" fill="#7b9c61"/><rect width="100%" height="100%" fill="#7b9c61"/><g fill-opacity=".5" transform="translate(.8 .8)scale(1.52734)"><circle cx="189" cy="171" r="208" fill="#e0bdc2"/><path fill="#ba1402" d="m8 149 116 42L7 252z"/><circle r="1" fill="#fff" transform="matrix(-26.76262 39.82699 -50.8314 -34.15728 166.6 243.2)"/><circle r="1" fill="#eff7ff" transform="matrix(1.90505 -12.1654 61.87615 9.68955 47 31.6)"/><circle r="1" fill="#f3111f" transform="matrix(5.05592 32.26062 -11.57292 1.81372 98 218.5)"/><circle r="1" fill="#467b1f" transform="matrix(9.97086 11.03497 -22.89151 20.68407 83.7 137.6)"/><path fill="#008f00" d="m202 157-45 1 3-30z"/><path fill="#008c00" d="m187 30-31 19 46 5z"/></g></g></svg>