<svg xmlns="http://www.w3.org/2000/svg" width="299" height="391"><g filter="blur(12px)"><rect width="200%" height="200%" x="-50%" y="-50%" fill="#8387ab"/><rect width="100%" height="100%" fill="#8387ab"/><g fill-opacity=".5" transform="translate(.8 .8)scale(1.52734)"><circle cx="56" cy="79" r="187" fill="#9591ff"/><circle r="1" fill="#1312da" transform="matrix(70.28153 -29.09967 7.40484 17.88417 86.7 220.7)"/><circle r="1" fill="ivory" transform="matrix(22.2053 21.90493 -17.17818 17.41374 132.3 154.2)"/><circle r="1" fill="#fbfae8" transform="matrix(-2.04347 56.52483 -10.70167 -.38688 80.7 56.8)"/><path fill="#fffff3" d="m181.5 106.7 24.6 4.7-11.6 60-24.6-4.8z"/><path fill="#ffffe0" d="m-3.7 102.9 20-.7 3.4 95-20 .6z"/><circle r="1" fill="#0000e7" transform="matrix(5.03494 -9.07035 32.57073 18.07998 85 165.6)"/><circle r="1" fill="#edeee2" transform="matrix(25.6809 9.04758 -7.71592 21.90108 167 80.9)"/></g></g></svg>