<svg xmlns="http://www.w3.org/2000/svg" width="299" height="391"><g filter="blur(12px)"><rect width="200%" height="200%" x="-50%" y="-50%" fill="#878787"/><rect width="100%" height="100%" fill="#878787"/><circle r="1" fill="#fff" fill-opacity=".5" transform="matrix(-71.53981 -32.92867 68.94463 -149.78698 64.9 67.1)"/><circle r="1" fill="#fff" fill-opacity=".5" transform="matrix(52.43032 45.98508 -44.06778 50.24428 260.7 163.8)"/><circle r="1" fill="#6e1f0d" fill-opacity=".5" transform="matrix(12.45125 71.324 -158.18108 27.61416 177.7 332.6)"/><circle r="1" fill-opacity=".5" transform="rotate(-48.8 268 -46.7)scale(79.96982 26.62967)"/><circle r="1" fill-opacity=".5" transform="matrix(.87111 20.40973 -81.12785 3.46263 262.1 77)"/><circle r="1" fill="#ff5725" fill-opacity=".5" transform="matrix(60.21458 43.01302 -34.98116 48.97066 259.8 354.3)"/><path fill="#ecffff" fill-opacity=".5" d="m202.9 311-52.5 10.3-15.7-81 52.4-10.2z"/><circle r="1" fill="#fff" fill-opacity=".5" transform="matrix(6.0605 28.28047 -81.8533 17.54116 241 12.3)"/></g></svg>