<svg xmlns="http://www.w3.org/2000/svg" width="299" height="391"><g filter="blur(12px)"><rect width="200%" height="200%" x="-50%" y="-50%" fill="#9f9754"/><rect width="100%" height="100%" fill="#9f9754"/><g fill-opacity=".5" transform="translate(.8 .8)scale(1.52734)"><circle r="1" fill="#f7f3dd" transform="matrix(127.41798 103.55973 -122.9889 151.32327 82.3 118.9)"/><ellipse cx="102" cy="38" fill="#194c8d" rx="25" ry="63"/><path fill="#003084" d="m52.3 180 49-1 .4 25-49 1z"/><circle r="1" fill="#fcf9fe" transform="matrix(-65.92508 2.23294 -.93939 -27.73427 136 128.8)"/><path fill="#002984" d="m26.2 126.4 1.7-24 45.9 3.2-1.7 24z"/><circle r="1" fill="#003a80" transform="matrix(28.71134 .20045 -.09078 13.00297 148.6 190.7)"/><circle cx="138" cy="255" r="67" fill="#ffda4d"/><circle r="1" fill="#efbe01" transform="matrix(-40.2896 24.50393 -9.50974 -15.63601 9 160.6)"/></g></g></svg>