<svg xmlns="http://www.w3.org/2000/svg" width="299" height="391"><g filter="blur(12px)"><rect width="200%" height="200%" x="-50%" y="-50%" fill="#999898"/><rect width="100%" height="100%" fill="#999898"/><g fill-opacity=".5" transform="translate(.8 .8)scale(1.52734)"><ellipse cx="91" cy="114" fill="#ffde6a" rx="189" ry="197"/><circle r="1" fill="#59411a" transform="matrix(23.87245 -14.51645 25.80344 42.434 133.8 200.3)"/><circle r="1" fill="#fcfcf7" transform="rotate(62.1 -73.4 44.2)scale(41.27195 95.26904)"/><path fill="#d65e06" d="m21 128 83 113-82-1z"/><circle r="1" fill="#fdf2ca" transform="matrix(-52.95493 20.32683 -9.94486 -25.90811 147.8 123.8)"/><circle r="1" fill="#fc5100" transform="rotate(158.2 31.7 93.6)scale(21.30813 19.91475)"/><path fill="#f06500" d="m-5.8 37.9 2.7-39 45 3.2-2.8 39z"/><path d="M112 192h18v32h-18z"/></g></g></svg>