<svg xmlns="http://www.w3.org/2000/svg" width="299" height="391"><g filter="blur(12px)"><rect width="200%" height="200%" x="-50%" y="-50%" fill="#ab6ca1"/><rect width="100%" height="100%" fill="#ab6ca1"/><g fill-opacity=".5" transform="translate(.8 .8)scale(1.52734)"><circle r="1" fill="#f20000" transform="matrix(78.83093 -18.78018 9.10666 38.22574 88.4 142.5)"/><circle r="1" fill="#043dff" transform="matrix(25.68818 46.53407 -27.22672 15.02996 109.8 234)"/><path fill="#00f" d="m61.4 87.4-1.9 36-53-2.8 2-36z"/><circle cx="157" cy="13" r="103" fill="#dfd0cb"/><circle r="1" fill="#000bff" transform="matrix(-1.95599 21.49266 -63.05556 -5.7385 0 40.5)"/><circle r="1" fill="#0315ef" transform="matrix(12.385 -15.2142 32.86656 26.75478 154.3 174.2)"/><circle r="1" fill="#f3ffff" transform="matrix(10.6176 -12.68396 22.30317 18.66974 143.6 205.8)"/><circle r="1" fill="#b6dfff" transform="matrix(-86.95338 -25.40104 7.55045 -25.84686 40.4 3.4)"/></g></g></svg>