<svg xmlns="http://www.w3.org/2000/svg" width="299" height="391"><g filter="blur(12px)"><rect width="200%" height="200%" x="-50%" y="-50%" fill="#868685"/><rect width="100%" height="100%" fill="#868685"/><circle r="1" fill="#eeeeef" fill-opacity=".5" transform="rotate(-13.4 253.8 -559.7)scale(297.83208 57.56545)"/><circle r="1" fill="#3f3009" fill-opacity=".5" transform="rotate(-129.8 123.7 127.7)scale(52.11138 280.35117)"/><circle r="1" fill="#ffc614" fill-opacity=".5" transform="matrix(56.76049 -76.42806 28.94886 21.49932 182.8 313.2)"/><circle r="1" fill="#ffcc0b" fill-opacity=".5" transform="matrix(-63.71907 2.89347 -2.18235 -48.05904 58.1 226.7)"/><circle r="1" fill-opacity=".5" transform="matrix(40.56972 .02888 -.0198 27.80681 82.2 149.7)"/><circle r="1" fill-opacity=".5" transform="matrix(-33.76518 1.78553 -.81002 -15.3178 148.8 48.6)"/><path fill-opacity=".5" d="m241.6 356.9 83.7 7.3-3.3 38-83.7-7.3z"/><circle r="1" fill="#fff5ca" fill-opacity=".5" transform="rotate(28.9 -617.1 620)scale(20.44529 76.39055)"/></g></svg>