<svg xmlns="http://www.w3.org/2000/svg" width="299" height="391"><g filter="blur(12px)"><rect width="200%" height="200%" x="-50%" y="-50%" fill="#9e8f73"/><rect width="100%" height="100%" fill="#9e8f73"/><g fill-opacity=".5" transform="translate(.8 .8)scale(1.52734)"><circle r="1" fill="#e8c100" transform="matrix(-1.9152 24.33487 -124.95318 -9.83403 40.3 157.4)"/><circle cx="142" cy="11" r="39" fill="#e1d2f6"/><path fill="#fff" d="m178.9 129 9 64.4-24.8 3.5-9-64.3z"/><circle r="1" fill="#fff" transform="matrix(-32.6551 .057 -.02158 -12.36597 112.9 90.5)"/><path fill="#ffbed7" d="m54.4 181.9-5 71.8-51.8-3.6 5-71.8z"/><path fill="#000f39" d="m128.1 159.4-12.5-36.1-14.4-4.8-19.7 29.6z"/><path d="m154.5 234.7-1-20 26-1.4 1 20z"/><ellipse cx="30" cy="92" fill="#2c3138" rx="47" ry="16"/></g></g></svg>