<svg xmlns="http://www.w3.org/2000/svg" width="300" height="176"><g filter="blur(12px)"><rect width="200%" height="200%" x="-50%" y="-50%" fill="#698d85"/><rect width="100%" height="100%" fill="#698d85"/><g fill-opacity=".5" transform="translate(.6 .6)scale(1.17188)"><circle r="1" fill="#ff3464" transform="rotate(-5.6 21.2 -435.8)scale(245.17803 25.05643)"/><circle r="1" fill="#aa9b8d" transform="rotate(-75.3 150.9 -42.3)scale(56.65296 178.74364)"/><path fill="#5d223b" d="m76.8 115.6-43 .8-.6-36 43-.8z"/><circle r="1" fill="#5b4554" transform="matrix(-64.94276 -.1486 .04523 -19.76663 184.9 46.8)"/><circle r="1" fill="#580008" transform="matrix(-2.64577 -7.63167 46.38572 -16.08112 0 40.4)"/><circle r="1" fill="#c9a2ac" transform="rotate(10.6 40 1109.7)scale(62.21766 13.92727)"/><circle r="1" fill="#d94664" transform="matrix(9.67384 -17.5325 21.82945 12.04476 124.2 141.5)"/><ellipse cx="231" cy="105" fill="#92d1a7" rx="88" ry="20"/></g></g></svg>