<svg xmlns="http://www.w3.org/2000/svg" width="300" height="176"><g filter="blur(12px)"><rect width="200%" height="200%" x="-50%" y="-50%" fill="#6360a5"/><rect width="100%" height="100%" fill="#6360a5"/><g fill-opacity=".5" transform="translate(.6 .6)scale(1.17188)"><circle r="1" fill="#0a1836" transform="matrix(80.0807 -27.95255 23.61197 67.64547 110.5 150)"/><circle r="1" fill="#e8f2af" transform="matrix(11.89766 -31.37573 23.56425 8.93556 18.3 35.7)"/><circle r="1" fill="#d7db7f" transform="rotate(88.3 64 169.9)scale(52.25793 14.83112)"/><circle r="1" fill="#2f2743" transform="rotate(115.1 90 73.6)scale(22.71643 101.18307)"/><circle r="1" fill="#768863" transform="matrix(104.18448 -23.95979 4.84351 21.06107 91.6 60.5)"/><ellipse cx="105" cy="150" fill="#0c0000" rx="30" ry="17"/><circle r="1" fill="#9ca6b7" transform="matrix(-47.94489 -80.4283 9.10143 -5.42554 119.3 19.6)"/><path fill="#6074d2" d="M0 84h89v22H0z"/></g></g></svg>