<svg xmlns="http://www.w3.org/2000/svg" width="300" height="176"><g filter="blur(12px)"><rect width="200%" height="200%" x="-50%" y="-50%" fill="#aaa566"/><rect width="100%" height="100%" fill="#aaa566"/><g fill-opacity=".5" transform="translate(.6 .6)scale(1.17188)"><circle r="1" fill="#164c8b" transform="rotate(96 -33.4 103.1)scale(50.45006 100.07436)"/><circle r="1" fill="#357ac8" transform="rotate(177.8 74 1.4)scale(69.84699 31.42537)"/><circle r="1" fill="#0061e4" transform="rotate(-115.6 131 -69)scale(11.3186 33.424)"/><path fill="#367ec4" d="m281.7 130.4-.4 27-103-1.8.4-27z"/><circle cx="133" cy="84" r="50" fill="#a5892e"/><circle r="1" fill="#9a8227" transform="rotate(-120.8 146.5 -9.6)scale(24.03635 37.68537)"/><path fill="#698691" d="m-7-13.3 41.4-15L59 39.2l-41.4 15z"/><path fill="#ca9d1c" d="m9 48 33 35 130-38z"/></g></g></svg>