<svg xmlns="http://www.w3.org/2000/svg" width="300" height="176"><g filter="blur(12px)"><rect width="200%" height="200%" x="-50%" y="-50%" fill="#5fa669"/><rect width="100%" height="100%" fill="#5fa669"/><g fill-opacity=".5" transform="translate(.6 .6)scale(1.17188)"><circle r="1" fill="#b9d4d0" transform="matrix(-16.03011 97.89005 -193.57057 -31.6984 147.6 102.6)"/><circle r="1" fill="#1a5398" transform="matrix(-18.0062 -13.86934 25.49436 -33.09864 229.3 .1)"/><ellipse cx="203" cy="150" fill="#3fa3d3" rx="35" ry="27"/><circle r="1" fill="#0c033d" transform="matrix(9.44673 20.68116 -10.17577 4.64808 3 2.7)"/><path fill="#004332" d="m254.1 76.5 4.2 9.5-7.1 4.6-14.1-30z"/><path fill="#aecca6" d="M244 42 18 23l-34 68z"/><path fill="#165a5f" d="m67.7 16.6 2.7-24.9 15.9 1.7-2.7 24.9z"/><path fill="#65d1ff" d="m191 6 4 11 38-17z"/></g></g></svg>