<svg xmlns="http://www.w3.org/2000/svg" width="300" height="176"><g filter="blur(12px)"><rect width="200%" height="200%" x="-50%" y="-50%" fill="#9474ac"/><rect width="100%" height="100%" fill="#9474ac"/><g fill-opacity=".5" transform="translate(.6 .6)scale(1.17188)"><circle cx="142" cy="74" r="169" fill="#004bd6"/><circle r="1" fill="#00023c" transform="matrix(-1.4778 7.36899 -22.5458 -4.52138 26.6 138)"/><circle r="1" fill="#2544aa" transform="matrix(1.30169 -37.46246 113.53511 3.94494 178.9 104.6)"/><path fill="#dcd8fe" d="M0 57h12v36H0z"/><circle r="1" fill="#bac4f5" transform="matrix(5.29497 6.94964 -12.63271 9.62493 52 83.4)"/><circle r="1" fill="#8c9cd8" transform="rotate(155.6 45 45.4)scale(77.55829 5.95137)"/><path fill="#7785dd" d="M153.5 121.4 65.7 166l54.9-42.7 7.8-35.3z"/><path fill="#c8bce6" d="m223.3 60.1 11.3 4.1-7.9 21.7-11.3-4.1z"/></g></g></svg>