<svg xmlns="http://www.w3.org/2000/svg" width="300" height="176"><g filter="blur(12px)"><rect width="200%" height="200%" x="-50%" y="-50%" fill="#505fa8"/><rect width="100%" height="100%" fill="#505fa8"/><g fill-opacity=".5" transform="translate(.6 .6)scale(1.17188)"><circle r="1" fill="#d8c4a4" transform="matrix(-14.40287 64.96713 -126.59978 -28.0665 128.7 63.7)"/><circle r="1" fill="#1a2029" transform="matrix(-37.66401 -2.98731 2.10013 -26.47847 159.3 150)"/><circle r="1" fill="#90907b" transform="rotate(-80.6 89.4 37.7)scale(36.51919 92.02978)"/><circle r="1" fill="#bbb587" transform="matrix(-64.2618 -26.28815 6.07222 -14.84365 235 127)"/><circle r="1" fill="#eec2d3" transform="matrix(8.38813 -13.28712 55.9213 35.303 81.8 77)"/><circle r="1" fill="#535e96" transform="matrix(.8383 44.51085 -28.84163 .5432 226.1 38)"/><path fill="#c5bd27" d="m130.2 50.8-24 1.3-2.4-47 24-1.2z"/><circle cx="41" cy="107" r="25" fill="#425150"/></g></g></svg>