<svg xmlns="http://www.w3.org/2000/svg" width="300" height="176"><g filter="blur(12px)"><rect width="200%" height="200%" x="-50%" y="-50%" fill="#729d4e"/><rect width="100%" height="100%" fill="#729d4e"/><g fill-opacity=".5" transform="translate(.6 .6)scale(1.17188)"><circle r="1" fill="#c4cf80" transform="matrix(26.30864 -109.59897 247.95625 59.52056 87.7 49.8)"/><circle r="1" fill="#a9c2e1" transform="matrix(-46.95137 -25.2807 15.63825 -29.0434 27.4 11)"/><circle r="1" fill="#58795a" transform="matrix(18.20187 -52.67317 13.83248 4.77999 136.7 117.4)"/><circle r="1" fill="#e2ec31" transform="rotate(178.3 122.7 19.5)scale(17.94991 66.1719)"/><path fill="#5d73c8" d="m92 96 24-49-47 31z"/><circle r="1" fill="#718495" transform="rotate(-128.6 109.6 6.3)scale(32.30082 20.07853)"/><circle r="1" fill="#a5c431" transform="rotate(-113.1 52.6 44.3)scale(25.45754 43.17728)"/><ellipse cx="214" cy="11" fill="#4859e7" rx="5" ry="24"/></g></g></svg>