<svg xmlns="http://www.w3.org/2000/svg" width="300" height="176"><g filter="blur(12px)"><rect width="200%" height="200%" x="-50%" y="-50%" fill="#549493"/><rect width="100%" height="100%" fill="#549493"/><g fill-opacity=".5" transform="translate(.6 .6)scale(1.17188)"><circle r="1" fill="#f19870" transform="matrix(7.50112 107.271 -192.07216 13.431 96.4 79.6)"/><path fill="#290e08" d="m190 67-5 42 86 57z"/><ellipse cx="69" cy="92" fill="#170e00" rx="28" ry="12"/><circle r="1" fill="#d3cfc2" transform="matrix(-56.26341 -33.14168 24.27298 -41.20734 166.7 21.6)"/><circle r="1" fill="#453d09" transform="matrix(-14.66774 3.42932 -6.92603 -29.62376 150.6 111.6)"/><circle r="1" fill="#311300" transform="matrix(-27.67542 .32044 -.10412 -8.9922 239.3 6.6)"/><circle r="1" fill="#424055" transform="matrix(-21.1527 6.10541 -5.4406 -18.8494 28.6 82)"/><circle r="1" fill="#dfba4e" transform="rotate(83.2 -29.5 133)scale(27.24741 119.01205)"/></g></g></svg>