<svg xmlns="http://www.w3.org/2000/svg" width="300" height="176"><g filter="blur(12px)"><rect width="200%" height="200%" x="-50%" y="-50%" fill="#b6995f"/><rect width="100%" height="100%" fill="#b6995f"/><g fill-opacity=".5" transform="translate(.6 .6)scale(1.17188)"><circle r="1" fill="#a0a3d2" transform="matrix(2.16632 41.7947 -67.24942 3.4857 58.9 0)"/><circle r="1" fill="#645d32" transform="matrix(-1.48994 13.2831 -113.49583 -12.7306 246.9 132)"/><circle cx="173" cy="16" r="24" fill="#605f96"/><circle r="1" fill="#a9b7ec" transform="matrix(11.54853 -7.3518 15.47925 24.31549 230.5 4.1)"/><ellipse cx="172" cy="150" fill="#ffffe6" rx="31" ry="8"/><path fill="#585b6c" d="m11.2 29.6 22.2 36.8-26.6 16-22.2-36.8z"/><path fill="#8998e7" d="M132 88h20v37h-20z"/><path fill="#e5f3ff" d="m70 33.2-6.7 23-19.2-5.4 6.6-23z"/></g></g></svg>