<svg xmlns="http://www.w3.org/2000/svg" width="300" height="176"><g filter="blur(12px)"><rect width="200%" height="200%" x="-50%" y="-50%" fill="#a47454"/><rect width="100%" height="100%" fill="#a47454"/><circle r="1" fill="#1875ef" fill-opacity=".5" transform="matrix(-58.89923 140.07943 -167.27008 -70.33208 159.4 87.5)"/><circle r="1" fill="#ebaf47" fill-opacity=".5" transform="matrix(11.00667 -40.56885 19.295 5.2349 299.4 74.2)"/><circle r="1" fill="#a8b2cf" fill-opacity=".5" transform="matrix(28.176 -19.75182 24.7859 35.35712 106.9 8.8)"/><circle r="1" fill="#867660" fill-opacity=".5" transform="matrix(18.64585 -21.22412 57.80793 50.7855 156.5 158)"/><circle r="1" fill="#1b5ccc" fill-opacity=".5" transform="matrix(-4.54406 -99.21343 23.70396 -1.08566 157.8 33.5)"/><circle r="1" fill="#1b5ed3" fill-opacity=".5" transform="rotate(162.7 13.1 60)scale(35.93895 29.07663)"/><circle r="1" fill="#1857c9" fill-opacity=".5" transform="matrix(9.1508 -12.3666 140.35215 103.85513 49.5 22.4)"/><circle r="1" fill="#b39b73" fill-opacity=".5" transform="matrix(-12.86606 -18.11573 30.65698 -21.77305 19.3 65.2)"/></g></svg>