<svg xmlns="http://www.w3.org/2000/svg" width="300" height="176"><g filter="blur(12px)"><rect width="200%" height="200%" x="-50%" y="-50%" fill="#9f72ae"/><rect width="100%" height="100%" fill="#9f72ae"/><g fill-opacity=".5" transform="translate(.6 .6)scale(1.17188)"><circle r="1" fill="#a9c986" transform="matrix(-198.55628 38.52265 -18.49921 -95.35 144.9 99)"/><ellipse cx="184" cy="144" fill="#88aa4e" rx="106" ry="50"/><circle r="1" fill="#cf9ae8" transform="rotate(-11.2 534.8 -281.6)scale(31.849 42.93553)"/><circle r="1" fill="#634784" transform="matrix(-27.27527 41.19208 -12.51118 -8.28426 101.6 48.8)"/><circle r="1" fill="#6e4c8a" transform="matrix(18.77069 -10.44763 22.08989 39.6877 208.8 120.7)"/><circle r="1" fill="#b58cd2" transform="rotate(40.4 62.9 285)scale(35.60793 67.98273)"/><circle r="1" fill="#bfeb75" transform="matrix(-24.04767 -2.78241 8.09794 -69.98844 255.1 81.5)"/><path fill="#000205" d="m174 146 35-4 2-22z"/></g></g></svg>