<svg xmlns="http://www.w3.org/2000/svg" width="300" height="176"><g filter="blur(12px)"><rect width="200%" height="200%" x="-50%" y="-50%" fill="#4ca78e"/><rect width="100%" height="100%" fill="#4ca78e"/><g fill-opacity=".5" transform="translate(.6 .6)scale(1.17188)"><circle r="1" fill="#8b458b" transform="matrix(228.43336 -17.72138 9.59818 123.7231 155.4 55.8)"/><circle r="1" fill="#f25240" transform="rotate(-119.1 112 -61.2)scale(29.59563 21.31684)"/><circle r="1" fill="#d1b9cb" transform="rotate(-54 46.8 -92)scale(23.77439 43.28117)"/><circle r="1" fill="#9c352d" transform="matrix(39.2226 -21.20758 11.19758 20.70949 239.9 140)"/><ellipse cx="199" cy="87" fill="#326e94" rx="194" ry="31"/><circle r="1" fill="#f36d4a" transform="matrix(-34.97091 -9.5244 3.22127 -11.82758 21.8 150)"/><circle r="1" fill="#c68b96" transform="matrix(35.48687 -16.15282 5.5143 12.1146 171.3 13)"/><path fill="#90ccca" d="m207 49 34 2-73-67z"/></g></g></svg>