<svg xmlns="http://www.w3.org/2000/svg" width="300" height="176"><g filter="blur(12px)"><rect width="200%" height="200%" x="-50%" y="-50%" fill="#97a552"/><rect width="100%" height="100%" fill="#97a552"/><g fill-opacity=".5" transform="translate(.6 .6)scale(1.17188)"><circle r="1" fill="#bfe379" transform="matrix(83.8823 77.38794 -129.55668 140.42903 46 54.3)"/><path fill="#384624" d="m238.1 119-90.6-8 2.4-28 90.6 8z"/><circle r="1" fill="#6a9222" transform="matrix(-26.87594 -36.50906 19.27984 -14.19275 98.4 68.4)"/><ellipse cx="57" cy="150" fill="#121b1d" rx="12" ry="19"/><circle r="1" fill="#c8e496" transform="matrix(-90.16834 -33.1755 8.4402 -22.9398 163.3 145.5)"/><circle r="1" fill="#c7e1a0" transform="rotate(1 59.1 6784.7)scale(62.22741 35.42831)"/><ellipse cx="246" cy="60" fill="#b8e266" rx="82" ry="30"/><circle r="1" fill="#e1e56a" transform="rotate(-95.2 42.2 39.8)scale(88.4024 24.45375)"/></g></g></svg>