<svg xmlns="http://www.w3.org/2000/svg" width="300" height="176"><g filter="blur(12px)"><rect width="200%" height="200%" x="-50%" y="-50%" fill="#989c63"/><rect width="100%" height="100%" fill="#989c63"/><circle r="1" fill="#b49bcf" fill-opacity=".5" transform="matrix(160.62185 47.16085 -24.0044 81.75492 162 68.2)"/><circle r="1" fill="#69941a" fill-opacity=".5" transform="matrix(5.19553 25.81423 -43.83457 8.82241 147.6 140)"/><circle r="1" fill="#c3dc83" fill-opacity=".5" transform="matrix(-23.97247 -47.64783 86.57825 -43.55905 239.3 151.7)"/><circle r="1" fill="#2b3b10" fill-opacity=".5" transform="matrix(64.76104 -24.73095 1.63996 4.29444 241.6 85.7)"/><circle r="1" fill="#d1b5f5" fill-opacity=".5" transform="matrix(-59.8214 79.09808 -14.46122 -10.93693 98.3 16.7)"/><circle r="1" fill="#cebcdd" fill-opacity=".5" transform="matrix(50.24194 -26.2391 8.86775 16.97972 237 140.3)"/><circle r="1" fill="#9b59ae" fill-opacity=".5" transform="matrix(-.01115 -57.683 31.99441 -.00619 198.6 46.3)"/><circle r="1" fill="#d9b2fc" fill-opacity=".5" transform="rotate(-20.7 271.3 -636.5)scale(53.53146 13.91319)"/></g></svg>