<svg xmlns="http://www.w3.org/2000/svg" width="300" height="176"><g filter="blur(12px)"><rect width="200%" height="200%" x="-50%" y="-50%" fill="#6979a1"/><rect width="100%" height="100%" fill="#6979a1"/><g fill-opacity=".5" transform="translate(.6 .6)scale(1.17188)"><circle r="1" fill="#c58e85" transform="matrix(-82.14508 -83.60805 171.09328 -168.0995 155.7 78)"/><ellipse cx="40" cy="31" fill="#524049" rx="34" ry="62"/><circle r="1" fill="#522d29" transform="matrix(-29.56005 -8.82603 5.0117 -16.78514 106.6 50)"/><circle r="1" fill="#a9b0cd" transform="matrix(-22.79005 -23.38952 42.29905 -41.21493 159.8 110.6)"/><circle r="1" fill="#fe6e3c" transform="matrix(-79.953 7.31594 -1.59951 -17.48043 248.2 0)"/><circle r="1" fill="#674a5d" transform="matrix(36.37506 10.40648 -5.56168 19.44042 225.6 59.1)"/><path fill="#ccd8e6" d="M140.5 23.4 91 31.3 87.5 8.6 137 .7z"/><path fill="#e6ffff" d="M72 64h20v26H72z"/></g></g></svg>