<svg xmlns="http://www.w3.org/2000/svg" width="300" height="176"><g filter="blur(12px)"><rect width="200%" height="200%" x="-50%" y="-50%" fill="#6e858f"/><rect width="100%" height="100%" fill="#6e858f"/><g fill-opacity=".5" transform="translate(.6 .6)scale(1.17188)"><circle r="1" fill="#beac89" transform="rotate(10.9 -136 722.1)scale(171.7143 154.59736)"/><circle r="1" fill="#475360" transform="matrix(-3.61143 -12.96251 96.86356 -26.98676 225.6 67.8)"/><circle r="1" fill="#cd9f25" transform="matrix(13.2116 -26.84951 42.49548 20.91037 154.7 149)"/><ellipse cx="74" cy="100" fill="#677fa9" rx="64" ry="31"/><circle r="1" fill="#afb8f1" transform="matrix(35.99202 -15.97202 5.49574 12.38434 66.6 28)"/><path fill="#87a7e5" d="m126 90 36-52 109-1z"/><path fill="#001612" d="m126.3 71-6.6 2.5-14-38.6 6.6-2.4z"/><circle r="1" fill="#ffc131" transform="matrix(7.74932 13.17671 -19.35707 11.38404 214.5 9)"/></g></g></svg>