<svg xmlns="http://www.w3.org/2000/svg" width="300" height="176"><g filter="blur(12px)"><rect width="200%" height="200%" x="-50%" y="-50%" fill="#b09859"/><rect width="100%" height="100%" fill="#b09859"/><g fill-opacity=".5" transform="translate(.6 .6)scale(1.17188)"><ellipse cx="137" cy="56" fill="#b87fa0" rx="161" ry="114"/><circle r="1" fill="#3b1d09" transform="matrix(1.78261 10.10257 -69.86542 12.32786 152.5 56.3)"/><circle r="1" fill="#e0bcc8" transform="rotate(2.8 -618.4 600.2)scale(36.74804 31.30612)"/><circle r="1" fill="#f2b6e2" transform="matrix(-8.04148 18.43701 -22.19617 -9.68107 225 24)"/><circle r="1" fill="#ac8d30" transform="matrix(9.5256 -18.92359 41.93036 21.10654 175.3 87.1)"/><circle r="1" fill="#92702e" transform="matrix(23.01823 -64.28743 17.67883 6.32994 255 69.7)"/><path fill="#e898f5" d="m208.3 162 16.8-122.1 10.5 57.4-1.9-14.6z"/><path fill="#ccdbd9" d="M112-16 90 58l39-51z"/></g></g></svg>