<svg xmlns="http://www.w3.org/2000/svg" width="300" height="176"><g filter="blur(12px)"><rect width="200%" height="200%" x="-50%" y="-50%" fill="#68609c"/><rect width="100%" height="100%" fill="#68609c"/><g fill-opacity=".5" transform="translate(.6 .6)scale(1.17188)"><circle r="1" fill="#9ddf82" transform="matrix(29.31793 126.98991 -248.46438 57.36252 98.7 133.3)"/><circle r="1" fill="#003700" transform="rotate(-164.8 116.4 56.5)scale(24.70064 27.25324)"/><circle r="1" fill="#33ac10" transform="matrix(13.99554 16.27132 -29.85585 25.68008 187 29.8)"/><ellipse cx="84" cy="121" fill="#ecd0ff" rx="43" ry="14"/><path fill="#2f6441" d="M124 113h110v38H124z"/><path fill="#d7cbff" d="m141 18-7-34-75 41z"/><path fill="#b49dce" d="m231 104-175 8 106-41z"/><path fill="#f4d4ff" d="m238.8 22-30.5 55.2-13.1-7.3 30.5-55z"/></g></g></svg>