<svg xmlns="http://www.w3.org/2000/svg" width="300" height="176"><g filter="blur(12px)"><rect width="200%" height="200%" x="-50%" y="-50%" fill="#acaa52"/><rect width="100%" height="100%" fill="#acaa52"/><g fill-opacity=".5" transform="translate(.6 .6)scale(1.17188)"><circle r="1" fill="#51d278" transform="rotate(169.5 50.6 47.1)scale(196.09146 125.14106)"/><circle r="1" fill="#79959a" transform="matrix(-14.80027 65.40752 -87.29464 -19.75284 112 131.4)"/><circle r="1" fill="#78e722" transform="matrix(.24015 35.23418 -254.99408 1.738 193.6 21.7)"/><ellipse cx="215" cy="94" fill="#d6cdc7" rx="29" ry="17"/><ellipse cx="244" cy="127" fill="#e5d6d4" rx="8" ry="29"/><path fill="#3c7e70" d="m96 75-6 91L55 59z"/><path fill="#88c5e9" d="m98.5 58 5.3 36.7 37.1-46.1 1.3 39.3z"/><circle r="1" fill="#a0babc" transform="matrix(5.99521 10.02304 -17.19694 10.28623 208.2 67.6)"/></g></g></svg>