<svg xmlns="http://www.w3.org/2000/svg" width="300" height="176"><g filter="blur(12px)"><rect width="200%" height="200%" x="-50%" y="-50%" fill="#af74ac"/><rect width="100%" height="100%" fill="#af74ac"/><circle r="1" fill="#8bad7f" fill-opacity=".5" transform="matrix(151.6 -44.36066 74.39154 254.22883 147 114.2)"/><circle r="1" fill="#302325" fill-opacity=".5" transform="matrix(14.78588 9.39988 -27.531 43.30586 289 151.7)"/><path fill="#433e47" fill-opacity=".5" d="m81.4 82.6 78.6 54-54-88z"/><path fill="#b4e25b" fill-opacity=".5" d="m183 194 53-75.9 34.6 24.2-53.1 75.9z"/><circle r="1" fill="#d3bdef" fill-opacity=".5" transform="matrix(7.06144 16.34895 -33.56128 14.4958 283 17)"/><circle r="1" fill="#cbb6e3" fill-opacity=".5" transform="matrix(12.79279 30.98231 -18.4386 7.61341 185.8 23.5)"/><path fill="#576b3b" fill-opacity=".5" d="m145.9 156.4-78.5 38.7L79 151.8z"/><circle r="1" fill="#e6b2d3" fill-opacity=".5" transform="matrix(9.50614 24.50753 -13.7953 5.35101 60.6 87.4)"/></g></svg>