<svg xmlns="http://www.w3.org/2000/svg" width="300" height="176"><g filter="blur(12px)"><rect width="200%" height="200%" x="-50%" y="-50%" fill="#aa7d61"/><rect width="100%" height="100%" fill="#aa7d61"/><g fill-opacity=".5" transform="translate(.6 .6)scale(1.17188)"><circle r="1" fill="#e2bd62" transform="matrix(21.72749 -75.16411 229.628 66.37794 55.9 35.5)"/><path fill="#170700" d="m116 80 33-10-24-21z"/><ellipse cx="233" cy="18" fill="#c88109" rx="69" ry="21"/><circle r="1" fill="#98702f" transform="matrix(34.69623 -42.43471 52.42505 42.8647 88 150)"/><path fill="#d0bba8" d="m261 86-119 8 31 54z"/><path fill="#dec6ae" d="m43 56-59 46 62 10z"/><circle r="1" fill="#200c10" transform="matrix(2.33983 6.75703 -10.36678 3.58982 170.5 85.8)"/><path fill="#f7ffff" d="m86 56 16-7-4 40z"/></g></g></svg>