<svg xmlns="http://www.w3.org/2000/svg" width="300" height="176"><g filter="blur(12px)"><rect width="200%" height="200%" x="-50%" y="-50%" fill="#506c94"/><rect width="100%" height="100%" fill="#506c94"/><g fill-opacity=".5" transform="translate(.6 .6)scale(1.17188)"><circle r="1" fill="#20f2cc" transform="matrix(-55.25561 -112.56524 163.22761 -80.12457 156.2 71)"/><ellipse cx="161" cy="150" fill="#233f5b" rx="24" ry="34"/><circle r="1" fill="#74c6e0" transform="rotate(-177 86.2 .5)scale(61.18967 28.41192)"/><circle r="1" fill="#1c7e84" transform="matrix(35.3436 -11.37456 18.91381 58.76994 1.4 43.5)"/><circle r="1" fill="#0d665f" transform="matrix(-11.86016 -18.75824 11.31794 -7.15593 191.7 75.4)"/><path fill="#3ad5d8" d="M124 120.3 32.1 10.8 62-14.3l91.9 109.5z"/><path fill="#006a67" d="m236.6 103-23-30.7 6.5 15.1v75.8z"/><ellipse cx="255" cy="84" fill="#5bd7e5" rx="22" ry="42"/></g></g></svg>