<svg xmlns="http://www.w3.org/2000/svg" width="300" height="176"><g filter="blur(12px)"><rect width="200%" height="200%" x="-50%" y="-50%" fill="#9a5eab"/><rect width="100%" height="100%" fill="#9a5eab"/><g fill-opacity=".5" transform="translate(.6 .6)scale(1.17188)"><circle r="1" fill="#959d6e" transform="matrix(1.07774 -68.69955 254.96863 3.99987 86.2 116.2)"/><circle r="1" fill="#dcf13e" transform="matrix(-24.02587 -23.52787 6.7764 -6.91983 30.3 139.4)"/><circle r="1" fill="#8036a4" transform="matrix(-47.36288 -45.66641 15.61178 -16.19175 41 88.6)"/><path fill="#5209cb" d="m212.3 158.7-20.6-4.4 10-47 20.6 4.4z"/><path fill="#673794" d="M160 17 96 51l66 79z"/><circle r="1" fill="#aebd77" transform="matrix(-23.21886 -2.39944 4.57457 -44.26717 182.2 84.8)"/><ellipse cx="155" cy="146" fill="#d8fe57" rx="32" ry="7"/><path fill="#aed149" d="m68 74-53-9 45-27z"/></g></g></svg>