<svg xmlns="http://www.w3.org/2000/svg" width="300" height="176"><g filter="blur(12px)"><rect width="200%" height="200%" x="-50%" y="-50%" fill="#8d4daa"/><rect width="100%" height="100%" fill="#8d4daa"/><g fill-opacity=".5" transform="translate(.6 .6)scale(1.17188)"><circle r="1" fill="#38339b" transform="matrix(-161.26212 112.94507 -76.90908 -109.8102 105.4 90)"/><circle r="1" fill="#6a2b61" transform="matrix(-25.25335 -15.5336 41.8589 -68.05103 51 94.3)"/><circle r="1" fill="#3e59f2" transform="matrix(44.91821 -3.6231 2.677 33.18876 45.2 0)"/><circle r="1" fill="#4a55dd" transform="matrix(23.71992 5.95915 -14.512 57.7639 99.7 113.2)"/><circle r="1" fill="#660b44" transform="matrix(-4.30733 -8.31276 46.42731 -24.05673 120.6 38.1)"/><circle cx="189" cy="75" r="51" fill="#7d53b7"/><circle r="1" fill="#5e1a6f" transform="matrix(14.27374 -9.4161 25.94091 39.32349 232.1 23.8)"/><ellipse cx="61" cy="138" fill="#5c153e" rx="10" ry="43"/></g></g></svg>