<svg xmlns="http://www.w3.org/2000/svg" width="300" height="176"><g filter="blur(12px)"><rect width="200%" height="200%" x="-50%" y="-50%" fill="#9ea367"/><rect width="100%" height="100%" fill="#9ea367"/><g fill-opacity=".5" transform="translate(.6 .6)scale(1.17188)"><circle r="1" fill="#421b71" transform="matrix(-3.07861 27.13403 -48.95394 -5.5543 55.7 37)"/><circle r="1" fill="#76408a" transform="matrix(57.29737 -72.44607 15.55488 12.3023 209.9 94)"/><ellipse cx="128" cy="62" fill="#a27693" rx="61" ry="144"/><circle r="1" fill="#130b22" transform="matrix(1.27621 12.04238 -14.09775 1.49403 210 8.8)"/><path fill="#0f0a28" d="m172 138.6-34.8-50.3 57.2 52.1-1 8z"/><circle r="1" fill="#000405" transform="matrix(-20.16438 -24.63605 4.27888 -3.50222 48.3 48.3)"/><path fill="#002" d="M158 3h7v35h-7z"/><circle r="1" fill="#ebf45e" transform="matrix(-10.8371 53.74602 -18.78571 -3.78786 255 119)"/></g></g></svg>