<svg xmlns="http://www.w3.org/2000/svg" width="300" height="176"><g filter="blur(12px)"><rect width="200%" height="200%" x="-50%" y="-50%" fill="#a46a6b"/><rect width="100%" height="100%" fill="#a46a6b"/><g fill-opacity=".5" transform="translate(.6 .6)scale(1.17188)"><circle r="1" fill="#96b5b8" transform="matrix(131.97588 75.40977 -36.18988 63.3365 102.6 40.2)"/><circle cx="22" cy="132" r="28" fill="#234229"/><path fill="#37da88" d="m159.7 153 7.8-84.9-33.2 63.1L114 166z"/><ellipse cx="255" cy="27" fill="#690d00" rx="26" ry="24"/><path fill="#adb9bc" d="M251.8-1.2 128.4 56.9 59.6 33.5l158.5-48.4z"/><path fill="#655a56" d="M14 59h35v89H14z"/><path fill="#3a9755" d="m256 157.4-34.9 1.2-1.2-34 35-1.2z"/><path fill="#d1d1e3" d="m178 94 44-1 5-32z"/></g></g></svg>