<svg xmlns="http://www.w3.org/2000/svg" width="300" height="176"><g filter="blur(12px)"><rect width="200%" height="200%" x="-50%" y="-50%" fill="#6d8c87"/><rect width="100%" height="100%" fill="#6d8c87"/><g fill-opacity=".5" transform="translate(.6 .6)scale(1.17188)"><circle r="1" fill="#caa399" transform="matrix(-186.2678 -10.41399 7.2421 -129.5345 119 65.3)"/><circle r="1" fill="#4a5845" transform="matrix(-17.87748 -4.11091 5.20867 -22.65138 106 38.4)"/><circle r="1" fill="#d1e1c7" transform="matrix(-16.86287 -16.92183 45.76585 -45.60638 22.4 16.9)"/><circle r="1" fill="#a8613c" transform="matrix(14.99395 -26.31122 33.55383 19.12128 50.2 150)"/><circle r="1" fill="#c1eed3" transform="matrix(25.93468 39.32498 -7.70543 5.0817 147.4 110.4)"/><path fill="#b8ffe3" d="m88.5 139.1 27.8-20-23.5-4.3-52.5-18.1z"/><circle r="1" fill="#c76042" transform="matrix(.46263 10.20754 -101.65957 4.6074 132.7 150)"/><circle cx="233" cy="29" r="26" fill="#aac3cd"/></g></g></svg>