<svg xmlns="http://www.w3.org/2000/svg" width="300" height="176"><g filter="blur(12px)"><rect width="200%" height="200%" x="-50%" y="-50%" fill="#6c63a6"/><rect width="100%" height="100%" fill="#6c63a6"/><circle r="1" fill="#fff" fill-opacity=".5" transform="matrix(298.66383 9.9077 -1.39595 42.08032 163.9 33.4)"/><circle r="1" fill="#cedcfb" fill-opacity=".5" transform="matrix(68.56041 11.59064 -49.81227 294.64722 30.6 148.5)"/><circle r="1" fill="#bbc7f7" fill-opacity=".5" transform="matrix(51.083 15.63792 -58.1413 189.92497 245.5 87.8)"/><circle r="1" fill="#f4edff" fill-opacity=".5" transform="matrix(183.9667 -2.5172 .53202 38.8817 137.4 21.3)"/><circle r="1" fill="#4960c3" fill-opacity=".5" transform="matrix(-9.7468 32.8766 -47.87637 -14.19373 188 104)"/><circle r="1" fill="#6f7ec3" fill-opacity=".5" transform="rotate(-14.8 457.6 -302.2)scale(106.54831 36.76802)"/><circle r="1" fill="#f3f8ff" fill-opacity=".5" transform="matrix(9.27165 -16.89899 49.41755 27.113 24 176.4)"/><path fill="#ccd1c5" fill-opacity=".5" d="m86 182.5 16-36.2 28.4 48.8 26.3-26z"/></g></svg>