<svg xmlns="http://www.w3.org/2000/svg" width="300" height="176"><g filter="blur(12px)"><rect width="200%" height="200%" x="-50%" y="-50%" fill="#a58c4a"/><rect width="100%" height="100%" fill="#a58c4a"/><g fill-opacity=".5" transform="translate(.6 .6)scale(1.17188)"><circle r="1" fill="#eaae73" transform="rotate(-99.5 75.7 -12.4)scale(142.05091 167.28453)"/><ellipse cx="122" cy="23" fill="#7d611c" rx="11" ry="21"/><path fill="#e9d7b4" d="m74.5 19.5 4.9 75 12.7-20.9-41.6 13.2z"/><path fill="#6d551e" d="m237 55.7 3.3 5.3 10.4 39-1.7 53z"/><path fill="#674c16" d="m119.7 99.4-9.2 4.7-23.1-4.5 30.6 23.8z"/><path fill="#2a321c" d="M48 113 38 83l13 13z"/><path fill="#2c2500" d="m53 21 9-24v27z"/><path fill="#debf92" d="m145.2 114.4 90.3 17.5-2.7 13.7-90.3-17.5z"/></g></g></svg>