<svg xmlns="http://www.w3.org/2000/svg" width="300" height="176"><g filter="blur(12px)"><rect width="200%" height="200%" x="-50%" y="-50%" fill="#899d57"/><rect width="100%" height="100%" fill="#899d57"/><g fill-opacity=".5" transform="translate(.6 .6)scale(1.17188)"><circle r="1" fill="#ade38f" transform="rotate(81.4 15.5 119.6)scale(89.13217 235.46385)"/><ellipse cx="133" cy="58" fill="#3f5618" rx="26" ry="18"/><circle r="1" fill="#def9d3" transform="matrix(-15.9367 47.1623 -11.29462 -3.81659 105.7 24)"/><circle r="1" fill="#c5e3a9" transform="matrix(-36.06437 33.18999 -18.79279 -20.42032 22.6 121.7)"/><circle r="1" fill="#65982e" transform="rotate(-144.2 14 29)scale(31.91872 23.88275)"/><path fill="#d2ecd0" d="m51.2 95.2.8-82.5-30.3 48 73-23.3z"/><path fill="#5b7e31" d="m179 39-73 23 24-45z"/><path fill="#dff5d1" d="m236-15-12 55-32 12z"/></g></g></svg>