<svg xmlns="http://www.w3.org/2000/svg" width="300" height="176"><g filter="blur(12px)"><rect width="200%" height="200%" x="-50%" y="-50%" fill="#ad9165"/><rect width="100%" height="100%" fill="#ad9165"/><g fill-opacity=".5" transform="translate(.6 .6)scale(1.17188)"><circle r="1" fill="#31856d" transform="matrix(112.8588 107.06886 -77.08964 81.2584 119 82.6)"/><circle r="1" fill="#aeb1b0" transform="matrix(-14.76779 30.54864 -75.09266 -36.30121 129.7 10.4)"/><path fill="#1e3b36" d="M10 36h37v87H10z"/><ellipse cx="126" cy="84" fill="#24743e" rx="35" ry="23"/><circle r="1" fill="#b4a197" transform="matrix(16.64951 6.94143 -16.19482 38.84446 67.6 58.9)"/><circle r="1" fill="#c86864" transform="matrix(19.35583 3.28693 -5.41387 31.88083 186.2 38.6)"/><circle r="1" fill="#1bc35d" transform="matrix(12.35822 -16.56362 22.62307 16.87922 42.9 13.5)"/><circle r="1" fill="#1f4340" transform="matrix(30.7954 -11.91274 4.37637 11.31327 51.7 135)"/></g></g></svg>