<svg xmlns="http://www.w3.org/2000/svg" width="300" height="176"><g filter="blur(12px)"><rect width="200%" height="200%" x="-50%" y="-50%" fill="#a571aa"/><rect width="100%" height="100%" fill="#a571aa"/><circle r="1" fill="#906823" fill-opacity=".5" transform="matrix(52.52913 -19.53541 30.3562 81.62538 264.3 35)"/><circle r="1" fill="#b6a685" fill-opacity=".5" transform="matrix(-73.67512 103.67096 -124.69675 -88.61737 121.1 99)"/><circle r="1" fill="#501600" fill-opacity=".5" transform="matrix(24.5354 16.63672 -22.82656 33.66401 .6 174.4)"/><circle r="1" fill="#591822" fill-opacity=".5" transform="matrix(-1.56914 29.94104 -32.51678 -1.70413 238.9 9)"/><circle r="1" fill="#796337" fill-opacity=".5" transform="matrix(-27.94118 -29.96325 26.28066 -24.50711 99.3 176.4)"/><circle r="1" fill="#696935" fill-opacity=".5" transform="matrix(25.7142 7.22636 -9.05901 32.2355 184.8 168.6)"/><circle r="1" fill="#a94450" fill-opacity=".5" transform="matrix(1.44903 43.68051 -37.21823 1.23466 27.9 3.6)"/><circle r="1" fill="#d2c4d8" fill-opacity=".5" transform="matrix(-35.06285 -12.28388 8.36684 -23.88214 178.9 55.2)"/></g></svg>