<svg xmlns="http://www.w3.org/2000/svg" width="300" height="176"><g filter="blur(12px)"><rect width="200%" height="200%" x="-50%" y="-50%" fill="#a5494b"/><rect width="100%" height="100%" fill="#a5494b"/><g fill-opacity=".5" transform="translate(.6 .6)scale(1.17188)"><circle r="1" fill="#512b2c" transform="matrix(50.87051 -171.15974 130.3788 38.74998 135 88.5)"/><path fill="#fd5e55" d="M80 103h37v48H80z"/><ellipse cx="78" cy="40" fill="#22222b" rx="67" ry="16"/><circle r="1" fill="#1d2442" transform="matrix(10.47166 -2.74488 16.76898 63.9733 247 107.2)"/><circle r="1" fill="#d25c51" transform="matrix(-14.76055 -1.29138 3.5832 -40.95612 143 124.2)"/><circle r="1" fill="#ff4741" transform="matrix(-13.2767 -1.58315 3.0475 -25.55713 98.4 6.6)"/><circle r="1" fill="#00122e" transform="matrix(48.70598 -2.73407 .29023 5.1703 37 133.6)"/><circle r="1" fill="#ff7563" transform="matrix(8.43793 -2.36911 4.93395 17.57293 59.2 94.1)"/></g></g></svg>