<svg xmlns="http://www.w3.org/2000/svg" width="300" height="176"><g filter="blur(12px)"><rect width="200%" height="200%" x="-50%" y="-50%" fill="#996c8f"/><rect width="100%" height="100%" fill="#996c8f"/><g fill-opacity=".5" transform="translate(.6 .6)scale(1.17188)"><ellipse cx="144" cy="73" fill="#12524f" rx="255" ry="44"/><ellipse cx="130" cy="8" fill="#aac3c1" rx="83" ry="44"/><circle r="1" fill="#98e3ac" transform="rotate(88.7 -8 145.4)scale(30.37687 210.31076)"/><circle r="1" fill="#0e584d" transform="matrix(68.95444 76.58166 -14.97666 13.48505 30.5 41.5)"/><circle r="1" fill="#c4b7b7" transform="matrix(-11.62551 37.62787 -16.7083 -5.1622 245 60.9)"/><circle r="1" fill="#021928" transform="matrix(-17.29331 37.89892 -9.53825 -4.35231 223.6 27.2)"/><circle r="1" fill="#00031e" transform="matrix(-23.05809 21.95792 -11.29426 -11.86014 158 67.4)"/><circle r="1" fill="#0d1f0f" transform="matrix(18.06035 16.46117 -4.86877 5.34176 55.4 133.9)"/></g></g></svg>