<svg xmlns="http://www.w3.org/2000/svg" width="300" height="176"><g filter="blur(12px)"><rect width="200%" height="200%" x="-50%" y="-50%" fill="#99a368"/><rect width="100%" height="100%" fill="#99a368"/><g fill-opacity=".5" transform="translate(.6 .6)scale(1.17188)"><circle r="1" fill="#cef5b7" transform="rotate(34.2 -62 184.9)scale(113.24418 188.73912)"/><ellipse cx="82" cy="57" fill="#7c973d" rx="50" ry="25"/><path fill="#e1ffc9" d="M242 12h14v118h-14z"/><path fill="#5f6f38" d="m195 13.8 3.8 35.8-23.9 2.6-3.7-35.8z"/><path fill="#1b6f00" d="m201 72 10 60-16-18z"/><circle r="1" fill="#daf1c8" transform="matrix(55.61447 11.55788 -4.45641 21.44347 192.2 150)"/><circle r="1" fill="#f5f3d5" transform="rotate(-165 77.6 8.4)scale(15.9537 32.17678)"/><circle r="1" fill="#f5ffdf" transform="matrix(-3.04555 16.92648 -27.96535 -5.03176 17.8 93)"/></g></g></svg>