<svg xmlns="http://www.w3.org/2000/svg" width="300" height="176"><g filter="blur(12px)"><rect width="200%" height="200%" x="-50%" y="-50%" fill="#a4699d"/><rect width="100%" height="100%" fill="#a4699d"/><g fill-opacity=".5" transform="translate(.6 .6)scale(1.17188)"><circle r="1" fill="#a1ddc2" transform="matrix(152.69002 -10.40936 3.22358 47.28515 115.3 43.4)"/><circle r="1" fill="#fe43cb" transform="rotate(-1.1 6904 -6135)scale(243.26589 34.0359)"/><circle r="1" fill="#a1f0cd" transform="rotate(13.9 -261 539)scale(41.2042 21.63048)"/><circle r="1" fill="#b83694" transform="matrix(-32.58511 -6.77521 3.57607 -17.19894 115 26)"/><path fill="#51293f" d="M29.1 69.5 1.1 54 11 36.5 39 52z"/><circle r="1" fill="#6d6671" transform="matrix(-5.5692 -9.34821 74.82367 -44.57618 238.2 47.7)"/><path fill="#e0bde4" d="m164 88-7-103 54 19z"/><circle cx="56" cy="12" r="29" fill="#b6e1d8"/></g></g></svg>