<svg xmlns="http://www.w3.org/2000/svg" width="300" height="176"><g filter="blur(12px)"><rect width="200%" height="200%" x="-50%" y="-50%" fill="#65a66a"/><rect width="100%" height="100%" fill="#65a66a"/><g fill-opacity=".5" transform="translate(.6 .6)scale(1.17188)"><circle r="1" fill="#bcadab" transform="matrix(-183.87582 -34.07937 21.00161 -113.31455 142.1 42.3)"/><ellipse cx="124" cy="27" fill="#4ba213" rx="21" ry="36"/><ellipse cx="32" cy="53" fill="#bbdad7" rx="29" ry="40"/><path fill="#568334" d="m135 166 55-74-103 28z"/><path fill="#d5e3f0" d="m76.5 75.7 19 .6-2 56-19-.6z"/><circle r="1" fill="#235807" transform="rotate(75.1 -8.4 42.9)scale(21.18273 4.48065)"/><path fill="#354610" d="m219.9 142.4-4.6 23.6-43.2-8.4 4.6-23.6z"/><circle r="1" fill="#c3b0d8" transform="matrix(16.5543 9.5764 -23.19386 40.09418 218 64.7)"/></g></g></svg>