<svg xmlns="http://www.w3.org/2000/svg" width="300" height="176"><g filter="blur(12px)"><rect width="200%" height="200%" x="-50%" y="-50%" fill="#6ea8ad"/><rect width="100%" height="100%" fill="#6ea8ad"/><g fill-opacity=".5" transform="translate(.6 .6)scale(1.17188)"><circle cx="127" cy="104" r="184" fill="#d19c87"/><circle r="1" fill="#b36a1b" transform="matrix(10.14373 -23.20412 83.55418 36.52588 33.8 139)"/><circle r="1" fill="#95bcdc" transform="matrix(5.07643 -38.04606 117.5548 15.68516 134.8 85.1)"/><path fill="#b68647" d="M187 44 20 1 210-9z"/><ellipse cx="188" cy="148" fill="#d08134" rx="90" ry="12"/><path fill="#e18625" d="m235.1-12.7 24.8-3.5 15 107-24.8 3.4z"/><path fill="#617da9" d="m229.2 69.6-57.5-8 13.1-93.2 57.5 8z"/><path fill="#493d32" d="m29 99-45 37 66-8z"/></g></g></svg>