<svg xmlns="http://www.w3.org/2000/svg" width="300" height="176"><g filter="blur(12px)"><rect width="200%" height="200%" x="-50%" y="-50%" fill="#a19862"/><rect width="100%" height="100%" fill="#a19862"/><g fill-opacity=".5" transform="translate(.6 .6)scale(1.17188)"><circle r="1" fill="#ba3dc4" transform="matrix(158.77228 22.32258 -18.3138 130.25925 109.8 93.9)"/><circle r="1" fill="#bc16cf" transform="matrix(36.6969 43.24918 -14.99042 12.71937 183 122.5)"/><circle r="1" fill="#9db837" transform="matrix(4.75333 -14.89826 49.93186 15.93088 240.9 111)"/><circle r="1" fill="#c8b297" transform="matrix(2.40222 33.54351 -83.5245 5.9816 110.4 0)"/><circle r="1" fill="#655b59" transform="matrix(-14.65585 6.11535 -22.2472 -53.31687 30.4 95.2)"/><circle r="1" fill="#cfd265" transform="matrix(-4.22397 29.31231 -16.42984 -2.36758 189.1 51.4)"/><path fill="#69216e" d="m87 129 84-51-7-40z"/><circle cx="92" cy="84" r="45" fill="#a133a0"/></g></g></svg>