<svg xmlns="http://www.w3.org/2000/svg" width="300" height="176"><g filter="blur(12px)"><rect width="200%" height="200%" x="-50%" y="-50%" fill="#668d83"/><rect width="100%" height="100%" fill="#668d83"/><g fill-opacity=".5" transform="translate(.6 .6)scale(1.17188)"><circle r="1" fill="#b3d276" transform="matrix(-251.30974 -40.02894 17.07235 -107.18368 141.6 93)"/><ellipse cx="23" cy="101" fill="#314027" rx="25" ry="32"/><path fill="#bfd4c0" d="m91.7-20 24.9 117.4L38.3 114 13.4-3.4z"/><circle r="1" fill="#0054e4" transform="matrix(-8.50423 4.47069 -18.1691 -34.5616 146.1 12.5)"/><circle r="1" fill="#547a51" transform="matrix(-4.08194 -15.6708 65.16313 -16.97372 118.8 114.8)"/><ellipse cx="61" cy="147" fill="#a7cd34" rx="202" ry="17"/><path fill="#c9dbcb" d="m197.5 66.8 21-1.4 6 85.8-21 1.4z"/><path fill="#222a1d" d="m-16 88 100 46-64-5z"/></g></g></svg>