<svg xmlns="http://www.w3.org/2000/svg" width="300" height="176"><g filter="blur(12px)"><rect width="200%" height="200%" x="-50%" y="-50%" fill="#9d578c"/><rect width="100%" height="100%" fill="#9d578c"/><g fill-opacity=".5" transform="translate(.6 .6)scale(1.17188)"><circle r="1" fill="#cf9cb9" transform="matrix(-173.1106 -28.34795 12.2415 -74.75442 185.3 55.3)"/><circle r="1" fill="#0a3300" transform="matrix(6.54533 -5.51168 18.6635 22.16361 24.7 87.6)"/><circle r="1" fill="#5e8b4e" transform="matrix(-6.03375 16.53184 -28.13587 -10.26896 28.7 19.5)"/><ellipse cx="15" cy="127" fill="#ffc3ef" rx="21" ry="11"/><circle r="1" fill="#c854a8" transform="matrix(46.83842 -40.73396 46.27413 53.20884 182.4 131)"/><circle r="1" fill="#674459" transform="matrix(-40.37353 -8.54768 1.82759 -8.6323 130.4 118.2)"/><path fill="#3a701f" d="m257 114.5-35.9-15.2 5.9-13.8 35.9 15.2z"/><circle cx="70" cy="133" r="27" fill="#d579bd"/></g></g></svg>