<svg xmlns="http://www.w3.org/2000/svg" width="300" height="176"><g filter="blur(12px)"><rect width="200%" height="200%" x="-50%" y="-50%" fill="#8c9d59"/><rect width="100%" height="100%" fill="#8c9d59"/><g fill-opacity=".5" transform="translate(.6 .6)scale(1.17188)"><circle r="1" fill="#91c5fa" transform="matrix(-151.43563 96.00605 -58.31827 -91.98861 90.5 76.7)"/><circle r="1" fill="#52d986" transform="matrix(-35.43207 45.93333 -35.57278 -27.44015 242.4 128)"/><circle r="1" fill="#1ec600" transform="matrix(-1.17633 19.79995 -40.55057 -2.40915 210 0)"/><path fill="#114b0f" d="M134.4 29.1 101.8 2.7 127.6-29l32.6 26.4z"/><ellipse cx="13" cy="40" fill="#2ad21b" rx="27" ry="21"/><path fill="#c2c1de" d="M86 54-2-7l215 44z"/><path fill="#00240a" d="m233.2 58 19 21.9L271 43.8l-34.2 11.3z"/><circle r="1" fill="#bcc0e3" transform="rotate(5.2 -1058.7 879)scale(96.69387 13.01601)"/></g></g></svg>