<svg xmlns="http://www.w3.org/2000/svg" width="300" height="176"><g filter="blur(12px)"><rect width="200%" height="200%" x="-50%" y="-50%" fill="#68a0a6"/><rect width="100%" height="100%" fill="#68a0a6"/><g fill-opacity=".5" transform="translate(.6 .6)scale(1.17188)"><circle r="1" fill="#c4c0c1" transform="matrix(65.09163 105.15193 -165.73142 102.59182 170.8 75)"/><path fill="#160000" d="m24 20-40-10 37-26z"/><circle r="1" fill="#704e46" transform="rotate(-24.1 366.9 -234)scale(13.54475 32.70005)"/><circle r="1" fill="#aee8f0" transform="matrix(-19.68618 15.4123 -54.76255 -69.94835 236.3 135.3)"/><ellipse cx="214" cy="51" fill="#7d645e" rx="7" ry="61"/><path fill="#5f5851" d="M236.1 23.3 271 70v50.6l-40.2-87.9z"/><ellipse cx="72" cy="117" fill="#43494c" rx="6" ry="29"/><path fill="#b2ffff" d="m158.7 75.2-1.5 29-26-1.4 1.6-29z"/></g></g></svg>