<svg xmlns="http://www.w3.org/2000/svg" width="300" height="176"><g filter="blur(12px)"><rect width="200%" height="200%" x="-50%" y="-50%" fill="#59a6ad"/><rect width="100%" height="100%" fill="#59a6ad"/><g fill-opacity=".5" transform="translate(.6 .6)scale(1.17188)"><circle cx="111" cy="37" r="147" fill="#acb67a"/><circle r="1" fill="#e8f2c3" transform="matrix(131.64297 -3.56274 .43894 16.21885 96.1 14.9)"/><circle r="1" fill="#308086" transform="matrix(.18663 -35.79593 78.13736 .40738 132.4 68)"/><circle r="1" fill="#e8ecd0" transform="rotate(-118.5 77 44)scale(26.96962 39.82832)"/><circle r="1" fill="#4c7142" transform="matrix(-60.75615 -19.74087 7.25076 -22.31554 53.7 65)"/><path fill="#204a21" d="m-2.2 128.8 1.4-20 35 2.4-1.4 20z"/><ellipse cx="135" cy="50" fill="#61c3df" rx="33" ry="23"/><path fill="#dee3b6" d="m187.7 86.7 6.2 39.8-79.5-30 151.1 31.7z"/></g></g></svg>