<svg xmlns="http://www.w3.org/2000/svg" width="300" height="176"><g filter="blur(12px)"><rect width="200%" height="200%" x="-50%" y="-50%" fill="#5c749c"/><rect width="100%" height="100%" fill="#5c749c"/><circle r="1" fill="#ff0500" fill-opacity=".5" transform="matrix(2.3139 -52.17942 264.72655 11.73932 174.6 28.6)"/><circle r="1" fill="#ed1500" fill-opacity=".5" transform="matrix(81.17908 .42506 -.08668 16.55471 150 206.6)"/><path fill="#e73d29" fill-opacity=".5" d="m306.4-18.2-143 160.6-76.1-150z"/><circle r="1" fill="#40b5b2" fill-opacity=".5" transform="rotate(-49 218.5 -187.4)scale(27.7185 53.06746)"/><circle r="1" fill="#f72d1c" fill-opacity=".5" transform="matrix(124.7542 -60.84669 13.93034 28.56143 3.5 44.6)"/><circle r="1" fill="#18adad" fill-opacity=".5" transform="matrix(-26.19 -9.0691 18.06683 -52.1739 75.2 111.5)"/><circle r="1" fill="#af3826" fill-opacity=".5" transform="matrix(-14.43815 23.25206 -32.4071 -20.1229 113.3 169)"/><circle r="1" fill="#61c9b8" fill-opacity=".5" transform="matrix(21.21079 10.97077 -27.15435 52.49997 255.1 163.5)"/></g></svg>