<svg xmlns="http://www.w3.org/2000/svg" width="300" height="176"><g filter="blur(12px)"><rect width="200%" height="200%" x="-50%" y="-50%" fill="#9f6d64"/><rect width="100%" height="100%" fill="#9f6d64"/><g fill-opacity=".5" transform="translate(.6 .6)scale(1.17188)"><circle r="1" fill="#48ab5d" transform="matrix(-15.14941 85.9166 -195.454 -34.46381 63 62.7)"/><circle r="1" fill="#f36190" transform="matrix(15.359 -4.9497 7.94613 24.65695 204.8 123)"/><circle r="1" fill="#2e9c43" transform="matrix(.32067 -61.46764 22.55056 .11764 61.2 114.3)"/><path fill="#dc8689" d="m92.6 135.6 30.9-35.5 27.9 24.3-30.9 35.5z"/><circle r="1" fill="#92c09b" transform="matrix(-10.42634 9.93576 -29.03525 -30.46889 241.6 50.1)"/><ellipse cx="89" cy="81" fill="#e94877" rx="8" ry="29"/><circle r="1" fill="#276843" transform="matrix(5.36141 37.67125 -11.58099 1.64822 26 45.8)"/><path fill="#d81550" d="m164.6.9-1.7-4.2 25.7 34.2L216.8-16z"/></g></g></svg>