<svg xmlns="http://www.w3.org/2000/svg" width="300" height="176"><g filter="blur(12px)"><rect width="200%" height="200%" x="-50%" y="-50%" fill="#5768a1"/><rect width="100%" height="100%" fill="#5768a1"/><g fill-opacity=".5" transform="translate(.6 .6)scale(1.17188)"><circle r="1" fill="#0d0a55" transform="matrix(-11.13664 -36.24534 73.62543 -22.62194 47.8 78)"/><circle r="1" fill="#e8c4c6" transform="matrix(-72.25154 -9.64041 2.59802 -19.47128 84.2 8.6)"/><ellipse cx="240" cy="20" fill="#cc777e" rx="17" ry="113"/><circle r="1" fill="#a68486" transform="matrix(6.05997 43.14743 -96.3478 13.53185 84.9 150)"/><circle r="1" fill="#513460" transform="matrix(-1.34846 -64.37488 44.52524 -.93267 224.9 131.2)"/><circle r="1" fill="#573485" transform="matrix(21.59742 8.17098 -45.81663 121.10191 153.1 71.7)"/><circle r="1" fill="#c9c4bf" transform="matrix(-3.98548 9.2099 -29.35928 -12.7049 96.2 127.2)"/><path fill="#c8bbdb" d="M15 7h27v25H15z"/></g></g></svg>