<svg xmlns="http://www.w3.org/2000/svg" width="300" height="176"><g filter="blur(12px)"><rect width="200%" height="200%" x="-50%" y="-50%" fill="#9d75a0"/><rect width="100%" height="100%" fill="#9d75a0"/><circle r="1" fill="#a5d064" fill-opacity=".5" transform="matrix(-68.04228 -160.69769 156.95755 -66.45864 155.5 75.3)"/><path fill="#e7cde1" fill-opacity=".5" d="m304.1 72 14 85.6L175.3 99z"/><circle r="1" fill="#fff9ff" fill-opacity=".5" transform="matrix(-73.18828 -8.9193 2.00203 -16.42791 268.3 .6)"/><path fill="#330f36" fill-opacity=".5" d="m306.4 52 3 20.9-70.9 9.9-2.9-20.9z"/><circle r="1" fill="#e3bee7" fill-opacity=".5" transform="matrix(-12.1283 -25.33925 39.27994 -18.80082 33.3 82.7)"/><circle r="1" fill="#5c5739" fill-opacity=".5" transform="rotate(-15.2 562.8 -275.4)scale(55.96894 15.74535)"/><circle r="1" fill="#7ca93e" fill-opacity=".5" transform="matrix(39.582 33.21323 -22.5089 26.82506 214.5 46.6)"/><path fill="#58a60e" fill-opacity=".5" d="m126 143.6 146.5-5.9-52.8 28.1z"/></g></svg>