<svg xmlns="http://www.w3.org/2000/svg" width="300" height="176"><g filter="blur(12px)"><rect width="200%" height="200%" x="-50%" y="-50%" fill="#729172"/><rect width="100%" height="100%" fill="#729172"/><g fill-opacity=".5" transform="translate(.6 .6)scale(1.17188)"><circle r="1" fill="#d4969d" transform="matrix(112.76827 -60.22072 93.23698 174.59394 137.6 69.1)"/><circle r="1" fill="#6d3a49" transform="rotate(54.7 -21.3 140.3)scale(11.85414 59.8271)"/><circle r="1" fill="#ba4c55" transform="matrix(9.22491 15.59848 -68.93005 40.76512 183 37)"/><ellipse cx="148" cy="125" fill="#c0d5cd" rx="24" ry="34"/><circle r="1" fill="#514c53" transform="matrix(-6.33766 -21.13057 40.99574 -12.2958 7 103.7)"/><path fill="#c2debb" d="m51 104 10 62-77-25z"/><circle r="1" fill="#a2c3a9" transform="matrix(-6.04461 -25.32267 102.158 -24.38548 50.5 44.5)"/><path fill="#581d2d" d="M71 129h35v22H71z"/></g></g></svg>