<svg xmlns="http://www.w3.org/2000/svg" width="300" height="176"><g filter="blur(12px)"><rect width="200%" height="200%" x="-50%" y="-50%" fill="#a55aa1"/><rect width="100%" height="100%" fill="#a55aa1"/><g fill-opacity=".5" transform="translate(.6 .6)scale(1.17188)"><circle r="1" fill="#f667b7" transform="matrix(26.67798 103.15608 -128.37252 33.1994 128.6 13)"/><circle cx="58" cy="110" r="47" fill="#b55950"/><circle r="1" fill="#d4a6cf" transform="matrix(8.9406 53.4269 -34.00076 5.68978 131 106.7)"/><circle r="1" fill="#ac463d" transform="matrix(45.17906 -30.30153 14.71905 21.94585 209.3 122.2)"/><circle r="1" fill="#dade30" transform="matrix(6.38345 -4.63785 13.51037 18.59543 84 69.1)"/><path fill="#c5856d" d="m197 59-6 94-49-59z"/><path fill="#301f41" d="M19 108 9 163l23-3z"/><path fill="#4d1c64" d="m238 82 33-35-25 80z"/></g></g></svg>