<svg xmlns="http://www.w3.org/2000/svg" width="300" height="176"><g filter="blur(12px)"><rect width="200%" height="200%" x="-50%" y="-50%" fill="#599d99"/><rect width="100%" height="100%" fill="#599d99"/><g fill-opacity=".5" transform="translate(.6 .6)scale(1.17188)"><ellipse cx="173" cy="133" fill="#ff8f14" rx="250" ry="69"/><circle r="1" fill="#8c709b" transform="matrix(-4.0637 57.73888 -240.04124 -16.89426 74.4 25.4)"/><circle r="1" fill="#f39d41" transform="rotate(-174.9 48.4 61.5)scale(251.08734 41.58087)"/><ellipse cx="103" cy="58" fill="#3b5589" rx="16" ry="65"/><circle r="1" fill="#a1baf7" transform="rotate(-26.6 143 -434.2)scale(46.46918 9.98841)"/><circle r="1" fill="#3882c5" transform="matrix(3.60995 16.3244 -56.74429 12.54833 77.2 52.8)"/><path fill="#d89e53" d="m113.9 46.8 9.7 24.1 25.7-3.2 121.7 26z"/><circle r="1" fill="#996f2c" transform="matrix(-5.30885 37.77446 -7.28123 -1.02331 20.8 21)"/></g></g></svg>