<svg xmlns="http://www.w3.org/2000/svg" width="300" height="176"><g filter="blur(12px)"><rect width="200%" height="200%" x="-50%" y="-50%" fill="#a05e97"/><rect width="100%" height="100%" fill="#a05e97"/><g fill-opacity=".5" transform="translate(.6 .6)scale(1.17188)"><circle r="1" fill="#83f3cb" transform="matrix(5.02189 26.56098 -189.65628 35.85834 98.2 26.5)"/><circle r="1" fill="#45886c" transform="matrix(-77.94145 -28.06002 29.8627 -82.94872 45 139.8)"/><circle r="1" fill="#43b5a0" transform="matrix(17.8676 8.63062 -31.04655 64.27432 241.2 78.4)"/><circle r="1" fill="#9dc9d4" transform="matrix(-4.78652 21.77035 -37.28835 -8.19838 131.5 135.5)"/><circle r="1" fill="#4e002c" transform="matrix(6.44915 1.596 -23.0718 93.2288 71.7 150.4)"/><ellipse cx="135" cy="60" fill="#70194a" rx="31" ry="16"/><circle r="1" fill="#90aebe" transform="matrix(-1.20565 22.73409 -27.2124 -1.44315 188.8 98.6)"/><ellipse cx="29" cy="11" fill="#d1c2d5" rx="25" ry="22"/></g></g></svg>