<svg xmlns="http://www.w3.org/2000/svg" width="300" height="176"><g filter="blur(12px)"><rect width="200%" height="200%" x="-50%" y="-50%" fill="#5aa9af"/><rect width="100%" height="100%" fill="#5aa9af"/><g fill-opacity=".5" transform="translate(.6 .6)scale(1.17188)"><circle r="1" fill="#3da137" transform="matrix(15.26313 -57.79011 121.50022 32.0898 213.9 26)"/><ellipse cx="79" cy="128" fill="#2e4ceb" rx="255" ry="39"/><circle r="1" fill="#31c614" transform="matrix(-24.30735 49.4239 -10.40527 -5.11745 34.5 50.1)"/><circle r="1" fill="#5da050" transform="rotate(-40.1 142.2 -97.6)scale(44.07378 25.72201)"/><circle r="1" fill="#8dc179" transform="matrix(-19.82144 -30.05193 72.51128 -47.82647 35.7 4.7)"/><ellipse cx="160" cy="83" fill="#4363bb" rx="57" ry="18"/><path fill="#97b27e" d="m234.1-25 20 27.6L196 44.9l-20-27.5z"/><circle r="1" fill="#24ac43" transform="rotate(40.2 -51 71)scale(23.67419 19.83783)"/></g></g></svg>