<svg xmlns="http://www.w3.org/2000/svg" width="300" height="176"><g filter="blur(12px)"><rect width="200%" height="200%" x="-50%" y="-50%" fill="#696394"/><rect width="100%" height="100%" fill="#696394"/><g fill-opacity=".5" transform="translate(.6 .6)scale(1.17188)"><circle r="1" fill="#b2cba4" transform="matrix(227.64486 113.99606 -38.92347 77.72838 155.6 37.6)"/><circle r="1" fill="#000059" transform="matrix(.57946 16.5935 -60.95678 2.12866 100.6 146.2)"/><circle r="1" fill="#cbc982" transform="matrix(37.79658 -13.28903 19.53934 55.5737 255 101.4)"/><circle r="1" fill="#90acb8" transform="rotate(-164.8 3.8 28.3)scale(38.92858 91.27967)"/><circle r="1" fill="#235fba" transform="matrix(-8.69634 -16.01667 38.419 -20.85982 52.3 116.1)"/><path fill="#2a38be" d="m232.9 150.7-46-16-4.8 19.6-2.7-46.9z"/><ellipse cx="144" cy="13" fill="#d5ecbb" rx="14" ry="28"/><path fill="#0b18cf" d="m212.9 61-41-28.7 5.2-7.3 41 28.7z"/></g></g></svg>