<svg xmlns="http://www.w3.org/2000/svg" width="300" height="176"><g filter="blur(12px)"><rect width="200%" height="200%" x="-50%" y="-50%" fill="#b09e72"/><rect width="100%" height="100%" fill="#b09e72"/><circle r="1" fill="#5f73bd" fill-opacity=".5" transform="matrix(-298.76643 -6.07204 5.36988 -264.21743 31.9 135.6)"/><path fill="#00001d" fill-opacity=".5" d="m176.7 201.9-30.4-22 22.7-31.4 30.4 22z"/><circle r="1" fill="#eedca8" fill-opacity=".5" transform="rotate(176.2 77.6 36.8)scale(25.20376 34.87722)"/><circle r="1" fill="#eedba7" fill-opacity=".5" transform="matrix(-16.06506 -14.63766 41.2829 -45.30865 278.8 114.6)"/><circle r="1" fill="#37446a" fill-opacity=".5" transform="matrix(-24.74774 -8.87765 29.72 -82.84878 47.7 154.9)"/><circle r="1" fill="#1438c2" fill-opacity=".5" transform="rotate(11.7 69.5 939)scale(23.78361 36.32829)"/><circle r="1" fill="#f7e8af" fill-opacity=".5" transform="matrix(-4.41412 -8.74925 116.84759 -58.95127 270.2 22)"/><circle r="1" fill="#2043d5" fill-opacity=".5" transform="matrix(27.10714 -18.3676 12.70092 18.74418 288 50.8)"/></g></svg>