<svg xmlns="http://www.w3.org/2000/svg" width="300" height="176"><g filter="blur(12px)"><rect width="200%" height="200%" x="-50%" y="-50%" fill="#70aab2"/><rect width="100%" height="100%" fill="#70aab2"/><circle r="1" fill="#e2f0b2" fill-opacity=".5" transform="matrix(-19.39396 176.18061 -181.40082 -19.9686 155.1 72.8)"/><circle r="1" fill="#cabd00" fill-opacity=".5" transform="matrix(-104.8626 6.30613 -2.04967 -34.08336 185.4 .6)"/><circle r="1" fill="#a5a81a" fill-opacity=".5" transform="matrix(-1.81131 24.25066 -84.52805 -6.3135 268.7 164.4)"/><circle r="1" fill="#a4d6e8" fill-opacity=".5" transform="matrix(12.66913 45.68342 -248.60015 68.94292 214.2 87)"/><circle r="1" fill-opacity=".5" transform="matrix(-10.71363 -6.95751 4.8776 -7.51086 .7 95)"/><circle r="1" fill="#b3a521" fill-opacity=".5" transform="matrix(-9.53408 -13.22803 20.05391 -14.45382 134.7 167.7)"/><circle r="1" fill="#adddf1" fill-opacity=".5" transform="matrix(83.53368 17.07667 -4.90707 24.00386 60.3 41.7)"/><circle r="1" fill="#b9bf62" fill-opacity=".5" transform="matrix(1.26107 10.15717 -47.86985 5.94331 62.6 88.2)"/></g></svg>