<svg xmlns="http://www.w3.org/2000/svg" width="300" height="176"><g filter="blur(12px)"><rect width="200%" height="200%" x="-50%" y="-50%" fill="#5289a0"/><rect width="100%" height="100%" fill="#5289a0"/><g fill-opacity=".5" transform="translate(.6 .6)scale(1.17188)"><ellipse cx="118" cy="63" fill="#c3c6c2" rx="180" ry="75"/><circle r="1" fill="#2a4b60" transform="matrix(-48.1062 -7.22445 3.467 -23.08611 42.2 50)"/><circle r="1" fill="#d9e9f4" transform="matrix(27.08132 17.50688 -10.13722 15.68122 104.5 40.4)"/><circle r="1" fill="#f1d7eb" transform="rotate(-61.8 216.4 -108)scale(12.6158 23.08424)"/><path fill="#000e48" d="m160.3-9.7 33.8 9-4.4 16.4-33.8-9z"/><path fill="#240f45" d="M41 139.7 21.8 127 33 110.3 52 123z"/><path fill="#e6ebf3" d="m165.4 14 36 8.9-6.8 27.2-36-9z"/><path fill="#285d6c" d="m157.5 81.8-43.3 13.3 27.1-26.9 62.4 1.6z"/></g></g></svg>