<svg xmlns="http://www.w3.org/2000/svg" width="300" height="176"><g filter="blur(12px)"><rect width="200%" height="200%" x="-50%" y="-50%" fill="#55a1a9"/><rect width="100%" height="100%" fill="#55a1a9"/><g fill-opacity=".5" transform="translate(.6 .6)scale(1.17188)"><circle r="1" fill="#ff9352" transform="matrix(25.13518 130.71247 -158.3626 30.45213 122.7 102.4)"/><circle r="1" fill="#f9a223" transform="matrix(-236.2283 -2.54903 .44198 -40.95972 122.4 138.2)"/><circle r="1" fill="#7a96c7" transform="rotate(-84.6 100.7 -79)scale(68.27478 97.79135)"/><path fill="#1e0000" d="M17.7-.3 14 26.5l-29.7-4.2L-12-4.5z"/><path fill="#2b383f" d="M21.5 57.1 35 8.1l19.7 20.2 1 8.9z"/><circle r="1" fill="#576559" transform="matrix(-1.59116 -12.68092 60.3413 -7.57141 171 90.3)"/><ellipse cx="224" cy="32" fill="#364c29" rx="11" ry="14"/><path fill="#2f4151" d="M77 25h38v15H77z"/></g></g></svg>