<svg xmlns="http://www.w3.org/2000/svg" width="300" height="176"><g filter="blur(12px)"><rect width="200%" height="200%" x="-50%" y="-50%" fill="#5aa491"/><rect width="100%" height="100%" fill="#5aa491"/><g fill-opacity=".5" transform="translate(.6 .6)scale(1.17188)"><path fill="#fb0" d="M153 9h35v64h-35z"/><circle r="1" fill="#d8aa42" transform="rotate(101.6 24.7 35.8)scale(26.95485 49.98367)"/><ellipse cx="59" cy="133" fill="#c0ab2a" rx="110" ry="14"/><circle r="1" fill="#be8b3c" transform="matrix(-19.05434 -32.2953 19.99393 -11.79649 238 16.8)"/><circle r="1" fill="#ac924c" transform="matrix(46.44667 -40.24593 10.80383 12.4684 216.3 120.7)"/><circle r="1" fill="#c1afaf" transform="matrix(3.02566 22.0971 -35.081 4.80349 27.4 60.5)"/><circle r="1" fill="#bda937" transform="matrix(-78.99198 -21.96986 2.8954 -10.41036 136.8 29.2)"/><path fill="#a8a5cc" d="m215.6 61.9-25.4 78-23.8-7.8 25.4-78z"/></g></g></svg>