<svg xmlns="http://www.w3.org/2000/svg" width="300" height="176"><g filter="blur(12px)"><rect width="200%" height="200%" x="-50%" y="-50%" fill="#7293aa"/><rect width="100%" height="100%" fill="#7293aa"/><circle r="1" fill="#dee6de" fill-opacity=".5" transform="rotate(-5.7 305.4 -1518.8)scale(222.97201 46.94381)"/><circle r="1" fill="#330008" fill-opacity=".5" transform="matrix(-27.96128 1.14949 -.93756 -22.8061 219.3 91.2)"/><circle r="1" fill="#d0d9d9" fill-opacity=".5" transform="matrix(-217.21888 5.54076 -1.1242 -44.07277 147.1 164.2)"/><circle r="1" fill="#a74594" fill-opacity=".5" transform="rotate(94.6 38.6 141.5)scale(23.70062 57.4941)"/><circle r="1" fill="#cb7db7" fill-opacity=".5" transform="matrix(79.17903 8.08307 -3.36581 32.97037 25.4 83)"/><circle r="1" fill="#974369" fill-opacity=".5" transform="matrix(-24.01103 4.08824 -8.60832 -50.55827 299.4 101.8)"/><path fill="#5e503e" fill-opacity=".5" d="m155 80.7-2 22.2-49-4.3 2-22.2z"/><path fill="#000002" fill-opacity=".5" d="M206.8 83.8h29.3v21h-29.3z"/></g></svg>