<svg xmlns="http://www.w3.org/2000/svg" width="300" height="176"><g filter="blur(12px)"><rect width="200%" height="200%" x="-50%" y="-50%" fill="#529790"/><rect width="100%" height="100%" fill="#529790"/><g fill-opacity=".5" transform="translate(.6 .6)scale(1.17188)"><circle r="1" fill="#96a71b" transform="matrix(-14.5443 106.17599 -206.17459 -28.2424 102.4 77.5)"/><circle r="1" fill="#6ba2ab" transform="matrix(-20.179 -1.0121 4.34047 -86.53933 176.5 5.6)"/><circle r="1" fill="#0f5510" transform="matrix(-21.96517 -14.98362 6.21054 -9.10431 104 40.9)"/><path fill="#c2c3f8" d="m221 130-10-58 17 4z"/><circle r="1" fill="#a3afd9" transform="rotate(28.2 -267 202.6)scale(13.90809 36.08328)"/><ellipse cx="33" cy="101" fill="#7db61c" rx="44" ry="33"/><path fill="#8baef0" d="m106.7-7.8-2.1 30.9L48 32.3l32.8-12.9z"/><path fill="#003f00" d="m254 166-6-64-16 59z"/></g></g></svg>