<svg xmlns="http://www.w3.org/2000/svg" width="300" height="400"><g filter="blur(12px)"><rect width="200%" height="200%" x="-50%" y="-50%" fill="#a86b67"/><rect width="100%" height="100%" fill="#a86b67"/><g fill-opacity=".5" transform="translate(.8 .8)scale(1.5625)"><circle cx="71" cy="146" r="202" fill="#b7bbd0"/><circle r="1" fill="#643a47" transform="matrix(-9.77183 20.12512 -25.10197 -12.18836 20 49.8)"/><ellipse cx="178" cy="53" fill="#334c5d" rx="15" ry="29"/><path fill="#961b16" d="m207 64.6-55.5-35.4-44.9-8.1 9.7 15.4z"/><circle r="1" fill="#a14e43" transform="matrix(34.20486 -22.8118 10.99864 16.49176 130.3 219.9)"/><circle r="1" fill="#7b271b" transform="matrix(-32.46096 -2.21008 1.06279 -15.6099 6.7 209.3)"/><circle r="1" fill="#acc8e1" transform="matrix(-4.79773 -18.23333 102.83058 -27.05779 58.5 97.7)"/><circle r="1" fill="#f7e2f4" transform="matrix(-15.90522 28.22721 -19.23895 -10.8406 186.8 126.3)"/></g></g></svg>