<svg xmlns="http://www.w3.org/2000/svg" width="300" height="400"><g filter="blur(12px)"><rect width="200%" height="200%" x="-50%" y="-50%" fill="#699ca9"/><rect width="100%" height="100%" fill="#699ca9"/><g fill-opacity=".5" transform="translate(.8 .8)scale(1.5625)"><circle r="1" fill="#e2d5cc" transform="matrix(35.2237 -75.53746 149.17072 69.55945 123.4 84.6)"/><circle r="1" fill="#571f4f" transform="matrix(24.53334 25.49391 -61.17813 58.87303 35.7 173.2)"/><circle r="1" fill="#cba17c" transform="matrix(.07509 -25.26287 158.0873 .46988 136 237)"/><circle r="1" fill="#f9dadf" transform="rotate(69.6 35.9 162)scale(52.05233 38.32106)"/><circle r="1" fill="#241673" transform="matrix(14.47435 -21.30269 27.36654 18.5945 20.6 195.6)"/><circle cx="142" cy="164" r="51" fill="#6fdab4"/><circle r="1" fill="#9291a5" transform="matrix(-20.37753 60.92336 -24.1668 -8.08327 60.1 114.7)"/><circle r="1" fill="#e14344" transform="matrix(13.63754 -4.18574 6.20084 20.20292 158.5 230.5)"/></g></g></svg>