<svg xmlns="http://www.w3.org/2000/svg" width="300" height="400"><g filter="blur(12px)"><rect width="200%" height="200%" x="-50%" y="-50%" fill="#ab5d52"/><rect width="100%" height="100%" fill="#ab5d52"/><g fill-opacity=".5" transform="translate(.8 .8)scale(1.5625)"><circle cx="121" cy="159" r="217" fill="#86a2be"/><circle r="1" fill="#2a3d56" transform="matrix(7.13576 -46.63242 35.82018 5.48126 105.9 222.5)"/><circle r="1" fill="#3d3953" transform="rotate(121 23.6 81.4)scale(45.09126 25.80954)"/><circle r="1" fill="#b6ecf6" transform="matrix(.2891 -24.1873 41.02103 .4903 182 105)"/><path fill="#afe0dc" d="m180.3 175.8 49.8 46.4-48.4 52-49.8-46.4z"/><path fill="#b5e3e8" d="m196.4 73.7-62.6-60.5 29.8-30.9 62.6 60.5z"/><circle r="1" fill="#f7364d" transform="rotate(-45.7 246.7 16.2)scale(34.81022 18.63399)"/><circle r="1" fill="#433e49" transform="matrix(-17.42499 24.67652 -16.86154 -11.90655 104.4 25.2)"/></g></g></svg>