<svg xmlns="http://www.w3.org/2000/svg" width="300" height="400"><g filter="blur(12px)"><rect width="200%" height="200%" x="-50%" y="-50%" fill="#a1bb81"/><rect width="100%" height="100%" fill="#a1bb81"/><g fill-opacity=".5" transform="translate(.8 .8)scale(1.5625)"><ellipse cx="96" cy="152" fill="#ffdef6" rx="142" ry="217"/><circle r="1" fill="#61b870" transform="matrix(16.39925 20.57458 -42.74946 34.07403 18.5 158.9)"/><path fill="#161277" d="m162.2 93.2 3.8-30.8 35.8 4.4-3.8 30.8z"/><path fill="#8a3e86" d="m-16 108.7 58.2-28.1 8.6 10.9 52.9-93z"/><circle r="1" fill="#7cd672" transform="matrix(-2.7059 19.22016 -46.46691 -6.54181 162.7 161.5)"/><circle cx="86" cy="230" r="72" fill="#f7f0d8"/><circle r="1" fill="#fff5f3" transform="rotate(146.4 22.3 6.7)scale(90.15607 29.17672)"/><circle r="1" fill="#8a3c86" transform="matrix(-4.81444 -2.83592 25.59625 -43.45381 115.4 62.3)"/></g></g></svg>