<svg xmlns="http://www.w3.org/2000/svg" width="300" height="400"><g filter="blur(12px)"><rect width="200%" height="200%" x="-50%" y="-50%" fill="#6ca7a5"/><rect width="100%" height="100%" fill="#6ca7a5"/><g fill-opacity=".5" transform="translate(.8 .8)scale(1.5625)"><circle r="1" fill="#fd9c86" transform="matrix(-182.1465 57.47741 -54.0259 -171.20864 73.8 47.8)"/><circle r="1" fill="#fcf5e3" transform="rotate(83.8 34.8 57)scale(33.94748 141.95456)"/><ellipse cx="125" cy="82" fill="#44578b" rx="77" ry="18"/><circle r="1" fill="#6e4f3b" transform="matrix(-24.32218 -9.16373 12.15868 -32.27132 167 167.8)"/><circle r="1" fill="#b48b47" transform="rotate(-153.5 27 87.7)scale(66.01 42.74491)"/><circle r="1" fill="#baab6f" transform="matrix(-96.59667 -53.8721 18.93276 -33.94785 140.6 201)"/><path fill="#7b547f" d="M12 169 78 68l-94 63z"/><circle r="1" fill="#b98cc3" transform="matrix(-.1055 -22.075 133.96651 -.6403 159.4 121)"/></g></g></svg>