<svg xmlns="http://www.w3.org/2000/svg" width="300" height="400"><g filter="blur(12px)"><rect width="200%" height="200%" x="-50%" y="-50%" fill="#708cab"/><rect width="100%" height="100%" fill="#708cab"/><g fill-opacity=".5" transform="translate(.8 .8)scale(1.5625)"><circle r="1" fill="#ff5300" transform="matrix(-12.0848 -29.61288 72.85887 -29.73315 55.6 21.4)"/><circle r="1" fill="#efa77a" transform="matrix(50.24557 84.30116 -121.0001 72.11905 132 106.7)"/><circle r="1" fill="#b51c28" transform="rotate(-155.7 64 61.6)scale(48.39602 29.50547)"/><circle r="1" fill="#1f4b9a" transform="rotate(-122.5 46.1 54.6)scale(21.4536 63.16121)"/><circle r="1" fill="#ff5900" transform="rotate(42.8 50.6 245.8)scale(24.17909 34.21713)"/><path fill="#d7eabf" d="m152.2 259-20-189.9 77.6-8.2 20 190z"/><ellipse cx="73" cy="224" fill="#14eac5" rx="127" ry="17"/><circle r="1" fill="#ff5800" transform="matrix(70.09212 -35.8251 11.03075 21.58176 52.9 22.3)"/></g></g></svg>