<svg xmlns="http://www.w3.org/2000/svg" width="300" height="400"><g filter="blur(12px)"><rect width="200%" height="200%" x="-50%" y="-50%" fill="#78b0a9"/><rect width="100%" height="100%" fill="#78b0a9"/><g fill-opacity=".5" transform="translate(.8 .8)scale(1.5625)"><circle cx="144" cy="191" r="243" fill="#ffd3d0"/><ellipse cx="88" cy="202" fill="#6d9781" rx="26" ry="138"/><path fill="#b27900" d="m198.4 142.7 8.6-41.4-66.1 42.4 1.5 11.5z"/><path fill="#ffc7ce" d="m134.8 178 84.6-27.5 27.8 85.5-84.6 27.5z"/><circle r="1" fill="#ffc1cf" transform="rotate(-78.6 111.8 -85.5)scale(75.93497 23.71572)"/><path fill="#ff9154" d="m101 211 21-43 3 95z"/><circle r="1" fill="#f3cce4" transform="rotate(5.7 -630.4 191.6)scale(30.60967 86.64423)"/><path fill="#d9fffa" d="m76.6 118.6-3.3 37.9-35.9-3.1 3.3-37.9z"/></g></g></svg>