<svg xmlns="http://www.w3.org/2000/svg" width="300" height="400"><g filter="blur(12px)"><rect width="200%" height="200%" x="-50%" y="-50%" fill="#70aaba"/><rect width="100%" height="100%" fill="#70aaba"/><g fill-opacity=".5" transform="translate(.8 .8)scale(1.5625)"><circle r="1" fill="#ea4c12" transform="matrix(-18.48423 190.10348 -55.63593 -5.40962 18.8 143.5)"/><circle r="1" fill="#fff8e8" transform="matrix(94.64062 -2.47825 .8302 31.70428 102.4 156)"/><circle r="1" fill="#a11810" transform="matrix(58.6692 -17.26729 8.89115 30.20953 141 100)"/><circle r="1" fill="#f12700" transform="matrix(25.21355 47.3506 -23.16986 12.33763 191 209.3)"/><circle r="1" fill="#d52c00" transform="matrix(-15.95125 6.7415 -35.11689 -83.09108 29.9 219.8)"/><circle r="1" fill="#47c0f7" transform="matrix(24.9462 5.01415 -4.18403 20.81623 46.6 113)"/><circle r="1" fill="#c0e5fe" transform="matrix(31.60154 -3.86474 3.4485 28.19801 58 176.7)"/><ellipse cy="212" fill="#002330" rx="11" ry="55"/></g></g></svg>