<svg xmlns="http://www.w3.org/2000/svg" width="300" height="400"><g filter="blur(12px)"><rect width="200%" height="200%" x="-50%" y="-50%" fill="#8da65c"/><rect width="100%" height="100%" fill="#8da65c"/><g fill-opacity=".5" transform="translate(.8 .8)scale(1.5625)"><circle r="1" fill="#a85e9f" transform="matrix(145.8889 58.9053 -71.51057 177.10799 74.4 145.8)"/><ellipse cx="158" cy="155" fill="#cc4e00" rx="26" ry="43"/><circle r="1" fill="#e64b00" transform="matrix(-9.82945 17.58773 -74.8141 -41.81219 111.5 34.6)"/><circle r="1" fill="#001d80" transform="matrix(-16.22229 -39.78751 15.7556 -6.42392 103.3 215)"/><circle r="1" fill="#83dfbc" transform="matrix(-11.74298 147.43584 -22.69464 -1.80758 18.5 148.6)"/><circle r="1" fill="#005c72" transform="matrix(6.27023 -129.19882 13.64945 .66243 191 158.7)"/><circle r="1" fill="#ffa9c3" transform="matrix(7.94669 29.86584 -24.47486 6.51226 104.5 149)"/><path fill="#000f79" d="M106.4 119 89 99.7 107.6 83l17.4 19.3z"/></g></g></svg>