<svg xmlns="http://www.w3.org/2000/svg" width="300" height="400"><g filter="blur(12px)"><rect width="200%" height="200%" x="-50%" y="-50%" fill="#6b9da4"/><rect width="100%" height="100%" fill="#6b9da4"/><g fill-opacity=".5" transform="translate(.8 .8)scale(1.5625)"><path fill="#fff1d0" d="m45 154.2 36 .6-2 125-36-.6z"/><circle r="1" fill="#9f6b4c" transform="matrix(1.00834 44.4338 -186.0958 4.2231 83 119.5)"/><circle r="1" fill="#ffffd4" transform="matrix(13.44879 2.10223 -6.67928 42.73002 131.8 193.6)"/><circle r="1" fill="#e8cbab" transform="rotate(87.9 46.1 47.8)scale(26.92241 190.99999)"/><circle r="1" fill="#ffffda" transform="matrix(10.03481 8.41994 -16.91886 20.16374 41.8 206)"/><circle r="1" fill="#2b182e" transform="matrix(-13.76254 -16.11387 21.83658 -18.6502 18.8 255)"/><path fill="#003228" d="M45 22h23v34H45z"/><ellipse cx="83" cy="104" fill="#196a6a" rx="103" ry="13"/></g></g></svg>