<svg xmlns="http://www.w3.org/2000/svg" width="300" height="400"><g filter="blur(12px)"><rect width="200%" height="200%" x="-50%" y="-50%" fill="#9a6859"/><rect width="100%" height="100%" fill="#9a6859"/><g fill-opacity=".5" transform="translate(.8 .8)scale(1.5625)"><circle r="1" fill="#81c5d5" transform="matrix(-2.48934 38.49473 -153.4753 -9.9248 75.5 212.2)"/><circle r="1" fill="#e09a92" transform="matrix(113.18889 153.84822 -40.70675 29.94869 126.6 40.5)"/><circle r="1" fill="#d10000" transform="matrix(1.30738 31.19314 -13.00717 .54516 133.1 194.6)"/><ellipse cx="54" cy="109" fill="#0b4f6a" rx="65" ry="18"/><ellipse cx="174" cy="184" fill="#01f98d" rx="29" ry="20"/><circle r="1" fill="#f6255f" transform="matrix(32.54514 6.77953 -5.8258 27.96674 51.2 255)"/><circle r="1" fill="#71b9ff" transform="matrix(-3.61214 15.15598 -28.06616 -6.68904 13.6 0)"/><circle r="1" fill="#eab5a0" transform="matrix(-21.72956 7.29572 -15.79653 -47.04838 167.3 246.1)"/></g></g></svg>