<svg xmlns="http://www.w3.org/2000/svg" width="300" height="400"><g filter="blur(12px)"><rect width="200%" height="200%" x="-50%" y="-50%" fill="#a27756"/><rect width="100%" height="100%" fill="#a27756"/><g fill-opacity=".5" transform="translate(.8 .8)scale(1.5625)"><circle r="1" fill="#95e9f6" transform="rotate(152.9 27.9 109.3)scale(156.96855 101.52046)"/><circle r="1" fill="#e3f8ff" transform="matrix(6.67207 39.52872 -139.08005 23.4754 55.9 12.9)"/><circle r="1" fill="#c69a85" transform="matrix(-106.62616 -82.99354 19.13847 -24.5882 26.5 87.3)"/><circle r="1" fill="#01394e" transform="rotate(87 36 91.5)scale(9.86756 62.27505)"/><circle r="1" fill="#f26c58" transform="matrix(-37.44179 -27.40711 14.90136 -20.35725 162.5 89.7)"/><ellipse cx="49" cy="251" fill="#538653" rx="23" ry="77"/><circle r="1" fill="#87d8e8" transform="matrix(27.48747 -38.73334 86.12254 61.11767 161.6 252.8)"/><path fill="#041300" d="m98 142.4-17.4 7.4-8.6-20.2 17.4-7.4z"/></g></g></svg>