<svg xmlns="http://www.w3.org/2000/svg" width="300" height="400"><g filter="blur(12px)"><rect width="200%" height="200%" x="-50%" y="-50%" fill="#519686"/><rect width="100%" height="100%" fill="#519686"/><g fill-opacity=".5" transform="translate(.8 .8)scale(1.5625)"><circle r="1" fill="#ffb3b2" transform="rotate(101 4.6 61.2)scale(72.17946 133.9802)"/><path fill="#e10008" d="m201 49-61 49-38-50z"/><circle r="1" fill="#f20000" transform="matrix(-.07711 10.41678 -39.30543 -.29097 72.2 203.1)"/><circle r="1" fill="#e6cfc8" transform="rotate(136.8 20.7 38.3)scale(88.10505 34.57306)"/><path fill="#aaa0c6" d="m183.5 167.7-25.9 103.8-61.1-15.2 25.9-103.8z"/><ellipse cx="176" cy="147" fill="#653333" rx="28" ry="26"/><circle r="1" fill="#5fab95" transform="rotate(76 72.5 117.2)scale(30.61646 52.31994)"/><circle r="1" fill="#3e6528" transform="matrix(4.88778 14.45893 -60.67185 20.50987 7.8 198)"/></g></g></svg>