<svg xmlns="http://www.w3.org/2000/svg" width="300" height="400"><g filter="blur(12px)"><rect width="200%" height="200%" x="-50%" y="-50%" fill="#5d6c98"/><rect width="100%" height="100%" fill="#5d6c98"/><g fill-opacity=".5" transform="translate(.8 .8)scale(1.5625)"><circle cx="165" cy="113" r="216" fill="#d0deb1"/><circle r="1" fill="#253e68" transform="matrix(-17.36522 -.8493 6.16393 -126.03067 97.5 77.2)"/><circle r="1" fill="#ffe7e0" transform="matrix(23.36268 -.77964 6.37035 190.89374 175 107.3)"/><circle r="1" fill="#9f6e00" transform="rotate(102.1 20.7 38.1)scale(13.3891 31.65265)"/><circle r="1" fill="#914c0f" transform="matrix(1.09914 9.08278 -42.99143 5.20253 166.8 131.8)"/><circle r="1" fill="#88d6d4" transform="matrix(-9.82071 -58.06355 38.98914 -6.59452 39.2 107.2)"/><circle r="1" fill="#29577f" transform="matrix(2.04013 -77.90948 7.2475 .18978 136.5 39.3)"/><path fill="#928519" d="m36 171-12 61 61-71z"/></g></g></svg>