<svg xmlns="http://www.w3.org/2000/svg" width="300" height="400"><g filter="blur(12px)"><rect width="200%" height="200%" x="-50%" y="-50%" fill="#ab627f"/><rect width="100%" height="100%" fill="#ab627f"/><g fill-opacity=".5" transform="translate(.8 .8)scale(1.5625)"><circle r="1" fill="#dae5d7" transform="matrix(24.1925 -.92478 6.9929 182.9365 1.8 99)"/><circle r="1" fill="#9c6044" transform="matrix(-14.16526 156.71966 -53.31736 -4.81914 191 143)"/><path fill="#003e6f" d="M141.9 104.3H169l-1-18.7-22.5-12.5z"/><circle r="1" fill="#00317a" transform="matrix(-6.09836 -.12774 .5986 -28.5765 64.1 237.5)"/><ellipse cx="78" cy="28" fill="#dd7a9f" rx="12" ry="250"/><ellipse cx="34" cy="29" fill="#5b7794" rx="7" ry="165"/><path fill="#002774" d="M61 107h7v40h-7z"/><path fill="#c4759a" d="m35 244.3-21 .4-3-171 21-.4z"/></g></g></svg>