<svg xmlns="http://www.w3.org/2000/svg" width="300" height="400"><g filter="blur(12px)"><rect width="200%" height="200%" x="-50%" y="-50%" fill="#67a985"/><rect width="100%" height="100%" fill="#67a985"/><g fill-opacity=".5" transform="translate(.8 .8)scale(1.5625)"><circle r="1" fill="#ff2e7c" transform="matrix(164.01306 -48.80368 21.42331 71.99668 76.1 183.5)"/><circle r="1" fill="#ff9800" transform="matrix(113.0147 -16.62622 2.75348 18.71643 182.8 44)"/><ellipse cx="34" cy="115" fill="#02033f" rx="50" ry="17"/><circle r="1" fill="#002652" transform="matrix(-4.3788 -17.34659 39.37566 -9.93962 181.6 115.4)"/><circle r="1" fill="#ffab00" transform="matrix(34.30098 -3.18973 1.43275 15.4072 127.2 201.1)"/><path fill="#ff7587" d="m-16 137 223 36-170 35z"/><path fill="#ff990d" d="m239.3 64.5-116 2-.6-39 116-2z"/><ellipse cx="176" cy="7" fill="#a7e3c1" rx="119" ry="21"/></g></g></svg>