<svg xmlns="http://www.w3.org/2000/svg" width="300" height="400"><g filter="blur(12px)"><rect width="200%" height="200%" x="-50%" y="-50%" fill="#b55c81"/><rect width="100%" height="100%" fill="#b55c81"/><g fill-opacity=".5" transform="translate(.8 .8)scale(1.5625)"><path fill="#f3ebd2" d="m197.6 29 6.7 190.9L.4 227-6.3 36.1z"/><circle r="1" fill="#7fabd3" transform="matrix(-99.70823 16.75512 -3.56494 -21.21463 79.4 198.6)"/><ellipse cx="141" cy="97" fill="#ffc7a4" rx="163" ry="41"/><circle r="1" fill="#ff3884" transform="matrix(-.96051 -23.6372 188.71767 -7.66867 102.2 14)"/><path fill="#ee9800" d="m112.6 104.8 16.8 4.6 45.1 2.9-9.4-25.6z"/><circle r="1" fill="#d088a1" transform="matrix(3.8255 39.86626 -140.96501 13.5268 108.6 248.4)"/><ellipse cx="86" cy="165" fill="#d84769" rx="191" ry="8"/><ellipse cx="133" cy="2" fill="#f21513" rx="164" ry="7"/></g></g></svg>