<svg xmlns="http://www.w3.org/2000/svg" width="300" height="400"><g filter="blur(12px)"><rect width="200%" height="200%" x="-50%" y="-50%" fill="#769a77"/><rect width="100%" height="100%" fill="#769a77"/><g fill-opacity=".5" transform="translate(.8 .8)scale(1.5625)"><circle r="1" fill="#e1a098" transform="matrix(-148.62525 -82.60776 92.79057 -166.94583 84 154.3)"/><circle r="1" fill="#5f5211" transform="matrix(-26.87439 1.785 -9.14045 -137.61612 112.1 87.3)"/><circle r="1" fill="#afe8ff" transform="matrix(0 182.72478 -12.44572 0 8.7 128)"/><circle r="1" fill="#e10009" transform="rotate(-178.2 66.2 38.3)scale(13.96448 39.04805)"/><path fill="#c80000" d="m136 258.2-17.4-60.6 13.4-3.8 17.4 60.6z"/><circle r="1" fill="#d2c3d2" transform="rotate(26.6 46.2 323.8)scale(67.71722 27.48651)"/><ellipse cx="102" cy="66" fill="#22af4e" rx="15" ry="106"/><circle r="1" fill="#1775bb" transform="rotate(-179.3 86.3 48.4)scale(11.30579 33.43925)"/></g></g></svg>