<svg xmlns="http://www.w3.org/2000/svg" width="300" height="400"><g filter="blur(12px)"><rect width="200%" height="200%" x="-50%" y="-50%" fill="#87b667"/><rect width="100%" height="100%" fill="#87b667"/><g fill-opacity=".5" transform="translate(.8 .8)scale(1.5625)"><circle r="1" fill="#f49dd3" transform="rotate(95.3 -22.3 105.6)scale(158.21531 181.82941)"/><circle r="1" fill="#b42d7e" transform="matrix(-128.87342 2.0245 -.2913 -18.54342 83.2 105)"/><ellipse cx="150" cy="142" fill="#6acc5b" rx="168" ry="17"/><path fill="#003219" d="M134.8 102.5 126.5 86l-26 1.5-24.3 18.8z"/><ellipse cx="104" cy="35" fill="#bfd0d4" rx="128" ry="21"/><circle r="1" fill="#ff2e00" transform="matrix(-44.52783 4.366 -.93239 -9.5092 191 1.3)"/><path fill="#21252d" d="m136 59.1 16.5 9.8 14.6 5.6.4 28.8z"/><circle r="1" fill="#f09db6" transform="matrix(-151.44452 -3.98284 1.2087 -45.95975 55.5 255)"/></g></g></svg>