<svg xmlns="http://www.w3.org/2000/svg" width="300" height="400"><g filter="blur(12px)"><rect width="200%" height="200%" x="-50%" y="-50%" fill="#539891"/><rect width="100%" height="100%" fill="#539891"/><g fill-opacity=".5" transform="translate(.8 .8)scale(1.5625)"><circle r="1" fill="#ffcda7" transform="matrix(165.04947 59.42147 -44.2788 122.9891 62.9 36.2)"/><circle cx="62" cy="213" r="137" fill="#989f8b"/><path fill="#606160" d="M199 67 76 90 0 186z"/><circle r="1" fill="#dbd7a7" transform="matrix(22.92308 -110.4232 58.88017 12.2231 0 59)"/><path fill="#cfeee6" d="M205.8 142.8 84.1 175.4l-6-22.2L200 120.6z"/><circle r="1" fill="#81de60" transform="matrix(-.65211 15.55896 -65.0563 -2.72667 180 240.1)"/><path fill="#c3ddbc" d="M190 32 19 25l106 69z"/><circle r="1" fill="#b1ec7b" transform="rotate(110.7 -57.3 148.8)scale(34.09443 20.26869)"/></g></g></svg>