<svg xmlns="http://www.w3.org/2000/svg" width="300" height="400"><g filter="blur(12px)"><rect width="200%" height="200%" x="-50%" y="-50%" fill="#56ac9c"/><rect width="100%" height="100%" fill="#56ac9c"/><circle r="1" fill="#ffb4b5" fill-opacity=".5" transform="matrix(46.8069 230.06327 -186.02174 37.84655 187.2 200.7)"/><circle r="1" fill="#a60026" fill-opacity=".5" transform="matrix(70.62789 98.66957 -46.84356 33.53072 40.3 300.2)"/><path fill="#c5021c" fill-opacity=".5" d="m229.8 453.8 27.6-174.4 95.7 15.2L325.4 469z"/><circle r="1" fill="#fffad9" fill-opacity=".5" transform="matrix(-85.05414 -89.23274 171.15084 -163.13617 266.1 101.2)"/><circle r="1" fill="#0c4cb0" fill-opacity=".5" transform="rotate(162.2 19 24.2)scale(38.0902 47.40445)"/><circle r="1" fill="#fff3c5" fill-opacity=".5" transform="matrix(10.84288 74.06692 -27.36472 4.006 20.6 137.7)"/><path fill="#55ebb1" fill-opacity=".5" d="M10.2 314.8h48.4v81.3H10.2z"/><circle r="1" fill="#ffa335" fill-opacity=".5" transform="rotate(83.2 22.9 89.8)scale(59.32498 21.25915)"/></g></svg>