<svg xmlns="http://www.w3.org/2000/svg" width="300" height="400"><g filter="blur(12px)"><rect width="200%" height="200%" x="-50%" y="-50%" fill="#b07558"/><rect width="100%" height="100%" fill="#b07558"/><circle r="1" fill="#f7bec9" fill-opacity=".5" transform="matrix(290.19165 69.66885 -55.18529 229.86327 191.8 175.4)"/><circle r="1" fill="#a86632" fill-opacity=".5" transform="rotate(-1.5 14172.4 -5098.6)scale(95.4745 27.1466)"/><circle r="1" fill="#e2d8eb" fill-opacity=".5" transform="matrix(-1.26948 21.36771 -122.37796 -7.2706 111.2 266.6)"/><circle r="1" fill="#e6d5cc" fill-opacity=".5" transform="matrix(-247.66322 -11.24632 1.7941 -39.50895 194.8 .8)"/><circle r="1" fill="#fff" fill-opacity=".5" transform="rotate(98.7 34.1 238.6)scale(9.7841 58.24735)"/><circle r="1" fill="#e06f47" fill-opacity=".5" transform="matrix(-132.24083 19.05503 -2.58235 -17.92134 193.8 124.6)"/><path fill="#645381" fill-opacity=".5" d="m202.9 337.3 104.6 26-5.7 22.8-104.6-26z"/><path fill="#6b98af" fill-opacity=".5" d="m119.5 344.5-143.7-17.2 36 37.5z"/></g></svg>