<svg xmlns="http://www.w3.org/2000/svg" width="300" height="400"><g filter="blur(12px)"><rect width="200%" height="200%" x="-50%" y="-50%" fill="#53ac80"/><rect width="100%" height="100%" fill="#53ac80"/><g fill-opacity=".5" transform="translate(.8 .8)scale(1.5625)"><circle r="1" fill="#ffd2a9" transform="rotate(-80.4 116.4 15.3)scale(191 129.9577)"/><circle r="1" fill="#08b9ff" transform="matrix(-7.43345 22.00517 -27.86294 -9.41223 61.6 236.8)"/><circle r="1" fill="#c58a16" transform="matrix(-27.69963 -17.35706 10.32669 -16.48006 98 212)"/><circle r="1" fill="#5bd3f9" transform="matrix(-6.80067 17.08932 -41.64231 -16.57149 181.7 239.3)"/><circle r="1" fill="#dccfa3" transform="matrix(-18.83253 78.44315 -149.02534 -35.77782 58.1 41.8)"/><ellipse cx="77" cy="160" fill="#909d72" rx="55" ry="48"/><path fill="#a89f48" d="M0 40h76v26H0z"/><circle r="1" fill="#f5c98e" transform="matrix(-17.93105 4.03257 -11.28166 -50.16453 156.9 158.3)"/></g></g></svg>