<svg xmlns="http://www.w3.org/2000/svg" width="300" height="400"><g filter="blur(12px)"><rect width="200%" height="200%" x="-50%" y="-50%" fill="#506a9b"/><rect width="100%" height="100%" fill="#506a9b"/><g fill-opacity=".5" transform="translate(.8 .8)scale(1.5625)"><circle r="1" fill="#ffffe2" transform="matrix(-188.70033 -29.54968 6.7161 -42.88815 112.7 29.2)"/><circle r="1" fill="#eec8d3" transform="rotate(-11.4 1212.6 -635.7)scale(36.8132 78.17019)"/><circle r="1" fill="#b61d00" transform="matrix(-13.79254 1.08085 -9.18402 -117.19535 69.3 211.3)"/><circle r="1" fill="#7d1319" transform="matrix(-21.35182 27.79383 -14.58579 -11.20512 79.4 63.5)"/><circle r="1" fill="#dff" transform="matrix(-15.84902 -1.86183 4.73936 -40.34426 147.9 74)"/><ellipse cx="3" cy="189" fill="#e60100" rx="6" ry="97"/><circle r="1" fill="#00bcfa" transform="matrix(11.59249 -.03579 .46719 151.33335 42.8 184)"/><ellipse cx="3" cy="47" fill="#c8ffff" rx="22" ry="44"/></g></g></svg>