<svg xmlns="http://www.w3.org/2000/svg" width="300" height="400"><g filter="blur(12px)"><rect width="200%" height="200%" x="-50%" y="-50%" fill="#6a966b"/><rect width="100%" height="100%" fill="#6a966b"/><g fill-opacity=".5" transform="translate(.8 .8)scale(1.5625)"><circle r="1" fill="#e4c5bd" transform="matrix(97.631 28.16795 -52.94663 183.51472 124.6 139.1)"/><circle r="1" fill="#f01f00" transform="rotate(12.8 -357.2 222)scale(61.45854 16.9974)"/><ellipse cx="109" cy="3" fill="#ffff6b" rx="152" ry="26"/><circle r="1" fill="#ff8200" transform="matrix(-4.54774 20.20408 -26.43638 -5.95057 75.2 180.3)"/><circle r="1" fill="#008051" transform="rotate(173.9 32.2 28.9)scale(29.00605 23.95105)"/><circle r="1" fill="#78480a" transform="rotate(29 -17.7 379.4)scale(20.88938 35.60604)"/><circle r="1" fill="#36a7bb" transform="matrix(-7.40036 -21.47435 84.76413 -29.2109 16.2 158.4)"/><circle r="1" fill="#fddfde" transform="matrix(26.81076 68.76604 -29.27733 11.41476 111.7 .1)"/></g></g></svg>