<svg xmlns="http://www.w3.org/2000/svg" width="300" height="400"><g filter="blur(12px)"><rect width="200%" height="200%" x="-50%" y="-50%" fill="#a8a65e"/><rect width="100%" height="100%" fill="#a8a65e"/><g fill-opacity=".5" transform="translate(.8 .8)scale(1.5625)"><circle r="1" fill="#1f527d" transform="matrix(-32.99879 52.7051 -83.5709 -52.32394 151.4 195.6)"/><circle r="1" fill="#9eaae5" transform="matrix(54.9249 6.74393 -15.68363 127.73288 48.5 225.8)"/><circle r="1" fill="#df0300" transform="matrix(23.58038 -55.4546 33.57731 14.27773 191 92.2)"/><circle r="1" fill="#f70005" transform="matrix(57.78151 -9.2551 3.03864 18.97088 66.3 81.1)"/><ellipse cx="127" cy="19" fill="#3b9fa2" rx="72" ry="42"/><circle r="1" fill="#3f5aa5" transform="matrix(13.7972 -69.04826 31.97859 6.38995 0 42.8)"/><circle r="1" fill="#e70000" transform="matrix(-14.18278 -5.10655 4.4608 -12.3893 21.3 215.1)"/><circle r="1" fill="#424514" transform="matrix(4.43473 -14.90693 37.0214 11.01367 7 166.5)"/></g></g></svg>