<svg xmlns="http://www.w3.org/2000/svg" width="300" height="400"><g filter="blur(12px)"><rect width="200%" height="200%" x="-50%" y="-50%" fill="#6b86ab"/><rect width="100%" height="100%" fill="#6b86ab"/><g fill-opacity=".5" transform="translate(.8 .8)scale(1.5625)"><circle r="1" fill="#ca8c57" transform="matrix(-114.92782 42.8417 -64.90568 -174.11701 86 163)"/><circle r="1" fill="#ff4a00" transform="rotate(-178.4 54.6 88.4)scale(12.09001 51.44636)"/><circle r="1" fill="#c7d8e8" transform="matrix(-9.58619 121.05676 -32.98388 -2.61191 10.6 198.4)"/><path fill="#1f9537" d="m183.7 35-44 27.5L106.2 9l44-27.6z"/><path fill="#ff4d00" d="m159.6 275.3 7.8-111.7 15 1-7.8 111.8z"/><ellipse cy="78" fill="#ffae49" rx="21" ry="88"/><path fill="#ff4600" d="m116.8 46.6-18.8 3-10.8-68.2 18.8-3z"/><path fill="#ba100f" d="m78.4 255.4-24.5-4.8 9.7-50 24.5 4.8z"/></g></g></svg>