<svg xmlns="http://www.w3.org/2000/svg" width="300" height="400"><g filter="blur(12px)"><rect width="200%" height="200%" x="-50%" y="-50%" fill="#6db7a9"/><rect width="100%" height="100%" fill="#6db7a9"/><g fill-opacity=".5" transform="translate(.8 .8)scale(1.5625)"><circle r="1" fill="#e18c69" transform="matrix(84.86126 41.15862 -83.35082 171.85355 140.3 154.5)"/><ellipse cx="158" cy="17" fill="#d30010" rx="14" ry="106"/><circle r="1" fill="#f9cfec" transform="matrix(-22.03869 51.15848 -20.66136 -8.90076 14.6 94.1)"/><circle r="1" fill="#29646c" transform="matrix(12.76265 -88.03366 15.13851 2.1947 55 86.2)"/><path fill="#583626" d="m110.1 141.7-91.9 11.2L23 116l1.7-1z"/><ellipse cx="17" cy="216" fill="#d6bfcf" rx="26" ry="63"/><circle r="1" fill="#1b121f" transform="matrix(-8.16618 -2.60217 7.13473 -22.39036 32.1 21.4)"/><circle r="1" fill="#e16026" transform="matrix(-12.01386 -18.78554 21.28814 -13.61433 82.8 130.1)"/></g></g></svg>