<svg xmlns="http://www.w3.org/2000/svg" width="300" height="400"><g filter="blur(12px)"><rect width="200%" height="200%" x="-50%" y="-50%" fill="#5cab9f"/><rect width="100%" height="100%" fill="#5cab9f"/><g fill-opacity=".5" transform="translate(.8 .8)scale(1.5625)"><circle r="1" fill="#d96427" transform="matrix(20.10755 93.90726 -186.20019 39.86944 97 166.1)"/><circle r="1" fill="#ff9fae" transform="rotate(-2.7 166 -1802.7)scale(188.59467 24.22484)"/><circle r="1" fill="#42304d" transform="rotate(-14.7 613.4 -72.8)scale(92.97625 22.24697)"/><circle r="1" fill="#e1e235" transform="matrix(90.92145 -14.75417 2.5302 15.5922 85.6 92.2)"/><ellipse cx="118" cy="195" fill="#ffae64" rx="31" ry="39"/><circle r="1" fill="#28215b" transform="matrix(7.69448 -24.85686 20.4473 6.3295 178.7 150)"/><circle r="1" fill="#a9503b" transform="matrix(38.83212 -18.00115 3.8009 8.1993 174.5 48)"/><circle r="1" fill="#51749c" transform="rotate(-103.3 119.2 91.6)scale(13.42376 53.79161)"/></g></g></svg>