<svg xmlns="http://www.w3.org/2000/svg" width="300" height="400"><g filter="blur(12px)"><rect width="200%" height="200%" x="-50%" y="-50%" fill="#56a49f"/><rect width="100%" height="100%" fill="#56a49f"/><g fill-opacity=".5" transform="translate(.8 .8)scale(1.5625)"><circle r="1" fill="#ffcac2" transform="matrix(-177.19709 29.65262 -31.5241 -188.38055 117.5 143)"/><circle r="1" fill="#638455" transform="matrix(-170.98126 -3.00887 .64492 -36.6484 71 151.7)"/><circle r="1" fill="#ffdcda" transform="matrix(.68294 31.15457 -183.10626 4.01387 93.2 226.3)"/><circle cx="88" r="122" fill="#d9c2d4"/><circle r="1" fill="#54abcf" transform="matrix(182.84197 .91335 -.05641 11.29255 92 47.5)"/><path fill="#045e58" d="m123.5 137.4 61.9-2.4-57.1-22.3-11.7 4.9z"/><path fill="#ffd3c9" d="m28.5 183.8-10.4-16 39.4-25.6 10.4 16z"/><circle r="1" fill="#ffded6" transform="matrix(17.82127 5.34664 -10.00517 33.34898 178.6 94.5)"/></g></g></svg>