<svg xmlns="http://www.w3.org/2000/svg" width="300" height="400"><g filter="blur(12px)"><rect width="200%" height="200%" x="-50%" y="-50%" fill="#a1785a"/><rect width="100%" height="100%" fill="#a1785a"/><g fill-opacity=".5" transform="translate(.8 .8)scale(1.5625)"><circle r="1" fill="#207bbb" transform="matrix(.94733 -27.01543 166.15248 5.82636 112.6 12.3)"/><ellipse cx="129" cy="182" fill="#c9bcd4" rx="165" ry="17"/><circle r="1" fill="#ff6000" transform="matrix(97.8844 7.70367 -1.04074 13.2238 101.8 53.8)"/><circle r="1" fill="#ffa64b" transform="rotate(-108.3 57.7 44.6)scale(40.69152 52.2886)"/><path fill="#ffba47" d="m135.2 82.2 75-1.4.6 39-75 1.4z"/><ellipse cx="152" cy="76" fill="#41a8cc" rx="86" ry="8"/><circle r="1" fill="#568bab" transform="matrix(.7819 -21.36355 48.38274 1.7708 32 248.6)"/><circle r="1" fill="#ec6c3c" transform="matrix(-57.24249 7.16421 -2.23387 -17.84879 25.8 205)"/></g></g></svg>