<svg xmlns="http://www.w3.org/2000/svg" width="300" height="400"><g filter="blur(12px)"><rect width="200%" height="200%" x="-50%" y="-50%" fill="#5b98a6"/><rect width="100%" height="100%" fill="#5b98a6"/><g fill-opacity=".5" transform="translate(.8 .8)scale(1.5625)"><circle r="1" fill="#c27979" transform="matrix(-45.64502 173.08953 -135.07616 -35.6206 86.8 170.2)"/><circle r="1" fill="#893d49" transform="matrix(-109.34454 17.31847 -4.66518 -29.45476 93.6 139.2)"/><circle r="1" fill="#9fc3e8" transform="rotate(-91.5 131.6 70.6)scale(16.29542 98.06336)"/><path fill="#f8315f" d="m126.3 5.7-1.2 47L102.3 24 85.1 7.2z"/><circle r="1" fill="#6ab9bd" transform="matrix(14.81517 18.22001 -32.8576 26.71736 15.7 51.2)"/><ellipse cx="132" cy="73" fill="#8babaa" rx="73" ry="45"/><ellipse cx="106" cy="136" fill="#346b79" rx="106" ry="8"/><circle r="1" fill="#e46344" transform="rotate(75.8 -22.3 122.5)scale(11.93681 45.22053)"/></g></g></svg>