<svg xmlns="http://www.w3.org/2000/svg" width="300" height="400"><g filter="blur(12px)"><rect width="200%" height="200%" x="-50%" y="-50%" fill="#5d9c8b"/><rect width="100%" height="100%" fill="#5d9c8b"/><g fill-opacity=".5" transform="translate(.8 .8)scale(1.5625)"><circle r="1" fill="#ff916f" transform="matrix(65.19885 77.68075 -62.5785 52.52325 124.5 32.3)"/><ellipse cx="8" cy="29" fill="#ff6e00" rx="10" ry="172"/><circle r="1" fill="#04369b" transform="matrix(-27.9082 1.2931 -5.01114 -108.1521 46.6 137.7)"/><circle r="1" fill="#dcd8ff" transform="matrix(9.40249 88.26092 -15.9269 1.6967 123.5 27.6)"/><path fill="#ff7c13" d="m82 89.2 23-.4 1 64-23 .4z"/><ellipse cx="167" cy="90" fill="#a76432" rx="28" ry="85"/><circle r="1" fill="#4b88ce" transform="matrix(38.38448 1.904 -5.27403 106.32404 99.8 252)"/><circle r="1" fill="#ff7d00" transform="rotate(-90.6 32.7 27.6)scale(79.46691 13.02893)"/></g></g></svg>