<svg xmlns="http://www.w3.org/2000/svg" width="300" height="400"><g filter="blur(12px)"><rect width="200%" height="200%" x="-50%" y="-50%" fill="#b55d61"/><rect width="100%" height="100%" fill="#b55d61"/><g fill-opacity=".5" transform="translate(.8 .8)scale(1.5625)"><circle r="1" fill="#005686" transform="matrix(-17.25849 -172.90775 37.38056 -3.73108 134.7 132.5)"/><ellipse cx="39" cy="147" fill="#b4cb99" rx="68" ry="255"/><circle r="1" fill="#0050e1" transform="matrix(6.75937 -67.67946 17.84636 1.78237 115.1 105.2)"/><circle r="1" fill="#ff8128" transform="matrix(11.99985 171.9811 -16.35239 1.14097 59 123.4)"/><path fill="#412805" d="M144.5 262V102h33v160z"/><circle r="1" fill="#85ba98" transform="rotate(125.7 53.1 68.2)scale(15.53013 84.13785)"/><circle r="1" fill="#789e99" transform="matrix(-14.85701 -77.29592 23.6842 -4.55233 104 223.9)"/><circle r="1" fill="#afd1e0" transform="rotate(-101 37.2 45.1)scale(66.05052 17.90108)"/></g></g></svg>