<svg xmlns="http://www.w3.org/2000/svg" width="300" height="400"><g filter="blur(12px)"><rect width="200%" height="200%" x="-50%" y="-50%" fill="#5c679f"/><rect width="100%" height="100%" fill="#5c679f"/><g fill-opacity=".5" transform="translate(.8 .8)scale(1.5625)"><circle r="1" fill="#ffddcb" transform="rotate(152.3 36 78.4)scale(161.46562 176.51227)"/><circle r="1" fill="#f1c7dc" transform="matrix(190.75978 -9.57629 2.2087 43.99742 98.5 139.9)"/><circle r="1" fill="#916494" transform="matrix(175.70556 .33084 -.06154 32.68437 89 59.1)"/><circle r="1" fill="#f5d7d7" transform="matrix(-180.1351 19.6748 -2.66657 -24.41412 116.1 255)"/><circle r="1" fill="#996e4f" transform="rotate(-11.8 1073.9 -667.2)scale(28.56721 21.11688)"/><path fill="#987e6a" d="m115 189-92 4 97 56z"/><circle r="1" fill="#ffecdc" transform="matrix(5.45121 -7.17668 43.25849 32.85798 11 207.7)"/><ellipse cx="116" cy="3" fill="#fbb6d4" rx="191" ry="13"/></g></g></svg>