<svg xmlns="http://www.w3.org/2000/svg" width="300" height="400"><g filter="blur(12px)"><rect width="200%" height="200%" x="-50%" y="-50%" fill="#b87063"/><rect width="100%" height="100%" fill="#b87063"/><g fill-opacity=".5" transform="translate(.8 .8)scale(1.5625)"><circle r="1" fill="#f6df96" transform="rotate(-92.8 177.1 16)scale(117.96032 22.26058)"/><circle cx="8" cy="72" r="119" fill="#d4b38b"/><circle r="1" fill="#fd4e30" transform="matrix(17.43411 .60455 -5.74746 165.74716 140.5 106.6)"/><path fill="#aef1ff" d="m166.8 171.5 39.5 11.3-9.1 31.7-39.5-11.3z"/><path fill="#d2c5de" d="M105 15h14v225h-14z"/><circle r="1" fill="#945b4b" transform="matrix(18.01964 -.83247 2.26686 49.06818 48.7 95)"/><circle r="1" fill="#d8ac7c" transform="matrix(23.12456 -1.94818 7.25232 86.08397 37.2 185.1)"/><path fill="#e9c391" d="m166 187 2-145-31 107z"/></g></g></svg>