<svg xmlns="http://www.w3.org/2000/svg" width="300" height="400"><g filter="blur(12px)"><rect width="200%" height="200%" x="-50%" y="-50%" fill="#a85863"/><rect width="100%" height="100%" fill="#a85863"/><g fill-opacity=".5" transform="translate(.8 .8)scale(1.5625)"><circle r="1" fill="#91c9b6" transform="matrix(-184.39188 14.74986 -15.2298 -190.39184 74.3 119.9)"/><path fill="#644f58" d="m99 128 70 143 38-204z"/><circle r="1" fill="#dd3932" transform="matrix(9.57448 42.48533 -21.02782 4.73882 113 112.7)"/><circle r="1" fill="#68b0b0" transform="rotate(144.3 -20.9 121)scale(57.99156 83.42067)"/><ellipse cx="149" cy="57" fill="#ddbab8" rx="60" ry="29"/><circle r="1" fill="#ee983a" transform="matrix(-34.51048 -34.95223 17.6773 -17.45387 0 49.6)"/><circle r="1" fill="#b9d4d3" transform="matrix(-1.0614 -104.5015 11.14235 -.11317 52.1 90.8)"/><path fill="#ca0000" d="M177 84h15v36h-15z"/></g></g></svg>