<svg xmlns="http://www.w3.org/2000/svg" width="300" height="400"><g filter="blur(12px)"><rect width="200%" height="200%" x="-50%" y="-50%" fill="#5894a5"/><rect width="100%" height="100%" fill="#5894a5"/><g fill-opacity=".5" transform="translate(.8 .8)scale(1.5625)"><circle r="1" fill="#baa785" transform="matrix(-108.93865 156.88649 -83.48859 -57.9727 56.8 97.3)"/><circle r="1" fill="#a3e2f0" transform="rotate(-137.5 113.8 21)scale(51.9086 45.92586)"/><circle r="1" fill="#e3b1e0" transform="matrix(1.50591 -22.08956 143.5027 9.78303 68.6 255)"/><circle r="1" fill="#387382" transform="matrix(-72.0594 -56.59751 28.17903 -35.87727 108.5 176.4)"/><circle r="1" fill="#eee3b7" transform="matrix(15.06202 12.13419 -22.37529 27.77417 56 80.7)"/><circle r="1" fill="#a15454" transform="matrix(-42.83502 -10.99731 7.82982 -30.49748 183.7 22.3)"/><ellipse cx="98" cy="40" fill="#cebbaf" rx="39" ry="30"/><circle r="1" fill="#2337c5" transform="matrix(.38079 -12.11683 64.13459 2.01551 135.4 216.5)"/></g></g></svg>