<svg xmlns="http://www.w3.org/2000/svg" width="300" height="400"><g filter="blur(12px)"><rect width="200%" height="200%" x="-50%" y="-50%" fill="#a66a56"/><rect width="100%" height="100%" fill="#a66a56"/><g fill-opacity=".5" transform="translate(.8 .8)scale(1.5625)"><ellipse cx="123" cy="160" fill="#a0caff" rx="174" ry="227"/><circle r="1" fill="#20556b" transform="rotate(-95.9 91 -28.3)scale(27.48357 121.35706)"/><circle r="1" fill="#f4d0fe" transform="matrix(17.46833 40.24722 -128.16865 55.62849 34.8 217.1)"/><ellipse cx="43" cy="39" fill="#ba7654" rx="94" ry="23"/><path fill="#49668b" d="m-3 149 73-5L43 25z"/><circle r="1" fill="#c8b0f8" transform="matrix(78.97867 -14.3091 3.1356 17.30684 135.6 105.8)"/><circle r="1" fill="#ff7148" transform="matrix(.5286 6.08713 -45.92015 3.98766 160.8 21)"/><path fill="#5fa5aa" d="M77.5 221.6 69 249.4l89.8.3 19.3-20.6z"/></g></g></svg>