<svg xmlns="http://www.w3.org/2000/svg" width="300" height="400"><g filter="blur(12px)"><rect width="200%" height="200%" x="-50%" y="-50%" fill="#549b8f"/><rect width="100%" height="100%" fill="#549b8f"/><g fill-opacity=".5" transform="translate(.8 .8)scale(1.5625)"><circle r="1" fill="#ff9c55" transform="matrix(129.28331 -140.59454 101.4187 93.25928 112 141.5)"/><circle r="1" fill="#fff" transform="matrix(1.5668 32.77876 -73.97006 3.5357 147 55.7)"/><circle r="1" fill="#af4c00" transform="rotate(3.6 -1885 1235)scale(137.97168 39.02174)"/><circle r="1" fill="#43d8df" transform="matrix(11.3909 -28.05241 77.98992 31.66842 54 196.5)"/><circle r="1" fill="#ffb500" transform="matrix(-55.27616 86.37106 -14.8651 -9.51344 158.3 217)"/><ellipse cx="92" cy="153" fill="#ff8500" rx="37" ry="29"/><circle r="1" fill="#384848" transform="matrix(156.6395 15.22382 -1.75038 18.00983 26.3 101.2)"/><circle r="1" fill="#4bc4d0" transform="matrix(-76.3629 56.56224 -13.8166 -18.65335 93.2 216.6)"/></g></g></svg>