<svg xmlns="http://www.w3.org/2000/svg" width="300" height="400"><g filter="blur(12px)"><rect width="200%" height="200%" x="-50%" y="-50%" fill="#46768f"/><rect width="100%" height="100%" fill="#46768f"/><g fill-opacity=".5" transform="translate(.8 .8)scale(1.5625)"><circle r="1" fill="#ffaf44" transform="rotate(173.3 40.6 63.9)scale(191 142.08238)"/><circle r="1" fill="#fef1ff" transform="matrix(-83.32897 5.2477 -1.74189 -27.6597 46.7 162.8)"/><circle r="1" fill="#f57000" transform="matrix(2.00103 -36.76674 159.12536 8.6604 76.6 33.2)"/><circle r="1" fill="#ff8700" transform="matrix(-67.99723 -9.18953 3.57541 -26.456 153.3 195.1)"/><circle r="1" fill="#1c64af" transform="matrix(24.33805 47.76612 -31.63468 16.11867 181.2 117.9)"/><circle r="1" fill="#a3bbcf" transform="matrix(-.55578 35.56269 -130.99762 -2.04727 92.7 248.3)"/><circle r="1" fill="#0b6faf" transform="matrix(-.72785 -18.79446 53.62105 -2.07657 22.2 87.9)"/><ellipse cx="102" cy="103" fill="#ff8c00" rx="40" ry="19"/></g></g></svg>