<svg xmlns="http://www.w3.org/2000/svg" width="300" height="400"><g filter="blur(12px)"><rect width="200%" height="200%" x="-50%" y="-50%" fill="#a05360"/><rect width="100%" height="100%" fill="#a05360"/><g fill-opacity=".5" transform="translate(.8 .8)scale(1.5625)"><circle r="1" fill="#eec695" transform="matrix(150.09867 -118.116 68.46143 86.99896 98.8 111.4)"/><path fill="#e07526" d="m-43.8 46.8 41-71 106.6 61.4-41 71z"/><circle r="1" fill="#9dc7e1" transform="matrix(-32.82903 -26.03683 19.19134 -24.19777 113 9)"/><circle r="1" fill="#e2c799" transform="matrix(24.33064 18.926 -47.64854 61.25536 37.5 211.6)"/><ellipse cx="138" cy="246" fill="#c56466" rx="75" ry="92"/><circle r="1" fill="#748882" transform="matrix(45.88013 -6.31258 3.2497 23.61894 129.1 56)"/><ellipse cx="175" cy="111" fill="#ffb4bb" rx="34" ry="25"/><circle r="1" fill="#6d6e81" transform="matrix(-76.80663 -2.1454 .24266 -8.68725 140.5 249)"/></g></g></svg>