<svg xmlns="http://www.w3.org/2000/svg" width="300" height="400"><g filter="blur(12px)"><rect width="200%" height="200%" x="-50%" y="-50%" fill="#6ea6af"/><rect width="100%" height="100%" fill="#6ea6af"/><g fill-opacity=".5" transform="translate(.8 .8)scale(1.5625)"><circle r="1" fill="#ffab6b" transform="matrix(86.14287 58.22545 -21.3349 31.56438 142.7 151.2)"/><circle r="1" fill="#ffa85a" transform="matrix(22.80055 -21.95018 39.3692 40.8944 160 39.8)"/><circle r="1" fill="#9a8479" transform="matrix(-70.91201 13.27082 -34.26477 -183.09217 32.2 125)"/><circle r="1" fill="#0f333b" transform="rotate(-90.2 31.5 22.8)scale(53.9386 21.99637)"/><circle r="1" fill="#ff8500" transform="matrix(18.30184 -6.81668 14.29485 38.37972 183.7 179.7)"/><circle r="1" fill="#b1c9a8" transform="matrix(-29.9924 8.22758 -33.60328 -122.49569 98.6 176.4)"/><path fill="#ff9200" d="M197.5 91.7 169.3 72l-8.5-28.9 46.2-4.5z"/><ellipse cx="102" cy="21" fill="#85ffd4" rx="20" ry="27"/></g></g></svg>