<svg xmlns="http://www.w3.org/2000/svg" width="300" height="400"><g filter="blur(12px)"><rect width="200%" height="200%" x="-50%" y="-50%" fill="#76a59b"/><rect width="100%" height="100%" fill="#76a59b"/><circle r="1" fill="#ffe1e0" fill-opacity=".5" transform="matrix(40.1152 -290.20465 281.7385 38.94493 106.7 207.3)"/><circle r="1" fill="#457d74" fill-opacity=".5" transform="matrix(12.07577 -60.56853 87.83054 17.5111 237.2 193.2)"/><circle r="1" fill="#b95a10" fill-opacity=".5" transform="matrix(.3196 17.25931 -139.95187 2.5915 193.6 340)"/><circle r="1" fill="#f4303f" fill-opacity=".5" transform="rotate(-100.1 122.2 45.8)scale(21.17663 35.74952)"/><circle r="1" fill="#007078" fill-opacity=".5" transform="matrix(26.13478 15.82779 -8.90316 14.70086 28.8 160.2)"/><circle r="1" fill="#f2ffff" fill-opacity=".5" transform="matrix(4.37777 21.84323 -47.62132 9.54415 276 187.5)"/><circle r="1" fill="#edebec" fill-opacity=".5" transform="matrix(11.92583 -61.89611 125.8748 24.25292 75.3 256.7)"/><path fill="#352e30" fill-opacity=".5" d="m182.4 136.8 57.8 3-2.3 43.7-57.8-3z"/></g></svg>