<svg xmlns="http://www.w3.org/2000/svg" width="300" height="400"><g filter="blur(12px)"><rect width="200%" height="200%" x="-50%" y="-50%" fill="#57a8a8"/><rect width="100%" height="100%" fill="#57a8a8"/><g fill-opacity=".5" transform="translate(.8 .8)scale(1.5625)"><circle r="1" fill="#f69d7b" transform="matrix(.56915 -132.20828 190.99823 .82223 105.9 168.3)"/><circle r="1" fill="#200f60" transform="matrix(91.35131 2.06378 -.2217 9.81365 91.6 119.1)"/><circle r="1" fill="#ffb88e" transform="rotate(-5.5 2568 -811.8)scale(187.86522 30.58024)"/><circle r="1" fill="#37957c" transform="matrix(-.43723 17.8902 -65.3626 -1.59743 131.8 159.2)"/><ellipse cx="24" cy="34" fill="#a2c3bc" rx="149" ry="28"/><circle r="1" fill="#e0e5ca" transform="matrix(49.70908 13.87902 -5.87914 21.05673 21.8 172.6)"/><ellipse cx="136" cy="255" fill="#e0e8e2" rx="62" ry="25"/><circle r="1" fill="#f86703" transform="matrix(2.63436 16.51308 -27.21046 4.34094 189.3 218.8)"/></g></g></svg>