<svg xmlns="http://www.w3.org/2000/svg" width="300" height="400"><g filter="blur(12px)"><rect width="200%" height="200%" x="-50%" y="-50%" fill="#63a5af"/><rect width="100%" height="100%" fill="#63a5af"/><g fill-opacity=".5" transform="translate(.8 .8)scale(1.5625)"><circle r="1" fill="#e3d0c2" transform="matrix(51.19418 -117.73856 128.35816 55.81171 102.7 94.6)"/><circle r="1" fill="#e95f2d" transform="matrix(18.17062 35.20493 -63.01004 32.5219 176.3 8.4)"/><ellipse cx="120" cy="255" fill="#d78567" rx="63" ry="30"/><circle r="1" fill="#c11550" transform="matrix(.28987 22.77195 -45.28495 .57644 165.4 3.8)"/><circle r="1" fill="#4ae581" transform="rotate(91 10.4 23.5)scale(16.41328 54.2278)"/><circle r="1" fill="#408498" transform="rotate(111 -36.9 137.6)scale(20.85204 41.22464)"/><circle r="1" fill="#6fcae3" transform="matrix(-50.73612 -17.09346 9.57041 -28.4065 122.8 187.4)"/><circle r="1" fill="#7aefff" transform="rotate(2.3 -652 3805.2)scale(52.50991 5.04533)"/></g></g></svg>