<svg xmlns="http://www.w3.org/2000/svg" width="300" height="400"><g filter="blur(12px)"><rect width="200%" height="200%" x="-50%" y="-50%" fill="#8b8777"/><rect width="100%" height="100%" fill="#8b8777"/><circle r="1" fill="#c5bdb0" fill-opacity=".5" transform="matrix(-296.33814 -35.33618 11.48909 -96.35036 113.5 190.3)"/><circle r="1" fill="#4b443f" fill-opacity=".5" transform="matrix(-189.10285 -11.48349 1.30938 -21.56206 172.8 317.6)"/><path fill="#fff" fill-opacity=".5" d="m259.7 88.2 6.5-30.5 41.3 8.7L301 97z"/><circle r="1" fill="#dfd9c8" fill-opacity=".5" transform="rotate(88.1 -116.4 148)scale(29.42684 80.04663)"/><path fill="#d9d2c5" fill-opacity=".5" d="m25.8 400.8 71.9 23.4-22-114z"/><path fill="#fffff7" fill-opacity=".5" d="m161.5 85 32.3-27 15 17.9-32.3 27.1z"/><path fill="#3a342c" fill-opacity=".5" d="M7 83.6-4 107l97 20.3z"/><circle r="1" fill="#e1dcca" fill-opacity=".5" transform="matrix(-3.89426 -29.57982 55.25975 -7.27508 280.4 267)"/></g></svg>