<svg xmlns="http://www.w3.org/2000/svg" width="300" height="400"><g filter="blur(12px)"><rect width="200%" height="200%" x="-50%" y="-50%" fill="#4d9296"/><rect width="100%" height="100%" fill="#4d9296"/><g fill-opacity=".5" transform="translate(.8 .8)scale(1.5625)"><circle r="1" fill="#ff9664" transform="matrix(-39.76526 -155.33482 185.03318 -47.36796 93.9 119.4)"/><circle r="1" fill="#f37400" transform="matrix(80.96662 -32.80722 17.1551 42.33797 64.7 140)"/><circle r="1" fill="#f5aae8" transform="rotate(-4.4 2691.2 -2055.4)scale(131.4616 29.95533)"/><circle r="1" fill="#ff1f00" transform="matrix(-2.76724 -18.2726 64.65431 -9.79137 155.5 39.9)"/><circle r="1" fill="#e9daff" transform="matrix(-120.04906 15.37864 -2.58285 -20.16229 70.9 13.5)"/><ellipse cx="70" cy="74" fill="#76e7f3" rx="93" ry="14"/><ellipse cx="81" cy="107" fill="#14aab1" rx="191" ry="5"/><path fill="#f50" d="m157.8 75.9 46-.8.4 21-46 .8z"/></g></g></svg>