<svg xmlns="http://www.w3.org/2000/svg" width="300" height="400"><g filter="blur(12px)"><rect width="200%" height="200%" x="-50%" y="-50%" fill="#88bea3"/><rect width="100%" height="100%" fill="#88bea3"/><g fill-opacity=".5" transform="translate(.8 .8)scale(1.5625)"><ellipse cx="83" cy="86" fill="#ff705b" rx="136" ry="216"/><circle r="1" fill="#ff651e" transform="matrix(20.93713 -.40684 3.4367 176.86147 53 124)"/><circle r="1" fill="#f20" transform="matrix(-5.00482 -65.24008 20.70846 -1.58863 191 58.8)"/><circle r="1" fill="#00425d" transform="matrix(13.24249 -3.21832 16.61358 68.36022 83.2 15.5)"/><circle r="1" fill="#bafee5" transform="matrix(18.02496 -.79975 5.45857 123.02639 87.8 195.2)"/><circle r="1" fill="#bfb5c2" transform="matrix(-74.78359 -149.33938 36.92838 -18.49236 191 210.5)"/><ellipse cx="122" cy="34" fill="#a8eeca" rx="14" ry="64"/><circle r="1" fill="#21d0e5" transform="matrix(7.70797 31.51323 -12.32318 3.01419 158.5 0)"/></g></g></svg>