<svg xmlns="http://www.w3.org/2000/svg" width="300" height="400"><g filter="blur(12px)"><rect width="200%" height="200%" x="-50%" y="-50%" fill="#874c47"/><rect width="100%" height="100%" fill="#874c47"/><g fill-opacity=".5" transform="translate(.8 .8)scale(1.5625)"><circle cx="97" cy="137" r="177" fill="#fff"/><circle r="1" fill="#ffe4a9" transform="matrix(147.86087 -2.4961 3.20755 190.0044 104.2 136.5)"/><circle r="1" fill="#bf7641" transform="matrix(9.42855 21.78808 -50.41935 21.8184 27.5 164.1)"/><ellipse cx="173" cy="175" fill="#fff0d6" rx="111" ry="39"/><circle r="1" fill="#fff44d" transform="matrix(.06586 12.5775 -52.19261 .27328 37.2 229.4)"/><path fill="#bd2028" d="m-15.3 125.4 37-.8 2.2-12.4-27.6.9z"/><circle r="1" fill="#ffeee2" transform="matrix(36.89261 -4.77199 2.11386 16.3424 53.7 202.4)"/><path fill="#cea800" d="m120 57 5-43-13 23z"/></g></g></svg>