<svg xmlns="http://www.w3.org/2000/svg" width="300" height="400"><g filter="blur(12px)"><rect width="200%" height="200%" x="-50%" y="-50%" fill="#526e8b"/><rect width="100%" height="100%" fill="#526e8b"/><g fill-opacity=".5" transform="translate(.8 .8)scale(1.5625)"><circle r="1" fill="#c1d1c5" transform="rotate(-5.6 1044.3 -976)scale(177.26068 191)"/><circle r="1" fill="#f1713e" transform="matrix(1.79434 27.7473 -67.96676 4.39521 62.4 202.3)"/><circle r="1" fill="#4bd8f7" transform="matrix(-64.9068 33.64307 -15.95791 -30.78723 26 72.2)"/><circle r="1" fill="#64dff8" transform="matrix(-25.02782 -25.64696 64.34822 -62.7948 178 59.4)"/><circle r="1" fill="#5e6382" transform="matrix(-24.87648 -18.20683 63.30006 -86.48856 137.4 222.1)"/><path fill="#ef4d00" d="m87.1 149-38.7-4.1 2.5-23.9 38.7 4.1z"/><ellipse cx="41" cy="12" fill="#a3ddd7" rx="87" ry="46"/><path fill="#001649" d="m120.9 61.5 7.2-2.6L156.5-16l-27.4 27z"/></g></g></svg>