<svg xmlns="http://www.w3.org/2000/svg" width="300" height="400"><g filter="blur(12px)"><rect width="200%" height="200%" x="-50%" y="-50%" fill="#689b9c"/><rect width="100%" height="100%" fill="#689b9c"/><g fill-opacity=".5" transform="translate(.8 .8)scale(1.5625)"><circle r="1" fill="#ff787b" transform="matrix(-173.14834 26.21697 -26.42246 -174.50548 102.1 129)"/><ellipse cx="82" cy="141" fill="#ff898c" rx="185" ry="170"/><path fill="#c42926" d="m170.2 183.4.6 30-65 1.2-.6-30z"/><circle r="1" fill="#99a2c5" transform="matrix(-61.67642 -10.15212 5.44104 -33.05554 14.9 195)"/><ellipse cx="19" cy="62" fill="#fec9bc" rx="44" ry="28"/><circle r="1" fill="#c1464c" transform="matrix(-44.1678 24.9801 -9.91577 -17.53226 172.5 51.1)"/><path fill="#c92a39" d="M0 128h64v23H0z"/><path fill="#6d7cd7" d="m-5.6 114.7-1.7-23.9 50.9-3.5 1.7 23.9z"/></g></g></svg>