<svg xmlns="http://www.w3.org/2000/svg" width="300" height="400"><g filter="blur(12px)"><rect width="200%" height="200%" x="-50%" y="-50%" fill="#959462"/><rect width="100%" height="100%" fill="#959462"/><circle r="1" fill="#c19ff3" fill-opacity=".5" transform="matrix(-68.38283 -.0532 .23214 -298.43741 53.1 235.6)"/><circle r="1" fill="#2f406a" fill-opacity=".5" transform="matrix(-41.79729 -263.90812 58.24792 -9.2252 214 274.7)"/><circle r="1" fill="#ca4d8e" fill-opacity=".5" transform="rotate(77.8 89.5 205.7)scale(140.40919 52.5415)"/><circle r="1" fill="#6bb7ff" fill-opacity=".5" transform="matrix(20.32423 .36323 -.8652 48.41198 244.2 39.4)"/><circle r="1" fill="#ff6238" fill-opacity=".5" transform="matrix(11.47075 .59339 -3.11177 60.15349 158.2 188)"/><path fill="#7f82cb" fill-opacity=".5" d="m320.8 431-50 1.8L262 183l50-1.8z"/><circle r="1" fill="#2d6d79" fill-opacity=".5" transform="matrix(-38.00266 -7.23908 21.28977 -111.76398 233.5 277.3)"/><circle r="1" fill="#ff2b51" fill-opacity=".5" transform="rotate(-99.6 54 -45)scale(63.97226 17.78541)"/></g></svg>