<svg xmlns="http://www.w3.org/2000/svg" width="300" height="400"><g filter="blur(12px)"><rect width="200%" height="200%" x="-50%" y="-50%" fill="#51a696"/><rect width="100%" height="100%" fill="#51a696"/><g fill-opacity=".5" transform="translate(.8 .8)scale(1.5625)"><circle r="1" fill="#ffa6ba" transform="matrix(-19.54186 -94.89912 29.58595 -6.09241 167.2 25.3)"/><circle r="1" fill="#4279d6" transform="matrix(-48.5262 11.4711 -35.59636 -150.5832 158.4 196)"/><circle r="1" fill="#e0c7b5" transform="matrix(6.92293 23.2509 -59.17767 17.6201 191 187.4)"/><circle r="1" fill="#0099cd" transform="matrix(25.29322 14.36855 -32.43576 57.09727 34.8 218)"/><circle r="1" fill="#cf1f07" transform="matrix(-13.91488 -3.1276 6.35915 -28.29214 144 22.5)"/><ellipse cx="75" cy="124" fill="#f68735" rx="15" ry="35"/><circle r="1" fill="#4fb2df" transform="matrix(60.918 11.18055 -27.62894 150.53825 9.7 63.5)"/><path fill="#fff3fc" d="m56 120-27 60 3-80z"/></g></g></svg>