<svg xmlns="http://www.w3.org/2000/svg" width="300" height="300"><g filter="blur(12px)"><rect width="200%" height="200%" x="-50%" y="-50%" fill="#84916c"/><rect width="100%" height="100%" fill="#84916c"/><circle r="1" fill="#f9ca95" fill-opacity=".5" transform="matrix(-218.3775 35.20474 -34.69737 -215.23028 173.6 144.8)"/><path fill-opacity=".5" d="M129.5 123.6h28.1v23.5h-28.1zm37.6-103.4 4.6-32.5 18.6 2.6-4.6 32.5zM21.6 128.6l-16-10L21.9 93l15.9 9.9z"/><circle r="1" fill="#ffd3b1" fill-opacity=".5" transform="matrix(18.43903 19.3104 -47.32028 45.18496 63.6 214.7)"/><path fill-opacity=".5" d="m217.4 286.5-20 31.7 41-21.1z"/><circle r="1" fill-opacity=".5" transform="matrix(-8.17716 -1.33756 1.76647 -10.7993 213.8 232)"/><circle r="1" fill="#f1dee8" fill-opacity=".5" transform="matrix(32.43069 -6.00051 9.34514 50.50723 .6 54.5)"/></g></svg>