<svg xmlns="http://www.w3.org/2000/svg" width="300" height="300"><g filter="blur(12px)"><rect width="200%" height="200%" x="-50%" y="-50%" fill="#879392"/><rect width="100%" height="100%" fill="#879392"/><circle r="1" fill="#fbffff" fill-opacity=".5" transform="matrix(-53.43672 196.6798 -265.0535 -72.01344 171.2 180)"/><circle r="1" fill="#70807f" fill-opacity=".5" transform="matrix(-4.1369 -61.43984 22.12912 -1.49 130.9 117)"/><path fill="#e6f8fa" fill-opacity=".5" d="m318.2 232.6-119.6 85.6 73.9-293z"/><circle r="1" fill="#e6fbf8" fill-opacity=".5" transform="matrix(-26.65008 19.00932 -44.77731 -62.77548 147.3 33.4)"/><circle r="1" fill="#d5f2f2" fill-opacity=".5" transform="matrix(49.2899 29.04581 -54.72571 92.86796 22.6 73.4)"/><circle r="1" fill="#8ea283" fill-opacity=".5" transform="rotate(-21 655.8 36.8)scale(67.60311 17.04581)"/><circle r="1" fill="#718488" fill-opacity=".5" transform="rotate(61.5 -166.7 252.3)scale(44.67751 12.43272)"/><circle r="1" fill="#63747a" fill-opacity=".5" transform="matrix(9.12875 5.14379 -12.1012 21.47616 75.8 134)"/></g></svg>