<svg xmlns="http://www.w3.org/2000/svg" width="300" height="300"><g filter="blur(12px)"><rect width="200%" height="200%" x="-50%" y="-50%" fill="#7180a0"/><rect width="100%" height="100%" fill="#7180a0"/><g fill-opacity=".5" transform="translate(.6 .6)scale(1.17188)"><circle r="1" fill="#ecf6ec" transform="rotate(26.4 -177.8 325.2)scale(188.77539 191.18497)"/><circle r="1" fill="#466d29" transform="matrix(-2.0991 13.55343 -22.00056 -3.40734 1.6 222.6)"/><circle r="1" fill="#6f8c64" transform="matrix(-17.9196 11.06737 -17.20787 -27.86191 104.4 0)"/><path fill="#68864f" d="m161.2 128.3 51.8-14.8-40 40.2-17.7-13.6z"/><circle r="1" fill="#e0e6ef" transform="matrix(14.90965 62.65762 -16.08536 3.82758 107.8 187.2)"/><circle r="1" fill="#eeeff6" transform="matrix(2.0893 -26.78048 19.5516 1.52534 137.3 58.5)"/><ellipse cx="70" cy="34" fill="#ebebf9" rx="10" ry="80"/><path fill="#cdded2" d="m271 68-56 136 31 67z"/></g></g></svg>