<svg xmlns="http://www.w3.org/2000/svg" width="300" height="300"><g filter="blur(12px)"><rect width="200%" height="200%" x="-50%" y="-50%" fill="#84ac62"/><rect width="100%" height="100%" fill="#84ac62"/><g fill-opacity=".5" transform="translate(.6 .6)scale(1.17188)"><circle r="1" fill="#f5eaff" transform="matrix(53.7015 160.60534 -241.83897 80.86355 154.3 115.6)"/><path fill="#50734f" d="m236.1 172.4-30.6 12.4-29.6-73.2 30.6-12.4z"/><circle cx="127" cy="179" r="50" fill="#dfecf4"/><path fill="#586c66" d="m62.6 126.7-20.9 14.6 9.6 69.3 39.1-59.4z"/><ellipse cx="9" cy="65" fill="#597b4a" rx="25" ry="28"/><circle r="1" fill="#d2dfe5" transform="rotate(152.6 29 42.5)scale(30.52973 184.27079)"/><circle r="1" fill="#dde8ec" transform="matrix(72.46858 -9.33536 5.55214 43.10012 241.3 27.1)"/><path fill="#f1ffff" d="m60.5 270.6-84-87 23-22.2 84 87z"/></g></g></svg>