<svg xmlns="http://www.w3.org/2000/svg" width="300" height="300"><g filter="blur(12px)"><rect width="200%" height="200%" x="-50%" y="-50%" fill="#629c6f"/><rect width="100%" height="100%" fill="#629c6f"/><g fill-opacity=".5" transform="translate(.6 .6)scale(1.17188)"><circle r="1" fill="#ffc5c7" transform="matrix(188.67934 -171.53748 98.6036 108.45712 107.4 116)"/><circle r="1" fill="#0b1e01" transform="rotate(105.6 33 200.6)scale(29.71677 21.88116)"/><ellipse cx="173" cy="72" fill="#fef3fb" rx="80" ry="18"/><circle r="1" fill="#fffec6" transform="matrix(-13.02268 4.528 -11.45177 -32.93565 200.5 230.7)"/><path fill="#fff9e7" d="m262 126-47 49-43-63z"/><circle r="1" fill="#6c406e" transform="matrix(53.95375 -34.24944 6.86007 10.8068 156.6 206.9)"/><path fill="#001f00" d="M123 0h38v13h-38z"/><circle r="1" fill="#001700" transform="matrix(-5.99153 -15.36582 12.1379 -4.73288 219.3 0)"/></g></g></svg>