<svg xmlns="http://www.w3.org/2000/svg" width="300" height="300"><g filter="blur(12px)"><rect width="200%" height="200%" x="-50%" y="-50%" fill="#a48652"/><rect width="100%" height="100%" fill="#a48652"/><g fill-opacity=".5" transform="translate(.6 .6)scale(1.17188)"><circle r="1" fill="#e3a39b" transform="matrix(-38.53407 -250.71148 166.58763 -25.60433 105.7 116.8)"/><circle r="1" fill="#4b32c9" transform="matrix(36.32006 48.37378 -20.50934 15.39885 152.9 239.5)"/><ellipse cx="43" cy="164" fill="#5025a8" rx="33" ry="34"/><circle r="1" fill="#f5be27" transform="matrix(-251.03979 6.5737 -.7916 -30.22974 162.9 37.9)"/><circle r="1" fill="#7862b9" transform="rotate(79.1 25 146.8)scale(22.84598 60.6393)"/><circle r="1" fill="#b3aee9" transform="rotate(-12.3 829 -745.8)scale(49.00769 25.21197)"/><circle r="1" fill="#f6c100" transform="rotate(-10.4 1204.3 -887.3)scale(19.22112 29.44902)"/><circle r="1" fill="#ffa430" transform="matrix(16.77681 -10.36684 44.97222 72.77918 76.6 117.5)"/></g></g></svg>