<svg xmlns="http://www.w3.org/2000/svg" width="300" height="300"><g filter="blur(12px)"><rect width="200%" height="200%" x="-50%" y="-50%" fill="#5380ac"/><rect width="100%" height="100%" fill="#5380ac"/><g fill-opacity=".5" transform="translate(.6 .6)scale(1.17188)"><circle r="1" fill="#802400" transform="matrix(167.41036 46.3115 -65.112 235.37184 99.3 140.9)"/><circle r="1" fill="#ffffca" transform="matrix(4.0131 -12.1345 43.61244 14.42344 205 173.6)"/><circle r="1" fill="#180500" transform="matrix(37.91324 -5.45217 13.36301 92.92348 236.1 40.2)"/><circle r="1" fill="#c4a79a" transform="matrix(60.0752 44.3063 -21.02257 28.50463 153.1 85.6)"/><ellipse cx="58" cy="100" fill="#180500" rx="23" ry="114"/><circle r="1" fill="#caa9ba" transform="rotate(159.1 26.6 114.8)scale(55.598 12.08331)"/><path fill="#cdddcf" d="m104 81-26-2 11 89z"/><path fill="#bcffff" d="m172.7 228.7 4.1 19.6-23.5 5-4.1-19.6z"/></g></g></svg>