<svg xmlns="http://www.w3.org/2000/svg" width="300" height="300"><g filter="blur(12px)"><rect width="200%" height="200%" x="-50%" y="-50%" fill="#8998b4"/><rect width="100%" height="100%" fill="#8998b4"/><circle r="1" fill="#ffecfe" fill-opacity=".5" transform="matrix(9.81385 248.8095 -192.79354 7.6044 152.8 149.8)"/><circle r="1" fill="#dec3da" fill-opacity=".5" transform="matrix(289.14499 52.49932 -27.7131 152.63257 153.5 141.8)"/><circle r="1" fill="#b4a8b9" fill-opacity=".5" transform="matrix(33.05325 26.29174 -19.08688 23.9955 68.7 168)"/><path fill="#e4d9f9" fill-opacity=".5" d="m268.1 201 71.2 33.3-55.5 119-71.1-33.3z"/><circle r="1" fill="#e2cfff" fill-opacity=".5" transform="matrix(31.17842 .76198 -1.67868 68.68742 149 10.6)"/><circle r="1" fill="#c1b1c1" fill-opacity=".5" transform="rotate(-41 324.6 -144.7)scale(26.87419 91.21782)"/><circle r="1" fill="#f1ecf2" fill-opacity=".5" transform="matrix(34.91285 -30.59162 9.05889 10.3385 223 96.9)"/><path fill="#d8beff" fill-opacity=".5" d="m282.3 178.6-34-64.2 68.2-36.3 34.1 64.1z"/></g></svg>