<svg xmlns="http://www.w3.org/2000/svg" width="300" height="300"><g filter="blur(12px)"><rect width="200%" height="200%" x="-50%" y="-50%" fill="#8e845c"/><rect width="100%" height="100%" fill="#8e845c"/><circle r="1" fill="#d2c07f" fill-opacity=".5" transform="rotate(-53.1 230 -82.2)scale(213.50289 260.04739)"/><path fill="#fffcd4" fill-opacity=".5" d="m143.6 213.9 100.7-1.2-25.7 43.4z"/><circle r="1" fill="#ffe0ae" fill-opacity=".5" transform="matrix(30.55754 4.34898 -5.56317 39.08886 111.7 132.4)"/><circle r="1" fill="#335125" fill-opacity=".5" transform="matrix(36.16764 -3.18161 .94582 10.75184 158.8 253.4)"/><circle r="1" fill="#ffe8c1" fill-opacity=".5" transform="rotate(1.3 -6603 11902.3)scale(34.9425 14.92133)"/><circle r="1" fill="#6e7747" fill-opacity=".5" transform="matrix(-11.65612 70.77645 -18.28304 -3.01102 153.1 196)"/><circle r="1" fill="#716c3d" fill-opacity=".5" transform="matrix(13.48392 -22.85373 30.98719 18.28275 267 254)"/><circle r="1" fill="#ffedd0" fill-opacity=".5" transform="rotate(-138.2 9.9 -3.4)scale(32.34988 19.51262)"/></g></svg>