<svg xmlns="http://www.w3.org/2000/svg" width="300" height="300"><g filter="blur(12px)"><rect width="200%" height="200%" x="-50%" y="-50%" fill="#6b7d9f"/><rect width="100%" height="100%" fill="#6b7d9f"/><g fill-opacity=".5" transform="translate(.6 .6)scale(1.17188)"><circle r="1" fill="#fff" transform="matrix(19.99628 -178.41882 215.28292 24.12782 127.4 124)"/><circle cx="162" cy="167" r="239" fill="#f8f5ff"/><path fill="#a5b1c9" d="m-29.5 177.6 18.9-38.6 52 25.4L22.7 203z"/><circle r="1" fill="#a7b2c9" transform="matrix(7.78311 -12.31167 21.60875 13.66048 76 83.6)"/><ellipse cx="143" cy="214" fill="#e9e8f2" rx="97" ry="35"/><circle r="1" fill="#ebedf5" transform="matrix(-22.41711 19.40313 -43.31897 -50.04793 29 99)"/><circle r="1" fill="#abb6cc" transform="matrix(23.36787 -13.65508 6.69386 11.45517 227.7 122)"/><circle r="1" fill="#c7bed4" transform="matrix(-34.90914 23.8134 -11.67944 -17.12142 115.4 34.2)"/></g></g></svg>