<svg xmlns="http://www.w3.org/2000/svg" width="300" height="300"><g filter="blur(12px)"><rect width="200%" height="200%" x="-50%" y="-50%" fill="#8ead6a"/><rect width="100%" height="100%" fill="#8ead6a"/><circle r="1" fill="#fff" fill-opacity=".5" transform="matrix(192.27223 5.9812 -9.14886 294.10027 168 178.3)"/><circle r="1" fill="#e4efff" fill-opacity=".5" transform="matrix(103.03967 160.34925 -201.21198 129.29786 162 168.1)"/><path fill="#466a27" fill-opacity=".5" d="m79 134.3-20.5 5.5-9.7-36.2L69.2 98z"/><circle r="1" fill="#496825" fill-opacity=".5" transform="matrix(13.70874 2.82665 -2.67111 12.95442 172.3 135.2)"/><circle r="1" fill="#849b6e" fill-opacity=".5" transform="matrix(-7.3643 14.93549 -39.28756 -19.3717 159.5 10.2)"/><circle r="1" fill="#fff" fill-opacity=".5" transform="matrix(-48.83776 -70.70581 25.15017 -17.37167 250.6 40.4)"/><circle r="1" fill="#faffff" fill-opacity=".5" transform="matrix(183.0448 65.83163 -8.5342 23.72934 71 262.6)"/><path fill="#a9bbbc" fill-opacity=".5" d="M229.1 176.4h52.7v98.4h-52.7z"/></g></svg>