<svg xmlns="http://www.w3.org/2000/svg" width="300" height="300"><g filter="blur(12px)"><rect width="200%" height="200%" x="-50%" y="-50%" fill="#747fa0"/><rect width="100%" height="100%" fill="#747fa0"/><g fill-opacity=".5" transform="translate(.6 .6)scale(1.17188)"><circle r="1" fill="#fff" transform="matrix(59.7163 162.30416 -202.77305 74.60595 129.7 119)"/><circle r="1" fill="#e5d5e3" transform="matrix(12.22966 -74.20013 149.46341 24.63455 169.5 173)"/><circle r="1" fill="#fff" transform="matrix(-1.56671 16.98165 -21.468 -1.98062 138 201.7)"/><ellipse cy="41" fill="#e2cddb" rx="38" ry="120"/><circle r="1" fill="#818bac" transform="matrix(5.35924 .4783 -5.83752 65.40813 191.3 241.5)"/><circle r="1" fill="#e5cfdb" transform="rotate(-85.1 114.2 -96.4)scale(126.038 20.17334)"/><circle r="1" fill="#aca2b9" transform="matrix(-75.7673 -10.10952 1.83846 -13.77862 23.8 183)"/><circle r="1" fill="#a19cb7" transform="rotate(-135.8 83 15)scale(12.65072 54.34783)"/></g></g></svg>