<svg xmlns="http://www.w3.org/2000/svg" width="300" height="300"><g filter="blur(12px)"><rect width="200%" height="200%" x="-50%" y="-50%" fill="#a2766c"/><rect width="100%" height="100%" fill="#a2766c"/><g fill-opacity=".5" transform="translate(.6 .6)scale(1.17188)"><ellipse cx="104" cy="175" fill="#f6eac7" rx="160" ry="255"/><circle r="1" fill="#503d2e" transform="rotate(17.8 -244.1 313.5)scale(17.27448 44.46174)"/><circle r="1" fill="#453022" transform="matrix(-6.35825 40.77389 -9.29334 -1.4492 153.7 107.2)"/><path fill="#60523d" d="m112 263-40-34 30-36z"/><path fill="#614d3b" d="m90.4 15.8 16.6 82-13.1 13.4L74.1.8z"/><circle r="1" fill="#e9cdb2" transform="matrix(-16.66028 -83.94526 32.87684 -6.52493 39.4 170.7)"/><path fill="#e1c3b5" d="M106.9 160.2 71.5 81 6.9-16 79 47.4z"/><path fill="#1a230e" d="m150.2 225.5-12-37.1 5.6-1.9 12 37.1z"/></g></g></svg>