<svg xmlns="http://www.w3.org/2000/svg" width="300" height="300"><g filter="blur(12px)"><rect width="200%" height="200%" x="-50%" y="-50%" fill="#b4625f"/><rect width="100%" height="100%" fill="#b4625f"/><path fill="#9ccdf0" fill-opacity=".5" d="m137.7 192.8 11.7 96-134.8-35z"/><path fill="#e7f4ff" fill-opacity=".5" d="m-13.5 78 66.8 8L20.5-16z"/><circle r="1" fill="#98c6ef" fill-opacity=".5" transform="matrix(-23.615 -4.40913 7.26606 -38.91651 271 242.4)"/><path fill="#2988bf" fill-opacity=".5" d="m109 159.3 40.7 29.6-25.5 35-40.7-29.6z"/><path fill="#fff" fill-opacity=".5" d="m267 148.7 16-7 35.2 17-2 17.8z"/><circle r="1" fill="#aba2c4" fill-opacity=".5" transform="matrix(17.69211 9.33801 -23.79887 45.09015 191.4 125.2)"/><path fill="#fff" fill-opacity=".5" d="m44.4 131.7-9.2-28.3L64 125.5l-3.9 11.7z"/><path fill="#531b1d" fill-opacity=".5" d="m191.2 120 14.5-9.8 59 87.4-14.6 9.8z"/></g></svg>