<svg xmlns="http://www.w3.org/2000/svg" width="300" height="300"><g filter="blur(12px)"><rect width="200%" height="200%" x="-50%" y="-50%" fill="#88a56a"/><rect width="100%" height="100%" fill="#88a56a"/><g fill-opacity=".5" transform="translate(.6 .6)scale(1.17188)"><circle r="1" fill="#b6a2d4" transform="matrix(-48.93144 176.09191 -156.19465 -43.4025 139.2 139.4)"/><circle r="1" fill="#525c47" transform="rotate(85.5 -106.7 149.5)scale(31.82058 42.67558)"/><circle r="1" fill="#4f4a50" transform="rotate(173.1 90.6 75.5)scale(40.39117 22.88963)"/><circle r="1" fill="#dfebe8" transform="rotate(45.1 .8 122.4)scale(134.24481 16.40876)"/><circle r="1" fill="#42453e" transform="rotate(73.7 -25.8 54.8)scale(44.85997 11.85731)"/><path fill="#f3fbef" d="m227.2 73 43.3 49.8-25.7 22.3-43.3-49.9z"/><circle r="1" fill="#e0fee6" transform="matrix(37.44697 14.27147 -6.10893 16.02925 62.8 168.3)"/><ellipse cx="255" cy="166" fill="#f9fff2" rx="34" ry="21"/></g></g></svg>