<svg xmlns="http://www.w3.org/2000/svg" width="300" height="300"><g filter="blur(12px)"><rect width="200%" height="200%" x="-50%" y="-50%" fill="#6e8c75"/><rect width="100%" height="100%" fill="#6e8c75"/><g fill-opacity=".5" transform="translate(.6 .6)scale(1.17188)"><ellipse cx="154" cy="119" fill="#996863" rx="224" ry="182"/><circle r="1" fill="#ffdbb8" transform="matrix(16.39277 9.61758 -11.95066 20.3694 35.1 68.7)"/><circle r="1" fill="#2a3332" transform="matrix(42.31284 -19.01615 8.08362 17.98688 75.5 189.6)"/><path fill="#fffcc9" d="M164 216.8 142 180l18-10.8 22 36.8z"/><path fill="#ffddac" d="m160 107 16 41-50-28z"/><ellipse cx="236" cy="157" fill="#394541" rx="111" ry="17"/><path fill="#ffc290" d="M189 222h28v31h-28z"/><path fill="#46423f" d="M49.1 72.5 72 90.3l-43.1 55.2L6 127.7z"/></g></g></svg>