<svg xmlns="http://www.w3.org/2000/svg" width="300" height="300"><g filter="blur(12px)"><rect width="200%" height="200%" x="-50%" y="-50%" fill="#7480a2"/><rect width="100%" height="100%" fill="#7480a2"/><g fill-opacity=".5" transform="translate(.6 .6)scale(1.17188)"><circle r="1" fill="#fff" transform="matrix(-199.90428 -46.0399 40.75945 -176.97664 124.5 133.9)"/><circle r="1" fill="#f2e2ee" transform="matrix(-3.52348 168.2091 -233.20931 -4.88504 115 147.6)"/><circle r="1" fill="#797596" transform="matrix(-5.53744 46.4384 -17.22953 -2.0545 113.3 32)"/><circle r="1" fill="#fff" transform="matrix(35.30208 36.42892 -32.32064 31.32088 192 192.3)"/><circle r="1" fill="#fff" transform="matrix(-31.0898 22.83773 -37.4865 -51.0317 45 39.5)"/><circle cx="176" cy="61" r="61" fill="#c1b8c8"/><path fill="#7c7798" d="m-22.6 76.6 28.3-15 16.9 31.8-28.3 15z"/><path fill="#917e99" d="m234 212-5 36 42-27z"/></g></g></svg>