<svg xmlns="http://www.w3.org/2000/svg" width="300" height="300"><g filter="blur(12px)"><rect width="200%" height="200%" x="-50%" y="-50%" fill="#7b9270"/><rect width="100%" height="100%" fill="#7b9270"/><g fill-opacity=".5" transform="translate(.6 .6)scale(1.17188)"><ellipse cx="147" cy="127" fill="#c5d6d9" rx="31" ry="52"/><circle r="1" fill="#294b05" transform="matrix(16.25953 -38.40008 19.71357 8.3472 163.2 220.4)"/><circle r="1" fill="#c6d9db" transform="matrix(19.99252 -11.78887 19.44147 32.97042 113.5 206.9)"/><path fill="#0a3200" d="m209.8 189.8-13.3-36.6 35.7-13 13.3 36.6z"/><ellipse cx="92" cy="11" fill="#dff1fa" rx="34" ry="15"/><circle r="1" fill="#173b00" transform="matrix(-11.75957 12.34877 -15.8688 -15.11166 223.7 232.5)"/><circle r="1" fill="#b7c9ca" transform="matrix(12.1423 32.80256 -24.4495 9.0503 218.2 101.6)"/><circle r="1" fill="#daeaf3" transform="matrix(-17.24364 27.1273 -10.52584 -6.69081 235.7 25.3)"/></g></g></svg>