<svg xmlns="http://www.w3.org/2000/svg" width="300" height="300"><g filter="blur(12px)"><rect width="200%" height="200%" x="-50%" y="-50%" fill="#67896a"/><rect width="100%" height="100%" fill="#67896a"/><g fill-opacity=".5" transform="translate(.6 .6)scale(1.17188)"><circle r="1" fill="#fac5b8" transform="matrix(-98.52412 162.3862 -162.74222 -98.74013 129 140.7)"/><circle r="1" fill="#fff6dc" transform="rotate(-115.4 141 26)scale(14.95599 46.7275)"/><path fill="#001000" d="M28 9.5 25.6-3.2 58-9.5l2.4 12.7z"/><circle r="1" fill="#e5b6a2" transform="matrix(-20.36636 -52.5076 29.46224 -11.42765 107 216.2)"/><ellipse cx="218" cy="176" fill="#645c3e" rx="22" ry="9"/><ellipse cx="196" cy="121" fill="#6a7057" rx="32" ry="10"/><path fill="#6b6234" d="m158.9 161.8-56.2-3.3 25.8 19.9 27-34.9z"/><path fill="#fff1c2" d="m195 194-36-60 11 67z"/></g></g></svg>