<svg xmlns="http://www.w3.org/2000/svg" width="300" height="300"><g filter="blur(12px)"><rect width="200%" height="200%" x="-50%" y="-50%" fill="#ae9a6f"/><rect width="100%" height="100%" fill="#ae9a6f"/><g fill-opacity=".5" transform="translate(.6 .6)scale(1.17188)"><circle r="1" fill="#7b552e" transform="matrix(-188.36777 -30.45427 32.85725 -203.2308 144.2 118.4)"/><circle r="1" fill="#d6cda8" transform="matrix(-7.43345 -8.73768 71.89055 -61.15979 162.2 153.8)"/><ellipse cx="25" cy="119" fill="#7d2400" rx="49" ry="23"/><circle r="1" fill="#793600" transform="matrix(36.4193 42.36158 -17.41653 14.97342 172.2 48.2)"/><path fill="#e2d8b5" d="m81 104.4 23.1 7.7-5.2 55-36.1-8z"/><circle r="1" fill="#e8e4bf" transform="matrix(-14.14893 15.13354 -13.10904 -12.25615 155.7 247.6)"/><circle r="1" fill="#e8dcbb" transform="matrix(-11.97258 22.20359 -11.49664 -6.1992 212.6 15.7)"/><path fill="#e3d5af" d="m65 194 33 54 22-53z"/></g></g></svg>