<svg xmlns="http://www.w3.org/2000/svg" width="300" height="300"><g filter="blur(12px)"><rect width="200%" height="200%" x="-50%" y="-50%" fill="#6c8c74"/><rect width="100%" height="100%" fill="#6c8c74"/><g fill-opacity=".5" transform="translate(.6 .6)scale(1.17188)"><circle r="1" fill="#e5b195" transform="rotate(-12.4 708.4 -481.3)scale(118.16192 255.00001)"/><ellipse cx="224" fill="#e9bba0" rx="131" ry="27"/><path fill="#232c1e" d="m180.7 177.7 4.5 42.7-17.9 2-4.5-42.8z"/><path fill="#3a3623" d="m214.3 204.9-25.8-38.1 23.2-15.7 25.8 38.1z"/><circle r="1" fill="#f2ceb5" transform="matrix(-48.31256 -7.43168 3.49577 -22.72567 95.4 142.2)"/><ellipse cx="50" cy="106" fill="#494d34" rx="22" ry="16"/><circle r="1" fill="#342e20" transform="matrix(17.96462 -5.88193 3.03794 9.2785 33.2 58)"/><path fill="#ffd8bf" d="m152.2 146.7 72.7-39.6 4.5-3.8-2.5 43.9z"/></g></g></svg>