<svg xmlns="http://www.w3.org/2000/svg" width="300" height="300"><g filter="blur(12px)"><rect width="200%" height="200%" x="-50%" y="-50%" fill="#739a7b"/><rect width="100%" height="100%" fill="#739a7b"/><g fill-opacity=".5" transform="translate(.6 .6)scale(1.17188)"><circle r="1" fill="#ceb7a2" transform="matrix(-191.61703 6.32929 -2.00753 -60.77738 134 72.8)"/><circle r="1" fill="#ffd9cf" transform="matrix(-5.19399 -20.32505 49.91685 -12.75606 242.1 227.5)"/><circle r="1" fill="#ffc6d4" transform="matrix(23.96683 -9.58605 16.66363 41.66204 137.9 251.3)"/><path d="m167.8 247 7.8-40.3 22.6 4.4-7.8 40.2z"/><circle cx="159" cy="63" r="28" fill="#4c7b50"/><circle r="1" fill="#edc1d5" transform="rotate(-46.8 164 54.2)scale(10.98581 48.84778)"/><circle r="1" fill="#f9c8b4" transform="matrix(35.60843 -44.59465 14.39964 11.49799 184.7 102.3)"/><ellipse cx="148" cy="172" fill="#ecddcb" rx="35" ry="12"/></g></g></svg>