<svg xmlns="http://www.w3.org/2000/svg" width="300" height="300"><g filter="blur(12px)"><rect width="200%" height="200%" x="-50%" y="-50%" fill="#9d4e58"/><rect width="100%" height="100%" fill="#9d4e58"/><g fill-opacity=".5" transform="translate(.6 .6)scale(1.17188)"><circle r="1" fill="#c6d1b6" transform="matrix(-107.04519 164.20698 -140.93837 -91.87657 152 152.7)"/><circle r="1" fill="#482a24" transform="matrix(19.41653 6.15569 -19.64634 61.9693 133.7 109.3)"/><circle r="1" fill="#5e0d00" transform="matrix(27.63317 4.42612 -3.65888 22.84315 237.9 207.8)"/><path fill="#500" d="m71.9 163.2 8.3-36 42 9.6-8.4 36z"/><circle cx="228" cy="93" r="53" fill="#e6c6bb"/><path fill="#4a0400" d="m1 28 55-2-36 46z"/><path fill="#0a0212" d="m207 38.5-24.6 8.4-9.4-27.4 24.6-8.4z"/><ellipse cx="161" cy="141" fill="#a71f00" rx="38" ry="11"/></g></g></svg>