<svg xmlns="http://www.w3.org/2000/svg" width="300" height="300"><g filter="blur(12px)"><rect width="200%" height="200%" x="-50%" y="-50%" fill="#aa9c75"/><rect width="100%" height="100%" fill="#aa9c75"/><g fill-opacity=".5" transform="translate(.6 .6)scale(1.17188)"><circle r="1" fill="#753808" transform="rotate(-115.1 109.3 36.3)scale(235.78031 60.28439)"/><circle cx="9" cy="255" r="58" fill="#6b2800"/><path fill="#fff" d="m252.1 117.3-37 61.7-17.2-10.3 37-61.7z"/><circle r="1" fill="#763a11" transform="matrix(-49.24798 29.07432 -11.4878 -19.4588 175.6 78.5)"/><circle r="1" fill="#e7e5c6" transform="matrix(-1.62532 18.9224 -21.93955 -1.88447 176.4 123.6)"/><circle r="1" fill="#fff6d2" transform="matrix(9.42834 42.96393 -15.11454 3.31685 9.2 160.6)"/><path fill="#fdffec" d="m148.8 240-11.9 9.2-19.7-25.2 11.9-9.2z"/><path fill="#dad4ae" d="m214 183-36 88h-36z"/></g></g></svg>