<svg xmlns="http://www.w3.org/2000/svg" width="300" height="300"><g filter="blur(12px)"><rect width="200%" height="200%" x="-50%" y="-50%" fill="#7181a3"/><rect width="100%" height="100%" fill="#7181a3"/><g fill-opacity=".5" transform="translate(.6 .6)scale(1.17188)"><circle r="1" fill="#e7efd7" transform="rotate(-1.3 6426 -7047.3)scale(255 154.8835)"/><circle r="1" fill="#6f8a74" transform="matrix(85.69224 71.64893 -17.36766 20.77175 214.7 151.2)"/><path fill="#57783c" d="m217 1.8 2.8 31.8-52.8 4.6-2.8-31.8z"/><ellipse cx="58" cy="171" fill="#617d5f" rx="15" ry="31"/><path fill="#406724" d="m190.8 241.4 9.5-38.8 14.8 6.6-17.3 48.1z"/><circle r="1" fill="#3d6819" transform="rotate(-135.2 31.2 -5.2)scale(23.29127 7.58231)"/><path fill="#fffdff" d="M193.3 26.6 159.2-16h40.1l2.6 31.8z"/><circle r="1" fill="#8bac5b" transform="matrix(-31.10993 -13.38208 9.94798 -23.12652 154.1 149.1)"/></g></g></svg>