<svg xmlns="http://www.w3.org/2000/svg" width="300" height="300"><g filter="blur(12px)"><rect width="200%" height="200%" x="-50%" y="-50%" fill="#6b7b8e"/><rect width="100%" height="100%" fill="#6b7b8e"/><g fill-opacity=".5" transform="translate(.6 .6)scale(1.17188)"><circle r="1" fill="#f8ffee" transform="matrix(107.0285 111.21907 -180.68814 173.88008 168.7 122.5)"/><ellipse cx="83" cy="255" fill="#517a38" rx="32" ry="47"/><path fill="#4d7735" d="m220.7 203.2-1.4-41 42-1.4 1.4 41z"/><path fill="#48742e" d="m188.6 57 23-.6 17.5 8-11.3 44.8z"/><circle r="1" fill="#c4e7ee" transform="rotate(74.4 -23.9 122)scale(116.03744 40.30832)"/><circle r="1" fill="#93b66e" transform="matrix(-24.9207 -38.9674 50.51126 -32.3033 5.3 22.1)"/><circle r="1" fill="#e4edeb" transform="matrix(-5.18146 -15.48576 14.05893 -4.70405 3.5 14.5)"/><circle r="1" fill="#d3e5e1" transform="matrix(-5.90626 -26.55867 111.09038 -24.7049 250 235.7)"/></g></g></svg>