<svg xmlns="http://www.w3.org/2000/svg" width="300" height="300"><g filter="blur(12px)"><rect width="200%" height="200%" x="-50%" y="-50%" fill="#9e834a"/><rect width="100%" height="100%" fill="#9e834a"/><g fill-opacity=".5" transform="translate(.6 .6)scale(1.17188)"><path fill="#fafbee" d="M19.8 118.6 56.3 129l-4.1 14.4L15.7 133z"/><circle r="1" fill="#e3b072" transform="matrix(-15.0153 6.90627 -45.48083 -98.88242 33.1 41.7)"/><circle r="1" fill="#69341b" transform="matrix(23.0812 -24.0781 11.5818 11.1023 65.1 18.2)"/><ellipse cx="243" cy="111" fill="#fcd9a4" rx="33" ry="10"/><circle r="1" fill="#f6fef0" transform="matrix(6.60893 16.97247 -4.2692 1.66239 196.9 34.7)"/><path fill="#212007" d="m112.8 272-15.5-28 21.9-12 15.5 28z"/><circle r="1" fill="#f6c46e" transform="matrix(.56682 -33.45176 8.83797 .14975 139.4 138.6)"/><ellipse cx="106" cy="33" fill="#e1b361" rx="22" ry="30"/></g></g></svg>