<svg xmlns="http://www.w3.org/2000/svg" width="300" height="300"><g filter="blur(12px)"><rect width="200%" height="200%" x="-50%" y="-50%" fill="#89ac63"/><rect width="100%" height="100%" fill="#89ac63"/><g fill-opacity=".5" transform="translate(.6 .6)scale(1.17188)"><circle cx="140" cy="127" r="170" fill="#c3c5ff"/><circle r="1" fill="#4b6d3b" transform="matrix(-17.74736 49.84037 -18.59663 -6.62196 65.3 177.3)"/><circle r="1" fill="#fff" transform="matrix(12.0238 -29.87165 17.65542 7.10658 44.5 48.5)"/><circle r="1" fill="#5f7d51" transform="matrix(8.493 -62.45981 24.38321 3.31552 183.8 210.4)"/><circle r="1" fill="#658560" transform="matrix(58.2981 40.97719 -15.26347 21.71529 197.8 98.6)"/><circle r="1" fill="#e1e7fd" transform="matrix(-16.71237 89.1638 -41.47576 -7.77399 16.5 122.3)"/><circle r="1" fill="#d0daf1" transform="matrix(-32.62765 75.52939 -29.4222 -12.70999 118.8 181.1)"/><path fill="#4d6e42" d="m104 60 25-62-81 66z"/></g></g></svg>