<svg xmlns="http://www.w3.org/2000/svg" width="300" height="300"><g filter="blur(12px)"><rect width="200%" height="200%" x="-50%" y="-50%" fill="#7d8c69"/><rect width="100%" height="100%" fill="#7d8c69"/><g fill-opacity=".5" transform="translate(.6 .6)scale(1.17188)"><circle r="1" fill="#ffe6dd" transform="matrix(37.33128 -153.13908 247.74503 60.39373 131.4 153.3)"/><path fill="#686038" d="m189 241.4-73.9 5.1-2-29.9 73.8-5.1z"/><circle r="1" fill="#efccb7" transform="matrix(-118.98293 125.57509 -24.37242 -23.09298 96.1 166.4)"/><ellipse cx="217" cy="8" fill="#3a3d37" rx="42" ry="11"/><circle r="1" fill="#5b525f" transform="matrix(9.16747 15.57329 -11.35864 6.68645 56.1 112.3)"/><path fill="#444f3c" d="m279.9 206-39.5 37-10.3-11 39.5-36.8z"/><circle r="1" fill="#e4c2be" transform="rotate(32.6 -136.4 385.9)scale(27.66592 98.06025)"/><path fill="#2f3a13" d="M112 100V72L94 99z"/></g></g></svg>