<svg xmlns="http://www.w3.org/2000/svg" width="300" height="300"><g filter="blur(12px)"><rect width="200%" height="200%" x="-50%" y="-50%" fill="#7883a0"/><rect width="100%" height="100%" fill="#7883a0"/><g fill-opacity=".5" transform="translate(.6 .6)scale(1.17188)"><circle r="1" fill="#fff" transform="matrix(204.7685 24.77971 -22.13183 182.88756 138.6 144.5)"/><circle cx="148" cy="133" r="188" fill="#e4d3e4"/><circle r="1" fill="#eae7f3" transform="matrix(-19.28658 -65.1104 40.35783 -11.95454 146.6 0)"/><circle r="1" fill="#bcbbcc" transform="matrix(64.0111 73.77696 -16.94445 14.70152 141.2 101.5)"/><circle r="1" fill="#bdb4c7" transform="matrix(45.35802 -75.62886 14.45208 8.66756 35.9 149.3)"/><path fill="#b4b7cb" d="m147.4 242.5-46.7 32.7-36.1-51.7 46.7-32.7z"/><circle r="1" fill="#edeef4" transform="matrix(-66.63803 13.42561 -1.71891 -8.53181 237.3 213.6)"/><ellipse cx="240" fill="#ebe6f3" rx="19" ry="62"/></g></g></svg>