<svg xmlns="http://www.w3.org/2000/svg" width="300" height="300"><g filter="blur(12px)"><rect width="200%" height="200%" x="-50%" y="-50%" fill="#8bac63"/><rect width="100%" height="100%" fill="#8bac63"/><g fill-opacity=".5" transform="translate(.6 .6)scale(1.17188)"><circle r="1" fill="#d8dbff" transform="rotate(135.2 33.4 107.7)scale(172.41464 82.69411)"/><circle r="1" fill="#092d00" transform="matrix(71.89401 -14.2587 5.37445 27.09863 86.2 104)"/><ellipse cx="140" cy="17" fill="#faf7ff" rx="89" ry="48"/><circle r="1" fill="#001a00" transform="matrix(11.33573 -33.5694 55.84526 18.85785 219.3 220.6)"/><circle r="1" fill="#000c00" transform="matrix(34.1772 -45.29719 13.774 10.39262 26.9 15.8)"/><circle r="1" fill="#eef5ff" transform="rotate(12.1 -727.3 383.3)scale(75.89584 22.40835)"/><circle r="1" fill="#f4f9ff" transform="rotate(-27.7 426.3 -404.3)scale(55.59448 28.99415)"/><circle r="1" fill="#1d4200" transform="matrix(-13.40502 10.89397 -13.83037 -17.01826 20.1 217.2)"/></g></g></svg>