<svg xmlns="http://www.w3.org/2000/svg" width="300" height="300"><g filter="blur(12px)"><rect width="200%" height="200%" x="-50%" y="-50%" fill="#b1627a"/><rect width="100%" height="100%" fill="#b1627a"/><g fill-opacity=".5" transform="translate(.6 .6)scale(1.17188)"><ellipse cx="142" cy="173" fill="#eaaf1e" rx="150" ry="255"/><path fill="#1700c2" d="m33.6 186-8.1 18.5 30.3 21.3-9.8-52z"/><circle r="1" fill="#6a2762" transform="matrix(-25.3043 -3.6915 4.09376 -28.06168 21.6 49.6)"/><circle r="1" fill="#0000f0" transform="rotate(1.2 -11004.3 4915.3)scale(5.45073 13.47877)"/><circle r="1" fill="#e27923" transform="matrix(9.19629 -29.98208 121.35788 37.22364 55.8 2)"/><circle r="1" fill="#dd6925" transform="rotate(47.8 74 270.7)scale(56.24687 22.46695)"/><circle r="1" fill="#ebc55f" transform="matrix(19.32824 37.5338 -11.9732 6.16567 228.3 114.7)"/><ellipse cx="9" cy="231" fill="#d4b369" rx="26" ry="75"/></g></g></svg>