<svg xmlns="http://www.w3.org/2000/svg" width="300" height="300"><g filter="blur(12px)"><rect width="200%" height="200%" x="-50%" y="-50%" fill="#aa7aa4"/><rect width="100%" height="100%" fill="#aa7aa4"/><g fill-opacity=".5" transform="translate(.6 .6)scale(1.17188)"><circle r="1" fill="#ffff80" transform="matrix(87.12176 118.9546 -205.72528 150.6722 94.5 153)"/><path fill="#8a7a69" d="m64.8 130.7 136.8-11.8-58.6 29.9-112.1-11.3z"/><path fill="#875094" d="m222.9 122.3-14.5-18.9 21.8-10.9 29.6 22.2z"/><path fill="#495425" d="m115 157-50 18 25-21z"/><path fill="#b3a5a4" d="m271 207-21 64-125-49z"/><ellipse cx="55" cy="104" fill="#e8eee0" rx="26" ry="14"/><circle r="1" fill="#9958b0" transform="matrix(-18.09703 9.98197 -5.28166 -9.5755 35.5 23)"/><path fill="#d7f1ee" d="m237.4 218.7-74.7 9.1 33.7-30.5 4.2 10.8z"/></g></g></svg>