<svg xmlns="http://www.w3.org/2000/svg" width="300" height="300"><g filter="blur(12px)"><rect width="200%" height="200%" x="-50%" y="-50%" fill="#a18c4e"/><rect width="100%" height="100%" fill="#a18c4e"/><g fill-opacity=".5" transform="translate(.6 .6)scale(1.17188)"><circle r="1" fill="#d8d8ff" transform="matrix(-113.4677 187.69998 -167.12966 -101.0326 95.4 144)"/><circle r="1" fill="#fff" transform="matrix(33.1591 9.4064 -13.4318 47.34925 96.4 244.6)"/><ellipse cx="87" cy="165" fill="#535b54" rx="34" ry="26"/><circle cx="178" cy="172" r="43" fill="#fff2e0"/><circle r="1" fill="#fff" transform="matrix(14.00407 44.95906 -16.79802 5.23233 239.1 68.2)"/><path fill="#51545d" d="M62 122 57-16 4 32z"/><path fill="#fff" d="M26.7 158 13 98.5 41.3 92 55 151.5z"/><circle r="1" fill="#66534f" transform="matrix(20.86574 1.42248 -2.8739 42.1559 243 199.5)"/></g></g></svg>