<svg xmlns="http://www.w3.org/2000/svg" width="300" height="300"><g filter="blur(12px)"><rect width="200%" height="200%" x="-50%" y="-50%" fill="#925a58"/><rect width="100%" height="100%" fill="#925a58"/><g fill-opacity=".5" transform="translate(.6 .6)scale(1.17188)"><circle r="1" fill="#ffc92d" transform="matrix(-5.32365 24.95055 -95.25965 -20.32535 61 248)"/><path fill="#e2a238" d="M35 20 271-2 108 86z"/><circle cx="128" cy="146" r="48" fill="#5f2e9a"/><circle r="1" fill="#0000d9" transform="matrix(12.11488 15.23049 -24.34621 19.36585 181.1 254.7)"/><circle r="1" fill="#ff970c" transform="matrix(48.42481 -9.32515 2.52568 13.11568 217.3 165.3)"/><circle r="1" fill="#ffbe4d" transform="matrix(-13.07815 10.78113 -18.36229 -22.27454 69.7 174.8)"/><circle r="1" fill="#290bba" transform="matrix(-28.19243 -5.52948 2.90473 -14.80995 20.2 175.3)"/><path fill="#4e269e" d="M152 38h37v48h-37z"/></g></g></svg>