<svg xmlns="http://www.w3.org/2000/svg" width="300" height="300"><g filter="blur(12px)"><rect width="200%" height="200%" x="-50%" y="-50%" fill="#908ca8"/><rect width="100%" height="100%" fill="#908ca8"/><g fill-opacity=".5" transform="translate(.6 .6)scale(1.17188)"><circle r="1" fill="#9b2b00" transform="matrix(-49.94823 -133.2178 238.76892 -89.5232 123.8 137.2)"/><ellipse cx="205" cy="134" rx="25" ry="50"/><circle cx="42" cy="201" r="26" fill="#fff"/><circle r="1" fill="#300" transform="matrix(23.7142 31.17252 -18.118 13.7831 137.5 30.2)"/><circle r="1" fill="#00000a" transform="matrix(18.85744 -7.734 13.66875 33.32786 95.3 236.3)"/><circle r="1" fill="#3f86b0" transform="matrix(-4.30453 -31.73929 41.5337 -5.63287 27.6 156)"/><path fill="#c8dae7" d="m89 26.8 29.4 19L89 91.3l-29.4-19z"/><path fill="#fff" d="m64.6 11.2-4.2 19.6-47-10 4.2-19.6z"/></g></g></svg>