<svg xmlns="http://www.w3.org/2000/svg" width="300" height="300"><g filter="blur(12px)"><rect width="200%" height="200%" x="-50%" y="-50%" fill="#965253"/><rect width="100%" height="100%" fill="#965253"/><g fill-opacity=".5" transform="translate(.6 .6)scale(1.17188)"><circle r="1" fill="#ffa998" transform="matrix(-147.24004 129.80955 -133.13387 -151.01073 147.8 138.6)"/><circle r="1" fill="#9f4438" transform="matrix(19.66322 -89.43344 33.27264 7.31546 214.9 209.5)"/><ellipse cx="11" cy="4" fill="#00b9ff" rx="22" ry="26"/><circle r="1" fill="#ffbdb5" transform="matrix(-26.59374 12.89232 -26.9624 -55.6169 31.7 103.6)"/><circle r="1" fill="#009afb" transform="rotate(131 84.5 113.5)scale(16.54248 10.87713)"/><circle r="1" fill="#882e30" transform="rotate(-126.8 91 -34.7)scale(17.66066 75.90456)"/><circle r="1" fill="#ffb6a5" transform="matrix(-55.72452 -34.28196 13.42906 -21.82862 122 85.1)"/><circle r="1" fill="#962320" transform="matrix(-11.24142 9.366 -31.24735 -37.50423 19.5 165)"/></g></g></svg>