<svg xmlns="http://www.w3.org/2000/svg" width="300" height="300"><g filter="blur(12px)"><rect width="200%" height="200%" x="-50%" y="-50%" fill="#a4905d"/><rect width="100%" height="100%" fill="#a4905d"/><g fill-opacity=".5" transform="translate(.6 .6)scale(1.17188)"><circle r="1" fill="#e1cac4" transform="matrix(-245.0684 -8.19878 5.47345 -163.60588 150 112.1)"/><circle r="1" fill="#5d5d3b" transform="rotate(-111.4 96.5 57.2)scale(23.06661 46.2712)"/><path fill="#515944" d="m132 128.6-7.4-42.3 39.4-7 7.4 42.4z"/><path fill="#585322" d="M215.1 222.7 150.2 233l50.5-35.8 21.1 13.2z"/><circle r="1" fill="#ffd0bc" transform="matrix(-4.49821 -28.22404 37.9357 -6.04601 139 48.5)"/><circle cx="224" cy="82" r="25" fill="#ffd8ba"/><path fill="#595738" d="m16.3 180.8 84.5-24.4-53.2-29.1 21.3 43.4z"/><path fill="#54512c" d="m10.9 152.9 33-37.9 9.6 3.4-38 36.8z"/></g></g></svg>