<svg xmlns="http://www.w3.org/2000/svg" width="300" height="300"><g filter="blur(12px)"><rect width="200%" height="200%" x="-50%" y="-50%" fill="#984e5f"/><rect width="100%" height="100%" fill="#984e5f"/><g fill-opacity=".5" transform="translate(.6 .6)scale(1.17188)"><circle r="1" fill="#ffa50d" transform="matrix(-118.81504 -181.56842 122.09038 -79.8937 132.2 118.7)"/><ellipse cx="196" cy="136" fill="#ffd25a" rx="23" ry="69"/><path fill="#601b72" d="m168.2 143.9-37.4-6.6 9-51.2 37.4 6.6z"/><circle r="1" fill="#4f167a" transform="rotate(-111.3 114 77.1)scale(14.49128 31.00053)"/><circle r="1" fill="#ffde68" transform="matrix(8.4642 19.34363 -67.88639 29.70506 243.8 71.3)"/><ellipse cx="42" cy="138" fill="#5f1671" rx="37" ry="13"/><path fill="#5c1671" d="M-6.8 182.4 52 165.6l6.9 24L0 206.4z"/><path fill="#ffff7f" d="m135.8 204.8.6 42.7-27 23.5 7-73.9z"/></g></g></svg>