<svg xmlns="http://www.w3.org/2000/svg" width="300" height="300"><g filter="blur(12px)"><rect width="200%" height="200%" x="-50%" y="-50%" fill="#a88c60"/><rect width="100%" height="100%" fill="#a88c60"/><g fill-opacity=".5" transform="translate(.6 .6)scale(1.17188)"><circle r="1" fill="#4e8c87" transform="matrix(-86.20487 -219.96891 225.26694 -88.28115 139.4 199)"/><path fill="#ffdf8e" d="m110.2 142.3 33-.6.6 40-33 .6z"/><ellipse cx="187" cy="2" fill="#ffd1a1" rx="29" ry="24"/><circle r="1" fill="#1d3a2a" transform="rotate(-175.9 53 105.8)scale(14.67106 30.64498)"/><ellipse cx="153" cy="80" fill="#ffc188" rx="29" ry="17"/><circle r="1" fill="#f89989" transform="matrix(5.04235 17.7013 -21.16117 6.02792 214 119.8)"/><circle r="1" fill="#e5a79f" transform="matrix(-14.43835 -11.4437 17.95953 -22.65929 76 179.9)"/><circle r="1" fill="#a4b9a3" transform="rotate(11.1 -834.2 937)scale(35.32922 18.75444)"/></g></g></svg>