<svg xmlns="http://www.w3.org/2000/svg" width="300" height="300"><g filter="blur(12px)"><rect width="200%" height="200%" x="-50%" y="-50%" fill="#a47ea2"/><rect width="100%" height="100%" fill="#a47ea2"/><g fill-opacity=".5" transform="translate(.6 .6)scale(1.17188)"><circle r="1" fill="#55672d" transform="matrix(8.76691 79.995 -58.16975 6.37501 38.8 219.5)"/><circle r="1" fill="#334a00" transform="matrix(22.1181 23.15906 -22.62922 21.61207 227.7 125.9)"/><circle cx="166" cy="84" r="157" fill="#bdbc83"/><path fill="#4c5608" d="m214.4 173.5-25.7-9.8 21.9 82.7 60.4 5.2z"/><path d="m196 104 45-10-28 71zM86 126l33 20-22-58z"/><circle r="1" fill="#000400" transform="matrix(-5.09162 -7.60314 43.63249 -29.21952 9.5 165.1)"/><path fill="#000100" d="m31.8 60.4 11.7 36.5-35.3-5.4 11.1-13z"/></g></g></svg>