<svg xmlns="http://www.w3.org/2000/svg" width="300" height="300"><g filter="blur(12px)"><rect width="200%" height="200%" x="-50%" y="-50%" fill="#7983a4"/><rect width="100%" height="100%" fill="#7983a4"/><g fill-opacity=".5" transform="translate(.6 .6)scale(1.17188)"><circle cx="90" cy="135" r="221" fill="#fff"/><circle r="1" fill="#e4d8e4" transform="matrix(183.6549 -157.4113 114.87454 134.02643 129 86.3)"/><circle r="1" fill="#aaaec9" transform="matrix(11.1946 1.4183 -5.69 44.91094 174.5 40.1)"/><path fill="#fbfeff" d="m187.6 68.7 4.7-12.2 54.1 20.8-4.7 12.2z"/><path fill="#afb0c6" d="m126 264 24-91 22 15z"/><path fill="#8f99b7" d="M102 47h12v26h-12z"/><circle r="1" fill="#e8e2e9" transform="rotate(-14.8 633.8 -810.4)scale(13.4485 44.55357)"/><path fill="#99a0bf" d="m54.8 41.3 3.5-17.9 8-32.5 8 26.9z"/></g></g></svg>