<svg xmlns="http://www.w3.org/2000/svg" width="300" height="300"><g filter="blur(12px)"><rect width="200%" height="200%" x="-50%" y="-50%" fill="#a58854"/><rect width="100%" height="100%" fill="#a58854"/><g fill-opacity=".5" transform="translate(.6 .6)scale(1.17188)"><circle r="1" fill="#bda49b" transform="matrix(99.80468 119.14256 -187.48053 157.0508 87 111.3)"/><circle cx="104" cy="146" r="74" fill="#918059"/><circle r="1" fill="#ffd3ba" transform="rotate(-128.5 54 86)scale(35.71303 18.42805)"/><circle r="1" fill="#ffc697" transform="matrix(30.98595 57.3317 -15.3492 8.29576 112.6 31.7)"/><path fill="#3e3b26" d="m1.9 247.2-3.6-28.8 29.8-3.6 3.6 28.8z"/><circle r="1" fill="#d5c2b0" transform="rotate(-65 226 -83)scale(15.48073 59.66134)"/><circle r="1" fill="#7e7e72" transform="rotate(46.3 -157.7 374)scale(46.59858 70.56634)"/><circle r="1" fill="#eec1a1" transform="matrix(13.80749 28.34629 -27.75832 13.5211 67.2 240)"/></g></g></svg>