<svg xmlns="http://www.w3.org/2000/svg" width="300" height="300"><g filter="blur(12px)"><rect width="200%" height="200%" x="-50%" y="-50%" fill="#6e4b95"/><rect width="100%" height="100%" fill="#6e4b95"/><g fill-opacity=".5" transform="translate(.6 .6)scale(1.17188)"><circle r="1" fill="#fffe67" transform="matrix(43.55346 -24.0151 28.5508 51.77934 174.3 188.9)"/><path fill="#e8c283" d="M267 38-8 271 8-4z"/><path fill="#1700c2" d="m271 149-6-74-193 7z"/><circle r="1" fill="#fdd547" transform="rotate(165 110.4 38.7)scale(46.87974 26.72022)"/><circle r="1" fill="#1a00ad" transform="matrix(-37.07383 3.04802 -2.00079 -24.33603 116.2 191.2)"/><circle r="1" fill="#ebb769" transform="matrix(-34.95791 -25.20152 49.63467 -68.85 21 223)"/><ellipse cx="248" cy="207" fill="#ffda60" rx="96" ry="19"/><circle r="1" fill="#8677d5" transform="matrix(-18.80622 -44.68406 32.91552 -13.85318 155.5 102)"/></g></g></svg>