<svg xmlns="http://www.w3.org/2000/svg" width="300" height="300"><g filter="blur(12px)"><rect width="200%" height="200%" x="-50%" y="-50%" fill="#914f58"/><rect width="100%" height="100%" fill="#914f58"/><g fill-opacity=".5" transform="translate(.6 .6)scale(1.17188)"><circle r="1" fill="#e1d1b7" transform="matrix(71.40524 -169.21028 190.97644 80.59037 120.7 139.6)"/><circle r="1" fill="#210000" transform="matrix(-25.95311 6.81344 -1.55623 -5.92783 159.6 182)"/><circle r="1" fill="#860000" transform="rotate(-86.2 48.9 45.7)scale(28.21284 10.53001)"/><circle r="1" fill="#5f110e" transform="rotate(104.7 93 75)scale(31.82282 11.36829)"/><path fill="#a40000" d="m232.7 195.5 6.6 10-26 17-6.6-10z"/><path fill="#5b0000" d="m153.5 155.8-2.8-10.6 33.8-9 2.8 10.6z"/><path fill="#340000" d="m76 158.8-19-1.7 1-12 19 1.8z"/><ellipse cx="148" cy="109" fill="#bfbab9" rx="50" ry="29"/></g></g></svg>