<svg xmlns="http://www.w3.org/2000/svg" width="300" height="300"><g filter="blur(12px)"><rect width="200%" height="200%" x="-50%" y="-50%" fill="#a0555c"/><rect width="100%" height="100%" fill="#a0555c"/><g fill-opacity=".5" transform="translate(.6 .6)scale(1.17188)"><circle r="1" fill="#ffa000" transform="matrix(-156.39786 -77.74676 113.50623 -228.33274 105 134)"/><circle r="1" fill="#6a256c" transform="matrix(17.2769 13.90484 -18.77955 23.33377 197.5 172.4)"/><path fill="#802f5d" d="M210 73 56 98l162 23z"/><circle r="1" fill="#602072" transform="matrix(-33.43967 5.1358 -2.45807 -16.00472 114.6 206.6)"/><circle r="1" fill="#ff7e00" transform="matrix(-7.63507 48.86667 -104.21725 -16.2832 214.6 34.9)"/><circle r="1" fill="#ffcc2d" transform="rotate(2 -7381 3023.4)scale(65.60257 33.3783)"/><ellipse cx="63" cy="178" fill="#ffae00" rx="27" ry="33"/><circle r="1" fill="#ffb712" transform="rotate(43.1 -122.2 180.4)scale(48.05092 22.35453)"/></g></g></svg>