<svg xmlns="http://www.w3.org/2000/svg" width="300" height="300"><g filter="blur(12px)"><rect width="200%" height="200%" x="-50%" y="-50%" fill="#9a6c95"/><rect width="100%" height="100%" fill="#9a6c95"/><g fill-opacity=".5" transform="translate(.6 .6)scale(1.17188)"><circle r="1" fill="#98b987" transform="rotate(-161.1 64.2 38.6)scale(255 169.71768)"/><circle r="1" fill="#faf8eb" transform="matrix(-9.977 -9.13479 28.67806 -31.3221 155.9 102.8)"/><circle r="1" fill="#58574c" transform="matrix(69.97542 -66.92582 10.88642 11.38248 57.5 202.7)"/><circle r="1" fill="#dec4bb" transform="rotate(71.7 -5.7 235.5)scale(56.77092 26.27123)"/><path fill="#4d5621" d="M163 108h26v70h-26z"/><path fill="#f9ddc4" d="m121.5 219.7-51-3 45.1-33.2 70.3 9z"/><ellipse cx="238" cy="77" fill="#606167" rx="24" ry="65"/><path fill="#483d59" d="M52 52.7 6.3 129l-16.3-9.7L35.8 43z"/></g></g></svg>