<svg xmlns="http://www.w3.org/2000/svg" width="300" height="300"><g filter="blur(12px)"><rect width="200%" height="200%" x="-50%" y="-50%" fill="#8aac62"/><rect width="100%" height="100%" fill="#8aac62"/><g fill-opacity=".5" transform="translate(.6 .6)scale(1.17188)"><circle r="1" fill="#e9e3ff" transform="matrix(252.52385 -35.45002 21.53733 153.41854 91 103.2)"/><circle r="1" fill="#315621" transform="matrix(16.37463 28.82457 -16.94406 9.62556 99.9 12.7)"/><ellipse cx="107" cy="116" fill="#e5ecff" rx="77" ry="72"/><ellipse cx="53" cy="206" fill="#2f550e" rx="16" ry="17"/><circle r="1" fill="#dae2ff" transform="rotate(86.8 11.7 215.7)scale(35.48882 70.06405)"/><circle r="1" fill="#687b68" transform="matrix(-48.17469 -44.831 13.9127 -14.95037 162 236.5)"/><path fill="#425f52" d="m162.8 20.2 43.3 30.6-75.8-9.5 6.2-12.9z"/><circle r="1" fill="#dfe9ff" transform="matrix(1.67943 -85.7551 31.72335 .62127 252 81.4)"/></g></g></svg>