<svg xmlns="http://www.w3.org/2000/svg" width="300" height="300"><g filter="blur(12px)"><rect width="200%" height="200%" x="-50%" y="-50%" fill="#637a9e"/><rect width="100%" height="100%" fill="#637a9e"/><g fill-opacity=".5" transform="translate(.6 .6)scale(1.17188)"><circle cx="121" cy="107" r="201" fill="#fff"/><circle r="1" fill="#fffcff" transform="matrix(-129.4117 142.77506 -186.74796 -169.26886 171 158.3)"/><circle r="1" fill="#faf5fe" transform="matrix(-67.37605 9.71256 -4.98686 -34.59382 204.5 211.1)"/><ellipse cx="247" cy="119" fill="#fff" rx="27" ry="38"/><path fill="#919dbb" d="m135.1 238.4-1.3-16.6 17.4-46.9-34.5 27.8z"/><circle r="1" fill="#afaac5" transform="matrix(8.51149 11.79724 -29.6707 21.40685 187.5 144.7)"/><circle r="1" fill="#fcf5ff" transform="rotate(-102.3 34.2 -27.5)scale(34.04114 108.91411)"/><circle r="1" fill="#fffbff" transform="matrix(-9.17109 44.61119 -18.10529 -3.72205 206.7 75.5)"/></g></g></svg>