<svg xmlns="http://www.w3.org/2000/svg" width="300" height="300"><g filter="blur(12px)"><rect width="200%" height="200%" x="-50%" y="-50%" fill="#ae874e"/><rect width="100%" height="100%" fill="#ae874e"/><g fill-opacity=".5" transform="translate(.6 .6)scale(1.17188)"><circle cx="236" cy="84" r="254" fill="#735532"/><circle r="1" fill="#ffd189" transform="matrix(-49.7848 -27.83002 7.2043 -12.8877 30.6 48)"/><path fill="#f8d397" d="m150 128 11-40-90 12z"/><path fill="#fff6c5" d="M24.4 231.4-1 225.9l6.6-31.3 25.4 5.5z"/><circle r="1" fill="#6f1100" transform="matrix(-4.30545 57.8852 -18.32885 -1.36328 161.3 28.5)"/><path fill="#ffcd84" d="m81 98-96 43 15 23z"/><circle r="1" fill="#210000" transform="rotate(-149.8 7.7 2)scale(19.18363 16.59632)"/><circle r="1" fill="#ffd588" transform="matrix(14.76232 -12.19121 8.35455 10.11652 200 213)"/></g></g></svg>