<svg xmlns="http://www.w3.org/2000/svg" width="300" height="300"><g filter="blur(12px)"><rect width="200%" height="200%" x="-50%" y="-50%" fill="#8aac62"/><rect width="100%" height="100%" fill="#8aac62"/><g fill-opacity=".5" transform="translate(.6 .6)scale(1.17188)"><circle r="1" fill="#fff2ff" transform="matrix(129.03743 -160.49019 179.33087 144.18572 139.3 103.2)"/><circle r="1" fill="#c5cff3" transform="matrix(142.71953 153.04795 -186.4952 173.90959 138 222.8)"/><ellipse cx="234" cy="160" fill="#fff" rx="61" ry="40"/><circle r="1" fill="#778b92" transform="rotate(176.9 82.4 52.7)scale(41.50744 25.6182)"/><circle r="1" fill="#fff" transform="matrix(17.83131 -33.67749 44.96915 23.80994 180.8 5.2)"/><circle r="1" fill="#fff" transform="matrix(-26.27127 -20.40613 15.13851 -19.48963 98.9 213.8)"/><circle r="1" fill="#72925f" transform="matrix(-13.29271 -19.35955 13.33282 -9.15463 12 141.7)"/><circle r="1" fill="#fff" transform="matrix(19.84198 -56.44907 13.70131 4.81604 11.5 21)"/></g></g></svg>