<svg xmlns="http://www.w3.org/2000/svg" width="300" height="300"><g filter="blur(12px)"><rect width="200%" height="200%" x="-50%" y="-50%" fill="#7480a1"/><rect width="100%" height="100%" fill="#7480a1"/><g fill-opacity=".5" transform="translate(.6 .6)scale(1.17188)"><circle r="1" fill="#fff" transform="matrix(-37.43258 -167.43778 227.93049 -50.9564 99.8 137.1)"/><circle cx="101" cy="63" r="114" fill="#e8d7e8"/><circle r="1" fill="#fff9ff" transform="matrix(46.73547 7.5184 -4.14805 25.78488 72.1 236.3)"/><circle r="1" fill="#7c7d9d" transform="matrix(.76543 -11.22776 22.75597 1.55135 67.8 50.6)"/><circle r="1" fill="#8e8fad" transform="matrix(9.92474 4.34452 -27.89106 63.71514 127.4 43)"/><circle r="1" fill="#9089a8" transform="matrix(-14.61356 19.3226 -16.35213 -12.36702 145.7 171.5)"/><circle r="1" fill="#fff" transform="matrix(-9.84072 4.01859 -21.06461 -51.58301 102.3 143.8)"/><path fill="#edd9e8" d="M170 137h32v116h-32z"/></g></g></svg>