<svg xmlns="http://www.w3.org/2000/svg" width="300" height="300"><g filter="blur(12px)"><rect width="200%" height="200%" x="-50%" y="-50%" fill="#846c74"/><rect width="100%" height="100%" fill="#846c74"/><g fill-opacity=".5" transform="translate(.6 .6)scale(1.17188)"><circle r="1" fill="#265935" transform="matrix(-30.8361 -71.6006 166.47518 -71.69554 99.9 90.1)"/><circle r="1" fill="#fff3b0" transform="matrix(-45.7248 34.24355 -16.65418 -22.23804 142.2 179.7)"/><circle r="1" fill="#166332" transform="rotate(112.6 66 155.8)scale(52.83403 44.19695)"/><ellipse cx="113" cy="242" fill="#084a1f" rx="52" ry="19"/><path fill="#fff0b6" d="m128 107-21-64 32 39z"/><circle r="1" fill="#04451f" transform="matrix(-31.46384 -13.67433 7.95062 -18.2939 63.1 198.6)"/><path fill="#a57686" d="M227 99.7 99 53.2l12-32.9 127.8 46.5z"/><ellipse cx="7" cy="236" fill="#e5c09f" rx="52" ry="23"/></g></g></svg>