<svg xmlns="http://www.w3.org/2000/svg" width="300" height="300"><g filter="blur(12px)"><rect width="200%" height="200%" x="-50%" y="-50%" fill="#9f7b56"/><rect width="100%" height="100%" fill="#9f7b56"/><g fill-opacity=".5" transform="translate(.6 .6)scale(1.17188)"><circle r="1" fill="#c6c0ae" transform="matrix(149.43828 18.61352 -31.51838 253.04465 114.6 134.4)"/><circle r="1" fill="#323325" transform="matrix(-4.98507 -26.76802 12.45794 -2.32007 143.2 120.5)"/><path fill="#363625" d="m180.8 204.6-2.6-50 23-1.2 2.6 50z"/><ellipse cx="91" cy="174" fill="#303729" rx="12" ry="24"/><path fill="#625c4a" d="m191.4 117 23-20.7 40.2 44.6-23 20.8z"/><ellipse cx="96" cy="8" fill="#f8b89c" rx="102" ry="30"/><circle r="1" fill="#6a6a59" transform="matrix(-4.84817 -20.03282 82.12342 -19.8748 9 72.7)"/><path fill="#474737" d="M192.6 71.7 206 51.8l27.4 18.5L220 90.2z"/></g></g></svg>