<svg xmlns="http://www.w3.org/2000/svg" width="300" height="300"><g filter="blur(12px)"><rect width="200%" height="200%" x="-50%" y="-50%" fill="#796c94"/><rect width="100%" height="100%" fill="#796c94"/><circle r="1" fill="#f3eddd" fill-opacity=".5" transform="matrix(-151.06798 -1.23886 2.10332 -256.48065 171.3 134.2)"/><circle r="1" fill="#292e27" fill-opacity=".5" transform="matrix(3.5455 23.16997 -32.74739 5.01105 226 135.3)"/><circle r="1" fill="#353f28" fill-opacity=".5" transform="matrix(16.84304 -14.84914 25.67817 29.12617 16.7 156.2)"/><circle r="1" fill="#f4e9fd" fill-opacity=".5" transform="matrix(7.5172 -11.9371 63.75765 40.15034 34.3 84.2)"/><path fill="#31352f" fill-opacity=".5" d="m225.6 187-89 46.8 41-51.6z"/><path fill="#3f423c" fill-opacity=".5" d="M223.5 69.6 183 61l-12 18 49.3 18z"/><circle r="1" fill="#eedfe6" fill-opacity=".5" transform="matrix(8.16796 27.9195 -22.03962 6.44778 33.8 217.7)"/><circle r="1" fill="#d1c5de" fill-opacity=".5" transform="rotate(5 -591 938.2)scale(40.09812 155.86787)"/></g></svg>