<svg xmlns="http://www.w3.org/2000/svg" width="300" height="300"><g filter="blur(12px)"><rect width="200%" height="200%" x="-50%" y="-50%" fill="#925a5f"/><rect width="100%" height="100%" fill="#925a5f"/><g fill-opacity=".5" transform="translate(.6 .6)scale(1.17188)"><circle r="1" fill="#e6ffff" transform="matrix(56.267 -7.8077 3.12644 22.53105 196 130.1)"/><circle r="1" fill="#cefeff" transform="matrix(-33.12217 15.79847 -10.40947 -21.8239 45 209.4)"/><ellipse cx="6" cy="118" fill="#fff" rx="56" ry="12"/><circle r="1" fill="#fff" transform="matrix(29.71724 -2.00822 .65714 9.72417 196.5 195.6)"/><circle r="1" fill="#760400" transform="matrix(31.162 -40.1738 14.22744 11.03593 96.3 75.5)"/><circle r="1" fill="#fff" transform="matrix(42.5993 -6.44254 1.58097 10.45368 224 254.4)"/><circle r="1" fill="#fff" transform="matrix(17.56448 -1.24455 .76086 10.73813 99.5 231.8)"/><path fill="#fff" d="m154.1 75-28.6 4.6-3.6-22.7 28.6-4.5z"/></g></g></svg>