<svg xmlns="http://www.w3.org/2000/svg" width="300" height="300"><g filter="blur(12px)"><rect width="200%" height="200%" x="-50%" y="-50%" fill="#73867a"/><rect width="100%" height="100%" fill="#73867a"/><circle r="1" fill="#f9d1d0" fill-opacity=".5" transform="rotate(-78.7 185.9 -14.2)scale(240.09002 228.76312)"/><path fill="#46645c" fill-opacity=".5" d="M231.4 130.7h34v94.9h-34z"/><circle r="1" fill="#ffffe5" fill-opacity=".5" transform="matrix(-16.87658 -16.75917 23.3712 -23.53494 44.1 247.2)"/><circle r="1" fill="#ffae34" fill-opacity=".5" transform="matrix(22.79812 10.72798 -15.88273 33.75252 299 162.3)"/><circle r="1" fill="#fff5f0" fill-opacity=".5" transform="rotate(116.8 54 124.5)scale(19.51086 28.14701)"/><path fill="#274e41" fill-opacity=".5" d="m163.5 115.4-4.7 36.4-30.5-47z"/><path fill="#1c2f33" fill-opacity=".5" d="m260.3 246.6 23.9 43-11.3 6.3-23.9-43z"/><circle r="1" fill="#ffe5a8" fill-opacity=".5" transform="matrix(15.44754 30.16162 -15.49351 7.93514 19.5 166.2)"/></g></svg>