<svg xmlns="http://www.w3.org/2000/svg" width="300" height="300"><g filter="blur(12px)"><rect width="200%" height="200%" x="-50%" y="-50%" fill="#648c6b"/><rect width="100%" height="100%" fill="#648c6b"/><g fill-opacity=".5" transform="translate(.6 .6)scale(1.17188)"><circle cx="164" cy="134" r="195" fill="#dbb7a7"/><circle r="1" fill="#fffff3" transform="matrix(-5.43551 20.6333 -30.29587 -7.98095 48 44.6)"/><circle r="1" fill="#fff" transform="matrix(-2.83962 23.12685 -43.42258 -5.33162 238 255)"/><path fill="#4a6c5b" d="m210 228.4-55.8-42.1 51.7-68.7 56 42.1z"/><circle r="1" fill="#615966" transform="matrix(30.9753 -4.13659 5.93349 44.43072 81.8 218.2)"/><circle r="1" fill="#fff" transform="matrix(-6.84663 14.90896 -20.15414 -9.25536 134.2 185)"/><circle r="1" fill="#e2e5c1" transform="matrix(-67.22009 13.1293 -3.28487 -16.81806 141.4 113)"/><circle r="1" fill="#fffff6" transform="rotate(-163.6 87.2 111.4)scale(25.38167 15.47409)"/></g></g></svg>