<svg xmlns="http://www.w3.org/2000/svg" width="300" height="300"><g filter="blur(12px)"><rect width="200%" height="200%" x="-50%" y="-50%" fill="#8c7859"/><rect width="100%" height="100%" fill="#8c7859"/><g fill-opacity=".5" transform="translate(.6 .6)scale(1.17188)"><circle r="1" fill="#e3c287" transform="matrix(78.76718 76.0894 -161.59991 167.28704 90.1 142.3)"/><circle r="1" fill="#f9f4e5" transform="matrix(1.54954 -19.56083 34.99863 2.77246 255 212.8)"/><ellipse cx="214" cy="76" fill="#90631e" rx="41" ry="32"/><path fill="#323c4d" d="M129 0h90v18h-90z"/><path fill="#fff7a5" d="m207.3 127 .4-23 51 1-.4 23z"/><circle r="1" fill="#ffdb82" transform="rotate(153.7 36.4 23.4)scale(56.41347 16.28546)"/><circle r="1" fill="#1d3b54" transform="rotate(135.3 14.8 109.5)scale(32.84212 7.95979)"/><path fill="#ffe9a4" d="M195.4 42.5 172.6 5.7l-65.3 57.7 11.1-7.5z"/></g></g></svg>