<svg xmlns="http://www.w3.org/2000/svg" width="300" height="300"><g filter="blur(12px)"><rect width="200%" height="200%" x="-50%" y="-50%" fill="#847b81"/><rect width="100%" height="100%" fill="#847b81"/><g fill-opacity=".5" transform="translate(.6 .6)scale(1.17188)"><circle r="1" fill="#d3d7d6" transform="rotate(-124.3 113.5 28.2)scale(142.63692 199.63411)"/><circle r="1" fill="#fee9fe" transform="matrix(44.22787 -35.1376 20.13252 25.3409 156.2 197.7)"/><circle r="1" fill="#ffecff" transform="matrix(17.87203 -18.57179 21.98082 21.15261 247.2 59.5)"/><path fill="#f9e5f8" d="M74 74h57v37H74z"/><path fill="#727572" d="m164 106.8 10.5 32.3L88 167.2 77.5 135z"/><ellipse cx="39" fill="#959a96" rx="118" ry="83"/><path fill="#f3f6f3" d="m222.6 134.7-2.7 42.5-46.7-70.9 52 31.4z"/><circle r="1" fill="#7f827f" transform="matrix(21.5943 -3.7912 7.62015 43.4036 194 246)"/></g></g></svg>