<svg xmlns="http://www.w3.org/2000/svg" width="300" height="300"><g filter="blur(12px)"><rect width="200%" height="200%" x="-50%" y="-50%" fill="#9a7945"/><rect width="100%" height="100%" fill="#9a7945"/><g fill-opacity=".5" transform="translate(.6 .6)scale(1.17188)"><circle cx="68" cy="74" r="205" fill="#cba06d"/><circle r="1" fill="#764307" transform="matrix(4.45569 -18.14031 64.9544 15.95433 64.1 156.6)"/><circle r="1" fill="#8c510c" transform="matrix(1.92162 -18.59512 98.41544 10.17025 188.5 116.2)"/><path fill="#653200" d="m87.8 79 19.1-45.2 31.3 13.3-19.1 45z"/><path fill="#f1efcf" d="m-2.9 159 48.8 5.1-3 28.9-48.8-5.1z"/><circle r="1" fill="#f2c68b" transform="matrix(18.76544 -9.47483 29.04653 57.5283 153.4 39)"/><ellipse cx="245" cy="22" fill="#eac495" rx="50" ry="28"/><circle r="1" fill="#7b2200" transform="matrix(-6.46495 -19.3217 13.59228 -4.54791 28.3 84)"/></g></g></svg>