<svg xmlns="http://www.w3.org/2000/svg" width="300" height="300"><g filter="blur(12px)"><rect width="200%" height="200%" x="-50%" y="-50%" fill="#8e766c"/><rect width="100%" height="100%" fill="#8e766c"/><g fill-opacity=".5" transform="translate(.6 .6)scale(1.17188)"><circle r="1" fill="#ffdea9" transform="matrix(-80.84663 155.74767 -187.81161 -97.49061 132.2 110.2)"/><circle r="1" fill="#ffc38e" transform="rotate(-37.7 207.6 -270.2)scale(104.68361 56.76277)"/><ellipse cx="198" cy="175" fill="#787b71" rx="29" ry="40"/><path fill="#53592e" d="m-10.6 271 62-58.4 17.2-13.8-21 35.8z"/><path fill="#1d300f" d="m111.2 269-32.4-13.1 6-14.9 32.4 13.1z"/><circle cx="255" cy="54" r="95" fill="#ffb583"/><path fill="#486258" d="m66.8 62.3-17.6-20 17.1-29.9 11.9 11.8z"/><path fill="#305d4b" d="m95.6 236.7 29.1-8-15.5-9 .8-7.7z"/></g></g></svg>