<svg xmlns="http://www.w3.org/2000/svg" width="300" height="300"><g filter="blur(12px)"><rect width="200%" height="200%" x="-50%" y="-50%" fill="#a08258"/><rect width="100%" height="100%" fill="#a08258"/><g fill-opacity=".5" transform="translate(.6 .6)scale(1.17188)"><path fill="#260000" d="m1.3 135-42-156.4L62.8-49l42 156.5z"/><path fill="#2f0000" d="M202 61h54v42h-54z"/><circle r="1" fill="#430000" transform="rotate(149.8 46.8 56.8)scale(68.52701 15.45986)"/><ellipse cx="240" cy="223" fill="#420000" rx="26" ry="42"/><circle r="1" fill="#a4d0ff" transform="matrix(14.97156 19.73298 -19.4393 14.74874 175.1 82.7)"/><circle r="1" fill="#cddbff" transform="matrix(-19.64312 -13.39963 12.76407 -18.71142 132.9 119)"/><circle r="1" fill="#a4b4f1" transform="rotate(148.3 -13 112.7)scale(44.36698 17.65254)"/><path fill="#18171d" d="m131.8 6.2 53-26 19.4 39.6-53 26z"/></g></g></svg>