<svg xmlns="http://www.w3.org/2000/svg" width="300" height="300"><g filter="blur(12px)"><rect width="200%" height="200%" x="-50%" y="-50%" fill="#99767c"/><rect width="100%" height="100%" fill="#99767c"/><g fill-opacity=".5" transform="translate(.6 .6)scale(1.17188)"><circle r="1" fill="#ffe7d5" transform="matrix(129.36107 219.75148 -88.85726 52.30759 106.7 109.2)"/><circle r="1" fill="#af3438" transform="matrix(-27.90947 8.0741 -19.0147 -65.72745 124.3 192.5)"/><circle r="1" fill="#bf4539" transform="matrix(-21.28136 -3.02879 25.2037 -177.09046 229.2 98.8)"/><circle r="1" fill="#fff3e3" transform="matrix(44.79025 -68.12136 36.03463 23.69301 67.4 56.8)"/><circle r="1" fill="#fee5d9" transform="matrix(27.8928 .68827 -2.4223 98.16572 165.8 68.7)"/><circle r="1" fill="#671818" transform="matrix(2.07495 -40.50701 21.67542 1.11031 215.8 47.9)"/><circle cx="30" cy="223" r="79" fill="#f0a4a3"/><ellipse cx="21" cy="197" fill="#5a0506" rx="6" ry="35"/></g></g></svg>