<svg xmlns="http://www.w3.org/2000/svg" width="300" height="300"><g filter="blur(12px)"><rect width="200%" height="200%" x="-50%" y="-50%" fill="#a48ab3"/><rect width="100%" height="100%" fill="#a48ab3"/><g fill-opacity=".5" transform="translate(.6 .6)scale(1.17188)"><circle cx="155" cy="152" r="248" fill="#ffffb2"/><circle r="1" fill="#fff7b5" transform="matrix(-5.0785 -117.37921 254.76166 -11.02245 196 190.4)"/><circle r="1" fill="#e24db6" transform="matrix(-33.89669 -.44085 .27444 -21.1013 199 112.8)"/><circle r="1" fill="#ffb9a8" transform="matrix(232.72833 -96.39923 26.09131 62.99 117 12)"/><path fill="#a61994" d="m109.2 184.3 8.1 40.6 20.7-23.8-10.6-17.3z"/><ellipse cx="184" cy="51" fill="#c477b6" rx="49" ry="24"/><path fill="#b9359e" d="M31 32h17v43H31z"/><path fill="#ffffb7" d="m301.4 67-39.8 24.9-53-84.8 39.8-25z"/></g></g></svg>