<svg xmlns="http://www.w3.org/2000/svg" width="300" height="300"><g filter="blur(12px)"><rect width="200%" height="200%" x="-50%" y="-50%" fill="#8ca65c"/><rect width="100%" height="100%" fill="#8ca65c"/><g fill-opacity=".5" transform="translate(.6 .6)scale(1.17188)"><circle r="1" fill="#b3c0f5" transform="matrix(-253.28217 1.3262 -.76268 -145.66007 123 141.5)"/><circle r="1" fill="#324e20" transform="matrix(-5.99504 36.82784 -28.13304 -4.57965 50.1 139)"/><circle r="1" fill="#edf6fe" transform="matrix(-81.6778 22.60748 -8.19085 -29.59245 54.1 227.7)"/><circle r="1" fill="#59773a" transform="rotate(171.3 74 45)scale(22.95169 42.69382)"/><circle r="1" fill="#4e6838" transform="matrix(1.89339 14.00588 -56.40152 7.62466 222.5 86)"/><circle r="1" fill="#365225" transform="matrix(-14.18442 19.30975 -12.78812 -9.3938 106.5 161)"/><ellipse cx="217" cy="192" fill="#e7efff" rx="33" ry="26"/><circle r="1" fill="#4c662c" transform="matrix(43.67453 7.46542 -1.57861 9.23526 166.4 158)"/></g></g></svg>