<svg xmlns="http://www.w3.org/2000/svg" width="300" height="300"><g filter="blur(12px)"><rect width="200%" height="200%" x="-50%" y="-50%" fill="#956472"/><rect width="100%" height="100%" fill="#956472"/><circle r="1" fill="#ffb700" fill-opacity=".5" transform="matrix(-230.51291 -121.79373 101.38859 -191.89312 162 182.7)"/><circle r="1" fill="#401ccb" fill-opacity=".5" transform="matrix(-2.03834 40.4972 -24.0656 -1.21129 250.3 109.9)"/><circle r="1" fill="#f5a422" fill-opacity=".5" transform="rotate(14 -1040.6 855)scale(243.76251 112.92736)"/><circle r="1" fill="#54178d" fill-opacity=".5" transform="rotate(118.5 3 154.2)scale(20.93916 17.72281)"/><path fill="#5548f3" fill-opacity=".5" d="M291.2 161.1h9.4v38.7h-9.4z"/><path fill="#602c7c" fill-opacity=".5" d="m162.4 197.3 17.4-7 10.5 26-17.4 7z"/><path fill="#513b7a" fill-opacity=".5" d="M76.5 254.7 89 237.6l20.9 15.2-12.4 17z"/><path fill="#8e6dd0" fill-opacity=".5" d="m-8.4 298.1-12.9-27.6 30.8-14.3 13 27.6z"/></g></svg>