<svg xmlns="http://www.w3.org/2000/svg" width="300" height="300"><g filter="blur(12px)"><rect width="200%" height="200%" x="-50%" y="-50%" fill="#6f8877"/><rect width="100%" height="100%" fill="#6f8877"/><g fill-opacity=".5" transform="translate(.6 .6)scale(1.17188)"><circle r="1" fill="#cba6a7" transform="matrix(-165.35442 -72.24157 75.579 -172.9935 154.5 131.5)"/><ellipse cx="187" cy="56" fill="#fffada" rx="16" ry="55"/><circle r="1" fill="#000e00" transform="rotate(62.9 -10.3 292.7)scale(17.87743 35.56305)"/><circle r="1" fill="#ffe1ac" transform="matrix(4.86004 14.46202 -57.04393 19.1699 227 142)"/><circle r="1" fill="#ffdcaa" transform="matrix(-19.92583 -14.489 14.59392 -20.07013 118.6 79.7)"/><circle r="1" fill="#242b33" transform="matrix(-27.31933 -12.66557 5.03 -10.84959 129 43.2)"/><path fill="#fffff2" d="m233 202 36-29-19 98z"/><path fill="#fff8c5" d="m204.2 40.4 66.8-3.9L160-3.9l35.7 28.1z"/></g></g></svg>