<svg xmlns="http://www.w3.org/2000/svg" width="300" height="300"><g filter="blur(12px)"><rect width="200%" height="200%" x="-50%" y="-50%" fill="#a6915b"/><rect width="100%" height="100%" fill="#a6915b"/><g fill-opacity=".5" transform="translate(.6 .6)scale(1.17188)"><circle r="1" fill="#000419" transform="matrix(-25.84375 -28.80333 46.69038 -41.89288 217 108)"/><ellipse cx="109" cy="171" rx="23" ry="18"/><path fill="#000001" d="m150 267-54-14 74-39z"/><circle cx="67" cy="87" r="84" fill="#ad9fa6"/><path fill="#ffe9c1" d="m244.5 149.5-13 16.6-48-37.6 13-16.6z"/><circle r="1" fill="#c6bcb8" transform="matrix(119.75522 30.3404 -7.95856 31.41289 233.9 216.9)"/><path d="m220.4 1.2 17.1-15.4 26 29-17 15.4z"/><circle r="1" fill="#c0bac0" transform="matrix(-16.57355 -16.3199 48.27513 -49.02544 183.2 62.1)"/></g></g></svg>