<svg xmlns="http://www.w3.org/2000/svg" width="300" height="300"><g filter="blur(12px)"><rect width="200%" height="200%" x="-50%" y="-50%" fill="#907d42"/><rect width="100%" height="100%" fill="#907d42"/><circle r="1" fill="#612e0b" fill-opacity=".5" transform="matrix(-183.61366 66.30341 -101.49326 -281.0647 165.8 147.9)"/><circle r="1" fill="#ca8c47" fill-opacity=".5" transform="rotate(-113.4 183.2 6.2)scale(69.58362 50.30463)"/><circle r="1" fill="#262815" fill-opacity=".5" transform="matrix(-32.60951 27.06753 -43.71918 -52.67053 136 277.2)"/><path fill="#f6ae4d" fill-opacity=".5" d="m69.7 144.7-87.9 59.8 109-133.6z"/><path fill="#ffc45b" fill-opacity=".5" d="M33.4 75.7 7 60.4 24 31l26.4 15.2z"/><circle r="1" fill="#3f2e13" fill-opacity=".5" transform="matrix(-39.21474 2.22555 -3.91998 -69.07109 175 78.5)"/><circle r="1" fill="#3d2009" fill-opacity=".5" transform="matrix(-11.46825 -26.6887 40.74908 -17.51006 267.8 93)"/><circle r="1" fill="#ffa947" fill-opacity=".5" transform="rotate(155.6 35.9 110.3)scale(12.30986 27.87974)"/></g></svg>