<svg xmlns="http://www.w3.org/2000/svg" width="300" height="300"><g filter="blur(12px)"><rect width="200%" height="200%" x="-50%" y="-50%" fill="#7181a3"/><rect width="100%" height="100%" fill="#7181a3"/><g fill-opacity=".5" transform="translate(.6 .6)scale(1.17188)"><circle cx="158" cy="139" r="209" fill="#f8fcf6"/><path fill="#486d22" d="m111.2 7.5-2.5 39.2 31.3-5.8L78.6 4.7z"/><circle r="1" fill="#e1e5ed" transform="matrix(-35.86906 83.28701 -16.28674 -7.01418 159.4 224)"/><path fill="#41662b" d="m80.4 116.7-16.8 2.4-2-13.8 16.8-2.4z"/><path fill="#204a00" d="m244.1 168 11.9-1.9 1.9 11.9-11.9 1.9z"/><path fill="#164000" d="m150 200-8-18 13 6z"/><path fill="#6b8a54" d="M36-9 18 46 9 31z"/><ellipse cx="245" cy="194" fill="#e0e4ed" rx="62" ry="16"/></g></g></svg>