<svg xmlns="http://www.w3.org/2000/svg" width="300" height="300"><g filter="blur(12px)"><rect width="200%" height="200%" x="-50%" y="-50%" fill="#7582a0"/><rect width="100%" height="100%" fill="#7582a0"/><circle r="1" fill="#eef4f2" fill-opacity=".5" transform="matrix(64.10891 -198.96635 218.64554 70.44974 135.7 142.9)"/><path fill="#214f00" fill-opacity=".5" d="M11.1 28.7h44.6v20H11z"/><path fill="#537634" fill-opacity=".5" d="m105.4 103.7 69.8-30-54.3-45 36.5 86z"/><path fill="#487108" fill-opacity=".5" d="m26.6 52.7-14-1.5 8.8-84 14 1.5z"/><path fill="#476a19" fill-opacity=".5" d="m294 318.2-14.7-18.6.5-29.8-25.7 12.7z"/><circle r="1" fill="#e6e8f4" fill-opacity=".5" transform="matrix(44.48988 34.78534 -13.41134 17.15288 185.1 287.4)"/><path fill="#3b600d" fill-opacity=".5" d="m135.4 100.2 7 18.7 29.3-58.5z"/><path fill="#e2ece4" fill-opacity=".5" d="m91.6 192.7-38 40.6L-.7 96.7l-17.4 127.8z"/></g></svg>