<svg xmlns="http://www.w3.org/2000/svg" width="300" height="300"><g filter="blur(12px)"><rect width="200%" height="200%" x="-50%" y="-50%" fill="#7d83a2"/><rect width="100%" height="100%" fill="#7d83a2"/><g fill-opacity=".5" transform="translate(.6 .6)scale(1.17188)"><ellipse cx="123" cy="114" fill="#fff" rx="177" ry="197"/><circle r="1" fill="#f3e1ee" transform="matrix(188.3315 -171.9193 96.42544 105.63066 81.3 111.1)"/><ellipse cx="193" cy="212" fill="#9189a6" rx="29" ry="21"/><circle r="1" fill="#a8a3b9" transform="matrix(35.16784 4.62993 -2.3074 17.52639 185.3 77.4)"/><path fill="#6d6c91" d="m42.5 116.3 20 16.7-9 10.7-20-16.7z"/><circle r="1" fill="#7a7c9c" transform="matrix(7.98402 -7.19703 9.84272 10.91902 93.2 191.2)"/><circle r="1" fill="#efe4ee" transform="matrix(6.15337 -18.10883 78.65 26.72524 136.9 235.3)"/><path fill="#908fa9" d="M0 82h54v14H0z"/></g></g></svg>