<svg xmlns="http://www.w3.org/2000/svg" width="300" height="300"><g filter="blur(12px)"><rect width="200%" height="200%" x="-50%" y="-50%" fill="#65876f"/><rect width="100%" height="100%" fill="#65876f"/><g fill-opacity=".5" transform="translate(.6 .6)scale(1.17188)"><circle r="1" fill="#ecadcd" transform="matrix(237.58126 -92.62906 51.50282 132.0979 108.5 107)"/><ellipse cx="93" cy="214" fill="#706d79" rx="55" ry="85"/><circle r="1" fill="#d4bcbc" transform="rotate(105.5 33.3 48)scale(42.3705 124.89701)"/><circle r="1" fill="#677370" transform="matrix(-3.0211 25.86557 -45.3856 -5.30103 29.8 83.5)"/><circle r="1" fill="#546465" transform="matrix(21.1926 -15.6764 20.68636 27.96546 252 88.4)"/><circle r="1" fill="#e0c6c3" transform="rotate(63.9 8.3 216.3)scale(107.16879 17.07974)"/><path fill="#686d73" d="m64 192 96-75 37 44z"/><circle r="1" fill="#eacac6" transform="rotate(3.8 -2843.2 2682.7)scale(30.49726 21.63612)"/></g></g></svg>