<svg xmlns="http://www.w3.org/2000/svg" width="300" height="300"><g filter="blur(12px)"><rect width="200%" height="200%" x="-50%" y="-50%" fill="#925246"/><rect width="100%" height="100%" fill="#925246"/><g fill-opacity=".5" transform="translate(.6 .6)scale(1.17188)"><circle r="1" fill="#a79396" transform="matrix(119.15524 7.6218 -5.85864 91.59088 215.3 84.3)"/><path fill="#ddffe9" d="m239.3 216.3 6.3 32.4-57 11-6.2-32.4z"/><path fill="#76e6ff" d="m43.3 102.7-31 27-17.6-20.4 31-27z"/><circle r="1" fill="#90accc" transform="rotate(137.4 -31.7 99.2)scale(52.62142 26.20599)"/><circle r="1" fill="#740400" transform="matrix(20.17336 -11.74927 33.2534 57.09568 78.3 155)"/><circle r="1" fill="#c7c7e8" transform="matrix(-20.81643 11.87943 -18.31224 -32.08869 202.7 118.8)"/><circle r="1" fill="#fcb3ce" transform="matrix(19.36477 -2.3632 3.06002 25.07471 136.1 208)"/><ellipse cx="255" cy="58" fill="#420000" rx="12" ry="65"/></g></g></svg>