<svg xmlns="http://www.w3.org/2000/svg" width="300" height="300"><g filter="blur(12px)"><rect width="200%" height="200%" x="-50%" y="-50%" fill="#9a7856"/><rect width="100%" height="100%" fill="#9a7856"/><g fill-opacity=".5" transform="translate(.6 .6)scale(1.17188)"><circle r="1" fill="#cdc3ae" transform="rotate(-33.9 245.1 -146.2)scale(229.18124 192.3518)"/><circle r="1" fill="#685d4c" transform="matrix(-7.13821 13.88946 -36.6557 -18.83847 240.5 45.6)"/><circle r="1" fill="#57503f" transform="matrix(-10.60276 -3.8119 7.80214 -21.70158 66.8 194)"/><circle r="1" fill="#8d7d66" transform="matrix(-10.95726 34.69137 -28.35495 -8.9559 94.2 127.4)"/><path fill="#5a4b32" d="m140.7 14.9-32 2.2-1.4-20 32-2.2z"/><circle cx="176" cy="88" r="64" fill="#c7b192"/><path fill="#4a4739" d="M23.9 193.2 35 203.8l-44.2 19 40.6-49.1z"/><circle r="1" fill="#766751" transform="rotate(-112.4 25.5 -17)scale(66.91184 11.62187)"/></g></g></svg>