<svg xmlns="http://www.w3.org/2000/svg" width="300" height="300"><g filter="blur(12px)"><rect width="200%" height="200%" x="-50%" y="-50%" fill="#7181a2"/><rect width="100%" height="100%" fill="#7181a2"/><g fill-opacity=".5" transform="translate(.6 .6)scale(1.17188)"><circle r="1" fill="#fff7fb" transform="matrix(156.1118 -143.0501 131.53075 143.54062 139.5 99.2)"/><path fill="#f3edf1" d="m158.5 118.7 20.8-3.3 14.2 89.9-20.8 3.3z"/><circle cx="45" cy="214" r="27" fill="#879ab6"/><path fill="#97a4bd" d="m132 200 58-119-79 5z"/><circle r="1" fill="#dad9e3" transform="matrix(39.3502 -3.37553 2.69402 31.40551 219.6 21.7)"/><circle r="1" fill="#7d91af" transform="matrix(17.08664 -6.19573 9.59033 26.44828 105.8 249.7)"/><circle r="1" fill="#efe3ea" transform="matrix(-8.8888 2.78558 -19.69048 -62.8324 131.8 240.2)"/><path fill="#8396b4" d="m69 206 37 1-16-61z"/></g></g></svg>