<svg xmlns="http://www.w3.org/2000/svg" width="300" height="300"><g filter="blur(12px)"><rect width="200%" height="200%" x="-50%" y="-50%" fill="#698a73"/><rect width="100%" height="100%" fill="#698a73"/><path fill-opacity=".5" d="M181 39.3-18.1 8.8l184-27z"/><circle r="1" fill-opacity=".5" transform="matrix(76.759 19.70836 -6.74777 26.28083 105.6 300)"/><circle r="1" fill="#fff5e3" fill-opacity=".5" transform="rotate(-153.6 60.8 118.1)scale(40.6385 16.73804)"/><circle r="1" fill="#081208" fill-opacity=".5" transform="matrix(65.9959 -4.25204 1.29747 20.13802 113.3 85.8)"/><circle r="1" fill="#ffdac7" fill-opacity=".5" transform="matrix(-1.60152 16.62054 -64.80304 -6.2443 137 122.5)"/><circle r="1" fill="#192f1f" fill-opacity=".5" transform="matrix(80.6157 7.90444 -2.74622 28.00816 134.5 225.4)"/><circle r="1" fill="#ffe8ef" fill-opacity=".5" transform="matrix(-38.65304 94.22646 -13.50902 -5.5416 205 289.6)"/><circle r="1" fill="#0d1b14" fill-opacity=".5" transform="rotate(78.7 71.7 246.6)scale(64.64307 39.28177)"/></g></svg>