<svg xmlns="http://www.w3.org/2000/svg" width="300" height="300"><g filter="blur(12px)"><rect width="200%" height="200%" x="-50%" y="-50%" fill="#ae845c"/><rect width="100%" height="100%" fill="#ae845c"/><circle r="1" fill="#ffc8d8" fill-opacity=".5" transform="matrix(232.30844 -3.20553 3.01385 218.41688 164 157.7)"/><circle r="1" fill="#dce3f4" fill-opacity=".5" transform="matrix(.746 41.93168 -145.29997 2.58503 150.5 33.4)"/><circle r="1" fill="#ff8c72" fill-opacity=".5" transform="matrix(31.63396 -112.6759 275.85501 77.44678 175.8 252.3)"/><circle r="1" fill="#cab1d4" fill-opacity=".5" transform="matrix(21.74355 -128.55557 35.34156 5.97758 237.5 99.8)"/><circle r="1" fill="#e036a0" fill-opacity=".5" transform="matrix(6.56041 36.46123 -20.89341 3.75932 222.4 262)"/><path fill="#ec3e7d" fill-opacity=".5" d="m299 225.3-49.4-61 45.5-36.9 49.4 61z"/><circle r="1" fill="#f87651" fill-opacity=".5" transform="matrix(-8.46896 -20.79297 75.2445 -30.64704 65.2 258)"/><circle r="1" fill="#f8ff75" fill-opacity=".5" transform="matrix(15.52876 4.60892 -11.9252 40.17936 177.3 264.8)"/></g></svg>