<svg xmlns="http://www.w3.org/2000/svg" width="300" height="300"><g filter="blur(12px)"><rect width="200%" height="200%" x="-50%" y="-50%" fill="#7582a0"/><rect width="100%" height="100%" fill="#7582a0"/><g fill-opacity=".5" transform="translate(.6 .6)scale(1.17188)"><circle cx="135" cy="122" r="207" fill="#fff"/><circle r="1" fill="#f1ebf7" transform="rotate(32.4 -128.3 268.2)scale(175.69657 180.29854)"/><circle r="1" fill="#b0bed1" transform="rotate(93.1 43.5 145.8)scale(99.00059 14.35619)"/><path fill="#aab3cb" d="M92.3 122 22.2 55.6l47.3 69.1-4.9 43.6z"/><path fill="#e7e7ef" d="m178 29-23 103L23-9z"/><circle r="1" fill="#f2e6ed" transform="matrix(-25.44659 -18.45973 27.37768 -37.73991 87.9 190.1)"/><circle r="1" fill="#8d9fb9" transform="matrix(6.02513 -2.70966 8.90589 19.80289 141 5.1)"/><path fill="#7282a5" d="m156.4 161.6 4.6-2 14.6 32.8-4.6 2z"/></g></g></svg>