<svg xmlns="http://www.w3.org/2000/svg" width="300" height="300"><g filter="blur(12px)"><rect width="200%" height="200%" x="-50%" y="-50%" fill="#af9681"/><rect width="100%" height="100%" fill="#af9681"/><circle r="1" fill="#ffbc00" fill-opacity=".5" transform="matrix(-72.29307 -289.95166 205.00918 -51.11453 187.4 170.4)"/><circle r="1" fill="#611ea0" fill-opacity=".5" transform="matrix(12.11444 29.77316 -24.96288 10.15718 144.7 222.1)"/><circle r="1" fill="#ffff90" fill-opacity=".5" transform="rotate(-24.3 665.9 -494.7)scale(83.16266 43.10183)"/><circle r="1" fill="#aa81b9" fill-opacity=".5" transform="rotate(18.1 -293.4 858.3)scale(36.00976 43.54)"/><circle r="1" fill="#ffa409" fill-opacity=".5" transform="matrix(-65.29973 -23.60396 96.06905 -265.77246 143 56.1)"/><circle r="1" fill="#ffff97" fill-opacity=".5" transform="matrix(-13.17404 -46.05139 30.39053 -8.6939 .6 192.4)"/><circle r="1" fill="#926a7a" fill-opacity=".5" transform="matrix(13.89616 34.38062 -48.3736 19.55193 165.8 206.7)"/><circle r="1" fill="#fbf98a" fill-opacity=".5" transform="matrix(-43.4472 -6.7357 2.06667 -13.3306 78.3 53)"/></g></svg>