<svg xmlns="http://www.w3.org/2000/svg" width="300" height="300"><g filter="blur(12px)"><rect width="200%" height="200%" x="-50%" y="-50%" fill="#688b71"/><rect width="100%" height="100%" fill="#688b71"/><g fill-opacity=".5" transform="translate(.6 .6)scale(1.17188)"><ellipse cx="153" cy="94" fill="#ffda94" rx="86" ry="22"/><circle r="1" fill="#001c08" transform="matrix(-75.68372 32.12583 -10.7023 -25.21304 92.6 180)"/><ellipse cx="51" cy="59" fill="#ffdc8f" rx="79" ry="17"/><circle r="1" fill="#fffa94" transform="matrix(16.07122 -2.51669 8.9518 57.16496 0 224.6)"/><circle r="1" fill="#ffaca6" transform="matrix(16.55065 -16.00453 19.36624 20.02707 191 220)"/><circle r="1" fill="#ffd48c" transform="rotate(-67.7 101 -32.6)scale(13.80246 94.24539)"/><path fill="#ffdaa4" d="m38.3 18.8 8.5-37 41 9.4-8.6 37z"/><path fill="#ffea95" d="m217.1 242.5-7.3-16.5 73-32.5 7.4 16.5z"/></g></g></svg>