<svg xmlns="http://www.w3.org/2000/svg" width="300" height="300"><g filter="blur(12px)"><rect width="200%" height="200%" x="-50%" y="-50%" fill="#a8865e"/><rect width="100%" height="100%" fill="#a8865e"/><g fill-opacity=".5" transform="translate(.6 .6)scale(1.17188)"><circle r="1" fill="#d3d5c8" transform="matrix(-167.96177 -82.86732 92.54776 -187.58281 133 106)"/><circle r="1" fill="#eddcd1" transform="matrix(-5.07929 -23.37375 34.0997 -7.41012 171 120.8)"/><circle r="1" fill="#897e58" transform="matrix(7.12288 19.6322 -31.08371 11.27768 157.2 66.5)"/><ellipse cx="204" cy="201" fill="#def7ff" rx="22" ry="12"/><path fill="#918064" d="M52 156 3 105l42-47z"/><path fill="#737044" d="m201.3 116.8-3.9-16.5 65.3-15.1 3.9 16.5z"/><path fill="#58754e" d="m110 224-12-21 66-6z"/><circle r="1" fill="#ebdaca" transform="matrix(37.06872 -44.06758 8.03523 6.75906 82.6 132.3)"/></g></g></svg>