<svg xmlns="http://www.w3.org/2000/svg" width="300" height="300"><g filter="blur(12px)"><rect width="200%" height="200%" x="-50%" y="-50%" fill="#ab6284"/><rect width="100%" height="100%" fill="#ab6284"/><circle r="1" fill="#966241" fill-opacity=".5" transform="matrix(-132.57013 -91.30144 139.7654 -202.94004 160.8 164.5)"/><circle r="1" fill="#ffbe00" fill-opacity=".5" transform="matrix(-13.52026 15.1216 -20.41602 -18.25402 170.1 137.5)"/><circle r="1" fill="#ff9600" fill-opacity=".5" transform="matrix(-31.72392 18.71201 -10.27023 -17.41192 249.4 35.3)"/><circle r="1" fill="#704988" fill-opacity=".5" transform="matrix(-55.34932 31.0746 -70.30333 -125.22259 49.6 69.4)"/><circle r="1" fill="#563591" fill-opacity=".5" transform="matrix(12.52456 -34.25584 54.40225 19.89046 262.4 254.8)"/><circle r="1" fill="#fb0" fill-opacity=".5" transform="rotate(-132.1 72.4 141)scale(23.20055 27.26327)"/><path fill="#e99834" fill-opacity=".5" d="M240.8 110.7H290v99.7h-49.2z"/><path fill="#5d3ca9" fill-opacity=".5" d="m118.8 204.2-22 60.5-55-20 22-60.6z"/></g></svg>