<svg xmlns="http://www.w3.org/2000/svg" width="300" height="300"><g filter="blur(12px)"><rect width="200%" height="200%" x="-50%" y="-50%" fill="#7785a4"/><rect width="100%" height="100%" fill="#7785a4"/><circle r="1" fill="#fffbff" fill-opacity=".5" transform="matrix(-297.085 32.22973 -22.35577 -206.06944 161.8 120.5)"/><circle r="1" fill="#ffe3e9" fill-opacity=".5" transform="matrix(-39.62173 4.82616 -6.7661 -55.54818 231.4 185.7)"/><circle r="1" fill="#ffdde4" fill-opacity=".5" transform="rotate(-13.5 147.4 -185)scale(56.13995 26.99113)"/><circle r="1" fill="#97a2be" fill-opacity=".5" transform="matrix(35.84542 -1.12649 1.84253 58.6301 153 262.6)"/><circle r="1" fill="#7b8db1" fill-opacity=".5" transform="matrix(.82154 13.43205 -55.17065 3.37438 219.4 118.7)"/><circle r="1" fill="#e3cfda" fill-opacity=".5" transform="rotate(66.9 -180.2 135.6)scale(48.55274 80.69217)"/><circle r="1" fill="#fadee5" fill-opacity=".5" transform="matrix(-42.25722 -7.75565 3.39922 -18.52087 295.3 51.5)"/><circle r="1" fill="#9aa6c2" fill-opacity=".5" transform="matrix(.95313 21.99532 -66.25543 2.87106 53.3 122.9)"/></g></svg>