<svg xmlns="http://www.w3.org/2000/svg" width="300" height="300"><g filter="blur(12px)"><rect width="200%" height="200%" x="-50%" y="-50%" fill="#6f82a4"/><rect width="100%" height="100%" fill="#6f82a4"/><g fill-opacity=".5" transform="translate(.6 .6)scale(1.17188)"><circle r="1" fill="#fff" transform="matrix(-199.04622 -84.4901 68.70181 -161.85133 134.2 163.3)"/><path fill="#45598c" d="m232 143-47 64 50-35z"/><circle r="1" fill="#f2e1ef" transform="matrix(-23.43671 9.78418 -16.57054 -39.69253 61.7 157.6)"/><circle r="1" fill="#f4e7f3" transform="matrix(6.71434 -19.38987 42.96983 14.87964 24.3 47)"/><ellipse cx="239" cy="44" fill="#d8d1e1" rx="101" ry="32"/><path fill="#5d6e99" d="M97 156h29v23H97z"/><circle r="1" fill="#e9deeb" transform="matrix(25.29399 -8.49197 20.20092 60.17003 131.5 255)"/><circle r="1" fill="#f4e1ee" transform="matrix(3.65388 10.48264 -52.16783 18.18388 216.6 211.3)"/></g></g></svg>