<svg xmlns="http://www.w3.org/2000/svg" width="300" height="300"><g filter="blur(12px)"><rect width="200%" height="200%" x="-50%" y="-50%" fill="#907b6f"/><rect width="100%" height="100%" fill="#907b6f"/><g fill-opacity=".5" transform="translate(.6 .6)scale(1.17188)"><circle cx="112" cy="143" r="196" fill="#ffffdc"/><circle r="1" fill="#ffdabc" transform="matrix(-7.3606 41.09194 -206.53319 -36.99525 83 75.1)"/><circle r="1" fill="#fffff7" transform="matrix(35.8776 48.12103 -26.95205 20.09464 0 171)"/><circle r="1" fill="#fff9e4" transform="matrix(-96.21073 48.09435 -14.64995 -29.30661 18.2 0)"/><circle r="1" fill="#d7a479" transform="matrix(27.26852 33.88188 -55.19718 44.42331 111.5 179.8)"/><circle r="1" fill="#ffd0a9" transform="rotate(-136 165.3 51.9)scale(69.8216 41.82612)"/><ellipse cx="176" cy="18" fill="#ae947e" rx="20" ry="102"/><path fill="#545a3b" d="m10.4 132.3 7.5-8 33.7 31.4-7.5 8z"/></g></g></svg>