<svg xmlns="http://www.w3.org/2000/svg" width="300" height="300"><g filter="blur(12px)"><rect width="200%" height="200%" x="-50%" y="-50%" fill="#6e64a5"/><rect width="100%" height="100%" fill="#6e64a5"/><circle r="1" fill="#c77830" fill-opacity=".5" transform="matrix(-33.62996 -235.21024 200.25592 -28.63225 150.7 152.7)"/><circle r="1" fill="#9dd0f1" fill-opacity=".5" transform="matrix(21.60946 75.53037 -17.70066 5.06421 271.8 199)"/><circle r="1" fill="#7d2001" fill-opacity=".5" transform="rotate(126.3 23.9 111.1)scale(21.82198 110.99645)"/><path fill="#f1f5ff" fill-opacity=".5" d="M29.9 33.4h30.5v42.2H29.9z"/><circle r="1" fill="#a0c5df" fill-opacity=".5" transform="matrix(-12.10939 -10.63836 51.98762 -59.17626 168.7 281.6)"/><circle r="1" fill="#931d00" fill-opacity=".5" transform="matrix(11.70931 28.06118 -41.32995 17.24608 250.7 10.2)"/><circle r="1" fill="#7e2b0a" fill-opacity=".5" transform="matrix(-18.82121 -12.4103 37.869 -57.43135 19.6 177.9)"/><circle r="1" fill="#c7c4d7" fill-opacity=".5" transform="matrix(-57.23595 24.10389 -5.37087 -12.75342 257.3 58.6)"/></g></svg>