<svg xmlns="http://www.w3.org/2000/svg" width="300" height="300"><g filter="blur(12px)"><rect width="200%" height="200%" x="-50%" y="-50%" fill="#8e9bba"/><rect width="100%" height="100%" fill="#8e9bba"/><g fill-opacity=".5" transform="translate(.6 .6)scale(1.17188)"><circle cx="102" cy="140" r="214" fill="#fff1ff"/><circle r="1" fill="#e1cee7" transform="matrix(31.96946 87.36065 -122.39592 44.79055 68.5 78)"/><circle r="1" fill="#c09db1" transform="matrix(-8.73065 -40.5345 61.88143 -13.32853 127.1 255)"/><ellipse cx="223" cy="230" fill="#e2d1f1" rx="35" ry="123"/><path fill="#c19bac" d="m93.8 212.2-52.7-5.5 3-28.9 52.8 5.5z"/><path fill="#caaabc" d="m230.4 121-57.2-68.2L201.6 29l57.2 68.2z"/><circle r="1" fill="#b69ba9" transform="matrix(16.02993 1.0366 -1.77214 27.40411 97.4 0)"/><circle r="1" fill="#b498a5" transform="matrix(8.11834 -1.59339 5.72752 29.18182 40.6 14.8)"/></g></g></svg>