<svg xmlns="http://www.w3.org/2000/svg" width="300" height="300"><g filter="blur(12px)"><rect width="200%" height="200%" x="-50%" y="-50%" fill="#99804d"/><rect width="100%" height="100%" fill="#99804d"/><g fill-opacity=".5" transform="translate(.6 .6)scale(1.17188)"><circle r="1" fill="#ffffed" transform="matrix(-24.33718 35.64887 -64.21136 -43.83653 88.2 116.9)"/><ellipse cx="67" cy="206" fill="#3c0000" rx="123" ry="40"/><circle r="1" fill="#f5deb9" transform="rotate(108.5 16 47.3)scale(106.97636 32.90657)"/><circle r="1" fill="#420907" transform="matrix(14.32322 41.60996 -25.06146 8.6268 208.1 180.3)"/><ellipse cx="186" cy="103" fill="#2d0000" rx="29" ry="30"/><path fill="#fff" d="m204 254.2-34.3 11.1-9.6-29.5 34.2-11.1z"/><circle r="1" fill="#320000" transform="matrix(29.30061 -9.05431 23.1735 74.99163 58.2 228.2)"/><path fill="#fff" d="m258 74.1-30.9 16.5L214 65.9l30.9-16.5z"/></g></g></svg>