<svg xmlns="http://www.w3.org/2000/svg" width="300" height="300"><g filter="blur(12px)"><rect width="200%" height="200%" x="-50%" y="-50%" fill="#9d568d"/><rect width="100%" height="100%" fill="#9d568d"/><g fill-opacity=".5" transform="translate(.6 .6)scale(1.17188)"><circle r="1" fill="#bc6d28" transform="matrix(222.59513 -124.40421 60.51394 108.27694 135.9 186.7)"/><circle r="1" fill="#f7d664" transform="rotate(121.4 106.5 86.5)scale(53.11489 26.65278)"/><path fill="#4a1f96" d="m128.3 117.1 3.4 65-54 2.8-3.4-65z"/><circle r="1" fill="#f96d00" transform="rotate(138.5 16 149.3)scale(41.50346 38.40539)"/><circle r="1" fill="#ffd723" transform="matrix(13.55815 -7.15944 13.77353 26.08354 11.4 44.3)"/><circle r="1" fill="#e7680c" transform="matrix(-14.99593 -37.59244 65.24585 -26.0271 255 223.3)"/><circle r="1" fill="#53309b" transform="matrix(16.7392 31.5841 -16.74424 8.87425 163.6 163)"/><circle cx="132" cy="54" r="69" fill="#a6767a"/></g></g></svg>