<svg xmlns="http://www.w3.org/2000/svg" width="300" height="300"><g filter="blur(12px)"><rect width="200%" height="200%" x="-50%" y="-50%" fill="#9d7a48"/><rect width="100%" height="100%" fill="#9d7a48"/><g fill-opacity=".5" transform="translate(.6 .6)scale(1.17188)"><circle r="1" fill="#c9b78c" transform="rotate(88.6 -21.8 147.2)scale(65.13493 138.32317)"/><circle r="1" fill="#f0e7cf" transform="matrix(-11.0411 21.97372 -44.2791 -22.24886 127.4 164.4)"/><path fill="#4f2d07" d="M129.6 209.5 114 159l14.3-4.4L144 205z"/><path fill="#fffff6" d="m24 146 27 28-23 43z"/><path fill="#0b1307" d="m-16 242 63-15-43-27z"/><ellipse cx="41" cy="77" fill="#453b22" rx="34" ry="23"/><path fill="#000704" d="m222.2 17.8 7.3 16.5-35.7 15.9-7.3-16.5z"/><circle r="1" fill="#705125" transform="rotate(-144.1 129 49.7)scale(12.46219 54.48129)"/></g></g></svg>