<svg xmlns="http://www.w3.org/2000/svg" width="300" height="300"><g filter="blur(12px)"><rect width="200%" height="200%" x="-50%" y="-50%" fill="#a7b896"/><rect width="100%" height="100%" fill="#a7b896"/><circle r="1" fill="#fff" fill-opacity=".5" transform="matrix(-204.39156 -100.40531 93.56735 -190.47175 152.5 150.6)"/><circle r="1" fill="#fff5ce" fill-opacity=".5" transform="matrix(-180.87546 -178.3335 143.97186 -146.02403 152.3 165.4)"/><path fill="#cd2287" fill-opacity=".5" d="m250.5 237 21.5-30.7 6.2 24.7-9.7 26.7z"/><circle r="1" fill="#806ec2" fill-opacity=".5" transform="matrix(6.09687 32.21085 -17.6859 3.34759 1.2 96.6)"/><path fill="#d54ca7" fill-opacity=".5" d="m45 267 27.4-6.8 8 31.8-27.4 6.8z"/><path fill="#4446ae" fill-opacity=".5" d="m239.6 144.7 13.8 28.5-13.7 6.7-13.8-28.5z"/><path fill="#d41272" fill-opacity=".5" d="m13.5 194 28.1-3.6L24 165.8z"/><path fill="#955fbd" fill-opacity=".5" d="m152.6 315.2 6-35.6 37.7 7.5-38.4 31z"/></g></svg>