<svg xmlns="http://www.w3.org/2000/svg" width="300" height="300"><g filter="blur(12px)"><rect width="200%" height="200%" x="-50%" y="-50%" fill="#94ac5c"/><rect width="100%" height="100%" fill="#94ac5c"/><g fill-opacity=".5" transform="translate(.6 .6)scale(1.17188)"><circle r="1" fill="#74849e" transform="matrix(-197.2763 120.89107 -115.67612 -188.76627 151 162.2)"/><circle r="1" fill="#fff" transform="matrix(22.6553 -1.70346 1.2562 16.7068 31.4 250.4)"/><path fill="#fff" d="m151.3 93.1-19.5 12.2-9-14.4 19.4-12.2z"/><ellipse cx="76" cy="77" fill="#fbfffd" rx="14" ry="18"/><path fill="#feffff" d="M19 171h34v19H19z"/><ellipse cx="81" cy="218" fill="#e0eae0" rx="26" ry="14"/><circle r="1" fill="#d0e5d3" transform="matrix(-9.41406 11.22182 -42.13267 -35.34537 7.1 0)"/><circle r="1" fill="#5b7350" transform="matrix(-32.32617 15.14268 -18.22974 -38.91632 28.9 85.6)"/></g></g></svg>