<svg xmlns="http://www.w3.org/2000/svg" width="300" height="300"><g filter="blur(12px)"><rect width="200%" height="200%" x="-50%" y="-50%" fill="#7c87a7"/><rect width="100%" height="100%" fill="#7c87a7"/><g fill-opacity=".5" transform="translate(.6 .6)scale(1.17188)"><circle cx="120" cy="79" r="218" fill="#fff"/><circle r="1" fill="#ebd7ea" transform="matrix(-217.89925 118.45085 -77.60664 -142.76325 122.4 114.2)"/><path fill="#375583" d="m92 54-18 3 28 12z"/><path fill="#6476a2" d="m228.4 127.6 39.9 2.8-.7 10-39.9-2.8z"/><path fill="#7081a7" d="m232.2 64.4 44.1 25.5-4.5 7.7-44.1-25.5z"/><path fill="#9198b1" d="M175 149h20v27h-20z"/><path fill="#9ea5c2" d="m70.3 160-14-1.2L61.8 98l14 1.2z"/><path fill="#7e8bb4" d="m103.4 204.9 28.6 18.3-1-20.7h1.5z"/></g></g></svg>