<svg xmlns="http://www.w3.org/2000/svg" width="300" height="300"><g filter="blur(12px)"><rect width="200%" height="200%" x="-50%" y="-50%" fill="#6e8a71"/><rect width="100%" height="100%" fill="#6e8a71"/><g fill-opacity=".5" transform="translate(.6 .6)scale(1.17188)"><circle cx="213" cy="104" r="186" fill="#384c32"/><circle r="1" fill="#ffe3cd" transform="matrix(13.35114 -5.75528 16.57475 38.4502 166.4 148.6)"/><ellipse cx="97" cy="80" fill="#fed8ae" rx="39" ry="15"/><circle r="1" fill="#ffcecc" transform="matrix(10.0057 -45.98431 22.65734 4.93 27 9.2)"/><circle r="1" fill="#ffd5e3" transform="matrix(-3.83962 -10.10645 51.0593 -19.39831 22 150.8)"/><circle r="1" fill="#103620" transform="rotate(-23.1 628 -315)scale(94.89874 27.37927)"/><circle r="1" fill="#ffe9b0" transform="matrix(10.33755 21.027 -11.31211 5.5614 31.7 178.9)"/><path fill="#fef" d="m215.8 47.2-16.3 1.5 21 26.5 10.9-9.6z"/></g></g></svg>