<svg xmlns="http://www.w3.org/2000/svg" width="300" height="300"><g filter="blur(12px)"><rect width="200%" height="200%" x="-50%" y="-50%" fill="#6d7391"/><rect width="100%" height="100%" fill="#6d7391"/><g fill-opacity=".5" transform="translate(.6 .6)scale(1.17188)"><circle cx="104" cy="150" r="255" fill="#fff"/><circle r="1" fill="#d5e4df" transform="matrix(-149.28122 46.49592 -64.48407 -207.03452 149.2 131.3)"/><circle r="1" fill="#9ca8b8" transform="matrix(13.15095 -25.04887 22.3842 11.75196 171.3 109.4)"/><path fill="#88a08e" d="m203.6 5.6 7 3.6-32.2 63.2-7-3.6z"/><path fill="#769976" d="M27 225.4 4.5 213.1l28.4-27.2-23.5 60.5z"/><ellipse cx="211" cy="255" fill="#e5e4ee" rx="248" ry="23"/><path fill="#778984" d="m158 16-22 5-7 32z"/><circle r="1" fill="#e2e1ec" transform="rotate(125.4 10 132.2)scale(70.10051 18.26824)"/></g></g></svg>