<svg xmlns="http://www.w3.org/2000/svg" width="300" height="300"><g filter="blur(12px)"><rect width="200%" height="200%" x="-50%" y="-50%" fill="#698972"/><rect width="100%" height="100%" fill="#698972"/><g fill-opacity=".5" transform="translate(.6 .6)scale(1.17188)"><circle r="1" fill="#fffff7" transform="rotate(103.3 -6.2 38.7)scale(60.99279 31.06601)"/><circle r="1" fill="#fff7e2" transform="rotate(-37.3 332.2 30.6)scale(35.64133 49.52055)"/><ellipse cx="187" cy="123" fill="#ffd7b9" rx="66" ry="25"/><circle r="1" fill="#273927" transform="matrix(-12.90235 -50.05298 36.26728 -9.34876 120 62.7)"/><path fill="#fff" d="m238 41 33-40-48-8z"/><circle r="1" fill="#3a4d37" transform="matrix(-11.48216 20.79989 -138.0539 -76.20984 167.2 194.5)"/><circle r="1" fill="#fff" transform="matrix(-15.13124 5.50497 -8.58626 -23.60062 156.2 245.6)"/><circle r="1" fill="#ffe7c5" transform="matrix(-21.729 -.02516 .07727 -66.73414 23.3 65.1)"/></g></g></svg>