<svg xmlns="http://www.w3.org/2000/svg" width="300" height="300"><g filter="blur(12px)"><rect width="200%" height="200%" x="-50%" y="-50%" fill="#7484a1"/><rect width="100%" height="100%" fill="#7484a1"/><circle r="1" fill="#e4dbec" fill-opacity=".5" transform="matrix(207.02363 -34.1712 39.65508 240.24732 136.7 137)"/><path fill="#778cb0" fill-opacity=".5" d="m67.4 59.2-41-77.4-44.6 150z"/><circle r="1" fill="#7389ad" fill-opacity=".5" transform="matrix(13.3066 -2.73337 14.80294 72.06385 159.1 154.4)"/><circle r="1" fill="#8698b8" fill-opacity=".5" transform="rotate(4.1 -650.3 2884.2)scale(101.44792 21.89004)"/><circle r="1" fill="#f0f5fc" fill-opacity=".5" transform="matrix(-10.71912 -25.38663 10.21756 -4.31421 174.1 109.4)"/><circle r="1" fill="#e0dce6" fill-opacity=".5" transform="matrix(17.0632 -41.60437 14.28202 5.85748 216.1 264.2)"/><path fill="#efdee6" fill-opacity=".5" d="m6.4 217.4 49.3 100.8-17.6-102z"/><path fill="#f5e3eb" fill-opacity=".5" d="m207.3 196.7-22.5-6.4 14.5-50.7L222 146z"/></g></svg>