<svg xmlns="http://www.w3.org/2000/svg" width="300" height="300"><g filter="blur(12px)"><rect width="200%" height="200%" x="-50%" y="-50%" fill="#8e7680"/><rect width="100%" height="100%" fill="#8e7680"/><g fill-opacity=".5" transform="translate(.6 .6)scale(1.17188)"><circle r="1" fill="#d9d6a1" transform="matrix(35.77907 242.29536 -156.19517 23.0649 112.5 121.8)"/><ellipse cx="50" cy="217" fill="#ffddb6" rx="50" ry="21"/><circle r="1" fill="#636557" transform="matrix(17.05548 3.62986 -5.9766 28.08198 76 121.2)"/><path fill="#32393d" d="M73 25h17v33H73z"/><circle r="1" fill="#f5d3b2" transform="matrix(-11.3458 -15.2114 46.12877 -34.40627 234 177.2)"/><ellipse cx="207" cy="140" fill="#67715e" rx="15" ry="34"/><circle r="1" fill="#636053" transform="matrix(2.952 -23.33115 26.5178 3.35519 255 84.2)"/><path fill="#686559" d="m44.4 176.5-25.8 2.7-5-47.7 25.8-2.7z"/></g></g></svg>