<svg xmlns="http://www.w3.org/2000/svg" width="300" height="300"><g filter="blur(12px)"><rect width="200%" height="200%" x="-50%" y="-50%" fill="#a58953"/><rect width="100%" height="100%" fill="#a58953"/><g fill-opacity=".5" transform="translate(.6 .6)scale(1.17188)"><circle r="1" fill="#aeaca8" transform="matrix(-87.97005 -224.47312 132.64075 -51.98134 115.2 134.6)"/><circle r="1" fill="#595939" transform="rotate(70.2 -109.9 146.7)scale(11.74936 38.07116)"/><path fill="#287d5c" d="m42.6 49 32.2 11-11.4 33-32.2-11z"/><circle r="1" fill="#4b7662" transform="matrix(-19.8618 10.39927 -22.44446 -42.86717 238.2 17.2)"/><circle r="1" fill="#7b673b" transform="matrix(13.9439 26.30848 -17.71963 9.39169 75.7 147.4)"/><circle r="1" fill="#f3aea7" transform="matrix(-12.91848 18.1315 -25.97244 -18.50506 134.5 31.7)"/><path fill="#617752" d="m139 83 88 105-99-68z"/><ellipse cx="10" cy="42" fill="#308161" rx="41" ry="11"/></g></g></svg>