<svg xmlns="http://www.w3.org/2000/svg" width="300" height="300"><g filter="blur(12px)"><rect width="200%" height="200%" x="-50%" y="-50%" fill="#7581a2"/><rect width="100%" height="100%" fill="#7581a2"/><g fill-opacity=".5" transform="translate(.6 .6)scale(1.17188)"><circle r="1" fill="#fffbff" transform="rotate(57.6 -52.3 174.2)scale(174.40142 192.28604)"/><circle cx="42" cy="19" r="64" fill="#e4c9fa"/><circle r="1" fill="#deccea" transform="matrix(50.43968 -64.32811 27.17608 21.30877 156 216.4)"/><circle r="1" fill="#edd5ff" transform="matrix(-36.10498 43.79884 -9.932 -8.18731 166.7 98.2)"/><circle r="1" fill="#e8d5f4" transform="rotate(-42.6 241.2 4.3)scale(19.58036 32.00416)"/><circle r="1" fill="#979cba" transform="matrix(15.2155 17.03915 -23.11682 20.6427 133.1 50.7)"/><path fill="#e7c7ff" d="m161.4 110 18.2-25 51 37-18.2 25z"/><path fill="#828da8" d="m183 152-16 46-11-67z"/></g></g></svg>