<svg xmlns="http://www.w3.org/2000/svg" width="300" height="300"><g filter="blur(12px)"><rect width="200%" height="200%" x="-50%" y="-50%" fill="#7699ac"/><rect width="100%" height="100%" fill="#7699ac"/><circle r="1" fill="#11455b" fill-opacity=".5" transform="matrix(128.89368 39.28892 -71.70456 235.23845 236.3 136.1)"/><circle r="1" fill="#004f77" fill-opacity=".5" transform="matrix(-71.45885 103.34914 -19.40195 -13.41512 37 163.7)"/><circle r="1" fill="#e8a6ae" fill-opacity=".5" transform="matrix(14.0334 3.42098 -15.66734 64.27 150.3 254)"/><path fill="#ffa2b5" fill-opacity=".5" d="m116.4 49.6-17-64.2 60.3 45.4 17 27.6z"/><circle r="1" fill="#000a1c" fill-opacity=".5" transform="matrix(-36.00105 -29.21772 10.6387 -13.10862 220.2 25.4)"/><path fill="#000007" fill-opacity=".5" d="m165.8 266.6-9.4 51.6 63.3-68z"/><path fill="#d3bddb" fill-opacity=".5" d="m230.3 52.1 1.1 37.5 86.8-9.3z"/><path fill="#ee95a5" fill-opacity=".5" d="m68.1 185.5 30.3 43.2-52.8 37-30.3-43.2z"/></g></svg>