<svg xmlns="http://www.w3.org/2000/svg" width="300" height="300"><g filter="blur(12px)"><rect width="200%" height="200%" x="-50%" y="-50%" fill="#785c9f"/><rect width="100%" height="100%" fill="#785c9f"/><circle r="1" fill="#d78d47" fill-opacity=".5" transform="rotate(-68.9 176.3 4.1)scale(295.70164 201.87327)"/><circle r="1" fill="#062e50" fill-opacity=".5" transform="matrix(12.15144 -15.91527 76.89986 58.71367 206.3 260.2)"/><path fill="#ac1200" fill-opacity=".5" d="m143.8 180.2-95 48.4-25-49 95-48.5z"/><circle r="1" fill="#b30800" fill-opacity=".5" transform="matrix(5.23506 -17.96803 72.20407 21.03694 241.6 106.5)"/><circle r="1" fill="#fec" fill-opacity=".5" transform="rotate(153.7 14.4 58.5)scale(29.85129 28.38654)"/><circle r="1" fill="#006fab" fill-opacity=".5" transform="matrix(-6.77072 15.49768 -34.24927 -14.96303 40.3 159.3)"/><path fill="#f9e3d4" fill-opacity=".5" d="M205.7 82.6 318.2 44l-157 4.7z"/><circle r="1" fill="#a7dcf9" fill-opacity=".5" transform="rotate(171 -5.6 75.2)scale(25.26162 63.5977)"/></g></svg>