<svg xmlns="http://www.w3.org/2000/svg" width="300" height="300"><g filter="blur(12px)"><rect width="200%" height="200%" x="-50%" y="-50%" fill="#a78a5f"/><rect width="100%" height="100%" fill="#a78a5f"/><g fill-opacity=".5" transform="translate(.6 .6)scale(1.17188)"><ellipse cx="106" cy="109" fill="#724e3c" rx="153" ry="154"/><path fill="#090300" d="M184 187h23v46h-23z"/><path fill="#dcaca9" d="M231 179 205 40l66 133z"/><circle r="1" fill="#000401" transform="matrix(-23.74897 -4.42908 2.23971 -12.00944 193.5 25.3)"/><path fill="#271301" d="M-21.3 202 75 155l8.4 17-96.2 47z"/><path d="m122.7 167.2-20-.4.6-34 20 .4z"/><path fill="#0c0e02" d="m223.8 87.7 8.5-32 32 8.6-8.6 32z"/><path fill="#090600" d="m174 109.2-12.7-39 22.8-7.4 12.6 39z"/></g></g></svg>