<svg xmlns="http://www.w3.org/2000/svg" width="300" height="300"><g filter="blur(12px)"><rect width="200%" height="200%" x="-50%" y="-50%" fill="#b5985b"/><rect width="100%" height="100%" fill="#b5985b"/><g fill-opacity=".5" transform="translate(.6 .6)scale(1.17188)"><circle r="1" fill="#834813" transform="matrix(131.29381 19.1537 -36.81083 252.32909 107 119.5)"/><circle r="1" fill="#ffe890" transform="matrix(2.27554 10.65996 -63.08738 13.467 189.2 92.6)"/><circle r="1" fill="#f2d381" transform="matrix(-.52092 -17.22627 52.87124 -1.59883 30.2 98)"/><circle r="1" fill="#ffffaf" transform="matrix(23.63922 -.86681 .3998 10.90314 52.6 151)"/><path fill="#481f07" d="M326 211v22H148v-22z"/><circle r="1" fill="#fffba0" transform="rotate(45.9 -211.8 255.4)scale(15.46339 19.50685)"/><circle r="1" fill="#541900" transform="matrix(-16.70801 53.31533 -15.80735 -4.95372 218.2 25)"/><ellipse cx="147" cy="143" fill="#6e1100" rx="45" ry="17"/></g></g></svg>