<svg xmlns="http://www.w3.org/2000/svg" width="300" height="300"><g filter="blur(12px)"><rect width="200%" height="200%" x="-50%" y="-50%" fill="#639c74"/><rect width="100%" height="100%" fill="#639c74"/><g fill-opacity=".5" transform="translate(.6 .6)scale(1.17188)"><circle r="1" fill="#f8c2c5" transform="matrix(-13.119 224.41658 -162.9937 -9.52833 146.1 114.7)"/><path d="m210.3 99-36 23.4-12.6-19.3 36-23.5z"/><circle r="1" transform="rotate(75.8 82.2 196.2)scale(9.48049 41.20225)"/><path d="m-16 38 47-10v23zm213 159-9 24 41 8z"/><path d="M45.6 17.9 36.2-16 30.9 9.4 28 33.6z"/><circle r="1" fill="#f0e5dd" transform="matrix(-27.32245 .5101 -1.10898 -59.40039 249.2 227.7)"/><ellipse cx="38" cy="255" fill="#fff1e5" rx="35" ry="26"/></g></g></svg>