<svg xmlns="http://www.w3.org/2000/svg" width="300" height="300"><g filter="blur(12px)"><rect width="200%" height="200%" x="-50%" y="-50%" fill="#a66772"/><rect width="100%" height="100%" fill="#a66772"/><circle r="1" fill="#fcc211" fill-opacity=".5" transform="matrix(231.888 -69.61315 69.73179 232.28318 115 143.8)"/><path fill="#413dfb" fill-opacity=".5" d="m278.5 270-21.7-8.7 9.6-24 21.8 8.8z"/><path fill="#734489" fill-opacity=".5" d="m123.2 232.3 27.7 59.5-24.4 11.4-27.8-59.5z"/><path fill="#672f5b" fill-opacity=".5" d="M195.1 129.5h30.5v32.8H195z"/><path fill="#0000d5" fill-opacity=".5" d="m295.9 178.7-4.7-18.7 24.6 12.9z"/><circle r="1" fill="#8967bd" fill-opacity=".5" transform="matrix(25.43894 -15.69536 4.84363 7.85053 8.2 257.2)"/><circle r="1" fill="#a57c90" fill-opacity=".5" transform="matrix(34.19913 13.4025 -4.28563 10.93563 139 207.7)"/><circle r="1" fill="#e3a215" fill-opacity=".5" transform="matrix(22.34324 22.2993 -33.58561 33.6518 180 105.6)"/></g></svg>