<svg xmlns="http://www.w3.org/2000/svg" width="300" height="300"><g filter="blur(12px)"><rect width="200%" height="200%" x="-50%" y="-50%" fill="#a47d9d"/><rect width="100%" height="100%" fill="#a47d9d"/><g fill-opacity=".5" transform="translate(.6 .6)scale(1.17188)"><circle cx="141" cy="82" r="217" fill="#e0de9a"/><circle r="1" fill="#696e5c" transform="matrix(10.67382 -75.87004 17.02773 2.39556 160.8 130.1)"/><path fill="#fff" d="m214.9 226.4 42 2.2-1.8 33-42-2.2zM173.2 34.9l-48.5-23.5-3.2-24.9 61.3-2.5z"/><circle r="1" fill="#747260" transform="rotate(133.3 84 126.8)scale(13.67379 57.56127)"/><path fill="#40412d" d="m31 184-13-17-34 39z"/><circle r="1" fill="#324a29" transform="matrix(-4.89791 -24.51166 9.20627 -1.8396 131.4 253.4)"/><circle r="1" fill="#eec7b5" transform="matrix(-123.70802 -84.08608 14.98353 -22.04387 16.5 51)"/></g></g></svg>