<svg xmlns="http://www.w3.org/2000/svg" width="300" height="300"><g filter="blur(12px)"><rect width="200%" height="200%" x="-50%" y="-50%" fill="#a35d50"/><rect width="100%" height="100%" fill="#a35d50"/><g fill-opacity=".5" transform="translate(.6 .6)scale(1.17188)"><circle r="1" fill="#a0d2ea" transform="matrix(-18.55016 254.32438 -157.68646 -11.5015 109 117.2)"/><ellipse cx="145" fill="#009cf9" rx="56" ry="18"/><circle r="1" fill="#3a99c9" transform="matrix(9.25805 -54.1764 24.21558 4.13813 129.7 49.6)"/><circle r="1" fill="#ae5e50" transform="matrix(7.25312 -24.10749 58.74615 17.6747 209.5 49)"/><path fill="#0092fe" d="m182.6 84.9 7.3-16.5 37.5 16.7-7.3 16.5z"/><circle r="1" fill="#0087f6" transform="matrix(-16.392 12.80684 -8.44465 -10.80865 34.8 4)"/><path fill="#0984c6" d="m59 80 65 1-95 26z"/><path fill="#de4a35" d="M-16 170v-42l84 52z"/></g></g></svg>