<svg xmlns="http://www.w3.org/2000/svg" width="300" height="300"><g filter="blur(12px)"><rect width="200%" height="200%" x="-50%" y="-50%" fill="#7181a3"/><rect width="100%" height="100%" fill="#7181a3"/><g fill-opacity=".5" transform="translate(.6 .6)scale(1.17188)"><circle cx="129" cy="125" r="182" fill="#fff3f8"/><circle r="1" fill="#7f92b2" transform="matrix(16.24893 66.27496 -12.04611 2.9534 79 169)"/><circle r="1" fill="#dfcedb" transform="rotate(-173.5 84.8 118.6)scale(50.4618 53.61748)"/><path fill="#7086a8" d="m185.4 90.5 14.2 76.5 7.6-56.3-17.9-11.3z"/><ellipse cx="209" cy="74" fill="#e0d0db" rx="33" ry="29"/><circle r="1" fill="#8596b6" transform="matrix(-8.57965 -62.633 10.02324 -1.37301 219 237.4)"/><circle r="1" fill="#deccd8" transform="matrix(13.83324 -5.2824 37.24385 97.532 114.8 141)"/><circle r="1" fill="#8699b6" transform="matrix(17.99712 -33.16124 8.97477 4.87075 52.5 214.3)"/></g></g></svg>