<svg xmlns="http://www.w3.org/2000/svg" width="300" height="300"><g filter="blur(12px)"><rect width="200%" height="200%" x="-50%" y="-50%" fill="#628c6d"/><rect width="100%" height="100%" fill="#628c6d"/><g fill-opacity=".5" transform="translate(.6 .6)scale(1.17188)"><circle r="1" fill="#ffcfb6" transform="matrix(7.45776 -36.15127 29.56554 6.09917 169.8 132.6)"/><circle r="1" fill="#ffdebe" transform="rotate(-46.9 111.7 -31.7)scale(28.21524 38.35813)"/><circle r="1" fill="#ffcdad" transform="matrix(19.05595 20.61259 -20.37498 18.83628 199.7 232)"/><circle r="1" fill="#112706" transform="matrix(8.91936 12.65777 -44.02974 31.02576 19.9 196.8)"/><ellipse cx="115" cy="222" fill="#051700" rx="11" ry="38"/><path fill="#ecf5fa" d="m15 19 54 47-85-40z"/><path fill="#fef5fa" d="m-16 117.8 17.7 63.7-17.7 52.3 32.7-95.6z"/><path d="m121.9 66.4-10 51-9.8-1.8 10-51z"/></g></g></svg>