<svg xmlns="http://www.w3.org/2000/svg" width="300" height="300"><g filter="blur(12px)"><rect width="200%" height="200%" x="-50%" y="-50%" fill="#8089a3"/><rect width="100%" height="100%" fill="#8089a3"/><circle r="1" fill="#fff" fill-opacity=".5" transform="matrix(-10.55635 223.84688 -261.99045 -12.35516 151 118)"/><circle r="1" fill="#e7d5e6" fill-opacity=".5" transform="rotate(-179.1 96.7 97)scale(219.23723 298.82812)"/><circle r="1" fill="#9088a5" fill-opacity=".5" transform="rotate(113 -53.4 130)scale(18.68958 15.79614)"/><path fill="#f3f3fb" fill-opacity=".5" d="m165.4 246.7-15.6-40.5 65.7-25.2 15.5 40.5z"/><path fill="#eff3f7" fill-opacity=".5" d="m-4.1 292.4 83.2 21 27-50.3z"/><path fill="#9aa0bc" fill-opacity=".5" d="M278.3 142.4h22.3V174h-22.3z"/><circle r="1" fill="#a79cb7" fill-opacity=".5" transform="matrix(-1.89201 -9.21718 21.20885 -4.35355 250 110.4)"/><circle r="1" fill="#a59cb4" fill-opacity=".5" transform="matrix(-2.97091 7.86229 -25.07984 -9.47688 170 174.5)"/></g></svg>