<svg xmlns="http://www.w3.org/2000/svg" width="300" height="300"><g filter="blur(12px)"><rect width="200%" height="200%" x="-50%" y="-50%" fill="#6c8ead"/><rect width="100%" height="100%" fill="#6c8ead"/><g fill-opacity=".5" transform="translate(.6 .6)scale(1.17188)"><circle cx="126" cy="126" r="187" fill="#ffb787"/><circle r="1" fill="#ffa299" transform="rotate(105.4 11.3 83.9)scale(177.02188 255)"/><circle r="1" fill="#c9ccfb" transform="matrix(-9.49816 -27.78091 35.37654 -12.09507 33.1 208)"/><circle r="1" fill="#f6f168" transform="matrix(40.84945 -27.4782 9.63535 14.32404 180 181.4)"/><circle r="1" fill="#8fb9f8" transform="matrix(10.099 -21.55907 19.26918 9.02634 82.8 132.2)"/><circle r="1" fill="#d05ace" transform="matrix(21.8157 -3.76823 4.29347 24.85653 131 245.2)"/><circle r="1" fill="#face6a" transform="matrix(-32.93578 -32.81595 15.51944 -15.5761 222.7 6.4)"/><path fill="#68a1d9" d="M18 201h28v26H18z"/></g></g></svg>