<svg xmlns="http://www.w3.org/2000/svg" width="300" height="300"><g filter="blur(12px)"><rect width="200%" height="200%" x="-50%" y="-50%" fill="#898a78"/><rect width="100%" height="100%" fill="#898a78"/><g fill-opacity=".5" transform="translate(.6 .6)scale(1.17188)"><circle cx="46" cy="133" r="243" fill="#557452"/><circle r="1" fill="#ffd9ba" transform="matrix(9.73337 -4.1444 21.40823 50.27853 110 216.6)"/><circle r="1" fill="#ffd6ba" transform="rotate(20.7 27.3 149.3)scale(16.15662 32.88264)"/><path fill="#d9b293" d="m193 84 35 76-89-55z"/><path fill="#ffe4d4" d="m166.6 217.8 9.9-30.4 21 6.8-10 30.4z"/><path fill="#000500" d="M96 78h19v39H96z"/><path fill="#ffe6bc" d="M19.2 207-16 225.6l26.4 16.1 8.4-14.6z"/><path fill="#ffeeb6" d="m1 129 15-15 11 60z"/></g></g></svg>