<svg xmlns="http://www.w3.org/2000/svg" width="300" height="300"><g filter="blur(12px)"><rect width="200%" height="200%" x="-50%" y="-50%" fill="#6e8b73"/><rect width="100%" height="100%" fill="#6e8b73"/><g fill-opacity=".5" transform="translate(.6 .6)scale(1.17188)"><circle r="1" fill="#ffdfc8" transform="rotate(-75.9 64 13.2)scale(29.82078 102.43263)"/><circle r="1" fill="#ffe1c9" transform="rotate(-121.3 149.7 66)scale(67.35044 34.34476)"/><circle cx="143" cy="145" r="29" fill="#092817"/><circle r="1" fill="#001707" transform="rotate(79.5 71.9 145.5)scale(20.67026 43.98447)"/><path fill="#112918" d="M130 11.5 62 59.1 42 30.5l68-47.6z"/><circle r="1" fill="#ffd4b8" transform="matrix(18.83698 21.36636 -35.77819 31.54272 2.8 218.6)"/><circle r="1" fill="#ffe8e0" transform="matrix(30.86122 -13.22714 10.17752 23.74594 191 0)"/><circle r="1" fill="#ffcae7" transform="rotate(-121.4 9.4 4.5)scale(38.58961 22.85777)"/></g></g></svg>