<svg xmlns="http://www.w3.org/2000/svg" width="300" height="300"><g filter="blur(12px)"><rect width="200%" height="200%" x="-50%" y="-50%" fill="#628b6d"/><rect width="100%" height="100%" fill="#628b6d"/><g fill-opacity=".5" transform="translate(.6 .6)scale(1.17188)"><ellipse cx="102" cy="118" fill="#91927f" rx="132" ry="255"/><circle r="1" fill="#e6b6aa" transform="matrix(-5.36232 -25.75363 41.88692 -8.72152 188.8 250.8)"/><path d="m124.7 98.3 6.3 32.4-15.7 3-6.3-32.4z"/><path fill="#dac6be" d="M163 45 271-1l-69-15z"/><circle r="1" fill="#406549" transform="matrix(-29.4866 63.81079 -16.18278 -7.47797 152.8 203.4)"/><circle r="1" fill="#ceb8a5" transform="matrix(-.5719 -24.309 43.25448 -1.01763 167.2 103)"/><path fill="#042507" d="M86 225h18v31H86z"/><circle r="1" fill="#37573c" transform="rotate(173 65.5 36.3)scale(16.11188 27.95441)"/></g></g></svg>