<svg xmlns="http://www.w3.org/2000/svg" width="300" height="300"><g filter="blur(12px)"><rect width="200%" height="200%" x="-50%" y="-50%" fill="#b25958"/><rect width="100%" height="100%" fill="#b25958"/><g fill-opacity=".5" transform="translate(.6 .6)scale(1.17188)"><circle r="1" fill="#c2adb3" transform="matrix(-69.8596 245.24403 -159.27092 -45.36952 99 159)"/><circle r="1" fill="#90cbef" transform="matrix(-90.19402 29.4066 -7.6427 -23.4412 188 138.1)"/><circle r="1" fill="#e14c31" transform="matrix(-22.43511 18.90876 -62.45353 -74.10067 144.9 244.7)"/><ellipse cx="43" cy="158" fill="#69a4d2" rx="30" ry="40"/><circle r="1" fill="#6e0000" transform="rotate(177.8 107.9 97.9)scale(9.02301 31.86308)"/><circle r="1" fill="#d04c35" transform="rotate(-136.4 37.3 14.6)scale(17.52028 68.88224)"/><circle r="1" fill="#6bdbff" transform="matrix(-7.1347 -11.26054 75.11435 -47.59255 19.4 8)"/><circle r="1" fill="#f8654a" transform="matrix(25.7879 10.405 -17.371 43.05257 162 77.3)"/></g></g></svg>