<svg xmlns="http://www.w3.org/2000/svg" width="300" height="300"><g filter="blur(12px)"><rect width="200%" height="200%" x="-50%" y="-50%" fill="#7c945e"/><rect width="100%" height="100%" fill="#7c945e"/><g fill-opacity=".5" transform="translate(.6 .6)scale(1.17188)"><circle r="1" fill="#d1704d" transform="matrix(80.39928 168.50146 -161.25124 76.9399 138.5 124)"/><ellipse cx="143" cy="171" fill="#693301" rx="42" ry="16"/><circle r="1" fill="#e5641e" transform="matrix(-23.50237 -11.00932 26.55348 -56.68562 89.3 212.3)"/><path fill="#ebe6d2" d="m-16 57.3 5.9-39.6L35-11.1l19.3-2.4z"/><circle r="1" fill="#a1ae98" transform="matrix(-12.47461 -34.9877 28.06997 -10.00815 221.7 163.7)"/><circle r="1" fill="#aaab8d" transform="matrix(8.3756 -22.7409 53.49888 19.70394 129.5 59.5)"/><ellipse cx="255" cy="186" fill="#fff" rx="14" ry="7"/><path fill="#9d3a00" d="m154 192 2-86-31 16z"/></g></g></svg>