<svg xmlns="http://www.w3.org/2000/svg" width="300" height="300"><g filter="blur(12px)"><rect width="200%" height="200%" x="-50%" y="-50%" fill="#6b9473"/><rect width="100%" height="100%" fill="#6b9473"/><g fill-opacity=".5" transform="translate(.6 .6)scale(1.17188)"><circle r="1" fill="#e39b79" transform="matrix(-99.76306 39.70054 -53.51182 -134.46927 111.2 62.7)"/><circle r="1" fill="#ffb885" transform="matrix(-20.2371 -19.13877 48.83174 -51.6341 233.9 225)"/><circle r="1" fill="#ffd1aa" transform="matrix(-24.69184 3.9751 -13.96276 -86.73155 53.5 69.3)"/><circle r="1" fill="#38604c" transform="matrix(-21.7813 1.97094 -11.26481 -124.48995 169.4 132.4)"/><circle r="1" fill="#ffbf8a" transform="matrix(15.31042 -61.40674 13.54251 3.37653 134.7 217.4)"/><path fill="#ffc587" d="M229.3 36.8 190 58.6 152.7-8.8 192-30.6z"/><ellipse cx="10" cy="110" fill="#525e49" rx="20" ry="131"/><circle r="1" fill="#ffbc97" transform="rotate(113.6 -53.4 144.8)scale(99.97094 11.88237)"/></g></g></svg>