<svg xmlns="http://www.w3.org/2000/svg" width="300" height="300"><g filter="blur(12px)"><rect width="200%" height="200%" x="-50%" y="-50%" fill="#70829c"/><rect width="100%" height="100%" fill="#70829c"/><g fill-opacity=".5" transform="translate(.6 .6)scale(1.17188)"><circle r="1" fill="#fff" transform="rotate(87.6 -2 128.3)scale(180.74683 188.7457)"/><circle cx="33" cy="2" r="254" fill="#eaf8e1"/><circle r="1" fill="#759160" transform="rotate(148.1 72.6 77.6)scale(40.5929 33.49386)"/><path fill="#507038" d="m45.2 142.6 3.2 51.2-34.6-37.4 16.3-11.2z"/><circle r="1" fill="#809e6b" transform="rotate(-22.1 556.6 -487.4)scale(17.08019 29.33554)"/><circle r="1" fill="#f4f6ff" transform="matrix(-2.80778 84.63942 -27.61137 -.91596 57.3 64.6)"/><path fill="#658345" d="m80.9 258.5-21-1 1.2-24 21 1z"/><circle r="1" fill="#e5e8e9" transform="rotate(163.4 80.3 77)scale(13.41885 36.29431)"/></g></g></svg>