<svg xmlns="http://www.w3.org/2000/svg" width="300" height="300"><g filter="blur(12px)"><rect width="200%" height="200%" x="-50%" y="-50%" fill="#63896b"/><rect width="100%" height="100%" fill="#63896b"/><g fill-opacity=".5" transform="translate(.6 .6)scale(1.17188)"><ellipse cx="122" cy="92" fill="#cba9a1" rx="157" ry="180"/><circle r="1" fill="#20582f" transform="matrix(-38.48335 -1.43532 .6869 -18.41693 146.2 145)"/><path fill="#1a4c26" d="m164 71 30-87-80 91z"/><circle r="1" fill="#e7bcaf" transform="matrix(-52.14546 -19.86162 8.86712 -23.28008 170.9 103.4)"/><circle r="1" fill="#f4c6ba" transform="rotate(72.5 -87.6 151.2)scale(16.62219 73.0216)"/><path fill="#425d4a" d="m102 77-118 57L126 11z"/><circle r="1" fill="#ebd0c2" transform="matrix(57.5177 -30.71159 9.78145 18.31902 21.3 69.3)"/><path fill="#1b481f" d="m70 141-48 33 46 2z"/></g></g></svg>