<svg xmlns="http://www.w3.org/2000/svg" width="300" height="300"><g filter="blur(12px)"><rect width="200%" height="200%" x="-50%" y="-50%" fill="#b19c64"/><rect width="100%" height="100%" fill="#b19c64"/><g fill-opacity=".5" transform="translate(.6 .6)scale(1.17188)"><circle r="1" fill="#e7d9f6" transform="matrix(37.16934 -125.16969 62.50128 18.55986 213 79)"/><circle cx="16" cy="112" r="158" fill="#8f94ab"/><path fill="#ffecff" d="M18 206.6-24 134l32-18.5L50 188z"/><ellipse cx="84" cy="108" fill="#59595b" rx="53" ry="33"/><circle r="1" fill="#cdcdd3" transform="matrix(-23.76493 52.87937 -30.147 -13.5486 170 255)"/><path fill="#15284d" d="m153.3 189.3 10.4 27-27 10.4-10.4-27z"/><path fill="#ffeee3" d="m58.9-18.7 19-17.7 53.2 57-19 17.8z"/><path fill="#2e3842" d="m-16 239 67 15-26-39z"/></g></g></svg>