<svg xmlns="http://www.w3.org/2000/svg" width="300" height="300"><g filter="blur(12px)"><rect width="200%" height="200%" x="-50%" y="-50%" fill="#747484"/><rect width="100%" height="100%" fill="#747484"/><g fill-opacity=".5" transform="translate(.6 .6)scale(1.17188)"><circle r="1" fill="#fff1fb" transform="matrix(119.89297 -136.4713 154.99004 136.16207 135.3 135.8)"/><path fill="#e8deec" d="M-10.2 180.8 30.1 142l34 35.3L24 216z"/><circle r="1" fill="#ece3f2" transform="rotate(96.4 69.5 113)scale(11.77395 38.75067)"/><path fill="#fbfaff" d="M46 101h18v39H46z"/><circle r="1" fill="#ebd4e9" transform="rotate(-173.8 84.4 106.3)scale(19.22264 22.33725)"/><ellipse cx="96" cy="25" fill="#7a7e7f" rx="6" ry="55"/><circle r="1" fill="#918791" transform="matrix(8.35895 6.23096 -19.55378 26.23177 46 85)"/><path fill="#fff" d="m257.6 221.8-39.3 70.8-7.9-4.4 39.3-70.8z"/></g></g></svg>