<svg xmlns="http://www.w3.org/2000/svg" width="300" height="300"><g filter="blur(12px)"><rect width="200%" height="200%" x="-50%" y="-50%" fill="#a4845d"/><rect width="100%" height="100%" fill="#a4845d"/><circle r="1" fill="#c2b9a9" fill-opacity=".5" transform="matrix(-35.43642 -211.47464 202.5152 -33.9351 146.1 170.7)"/><circle r="1" fill="#ffd1b1" fill-opacity=".5" transform="matrix(48.72641 29.74465 -18.7039 30.63993 265.1 220.4)"/><circle r="1" fill="#ffe0ca" fill-opacity=".5" transform="matrix(5.07706 -20.82694 35.88593 8.74805 132.3 109.8)"/><circle r="1" fill="#eeceb9" fill-opacity=".5" transform="rotate(-123.5 135.7 106.7)scale(56.29783 34.59073)"/><circle r="1" fill="#7f7556" fill-opacity=".5" transform="matrix(-1.81077 -28.00134 69.90982 -4.52087 89 68.8)"/><circle r="1" fill="#82785d" fill-opacity=".5" transform="rotate(-8.4 1019 -1286.9)scale(26.19712 76.91596)"/><circle r="1" fill="#797858" fill-opacity=".5" transform="matrix(-7.27489 16.7311 -61.38526 -26.69107 157.1 239)"/><circle r="1" fill="#76705d" fill-opacity=".5" transform="matrix(11.34917 13.98625 -79.64222 64.62583 19.3 174.5)"/></g></svg>