<svg xmlns="http://www.w3.org/2000/svg" width="300" height="300"><g filter="blur(12px)"><rect width="200%" height="200%" x="-50%" y="-50%" fill="#618b6b"/><rect width="100%" height="100%" fill="#618b6b"/><g fill-opacity=".5" transform="translate(.6 .6)scale(1.17188)"><ellipse cx="188" cy="179" fill="#c5b096" rx="42" ry="189"/><path fill="#d8b29a" d="m67 56 54-50 33 166z"/><path fill="#25461f" d="m267 23 4 110-94-106z"/><circle r="1" fill="#1a380a" transform="rotate(-148.8 101.5 89.4)scale(14.26874 41.901)"/><circle r="1" fill="#ffc9a8" transform="matrix(13.91941 15.5157 -9.38495 8.4194 59 245.3)"/><path fill="#002800" d="m178.2 120.5 19-28.2 16.6 11.2-19 28.2z"/><circle r="1" fill="#ffba97" transform="matrix(-50.485 -33.6983 6.93448 -10.38886 85 8.1)"/><circle r="1" fill="#27441b" transform="rotate(63.5 -145.5 180)scale(83.93211 13.39796)"/></g></g></svg>