<svg xmlns="http://www.w3.org/2000/svg" width="300" height="300"><g filter="blur(12px)"><rect width="200%" height="200%" x="-50%" y="-50%" fill="#af8b73"/><rect width="100%" height="100%" fill="#af8b73"/><g fill-opacity=".5" transform="translate(.6 .6)scale(1.17188)"><circle r="1" fill="#270214" transform="matrix(37.28686 -2.08466 1.3927 24.91013 194.6 169.5)"/><circle r="1" fill="#450007" transform="matrix(4.03824 -59.61968 18.49477 1.25271 29.5 50.2)"/><path fill="#1f0000" d="m240.5 246.3-39.4-30.8 12.4-15.8 39.4 30.8z"/><circle r="1" fill="#98a9d2" transform="matrix(-27.74444 8.28 -14.58386 -48.86726 219.8 108.7)"/><path fill="#300" d="M159 87h22v36h-22z"/><path fill="#380000" d="M239 14h17v42h-17z"/><circle r="1" fill="#bba8ab" transform="matrix(-16.65423 -30.58513 64.81634 -35.29383 102.2 44.6)"/><circle cx="66" cy="185" r="93" fill="#b897a3"/></g></g></svg>