<svg xmlns="http://www.w3.org/2000/svg" width="300" height="300"><g filter="blur(12px)"><rect width="200%" height="200%" x="-50%" y="-50%" fill="#a98654"/><rect width="100%" height="100%" fill="#a98654"/><circle r="1" fill="#44360a" fill-opacity=".5" transform="matrix(-11.04936 -39.45207 58.11858 -16.2773 193.7 90.2)"/><path fill="#524a15" fill-opacity=".5" d="m-17-18.2 14 322.3L76.9 29.9z"/><circle r="1" fill="#5c430f" fill-opacity=".5" transform="matrix(88.0073 -52.06147 13.44516 22.72836 208 225.5)"/><circle r="1" fill="#f5e5bd" fill-opacity=".5" transform="matrix(34.65346 -3.17655 3.12367 34.07662 248.5 24)"/><circle r="1" fill="#2e1800" fill-opacity=".5" transform="matrix(-6.14226 11.8199 -41.53996 -21.58638 119.7 232.1)"/><circle r="1" fill="#fae2b5" fill-opacity=".5" transform="matrix(12.03653 28.16958 -23.88592 10.20618 221.7 160.8)"/><path fill="#fff1cb" fill-opacity=".5" d="m174 197.5 3.5 39.8-60.9-27z"/><circle r="1" fill="#fff2c6" fill-opacity=".5" transform="matrix(-13.95268 7.29441 -14.44375 -27.62787 106.6 279.8)"/></g></svg>