<svg xmlns="http://www.w3.org/2000/svg" width="300" height="300"><g filter="blur(12px)"><rect width="200%" height="200%" x="-50%" y="-50%" fill="#9e9c66"/><rect width="100%" height="100%" fill="#9e9c66"/><g fill-opacity=".5" transform="translate(.6 .6)scale(1.17188)"><circle cx="99" cy="159" r="180" fill="#a97343"/><circle r="1" fill="#000612" transform="matrix(-11.33012 -34.25913 8.7398 -2.89041 97 175.7)"/><path fill="#facb8f" d="m55 206.9-43.5-69.6L31 125.1l43.5 69.6z"/><circle r="1" fill="#cac5a4" transform="matrix(-5.35258 -16.31028 36.24425 -11.89436 171.9 72.7)"/><circle r="1" fill="#e2e9d9" transform="matrix(9.60782 -.13455 .2942 21.00709 101.6 138.6)"/><circle r="1" fill="#e2e5d0" transform="rotate(8.3 -202.3 695.4)scale(9.24088 22.30614)"/><circle r="1" fill="#050604" transform="rotate(101.5 -23.5 193.4)scale(14.13256 14.6187)"/><path fill="#fffff3" d="m221 196 15 29 2-42z"/></g></g></svg>