<svg xmlns="http://www.w3.org/2000/svg" width="300" height="300"><g filter="blur(12px)"><rect width="200%" height="200%" x="-50%" y="-50%" fill="#b46d70"/><rect width="100%" height="100%" fill="#b46d70"/><g fill-opacity=".5" transform="translate(.6 .6)scale(1.17188)"><circle cx="253" cy="28" r="119" fill="#452318"/><circle r="1" transform="matrix(-42.90945 20.10026 -13.70972 -29.26712 83.8 248)"/><circle r="1" fill="#00050e" transform="matrix(9.69183 29.82838 -22.60399 7.34448 9.4 24.3)"/><circle r="1" fill="#c4c3d6" transform="matrix(-25.6771 19.95072 -13.23545 -17.03437 210 57.4)"/><circle r="1" transform="rotate(83.4 112.9 144)scale(24.53172 34.33155)"/><path fill="#570d00" d="m93.3 176.1-44.7 14.6-13.9-42.8 44.7-14.6z"/><ellipse cx="14" cy="108" fill="#9ac9c4" rx="29" ry="57"/><path d="M104.5 83.7 94 69.2l31.6-23L136 60.9z"/></g></g></svg>