<svg xmlns="http://www.w3.org/2000/svg" width="300" height="300"><g filter="blur(12px)"><rect width="200%" height="200%" x="-50%" y="-50%" fill="#b29066"/><rect width="100%" height="100%" fill="#b29066"/><g fill-opacity=".5" transform="translate(.6 .6)scale(1.17188)"><ellipse cx="98" cy="77" fill="#a6b1df" rx="153" ry="243"/><circle r="1" fill="#ff7f00" transform="matrix(-1.61297 40.27068 -13.67202 -.5476 54.5 81.6)"/><circle r="1" fill="#74918c" transform="rotate(-58.9 294.6 -54.5)scale(180.59774 58.20105)"/><circle r="1" fill="#ff9fdc" transform="matrix(47.70672 -26.87231 8.89692 15.7948 86.4 209.3)"/><path fill="#f88cd3" d="m180.1 155.7-58.4 8.2-5.8-41.6 58.4-8.2z"/><circle r="1" fill="#ffccfc" transform="matrix(-10.01372 -14.46165 16.0069 -11.0837 15.4 10.3)"/><path fill="#cfbdde" d="m262.5 4.2-39 83.4-38-17.8 39-83.4z"/><ellipse cx="113" cy="84" fill="#ffabde" rx="20" ry="22"/></g></g></svg>