<svg xmlns="http://www.w3.org/2000/svg" width="300" height="300"><g filter="blur(12px)"><rect width="200%" height="200%" x="-50%" y="-50%" fill="#678a71"/><rect width="100%" height="100%" fill="#678a71"/><g fill-opacity=".5" transform="translate(.6 .6)scale(1.17188)"><path fill="#2f4031" d="M271 100 125-16-5 203z"/><circle r="1" fill="#ffc8b2" transform="rotate(86.3 -39.8 172.8)scale(61.31734 25.82626)"/><circle r="1" fill="#ffc4cb" transform="rotate(-103.7 33.6 -10.3)scale(39.70814 28.6177)"/><ellipse cx="212" cy="59" fill="#3a513e" rx="80" ry="155"/><circle r="1" fill="#0d2212" transform="matrix(-42.22057 36.34961 -18.04238 -20.95647 72.1 237.9)"/><path fill="#fffff2" d="M34.2 210.5 29.4 238l-25.6-4.5L8.6 206z"/><circle r="1" fill="#ffd6f4" transform="matrix(-19.4962 2.01176 -1.61042 -15.60674 247.2 218.3)"/><path fill="#deb4b1" d="m42.5 68.5 12.1 25.9 78.9 18.1-26.1-28.8z"/></g></g></svg>