<svg xmlns="http://www.w3.org/2000/svg" width="300" height="300"><g filter="blur(12px)"><rect width="200%" height="200%" x="-50%" y="-50%" fill="#985555"/><rect width="100%" height="100%" fill="#985555"/><g fill-opacity=".5" transform="translate(.6 .6)scale(1.17188)"><circle cx="144" cy="156" r="210" fill="#ffb7ae"/><circle r="1" fill="#602116" transform="matrix(-16.04367 10.41056 -22.56442 -34.77392 224 149.2)"/><circle r="1" fill="#67161d" transform="matrix(-6.72812 -11.83287 34.46905 -19.59896 86.3 168.7)"/><circle r="1" fill="#ffc4b3" transform="matrix(-27.59784 -38.5019 29.97675 -21.48709 163.5 150)"/><circle r="1" fill="#5d2724" transform="matrix(46.5363 5.49291 -2.39183 20.26371 115.3 0)"/><circle r="1" fill="#dcd0dc" transform="rotate(-90.8 45.9 -1.8)scale(39.40557 22.86789)"/><circle r="1" fill="#ff8486" transform="matrix(18.53953 41.16188 -92.97366 41.87582 98 102.7)"/><path fill="#8d241f" d="M212.6 45.4 226 75.6l-24.6 11L188 56.4z"/></g></g></svg>