<svg xmlns="http://www.w3.org/2000/svg" width="300" height="300"><g filter="blur(12px)"><rect width="200%" height="200%" x="-50%" y="-50%" fill="#af9054"/><rect width="100%" height="100%" fill="#af9054"/><circle r="1" fill="#514229" fill-opacity=".5" transform="rotate(166 54 24)scale(120.45294 73.29992)"/><path fill="#e8f1e6" fill-opacity=".5" d="M210.4 271.3 107.2 249l55.1 69.2z"/><path fill="#1d1807" fill-opacity=".5" d="m285 162.3-50 67.4 42.9-24.4 40.3-.5z"/><circle r="1" fill="#d8d1b1" fill-opacity=".5" transform="matrix(-3.86058 43.25692 -28.32576 -2.528 8.4 129.5)"/><circle r="1" fill="#6e4622" fill-opacity=".5" transform="matrix(17.71617 19.18683 -37.71214 34.82153 282.8 38.8)"/><circle r="1" fill="#764d26" fill-opacity=".5" transform="rotate(-49.6 215 -121.4)scale(24.64774 86.73894)"/><circle r="1" fill="#d2c5a5" fill-opacity=".5" transform="matrix(21.66706 -11.14313 20.86015 40.56112 126.9 146.8)"/><path fill="#f8ebd0" fill-opacity=".5" d="m223.2 52.1-34-8.2-1.1 51.6z"/></g></svg>