<svg xmlns="http://www.w3.org/2000/svg" width="300" height="300"><g filter="blur(12px)"><rect width="200%" height="200%" x="-50%" y="-50%" fill="#736e73"/><rect width="100%" height="100%" fill="#736e73"/><circle r="1" fill="#fff" fill-opacity=".5" transform="matrix(-186.6019 -233.40518 170.15912 -136.03818 185 168.4)"/><circle r="1" fill="#e6d4ef" fill-opacity=".5" transform="matrix(-165.8443 9.64777 -12.51727 -215.17067 178.8 136.7)"/><circle r="1" fill="#92888d" fill-opacity=".5" transform="rotate(124.4 76.5 170.4)scale(71.22597 20.03847)"/><path fill="#3e453c" fill-opacity=".5" d="M169 21.4 139.5 23l12.6-41 21.6 14.7z"/><circle r="1" fill="#f0e6f7" fill-opacity=".5" transform="rotate(-37.6 290 7.3)scale(38.58715 65.7025)"/><circle r="1" fill="#8d7f8c" fill-opacity=".5" transform="matrix(9.1018 7.4763 -34.30829 41.7676 217.4 63.7)"/><circle r="1" fill="#978398" fill-opacity=".5" transform="rotate(116.7 -61.9 130.1)scale(17.79405 80.67972)"/><path fill="#797376" fill-opacity=".5" d="M114.5 66.5 112.8 98l-31.6-1.7L83 64.8z"/></g></svg>