<svg xmlns="http://www.w3.org/2000/svg" width="300" height="300"><g filter="blur(12px)"><rect width="200%" height="200%" x="-50%" y="-50%" fill="#a08b57"/><rect width="100%" height="100%" fill="#a08b57"/><g fill-opacity=".5" transform="translate(.6 .6)scale(1.17188)"><circle r="1" fill="#b9afa5" transform="matrix(-186.30795 -79.23596 51.75856 -121.7002 118.7 121)"/><circle r="1" fill="#fff5e3" transform="matrix(-14.67398 -12.0963 30.99404 -37.59877 225.4 185)"/><circle r="1" fill="#fffeea" transform="matrix(8.03533 -47.17378 14.60774 2.4882 33 15.3)"/><path fill="#5a4f38" d="m23.6 123.4 84.8 18.9-22.6-46-53.3 2.9z"/><circle cx="123" cy="62" r="17" fill="#fffdd5"/><path fill="#544f30" d="M35.9 177.3 13.2 188l-35-75.2L.7 102z"/><circle r="1" fill="#ffe3cd" transform="matrix(-9.77936 9.6764 -22.17275 -22.40864 34.3 141.2)"/><circle r="1" fill="#f6d3bf" transform="matrix(-12.60444 -29.98479 16.31507 -6.85822 200.9 83.9)"/></g></g></svg>