<svg xmlns="http://www.w3.org/2000/svg" width="300" height="300"><g filter="blur(12px)"><rect width="200%" height="200%" x="-50%" y="-50%" fill="#a48754"/><rect width="100%" height="100%" fill="#a48754"/><g fill-opacity=".5" transform="translate(.6 .6)scale(1.17188)"><ellipse cx="219" cy="82" fill="#4e462f" rx="53" ry="240"/><circle r="1" transform="matrix(7.3879 9.25817 -34.03317 27.15801 64 140.2)"/><circle r="1" fill="#040a00" transform="matrix(21.4823 35.19366 -23.66482 14.44507 11 237.9)"/><circle r="1" fill="#fff9c3" transform="matrix(40.1146 32.72958 -7.96741 9.76515 38.4 54.1)"/><circle r="1" fill="#0b0e02" transform="rotate(156.2 60.5 12.7)scale(33.20541 23.26259)"/><circle r="1" fill="#f7e0b7" transform="matrix(1.30839 -19.14657 38.2844 2.61618 122.8 170.1)"/><circle r="1" fill="#fff3bf" transform="matrix(7.64226 -8.57748 16.6582 14.84191 191.2 62.1)"/><path fill="#fff" d="M170 206h19v27h-19z"/></g></g></svg>