<svg xmlns="http://www.w3.org/2000/svg" width="300" height="300"><g filter="blur(12px)"><rect width="200%" height="200%" x="-50%" y="-50%" fill="#94756d"/><rect width="100%" height="100%" fill="#94756d"/><g fill-opacity=".5" transform="translate(.6 .6)scale(1.17188)"><circle r="1" fill="#4a8f67" transform="matrix(-118.55466 -132.59617 190.09638 -169.96578 117.7 157)"/><circle r="1" fill="#0d311f" transform="matrix(-11.1994 -11.384 43.40145 -42.69768 129.2 222)"/><circle r="1" fill="#142b1e" transform="matrix(47.31487 -49.51219 12.37045 11.82146 252.1 39.1)"/><path fill="#fffed4" d="m245 97.1-26.3 16.4L207 95l26.3-16.4z"/><circle cx="188" cy="222" r="25" fill="#eea19a"/><circle r="1" fill="#082617" transform="rotate(27.5 -60 49.8)scale(17.67703 21.9845)"/><path fill="#b6aea1" d="M46 149h80v32H46z"/><circle r="1" fill="#a8a789" transform="matrix(45.90155 19.37207 -10.66333 25.26646 189.4 120.3)"/></g></g></svg>