<svg xmlns="http://www.w3.org/2000/svg" width="300" height="300"><g filter="blur(12px)"><rect width="200%" height="200%" x="-50%" y="-50%" fill="#a3799b"/><rect width="100%" height="100%" fill="#a3799b"/><g fill-opacity=".5" transform="translate(.6 .6)scale(1.17188)"><circle cx="28" cy="165" r="236" fill="#b6bb74"/><circle r="1" fill="#fcdebb" transform="matrix(96.73563 -68.45927 12.66748 17.89965 180.8 208.4)"/><path fill="#302c3b" d="m190.6 124.5 32.5 19.6-23.7 39.4-32.5-19.6z"/><path fill="#55405a" d="M73 10h29v107H73z"/><circle r="1" fill="#5a4d48" transform="matrix(30.53747 -5.11606 4.14938 24.76746 114.8 182.3)"/><circle r="1" fill="#130d16" transform="matrix(-14.47103 5.29564 -4.48158 -12.24648 136.2 120.7)"/><path fill="#ffefbc" d="m19.6 187.3 25.7 15.4-28.9 48-25.7-15.4z"/><ellipse cx="54" cy="162" fill="#eed4b4" rx="35" ry="29"/></g></g></svg>