<svg xmlns="http://www.w3.org/2000/svg" width="300" height="300"><g filter="blur(12px)"><rect width="200%" height="200%" x="-50%" y="-50%" fill="#aa6261"/><rect width="100%" height="100%" fill="#aa6261"/><g fill-opacity=".5" transform="translate(.6 .6)scale(1.17188)"><ellipse cx="113" cy="130" fill="#b6b4b5" rx="176" ry="135"/><circle r="1" fill="#862600" transform="matrix(-29.20944 -37.92923 20.29103 -15.6262 160.9 17)"/><circle r="1" fill="#5d2508" transform="matrix(-29.3327 5.38356 -3.51794 -19.16775 31.1 148.6)"/><circle r="1" fill="#d2d5d4" transform="matrix(-65.67337 -7.94735 2.87706 -23.77476 224.7 200.5)"/><circle r="1" fill="#e8f1f6" transform="matrix(-25.70812 5.4191 -4.20301 -19.939 166.2 128)"/><circle r="1" fill="#f3dee3" transform="matrix(-21.95742 25.5056 -16.11212 -13.8707 38 219.4)"/><circle r="1" fill="#634751" transform="matrix(6.0385 18.5846 -38.61228 12.54589 199.2 85.2)"/><circle r="1" fill="#e3c9c3" transform="matrix(12.01987 -18.04828 62.96897 41.93633 160.8 241.5)"/></g></g></svg>