<svg xmlns="http://www.w3.org/2000/svg" width="300" height="300"><g filter="blur(12px)"><rect width="200%" height="200%" x="-50%" y="-50%" fill="#829c65"/><rect width="100%" height="100%" fill="#829c65"/><g fill-opacity=".5" transform="translate(.6 .6)scale(1.17188)"><circle r="1" fill="#fff" transform="matrix(-80.45213 -159.96126 154.45483 -77.68269 118.6 129.7)"/><circle r="1" fill="#eefaff" transform="matrix(46.63428 -31.21893 15.0866 22.53608 142 229.4)"/><ellipse cx="217" cy="229" fill="#2e5614" rx="15" ry="14"/><circle cx="108" cy="84" r="15" fill="#355b1b"/><circle r="1" fill="#e8f6f9" transform="matrix(-29.36648 -69.8601 29.36256 -12.34288 136.2 36.5)"/><path fill="#f7ffff" d="m268 168 3 76-90-55z"/><path fill="#385632" d="m164.6 103.5-50.9-2.5 50.3 26.6 1.3-9.7z"/><circle r="1" fill="#fff" transform="matrix(38.89879 8.41022 -3.57723 16.54532 21.5 36.2)"/></g></g></svg>