<svg xmlns="http://www.w3.org/2000/svg" width="300" height="300"><g filter="blur(12px)"><rect width="200%" height="200%" x="-50%" y="-50%" fill="#5c7ca0"/><rect width="100%" height="100%" fill="#5c7ca0"/><g fill-opacity=".5" transform="translate(.6 .6)scale(1.17188)"><circle cx="74" cy="128" r="226" fill="#fff"/><circle r="1" fill="#dcc6dc" transform="matrix(-53.30086 -79.61987 196.53065 -131.5658 158.1 108.4)"/><circle r="1" fill="#4e678f" transform="matrix(-7.61288 8.27895 -17.18796 -15.80514 110.4 110.3)"/><circle r="1" fill="#586491" transform="matrix(16.14286 -2.86274 6.86866 38.73207 255 212.2)"/><circle r="1" fill="#495c8b" transform="matrix(-5.84584 1.47656 -5.1582 -20.42172 194 199)"/><path fill="#7d8baa" d="m241 52-42 81 1-45z"/><path fill="#3e4c81" d="m-14.9 42.9 12.7-26.1 17 8.3L2.3 51.2z"/><path fill="#6d759e" d="M64.7 59.4 45.5 68 33.3 40.6 52.5 32z"/></g></g></svg>