<svg xmlns="http://www.w3.org/2000/svg" width="300" height="300"><g filter="blur(12px)"><rect width="200%" height="200%" x="-50%" y="-50%" fill="#867469"/><rect width="100%" height="100%" fill="#867469"/><circle r="1" fill="#ffe2a1" fill-opacity=".5" transform="rotate(151.3 64.5 79.2)scale(249.08646 211.71222)"/><circle r="1" fill="#ffd990" fill-opacity=".5" transform="matrix(3.39903 42.81222 -63.85984 5.07009 249.3 233)"/><path fill="#464e40" fill-opacity=".5" d="m135 311.8 9.3-40.5 71-20.6-45.5 50.1z"/><path fill="#526551" fill-opacity=".5" d="m-12.3 120.1 132.4-75 9.4 38.7z"/><circle r="1" fill="#ffe78e" fill-opacity=".5" transform="matrix(-13.29124 -22.9294 38.1737 -22.12775 101.2 189.7)"/><circle r="1" fill="#7f856d" fill-opacity=".5" transform="matrix(20.97411 -5.01358 17.91218 74.93487 185.2 136.9)"/><circle r="1" fill="#ffde92" fill-opacity=".5" transform="rotate(-165.7 90.4 .2)scale(60.92306 17.1165)"/><circle r="1" fill="#70775b" fill-opacity=".5" transform="matrix(44.91447 -.4925 .16417 14.97132 140 226)"/></g></svg>