<svg xmlns="http://www.w3.org/2000/svg" width="300" height="300"><g filter="blur(12px)"><rect width="200%" height="200%" x="-50%" y="-50%" fill="#6b82a5"/><rect width="100%" height="100%" fill="#6b82a5"/><g fill-opacity=".5" transform="translate(.6 .6)scale(1.17188)"><circle r="1" fill="#fff" transform="matrix(61.34297 -158.92316 196.58005 75.8782 123.7 117.7)"/><circle r="1" fill="#4b5d8e" transform="rotate(-114.4 139.1 34.7)scale(35.55234 22.30876)"/><circle cx="62" cy="180" r="77" fill="#e8d8ea"/><circle r="1" fill="#e1d2e6" transform="matrix(-75.22704 -49.40642 64.04951 -97.52285 183.3 30.5)"/><circle r="1" fill="#fff5ff" transform="matrix(-25.65935 -8.5855 9.14425 -27.32928 21.2 37)"/><circle r="1" fill="#f8e3f2" transform="matrix(44.19507 -1.00293 .66215 29.1785 169.5 234.9)"/><path fill="#3f5288" d="m44.5-10.8-35.7-.1 44.8 38.6L74-16z"/><path fill="#4a5c8e" d="m49.7 78.3 28.2-17.7 17.5 19-13.7 3.2z"/></g></g></svg>