<svg xmlns="http://www.w3.org/2000/svg" width="300" height="300"><g filter="blur(12px)"><rect width="200%" height="200%" x="-50%" y="-50%" fill="#8c7373"/><rect width="100%" height="100%" fill="#8c7373"/><g fill-opacity=".5" transform="translate(.6 .6)scale(1.17188)"><circle cx="190" cy="58" r="201" fill="#b7af92"/><circle r="1" fill="#ffd49c" transform="matrix(-23.9172 -11.16169 21.54997 -46.17716 196.5 64.4)"/><circle r="1" fill="#484d40" transform="matrix(-41.06447 -81.17355 14.79135 -7.48272 101.3 182.9)"/><circle r="1" fill="#ffffb8" transform="rotate(30.5 -425.5 136)scale(18.44224 23.53668)"/><ellipse cx="49" cy="198" fill="#425748" rx="27" ry="44"/><path fill="#ffeccd" d="m192.3 238.1 9.3-29.6 47.8 62.5-87.8-13.9z"/><path fill="#000b00" d="m140.5 83.9 3 17.6 22.6 6.4-8.1-29.5z"/><circle r="1" fill="#f8c195" transform="matrix(20.33523 4.94287 -11.3981 46.89237 179.3 135.8)"/></g></g></svg>