<svg xmlns="http://www.w3.org/2000/svg" width="300" height="300"><g filter="blur(12px)"><rect width="200%" height="200%" x="-50%" y="-50%" fill="#ab7d61"/><rect width="100%" height="100%" fill="#ab7d61"/><g fill-opacity=".5" transform="translate(.6 .6)scale(1.17188)"><circle r="1" fill="#e5e8cd" transform="matrix(-116.48806 213.03103 -145.4884 -79.5549 78.5 128.6)"/><path fill="#2d3728" d="M197.5 21.5 252 56.9l-11.5 17.6L186 39.1z"/><ellipse cx="125" cy="50" fill="#89613c" rx="15" ry="32"/><path fill="#241a06" d="m162 144.7-7-13.2 23-12.2 7 13.2z"/><circle r="1" fill="#6c552a" transform="matrix(5.95663 3.6152 -16.03316 26.41725 58.8 68.7)"/><circle r="1" fill="#b9c9bf" transform="matrix(-6.93576 38.65421 -15.51383 -2.78366 255 181)"/><circle r="1" fill="#784e26" transform="matrix(-7.58728 -9.04217 13.94604 -11.70212 65.3 227.9)"/><circle r="1" fill="#d3ceba" transform="matrix(23.29327 -55.1429 41.91418 17.70524 128.2 198.4)"/></g></g></svg>