<svg xmlns="http://www.w3.org/2000/svg" width="300" height="300"><g filter="blur(12px)"><rect width="200%" height="200%" x="-50%" y="-50%" fill="#a18573"/><rect width="100%" height="100%" fill="#a18573"/><g fill-opacity=".5" transform="translate(.6 .6)scale(1.17188)"><circle r="1" fill="#d0c5ce" transform="matrix(-43.73679 -110.085 43.52803 -17.2937 220.2 52.5)"/><path fill="#970000" d="m153.6 83.1 34.7 9.3-11.9 44.5-34.7-9.3z"/><circle r="1" fill="#8b0300" transform="matrix(9.70742 27.15044 -16.18138 5.78552 100.1 184)"/><circle cx="189" cy="195" r="67" fill="#af9aaa"/><path fill="#880200" d="m63.5 177 4 46-23 2-4-46z"/><circle r="1" fill="#c4919d" transform="matrix(-112.05514 -31.2031 25.45794 -91.4234 34.7 70.2)"/><circle r="1" fill="#243b49" transform="rotate(100.9 2.6 199.8)scale(8.56158 43.74428)"/><circle cx="130" cy="92" r="14" fill="#00a3fc"/></g></g></svg>