<svg xmlns="http://www.w3.org/2000/svg" width="300" height="300"><g filter="blur(12px)"><rect width="200%" height="200%" x="-50%" y="-50%" fill="#a58453"/><rect width="100%" height="100%" fill="#a58453"/><g fill-opacity=".5" transform="translate(.6 .6)scale(1.17188)"><path fill="#ffffc0" d="m261 98-89-18 65-23z"/><circle r="1" fill="#a95f12" transform="matrix(-79.5976 21.13023 -10.90695 -41.08649 193 18.3)"/><circle r="1" fill="#694817" transform="rotate(-136.5 108.3 14.6)scale(43.68482 17.05978)"/><path fill="#dfc4a1" d="m116.9 133.9 36.3-43.4 12.7 68.1-31.3.9z"/><circle r="1" fill="#9d6625" transform="rotate(152.1 75.8 139.2)scale(56.44634 67.07762)"/><path fill="#ddcf9a" d="m-16 207.3.3 4.9L40.6 224l40-58.4z"/><ellipse cx="65" cy="30" fill="#754d13" rx="24" ry="33"/><path fill="#ffe5a7" d="m32.5 143.9-48.5 5.8v18.5l63.1-1.1z"/></g></g></svg>