<svg xmlns="http://www.w3.org/2000/svg" width="300" height="300"><g filter="blur(12px)"><rect width="200%" height="200%" x="-50%" y="-50%" fill="#639c72"/><rect width="100%" height="100%" fill="#639c72"/><g fill-opacity=".5" transform="translate(.6 .6)scale(1.17188)"><circle r="1" fill="#ffbfae" transform="rotate(-18.3 425.6 -314.7)scale(191.25731 198.37959)"/><circle r="1" fill="#655745" transform="matrix(-28.49326 12.2673 -6.33773 -14.72064 157.1 202.4)"/><ellipse cx="100" cy="52" fill="#d9b294" rx="155" ry="147"/><circle r="1" fill="#4a4739" transform="rotate(56.6 2.6 291.8)scale(14.59125 23.15324)"/><circle r="1" fill="#edbf9a" transform="matrix(27.07533 19.45043 -60.1561 83.73834 202.6 229)"/><path d="m-12.5 160.4 21.8-2.6 3.2 25.8-21.8 2.6z"/><circle r="1" fill="#322d14" transform="rotate(47.4 -264.6 186.5)scale(16.84438 8.84893)"/><path fill="#295631" d="M237.8 53.2 200.3 70l-4-9.1L233.6 44z"/></g></g></svg>