<svg xmlns="http://www.w3.org/2000/svg" width="300" height="300"><g filter="blur(12px)"><rect width="200%" height="200%" x="-50%" y="-50%" fill="#90645a"/><rect width="100%" height="100%" fill="#90645a"/><g fill-opacity=".5" transform="translate(.6 .6)scale(1.17188)"><circle r="1" fill="#fecd80" transform="matrix(254.91817 6.45971 -2.54947 100.60907 121.4 167.5)"/><circle cx="157" r="124" fill="#90679f"/><circle r="1" fill="#fa9f00" transform="matrix(24.01986 -86.95082 30.5178 8.43044 120.6 255)"/><circle r="1" fill="#e7d69f" transform="matrix(27.7393 -6.04815 8.01641 36.76658 92.6 177.9)"/><circle r="1" fill="#5d37a7" transform="rotate(-158 9.4 10.9)scale(130.55415 15.84263)"/><path fill="#490fac" d="m242 113.4 10.7 28-18.7 7.2-10.7-28z"/><path fill="#ed9a00" d="m257.2 260.5-38.7-86.8 18.3-8.2 38.7 86.8z"/><path fill="#b05a24" d="m-14.4 119.6-1.8-21 94.6-8.2 1.8 21z"/></g></g></svg>