<svg xmlns="http://www.w3.org/2000/svg" width="300" height="300"><g filter="blur(12px)"><rect width="200%" height="200%" x="-50%" y="-50%" fill="#5d8fa0"/><rect width="100%" height="100%" fill="#5d8fa0"/><g fill-opacity=".5" transform="translate(.6 .6)scale(1.17188)"><circle r="1" fill="#ffcaad" transform="rotate(114.4 24.6 112.8)scale(171.56048 202.50874)"/><path fill="#ffe6b5" d="M195.5 120.5 164 42.6l32.5-13.1 31.5 77.9z"/><circle cx="183" cy="215" r="80" fill="#8e9a8e"/><path fill="#ffda93" d="m-3.4 86 41.3 11.8L3.4 218l-41.3-11.8z"/><circle r="1" fill="#7b9296" transform="matrix(22.6311 -41.1658 69.0052 37.93593 48 255)"/><ellipse cx="78" cy="87" fill="#fff581" rx="10" ry="35"/><path fill="#ffff6b" d="m145.7 271-3.7-26.9 29-12.7 2.3 19.8z"/><circle r="1" fill="#f1b0e2" transform="matrix(17.80719 .17465 -.2251 22.95064 188.1 24)"/></g></g></svg>