<svg xmlns="http://www.w3.org/2000/svg" width="300" height="300"><g filter="blur(12px)"><rect width="200%" height="200%" x="-50%" y="-50%" fill="#8f736d"/><rect width="100%" height="100%" fill="#8f736d"/><g fill-opacity=".5" transform="translate(.6 .6)scale(1.17188)"><ellipse cx="13" cy="184" fill="#f4ecbb" rx="65" ry="31"/><circle r="1" fill="#156b41" transform="matrix(12.5349 16.81086 -108.45375 80.8678 112.7 181.4)"/><path fill="#ffe5a7" d="m73.4 71.6 86 29.6-10.8 31.2-86-29.6z"/><circle r="1" fill="#fff8ae" transform="matrix(-14.5366 39.87934 -15.68634 -5.7179 213.2 158)"/><circle r="1" fill="#02542c" transform="matrix(43.40014 22.79102 -8.7992 16.75602 193.5 66.4)"/><circle r="1" fill="#fffabb" transform="matrix(-5.04547 -16.29927 29.13611 -9.01913 157.4 208)"/><circle r="1" fill="#bac59b" transform="rotate(76.9 -21.1 44.2)scale(73.80707 25.48185)"/><ellipse cx="163" cy="252" fill="#14693e" rx="52" ry="33"/></g></g></svg>