<svg xmlns="http://www.w3.org/2000/svg" width="300" height="300"><g filter="blur(12px)"><rect width="200%" height="200%" x="-50%" y="-50%" fill="#8aac63"/><rect width="100%" height="100%" fill="#8aac63"/><g fill-opacity=".5" transform="translate(.6 .6)scale(1.17188)"><ellipse cx="82" cy="151" fill="#e4dfff" rx="144" ry="225"/><circle r="1" fill="#264c0c" transform="matrix(13.78293 10.03517 -33.0039 45.3296 119.7 144.6)"/><circle r="1" fill="#011f00" transform="matrix(-.81838 -62.50371 13.89466 -.18193 222 50)"/><circle r="1" fill="#001900" transform="matrix(-22.16723 -2.5956 4.11972 -35.18357 55.5 0)"/><circle r="1" fill="#002500" transform="matrix(-16.49587 32.9415 -10.2284 -5.122 55.8 79.3)"/><circle r="1" fill="#113600" transform="matrix(-15.29883 .59408 -1.42723 -36.75453 143.5 231.9)"/><ellipse cx="186" cy="183" fill="#f8fbff" rx="35" ry="72"/><circle r="1" fill="#f4f6ff" transform="matrix(2.33002 70.42325 -55.78027 1.84554 15.7 183.9)"/></g></g></svg>