<svg xmlns="http://www.w3.org/2000/svg" width="300" height="300"><g filter="blur(12px)"><rect width="200%" height="200%" x="-50%" y="-50%" fill="#839462"/><rect width="100%" height="100%" fill="#839462"/><g fill-opacity=".5" transform="translate(.6 .6)scale(1.17188)"><circle r="1" fill="#70431d" transform="matrix(-79.9615 234.88539 -153.64643 -52.30551 106.5 138)"/><ellipse cx="43" cy="206" fill="#f6e6be" rx="23" ry="18"/><circle r="1" fill="#f4ba61" transform="rotate(78.8 -32.3 44.4)scale(38.70821 14.9017)"/><path fill="#efe2b0" d="m172.1 271-21.4-21.7 22.1-35.1 13.7 31.2z"/><circle cx="83" cy="156" r="16" fill="#e9e8c0"/><circle r="1" fill="#daae68" transform="rotate(-73.3 173.8 -137)scale(37.16593 26.17802)"/><path fill="#ebbb83" d="m154.7 208.6-6.2-61 19.9 11.5 6.5 32.8z"/><circle r="1" fill="#d8b377" transform="matrix(-12.46915 -6.40827 11.5368 -22.44818 144.6 22.4)"/></g></g></svg>