<svg xmlns="http://www.w3.org/2000/svg" width="300" height="300"><g filter="blur(12px)"><rect width="200%" height="200%" x="-50%" y="-50%" fill="#447d94"/><rect width="100%" height="100%" fill="#447d94"/><circle r="1" fill="#680b00" fill-opacity=".5" transform="matrix(12.56388 30.71537 -98.26983 40.1965 116.3 212.4)"/><circle r="1" fill="#980100" fill-opacity=".5" transform="matrix(68.85629 -4.69415 2.38985 35.05555 62.8 14.4)"/><circle r="1" fill="#ce6151" fill-opacity=".5" transform="rotate(-14.5 190.7 -916.5)scale(67.78357 100.1028)"/><circle r="1" fill="#ffe0dc" fill-opacity=".5" transform="matrix(17.68244 12.00538 -38.09828 56.11405 210.1 209.5)"/><path fill="#6ef7ff" fill-opacity=".5" d="M109.2 202.8 80.1 230l-28.8-31 29.2-27z"/><circle r="1" fill="#eff2ff" fill-opacity=".5" transform="matrix(-10.02055 -22.09018 21.9554 -9.95941 249.5 104.2)"/><path fill="#2f0000" fill-opacity=".5" d="M164.6.6H201v52.7h-36.4z"/><circle r="1" fill="#5d0000" fill-opacity=".5" transform="rotate(69.9 24.9 282.7)scale(17.44609 34.90299)"/></g></svg>