<svg xmlns="http://www.w3.org/2000/svg" width="300" height="300"><g filter="blur(12px)"><rect width="200%" height="200%" x="-50%" y="-50%" fill="#7481a0"/><rect width="100%" height="100%" fill="#7481a0"/><circle r="1" fill="#e4ebf0" fill-opacity=".5" transform="matrix(-219.46046 82.9272 -84.36174 -223.25687 166 131.9)"/><path fill="#7fa645" fill-opacity=".5" d="m113 190.4 3.6-38.6L85 189.3z"/><circle r="1" fill="#8896b7" fill-opacity=".5" transform="rotate(35.7 -136.8 442)scale(32.0292 37.31686)"/><path fill="#426222" fill-opacity=".5" d="m15.8 151.8-4.7-14.1 20-27z"/><circle r="1" fill="#c2cad8" fill-opacity=".5" transform="matrix(73.26302 -7.92517 4.34254 40.14397 167.4 77)"/><path fill="#f3f1f7" fill-opacity=".5" d="M215 246.7h27v34h-27z"/><path fill="#0d3300" fill-opacity=".5" d="m54 175-7.8 2.9-5.2-14.3 7.7-2.8z"/><circle r="1" fill="#8694b6" fill-opacity=".5" transform="matrix(-14.14508 -.79083 5.21888 -93.3465 158.2 266.4)"/></g></svg>