<svg xmlns="http://www.w3.org/2000/svg" width="300" height="300"><g filter="blur(12px)"><rect width="200%" height="200%" x="-50%" y="-50%" fill="#a568a5"/><rect width="100%" height="100%" fill="#a568a5"/><g fill-opacity=".5" transform="translate(.6 .6)scale(1.17188)"><circle r="1" fill="#ffc9ac" transform="rotate(7 -1073 1220.5)scale(174.89906 231.45243)"/><circle r="1" fill="#cddeff" transform="matrix(-40.2871 -103.86635 29.64658 -11.49915 103.5 102.7)"/><circle cx="255" cy="38" r="67" fill="#ff3d57"/><circle r="1" fill="#ea484e" transform="matrix(-19.57777 -3.62252 18.7595 -101.38486 158.6 235.7)"/><circle r="1" fill="#ff0242" transform="matrix(-14.30597 6.4594 -12.94875 -28.6783 66.6 140.3)"/><circle r="1" fill="#ff0b3f" transform="matrix(7.88415 -21.4285 14.79347 5.44294 90 203)"/><circle r="1" fill="#ddfff4" transform="matrix(-11.91061 -5.37785 42.67854 -94.5225 112.3 225.4)"/><circle r="1" fill="#ff314c" transform="rotate(10.9 -1057.4 179.6)scale(14.94541 36.88354)"/></g></g></svg>