<svg xmlns="http://www.w3.org/2000/svg" width="300" height="300"><g filter="blur(12px)"><rect width="200%" height="200%" x="-50%" y="-50%" fill="#a86d71"/><rect width="100%" height="100%" fill="#a86d71"/><g fill-opacity=".5" transform="translate(.6 .6)scale(1.17188)"><circle cx="212" cy="166" r="230" fill="#a0b9b6"/><circle r="1" fill="#5d171d" transform="matrix(11.4118 -4.42635 12.11629 31.23766 161.2 133.5)"/><circle r="1" fill="#d1dbdf" transform="matrix(12.65344 32.36914 -29.08782 11.37074 238 186)"/><circle r="1" fill="#563c48" transform="matrix(30.09207 5.41178 -3.18942 17.73468 184.4 22.1)"/><circle r="1" fill="#d3ffff" transform="rotate(170.1 87.6 80)scale(11.16663 34.78193)"/><circle r="1" fill="#635d67" transform="matrix(36.3453 46.68759 -13.49675 10.50693 202.2 226.2)"/><path fill="#573842" d="M74.7 18.9 64.4 58.3-16 141.9l36.5-74.5z"/><circle r="1" fill="#743443" transform="matrix(-41.31065 27.0298 -9.49334 -14.50902 241 114.5)"/></g></g></svg>