<svg xmlns="http://www.w3.org/2000/svg" width="300" height="300"><g filter="blur(12px)"><rect width="200%" height="200%" x="-50%" y="-50%" fill="#7b8550"/><rect width="100%" height="100%" fill="#7b8550"/><g fill-opacity=".5" transform="translate(.6 .6)scale(1.17188)"><circle r="1" fill="#ba7f54" transform="rotate(-30.6 310.3 -210.6)scale(170.5732 246.48039)"/><circle r="1" fill="#0c1c09" transform="matrix(-64.4673 4.13828 -.92573 -14.42137 230.4 54.5)"/><path fill="#caebd6" d="m56 167 26-56 4 63z"/><circle r="1" fill="#c0d6bc" transform="matrix(13.0494 -39.76946 13.04685 4.28101 74.3 12.3)"/><path fill="#001505" d="m61.8 174.7-18.1 10.5-11.5-20 18.1-10.4z"/><circle cx="227" cy="229" r="26" fill="#a9c3a4"/><circle r="1" fill="#c2e3cc" transform="rotate(-104.3 16.2 16.6)scale(10.72291 32.40977)"/><circle r="1" fill="#b2b999" transform="rotate(-40.4 125 -201)scale(49.93341 13.22069)"/></g></g></svg>