<svg xmlns="http://www.w3.org/2000/svg" width="300" height="300"><g filter="blur(12px)"><rect width="200%" height="200%" x="-50%" y="-50%" fill="#b1765a"/><rect width="100%" height="100%" fill="#b1765a"/><g fill-opacity=".5" transform="translate(.6 .6)scale(1.17188)"><circle r="1" fill="#e1eaad" transform="matrix(-49.11175 183.28756 -184.39565 -49.40866 113.7 105.7)"/><circle r="1" fill="#fff623" transform="rotate(-109.8 101 -51.7)scale(20.03828 54.33326)"/><circle r="1" fill="#a492c5" transform="matrix(36.05192 34.93674 -49.23796 50.80963 134 171.4)"/><path fill="#e6aa0d" d="m168 63 64 61-178-13z"/><circle r="1" fill="#f0b520" transform="matrix(60.14846 -38.78133 14.42777 22.37695 70.7 22.2)"/><circle r="1" fill="#65376a" transform="matrix(.56647 -31.11552 14.87912 .27088 198 156)"/><path fill="#fffa2a" d="m210.9 127.5 28-15.6 40.2 72.6-28 15.6z"/><ellipse cx="136" cy="242" fill="#cbd2ff" rx="18" ry="42"/></g></g></svg>