<svg xmlns="http://www.w3.org/2000/svg" width="300" height="300"><g filter="blur(12px)"><rect width="200%" height="200%" x="-50%" y="-50%" fill="#aa9264"/><rect width="100%" height="100%" fill="#aa9264"/><g fill-opacity=".5" transform="translate(.6 .6)scale(1.17188)"><circle r="1" fill="#ffca85" transform="matrix(171.41392 -74.67537 81.15581 186.28947 143 143)"/><path fill="#ad8dff" d="m206.8 64 4.3 60.8-46 3.2-4.2-60.8z"/><ellipse cx="211" cy="171" fill="#ffa135" rx="133" ry="48"/><circle cx="75" cy="16" r="89" fill="#ebc6b0"/><path fill="#6379ff" d="m37.5 140.5-42.8-21.8L6.5 95.5l42.8 21.8z"/><circle r="1" fill="#d730ba" transform="matrix(29.51377 3.33232 -1.90379 16.86146 144 205.4)"/><path fill="#b99ef6" d="m102.4 216.3-48.3-25.6-14.2 6.4 3.7 51.3z"/><circle r="1" fill="#ff9b17" transform="rotate(139.7 -17.8 91.6)scale(40.58811 29.49932)"/></g></g></svg>