<svg xmlns="http://www.w3.org/2000/svg" width="300" height="300"><g filter="blur(12px)"><rect width="200%" height="200%" x="-50%" y="-50%" fill="#6f8a73"/><rect width="100%" height="100%" fill="#6f8a73"/><g fill-opacity=".5" transform="translate(.6 .6)scale(1.17188)"><circle r="1" fill="#ffdcc8" transform="matrix(-29.72608 -11.64952 6.79529 -17.33953 217.5 51.1)"/><circle r="1" fill="#e8beab" transform="matrix(23.27244 -13.783 33.23318 56.11386 227.4 148)"/><circle r="1" fill="#ffd9b9" transform="rotate(-175.6 18.4 108.4)scale(28.83109 23.72093)"/><path fill="#00270b" d="m206 193 17-54-73 33z"/><ellipse cx="159" cy="90" fill="#2a5739" rx="19" ry="72"/><circle r="1" fill="#f2c7b8" transform="matrix(4.35377 -27.29752 16.60329 2.64811 46.5 89.8)"/><circle r="1" fill="#d5d0a6" transform="rotate(-154.6 27.3 8)scale(35.29288 17.79223)"/><path fill="#cdbda9" d="m143 30-20 110-29-75z"/></g></g></svg>