<svg xmlns="http://www.w3.org/2000/svg" width="300" height="300"><g filter="blur(12px)"><rect width="200%" height="200%" x="-50%" y="-50%" fill="#7583a2"/><rect width="100%" height="100%" fill="#7583a2"/><g fill-opacity=".5" transform="translate(.6 .6)scale(1.17188)"><circle cx="191" cy="141" r="236" fill="#fff"/><circle r="1" fill="#ddd4dc" transform="rotate(40.5 -137.6 265.4)scale(255 72.41952)"/><path fill="#899dba" d="m32.6 135 2.4-22.8 30.6-19.7-1.9 30.5z"/><path fill="#93a3bf" d="m143.3 191-21.8 2.7-4.8-38.7 21.8-2.7z"/><circle r="1" fill="#a8b5cc" transform="matrix(39.42305 30.02495 -11.25649 14.77987 145.5 82.4)"/><path fill="#7d8faf" d="m119 254.1 13.6-34.5 8.4 12-10.1 11.4z"/><circle r="1" fill="#dbccd8" transform="matrix(26.38689 1.93773 -3.41371 46.48592 25.9 244)"/><circle r="1" fill="#cccbd8" transform="matrix(8.63976 -33.29564 59.98816 15.5661 213.7 76.2)"/></g></g></svg>