<svg xmlns="http://www.w3.org/2000/svg" width="300" height="300"><g filter="blur(12px)"><rect width="200%" height="200%" x="-50%" y="-50%" fill="#697897"/><rect width="100%" height="100%" fill="#697897"/><g fill-opacity=".5" transform="translate(.6 .6)scale(1.17188)"><ellipse cx="106" cy="112" fill="#a86c67" rx="255" ry="157"/><path fill="#70dfff" d="M93.4 127.2 82 46l36.6-5.2L130 122z"/><circle r="1" fill="#5d393d" transform="matrix(-27.49565 -18.68602 55.53741 -81.72082 234.5 198.5)"/><circle r="1" fill="#cecfe5" transform="matrix(15.35815 -10.4867 16.59933 24.3103 171.7 96.3)"/><circle r="1" fill="#55414a" transform="rotate(-22.8 283.8 -501)scale(24.23236 44.59256)"/><circle r="1" fill="#b88891" transform="rotate(-91 87 46.2)scale(90.90981 37.68298)"/><circle r="1" fill="#b8d6f3" transform="matrix(-22.67064 20.35334 -6.75417 -7.52315 199.2 159)"/><circle r="1" fill="#5b3f4a" transform="matrix(7.2196 33.89614 -21.13695 4.502 78 21)"/></g></g></svg>