<svg xmlns="http://www.w3.org/2000/svg" width="300" height="300"><g filter="blur(12px)"><rect width="200%" height="200%" x="-50%" y="-50%" fill="#899462"/><rect width="100%" height="100%" fill="#899462"/><g fill-opacity=".5" transform="translate(.6 .6)scale(1.17188)"><circle cx="154" cy="151" r="175" fill="#8c6031"/><circle r="1" fill="#011907" transform="rotate(-41.6 191.8 -161)scale(17.97951 32.74525)"/><circle r="1" fill="#fff5cf" transform="rotate(14.8 -799.3 953.4)scale(29.84232 10.5988)"/><circle r="1" fill="#cfd0b6" transform="matrix(9.69234 21.82991 -24.11773 10.70812 39.8 18)"/><path fill="#000a00" d="m76 34 34.8-3.7L114 60l-34.8 3.6z"/><ellipse cx="90" cy="71" fill="#fffff5" rx="19" ry="9"/><path fill="#000100" d="m33.6 216.8-4-32.8 22.8-2.8 4 32.8z"/><circle r="1" fill="#0e230f" transform="matrix(-1.60546 16.67334 -17.64827 -1.69933 52 112.2)"/></g></g></svg>