<svg xmlns="http://www.w3.org/2000/svg" width="300" height="300"><g filter="blur(12px)"><rect width="200%" height="200%" x="-50%" y="-50%" fill="#5ca46c"/><rect width="100%" height="100%" fill="#5ca46c"/><g fill-opacity=".5" transform="translate(.6 .6)scale(1.17188)"><circle r="1" fill="#ffbfc7" transform="rotate(-19 511.5 -241.3)scale(248.81526 167.26804)"/><circle r="1" fill="#f4d4cf" transform="matrix(57.43459 -19.45374 21.03364 62.099 194.4 164.7)"/><circle r="1" fill="#515c33" transform="matrix(35.35189 -21.40986 10.27693 16.96923 126.4 217.4)"/><circle r="1" fill="#8b7b5c" transform="matrix(12.65045 -24.13743 98.52938 51.63934 75.5 44.6)"/><circle r="1" fill="#ffd6b7" transform="matrix(-19.88827 4.211 -23.33126 -110.19176 52.8 203.4)"/><path fill="#4f381e" d="M70.1 46 11.8 94.5l30.9-9.7L104.9 61z"/><circle r="1" fill="#ffe7c2" transform="matrix(-34.36598 1.3202 -.9927 -25.84057 128.4 167.1)"/><circle cx="83" cy="155" r="12" fill="#1a1216"/></g></g></svg>