<svg xmlns="http://www.w3.org/2000/svg" width="300" height="300"><g filter="blur(12px)"><rect width="200%" height="200%" x="-50%" y="-50%" fill="#a18c59"/><rect width="100%" height="100%" fill="#a18c59"/><circle r="1" fill="#d9c099" fill-opacity=".5" transform="matrix(-20.97157 -30.2868 64.85075 -44.90479 114.4 38.5)"/><path fill="#cfae7b" fill-opacity=".5" d="M96.7 310 266.6 78l-284.8 55z"/><circle r="1" fill="#674821" fill-opacity=".5" transform="matrix(34.29294 -25.09864 16.61044 22.6953 209.2 32.7)"/><circle r="1" fill="#855724" fill-opacity=".5" transform="matrix(3.2285 63.35369 -15.50865 .79032 123.6 135.3)"/><circle r="1" fill="#201c13" fill-opacity=".5" transform="rotate(83.4 -118.1 110.1)scale(31.20799 15.14147)"/><circle r="1" fill="#dac498" fill-opacity=".5" transform="matrix(55.21642 64.65012 -9.63466 8.22877 262 195.5)"/><circle r="1" fill="#d2c8ab" fill-opacity=".5" transform="matrix(-20.7968 -5.80657 8.62993 -30.90895 15.8 275.8)"/><path fill="#372a0f" fill-opacity=".5" d="M-18.2 10 65-18.2v37.5z"/></g></svg>