<svg xmlns="http://www.w3.org/2000/svg" width="300" height="300"><g filter="blur(12px)"><rect width="200%" height="200%" x="-50%" y="-50%" fill="#a98d72"/><rect width="100%" height="100%" fill="#a98d72"/><g fill-opacity=".5" transform="translate(.6 .6)scale(1.17188)"><circle r="1" fill="#ec9a46" transform="rotate(-90.5 187 19.3)scale(145.99633 177.79336)"/><ellipse cx="181" cy="24" fill="#7c3573" rx="57" ry="55"/><circle r="1" fill="#4d127c" transform="rotate(176.2 32 82.9)scale(45.78325 13.35209)"/><path fill="#530b6d" d="m12.7 198.9 22.8-10.2 35.8 80.4-22.8 10.2z"/><circle r="1" fill="#4f006d" transform="matrix(16.10837 -6.20275 13.4188 34.84821 10 114.8)"/><circle r="1" fill="#ffe255" transform="rotate(115.6 22.5 149.8)scale(60.43446 26.98107)"/><circle r="1" fill="#45006d" transform="rotate(-155.7 90.5 44.7)scale(12.97342 30.84418)"/><circle r="1" fill="#35007c" transform="rotate(-35.5 457.2 -188)scale(13.42482 21.7488)"/></g></g></svg>