<svg xmlns="http://www.w3.org/2000/svg" width="300" height="300"><g filter="blur(12px)"><rect width="200%" height="200%" x="-50%" y="-50%" fill="#7a7a7a"/><rect width="100%" height="100%" fill="#7a7a7a"/><g fill-opacity=".5" transform="translate(.6 .6)scale(1.17188)"><circle r="1" fill="#fff" transform="rotate(-165.8 57.3 61.5)scale(199.30977 206.91957)"/><circle r="1" fill="#4e4c50" transform="matrix(5.61343 74.05096 -19.48807 1.4773 185.3 193.6)"/><circle r="1" fill="#fffaff" transform="matrix(22.85283 -119.79872 16.73683 3.19272 241.8 123.3)"/><circle r="1" fill="#ebe1f4" transform="matrix(1.81726 -240.57105 43.17062 .3261 3.4 25.5)"/><circle r="1" fill="#faeeff" transform="matrix(14.67485 41.17041 -46.80447 16.68306 105.5 255)"/><path fill="#3f3f3f" d="m271 220-15 27-27-15 15-27z"/><path fill="#6c6c6d" d="m143.2 23 68 1.1-.4 27-68-1.2z"/><ellipse cx="130" cy="190" fill="#fff" rx="13" ry="27"/></g></g></svg>