<svg xmlns="http://www.w3.org/2000/svg" width="300" height="300"><g filter="blur(12px)"><rect width="200%" height="200%" x="-50%" y="-50%" fill="#65896a"/><rect width="100%" height="100%" fill="#65896a"/><g fill-opacity=".5" transform="translate(.6 .6)scale(1.17188)"><circle r="1" fill="#e6b190" transform="matrix(-121.71947 -71.12711 128.65454 -220.16587 92.8 148)"/><circle r="1" fill="#002e00" transform="rotate(134.4 75.1 152.6)scale(20.28752 35.39695)"/><circle r="1" fill="#00320c" transform="matrix(8.89115 -5.43663 10.85956 17.75991 220.4 19.3)"/><path fill="#ffe1c5" d="M177 196h37v48h-37z"/><path fill="#002b00" d="M76-16-15 2l52 13z"/><circle r="1" fill="#1d4824" transform="matrix(-6.79119 7.02004 -15.79146 -15.27665 147.4 231)"/><ellipse cx="32" cy="241" fill="#ffe2b7" rx="25" ry="17"/><circle r="1" fill="#ffddbc" transform="matrix(-11.36263 11.34736 -10.98685 -11.00163 194 13)"/></g></g></svg>