<svg xmlns="http://www.w3.org/2000/svg" width="300" height="300"><g filter="blur(12px)"><rect width="200%" height="200%" x="-50%" y="-50%" fill="#7552b1"/><rect width="100%" height="100%" fill="#7552b1"/><g fill-opacity=".5" transform="translate(.6 .6)scale(1.17188)"><ellipse cx="123" cy="118" fill="#eca95a" rx="154" ry="196"/><path fill="#ff8019" d="m68.8 243-4.5-87 58.9-3 4.5 86.8z"/><path fill="#fffb2a" d="M197 185h59v29h-59z"/><circle r="1" fill="#ffe966" transform="matrix(31.19967 17.13188 -9.1014 16.57498 199.4 143.2)"/><circle r="1" fill="#9076bc" transform="matrix(44.66026 -52.03087 34.73905 29.81797 66.7 72.1)"/><ellipse cx="51" cy="202" fill="#2e26d8" rx="23" ry="14"/><circle r="1" fill="#6763de" transform="matrix(-15.13915 -31.31683 21.30234 -10.29796 160.3 93)"/><path fill="#ff7f00" d="m187.3 222.6 27.8-3 3.6 33.8-27.8 3z"/></g></g></svg>