<svg xmlns="http://www.w3.org/2000/svg" width="300" height="300"><g filter="blur(12px)"><rect width="200%" height="200%" x="-50%" y="-50%" fill="#608fb2"/><rect width="100%" height="100%" fill="#608fb2"/><g fill-opacity=".5" transform="translate(.6 .6)scale(1.17188)"><circle r="1" fill="#ffb68f" transform="matrix(61.84073 229.63557 -192.57973 51.86162 154.6 120.6)"/><circle r="1" fill="#f9a392" transform="matrix(3.45263 -109.86458 254.87417 8.00974 129.2 179.9)"/><circle r="1" fill="#fe3201" transform="rotate(54.3 -153 313.5)scale(41.46098 16.53815)"/><circle r="1" fill="#96a2c8" transform="matrix(-132.2223 .9231 -.22278 -31.91007 112.5 34)"/><circle cx="12" cy="166" r="20" fill="#da4f50"/><ellipse cx="189" cy="118" fill="#b3a2b1" rx="154" ry="15"/><circle r="1" fill="#e7c39e" transform="matrix(5.0432 -37.30037 60.46993 8.17586 81.3 192.2)"/><path fill="#d86a25" d="m18.5 251 22.4-16.8L59.5 259l-22.4 16.8z"/></g></g></svg>