<svg xmlns="http://www.w3.org/2000/svg" width="300" height="300"><g filter="blur(12px)"><rect width="200%" height="200%" x="-50%" y="-50%" fill="#a99060"/><rect width="100%" height="100%" fill="#a99060"/><g fill-opacity=".5" transform="translate(.6 .6)scale(1.17188)"><circle r="1" fill="#6a330e" transform="matrix(51.39785 167.02214 -133.47805 41.0753 136.3 147.5)"/><circle r="1" fill="#310000" transform="rotate(169.6 104.1 106.4)scale(97.94596 17.9285)"/><circle r="1" fill="#e1b66f" transform="matrix(10.97522 9.8912 -61.30723 68.0261 117.6 184.7)"/><path fill="#3b0300" d="m191 47.9 16.5 93.5-26.5 4.7-16.5-93.5z"/><circle r="1" fill="#300000" transform="rotate(-66 233.9 44.5)scale(30.63486 14.74172)"/><circle r="1" fill="#cb9f63" transform="matrix(-68.9376 52.75074 -12.38644 -16.18729 115.8 40.7)"/><ellipse cx="76" cy="173" fill="#300000" rx="12" ry="33"/><circle r="1" fill="#2c0000" transform="matrix(5.92692 7.61346 -25.83082 20.10874 22 114.9)"/></g></g></svg>