<svg xmlns="http://www.w3.org/2000/svg" width="300" height="300"><g filter="blur(12px)"><rect width="200%" height="200%" x="-50%" y="-50%" fill="#945a62"/><rect width="100%" height="100%" fill="#945a62"/><circle r="1" fill="#ffd088" fill-opacity=".5" transform="matrix(-99.85229 281.65186 -194.03524 -68.79011 203.7 149)"/><circle r="1" fill="#ddcac9" fill-opacity=".5" transform="matrix(-38.15694 -30.48167 41.71685 -52.22112 49.1 253.7)"/><circle r="1" fill="#c7dbff" fill-opacity=".5" transform="matrix(1.30206 -20.69567 56.58846 3.56024 279.5 233.4)"/><circle r="1" fill="#e26e27" fill-opacity=".5" transform="matrix(-112.76857 4.13504 -.97336 -26.54498 117.8 85.8)"/><circle r="1" fill="#a85450" fill-opacity=".5" transform="rotate(36.6 -43.5 455)scale(66.30973 36.14274)"/><circle r="1" fill="#490050" fill-opacity=".5" transform="rotate(173.7 84.1 140.7)scale(19.02857 12.82381)"/><circle r="1" fill="#3f1089" fill-opacity=".5" transform="rotate(96.7 -.3 214.7)scale(19.17511 16.35554)"/><path fill="#440b79" fill-opacity=".5" d="m244.6 303.8 10.2-30 20.6-8.7 15.7 43.2z"/></g></svg>