<svg xmlns="http://www.w3.org/2000/svg" width="300" height="300"><g filter="blur(12px)"><rect width="200%" height="200%" x="-50%" y="-50%" fill="#6f8577"/><rect width="100%" height="100%" fill="#6f8577"/><g fill-opacity=".5" transform="translate(.6 .6)scale(1.17188)"><circle cx="154" cy="163" r="192" fill="#bb929a"/><circle r="1" fill="#ffe6c1" transform="matrix(-8.6265 59.86378 -23.1235 -3.33215 85.7 29.7)"/><circle r="1" fill="#fff5a8" transform="rotate(11.9 -1173.4 299)scale(33.99046 13.11689)"/><path fill="#ffe0e9" d="m261.5 10.8 24.3 39-37.3 23.4-24.3-39z"/><circle r="1" fill="#72745e" transform="matrix(34.21682 6.15205 -16.60792 92.37094 34.2 139.6)"/><circle r="1" fill="#ffe6e7" transform="matrix(-7.3009 -23.73193 12.73311 -3.91722 80.1 222.2)"/><circle r="1" fill="#fff8ca" transform="matrix(1.1136 -17.16193 21.51895 1.39632 0 114.6)"/><circle r="1" fill="#2f2d3e" transform="rotate(101.2 45.1 205)scale(35.14936 11.62979)"/></g></g></svg>