<svg xmlns="http://www.w3.org/2000/svg" width="300" height="300"><g filter="blur(12px)"><rect width="200%" height="200%" x="-50%" y="-50%" fill="#8ca65a"/><rect width="100%" height="100%" fill="#8ca65a"/><g fill-opacity=".5" transform="translate(.6 .6)scale(1.17188)"><circle r="1" fill="#cad3ff" transform="matrix(70.28807 202.49892 -194.60638 67.54854 176.8 191)"/><circle r="1" fill="#648254" transform="matrix(8.96514 -8.07224 38.19403 42.41877 69.4 219.5)"/><path fill="#001400" d="m90.4 179-8.9 1.5-5.9-33.5 8.9-1.5z"/><path fill="#375b17" d="m14.4 135 4.5-25.6 20.7 3.6-4.5 25.6z"/><circle cx="196" cy="234" r="63" fill="#cad5d2"/><circle r="1" fill="#d4dedc" transform="matrix(-21.14132 -4.65536 16.08505 -73.04687 151.5 51)"/><path fill="#6d8a68" d="m260.6 193.2-18.9 11.3-44.3-73.7 18.9-11.3z"/><path fill="#50723d" d="M218.7 64 214 93.6 191.3 90l4.7-29.6z"/></g></g></svg>