<svg xmlns="http://www.w3.org/2000/svg" width="300" height="300"><g filter="blur(12px)"><rect width="200%" height="200%" x="-50%" y="-50%" fill="#979460"/><rect width="100%" height="100%" fill="#979460"/><g fill-opacity=".5" transform="translate(.6 .6)scale(1.17188)"><circle r="1" fill="#c1b4c7" transform="matrix(5.84292 215.54268 -187.4568 5.08157 152.1 149.5)"/><circle r="1" fill="#e0f3f1" transform="matrix(8.9708 -12.25704 41.00644 30.01218 136.3 215)"/><circle r="1" fill="#fae8d8" transform="matrix(-37.41339 -13.46415 6.96284 -19.34792 15.5 138)"/><circle r="1" fill="#817c85" transform="rotate(60.4 -37.3 181.5)scale(20.51382 127.00019)"/><circle r="1" fill="#f5d2af" transform="rotate(175.4 91.5 74.8)scale(36.84643 26.29986)"/><circle cx="222" cy="200" r="22" fill="#666a79"/><circle r="1" fill="#9c9375" transform="matrix(-11.0958 36.32376 -66.50827 -20.31625 70.4 95.8)"/><circle r="1" fill="#dfcaaf" transform="matrix(-8.76778 -12.65753 32.21101 -22.31234 40.7 226.9)"/></g></g></svg>