<svg xmlns="http://www.w3.org/2000/svg" width="300" height="300"><g filter="blur(12px)"><rect width="200%" height="200%" x="-50%" y="-50%" fill="#698b73"/><rect width="100%" height="100%" fill="#698b73"/><g fill-opacity=".5" transform="translate(.6 .6)scale(1.17188)"><circle r="1" fill="#ffd1b7" transform="matrix(24.46655 13.49735 -34.3714 62.30482 58 179.2)"/><circle r="1" fill="#ffd1cf" transform="matrix(41.03683 -21.90584 12.45754 23.33706 42.4 36.9)"/><circle r="1" transform="rotate(-54.3 122.6 -50.7)scale(40.01572 18.65865)"/><circle r="1" fill="#ffe2ee" transform="matrix(-5.30547 13.46872 -36.25752 -14.28222 138.7 99.4)"/><circle r="1" transform="matrix(28.40356 -20.7944 11.95712 16.3325 168 249.9)"/><ellipse cx="13" cy="124" fill="#ffd6b8" rx="16" ry="42"/><path fill="#030000" d="m90 170 36 55 4-124z"/><path fill="#ffc8b8" d="M119 144h51v34h-51z"/></g></g></svg>