<svg xmlns="http://www.w3.org/2000/svg" width="300" height="300"><g filter="blur(12px)"><rect width="200%" height="200%" x="-50%" y="-50%" fill="#648b6a"/><rect width="100%" height="100%" fill="#648b6a"/><circle r="1" fill="#d8b29e" fill-opacity=".5" transform="matrix(238.33864 73.64899 -55.92482 180.98071 167.3 181.5)"/><circle r="1" fill="#5d6367" fill-opacity=".5" transform="matrix(10.40232 31.79208 -39.85375 13.0401 152.5 186.3)"/><path fill="#3f5b33" fill-opacity=".5" d="m262 66.2-59.9 68 20-45.7z"/><circle r="1" fill="#dfa9ae" fill-opacity=".5" transform="matrix(-8.30987 -37.8744 20.63992 -4.52852 186.6 124.1)"/><path fill="#404848" fill-opacity=".5" d="M315.8 138.9 269 114.3l-25.7 24.6z"/><circle r="1" fill="#ccc59b" fill-opacity=".5" transform="matrix(-51.10165 -29.03177 9.19198 -16.1797 51.6 105.3)"/><circle r="1" fill="#477054" fill-opacity=".5" transform="rotate(-21.3 188.8 -643.6)scale(28.22357 11.60738)"/><path fill="#3b3e40" fill-opacity=".5" d="m292.4 219.4 30 28-16 17.1-30-28z"/></g></svg>