<svg xmlns="http://www.w3.org/2000/svg" width="300" height="300"><g filter="blur(12px)"><rect width="200%" height="200%" x="-50%" y="-50%" fill="#937685"/><rect width="100%" height="100%" fill="#937685"/><g fill-opacity=".5" transform="translate(.6 .6)scale(1.17188)"><ellipse cx="129" cy="118" fill="#dadaa3" rx="214" ry="174"/><circle r="1" fill="#002a17" transform="matrix(21.53592 -15.80982 18.89963 25.74481 146.9 150.4)"/><path fill="#385d44" d="m-9.8 152.5 50.9 5.8 16.7 1.2-73.8 31.6z"/><ellipse cx="191" cy="13" fill="#fffbd9" rx="12" ry="32"/><path fill="#ebd7d8" d="m2 13 133-27L16 49z"/><path fill="#22422a" d="m154.8 131.6 32.5-1.1-45.4 53.4-17.5-5.9z"/><circle r="1" fill="#606054" transform="matrix(-29.02204 5.26072 -2.71775 -14.99312 251.3 72.8)"/><circle r="1" fill="#f6dac8" transform="matrix(24.36927 16.40864 -8.04232 11.94404 186.4 122.9)"/></g></g></svg>