<svg xmlns="http://www.w3.org/2000/svg" width="300" height="300"><g filter="blur(12px)"><rect width="200%" height="200%" x="-50%" y="-50%" fill="#8c8c8c"/><rect width="100%" height="100%" fill="#8c8c8c"/><g fill-opacity=".5" transform="translate(.6 .6)scale(1.17188)"><circle r="1" fill="#c0bdc2" transform="rotate(-78.2 125.9 -17)scale(161.09987 205.0407)"/><path fill="#fff" d="m14.2 121.3-33.5-49.7 19-12.9 33.6 49.7z"/><circle r="1" fill="#fff1ff" transform="matrix(-6.33581 -8.89782 25.83772 -18.3981 116 37)"/><circle r="1" fill="#fbedff" transform="rotate(-161.7 126.2 65.2)scale(12.82512 35.44998)"/><circle r="1" fill="#727271" transform="matrix(-24.19085 3.61535 -5.6178 -37.58955 35.1 58.4)"/><path fill="#fff7ff" d="m99 79 14.4 4.4L91 157l-14.3-4.4z"/><circle r="1" fill="#fff2ff" transform="matrix(10.76135 12.33597 -46.7885 40.81621 19.3 0)"/><ellipse cx="207" cy="35" fill="#dad3db" rx="51" ry="16"/></g></g></svg>