<svg xmlns="http://www.w3.org/2000/svg" width="300" height="300"><g filter="blur(12px)"><rect width="200%" height="200%" x="-50%" y="-50%" fill="#a59258"/><rect width="100%" height="100%" fill="#a59258"/><g fill-opacity=".5" transform="translate(.6 .6)scale(1.17188)"><circle r="1" fill="#c4b0ae" transform="rotate(31.2 -132 362)scale(195.49634 243.94119)"/><circle r="1" fill="#5d5d47" transform="matrix(10.57802 17.26643 -46.6056 28.55223 146.7 205)"/><path fill="#eec49e" d="m271 117-50 154-74-187z"/><path fill="#65684c" d="m67 133 83 27-166 54z"/><circle r="1" fill="#4d4536" transform="matrix(-12.39134 23.20691 -13.91913 -7.43212 133.7 86.8)"/><ellipse cx="125" cy="34" fill="#1c301e" rx="9" ry="22"/><path fill="#374a39" d="m182.4 106.7-.7-16.7 16.7-32.7 8.1 32.9z"/><path fill="#5d7359" d="m40 117 51 15 15-66z"/></g></g></svg>