<svg xmlns="http://www.w3.org/2000/svg" width="300" height="300"><g filter="blur(12px)"><rect width="200%" height="200%" x="-50%" y="-50%" fill="#7884a2"/><rect width="100%" height="100%" fill="#7884a2"/><g fill-opacity=".5" transform="translate(.6 .6)scale(1.17188)"><circle r="1" fill="#fff" transform="matrix(-89.43778 -154.9828 186.00375 -107.33942 130 123.2)"/><circle r="1" fill="#f0e7f1" transform="rotate(23.5 -46 277.3)scale(147.24218 59.09561)"/><circle r="1" fill="#f2ecf4" transform="matrix(-17.3384 22.96956 -30.1872 -22.78658 202.9 164.6)"/><ellipse cx="99" cy="214" fill="#eee5ef" rx="48" ry="24"/><circle r="1" fill="#e9e2f2" transform="matrix(-27.98705 -2.7423 4.62046 -47.15493 90.2 111.4)"/><path fill="#8c98b5" d="m20 75 50 110-9-96z"/><path fill="#f3e6f3" d="M91 158 17 95l-21 20z"/><path fill="#fbeaff" d="m137.7 239-18.5 31-24.9-15 18.5-30.8z"/></g></g></svg>