<svg xmlns="http://www.w3.org/2000/svg" width="300" height="300"><g filter="blur(12px)"><rect width="200%" height="200%" x="-50%" y="-50%" fill="#958352"/><rect width="100%" height="100%" fill="#958352"/><g fill-opacity=".5" transform="translate(.6 .6)scale(1.17188)"><path fill="#fdd187" d="m23.2 119.7 84.2-11.9 7.4 52.5-84.2 11.9z"/><circle r="1" fill="#ffd56e" transform="matrix(-22.58267 11.3516 -21.58231 -42.93547 192.5 194.9)"/><circle r="1" fill="#881b00" transform="rotate(82.9 80.2 141.5)scale(13.65042 52.90686)"/><ellipse cx="237" cy="102" fill="#f8c67e" rx="41" ry="24"/><circle r="1" fill="#dacba8" transform="matrix(-54.32688 42.9992 -8.2028 -10.36373 170 11.9)"/><circle r="1" fill="#6f2402" transform="matrix(.93217 13.02199 -53.19247 3.80775 86.4 19.2)"/><path fill="#debc7d" d="m159.1 204.7-13.3 62.6-47-10 13.4-62.6z"/><circle r="1" fill="#ffed5f" transform="matrix(-13.38203 1.90517 -5.33456 -37.47033 0 104)"/></g></g></svg>