<svg xmlns="http://www.w3.org/2000/svg" width="300" height="300"><g filter="blur(12px)"><rect width="200%" height="200%" x="-50%" y="-50%" fill="#649c71"/><rect width="100%" height="100%" fill="#649c71"/><g fill-opacity=".5" transform="translate(.6 .6)scale(1.17188)"><circle r="1" fill="#ffb6b1" transform="matrix(-150.35167 181.52839 -141.64224 -117.31579 158 117.5)"/><circle r="1" fill="#ffc39e" transform="matrix(-38.04877 -3.34489 5.76587 -65.58794 162.6 164)"/><circle r="1" fill="#fecdc6" transform="matrix(96.96797 -44.19722 10.14827 22.26514 47.8 24.3)"/><path fill="#2f452c" d="M0 191h51v22H0z"/><circle r="1" fill="#5b6154" transform="matrix(-34.7417 11.54053 -4.89025 -14.72165 176 70.7)"/><path fill="#5d6d54" d="M137 115 12 62l44 51z"/><ellipse cx="45" cy="226" fill="#ffe9ba" rx="28" ry="15"/><circle r="1" fill="#eac4b4" transform="rotate(-38.9 113.8 -148.5)scale(37.43269 31.37393)"/></g></g></svg>