<svg xmlns="http://www.w3.org/2000/svg" width="300" height="300"><g filter="blur(12px)"><rect width="200%" height="200%" x="-50%" y="-50%" fill="#74748c"/><rect width="100%" height="100%" fill="#74748c"/><g fill-opacity=".5" transform="translate(.6 .6)scale(1.17188)"><circle r="1" fill="#f1e8df" transform="rotate(176 78 62.8)scale(208.6765 171.26083)"/><circle r="1" fill="#818280" transform="matrix(75.10951 -.52437 .39928 57.19143 262.3 87.2)"/><circle r="1" fill="#626660" transform="matrix(-11.11914 18.35988 -32.77346 -19.84831 96.4 184.9)"/><circle r="1" fill="#e6dff0" transform="matrix(-4.20661 44.50133 -58.81027 -5.5592 16.1 139.5)"/><circle r="1" fill="#fcf2ff" transform="matrix(-22.60805 -101.13457 10.9638 -2.4509 247.8 223.2)"/><ellipse cx="159" cy="175" fill="#686d66" rx="16" ry="44"/><circle r="1" fill="#60635d" transform="rotate(-144.4 81.1 106.2)scale(14.30973 42.40588)"/><circle r="1" fill="#f5ecfd" transform="rotate(-157.3 87.3 104.3)scale(16.22249 50.46854)"/></g></g></svg>