<svg xmlns="http://www.w3.org/2000/svg" width="300" height="300"><g filter="blur(12px)"><rect width="200%" height="200%" x="-50%" y="-50%" fill="#a58654"/><rect width="100%" height="100%" fill="#a58654"/><g fill-opacity=".5" transform="translate(.6 .6)scale(1.17188)"><circle r="1" fill="#aaa29a" transform="matrix(43.0221 157.55374 -185.8983 50.76196 122 120.7)"/><path fill="#edccb4" d="m100.2 95.4 28 69.6-58.4 23.6-28-69.6z"/><path fill="#fadbc7" d="M247.8 116.5 271 132l-80.9-85.2 25.3 71.1z"/><ellipse cx="213" cy="202" fill="#6e624d" rx="44" ry="31"/><circle r="1" fill="#695e3f" transform="matrix(-12.01421 52.88075 -17.82453 -4.04963 180.8 28.3)"/><path fill="#786d4f" d="M141 215 39 173l-3 91z"/><ellipse cx="242" cy="5" fill="#ffe1af" rx="40" ry="16"/><circle r="1" fill="#7d6e41" transform="matrix(-17.34413 14.91831 -23.5858 -27.42101 88.3 54.7)"/></g></g></svg>