<svg xmlns="http://www.w3.org/2000/svg" width="300" height="300"><g filter="blur(12px)"><rect width="200%" height="200%" x="-50%" y="-50%" fill="#ad7e50"/><rect width="100%" height="100%" fill="#ad7e50"/><circle r="1" fill="#fffffd" fill-opacity=".5" transform="matrix(22.26193 37.05007 -22.6769 13.62565 112.9 258)"/><circle r="1" fill="#4f3100" fill-opacity=".5" transform="matrix(67.65029 1.74998 -.87696 33.90122 232.4 202.4)"/><circle r="1" fill="#fff" fill-opacity=".5" transform="rotate(-13.3 744.7 -22.5)scale(44.23359 15.62096)"/><circle r="1" fill="#eefbe2" fill-opacity=".5" transform="matrix(61.14213 -12.82818 4.47053 21.30762 271.1 110.1)"/><circle r="1" fill="#533301" fill-opacity=".5" transform="rotate(-60.8 319 -43.3)scale(24.45191 130.2637)"/><circle r="1" fill="#573c0d" fill-opacity=".5" transform="matrix(-73.7518 5.96543 -3.9623 -48.98672 21.1 268.9)"/><circle r="1" fill="#613702" fill-opacity=".5" transform="matrix(-21.6457 -14.8544 71.07967 -103.57663 211.5 73)"/><circle r="1" fill="#fff" fill-opacity=".5" transform="matrix(25.17716 16.81135 -7.91802 11.85825 24.5 10.2)"/></g></svg>