<svg xmlns="http://www.w3.org/2000/svg" width="300" height="300"><g filter="blur(12px)"><rect width="200%" height="200%" x="-50%" y="-50%" fill="#7c8972"/><rect width="100%" height="100%" fill="#7c8972"/><circle r="1" fill="#c7cfd8" fill-opacity=".5" transform="rotate(-167.5 88.2 75.8)scale(202.49416 232.95536)"/><circle r="1" fill="#414339" fill-opacity=".5" transform="rotate(61 -154 265.3)scale(22.94935 36.69912)"/><path fill="#413d45" fill-opacity=".5" d="M270.7 51.2 245.2 23l41.2-24.4 3.2 27.2z"/><circle r="1" fill="#d8e7d9" fill-opacity=".5" transform="matrix(-46.51314 -13.11939 6.74059 -23.89792 247.3 141)"/><circle r="1" fill="#636b52" fill-opacity=".5" transform="rotate(-7 1413.2 -1457.7)scale(30.34764 18.8422)"/><path fill="#3c3e34" fill-opacity=".5" d="m251.4 103.7 24.6 20-13-61z"/><circle r="1" fill="#cac8cd" fill-opacity=".5" transform="matrix(-6.1028 28.03301 -49.1371 -10.69717 147 216.5)"/><path fill="#697553" fill-opacity=".5" d="m144.5 156.3-1.8 4.8-27.5 19.5-51.8-57.9z"/></g></svg>