<svg xmlns="http://www.w3.org/2000/svg" width="300" height="300"><g filter="blur(12px)"><rect width="200%" height="200%" x="-50%" y="-50%" fill="#a15999"/><rect width="100%" height="100%" fill="#a15999"/><circle r="1" fill="#ff9a85" fill-opacity=".5" transform="matrix(-47.2579 234.37307 -209.21441 -42.18503 133.9 160.8)"/><circle r="1" fill="#fd3765" fill-opacity=".5" transform="matrix(-37.01314 -120.59277 31.45615 -9.65473 41.4 66.8)"/><path fill="#e2d3d7" fill-opacity=".5" d="m280.7 202.1-35.2-57.4-172.3 64.5z"/><circle r="1" fill="#fb3c6c" fill-opacity=".5" transform="rotate(-177.1 114.6 39)scale(132.38742 20.43187)"/><circle r="1" fill="#abbce7" fill-opacity=".5" transform="matrix(-35.6629 65.75696 -11.75863 -6.37723 205.8 278.4)"/><path fill="#f9e6ff" fill-opacity=".5" d="M24.9 183.3 16.5 136l23.1-4 8.3 47.2z"/><path fill="#fcfba8" fill-opacity=".5" d="m318.2 126-65.7-17.6 51.6 82z"/><circle r="1" fill="#b6d1d7" fill-opacity=".5" transform="matrix(10.26096 -17.91665 24.46274 14.00994 76.5 252.7)"/></g></svg>