<svg xmlns="http://www.w3.org/2000/svg" width="300" height="300"><g filter="blur(12px)"><rect width="200%" height="200%" x="-50%" y="-50%" fill="#b39367"/><rect width="100%" height="100%" fill="#b39367"/><g fill-opacity=".5" transform="translate(.6 .6)scale(1.17188)"><circle r="1" fill="#d4f7ff" transform="matrix(159.38113 74.65958 -79.51462 169.74553 139.6 129.9)"/><circle r="1" fill="#fff" transform="rotate(-9.3 1441.6 -544.5)scale(23.02352 32.1881)"/><path fill="#25382c" d="m181.6 85-22-17.2L174.4 49l22 17.3z"/><path fill="#33463d" d="M123 136h21v36h-21z"/><path fill="#49745c" d="m131.6 244.2 17.5 19.5 86.6-57.1-96.3 32.1z"/><circle cx="96" cy="119" r="32" fill="#effaff"/><path fill="#f3feff" d="M49 99 27 33 98 6z"/><circle r="1" fill="#405048" transform="matrix(4.67119 -5.91434 13.97022 11.03379 10.8 182)"/></g></g></svg>