<svg xmlns="http://www.w3.org/2000/svg" width="300" height="300"><g filter="blur(12px)"><rect width="200%" height="200%" x="-50%" y="-50%" fill="#7282a4"/><rect width="100%" height="100%" fill="#7282a4"/><circle r="1" fill="#e7e5ef" fill-opacity=".5" transform="matrix(10.47313 193.3808 -291.43125 15.78335 153 137.3)"/><path fill="#7c8faf" fill-opacity=".5" d="M155.3 144.7 144.7-11l170 113.6z"/><path fill="#e3d7e4" fill-opacity=".5" d="M8.8 45.1H140v86.7H8.8z"/><circle r="1" fill="#768aab" fill-opacity=".5" transform="matrix(-20.28076 7.74447 -24.29913 -63.63313 91.3 245.6)"/><path fill="#fff0fc" fill-opacity=".5" d="M46.8 174.9 66 246.2l-25 6.7-19-71.4z"/><circle r="1" fill="#eadce6" fill-opacity=".5" transform="rotate(169.2 116.6 94)scale(36.4021 23.15395)"/><circle r="1" fill="#eee2f0" fill-opacity=".5" transform="matrix(-7.39553 15.9323 -30.37365 -14.09898 280 55.3)"/><circle r="1" fill="#7388aa" fill-opacity=".5" transform="matrix(12.49094 2.005 -8.58657 53.49323 176.2 190.5)"/></g></svg>