<svg xmlns="http://www.w3.org/2000/svg" width="300" height="300"><g filter="blur(12px)"><rect width="200%" height="200%" x="-50%" y="-50%" fill="#6e8b71"/><rect width="100%" height="100%" fill="#6e8b71"/><g fill-opacity=".5" transform="translate(.6 .6)scale(1.17188)"><circle r="1" fill="#ffb98b" transform="matrix(43.75008 32.97733 -22.3712 29.67924 199 109.9)"/><circle r="1" fill="#0e2e19" transform="matrix(25.83097 -52.03396 23.28185 11.5577 131.1 172.2)"/><ellipse cx="24" cy="22" fill="#edb994" rx="106" ry="24"/><path fill="#001c0d" d="m203 153 4-105 16 43z"/><circle r="1" fill="#334b32" transform="matrix(24.8525 -58.92659 28.8182 12.15418 81.6 117.3)"/><circle r="1" fill="#ffcda0" transform="rotate(19.9 -323 103.5)scale(35.66967 14.34496)"/><path fill="#fab48d" d="m95.8 221.8-49 22.8-20.6-44.4 49-22.8z"/><ellipse cx="4" cy="237" rx="7" ry="53"/></g></g></svg>