<svg xmlns="http://www.w3.org/2000/svg" width="300" height="300"><g filter="blur(12px)"><rect width="200%" height="200%" x="-50%" y="-50%" fill="#728da1"/><rect width="100%" height="100%" fill="#728da1"/><g fill-opacity=".5" transform="translate(.6 .6)scale(1.17188)"><circle r="1" fill="#ff8c58" transform="matrix(191.7085 28.99318 -36.19109 239.3024 98.4 126.7)"/><circle r="1" fill="#ff8c7d" transform="rotate(-147.1 93.7 38.4)scale(194.38727 204.99768)"/><circle cx="255" cy="235" r="113" fill="#ecd39a"/><circle r="1" fill="#e85188" transform="matrix(140.05803 6.11507 -3.18064 72.84863 114 40.6)"/><circle r="1" fill="#ffa600" transform="matrix(-10.35039 14.89965 -45.6877 -31.73802 125.5 222.7)"/><circle r="1" fill="#fd9405" transform="matrix(11.20685 16.71587 -38.22296 25.62588 25 154.2)"/><circle r="1" fill="#ff910e" transform="rotate(-102.4 136.6 16.4)scale(17.91636 37.09566)"/><circle r="1" fill="#a1d1ab" transform="matrix(1.241 -18.66902 57.35402 3.81256 72.1 248.8)"/></g></g></svg>