<svg xmlns="http://www.w3.org/2000/svg" width="300" height="300"><g filter="blur(12px)"><rect width="200%" height="200%" x="-50%" y="-50%" fill="#7380a1"/><rect width="100%" height="100%" fill="#7380a1"/><g fill-opacity=".5" transform="translate(.6 .6)scale(1.17188)"><ellipse cx="137" cy="115" fill="#fff" rx="232" ry="170"/><ellipse cx="149" cy="120" fill="#dfcedf" rx="214" ry="150"/><circle r="1" fill="#8d90ae" transform="matrix(-18.8633 49.9041 -20.04863 -7.5782 142.6 136.6)"/><circle r="1" fill="#7d80a3" transform="rotate(-126.6 133.3 -25.2)scale(41.20433 7.15306)"/><circle r="1" fill="#fff" transform="matrix(9.03328 1.17322 -4.59753 35.39901 175.9 132.5)"/><path fill="#8681a0" d="m58.4 149-18.7-46.4L53.6 97l18.7 46.4z"/><circle r="1" fill="#8d8eac" transform="matrix(-8.92393 8.83097 -27.565 -27.85519 145.2 156.7)"/><circle r="1" fill="#8f95b1" transform="rotate(-105.1 49.1 -26)scale(32.30281 8.75282)"/></g></g></svg>