<svg xmlns="http://www.w3.org/2000/svg" width="300" height="300"><g filter="blur(12px)"><rect width="200%" height="200%" x="-50%" y="-50%" fill="#7c7494"/><rect width="100%" height="100%" fill="#7c7494"/><g fill-opacity=".5" transform="translate(.6 .6)scale(1.17188)"><circle cx="160" cy="89" r="200" fill="#eae5d6"/><circle r="1" fill="#7e817d" transform="matrix(-38.96682 -8.74026 12.83753 -57.23378 99.2 133.8)"/><circle r="1" fill="#fbf0ff" transform="matrix(-11.5709 -8.56202 28.5492 -38.58202 188 137)"/><circle r="1" fill="#fef7ff" transform="rotate(16.2 -108.7 733)scale(18.38508 32.13811)"/><path fill="#f5e2fc" d="M-27.4 169 37.3 23.6 67.4 37 2.7 182.3z"/><ellipse cx="248" cy="169" fill="#868a86" rx="37" ry="148"/><circle r="1" fill="#faebff" transform="matrix(-16.9476 14.73233 -20.70858 -23.8225 129.1 23.3)"/><path fill="#f4eafe" d="m28 105-5.2-22.4L90 67l5.2 22.4z"/></g></g></svg>