<svg xmlns="http://www.w3.org/2000/svg" width="300" height="300"><g filter="blur(12px)"><rect width="200%" height="200%" x="-50%" y="-50%" fill="#7987a4"/><rect width="100%" height="100%" fill="#7987a4"/><g fill-opacity=".5" transform="translate(.6 .6)scale(1.17188)"><ellipse cx="217" cy="171" fill="#dde5d8" rx="255" ry="147"/><circle r="1" fill="#0d3c00" transform="matrix(2.2524 -31.73543 92.6204 6.57365 104.2 0)"/><circle r="1" fill="#0e3600" transform="matrix(-14.32322 -4.9732 8.37172 -24.11125 212.3 230.8)"/><path fill="#294d00" d="M42.1-16h66.5l28.8 55.3-9.6 31.2z"/><path fill="#0a3300" d="M51.5 138.3 12 133.1l7.4-22.3 31.8 9z"/><ellipse cx="41" cy="59" fill="#c0cad4" rx="80" ry="36"/><path fill="#214800" d="m117 91-7 63-27-33z"/><circle r="1" fill="#2b4f03" transform="matrix(-9.90817 -30.19928 8.87438 -2.91162 181.3 124.5)"/></g></g></svg>