<svg xmlns="http://www.w3.org/2000/svg" width="300" height="300"><g filter="blur(12px)"><rect width="200%" height="200%" x="-50%" y="-50%" fill="#678a71"/><rect width="100%" height="100%" fill="#678a71"/><g fill-opacity=".5" transform="translate(.6 .6)scale(1.17188)"><circle r="1" fill="#172d1f" transform="matrix(-89.78684 10.16115 -2.90144 -25.63797 74 64.2)"/><path fill="#fecaae" d="m222.6 75.9 3.1 36.1-29.8 76.2-55.5-123.4z"/><circle r="1" fill="#fff9fc" transform="rotate(103.1 32.6 26)scale(38.06179 16.18355)"/><circle r="1" fill="#001d05" transform="rotate(171.4 77.7 9.3)scale(21.32371 47.90669)"/><ellipse cx="189" cy="17" fill="#ffffe4" rx="13" ry="22"/><circle r="1" fill="#324b3b" transform="rotate(-50.8 286.7 -7.1)scale(116.50699 19.69268)"/><circle r="1" fill="#ffd4be" transform="matrix(-20.85323 -13.25059 8.8966 -14.00111 87.8 146.8)"/><circle r="1" fill="#405542" transform="matrix(-103.29095 -11.22099 6.98497 -64.29776 210 247.8)"/></g></g></svg>