<svg xmlns="http://www.w3.org/2000/svg" width="300" height="300"><g filter="blur(12px)"><rect width="200%" height="200%" x="-50%" y="-50%" fill="#ab8068"/><rect width="100%" height="100%" fill="#ab8068"/><g fill-opacity=".5" transform="translate(.6 .6)scale(1.17188)"><circle r="1" fill="#d2d0b9" transform="rotate(-135.6 108.2 45.4)scale(228.54126 148.9708)"/><circle r="1" fill="#3a6048" transform="rotate(-54.6 239.7 -17.2)scale(21.25065 18.13991)"/><circle r="1" fill="#575f43" transform="matrix(6.1437 -8.76199 50.5598 35.45138 80.7 234.8)"/><path fill="#f9fff1" d="m227.4 196.7 31 1.7-3.8 72.9-31-1.7z"/><path fill="#534f35" d="M98.3 50.5 65.9 22.1l7.5-16.5 29.5 16.7z"/><circle r="1" fill="#d8ebd9" transform="matrix(9.54797 -1.11315 5.90637 50.66165 138.3 29.1)"/><circle r="1" fill="#3e6751" transform="matrix(-15.48859 12.13137 -4.70686 -6.00943 24.5 171.3)"/><ellipse cx="161" cy="120" fill="#7a7967" rx="13" ry="34"/></g></g></svg>