<svg xmlns="http://www.w3.org/2000/svg" width="300" height="300"><g filter="blur(12px)"><rect width="200%" height="200%" x="-50%" y="-50%" fill="#8ca964"/><rect width="100%" height="100%" fill="#8ca964"/><g fill-opacity=".5" transform="translate(.6 .6)scale(1.17188)"><circle r="1" fill="#fff" transform="matrix(-124.18599 166.60828 -151.78993 -113.14073 116.2 126.3)"/><circle r="1" fill="#c9d5fc" transform="matrix(110.51 137.73029 -146.88557 117.85588 119.2 150.4)"/><path fill="#fff" d="m151 122-52-21 11 100z"/><circle r="1" fill="#234720" transform="rotate(97.5 -17 174.5)scale(6.50161 9.58889)"/><ellipse cx="86" cy="18" fill="#f3f7fd" rx="20" ry="43"/><path fill="#000a00" d="m231.8 218.6 4.9 1-2.5 11.8-4.9-1z"/><circle r="1" fill="#a2b5a2" transform="matrix(-15.84429 14.4172 -25.94719 -28.51559 249.4 130.3)"/><circle r="1" fill="#7b9b85" transform="matrix(-1.10803 6.15818 -29.49929 -5.30776 18 35.5)"/></g></g></svg>