<svg xmlns="http://www.w3.org/2000/svg" width="300" height="300"><g filter="blur(12px)"><rect width="200%" height="200%" x="-50%" y="-50%" fill="#a8826a"/><rect width="100%" height="100%" fill="#a8826a"/><g fill-opacity=".5" transform="translate(.6 .6)scale(1.17188)"><circle cx="142" cy="49" r="255" fill="#9bb79e"/><circle r="1" fill="#1f4533" transform="matrix(-20.39857 87.24489 -24.5936 -5.75019 135.2 119.2)"/><circle r="1" fill="#0f3d26" transform="matrix(-11.03831 -61.59122 16.34238 -2.92886 37.5 188.7)"/><path fill="#00180b" d="m238 107.2 16.7 3-14.6 82.6-16.8-3z"/><circle r="1" fill="#fff" transform="matrix(17.33009 -5.01882 18.46533 63.76119 0 175.5)"/><circle r="1" fill="#ffe4ca" transform="rotate(179.9 81.7 0)scale(72.12768 29.06638)"/><circle r="1" fill="#346144" transform="matrix(-20.31551 -46.72248 17.7089 -7.70005 61 83.2)"/><circle r="1" fill="#ffebd5" transform="rotate(20.7 -409.2 538)scale(17.03259 69.41742)"/></g></g></svg>