<svg xmlns="http://www.w3.org/2000/svg" width="300" height="300"><g filter="blur(12px)"><rect width="200%" height="200%" x="-50%" y="-50%" fill="#688972"/><rect width="100%" height="100%" fill="#688972"/><g fill-opacity=".5" transform="translate(.6 .6)scale(1.17188)"><ellipse cx="213" cy="223" fill="#ffe4c1" rx="18" ry="88"/><circle r="1" fill="#ffcdba" transform="rotate(-112.7 95 76.5)scale(95.33235 16.47364)"/><circle r="1" fill="#f9c5c0" transform="matrix(13.3455 -13.6025 67.54554 66.26945 144.2 21)"/><path fill="#ffd9ce" d="M26.8 33.3 19-21.2l86.1-12 7.7 54.4z"/><path fill="#ffd2a9" d="M80 95h68v30H80z"/><path d="m73.7 24.9 28.6 16.5-16 27.7-28.6-16.5z"/><path fill="#ffe4dc" d="m179 153 10 26-62 20z"/><path fill="#2e4939" d="m142 228 109-31-119-6z"/></g></g></svg>