<svg xmlns="http://www.w3.org/2000/svg" width="300" height="300"><g filter="blur(12px)"><rect width="200%" height="200%" x="-50%" y="-50%" fill="#b76b66"/><rect width="100%" height="100%" fill="#b76b66"/><g fill-opacity=".5" transform="translate(.6 .6)scale(1.17188)"><ellipse cx="161" cy="66" fill="#cab9b8" rx="155" ry="215"/><circle r="1" fill="#d7f8f8" transform="matrix(19.73306 50.02518 -20.13284 7.94165 179.7 108.2)"/><path fill="#a31b07" d="m181 260-20-84-54 17z"/><path fill="#9d5c4a" d="M81 18h88v67H81z"/><path fill="#dbffff" d="m251.1 114.9-28 7L212.8 81l28-7z"/><circle r="1" fill="#ceffff" transform="matrix(16.35682 8.03907 -13.47322 27.41352 176.7 12.2)"/><path fill="#7c0805" d="M6.4 271 13 168l28.2-36.1-57.2 18.7z"/><path fill="#7cafda" d="m54 228.1 6.8-57.1-57.5 15.6-19.3 24.9z"/></g></g></svg>