<svg xmlns="http://www.w3.org/2000/svg" width="300" height="300"><g filter="blur(12px)"><rect width="200%" height="200%" x="-50%" y="-50%" fill="#7e8dad"/><rect width="100%" height="100%" fill="#7e8dad"/><g fill-opacity=".5" transform="translate(.6 .6)scale(1.17188)"><circle r="1" fill="#fffeff" transform="matrix(-212.41655 10.60022 -9.46782 -189.72464 108.7 140)"/><circle r="1" fill="#f8ecfa" transform="rotate(-96.9 9.7 -5.7)scale(109.19296 28.39971)"/><circle r="1" fill="#f6e7fa" transform="matrix(-12.72609 26.92225 -38.13848 -18.02798 41 193.8)"/><path fill="#7485a9" d="m248 200-14 71-20-84z"/><path fill="#6578a0" d="m154 149.8 3-33.8 25 2.2-3 33.8z"/><ellipse cx="127" cy="102" fill="#f2e1f5" rx="65" ry="15"/><circle r="1" fill="#fee9f5" transform="matrix(9.87083 36.61441 -13.37264 3.60511 193.8 177.5)"/><path fill="#fff6ff" d="m150.8-2.2 36-.6.4 27-36 .6z"/></g></g></svg>