<svg xmlns="http://www.w3.org/2000/svg" width="300" height="300"><g filter="blur(12px)"><rect width="200%" height="200%" x="-50%" y="-50%" fill="#74548c"/><rect width="100%" height="100%" fill="#74548c"/><circle r="1" fill="#ede0ab" fill-opacity=".5" transform="matrix(56.46798 -215.24314 283.4119 74.35172 166 112.6)"/><circle r="1" fill="#ffffd3" fill-opacity=".5" transform="matrix(-23.2575 -65.7407 18.2774 -6.46611 171 231.9)"/><circle r="1" fill="#ffffd1" fill-opacity=".5" transform="rotate(-171.2 44.3 51.8)scale(20.58705 48.5255)"/><circle r="1" fill="#c7413d" fill-opacity=".5" transform="rotate(-91.6 126.2 71.4)scale(39.17858 26.75534)"/><path fill="#f3f6dd" fill-opacity=".5" d="m222.9 19-1.6 92.6-35.2-.6 1.6-92.5z"/><path fill="#c12500" fill-opacity=".5" d="m249 318.2 1.2-42.2 68-14z"/><circle r="1" fill="#2cabed" fill-opacity=".5" transform="matrix(-38.30516 -7.2102 2.82606 -15.01381 247.6 168.7)"/><circle r="1" fill="#1d0000" fill-opacity=".5" transform="matrix(8.0153 9.70155 -12.78283 10.56102 134.9 7.7)"/></g></svg>