<svg xmlns="http://www.w3.org/2000/svg" width="300" height="300"><g filter="blur(12px)"><rect width="200%" height="200%" x="-50%" y="-50%" fill="#9e5255"/><rect width="100%" height="100%" fill="#9e5255"/><g fill-opacity=".5" transform="translate(.6 .6)scale(1.17188)"><circle r="1" fill="#ebf7e1" transform="matrix(-153.51294 150.55353 -119.52463 -121.8741 168.4 134.1)"/><circle r="1" fill="#590000" transform="matrix(-5.1487 24.73059 -30.074 -6.26116 206 175.5)"/><circle cx="105" cy="131" r="72" fill="#d6e2e1"/><circle r="1" fill="#9b0000" transform="matrix(-29.54509 6.11486 -3.06886 -14.82775 147.1 243.8)"/><circle r="1" fill="#700000" transform="matrix(7.8443 6.72615 -21.28827 24.82723 128.3 204.8)"/><circle r="1" fill="#8e373c" transform="matrix(-31.5929 -7.23574 8.03212 -35.07008 87.3 29.5)"/><circle r="1" fill="#b0f7ff" transform="matrix(2.10458 -48.65123 13.72674 .5938 24.9 37.2)"/><path fill="#4d1115" d="M-30 134.5 1.4 94.4l34.6 27-31.4 40.2z"/></g></g></svg>