<svg xmlns="http://www.w3.org/2000/svg" width="300" height="300"><g filter="blur(12px)"><rect width="200%" height="200%" x="-50%" y="-50%" fill="#b4a269"/><rect width="100%" height="100%" fill="#b4a269"/><g fill-opacity=".5" transform="translate(.6 .6)scale(1.17188)"><ellipse cx="152" cy="137" fill="#f5dbc0" rx="91" ry="69"/><path fill="#f9d7b7" d="M20 140h52v89H20z"/><circle r="1" fill="#ffe4f3" transform="matrix(-15.34638 16.49542 -18.54239 -17.25076 8.7 63.1)"/><path fill="#92702d" d="M108 120 98 251l-27-74z"/><circle r="1" fill="#f6cd96" transform="matrix(18.195 9.69883 -35.24203 66.114 117.4 51)"/><circle r="1" fill="#d0b9b9" transform="matrix(23.4254 -3.83606 7.6674 46.82204 228.6 199.5)"/><circle r="1" fill="#f6e6b3" transform="matrix(11.74318 5.61198 -21.2324 44.42926 189.2 25.8)"/><path fill="#274118" d="M7-19.7 29.8 5.6 3 29.6-19.8 4.5z"/></g></g></svg>