<svg xmlns="http://www.w3.org/2000/svg" width="300" height="300"><g filter="blur(12px)"><rect width="200%" height="200%" x="-50%" y="-50%" fill="#a97768"/><rect width="100%" height="100%" fill="#a97768"/><g fill-opacity=".5" transform="translate(.6 .6)scale(1.17188)"><circle r="1" fill="#440f1e" transform="matrix(149.7021 -85.38857 50.32063 88.22145 26 69.3)"/><circle r="1" fill="#c7ccdf" transform="matrix(-9.87026 -26.54406 87.76622 -32.63538 142.3 179.3)"/><circle r="1" fill="#620000" transform="matrix(-15.98316 24.91568 -25.87477 -16.5984 152.2 230)"/><ellipse cx="206" cy="95" fill="#530c14" rx="27" ry="40"/><circle r="1" fill="#3b0000" transform="matrix(17.27682 7.1786 -25.07823 60.35612 255 147.6)"/><circle r="1" fill="#380000" transform="matrix(-8.70408 -15.9644 19.4433 -10.60083 220.6 234.4)"/><path fill="#edd7c1" d="m190 128-43 73-5-114z"/><path fill="#18000c" d="m-16 216 23-32 24 87z"/></g></g></svg>