<svg xmlns="http://www.w3.org/2000/svg" width="300" height="300"><g filter="blur(12px)"><rect width="200%" height="200%" x="-50%" y="-50%" fill="#a57e51"/><rect width="100%" height="100%" fill="#a57e51"/><g fill-opacity=".5" transform="translate(.6 .6)scale(1.17188)"><circle r="1" fill="#86501b" transform="matrix(-125.855 -143.25775 188.95838 -166.004 151 77.2)"/><circle r="1" fill="#b49a69" transform="rotate(-19.7 320.2 -373.8)scale(34.80949 75.05571)"/><circle r="1" fill="#ffd9ab" transform="matrix(7.03422 1.21502 -5.28373 30.58955 83.4 123)"/><ellipse cx="48" cy="89" fill="#974211" rx="31" ry="102"/><circle r="1" fill="#8f3400" transform="matrix(27.8578 -45.87616 26.06563 15.82807 243 32.7)"/><circle r="1" fill="#d9b387" transform="matrix(9.49294 2.00048 -19.13096 90.7829 150.7 25.7)"/><path fill="#00140a" d="m178.1 26.4 7.5 10.6L162 53.6 154.4 43z"/><ellipse cx="255" cy="100" fill="#96a1a1" rx="16" ry="31"/></g></g></svg>