<svg xmlns="http://www.w3.org/2000/svg" width="300" height="300"><g filter="blur(12px)"><rect width="200%" height="200%" x="-50%" y="-50%" fill="#ac5b72"/><rect width="100%" height="100%" fill="#ac5b72"/><g fill-opacity=".5" transform="translate(.6 .6)scale(1.17188)"><circle r="1" fill="#eeab1a" transform="matrix(102.28838 -160.5606 165.76563 105.60435 111.7 117)"/><path fill="#de6217" d="m13.1 101.8-29.6-86L151-41.8l29.6 86z"/><circle r="1" fill="#c19464" transform="matrix(52.35466 -58.14574 80.85645 72.80347 136.2 181.4)"/><ellipse cx="10" cy="185" fill="#ff7200" rx="35" ry="15"/><path fill="#804670" d="M136 109h44v28h-44z"/><circle r="1" fill="#e37c2a" transform="matrix(-22.55479 -28.55679 73.30177 -57.89537 234.9 28.4)"/><ellipse cx="76" cy="193" fill="#a45543" rx="31" ry="15"/><circle r="1" fill="#ee7304" transform="matrix(12.17756 13.56753 -9.5664 8.58634 123.6 120.6)"/></g></g></svg>