<svg xmlns="http://www.w3.org/2000/svg" width="300" height="300"><g filter="blur(12px)"><rect width="200%" height="200%" x="-50%" y="-50%" fill="#5c90a8"/><rect width="100%" height="100%" fill="#5c90a8"/><g fill-opacity=".5" transform="translate(.6 .6)scale(1.17188)"><circle r="1" fill="#f7c5b3" transform="matrix(170.26548 121.00138 -108.48728 152.65643 143 150.5)"/><circle r="1" fill="#ffb638" transform="matrix(4.61892 66.05368 -23.4461 1.63951 -.1 149.1)"/><circle r="1" fill="#f8986d" transform="matrix(21.4629 -11.86254 61.87091 111.943 32.6 224)"/><circle cx="113" cy="19" r="91" fill="#9fc0d3"/><circle r="1" fill="#9e6f8a" transform="matrix(85.6993 13.19028 -2.71783 17.65817 186.9 203)"/><circle r="1" fill="#6ea3a6" transform="matrix(-50.07492 29.7323 -13.72759 -23.1199 100.2 148)"/><ellipse cx="14" cy="44" fill="#dcb8c2" rx="23" ry="84"/><circle r="1" fill="#6f98c1" transform="matrix(2.88135 15.5464 -47.59151 8.82057 119 229.2)"/></g></g></svg>