<svg xmlns="http://www.w3.org/2000/svg" width="300" height="300"><g filter="blur(12px)"><rect width="200%" height="200%" x="-50%" y="-50%" fill="#4c6ca4"/><rect width="100%" height="100%" fill="#4c6ca4"/><g fill-opacity=".5" transform="translate(.6 .6)scale(1.17188)"><circle r="1" fill="#c06d17" transform="matrix(190.38668 -1.10537 1.20243 207.10326 144.7 135.3)"/><circle r="1" transform="matrix(26.81024 102.9261 -15.9091 4.14401 92.9 235.5)"/><circle r="1" transform="rotate(63.3 59 103.7)scale(39.51695 25.25628)"/><circle r="1" transform="matrix(-10.88055 29.09098 -15.90456 -5.94859 117.1 100.3)"/><circle r="1" transform="rotate(26.5 -175.7 428.6)scale(15.39122 26.50129)"/><path fill="#c2b4b0" d="m123 130 89-146 49 60z"/><ellipse cx="201" cy="147" fill="#d7b9dd" rx="25" ry="32"/><circle r="1" fill="#863000" transform="matrix(67.6354 -44.269 21.98633 33.59132 255 218)"/></g></g></svg>