<svg xmlns="http://www.w3.org/2000/svg" width="300" height="300"><g filter="blur(12px)"><rect width="200%" height="200%" x="-50%" y="-50%" fill="#855e62"/><rect width="100%" height="100%" fill="#855e62"/><g fill-opacity=".5" transform="translate(.6 .6)scale(1.17188)"><ellipse cx="27" cy="164" fill="#150500" rx="29" ry="37"/><path fill="#200" d="m271 157-84 20-5 65z"/><path fill="#9cb2b9" d="m63.7 129.8-67.5-14.3 16-75.3 67.6 14.3z"/><path fill="#90e9ff" d="M166 137h62v26h-62z"/><path fill="#240900" d="M264.5 47.3 277 76.7l-75.5 32L189 79.3z"/><circle r="1" fill="#9fbbcc" transform="matrix(2.27677 17.14573 -60.27971 8.0045 174.4 59.7)"/><ellipse cx="129" cy="151" fill="#913d00" rx="37" ry="30"/><path fill="#4d1200" d="m166.4 31.6 4.2-21.6 105 20.4-4.2 21.6z"/></g></g></svg>