<svg xmlns="http://www.w3.org/2000/svg" width="300" height="300"><g filter="blur(12px)"><rect width="200%" height="200%" x="-50%" y="-50%" fill="#9ba3bb"/><rect width="100%" height="100%" fill="#9ba3bb"/><g fill-opacity=".5" transform="translate(.6 .6)scale(1.17188)"><circle r="1" fill="#fffaff" transform="matrix(-68.17032 177.47628 -200.23928 -76.9138 143 125)"/><circle r="1" fill="#e9d4ee" transform="matrix(73.40466 244.20638 -86.29163 25.93793 159.2 74.6)"/><circle r="1" fill="#f4dffa" transform="matrix(-9.51433 31.08587 -38.17848 -11.68513 43.5 191.6)"/><path fill="#d0c1d3" d="M5 26h127v140H5z"/><circle r="1" fill="#f1e7f2" transform="rotate(114.8 21.3 25)scale(14.07378 52.66021)"/><path fill="#9da6b7" d="m178 150 9-31 20 24z"/><circle r="1" fill="#baa7c0" transform="matrix(2.60098 -7.42722 81.47562 28.53236 27.5 228.8)"/><ellipse cx="46" cy="73" fill="#baafbd" rx="32" ry="18"/></g></g></svg>