<svg xmlns="http://www.w3.org/2000/svg" width="300" height="300"><g filter="blur(12px)"><rect width="200%" height="200%" x="-50%" y="-50%" fill="#76879b"/><rect width="100%" height="100%" fill="#76879b"/><g fill-opacity=".5" transform="translate(.6 .6)scale(1.17188)"><circle r="1" fill="#fffff2" transform="matrix(-148.30494 -125.60501 118.69734 -140.14887 129 125)"/><circle r="1" fill="#5b8138" transform="matrix(-4.64498 -27.276 21.67088 -3.69045 138 208.6)"/><path fill="#61843f" d="M144.2 103.6 126 44.3l25.8-7.9L170 95.7z"/><circle r="1" fill="#d2e7ed" transform="matrix(162.45385 128.70646 -33.89347 42.78049 200.9 16.7)"/><circle cx="72" cy="221" r="13" fill="#4d7833"/><path fill="#1a4900" d="m114.6 32.3 2.9-6.4 21.9 9.8-2.9 6.4z"/><path fill="#628642" d="M91.5 98.2 78 87.7l6.6-4.9 57.2-35.3z"/><circle r="1" fill="#ecfef4" transform="rotate(168.4 10.6 110)scale(18.0209 28.64965)"/></g></g></svg>