<svg xmlns="http://www.w3.org/2000/svg" width="300" height="300"><g filter="blur(12px)"><rect width="200%" height="200%" x="-50%" y="-50%" fill="#6c6e79"/><rect width="100%" height="100%" fill="#6c6e79"/><g fill-opacity=".5" transform="translate(.6 .6)scale(1.17188)"><circle r="1" fill="#c6938e" transform="rotate(61.6 -65 177)scale(203.22239 149.21204)"/><ellipse cx="226" cy="214" fill="#2c3039" rx="38" ry="20"/><path fill="#565456" d="m271 115-148 35-50-67z"/><circle r="1" fill="#473e3b" transform="matrix(26.36022 15.97316 -9.68415 15.98157 79 64.3)"/><circle r="1" fill="#2493ce" transform="matrix(-49.54144 -7.94073 1.46597 -9.14607 222.4 99.4)"/><path fill="#e4a3bd" d="m15 193 61-87 45 31z"/><path fill="#d0b1b3" d="m152 100 45 12 4-128z"/><circle r="1" fill="#722f00" transform="matrix(-24.7889 10.67277 -6.12359 -14.22283 156.7 4.2)"/></g></g></svg>