<svg xmlns="http://www.w3.org/2000/svg" width="300" height="300"><g filter="blur(12px)"><rect width="200%" height="200%" x="-50%" y="-50%" fill="#ac9b66"/><rect width="100%" height="100%" fill="#ac9b66"/><circle r="1" fill="#cbbecb" fill-opacity=".5" transform="rotate(4.3 -2424.3 2277.8)scale(168.70296 291.66372)"/><circle r="1" fill="#4e6449" fill-opacity=".5" transform="rotate(-72.1 241.7 65.3)scale(82.11057 16.03315)"/><path fill="#4b5b46" fill-opacity=".5" d="m68.3 77.2.5 30.4-89 1.6-.6-30.5z"/><circle r="1" fill="#5b5e3b" fill-opacity=".5" transform="matrix(-9.54913 14.91903 -25.02363 -16.01671 98.6 203.2)"/><circle r="1" fill="#fdd4bd" fill-opacity=".5" transform="matrix(9.12031 32.80275 -43.63378 12.13172 112.4 45.5)"/><circle r="1" fill="#625c40" fill-opacity=".5" transform="rotate(-140 161.6 110.7)scale(18.90749 46.65636)"/><circle r="1" fill="#ffd9c2" fill-opacity=".5" transform="matrix(14.7128 -32.90341 26.7442 11.9587 189.3 252)"/><path fill="#6c7d5a" fill-opacity=".5" d="m250.5 96.7-35.4 23L182 68.6l35.4-23z"/></g></svg>