<svg xmlns="http://www.w3.org/2000/svg" width="300" height="300"><g filter="blur(12px)"><rect width="200%" height="200%" x="-50%" y="-50%" fill="#628ea8"/><rect width="100%" height="100%" fill="#628ea8"/><circle r="1" fill="#ffae6a" fill-opacity=".5" transform="matrix(247.76531 56.21893 -46.24401 203.80436 161.2 171.8)"/><circle r="1" fill="#fe9e7d" fill-opacity=".5" transform="rotate(-155.2 71.7 57.5)scale(107.17356 262.38273)"/><path fill="#f31e22" fill-opacity=".5" d="M131.9 306.7 22.2 243.4l11.2-19.3L143 287.4z"/><circle r="1" fill="#fc1816" fill-opacity=".5" transform="matrix(-4.9068 -17.73441 36.08595 -9.98433 56.7 112.3)"/><circle r="1" fill="#f4201b" fill-opacity=".5" transform="matrix(-16.29128 9.62091 -24.05328 -40.72988 195 12.6)"/><circle r="1" fill="#ff0015" fill-opacity=".5" transform="matrix(-8.72871 -14.18832 17.83007 -10.96913 293 37.7)"/><circle r="1" fill="#ff1d16" fill-opacity=".5" transform="matrix(45.49052 24.28968 -3.40747 6.38162 270.7 146.5)"/><circle r="1" fill="#f7233d" fill-opacity=".5" transform="rotate(68.6 -131 120.4)scale(15.6917 40.89986)"/></g></svg>