<svg xmlns="http://www.w3.org/2000/svg" width="300" height="300"><g filter="blur(12px)"><rect width="200%" height="200%" x="-50%" y="-50%" fill="#8bac63"/><rect width="100%" height="100%" fill="#8bac63"/><g fill-opacity=".5" transform="translate(.6 .6)scale(1.17188)"><circle r="1" fill="#fae7ff" transform="matrix(-219.78375 -2.52718 2.0522 -178.47574 128.8 152)"/><circle r="1" fill="#c5cbf3" transform="matrix(-77.70706 -130.80072 140.17784 -83.2779 142.3 136.3)"/><path fill="#90a698" d="m115 117-15 110-24-107z"/><circle r="1" fill="#91af96" transform="matrix(15.09755 -32.24129 26.03202 12.18995 25.3 18)"/><ellipse cx="147" cy="44" fill="#628734" rx="6" ry="14"/><path fill="#7fa266" d="m93.8 197 33.3-13.6 7.1 17.7-33.3 13.5z"/><circle r="1" fill="#83a16a" transform="matrix(7.42261 -27.31975 5.17882 1.40705 26.8 148.5)"/><ellipse cx="38" cy="83" fill="#8994b5" rx="14" ry="25"/></g></g></svg>