<svg xmlns="http://www.w3.org/2000/svg" width="300" height="300"><g filter="blur(12px)"><rect width="200%" height="200%" x="-50%" y="-50%" fill="#6c99b4"/><rect width="100%" height="100%" fill="#6c99b4"/><g fill-opacity=".5" transform="translate(.6 .6)scale(1.17188)"><circle r="1" fill="#af5543" transform="matrix(160.61023 -53.70629 72.9076 218.03228 125.5 107.4)"/><circle r="1" fill="#33282f" transform="matrix(78.45934 -11.15554 3.17083 22.30114 38.7 60)"/><circle r="1" fill="#533030" transform="matrix(7.20852 -25.68438 33.35848 9.36231 88.8 168.8)"/><ellipse cy="208" fill="#d8c2a2" rx="82" ry="22"/><path fill="#cac6e3" d="m182 144 16-69 49 74z"/><path fill="#dceafd" d="M113.1 120.2 72 81.3l-17.4 48.1 48.5-29.2z"/><circle r="1" fill="#bbb7bc" transform="matrix(21.66317 2.35337 -5.0629 46.60477 217.3 24.4)"/><path fill="#664342" d="M144 96h36v105h-36z"/></g></g></svg>