<svg xmlns="http://www.w3.org/2000/svg" width="300" height="300"><g filter="blur(12px)"><rect width="200%" height="200%" x="-50%" y="-50%" fill="#684142"/><rect width="100%" height="100%" fill="#684142"/><g fill-opacity=".5" transform="translate(.6 .6)scale(1.17188)"><circle r="1" fill="#cd908d" transform="matrix(-157.89447 -28.12529 44.71852 -251.04831 156 138.4)"/><circle r="1" fill="#b2c1c8" transform="rotate(-164.9 32.2 63.3)scale(79.89236 28.31805)"/><circle r="1" fill="#960000" transform="matrix(62.64089 13.7725 -4.81053 21.87953 227.6 125.4)"/><circle r="1" fill="#1be2ff" transform="rotate(-171.8 30 107.7)scale(27.52883 14.45507)"/><circle r="1" fill="#a51e09" transform="matrix(49.11993 9.81513 -5.73876 28.71971 92.2 187)"/><path fill="#a7f4ff" d="m50.2 29.5-8.8 45.2-21.6-4.2 8.8-45.2z"/><ellipse cx="118" cy="13" fill="#a21c09" rx="56" ry="28"/><circle r="1" fill="#5d8da9" transform="matrix(77.14213 -42.58475 18.22038 33.00616 193 247.8)"/></g></g></svg>