<svg xmlns="http://www.w3.org/2000/svg" width="300" height="300"><g filter="blur(12px)"><rect width="200%" height="200%" x="-50%" y="-50%" fill="#7687a3"/><rect width="100%" height="100%" fill="#7687a3"/><g fill-opacity=".5" transform="translate(.6 .6)scale(1.17188)"><circle cx="198" cy="121" r="255" fill="#ffcf35"/><circle r="1" fill="#ffab6c" transform="rotate(-.6 12133.1 -12946.2)scale(192.01341 191.36385)"/><circle r="1" fill="#d6e9ff" transform="matrix(-19.38816 22.781 -15.24084 -12.97097 33.6 215)"/><path fill="#b292f9" d="m184.5 191.7 19.2 7.3-92.6 70 23.7-66z"/><circle r="1" fill="#ea50aa" transform="rotate(-90.9 41.8 -14.6)scale(77.09459 24.38756)"/><circle r="1" fill="#ffa92c" transform="matrix(-31.21496 -99.39614 45.53453 -14.29994 220 130.4)"/><circle r="1" fill="#d39cfa" transform="matrix(-18.1414 5.78966 -14.28113 -44.7487 9 122.6)"/><circle r="1" fill="#ff8c04" transform="matrix(4.89068 -14.00034 53.19245 18.58151 119.4 121.9)"/></g></g></svg>