<svg xmlns="http://www.w3.org/2000/svg" width="300" height="300"><g filter="blur(12px)"><rect width="200%" height="200%" x="-50%" y="-50%" fill="#9f7563"/><rect width="100%" height="100%" fill="#9f7563"/><g fill-opacity=".5" transform="translate(.6 .6)scale(1.17188)"><ellipse cx="138" cy="114" fill="#eddfb9" rx="182" ry="202"/><path fill="#797449" d="m120.6 202.1-31.4 57.8 68.6 10.2-21.4-66.7z"/><path fill="#59735b" d="m113 116 45-20-30-12z"/><path fill="#313c10" d="M166 0h19v14h-19z"/><circle r="1" fill="#d7bea8" transform="matrix(18.49665 29.2588 -51.72428 32.69873 183.7 51.2)"/><path fill="#292620" d="m81.4 12.3 3.3-15.1L72.3 9.6l2.9 7.4z"/><ellipse cx="157" cy="125" fill="#fac095" rx="36" ry="20"/><path fill="#ffd79e" d="m184.8 43.7-20.5 8-25.1-65.4 20.5-8z"/></g></g></svg>