<svg xmlns="http://www.w3.org/2000/svg" width="300" height="300"><g filter="blur(12px)"><rect width="200%" height="200%" x="-50%" y="-50%" fill="#885296"/><rect width="100%" height="100%" fill="#885296"/><g fill-opacity=".5" transform="translate(.6 .6)scale(1.17188)"><circle r="1" fill="#fff8d5" transform="matrix(-254.99968 .4036 -.21678 -136.96513 142.6 142.4)"/><circle cx="112" cy="50" r="255" fill="#ffa1b4"/><circle r="1" fill="#f3005f" transform="matrix(18.61532 -35.45695 15.15025 7.95406 235.2 131.8)"/><path fill="#f50049" d="m98.6 267.3 32.5-66.5 24.3 11.9-32.5 66.5z"/><ellipse cx="56" cy="69" fill="#feffe7" rx="74" ry="36"/><circle r="1" fill="#faffd3" transform="rotate(78 -68.1 141)scale(40.65924 65.2977)"/><circle r="1" fill="#ff0075" transform="matrix(.0646 -16.55969 147.29082 .57459 130.4 3.4)"/><circle r="1" fill="#f12885" transform="matrix(-18.3583 62.5949 -21.03532 -6.1694 145.6 85.9)"/></g></g></svg>