<svg xmlns="http://www.w3.org/2000/svg" width="300" height="300"><g filter="blur(12px)"><rect width="200%" height="200%" x="-50%" y="-50%" fill="#96654f"/><rect width="100%" height="100%" fill="#96654f"/><g fill-opacity=".5" transform="translate(.6 .6)scale(1.17188)"><circle r="1" fill="#f7e1d0" transform="rotate(-108 90.3 27.7)scale(255 160.55351)"/><circle r="1" fill="#fff" transform="matrix(45.64603 -.9186 .4211 20.9245 144 111.2)"/><circle r="1" fill="#fff" transform="matrix(7.70121 19.79395 -36.07262 14.03474 211.3 197.7)"/><circle r="1" fill="#753f47" transform="matrix(34.20505 10.83873 -9.4475 29.81459 144.3 159.7)"/><circle cx="131" cy="32" r="35" fill="#b45425"/><circle r="1" fill="#30376f" transform="matrix(.74408 21.45362 -31.70061 1.09948 14.7 42.7)"/><circle r="1" fill="#8a4e3a" transform="matrix(37.85669 -18.11138 9.13655 19.09735 80.7 85)"/><circle r="1" fill="#fff" transform="matrix(-14.78976 -1.8716 5.80273 -45.85457 4 214.2)"/></g></g></svg>