<svg xmlns="http://www.w3.org/2000/svg" width="300" height="300"><g filter="blur(12px)"><rect width="200%" height="200%" x="-50%" y="-50%" fill="#9d7557"/><rect width="100%" height="100%" fill="#9d7557"/><g fill-opacity=".5" transform="translate(.6 .6)scale(1.17188)"><circle r="1" fill="#c2bfaa" transform="matrix(-52.35885 128.30144 -220.39232 -89.94044 166.8 149.5)"/><circle cx="81" cy="177" r="36" fill="#7e6a5c"/><circle r="1" fill="#ffd8a4" transform="matrix(-1.46605 -33.57796 15.31525 -.66868 139.4 198.3)"/><path fill="#335e43" d="M126.8 207.6v29.7l-7.2 33.7-22-48.7z"/><circle r="1" fill="#6c6a52" transform="matrix(48.09132 36.90566 -8.83538 11.51327 175.5 174.3)"/><circle r="1" fill="#ffdfc7" transform="matrix(-8.34451 .70834 -3.12117 -36.76864 44.4 43.1)"/><circle r="1" fill="#fecdae" transform="rotate(-76 277 -18.1)scale(42.57913 20.38834)"/><path fill="#ffd0b0" d="m6 112 31-62 4 58z"/></g></g></svg>