<svg xmlns="http://www.w3.org/2000/svg" width="300" height="300"><g filter="blur(12px)"><rect width="200%" height="200%" x="-50%" y="-50%" fill="#847273"/><rect width="100%" height="100%" fill="#847273"/><g fill-opacity=".5" transform="translate(.6 .6)scale(1.17188)"><path fill="#ffd495" d="m154 109.8 50-20.3 48 118.7-50 20.3z"/><ellipse cx="115" cy="203" fill="#ffffd1" rx="26" ry="35"/><circle r="1" fill="#ffc288" transform="matrix(-73.5672 35.88267 -12.13358 -24.87645 156.6 41.7)"/><circle r="1" fill="#313f34" transform="rotate(79 -26.8 58)scale(191.21612 49.11627)"/><path fill="#fff4b3" d="M10.7 257.5-16 197.9l58.7 26.4L19 242z"/><circle r="1" fill="#474f48" transform="matrix(-94.8867 -10.2152 2.65787 -24.68836 228.5 72.9)"/><circle r="1" fill="#454c44" transform="matrix(-41.22771 -29.62512 16.53996 -23.01778 181.6 223)"/><circle r="1" fill="#b1baad" transform="matrix(-12.61649 7.67094 -14.81518 -24.36669 58.2 70.7)"/></g></g></svg>