<svg xmlns="http://www.w3.org/2000/svg" width="300" height="300"><g filter="blur(12px)"><rect width="200%" height="200%" x="-50%" y="-50%" fill="#6cac84"/><rect width="100%" height="100%" fill="#6cac84"/><g fill-opacity=".5" transform="translate(.6 .6)scale(1.17188)"><circle r="1" fill="#8e6962" transform="matrix(233.6725 -102.089 59.44453 136.06316 138.3 122.6)"/><path fill="#fff" d="m-5.9-14 58.6 7.2L47.9 32l-58.6-7.1z"/><path fill="#ffefd6" d="m179 136-56-36 148 28z"/><path fill="#ffedd7" d="M107.2 57.5 70.4 53l8.4-68.5 36.8 4.5z"/><circle r="1" fill="#1b4635" transform="rotate(164.5 105 27.2)scale(101.25741 20.3037)"/><path fill="#002c1c" d="M53.2 76 36 70.6 58.8-4 76 1.3z"/><ellipse cx="234" cy="249" fill="#ffdddb" rx="42" ry="12"/><circle cx="192" cy="188" r="17" fill="#ffecc9"/></g></g></svg>