<svg xmlns="http://www.w3.org/2000/svg" width="300" height="300"><g filter="blur(12px)"><rect width="200%" height="200%" x="-50%" y="-50%" fill="#7483a3"/><rect width="100%" height="100%" fill="#7483a3"/><g fill-opacity=".5" transform="translate(.6 .6)scale(1.17188)"><circle r="1" fill="#f2fce9" transform="matrix(-72.8005 -242.65673 179.76756 -53.93285 118.8 151)"/><path fill="#58754e" d="m200.3 229.3-24.7 16.6-10.3-14.5 18-29.4z"/><path fill="#708f53" d="m120 251.7-4.9-5.4 10-36-37.7 6z"/><circle r="1" fill="#6c8861" transform="matrix(9.54753 21.74989 -9.87714 4.33576 46.5 218.8)"/><path fill="#587a2d" d="M183 36h24v21h-24z"/><path fill="#5d802b" d="M144 90h17v26h-17z"/><circle cx="65" cy="110" r="42" fill="#8e99bf"/><path fill="#fafff9" d="m121 126.1 33.5-12.9 12.6 32.7-33.6 12.9z"/></g></g></svg>