<svg xmlns="http://www.w3.org/2000/svg" width="300" height="300"><g filter="blur(12px)"><rect width="200%" height="200%" x="-50%" y="-50%" fill="#6a8b72"/><rect width="100%" height="100%" fill="#6a8b72"/><circle r="1" fill="#ffc792" fill-opacity=".5" transform="matrix(-37.8273 48.06992 -82.34386 -64.79823 193.4 106.3)"/><circle r="1" fill="#ffd498" fill-opacity=".5" transform="rotate(-177.4 19.6 24.3)scale(46.77195 84.34528)"/><circle r="1" fill="#ffd4a7" fill-opacity=".5" transform="matrix(-17.52886 -5.21786 30.296 -101.77641 272.1 275.1)"/><circle r="1" fill="#1b4534" fill-opacity=".5" transform="matrix(41.6066 46.70706 -21.26155 18.93976 216.7 46.6)"/><path fill="#ffd992" fill-opacity=".5" d="m311.3 105-125.8 81.7-19.8-30.4 125.8-81.7z"/><circle r="1" fill="#ffe4a5" fill-opacity=".5" transform="matrix(.16973 -32.88717 26.39323 .13622 90.8 299.4)"/><path fill="#ffa48c" fill-opacity=".5" d="m65 254.9-5.8-99.6-50.4 96z"/><path fill="#ffc890" fill-opacity=".5" d="m150.9 252.2.6-35.2 43.3.8-.6 35.1z"/></g></svg>