<svg xmlns="http://www.w3.org/2000/svg" width="300" height="300"><g filter="blur(12px)"><rect width="200%" height="200%" x="-50%" y="-50%" fill="#8474a4"/><rect width="100%" height="100%" fill="#8474a4"/><g fill-opacity=".5" transform="translate(.6 .6)scale(1.17188)"><circle r="1" fill="#f2f3e3" transform="matrix(-100.21594 173.43402 -151.50147 -87.54259 140.3 126)"/><circle r="1" fill="#e8e7f2" transform="matrix(65.99384 -6.23825 3.47777 36.79093 69 67)"/><ellipse cx="46" cy="138" fill="#9c96a1" rx="195" ry="30"/><circle r="1" fill="#e1dcec" transform="matrix(9.22798 -29.19818 36.37807 11.49716 153.8 96.7)"/><circle r="1" fill="#938998" transform="rotate(57.4 -178 174.7)scale(20.20482 63.75581)"/><circle r="1" fill="#fff" transform="matrix(-6.3032 -12.64228 24.81333 -12.37147 14.8 196)"/><ellipse cx="196" cy="203" fill="#978ca4" rx="49" ry="29"/><path fill="#f8fbff" d="M199.6 49.1 160 43.6l4.4-30.7 39.6 5.5z"/></g></g></svg>