<svg xmlns="http://www.w3.org/2000/svg" width="300" height="300"><g filter="blur(12px)"><rect width="200%" height="200%" x="-50%" y="-50%" fill="#7b985e"/><rect width="100%" height="100%" fill="#7b985e"/><g fill-opacity=".5" transform="translate(.6 .6)scale(1.17188)"><circle cx="137" cy="124" r="194" fill="#fff"/><circle r="1" fill="#e1edfc" transform="matrix(-57.10216 156.03898 -190.61548 -69.75536 129.3 104.6)"/><circle r="1" fill="#72766d" transform="matrix(6.32052 -47.58944 11.65497 1.54794 96.7 244.4)"/><circle r="1" fill="#a7b0a8" transform="rotate(-4.1 1545.8 -1716.9)scale(17.33199 68.63224)"/><circle r="1" fill="#e2eee4" transform="matrix(-53.61195 -17.32793 27.26765 -84.36509 198.5 150.6)"/><path fill="#a2aba2" d="m9.2 196.6 75.6-50.4-4.7 55.7-57.5-68.5z"/><ellipse cx="17" cy="69" fill="#8e9b96" rx="9" ry="25"/><path fill="#8d938c" d="m176.9 96 2.6-51.8 4.7 5.4 8.9 20.6z"/></g></g></svg>