<svg xmlns="http://www.w3.org/2000/svg" width="300" height="300"><g filter="blur(12px)"><rect width="200%" height="200%" x="-50%" y="-50%" fill="#ab9867"/><rect width="100%" height="100%" fill="#ab9867"/><g fill-opacity=".5" transform="translate(.6 .6)scale(1.17188)"><circle r="1" fill="#754921" transform="rotate(-154.4 93.3 53)scale(175.57318 206.66152)"/><path fill="#f5e9b8" d="m19.7 193.8 20.8 13.8 40.8-24-56.1-16.5z"/><ellipse cx="253" cy="117" fill="#4f3215" rx="26" ry="60"/><circle cx="184" cy="118" r="38" fill="#c7a35d"/><path fill="#ffebac" d="m-2.6 136-4.8-19.5 34-8.4 4.8 19.4z"/><circle r="1" fill="#c3ab72" transform="matrix(9.03438 -47.3599 16.94783 3.23297 222 202.4)"/><path fill="#f6edbd" d="m170.8 11.6-38 2.7-1.6-24 38-2.6z"/><circle r="1" fill="#ecc076" transform="matrix(-12.88873 -14.98453 13.07657 -11.24762 143 188.2)"/></g></g></svg>