<svg xmlns="http://www.w3.org/2000/svg" width="300" height="300"><g filter="blur(12px)"><rect width="200%" height="200%" x="-50%" y="-50%" fill="#6f8971"/><rect width="100%" height="100%" fill="#6f8971"/><g fill-opacity=".5" transform="translate(.6 .6)scale(1.17188)"><circle r="1" fill="#ffd4a2" transform="matrix(-36.2225 -25.4576 14.4944 -20.62345 174.4 125.2)"/><circle r="1" fill="#08361c" transform="matrix(4.61725 -19.88279 40.59682 9.42753 80.6 163.8)"/><ellipse cx="81" cy="83" fill="#213b23" rx="36" ry="27"/><circle r="1" fill="#ceead6" transform="rotate(71.1 -97.8 75.3)scale(33.54548 26.53519)"/><circle r="1" fill="#faa49e" transform="matrix(-28.40323 22.32831 -13.14347 -16.71945 30.6 62.8)"/><circle r="1" fill="#b6b39c" transform="matrix(-11.59687 -79.82256 27.49988 -3.99527 226.8 75.7)"/><circle r="1" fill="#b3b9a4" transform="rotate(173.8 33 112.3)scale(50.20499 32.94044)"/><path d="M17 174h20v27H17z"/></g></g></svg>