<svg xmlns="http://www.w3.org/2000/svg" width="300" height="300"><g filter="blur(12px)"><rect width="200%" height="200%" x="-50%" y="-50%" fill="#7383a3"/><rect width="100%" height="100%" fill="#7383a3"/><g fill-opacity=".5" transform="translate(.6 .6)scale(1.17188)"><circle r="1" fill="#f9fcf7" transform="matrix(-30.72407 -154.76812 208.37893 -41.36672 134.6 136.6)"/><circle r="1" fill="#fff" transform="matrix(78.8175 46.51436 -12.15978 20.60446 78 96)"/><path fill="#678d30" d="m9 51 58-31L21-2z"/><path fill="#335a00" d="m221.3 241.6 38.5-27 6.9 9.8-38.5 27z"/><circle cx="38" cy="114" r="33" fill="#8995b6"/><ellipse cx="117" cy="120" fill="#fff" rx="49" ry="25"/><path fill="#7e8fa1" d="m75.6 239.8 40-99.2 28.8 11.6-40 99.2z"/><circle r="1" fill="#6e954e" transform="matrix(-7.09377 -17.28086 12.3596 -5.0736 250.5 138)"/></g></g></svg>