<svg xmlns="http://www.w3.org/2000/svg" width="300" height="300"><g filter="blur(12px)"><rect width="200%" height="200%" x="-50%" y="-50%" fill="#ad90b3"/><rect width="100%" height="100%" fill="#ad90b3"/><g fill-opacity=".5" transform="translate(.6 .6)scale(1.17188)"><circle r="1" fill="#ee8400" transform="rotate(-77.7 131 -10.6)scale(255 145.62509)"/><circle r="1" fill="#584fe3" transform="matrix(12.6127 -32.68908 51.98269 20.05692 139.1 192.1)"/><circle r="1" fill="#fea400" transform="matrix(-97.39754 8.07512 -4.6521 -56.11098 166.5 35.3)"/><circle r="1" fill="#88f" transform="rotate(-173.8 36.7 41.7)scale(41.06396 12.86681)"/><circle r="1" fill="#96a9ff" transform="rotate(-48.2 320.4 -61)scale(38.83002 11.70433)"/><circle cx="78" cy="138" r="28" fill="#ffd310"/><circle r="1" fill="#565aff" transform="matrix(-17.99367 17.92506 -8.41573 -8.44795 87 185.7)"/><circle r="1" fill="#826ea6" transform="matrix(13.02423 -20.167 32.79329 21.17854 197.4 117.7)"/></g></g></svg>