<svg xmlns="http://www.w3.org/2000/svg" width="300" height="300"><g filter="blur(12px)"><rect width="200%" height="200%" x="-50%" y="-50%" fill="#648c6c"/><rect width="100%" height="100%" fill="#648c6c"/><circle r="1" fill="#e3b099" fill-opacity=".5" transform="rotate(131 10.4 121.8)scale(249.58599 196.05649)"/><circle r="1" fill="#497144" fill-opacity=".5" transform="rotate(110.4 68.7 83)scale(38.42495 25.28261)"/><circle r="1" fill="#f5e6e8" fill-opacity=".5" transform="matrix(-13.48643 -27.11448 17.26437 -8.5871 266.6 98.6)"/><circle r="1" fill="#cda4c4" fill-opacity=".5" transform="rotate(-33.8 416.2 -173.2)scale(64.88538 28.44824)"/><path fill="#337b59" fill-opacity=".5" d="m171 305.3-38.2 20.4-30.8-58 38.3-20.3z"/><path fill="#4f734a" fill-opacity=".5" d="m100.2-18.2 42.2 16.4L67.4 99z"/><path fill="#3d5553" fill-opacity=".5" d="M100.2 102.9 57 87.9l8-23.2 43.2 14.9z"/><circle r="1" fill="#2d7a57" fill-opacity=".5" transform="matrix(-8.12372 -10.99262 20.6262 -15.24308 212.7 107)"/></g></svg>