<svg xmlns="http://www.w3.org/2000/svg" width="300" height="300"><g filter="blur(12px)"><rect width="200%" height="200%" x="-50%" y="-50%" fill="#8478a4"/><rect width="100%" height="100%" fill="#8478a4"/><g fill-opacity=".5" transform="translate(.6 .6)scale(1.17188)"><circle r="1" fill="#fffffc" transform="rotate(-84.1 124.7 19.4)scale(128.05773 255)"/><path fill="#48473d" d="m238.2 104-47-1 .6-29 47 1z"/><ellipse cx="100" cy="9" fill="#343b1e" rx="31" ry="17"/><circle r="1" fill="#f9eef5" transform="matrix(-22.424 -94.37038 31.14076 -7.39957 40 12.3)"/><circle r="1" fill="#45443d" transform="matrix(41.82395 -25.86244 3.99147 6.45488 161.8 246.6)"/><circle r="1" fill="#f5ecf5" transform="rotate(118.4 -13.8 122.8)scale(85.91053 26.30689)"/><path fill="#fbf2ee" d="m220 68.7-8.8-41L260 17.3l8.7 41z"/><circle r="1" fill="#454f2b" transform="matrix(16.01415 -11.28602 17.85021 25.32832 147.4 0)"/></g></g></svg>