<svg xmlns="http://www.w3.org/2000/svg" width="300" height="300"><g filter="blur(12px)"><rect width="200%" height="200%" x="-50%" y="-50%" fill="#ad6c66"/><rect width="100%" height="100%" fill="#ad6c66"/><g fill-opacity=".5" transform="translate(.6 .6)scale(1.17188)"><circle r="1" fill="#aec5a8" transform="matrix(-246.87765 63.8469 -28.01231 -108.31558 147.5 91.6)"/><circle r="1" fill="#487755" transform="matrix(-5.42023 -40.62275 114.80536 -15.3183 126.6 226.2)"/><circle r="1" fill="#5a583c" transform="matrix(24.34725 80.64198 -20.47774 6.1826 54.8 132.2)"/><circle r="1" fill="#efc4ae" transform="matrix(27.19093 16.1448 -29.47958 49.64926 127.5 171.4)"/><circle r="1" fill="#3d4a3e" transform="matrix(-6.00941 31.34434 -16.64864 -3.19192 186 79.9)"/><ellipse cx="249" cy="117" fill="#d9c3be" rx="38" ry="94"/><path fill="#ffd7b0" d="m30.2 220-42.4-24.5 24-41.5 42.4 24.5z"/><circle r="1" fill="#474a49" transform="matrix(11.04317 7.74097 -13.43016 19.1593 211.2 31.9)"/></g></g></svg>