<svg xmlns="http://www.w3.org/2000/svg" width="300" height="300"><g filter="blur(12px)"><rect width="200%" height="200%" x="-50%" y="-50%" fill="#84796e"/><rect width="100%" height="100%" fill="#84796e"/><g fill-opacity=".5" transform="translate(.6 .6)scale(1.17188)"><circle cx="166" cy="142" r="183" fill="#c4a98e"/><path fill="#fffff1" d="M185 117h33v108h-33z"/><path fill="#2b2d1f" d="m180.9 133.3-3 33.9-50.8-4.5 3-33.9z"/><circle r="1" fill="#0d1a0d" transform="matrix(5.27459 19.86404 -15.21088 4.03901 201.2 53.7)"/><circle r="1" fill="#05160a" transform="matrix(-26.45312 -18.35974 5.93508 -8.5514 12.2 140.4)"/><circle r="1" fill="#fcd8c6" transform="matrix(-16.60366 -7.66273 17.90299 -38.79235 103.4 33.5)"/><path fill="#191f16" d="m69.1 217.4-10.8-40.2 27.6 5.5.4 2.9z"/><path fill="#fff" d="m31 271.2 7.5-39.2 24.6 4.8-7.6 39.2z"/></g></g></svg>