<svg xmlns="http://www.w3.org/2000/svg" width="300" height="300"><g filter="blur(12px)"><rect width="200%" height="200%" x="-50%" y="-50%" fill="#aa6261"/><rect width="100%" height="100%" fill="#aa6261"/><g fill-opacity=".5" transform="translate(.6 .6)scale(1.17188)"><circle r="1" fill="#838d89" transform="rotate(145.7 33.4 92.5)scale(214.50176 182.84636)"/><circle r="1" transform="matrix(.17446 -19.00946 41.43167 .38024 63.8 244.1)"/><ellipse cx="173" cy="87" fill="#e4b5a2" rx="21" ry="120"/><path d="m11.9 92.5 6.7-43.7 24.2-12.2 1.3 35.5z"/><circle r="1" fill="#000001" transform="matrix(-23.67556 17.2225 -8.249 -11.3398 137.7 154)"/><path d="m106 70 7-80-26-6z"/><circle r="1" transform="matrix(-8.45351 27.68285 -8.12361 -2.4807 247 206.8)"/><path fill="#000007" d="m40 189-43.3 18.3-8.6-20.2 43.2-18.4z"/></g></g></svg>