<svg xmlns="http://www.w3.org/2000/svg" width="300" height="300"><g filter="blur(12px)"><rect width="200%" height="200%" x="-50%" y="-50%" fill="#928d97"/><rect width="100%" height="100%" fill="#928d97"/><g fill-opacity=".5" transform="translate(.6 .6)scale(1.17188)"><circle r="1" fill="#fffaff" transform="matrix(-235.11571 -7.2394 5.65722 -183.73078 111.5 93.8)"/><circle cx="127" cy="216" r="44" fill="#f6ebff"/><circle r="1" fill="#f3edff" transform="matrix(-8.87838 -20.04244 36.26728 -16.06564 120.8 94.7)"/><circle r="1" fill="#a9a2b0" transform="matrix(71.01011 18.00052 -6.98454 27.55325 80.5 140.4)"/><circle r="1" fill="#f2e4ff" transform="matrix(20.73212 12.56621 -24.31037 40.108 248.4 98.5)"/><circle r="1" fill="#9f9aa4" transform="matrix(-9.52958 8.15926 -51.62368 -60.29369 235.7 185.8)"/><path fill="#e0d6e8" d="M269-6 160 48-10 17z"/><circle r="1" fill="#9e9aa3" transform="rotate(119.6 2.4 49.8)scale(17.92494 30.50251)"/></g></g></svg>