<svg xmlns="http://www.w3.org/2000/svg" width="300" height="300"><g filter="blur(12px)"><rect width="200%" height="200%" x="-50%" y="-50%" fill="#b06978"/><rect width="100%" height="100%" fill="#b06978"/><g fill-opacity=".5" transform="translate(.6 .6)scale(1.17188)"><ellipse cx="154" cy="91" fill="#b48f2d" rx="127" ry="234"/><path fill="#523ca9" d="m155.7 140.2-45.3 42.3-36.1-38.7 45.3-42.3z"/><circle r="1" fill="#ffc200" transform="matrix(-16.44406 26.41848 -22.38036 -13.93055 1.2 237.3)"/><ellipse cx="230" cy="169" fill="#5f48b3" rx="21" ry="34"/><circle r="1" fill="#4b3f90" transform="matrix(50.31226 52.46514 -12.18146 11.6816 23 183.2)"/><circle r="1" fill="#ffb400" transform="rotate(8.9 -117.7 598.6)scale(15.64421 51.05536)"/><circle r="1" fill="#ffab05" transform="matrix(24.59946 -27.12943 11.65713 10.57004 177.6 196.7)"/><path fill="#3827b0" d="m190.1 231.9-7.6 43.3-28.6-5 7.6-43.4z"/></g></g></svg>