<svg xmlns="http://www.w3.org/2000/svg" width="300" height="300"><g filter="blur(12px)"><rect width="200%" height="200%" x="-50%" y="-50%" fill="#7085a2"/><rect width="100%" height="100%" fill="#7085a2"/><g fill-opacity=".5" transform="translate(.6 .6)scale(1.17188)"><circle r="1" fill="#e5f5d9" transform="rotate(-122.3 99 18.3)scale(177.92389 208.14326)"/><circle r="1" fill="#637a58" transform="rotate(139.1 -16.6 122.2)scale(45.62396 12.16484)"/><circle r="1" fill="#dae1f0" transform="matrix(-9.26945 20.2982 -48.13197 -21.98013 180.9 20.3)"/><path fill="#839f73" d="m87 46-3-35-96 27z"/><circle r="1" fill="#fffff6" transform="rotate(178.6 17.6 5.1)scale(9.77293 25.07535)"/><path fill="#f5ffe8" d="m34.8 49.2 35.7-9.5 6.7 25-35.7 9.6z"/><ellipse cx="7" cy="130" fill="#d6e0f4" rx="20" ry="48"/><circle r="1" fill="#355001" transform="matrix(-1.40577 9.11953 -5.30151 -.81723 97.9 55.5)"/></g></g></svg>