<svg xmlns="http://www.w3.org/2000/svg" width="300" height="300"><g filter="blur(12px)"><rect width="200%" height="200%" x="-50%" y="-50%" fill="#6b9abd"/><rect width="100%" height="100%" fill="#6b9abd"/><g fill-opacity=".5" transform="translate(.6 .6)scale(1.17188)"><circle r="1" fill="#ba9a9b" transform="rotate(-70.9 163.1 14.5)scale(111.56318 179.65005)"/><circle cx="166" r="72" fill="#605f6e"/><circle r="1" fill="#004f94" transform="matrix(-7.2329 26.95746 -14.1438 -3.79489 2.8 161.5)"/><path fill="#066697" d="m244.8 263.3-55.3-35.1-3.7-51.3-35.4 58.7z"/><circle r="1" fill="#e8cec2" transform="matrix(63.01226 -50.30203 13.60136 17.03813 49.6 173.6)"/><circle r="1" fill="#004979" transform="matrix(-7.08394 3.4322 -17.99045 -37.13175 67.7 87)"/><path fill="#19344e" d="m257.5 61.5 2 27.9-45 3.1-2-27.9z"/><path fill="#ffd1bb" d="M214 93h42v23h-42z"/></g></g></svg>