<svg xmlns="http://www.w3.org/2000/svg" width="300" height="300"><g filter="blur(12px)"><rect width="200%" height="200%" x="-50%" y="-50%" fill="#a59059"/><rect width="100%" height="100%" fill="#a59059"/><g fill-opacity=".5" transform="translate(.6 .6)scale(1.17188)"><circle cx="143" cy="141" r="185" fill="#99999c"/><circle r="1" fill="#2e4832" transform="matrix(42.2303 26.38842 -13.98208 22.37601 227.4 111)"/><circle r="1" fill="#ffcda5" transform="rotate(-20.9 639.4 -452.2)scale(29.67275 53.33524)"/><circle r="1" fill="#ffe6bd" transform="matrix(-11.66373 18.85361 -27.94402 -17.28749 143.9 109.6)"/><circle r="1" fill="#465446" transform="matrix(-32.37033 39.129 -23.5979 -19.52187 93.2 103)"/><path fill="#36513f" d="m95 246-111-3 134-50z"/><path fill="#31352f" d="m221.6 197.2 21-36.4 27.8 16-21 36.4z"/><circle r="1" fill="#ffc5ab" transform="matrix(14.75332 7.4171 -20.25034 40.27986 134 205.3)"/></g></g></svg>