<svg xmlns="http://www.w3.org/2000/svg" width="300" height="300"><g filter="blur(12px)"><rect width="200%" height="200%" x="-50%" y="-50%" fill="#a0789a"/><rect width="100%" height="100%" fill="#a0789a"/><g fill-opacity=".5" transform="translate(.6 .6)scale(1.17188)"><circle r="1" fill="#8ab375" transform="matrix(-142.8452 -111.7194 138.31524 -176.85083 125 133.4)"/><path fill="#fff7e3" d="m214.6 120.6 22.4 8.6-41.6 108.2-22.4-8.6z"/><circle r="1" fill="#ffe2d5" transform="rotate(4.8 -769.1 1364.7)scale(17.86783 54.61845)"/><path fill="#000d00" d="m263 181-31-10 21 100z"/><circle r="1" fill="#fddad4" transform="matrix(-52.1671 -1.17624 .44053 -19.5379 42 175.3)"/><circle r="1" fill="#385149" transform="matrix(7.24474 46.79815 -30.51346 4.72373 255.1 100.4)"/><circle cx="136" cy="138" r="34" fill="#f0c2ae"/><circle r="1" fill="#48544e" transform="rotate(-134.1 64 109.7)scale(21.55789 48.95748)"/></g></g></svg>