<svg xmlns="http://www.w3.org/2000/svg" width="300" height="300"><g filter="blur(12px)"><rect width="200%" height="200%" x="-50%" y="-50%" fill="#638a6c"/><rect width="100%" height="100%" fill="#638a6c"/><g fill-opacity=".5" transform="translate(.6 .6)scale(1.17188)"><ellipse cx="123" cy="50" fill="#e6d2cb" rx="251" ry="218"/><circle r="1" fill="#fff" transform="rotate(26.1 -249 564.4)scale(25.42703 49.6556)"/><circle r="1" fill="#fff" transform="rotate(146.7 107.4 50.5)scale(17.09215 71.79007)"/><circle r="1" fill="#547f62" transform="matrix(60.13782 101.6875 -42.39674 25.07336 106.7 184.3)"/><circle r="1" fill="#fffff7" transform="rotate(69.1 -143.6 131.3)scale(84.74892 22.45213)"/><circle r="1" fill="#275d39" transform="matrix(4.41732 35.9762 -18.75393 2.3027 22.9 47.3)"/><path fill="#124c25" d="m119.6 59 25.3-5.8 11.5 49.7-25.3 5.9z"/><circle r="1" fill="#4a6855" transform="rotate(12.3 -421.6 960)scale(15.72608 57.5506)"/></g></g></svg>