<svg xmlns="http://www.w3.org/2000/svg" width="300" height="300"><g filter="blur(12px)"><rect width="200%" height="200%" x="-50%" y="-50%" fill="#8a977b"/><rect width="100%" height="100%" fill="#8a977b"/><circle r="1" fill="#b3c4a1" fill-opacity=".5" transform="matrix(184.53305 -231.16056 165.44074 132.0696 189.5 148.5)"/><circle r="1" fill="#d7eefe" fill-opacity=".5" transform="matrix(10.85805 -26.41166 24.30343 9.99134 116.4 57)"/><path fill="#fff" fill-opacity=".5" d="m43.4 97.3-21.6-50-40 2.6L19.6 82z"/><circle r="1" fill="#869473" fill-opacity=".5" transform="matrix(29.04411 -71.56905 50.39913 20.45295 229.9 212.4)"/><path fill="#d4e8d0" fill-opacity=".5" d="M68.6 188h48v48.1h-48z"/><path fill="#fff" fill-opacity=".5" d="m40.4 29.9-9.3-48L63.9 1.7z"/><path fill="#eff" fill-opacity=".5" d="M117.2 318.2h5l26.6-66.1L120 276z"/><circle r="1" fill="#7d8b6b" fill-opacity=".5" transform="matrix(23.7779 -23.06576 13.53307 13.9509 142.5 96.7)"/></g></svg>