<svg xmlns="http://www.w3.org/2000/svg" width="300" height="300"><g filter="blur(12px)"><rect width="200%" height="200%" x="-50%" y="-50%" fill="#6e8a72"/><rect width="100%" height="100%" fill="#6e8a72"/><g fill-opacity=".5" transform="translate(.6 .6)scale(1.17188)"><path fill="#ffd091" d="m243.2 139 36.8 52.4-85.2 59.6-36.8-52.4z"/><circle r="1" fill="#ffb78f" transform="matrix(-29.71731 -3.49098 5.99604 -51.04189 102.3 131.6)"/><circle r="1" fill="#ffbb83" transform="rotate(107.1 73 70.9)scale(21.32118 50.75224)"/><circle r="1" fill="#ffb987" transform="rotate(-119.9 32.3 -18)scale(20.3949 87.29425)"/><circle r="1" fill="#ffd4b0" transform="rotate(124.2 -21.8 151.7)scale(14.83829 64.36052)"/><circle r="1" fill="#ffdda0" transform="matrix(-1.0093 -14.43368 26.95916 -1.88517 209 89.7)"/><ellipse cx="218" cy="195" fill="#ffb786" rx="50" ry="33"/><circle r="1" fill="#445a3f" transform="matrix(1.29544 -25.38223 73.23587 3.73776 176.2 138.2)"/></g></g></svg>