<svg xmlns="http://www.w3.org/2000/svg" width="300" height="300"><g filter="blur(12px)"><rect width="200%" height="200%" x="-50%" y="-50%" fill="#7482a1"/><rect width="100%" height="100%" fill="#7482a1"/><g fill-opacity=".5" transform="translate(.6 .6)scale(1.17188)"><circle r="1" fill="#e5edea" transform="matrix(-126.52861 164.9994 -138.2524 -106.01786 112.5 120.4)"/><circle r="1" fill="#dadfe1" transform="matrix(-18.75582 8.62672 -27.15445 -59.03801 232 193.2)"/><path fill="#517518" d="m107.2 203 12.9 19-13.3 9-12.9-19z"/><ellipse cx="26" cy="15" fill="#5b7f27" rx="11" ry="14"/><circle r="1" fill="#62833d" transform="matrix(12.31159 .14856 -.26547 21.99966 119 1)"/><circle r="1" fill="#6e8e54" transform="rotate(-148.2 56.6 90.6)scale(17.38818 11.97091)"/><circle r="1" fill="#d8ebda" transform="rotate(134.3 54.4 88.1)scale(19.81521 42.70126)"/><path fill="#295600" d="m65 130 10 27-14-10z"/></g></g></svg>