<svg xmlns="http://www.w3.org/2000/svg" width="300" height="300"><g filter="blur(12px)"><rect width="200%" height="200%" x="-50%" y="-50%" fill="#68829d"/><rect width="100%" height="100%" fill="#68829d"/><g fill-opacity=".5" transform="translate(.6 .6)scale(1.17188)"><ellipse cx="133" cy="146" fill="#b47d7e" rx="234" ry="168"/><circle r="1" fill="#fff" transform="matrix(10.02087 .26018 -.50521 19.45867 162.3 113.9)"/><circle r="1" fill="#e1c1ca" transform="matrix(-18.08193 -10.1471 27.45918 -48.93168 184.4 237.2)"/><circle r="1" fill="#27546c" transform="matrix(17.8601 37.95464 -15.54696 7.31584 92.7 155.5)"/><circle r="1" fill="#d3b2c5" transform="matrix(31.48679 12.13794 -9.10657 23.62317 19.7 135.2)"/><circle r="1" fill="#dca1b1" transform="rotate(115.2 -38.9 119.5)scale(15.03434 105.59184)"/><circle r="1" fill="#5d4245" transform="rotate(-120.7 117.4 -33.1)scale(57.50081 18.99133)"/><circle r="1" fill="#417493" transform="matrix(7.8569 -14.6928 57.88115 30.95165 169.4 152.7)"/></g></g></svg>