<svg xmlns="http://www.w3.org/2000/svg" width="300" height="300"><g filter="blur(12px)"><rect width="200%" height="200%" x="-50%" y="-50%" fill="#7a8d6b"/><rect width="100%" height="100%" fill="#7a8d6b"/><circle r="1" fill="#bbcbbc" fill-opacity=".5" transform="matrix(36.39508 132.10356 -288.09452 79.37124 156.6 153.2)"/><circle r="1" fill="#123e00" fill-opacity=".5" transform="rotate(-58.6 312.4 -63.2)scale(29.46133 52.01809)"/><circle r="1" fill="#001800" fill-opacity=".5" transform="matrix(-19.25084 12.14248 -9.30275 -14.7487 104.3 11.2)"/><circle r="1" fill="#f7ffff" fill-opacity=".5" transform="rotate(115.7 34.7 22.9)scale(60.02822 12.80794)"/><circle r="1" fill="#effdee" fill-opacity=".5" transform="matrix(-31.28616 12.4942 -6.97235 -17.45913 141 38.8)"/><circle r="1" fill="#072f00" fill-opacity=".5" transform="matrix(37.4279 -7.91968 2.5031 11.82946 197 215.8)"/><path fill="#002900" fill-opacity=".5" d="M256 102.5 235 78l-58.6-3.5z"/><circle r="1" fill="#ccdfd1" fill-opacity=".5" transform="matrix(-20.37252 -18.93372 49.38195 -53.13454 45.4 200.2)"/></g></svg>