<svg xmlns="http://www.w3.org/2000/svg" width="300" height="300"><g filter="blur(12px)"><rect width="200%" height="200%" x="-50%" y="-50%" fill="#a99869"/><rect width="100%" height="100%" fill="#a99869"/><g fill-opacity=".5" transform="translate(.6 .6)scale(1.17188)"><ellipse cx="129" cy="131" fill="#ffd66b" rx="157" ry="235"/><circle r="1" fill="#c379f4" transform="rotate(27 -176.6 418.5)scale(46.6449 25.65684)"/><circle r="1" fill="#e0a0f1" transform="matrix(4.37395 -25.32248 58.12121 10.03928 47.2 66.4)"/><circle r="1" fill="#ffb83b" transform="rotate(-68.3 213.2 25.2)scale(81.42413 255)"/><circle r="1" fill="#ffcd81" transform="rotate(-167.4 78.5 10.8)scale(166.20221 42.34803)"/><circle r="1" fill="#feaa3b" transform="rotate(-64.7 243.8 -103.1)scale(127.21607 31.71051)"/><circle r="1" fill="#7dd2fa" transform="rotate(-93.4 158 -21.1)scale(17.7617 19.11493)"/><path fill="#db1b80" d="M166.4 138.3 156 150.6l-34.5-29 10.3-12.2z"/></g></g></svg>