<svg xmlns="http://www.w3.org/2000/svg" width="300" height="300"><g filter="blur(12px)"><rect width="200%" height="200%" x="-50%" y="-50%" fill="#ad7da0"/><rect width="100%" height="100%" fill="#ad7da0"/><g fill-opacity=".5" transform="translate(.6 .6)scale(1.17188)"><circle r="1" fill="#c9cfa1" transform="matrix(-65.4322 -140.57579 220.55182 -102.65772 111.8 106)"/><circle r="1" fill="#686f5d" transform="rotate(19.1 -248.7 205.8)scale(26.34694 33.71782)"/><circle r="1" fill="#ffecd2" transform="matrix(.8899 38.80117 -26.5557 .60906 30.7 11.1)"/><circle r="1" fill="#e7c9aa" transform="matrix(-36.196 15.0414 -47.31576 -113.86179 4.5 154.7)"/><circle r="1" fill="#959089" transform="matrix(17.68206 38.79975 -158.02918 72.01805 176 230)"/><ellipse cx="135" cy="40" fill="#ffeeec" rx="26" ry="14"/><path fill="#ffe8d6" d="M84 184h49v25H84z"/><circle r="1" fill="#947a8b" transform="matrix(10.09428 -11.67009 20.78276 17.97647 36.6 218.4)"/></g></g></svg>