<svg xmlns="http://www.w3.org/2000/svg" width="300" height="300"><g filter="blur(12px)"><rect width="200%" height="200%" x="-50%" y="-50%" fill="#977f61"/><rect width="100%" height="100%" fill="#977f61"/><g fill-opacity=".5" transform="translate(.6 .6)scale(1.17188)"><circle r="1" fill="#eedba8" transform="matrix(46.89213 -161.40377 221.41337 64.32653 136.4 112.9)"/><ellipse cx="192" cy="80" fill="#fff" rx="12" ry="36"/><ellipse cx="10" cy="181" fill="#fff4e0" rx="19" ry="33"/><circle r="1" fill="#3a3413" transform="matrix(11.17568 -.9465 1.41042 16.65343 65.4 143.7)"/><path fill="#47411e" d="m199 8-27.2 25-3.2-16.2L196.3-16z"/><circle r="1" fill="#988e56" transform="matrix(35.13057 57.0056 -12.83985 7.91275 153.2 71.8)"/><circle r="1" fill="#f3f4e0" transform="matrix(20.4941 19.16137 -6.66364 7.12711 169.3 165.9)"/><circle r="1" fill="#f2f6dc" transform="matrix(-7.3424 5.04778 -12.55322 -18.2597 196.2 240.2)"/></g></g></svg>