<svg xmlns="http://www.w3.org/2000/svg" width="300" height="300"><g filter="blur(12px)"><rect width="200%" height="200%" x="-50%" y="-50%" fill="#ab564a"/><rect width="100%" height="100%" fill="#ab564a"/><g fill-opacity=".5" transform="translate(.6 .6)scale(1.17188)"><circle r="1" fill="#92bcd6" transform="matrix(183.5981 47.81143 -64.26221 246.76987 73.3 131)"/><circle r="1" fill="#562929" transform="matrix(15.45754 -25.0475 45.61881 28.15269 201.5 52.6)"/><circle r="1" fill="#d1cccb" transform="matrix(48.50847 44.44982 -51.18473 55.85833 75.7 236)"/><circle r="1" fill="#009aeb" transform="matrix(6.34795 8.18372 -25.88707 20.08007 122.8 87.9)"/><circle r="1" fill="#832c24" transform="matrix(9.3962 -30.40996 16.71092 5.16341 131 141.4)"/><circle r="1" fill="#7a4246" transform="matrix(-15.26935 -4.35555 23.97022 -84.03293 112.8 31)"/><ellipse cx="189" fill="#470000" rx="20" ry="22"/><path fill="#dad8d3" d="m124 113 77-15-9-35z"/></g></g></svg>