<svg xmlns="http://www.w3.org/2000/svg" width="300" height="300"><g filter="blur(12px)"><rect width="200%" height="200%" x="-50%" y="-50%" fill="#a26193"/><rect width="100%" height="100%" fill="#a26193"/><g fill-opacity=".5" transform="translate(.6 .6)scale(1.17188)"><ellipse cx="116" cy="141" fill="#ffaf96" rx="166" ry="252"/><circle r="1" fill="#fa1839" transform="rotate(-4.1 2446 -1695.4)scale(22.63401 57.56553)"/><circle r="1" fill="#ff2c36" transform="matrix(-18.88634 3.4315 -17.87028 -98.35455 212.9 206.7)"/><circle r="1" fill="#f5ffff" transform="matrix(-26.2581 13.26392 -12.08278 -23.91984 21.3 49.3)"/><circle r="1" fill="#f2ffff" transform="matrix(15.75172 -71.46498 15.56937 3.43167 139.6 11.2)"/><circle r="1" fill="#ecceda" transform="matrix(-44.10228 -63.2409 24.42084 -17.03035 30 213.2)"/><ellipse cx="196" cy="40" fill="#f6ffde" rx="16" ry="41"/><circle r="1" fill="#ff1a2e" transform="matrix(8.31842 57.35077 -15.38028 2.23083 94.3 252.7)"/></g></g></svg>