<svg xmlns="http://www.w3.org/2000/svg" width="300" height="300"><g filter="blur(12px)"><rect width="200%" height="200%" x="-50%" y="-50%" fill="#648c6c"/><rect width="100%" height="100%" fill="#648c6c"/><g fill-opacity=".5" transform="translate(.6 .6)scale(1.17188)"><circle r="1" fill="#001d00" transform="matrix(47.84133 .9338 -.45446 23.28342 62 233.3)"/><circle r="1" fill="#ffebd7" transform="rotate(-35.3 127 -106.8)scale(33.80727 18.83721)"/><circle r="1" fill="#ffebd5" transform="matrix(30.3754 -16.7599 7.71096 13.97522 196 196)"/><circle r="1" fill="#203e1e" transform="matrix(-9.53153 37.10908 -65.86699 -16.91805 39.3 106.2)"/><circle r="1" fill="#001900" transform="rotate(74.1 -79.7 233.6)scale(19.17116 50.43601)"/><ellipse cx="13" cy="14" fill="#ffecd5" rx="21" ry="24"/><circle r="1" fill="#ffd3b6" transform="matrix(34.15744 9.47948 -3.9488 14.22873 227.6 118.4)"/><circle r="1" fill="#ffd7c5" transform="matrix(-15.78806 17.03522 -11.96858 -11.09235 113.9 136.3)"/></g></g></svg>