<svg xmlns="http://www.w3.org/2000/svg" width="300" height="300"><g filter="blur(12px)"><rect width="200%" height="200%" x="-50%" y="-50%" fill="#66886f"/><rect width="100%" height="100%" fill="#66886f"/><g fill-opacity=".5" transform="translate(.6 .6)scale(1.17188)"><circle r="1" fill="#ffd9cf" transform="matrix(4.88755 -71.69317 29.61331 2.01883 35.4 67)"/><circle r="1" fill="#fff3f0" transform="matrix(33.0025 -9.0904 7.6033 27.60363 98.9 237.3)"/><circle r="1" fill="#fffaf9" transform="matrix(18.36178 7.90783 -13.14155 30.51433 13.5 191.3)"/><circle r="1" fill="#ffd6c7" transform="rotate(-41 192 -270.9)scale(44.03993 17.90003)"/><circle r="1" fill="#fff0e4" transform="matrix(-18.55898 -1.13512 1.19284 -19.5027 146.5 173.9)"/><circle r="1" fill="#ffdfd6" transform="rotate(-148.2 153.3 54.2)scale(45.53238 18.29892)"/><ellipse cx="105" cy="6" fill="#fecbbf" rx="17" ry="65"/><circle r="1" fill="#27422b" transform="matrix(-23.62005 45.76301 -20.02703 -10.33672 224.5 111.8)"/></g></g></svg>