<svg xmlns="http://www.w3.org/2000/svg" width="300" height="300"><g filter="blur(12px)"><rect width="200%" height="200%" x="-50%" y="-50%" fill="#9e9073"/><rect width="100%" height="100%" fill="#9e9073"/><g fill-opacity=".5" transform="translate(.6 .6)scale(1.17188)"><circle cx="94" cy="157" r="192" fill="#81573b"/><circle r="1" fill="#babcaa" transform="matrix(35.93063 4.6751 -6.80987 52.33741 203.5 195.8)"/><path fill="#672900" d="m220 11-22 124-72-65z"/><circle r="1" fill="#decca9" transform="matrix(-57.15023 -27.4734 6.1233 -12.73769 112.1 185.8)"/><circle r="1" fill="#4f0c00" transform="matrix(-17.42626 10.14233 -19.15057 -32.90397 12 51.2)"/><circle r="1" fill="#5c1100" transform="matrix(-13.87533 -22.73144 27.74366 -16.9348 118.3 243.6)"/><path fill="#cdbf9e" d="M44 44h35v90H44z"/><path fill="#1a0000" d="m71.9 103.7 54.7-14.1 9.2-14.5-59.7 9.1z"/></g></g></svg>