<svg xmlns="http://www.w3.org/2000/svg" width="300" height="300"><g filter="blur(12px)"><rect width="200%" height="200%" x="-50%" y="-50%" fill="#708498"/><rect width="100%" height="100%" fill="#708498"/><g fill-opacity=".5" transform="translate(.6 .6)scale(1.17188)"><circle r="1" fill="#6b8637" transform="rotate(-158.7 59.6 62.2)scale(152.82086 255)"/><ellipse cx="160" cy="246" fill="#fff" rx="15" ry="17"/><circle cx="239" cy="47" r="14" fill="#fff"/><path fill="#fffffb" d="m216.4 230 12.9-21.4 22.3 13.4-12.9 21.4z"/><circle r="1" fill="#cee5c6" transform="matrix(-2.02965 16.29498 -24.9422 -3.10672 211.7 135.6)"/><circle r="1" fill="#3f5b3e" transform="matrix(-18.16776 57.3453 -30.14056 -9.54893 72.6 153.6)"/><circle r="1" fill="#c6dac3" transform="matrix(13.08394 .63991 -1.4644 29.94172 75 238.4)"/><path fill="#fff" d="m30.5 125.5-35.7 1.1-1.6-2.3 1.3-26.6z"/></g></g></svg>