<svg xmlns="http://www.w3.org/2000/svg" width="300" height="300"><g filter="blur(12px)"><rect width="200%" height="200%" x="-50%" y="-50%" fill="#b19969"/><rect width="100%" height="100%" fill="#b19969"/><g fill-opacity=".5" transform="translate(.6 .6)scale(1.17188)"><circle r="1" fill="#794a1a" transform="matrix(-181.69209 -33.10423 32.51645 -178.46605 130.3 128)"/><circle r="1" fill="#d6ca9b" transform="matrix(-35.71564 13.04312 -9.59776 -26.2813 133.4 6.6)"/><circle r="1" fill="#e2debd" transform="matrix(36.69241 -19.0281 5.47317 10.55407 219.5 35.6)"/><circle r="1" fill="#fbf3ce" transform="matrix(-7.85518 -9.84001 18.21012 -14.53695 199.8 102.2)"/><path fill="#7b2900" d="m198 192.5 30.7 34.2-38.6 34.8-30.8-34.2z"/><ellipse cx="78" cy="253" fill="#fffcd8" rx="16" ry="17"/><circle r="1" fill="#6a320a" transform="matrix(41.09762 -.15238 .08149 21.9776 184.9 175.6)"/><ellipse cx="57" cy="220" fill="#332c1b" rx="24" ry="19"/></g></g></svg>