<svg xmlns="http://www.w3.org/2000/svg" width="300" height="300"><g filter="blur(12px)"><rect width="200%" height="200%" x="-50%" y="-50%" fill="#a36675"/><rect width="100%" height="100%" fill="#a36675"/><g fill-opacity=".5" transform="translate(.6 .6)scale(1.17188)"><circle r="1" fill="#f3c226" transform="rotate(95.7 11 103)scale(232.47221 142.90183)"/><circle r="1" fill="#6b59d6" transform="matrix(1.95878 -13.5813 28.29188 4.08044 7.3 111.5)"/><circle cx="181" cy="41" r="89" fill="#dda734"/><circle r="1" fill="#8c4443" transform="matrix(32.63653 6.30681 -3.06444 15.85787 97 105)"/><path fill="#5450e6" d="m102.7 148.3 18.2-5.6 6.4 21-18.2 5.6z"/><ellipse cy="174" fill="#55015f" rx="23" ry="14"/><circle r="1" fill="#b57c53" transform="matrix(-21.69982 13.41571 -41.74824 -67.52747 233.5 182.5)"/><path fill="#593aac" d="M59.5 219.8 76 206.6l12.6 15.6L72 235.4z"/></g></g></svg>