<svg xmlns="http://www.w3.org/2000/svg" width="300" height="300"><g filter="blur(12px)"><rect width="200%" height="200%" x="-50%" y="-50%" fill="#a37d5a"/><rect width="100%" height="100%" fill="#a37d5a"/><g fill-opacity=".5" transform="translate(.6 .6)scale(1.17188)"><path d="m72 52.2-22.2 5L-16 11.3l107.5 30z"/><path fill="#3d0700" d="m231.6 277.7-24-1.7 6.8-95.7 24 1.7z"/><path fill="#773c03" d="m176 40.8 127.9 4.4-1.8 52-128-4.4z"/><path d="m29 201-44 30 3-44z"/><circle r="1" fill="#994e00" transform="rotate(149.5 .7 55.8)scale(50.45694 26.14688)"/><path fill="#480b00" d="M48 211h36v33H48z"/><circle cx="137" cy="208" r="37" fill="#ddac5e"/><path fill="#cb9b5f" d="M140 68h92v85h-92z"/></g></g></svg>