<svg xmlns="http://www.w3.org/2000/svg" width="300" height="300"><g filter="blur(12px)"><rect width="200%" height="200%" x="-50%" y="-50%" fill="#648c6b"/><rect width="100%" height="100%" fill="#648c6b"/><g fill-opacity=".5" transform="translate(.6 .6)scale(1.17188)"><circle r="1" fill="#fcd7cd" transform="matrix(-88.4132 189.27012 -141.365 -66.03542 137.7 102)"/><circle r="1" fill="#2e6e46" transform="matrix(-.54028 15.10691 -115.9469 -4.14668 96.2 0)"/><circle r="1" fill="#efd3d8" transform="matrix(29.62603 36.19593 -15.57843 12.7508 140.4 49.7)"/><path fill="#2a6f46" d="m124.6 221.8.8 44-22 .4-.8-44z"/><circle r="1" fill="#317152" transform="rotate(109.4 48.6 140.4)scale(26.86066 8.37844)"/><ellipse cx="248" cy="201" fill="#fffee3" rx="22" ry="16"/><path fill="#628e6d" d="M111.4 136.1 95.5 52.5l45.3 38.2-16.2 56.1z"/><path fill="#fffde6" d="M70 105h33v24H70z"/></g></g></svg>