<svg xmlns="http://www.w3.org/2000/svg" width="300" height="300"><g filter="blur(12px)"><rect width="200%" height="200%" x="-50%" y="-50%" fill="#a17d99"/><rect width="100%" height="100%" fill="#a17d99"/><g fill-opacity=".5" transform="translate(.6 .6)scale(1.17188)"><circle r="1" fill="#004f00" transform="rotate(-114.9 96.5 93.5)scale(123.86202 28.0671)"/><circle r="1" fill="#005000" transform="matrix(25.43964 -3.27374 4.62983 35.97757 158.6 67.2)"/><circle r="1" fill="#005200" transform="matrix(12.4685 -49.8455 14.01683 3.5062 183.5 221.1)"/><path fill="#003d00" d="m-3.3-23.5 42.4 39.6-21.8 23.4L-25.1-.1z"/><path fill="#0f5e15" d="m88 44 14 39-118 52z"/><circle r="1" fill="#fae2b4" transform="matrix(6.41432 -14.14139 49.38115 22.39854 76.7 173.3)"/><circle cx="255" cy="139" r="62" fill="#e4d582"/><path fill="#002d00" d="M178 130h51v19h-51z"/></g></g></svg>