<svg xmlns="http://www.w3.org/2000/svg" width="300" height="300"><g filter="blur(12px)"><rect width="200%" height="200%" x="-50%" y="-50%" fill="#7283a0"/><rect width="100%" height="100%" fill="#7283a0"/><g fill-opacity=".5" transform="translate(.6 .6)scale(1.17188)"><circle r="1" fill="#d2e7ad" transform="matrix(144.00802 -59.49601 62.21346 150.5855 145.2 125.5)"/><path fill="#000e00" d="m234 205.5 14.8-31.7 27.2 12.7-14.8 31.7z"/><path fill="#001b00" d="m47 145 24 3-35-54z"/><circle r="1" fill="#1f4302" transform="matrix(-3.2403 -10.46771 27.4889 -8.50924 194.1 8)"/><path fill="#001500" d="m105 214-19-7 14-33z"/><ellipse cx="179" cy="133" fill="#1d4300" rx="8" ry="36"/><circle r="1" fill="#315a00" transform="matrix(58.33922 -47.92038 11.83408 14.40705 22 0)"/><path fill="#113800" d="m137 4-36 20 29 16z"/></g></g></svg>