<svg xmlns="http://www.w3.org/2000/svg" width="300" height="300"><g filter="blur(12px)"><rect width="200%" height="200%" x="-50%" y="-50%" fill="#648a6b"/><rect width="100%" height="100%" fill="#648a6b"/><g fill-opacity=".5" transform="translate(.6 .6)scale(1.17188)"><circle r="1" fill="#ffb099" transform="matrix(19.60416 9.14157 -30.7378 65.91742 36.4 43.5)"/><circle r="1" fill="#dd9587" transform="rotate(111.2 -5.4 154.7)scale(67.38152 35.91391)"/><ellipse cx="9" cy="192" fill="#ffc19f" rx="28" ry="14"/><circle r="1" fill="#32422c" transform="matrix(-20.98671 -8.13932 16.85132 -43.45004 160.4 48.7)"/><circle r="1" fill="#f59b85" transform="matrix(-4.70208 9.96105 -46.95558 -22.16522 232 169.8)"/><path fill="#ffcbab" d="m244 221.3-16.2 2.7-3.4 31.9 46.6-23z"/><path fill="#fff9c8" d="m64.2 174.4 20.7-7.6 6.9 18.8-20.7 7.6z"/><path fill="#ffe1bc" d="m119.4 48 11.9-1.7 5.3 37.7-11.9 1.7z"/></g></g></svg>