<svg xmlns="http://www.w3.org/2000/svg" width="300" height="300"><g filter="blur(12px)"><rect width="200%" height="200%" x="-50%" y="-50%" fill="#ab8f68"/><rect width="100%" height="100%" fill="#ab8f68"/><g fill-opacity=".5" transform="translate(.6 .6)scale(1.17188)"><circle r="1" fill="#ffce7c" transform="matrix(-189.71967 23.43746 -21.57821 -174.66956 128.3 136.6)"/><circle r="1" fill="#ff960f" transform="matrix(-199.28772 159.0893 -17.4883 -21.9072 195 197.3)"/><ellipse cx="148" cy="29" fill="#ffc5a6" rx="165" ry="50"/><circle r="1" fill="#d885fd" transform="matrix(-97.21307 -88.8875 15.2332 -16.66 0 231.4)"/><circle r="1" fill="#d484ed" transform="matrix(39.88986 -20.17578 8.29212 16.39448 94.7 206.8)"/><circle r="1" fill="#ffa72b" transform="rotate(89.8 -46.5 53)scale(37.88408 59.54117)"/><ellipse cx="171" cy="127" fill="#fbc46a" rx="65" ry="75"/><circle r="1" fill="#da93ff" transform="matrix(-22.16257 4.96046 -3.12975 -13.98322 40.2 181.9)"/></g></g></svg>