<svg xmlns="http://www.w3.org/2000/svg" width="300" height="300"><g filter="blur(12px)"><rect width="200%" height="200%" x="-50%" y="-50%" fill="#9c8370"/><rect width="100%" height="100%" fill="#9c8370"/><circle r="1" fill="#e5d0bf" fill-opacity=".5" transform="matrix(-153.79522 69.11831 -101.32587 -225.46028 151.5 217.1)"/><circle r="1" fill="#8d765f" fill-opacity=".5" transform="matrix(-16.93278 -60.64639 42.42387 -11.84496 60.2 216.5)"/><path fill="#38472e" fill-opacity=".5" d="m295.4 257.6 22.8 45.6-52.7-70.2 29-38.5z"/><circle r="1" fill="#7d5c4c" fill-opacity=".5" transform="matrix(22.16185 -33.37462 19.1189 12.69558 55.2 47.7)"/><circle r="1" fill="#fbe6dc" fill-opacity=".5" transform="matrix(-20.11025 -17.9907 43.96833 -49.1484 246 194.4)"/><circle r="1" fill="#fbe3d5" fill-opacity=".5" transform="rotate(-125.2 69.5 -17.3)scale(43.00592 36.84918)"/><circle r="1" fill="#fff" fill-opacity=".5" transform="matrix(13.32732 7.85748 -18.55753 31.47603 286.4 .6)"/><path fill="#6a4f3c" fill-opacity=".5" d="M160 160h70.3l-11.7-57.5z"/></g></svg>