<svg xmlns="http://www.w3.org/2000/svg" width="300" height="300"><g filter="blur(12px)"><rect width="200%" height="200%" x="-50%" y="-50%" fill="#6e8972"/><rect width="100%" height="100%" fill="#6e8972"/><g fill-opacity=".5" transform="translate(.6 .6)scale(1.17188)"><circle r="1" fill="#ffffdf" transform="rotate(-89 61.2 -62.3)scale(25.78972 165.29627)"/><circle r="1" fill="#ffffe8" transform="matrix(-1.55404 23.8379 -73.69514 -4.80434 75 214.5)"/><circle r="1" fill="#ffd6b7" transform="matrix(15.56953 110.68808 -21.34078 3.00182 154.8 71.3)"/><path fill="#ffc18d" d="m216.7 153-29-26 57.6-64 29 26z"/><circle r="1" fill="#24482f" transform="matrix(25.55305 8.59781 -13.55655 40.29063 26.4 165.5)"/><ellipse cx="114" cy="230" fill="#fffff2" rx="23" ry="16"/><circle r="1" fill="#ffbaa2" transform="matrix(-9.15344 -18.50496 57.72869 -28.55537 98 193.8)"/><circle r="1" fill="#284229" transform="matrix(5.01094 -15.087 48.22132 16.01606 113.4 137.5)"/></g></g></svg>