<svg xmlns="http://www.w3.org/2000/svg" width="300" height="300"><g filter="blur(12px)"><rect width="200%" height="200%" x="-50%" y="-50%" fill="#897669"/><rect width="100%" height="100%" fill="#897669"/><g fill-opacity=".5" transform="translate(.6 .6)scale(1.17188)"><ellipse cx="144" cy="143" fill="#fff2ad" rx="159" ry="255"/><circle cx="192" cy="42" r="87" fill="#f4c9a1"/><path fill="#002d00" d="m196.4 133.8-11.7 5.5 19.3 7.6 23.8-20.2z"/><circle r="1" fill="#ffd7a6" transform="matrix(-36.36142 -82.77678 16.40474 -7.20612 46.3 74.6)"/><path fill="#7f7548" d="M139.6 93.3 51.7 77.7l88.4 47.7 6.4-58.7z"/><path fill="#2c5221" d="m115 176.7 4.5-23.6 21.6 4.2-4.6 23.6z"/><path fill="#002704" d="m271 157.3-9.8-23.6 9.8-1.8-39.9 9.3z"/><path fill="#545528" d="m219 190-55 4 25-20z"/></g></g></svg>