<svg xmlns="http://www.w3.org/2000/svg" width="300" height="300"><g filter="blur(12px)"><rect width="200%" height="200%" x="-50%" y="-50%" fill="#8e9872"/><rect width="100%" height="100%" fill="#8e9872"/><circle r="1" fill="#f6b684" fill-opacity=".5" transform="matrix(186.06723 110.91833 -136.9964 229.8136 172.4 173)"/><circle r="1" fill="#382f00" fill-opacity=".5" transform="matrix(-38.84468 -.4746 .20873 -17.08391 152.7 112)"/><circle r="1" fill="#2b2b00" fill-opacity=".5" transform="matrix(-45.43027 11.04762 -2.8057 -11.53764 173.3 205.7)"/><circle r="1" fill="#606332" fill-opacity=".5" transform="matrix(8.43868 17.95566 -61.93324 29.10697 215 252.8)"/><path fill="#fcffff" fill-opacity=".5" d="m97.1 290.2-37.4 28.2L40 292.2 77.4 264z"/><circle r="1" fill="#231c00" fill-opacity=".5" transform="matrix(-7.96756 -13.80727 14.12137 -8.1488 246.6 140.8)"/><circle r="1" fill="#f0c6c2" fill-opacity=".5" transform="rotate(65.1 -20.8 81.3)scale(31.48549 62.04277)"/><circle r="1" fill="#221e00" fill-opacity=".5" transform="rotate(138.4 56.8 33.9)scale(11.31903 19.29054)"/></g></svg>