<svg xmlns="http://www.w3.org/2000/svg" width="300" height="300"><g filter="blur(12px)"><rect width="200%" height="200%" x="-50%" y="-50%" fill="#a67476"/><rect width="100%" height="100%" fill="#a67476"/><g fill-opacity=".5" transform="translate(.6 .6)scale(1.17188)"><ellipse cx="163" cy="147" fill="#981d0c" rx="255" ry="176"/><circle r="1" fill="#66ebff" transform="matrix(19.2993 10.2876 -10.0678 18.88698 104 102)"/><circle r="1" fill="#ab9cb1" transform="matrix(12.77331 -27.43487 69.70267 32.45265 117.5 244.5)"/><ellipse cx="228" cy="168" fill="#c5bad9" rx="30" ry="19"/><ellipse cx="184" cy="89" fill="#c1ffff" rx="15" ry="16"/><circle r="1" fill="#860800" transform="matrix(-10.7296 18.00224 -63.86034 -38.0617 207.4 40.3)"/><path fill="#9ab6dd" d="m-16 73.8 75.1-14.3-4.7-23.7L-16 66.1z"/><path fill="#850800" d="m144.7 126 30.8-14.4L223.3 214l-30.8 14.4z"/></g></g></svg>