<svg xmlns="http://www.w3.org/2000/svg" width="300" height="300"><g filter="blur(12px)"><rect width="200%" height="200%" x="-50%" y="-50%" fill="#7483a3"/><rect width="100%" height="100%" fill="#7483a3"/><g fill-opacity=".5" transform="translate(.6 .6)scale(1.17188)"><circle r="1" fill="#edf9e3" transform="matrix(-167.16087 37.36488 -53.41122 -238.94808 105 125)"/><circle r="1" fill="#4e731a" transform="matrix(-12.32947 16.24545 -13.13389 -9.96795 150.8 222.7)"/><circle cx="41" cy="17" r="14" fill="#426a0e"/><circle r="1" fill="#547c1f" transform="matrix(13.7603 -.50457 .44254 12.06859 129 156.4)"/><path fill="#f6fff2" d="m151 127-22 94 62-96z"/><circle r="1" fill="#597c30" transform="rotate(3.4 -21.4 1674)scale(13.62821 23.51083)"/><circle r="1" fill="#e8fae9" transform="matrix(-25.95311 40.1174 -13.7897 -8.92096 12 86.7)"/><path fill="#53742b" d="m44.3 67.6 20.1 20 4.3-32.2 3.2-5.7z"/></g></g></svg>