<svg xmlns="http://www.w3.org/2000/svg" width="300" height="300"><g filter="blur(12px)"><rect width="200%" height="200%" x="-50%" y="-50%" fill="#9b694a"/><rect width="100%" height="100%" fill="#9b694a"/><g fill-opacity=".5" transform="translate(.6 .6)scale(1.17188)"><circle r="1" fill="#ffdd05" transform="matrix(-88.72922 -135.59246 190.31877 -124.54111 100.4 125)"/><path fill="#562add" d="m41 105.7-30.3 23L-3 110.2l30.4-23z"/><path fill="#ffa425" d="m270.3-1.7 4.4 255-251 4.4-4.4-255z"/><circle cx="113" cy="156" r="13" fill="#5355ff"/><ellipse cx="111" cy="107" fill="#340092" rx="14" ry="12"/><path fill="#74146e" d="m213.7 254.9 11.3-45.6 23.3 5.8-11.3 45.6z"/><path fill="#7b5b93" d="m15.7 121.3-12-16 48.6-36.6 12 16z"/><circle r="1" fill="#a04f7c" transform="matrix(-49.78947 9.92134 -2.2328 -11.2051 6.2 173.5)"/></g></g></svg>