<svg xmlns="http://www.w3.org/2000/svg" width="300" height="300"><g filter="blur(12px)"><rect width="200%" height="200%" x="-50%" y="-50%" fill="#8d6069"/><rect width="100%" height="100%" fill="#8d6069"/><g fill-opacity=".5" transform="translate(.6 .6)scale(1.17188)"><circle cx="191" cy="25" r="238" fill="#ff9510"/><circle r="1" fill="#825896" transform="matrix(-45.09137 -20.73015 41.79602 -90.91298 54.9 121.6)"/><circle r="1" fill="#ff8c15" transform="matrix(77.4443 -22.7931 53.20876 180.78784 206 128.5)"/><path fill="#2b1aba" d="M63 172 14 37l54 59z"/><path fill="#ff920b" d="m87 0-9 113L26-13z"/><path fill="#5175ff" d="M131 38h20v26h-20z"/><path fill="#2212d0" d="m120.6 178.5-17.9 3.3 6.9 42.9 4.6.9z"/><path fill="#2500b4" d="m8.6 212.5 25-1 1.8 52-25 1z"/></g></g></svg>