<svg xmlns="http://www.w3.org/2000/svg" width="300" height="300"><g filter="blur(12px)"><rect width="200%" height="200%" x="-50%" y="-50%" fill="#995d75"/><rect width="100%" height="100%" fill="#995d75"/><g fill-opacity=".5" transform="translate(.6 .6)scale(1.17188)"><circle cx="115" cy="65" r="188" fill="#e39317"/><circle r="1" fill="#845078" transform="matrix(-32.48266 31.6985 -43.5739 -44.65183 77.2 159.2)"/><circle r="1" fill="#fb9009" transform="matrix(74.02286 -32.49877 11.49749 26.18798 209.2 41.4)"/><circle r="1" fill="#f3a312" transform="matrix(82.75585 -20.14718 6.3775 26.19603 90.7 41.1)"/><circle r="1" fill="#0400e7" transform="rotate(86.8 -18.1 198.3)scale(12.73113 14.83843)"/><circle r="1" fill="#543eaf" transform="rotate(69.2 -102.7 214.1)scale(27.30184 14.41369)"/><path fill="#4316a2" d="m219.7 179-26.7 3.7-4.7-33.7 26.7-3.7z"/><circle r="1" fill="#df9323" transform="matrix(72.02883 -11.40825 1.93028 12.18728 199 252.4)"/></g></g></svg>