<svg xmlns="http://www.w3.org/2000/svg" width="300" height="300"><g filter="blur(12px)"><rect width="200%" height="200%" x="-50%" y="-50%" fill="#a37e93"/><rect width="100%" height="100%" fill="#a37e93"/><g fill-opacity=".5" transform="translate(.6 .6)scale(1.17188)"><circle r="1" fill="#000200" transform="matrix(-4.81478 -13.82616 71.40218 -24.86487 255 223)"/><path d="M271 148.5V92.2l-39.2 8.2.3 29z"/><path fill="#001600" d="M187 0h37v36h-37z"/><circle cx="65" cy="137" r="168" fill="#a0b575"/><circle r="1" transform="matrix(27.83621 -16.00653 5.31576 9.24439 158.8 141.3)"/><path d="m12.9 161.3-24 .4-1.8-101 24-.4z"/><circle r="1" transform="matrix(6.39682 8.80646 -19.92407 14.4724 52.7 45.7)"/><path d="M28 220h29v20H28z"/></g></g></svg>