<svg xmlns="http://www.w3.org/2000/svg" width="300" height="300"><g filter="blur(12px)"><rect width="200%" height="200%" x="-50%" y="-50%" fill="#6ea0b8"/><rect width="100%" height="100%" fill="#6ea0b8"/><g fill-opacity=".5" transform="translate(.6 .6)scale(1.17188)"><circle r="1" fill="#db744c" transform="rotate(152.3 39 78.7)scale(171.37357 221.03074)"/><ellipse cx="103" cy="63" fill="#4e4441" rx="27" ry="42"/><circle r="1" fill="#593b2d" transform="matrix(12.44586 -4.14019 9.89132 29.73442 207.9 127.3)"/><path fill="#881800" d="M11.5 24.3 19.7-16l31 5.9-32.4 47z"/><path fill="#c6c0bc" d="m16 125 75 35-31 74z"/><path fill="#351423" d="m190 21-12-32 54 32z"/><circle r="1" fill="#dcb89d" transform="matrix(3.45362 -49.38903 27.59507 1.92963 160.6 217.3)"/><circle r="1" fill="#c2eaff" transform="rotate(58 -181.6 202)scale(21.33777 13.87085)"/></g></g></svg>