<svg xmlns="http://www.w3.org/2000/svg" width="300" height="300"><g filter="blur(12px)"><rect width="200%" height="200%" x="-50%" y="-50%" fill="#ac8e4f"/><rect width="100%" height="100%" fill="#ac8e4f"/><g fill-opacity=".5" transform="translate(.6 .6)scale(1.17188)"><circle cx="101" cy="212" r="182" fill="#726030"/><circle r="1" fill="#00160d" transform="matrix(7.8375 24.22654 -35.36052 11.43944 194.4 131)"/><circle r="1" fill="#070801" transform="matrix(11.38826 30.45929 -19.61313 7.33305 117.7 210.4)"/><circle r="1" fill="#feffff" transform="rotate(131.7 90.6 53.8)scale(10.78809 40.32416)"/><circle r="1" fill="#feffff" transform="matrix(-6.4409 -29.35344 15.03478 -3.29902 255 77.4)"/><circle r="1" fill="#161106" transform="matrix(-17.166 2.03003 -3.014 -25.48647 68.5 233.5)"/><path fill="#fff" d="M175 30h13v26h-13z"/><circle r="1" fill="#c09e5c" transform="matrix(29.5197 -1.07108 2.51001 69.17768 128.5 118.5)"/></g></g></svg>