<svg xmlns="http://www.w3.org/2000/svg" width="300" height="300"><g filter="blur(12px)"><rect width="200%" height="200%" x="-50%" y="-50%" fill="#6c5bb2"/><rect width="100%" height="100%" fill="#6c5bb2"/><g fill-opacity=".5" transform="translate(.6 .6)scale(1.17188)"><circle r="1" fill="#f9ebbb" transform="rotate(105.4 19.1 118)scale(177.95528 211.00924)"/><ellipse cx="175" cy="130" fill="#edd661" rx="47" ry="38"/><circle r="1" fill="#500057" transform="rotate(161.2 5.4 124.6)scale(14.38344 27.3322)"/><circle r="1" fill="#d5630d" transform="matrix(2.97693 28.10945 -13.45258 1.4247 227.5 191.4)"/><ellipse cx="64" cy="155" fill="#ffad00" rx="12" ry="15"/><circle r="1" fill="#765698" transform="matrix(2.22054 -12.94593 57.49918 9.8625 65.3 212.2)"/><circle r="1" fill="#9089df" transform="matrix(-57.86073 -53.14391 21.87525 -23.8168 48.7 44.6)"/><path fill="#6c0017" d="m150.9 203.8 10.8-22 13.6 20.6-16.8 9.3z"/></g></g></svg>