<svg xmlns="http://www.w3.org/2000/svg" width="300" height="300"><g filter="blur(12px)"><rect width="200%" height="200%" x="-50%" y="-50%" fill="#a29857"/><rect width="100%" height="100%" fill="#a29857"/><g fill-opacity=".5" transform="translate(.6 .6)scale(1.17188)"><circle r="1" fill="#fff" transform="matrix(-22.8195 -18.73703 40.72392 -49.59695 247.1 217)"/><circle r="1" fill="#fffffc" transform="rotate(132.7 -26.7 81.4)scale(18.0987 40.01085)"/><circle r="1" fill="#ffeeda" transform="rotate(-118.2 149.4 -37.6)scale(36.74232 28.73724)"/><circle r="1" fill="#9c4109" transform="matrix(13.70543 111.62175 -19.38457 2.38013 72.8 223.1)"/><circle r="1" fill="#fffff8" transform="matrix(-18.54903 13.57584 -20.04551 -27.38872 0 232.4)"/><ellipse cx="174" cy="148" fill="#8b632f" rx="30" ry="187"/><circle r="1" fill="#724516" transform="matrix(15.10778 14.47744 -29.1452 30.41416 142.3 222.7)"/><circle r="1" fill="#f8e3c4" transform="rotate(-41 179.7 -59.4)scale(14.71666 28.59779)"/></g></g></svg>