<svg xmlns="http://www.w3.org/2000/svg" width="300" height="300"><g filter="blur(12px)"><rect width="200%" height="200%" x="-50%" y="-50%" fill="#9a7a56"/><rect width="100%" height="100%" fill="#9a7a56"/><circle r="1" fill="#cac7b3" fill-opacity=".5" transform="matrix(108.07711 -201.73464 229.76756 123.09544 112.8 141.1)"/><circle r="1" fill="#857859" fill-opacity=".5" transform="rotate(80.9 -41.2 158)scale(73.98844 52.85337)"/><circle r="1" fill="#546543" fill-opacity=".5" transform="matrix(-.3896 -17.16796 61.30335 -1.39117 205.1 10.1)"/><circle r="1" fill="#efdcc9" fill-opacity=".5" transform="matrix(-22.93948 8.14872 -18.36511 -51.69964 245.8 278.2)"/><circle r="1" fill="#eec1a8" fill-opacity=".5" transform="matrix(-15.49609 -16.63453 71.23817 -66.36274 52 91.4)"/><circle r="1" fill="#d7bca6" fill-opacity=".5" transform="matrix(44.77027 -16.20661 21.63494 59.76587 266.8 165.6)"/><circle r="1" fill="#dfcbbc" fill-opacity=".5" transform="matrix(40.06774 -61.46378 16.1731 10.54312 40.3 274.8)"/><path fill="#7b6747" fill-opacity=".5" d="m198.6 225.6 34-7-30.5-102z"/></g></svg>