<svg xmlns="http://www.w3.org/2000/svg" width="300" height="300"><g filter="blur(12px)"><rect width="200%" height="200%" x="-50%" y="-50%" fill="#7180a1"/><rect width="100%" height="100%" fill="#7180a1"/><g fill-opacity=".5" transform="translate(.6 .6)scale(1.17188)"><circle r="1" fill="#f3f1fb" transform="rotate(171.5 69.5 54.4)scale(221.52876 202.39794)"/><circle r="1" fill="#fff4ff" transform="matrix(1.51874 16.41911 -32.8412 3.03776 94.4 10.2)"/><ellipse cx="154" cy="215" fill="#8c9cb8" rx="38" ry="52"/><circle r="1" fill="#e8dcf1" transform="matrix(-84.87202 -32.3975 6.4758 -16.9647 27.5 189.8)"/><path fill="#fbe8ff" d="m137.7 159.2-24.7 34-30.7-22.4 24.7-34z"/><path fill="#fff" d="M224.7 96.6 188 93.4l1.4-16 36.8 3.2z"/><path fill="#fff0fb" d="m231 213-27 26-20-38z"/><circle r="1" fill="#ffe9ff" transform="matrix(-14.5453 1.46967 -2.03478 -20.13817 249.2 166.2)"/></g></g></svg>