<svg xmlns="http://www.w3.org/2000/svg" width="300" height="300"><g filter="blur(12px)"><rect width="200%" height="200%" x="-50%" y="-50%" fill="#6d84a2"/><rect width="100%" height="100%" fill="#6d84a2"/><g fill-opacity=".5" transform="translate(.6 .6)scale(1.17188)"><circle r="1" fill="#ffffea" transform="matrix(21.31837 135.0897 -251.88288 39.74938 156 157.5)"/><circle r="1" fill="#94ac87" transform="matrix(-12.82483 -53.7158 244.17327 -58.29719 56.9 27.3)"/><circle r="1" fill="#fafff8" transform="rotate(-71.7 159.4 -102.5)scale(30.5509 61.88241)"/><circle r="1" fill="#feffff" transform="matrix(-90.18695 -40.72097 10.69855 -23.69465 104.7 248.3)"/><circle r="1" fill="#50677b" transform="matrix(12.58338 32.52729 -12.5544 4.85675 204.7 45.9)"/><path fill="#557d2c" d="m132.5 186 1.9 22-46.9 4-1.9-22z"/><circle r="1" fill="#bdd1a2" transform="matrix(-96.63724 -54.32977 14.3796 -25.57723 37.7 44)"/><ellipse cx="154" cy="22" fill="#62759a" rx="60" ry="27"/></g></g></svg>