<svg xmlns="http://www.w3.org/2000/svg" width="300" height="300"><g filter="blur(12px)"><rect width="200%" height="200%" x="-50%" y="-50%" fill="#5c9c64"/><rect width="100%" height="100%" fill="#5c9c64"/><g fill-opacity=".5" transform="translate(.6 .6)scale(1.17188)"><circle r="1" fill="#ffb2cb" transform="matrix(58.3983 174.53411 -241.82253 80.91269 100.8 170)"/><path fill="#eed1bd" d="m135 122-151-6 213 113z"/><path fill="#feffff" d="m103.8 92.8-14 19.4-31.6-23 14-19.4z"/><ellipse cx="19" cy="153" fill="#ffefbc" rx="22" ry="18"/><circle r="1" fill="#e2efe7" transform="rotate(41.4 -65.4 293.6)scale(40.84104 14.68517)"/><path fill="#8a8072" d="M256 108 29 72l227-60z"/><circle r="1" fill="#f9fdeb" transform="matrix(-9.26078 7.62733 -18.938 -22.99373 16.9 36.7)"/><circle r="1" fill="#47383c" transform="matrix(-28.08397 -9.47228 1.94278 -5.76006 164.1 143)"/></g></g></svg>