<svg xmlns="http://www.w3.org/2000/svg" width="300" height="300"><g filter="blur(12px)"><rect width="200%" height="200%" x="-50%" y="-50%" fill="#8a9462"/><rect width="100%" height="100%" fill="#8a9462"/><g fill-opacity=".5" transform="translate(.6 .6)scale(1.17188)"><circle r="1" fill="#8a3107" transform="matrix(-33.96553 -19.2951 62.24747 -109.57537 112.9 131.4)"/><circle r="1" transform="matrix(21.48342 -22.18802 14.25454 13.80187 174 214.9)"/><circle r="1" fill="#ffd3b5" transform="matrix(18.42764 31.40916 -26.35495 15.46236 65.2 57.7)"/><circle r="1" fill="#0d0000" transform="matrix(2.63886 -49.2258 19.3341 1.03645 254.6 192.6)"/><ellipse cx="237" cy="79" fill="#ce703a" rx="66" ry="76"/><path d="m89.7-4.7.6 31-22 .4-.6-31z"/><ellipse cx="137" cy="110" fill="#102917" rx="37" ry="24"/><path fill="#d7a075" d="M122 134h101v53H122z"/></g></g></svg>