<svg xmlns="http://www.w3.org/2000/svg" width="300" height="300"><g filter="blur(12px)"><rect width="200%" height="200%" x="-50%" y="-50%" fill="#7c5aa3"/><rect width="100%" height="100%" fill="#7c5aa3"/><g fill-opacity=".5" transform="translate(.6 .6)scale(1.17188)"><circle cx="117" cy="55" r="233" fill="#ffd5b2"/><circle r="1" fill="#ff6f77" transform="rotate(85.5 -15.7 229.4)scale(28.81928 80.86723)"/><circle r="1" fill="#179eed" transform="matrix(33.61518 -27.85629 6.9296 8.36219 241.6 163.5)"/><circle r="1" fill="#f8a4ad" transform="matrix(-122.89992 33.22556 -28.98576 -107.2171 141.2 48.1)"/><path fill="#3aaaee" d="m65.3 183.3 2.8-11.2 42.1 7.7-4.7 56.2z"/><path fill="#ff3149" d="m80.8 224.1 2.3 33-39.9 2.8-2.3-33z"/><ellipse cx="161" cy="76" fill="#c5c6da" rx="54" ry="36"/><path fill="#ff5379" d="m.9 158.8 22 .4-1.8 98-22-.4z"/></g></g></svg>