<svg xmlns="http://www.w3.org/2000/svg" width="300" height="300"><g filter="blur(12px)"><rect width="200%" height="200%" x="-50%" y="-50%" fill="#9d7b58"/><rect width="100%" height="100%" fill="#9d7b58"/><g fill-opacity=".5" transform="translate(.6 .6)scale(1.17188)"><circle cx="48" cy="117" r="237" fill="#c1b8ad"/><circle r="1" fill="#403e32" transform="matrix(-7.09357 -18.03445 71.63104 -28.17493 0 177.6)"/><circle r="1" fill="#383726" transform="rotate(134.9 32.6 118.5)scale(36.37407 15.99638)"/><path fill="#0d0c00" d="m126 99.7-18.7-3 6.7-42.4 18.7 3z"/><circle r="1" fill="#484236" transform="rotate(-95.8 86 38.6)scale(36.37299 14.33911)"/><path fill="#fff8ef" d="m225 76.2-41.5-24 9.5-16.4 41.5 24z"/><circle r="1" fill="#ffe3a9" transform="matrix(49.03875 -13.23167 3.49312 12.94607 16.9 253)"/><circle r="1" fill="#facca3" transform="matrix(-23.9381 20.08646 -11.98208 -14.27969 93.5 139.4)"/></g></g></svg>