<svg xmlns="http://www.w3.org/2000/svg" width="300" height="300"><g filter="blur(12px)"><rect width="200%" height="200%" x="-50%" y="-50%" fill="#9c8257"/><rect width="100%" height="100%" fill="#9c8257"/><g fill-opacity=".5" transform="translate(.6 .6)scale(1.17188)"><circle r="1" fill="#000800" transform="matrix(-17.77599 -40.68762 43.13204 -18.84392 11.4 6.4)"/><ellipse cx="139" cy="223" fill="#00211b" rx="42" ry="20"/><circle r="1" fill="#002e2d" transform="matrix(45.90377 -12.98946 5.71898 20.21046 94.5 167.8)"/><path fill="#fdcfbf" d="m65-5.1 48.4 6.8-8.3 59.4-48.5-6.8z"/><circle r="1" fill="#dac6af" transform="matrix(-62.54137 34.13986 -12.14232 -22.24372 123.7 113.8)"/><circle r="1" fill="#002319" transform="rotate(54 -87.1 63.7)scale(63.34093 9.9837)"/><circle r="1" fill="#ffd1b3" transform="matrix(12.35786 -9.65502 18.90254 24.19414 81.3 227)"/><circle r="1" fill="#ffd7bd" transform="matrix(23.24344 5.15295 -7.1845 32.40717 254.3 29.3)"/></g></g></svg>