<svg xmlns="http://www.w3.org/2000/svg" width="300" height="300"><g filter="blur(12px)"><rect width="200%" height="200%" x="-50%" y="-50%" fill="#847473"/><rect width="100%" height="100%" fill="#847473"/><g fill-opacity=".5" transform="translate(.6 .6)scale(1.17188)"><circle r="1" fill="#ffd98f" transform="matrix(-40.25646 30.76787 -13.15439 -17.2111 134.8 101.5)"/><circle r="1" fill="#ffe5aa" transform="matrix(-14.39406 -12.4377 18.39333 -21.28646 196.2 17.4)"/><circle cx="195" cy="217" r="84" fill="#4d574a"/><circle r="1" fill="#ffff92" transform="matrix(13.48527 -1.65961 2.75793 22.4097 21.8 14.3)"/><path fill="#ffff92" d="m83.9 225.9-20.6 30.6 53.3 13-27.8-37.3z"/><ellipse cx="235" cy="43" fill="#364036" rx="21" ry="51"/><path fill="#fcd3a7" d="m191.6 123 25-29.9 23.8 20-25 29.8z"/><path fill="#d4b68f" d="m44 195 70-17-78-43z"/></g></g></svg>