<svg xmlns="http://www.w3.org/2000/svg" width="300" height="300"><g filter="blur(12px)"><rect width="200%" height="200%" x="-50%" y="-50%" fill="#bb8a85"/><rect width="100%" height="100%" fill="#bb8a85"/><g fill-opacity=".5" transform="translate(.6 .6)scale(1.17188)"><circle r="1" fill="#bf7220" transform="matrix(-37.06878 -190.70233 250.31492 -48.6563 135.1 181.4)"/><circle r="1" fill="#523ba5" transform="matrix(-2.9133 -18.39389 59.30204 -9.39252 122.6 187.7)"/><circle r="1" fill="#ff8" transform="rotate(-101.5 143.2 -75.8)scale(23.37169 28.365)"/><ellipse cx="139" cy="90" fill="#ffb636" rx="73" ry="19"/><circle r="1" fill="#f4a10a" transform="matrix(41.05793 19.75985 -10.94675 22.74566 196.4 226.8)"/><circle r="1" fill="#4037bf" transform="matrix(-.60427 10.40401 -23.2008 -1.3475 27.2 195.4)"/><ellipse cx="123" cy="121" fill="#604599" rx="33" ry="16"/><path fill="#332ec4" d="M125 231.4 99.6 226l5.4-25.4 25.4 5.4z"/></g></g></svg>