<svg xmlns="http://www.w3.org/2000/svg" width="300" height="300"><g filter="blur(12px)"><rect width="200%" height="200%" x="-50%" y="-50%" fill="#94804b"/><rect width="100%" height="100%" fill="#94804b"/><g fill-opacity=".5" transform="translate(.6 .6)scale(1.17188)"><circle cx="98" cy="182" r="216" fill="#391c09"/><circle r="1" fill="#edb272" transform="matrix(-13.50312 -24.43657 45.92984 -25.37983 194.2 144.5)"/><circle r="1" fill="#080a00" transform="matrix(26.94297 -44.3134 25.64798 15.59422 215.4 70.3)"/><ellipse cx="109" cy="27" fill="#000900" rx="14" ry="144"/><circle r="1" fill="#000300" transform="matrix(22.83576 -9.6777 16.56062 39.0769 154.5 230.7)"/><circle r="1" fill="#c7a163" transform="matrix(29.57719 21.57775 -14.65058 20.08194 97.3 185)"/><circle r="1" fill="#c99e61" transform="matrix(-43.09804 37.99604 -7.91715 -8.98024 51.6 130.1)"/><circle r="1" fill="#d7b978" transform="matrix(-22.1585 -9.83806 4.86134 -10.9493 154.2 114.8)"/></g></g></svg>