<svg xmlns="http://www.w3.org/2000/svg" width="300" height="300"><g filter="blur(12px)"><rect width="200%" height="200%" x="-50%" y="-50%" fill="#7180a0"/><rect width="100%" height="100%" fill="#7180a0"/><g fill-opacity=".5" transform="translate(.6 .6)scale(1.17188)"><circle r="1" fill="#f2f0fb" transform="rotate(-91.8 133 .1)scale(184.65568 197.99683)"/><circle r="1" fill="#ece0ee" transform="matrix(72.14898 -52.03548 14.73334 20.42828 31 12.7)"/><path fill="#ffebff" d="M213.4 139.5 194.7 128l16-25.4 18.6 11.6z"/><circle r="1" fill="#8191b0" transform="rotate(-64.2 170.6 -7.6)scale(13.74235 41.45908)"/><circle r="1" fill="#8f9fba" transform="rotate(-152.9 104.7 16.3)scale(14.81685 64.57337)"/><circle r="1" fill="#8092b1" transform="rotate(-25.8 80.8 -204.4)scale(27.93553 13.33696)"/><path fill="#8697b4" d="m105 229.3 3.4-15L1.2 263.4l74.4 7.6z"/><ellipse cx="62" cy="20" fill="#eee3f4" rx="8" ry="51"/></g></g></svg>