<svg xmlns="http://www.w3.org/2000/svg" width="300" height="300"><g filter="blur(12px)"><rect width="200%" height="200%" x="-50%" y="-50%" fill="#a879a2"/><rect width="100%" height="100%" fill="#a879a2"/><g fill-opacity=".5" transform="translate(.6 .6)scale(1.17188)"><ellipse cx="116" cy="180" fill="#81b25a" rx="253" ry="181"/><circle r="1" fill="#fffdca" transform="matrix(29.1328 21.08815 -11.3004 15.61125 192.6 230.3)"/><circle r="1" fill="#eac9bc" transform="matrix(12.8342 -18.05947 58.35982 41.47416 119.6 96.2)"/><circle r="1" fill="#5a6f54" transform="matrix(-17.71744 28.68698 -89.52366 -55.29094 100.8 224.8)"/><circle r="1" fill="#ffdee5" transform="matrix(-42.39527 -18.041 5.55869 -13.06258 78.7 9.4)"/><circle r="1" fill="#4a6a52" transform="matrix(-6.05271 -56.63666 19.85555 -2.12195 21.3 97.6)"/><circle r="1" fill="#ffebd3" transform="matrix(-14.08442 -9.25173 12.35116 -18.80284 55.6 77.6)"/><path fill="#e8c2bf" d="m205 173 52 13-45-146z"/></g></g></svg>