<svg xmlns="http://www.w3.org/2000/svg" width="300" height="300"><g filter="blur(12px)"><rect width="200%" height="200%" x="-50%" y="-50%" fill="#a56457"/><rect width="100%" height="100%" fill="#a56457"/><g fill-opacity=".5" transform="translate(.6 .6)scale(1.17188)"><ellipse cx="79" cy="153" fill="#9395ac" rx="219" ry="152"/><path fill="#0a151a" d="M144.7 58.2 128.2.5l121-34.7 16.6 57.7z"/><circle r="1" fill="#100" transform="matrix(5.0269 13.2549 -39.33698 14.91852 225.8 198)"/><path fill="#810000" d="m128 131 83-42-102 5z"/><circle r="1" fill="#a7b9d0" transform="matrix(2.56394 -24.3943 124.98251 13.1362 151.6 244.2)"/><ellipse cx="215" cy="3" fill="#ffbada" rx="13" ry="20"/><circle r="1" fill="#94b2c9" transform="matrix(32.2297 4.21463 -3.20026 24.47267 178.3 57.8)"/><circle r="1" fill="#00588c" transform="rotate(-120.5 12.2 -7)scale(20.52054 44.61581)"/></g></g></svg>