<svg xmlns="http://www.w3.org/2000/svg" width="300" height="300"><g filter="blur(12px)"><rect width="200%" height="200%" x="-50%" y="-50%" fill="#8187a5"/><rect width="100%" height="100%" fill="#8187a5"/><circle r="1" fill="#fff" fill-opacity=".5" transform="matrix(-97.11302 209.76779 -208.56929 -96.55817 152.1 125.7)"/><circle r="1" fill="#f3e3f6" fill-opacity=".5" transform="matrix(-112.66741 -205.79123 168.39305 -92.1925 163.2 167.7)"/><circle r="1" fill="#c5c3d9" fill-opacity=".5" transform="matrix(-36.2159 49.22904 -37.91014 -27.88902 259.4 238.4)"/><circle r="1" fill="#f1e8f2" fill-opacity=".5" transform="matrix(32.10388 36.80137 -13.64016 11.89907 216.2 203.8)"/><circle r="1" fill="#ece7f1" fill-opacity=".5" transform="matrix(-10.85638 17.4415 -55.79301 -34.72809 129.2 74.2)"/><path fill="#9ca0be" fill-opacity=".5" d="m269 225.6-3.6-25.8-43.3-4.7z"/><path fill="#b3b1ca" fill-opacity=".5" d="m131.5 117.9 6.7 79-28.4 22.1 16.9-55.6z"/><path fill="#9095b6" fill-opacity=".5" d="m193.8 10.2 9.4-15.8 41.1-12.6-14.8 25.8z"/></g></svg>