<svg xmlns="http://www.w3.org/2000/svg" width="300" height="300"><g filter="blur(12px)"><rect width="200%" height="200%" x="-50%" y="-50%" fill="#959560"/><rect width="100%" height="100%" fill="#959560"/><g fill-opacity=".5" transform="translate(.6 .6)scale(1.17188)"><circle r="1" fill="#73300d" transform="rotate(-61.5 200 -58.2)scale(157.6362 196.36086)"/><ellipse cx="137" cy="142" fill="#daa37d" rx="53" ry="16"/><circle r="1" fill="#b79484" transform="matrix(1.80938 19.25997 -50.47686 4.74206 5.8 38.6)"/><circle r="1" fill="#2a2e12" transform="matrix(18.90492 -20.63613 14.069 12.88872 70.5 208)"/><path fill="#ffe3bc" d="m145 47 7-45 12 21z"/><path fill="#f4f0d3" d="m210 173-2 42 16-14z"/><circle r="1" fill="#4a4722" transform="matrix(-26.58432 -1.11421 2.54182 -60.64606 186.8 230.7)"/><circle r="1" fill="#ffddae" transform="rotate(-56.9 238.9 -156)scale(4.45125 17.84494)"/></g></g></svg>