<svg xmlns="http://www.w3.org/2000/svg" width="300" height="300"><g filter="blur(12px)"><rect width="200%" height="200%" x="-50%" y="-50%" fill="#88945b"/><rect width="100%" height="100%" fill="#88945b"/><g fill-opacity=".5" transform="translate(.6 .6)scale(1.17188)"><circle r="1" fill="#c7471d" transform="matrix(145.08482 174.3895 -104.54637 86.97823 83.9 122)"/><circle r="1" fill="#fccea0" transform="matrix(12.4865 -1.10765 5.55091 62.57553 224.7 88.3)"/><path fill="#eccf93" d="m193 2-69 24 4 71z"/><path fill="#d1d5ad" d="m157.4 204.6 39.9 30-24.7 32.8-39.9-30z"/><circle cx="1" cy="198" r="100" fill="#7c4a1f"/><ellipse cx="215" cy="233" fill="#463e1b" rx="26" ry="47"/><circle r="1" fill="#fefed6" transform="matrix(8.40071 14.30117 -7.37043 4.3295 71.6 67.5)"/><circle r="1" fill="#d8d7a6" transform="matrix(13.15026 5.79076 -13.15264 29.86837 104.1 248.9)"/></g></g></svg>