<svg xmlns="http://www.w3.org/2000/svg" width="300" height="300"><g filter="blur(12px)"><rect width="200%" height="200%" x="-50%" y="-50%" fill="#846c74"/><rect width="100%" height="100%" fill="#846c74"/><circle r="1" fill="#ffef94" fill-opacity=".5" transform="rotate(-169.6 80.9 84.3)scale(297.95952 169.92948)"/><circle r="1" fill="#ffd6aa" fill-opacity=".5" transform="matrix(23.58182 -25.76424 55.5485 50.84314 245.5 222.5)"/><circle r="1" fill="#7e5a6e" fill-opacity=".5" transform="matrix(-11.80652 35.6537 -71.59835 -23.7094 132.4 .6)"/><circle r="1" fill="#566c2c" fill-opacity=".5" transform="matrix(.33758 -17.8804 30.97068 .58473 154.7 204.3)"/><circle r="1" fill="#ffdfae" fill-opacity=".5" transform="matrix(8.29985 18.56777 -59.21902 26.4711 248 79.3)"/><circle r="1" fill="#ffd9a5" fill-opacity=".5" transform="matrix(4.84883 -21.3422 53.476 12.14945 78.3 259.2)"/><circle r="1" fill="#ffd0a0" fill-opacity=".5" transform="rotate(-122 23 2.4)scale(44.81844 16.74172)"/><circle r="1" fill="#5d4262" fill-opacity=".5" transform="matrix(-17.67674 -1.5175 1.65497 -19.27817 226.5 149.9)"/></g></svg>