<svg xmlns="http://www.w3.org/2000/svg" width="300" height="300"><g filter="blur(12px)"><rect width="200%" height="200%" x="-50%" y="-50%" fill="#4c8d9a"/><rect width="100%" height="100%" fill="#4c8d9a"/><g fill-opacity=".5" transform="translate(.6 .6)scale(1.17188)"><circle r="1" fill="#ffc245" transform="matrix(29.5076 57.16993 -11.9859 6.18638 180.4 17.9)"/><ellipse cx="102" cy="234" fill="#03426e" rx="53" ry="31"/><ellipse cx="58" cy="28" fill="#2e2c3e" rx="55" ry="15"/><ellipse cx="106" cy="16" fill="#f32d24" rx="14" ry="18"/><path fill="#002d63" d="M-10.8 231.6 26 211.3l22.8 41L12 272.8z"/><circle r="1" fill="#116188" transform="matrix(19.3756 -46.57167 30.81359 12.81963 188.5 142.5)"/><circle r="1" fill="#ffc929" transform="matrix(7.46641 .28683 -1.08136 28.14864 0 22.7)"/><path fill="#000625" d="M192.3 10 205.9-.4 225.7 26l-13.6 10.2z"/></g></g></svg>