<svg xmlns="http://www.w3.org/2000/svg" width="300" height="300"><g filter="blur(12px)"><rect width="200%" height="200%" x="-50%" y="-50%" fill="#6b7fa2"/><rect width="100%" height="100%" fill="#6b7fa2"/><g fill-opacity=".5" transform="translate(.6 .6)scale(1.17188)"><ellipse cx="145" cy="122" fill="#fff" rx="180" ry="222"/><circle r="1" fill="#fbe8f1" transform="matrix(-88.62489 147.06504 -186.82414 -112.58466 126.2 125.5)"/><ellipse cx="12" cy="79" fill="#eae8f1" rx="42" ry="106"/><circle r="1" fill="#c5c1d3" transform="matrix(27.42181 -89.3402 42.55159 13.06066 32.4 249.1)"/><circle r="1" fill="#efebf4" transform="matrix(-42.95395 -18.85547 10.57736 -24.0959 143.3 52)"/><path fill="#bdb1c6" d="m186.8 94.2 48.2-39 18.2 22.6-48.2 39z"/><path fill="#8c9cbb" d="M122 174h33v14h-33z"/><circle r="1" fill="#9db1c9" transform="matrix(-17.93627 11.962 -6.17136 -9.25357 248.9 210.8)"/></g></g></svg>