<svg xmlns="http://www.w3.org/2000/svg" width="300" height="300"><g filter="blur(12px)"><rect width="200%" height="200%" x="-50%" y="-50%" fill="#7a84a5"/><rect width="100%" height="100%" fill="#7a84a5"/><circle r="1" fill="#fff" fill-opacity=".5" transform="rotate(69 -42.8 203.2)scale(230.98967 244.04919)"/><circle r="1" fill="#e3d7e6" fill-opacity=".5" transform="matrix(-71.90524 -270.12072 157.91771 -42.03717 174.2 126)"/><circle r="1" fill="#9096b9" fill-opacity=".5" transform="matrix(-33.2844 8.54689 -4.53207 -17.64937 203.8 91.3)"/><path fill="#9ba1c0" fill-opacity=".5" d="m134.4 87 20.3-13L140 177.6l-9.1-62z"/><path fill="#8b91b2" fill-opacity=".5" d="M247.9 12.3H270v34h-22z"/><circle r="1" fill="#9b9cc1" fill-opacity=".5" transform="matrix(9.25732 7.28612 -24.50412 31.13348 52.4 248.1)"/><path fill="#eee7f3" fill-opacity=".5" d="M145.9 318.2 24 312.3l77.4-72.7z"/><circle r="1" fill="#e6dfeb" fill-opacity=".5" transform="matrix(-38.68741 10.4109 -12.39038 -46.04327 101 66.6)"/></g></svg>