<svg xmlns="http://www.w3.org/2000/svg" width="300" height="300"><g filter="blur(12px)"><rect width="200%" height="200%" x="-50%" y="-50%" fill="#688668"/><rect width="100%" height="100%" fill="#688668"/><g fill-opacity=".5" transform="translate(.6 .6)scale(1.17188)"><circle r="1" fill="#d8947e" transform="matrix(-161.46847 -184.44395 139.1528 -121.81907 84.9 127.7)"/><circle r="1" fill="#ffcd9b" transform="matrix(-18.8229 38.53693 -24.41603 -11.92572 26.7 30)"/><ellipse cx="172" cy="127" fill="#ffbd91" rx="36" ry="33"/><circle r="1" fill="#4d6653" transform="matrix(1.21058 35.4312 -45.24406 1.54585 128.8 67)"/><path fill="#ffc9a4" d="M168 170h30v55h-30z"/><circle r="1" fill="#3a392b" transform="matrix(10.10175 12.53473 -24.5885 19.8159 184.3 246.7)"/><path fill="#4a5d49" d="M25 182h40v56H25z"/><circle r="1" fill="#4f5f4e" transform="matrix(-14.37092 -26.69478 18.0163 -9.69893 233 139.4)"/></g></g></svg>