<svg xmlns="http://www.w3.org/2000/svg" width="300" height="300"><g filter="blur(12px)"><rect width="200%" height="200%" x="-50%" y="-50%" fill="#805940"/><rect width="100%" height="100%" fill="#805940"/><g fill-opacity=".5" transform="translate(.6 .6)scale(1.17188)"><circle r="1" fill="#e28773" transform="matrix(-17.86795 188.26019 -166.31977 -15.78556 111 135.2)"/><circle r="1" fill="#a9ffff" transform="rotate(144.1 79.5 112.8)scale(21.86273 30.24402)"/><circle r="1" fill="#a6f3ff" transform="matrix(-6.6892 -22.42747 26.82506 -8.00083 154 169.2)"/><circle r="1" fill="#a7d1ec" transform="matrix(-43.32774 -11.85313 4.89734 -17.90166 189.5 98.7)"/><ellipse cx="96" cy="96" fill="#64e8ff" rx="23" ry="18"/><circle r="1" fill="#b0300b" transform="rotate(16.6 -80.7 540.6)scale(62.28748 33.49464)"/><path fill="#ffffeb" d="m150.8-9.3 65.5 14-3 14.6-65.6-14z"/><path fill="#89f7ff" d="M31 179h23v30H31z"/></g></g></svg>