<svg xmlns="http://www.w3.org/2000/svg" width="300" height="300"><g filter="blur(12px)"><rect width="200%" height="200%" x="-50%" y="-50%" fill="#589c78"/><rect width="100%" height="100%" fill="#589c78"/><g fill-opacity=".5" transform="translate(.6 .6)scale(1.17188)"><circle r="1" fill="#ff917f" transform="matrix(64.72338 -167.0863 181.90486 70.46357 122.6 113.5)"/><circle r="1" fill="#ffd39d" transform="matrix(-21.761 -2.67284 6.31991 -51.45378 208.8 142.1)"/><circle r="1" fill="#f4c9a7" transform="rotate(-55 194.6 79.4)scale(21.18896 106.16857)"/><circle r="1" fill="#58513f" transform="matrix(8.50782 9.96138 -40.68776 34.75063 175 97)"/><circle r="1" fill="#5f5441" transform="matrix(23.60033 2.27245 -3.70917 38.5212 43.8 135.3)"/><path fill="#2b2d26" d="M83 161h26v39H83z"/><circle cx="82" cy="70" r="25" fill="#4f4d3e"/><circle r="1" fill="#efc8a4" transform="matrix(-46.4326 -15.73702 7.43135 -21.92644 140.4 40.9)"/></g></g></svg>