<svg xmlns="http://www.w3.org/2000/svg" width="300" height="300"><g filter="blur(12px)"><rect width="200%" height="200%" x="-50%" y="-50%" fill="#75539b"/><rect width="100%" height="100%" fill="#75539b"/><g fill-opacity=".5" transform="translate(.6 .6)scale(1.17188)"><circle r="1" fill="#ffcb8d" transform="rotate(88.8 1.6 129.8)scale(236.41017 159.17172)"/><circle r="1" fill="#ff6300" transform="matrix(12.19112 11.52214 -16.85613 17.8348 71.2 150)"/><circle r="1" fill="#ff6800" transform="matrix(15.30095 -34.87187 18.22343 7.996 66.4 0)"/><circle r="1" fill="#ff6300" transform="matrix(19.06164 -2.47459 2.0238 15.5892 166.7 152)"/><path fill="#ff6a00" d="M175 212h21v44h-21z"/><circle r="1" fill="#c3aac4" transform="matrix(-92.95463 -17.40845 5.33465 -28.48507 168.6 99.3)"/><ellipse cx="86" cy="215" fill="#ddf5ff" rx="14" ry="17"/><circle r="1" fill="#f27000" transform="matrix(-5.35167 16.6685 -15.61703 -5.01408 255 16.2)"/></g></g></svg>