<svg xmlns="http://www.w3.org/2000/svg" width="300" height="300"><g filter="blur(12px)"><rect width="200%" height="200%" x="-50%" y="-50%" fill="#9a8f68"/><rect width="100%" height="100%" fill="#9a8f68"/><g fill-opacity=".5" transform="translate(.6 .6)scale(1.17188)"><circle r="1" fill="#ffcf9f" transform="matrix(-23.77894 54.68781 -151.15412 -65.72368 105 120.4)"/><circle r="1" fill="#0a3d39" transform="matrix(-56.44372 38.83225 -19.87991 -28.89599 163 37.2)"/><circle r="1" fill="#ffc593" transform="matrix(-151.14598 79.73146 -20.22819 -38.34633 90.2 209.6)"/><path fill="#00271e" d="M9.8 148.4 35.5 133l26.7 44.6L36.5 193z"/><ellipse cx="21" cy="41" fill="#ffc69d" rx="30" ry="88"/><circle r="1" fill="#ffcd91" transform="rotate(71.6 -128.5 105.6)scale(62.97983 16.79692)"/><circle r="1" fill="#488178" transform="matrix(-64.79874 -.76449 .35857 -30.39325 213 228.7)"/><path fill="#002723" d="m255 42.3-6.1 18-54-18.6 6.2-18z"/></g></g></svg>