<svg xmlns="http://www.w3.org/2000/svg" width="300" height="300"><g filter="blur(12px)"><rect width="200%" height="200%" x="-50%" y="-50%" fill="#6b82a3"/><rect width="100%" height="100%" fill="#6b82a3"/><g fill-opacity=".5" transform="translate(.6 .6)scale(1.17188)"><circle r="1" fill="#fff" transform="matrix(47.02433 -208.57408 173.3424 39.08112 99.6 122.4)"/><circle cx="37" cy="89" r="242" fill="#dfcbde"/><ellipse cx="3" cy="131" fill="#557094" rx="13" ry="45"/><circle r="1" fill="#63799f" transform="matrix(-27.22329 15.4022 -8.04787 -14.22455 58.6 51.6)"/><path fill="#597296" d="m212 243-1-48-54 16z"/><path fill="#4d6b93" d="M223.3 127.3 199.6 144l-15-21.3 23.8-16.7z"/><circle r="1" fill="#969db2" transform="matrix(31.25488 17.4515 -11.5514 20.68808 141.8 152.4)"/><circle r="1" fill="#f8ecf4" transform="matrix(-53.52087 -12.22026 3.81718 -16.71802 60.6 189.8)"/></g></g></svg>