<svg xmlns="http://www.w3.org/2000/svg" width="300" height="300"><g filter="blur(12px)"><rect width="200%" height="200%" x="-50%" y="-50%" fill="#828aa3"/><rect width="100%" height="100%" fill="#828aa3"/><g fill-opacity=".5" transform="translate(.6 .6)scale(1.17188)"><circle cx="120" cy="129" r="191" fill="#fff"/><circle r="1" fill="#ebd5eb" transform="rotate(-162.8 67.2 63.6)scale(125.30011 252.50579)"/><circle r="1" fill="#edf2fb" transform="matrix(-26.60858 20.5816 -35.96156 -46.4923 120.2 109.8)"/><circle r="1" fill="#a899b5" transform="matrix(-12.13301 -1.02894 3.79739 -44.77786 233.8 202.8)"/><circle r="1" fill="#fef9fd" transform="rotate(135.1 72.2 36)scale(19.85966 32.92325)"/><circle r="1" fill="#c2b4c6" transform="matrix(62.68352 -21.58367 6.08492 17.6719 72.4 190.5)"/><circle r="1" fill="#c3b3c1" transform="rotate(-160.3 111.6 73.7)scale(23.92522 37.19363)"/><circle r="1" fill="#ccbbd1" transform="matrix(54.9458 60.92907 -30.48922 27.49516 19.4 60.5)"/></g></g></svg>