<svg xmlns="http://www.w3.org/2000/svg" width="300" height="300"><g filter="blur(12px)"><rect width="200%" height="200%" x="-50%" y="-50%" fill="#a8925f"/><rect width="100%" height="100%" fill="#a8925f"/><g fill-opacity=".5" transform="translate(.6 .6)scale(1.17188)"><circle r="1" fill="#cec1c4" transform="rotate(-161.6 60.8 54.7)scale(162.79856 255)"/><ellipse cx="39" cy="70" fill="#695d3b" rx="125" ry="35"/><circle r="1" fill="#f2feff" transform="matrix(-221.12153 -22.72486 2.20938 -21.4981 116.3 8.2)"/><path fill="#665f3a" d="m137 136-83 50 112 40z"/><circle r="1" fill="#292a1e" transform="rotate(32.3 -249.5 532.5)scale(24.04914 14.77969)"/><circle r="1" fill="#f4d8c5" transform="matrix(-18.21767 -4.44099 27.79332 -114.01277 204.2 88.5)"/><path fill="#e9d3c8" d="m226 312.7-88-59.2 42-62.2 88 59.2z"/><circle r="1" fill="#ddcdb9" transform="rotate(-160.1 81.5 43)scale(62.25057 28.36298)"/></g></g></svg>