<svg xmlns="http://www.w3.org/2000/svg" width="300" height="300"><g filter="blur(12px)"><rect width="200%" height="200%" x="-50%" y="-50%" fill="#6c8b73"/><rect width="100%" height="100%" fill="#6c8b73"/><g fill-opacity=".5" transform="translate(.6 .6)scale(1.17188)"><path fill="#112514" d="m-6 61 30 62 187-72z"/><circle r="1" fill="#ffd3ca" transform="matrix(-44.15334 4.32927 -2.21202 -22.55994 48 17.6)"/><circle r="1" fill="#192a1a" transform="matrix(-16.37353 -17.73934 34.23036 -31.59486 202.6 84.4)"/><ellipse cx="119" cy="162" fill="#031e09" rx="51" ry="18"/><path fill="#000b00" d="m186 7.8 20-34.6 78 45-20 34.6z"/><circle r="1" fill="#edafc1" transform="matrix(-34.6385 36.88626 -15.86644 -14.89958 136 111)"/><circle r="1" fill="#fcc9b6" transform="matrix(-22.45187 16.93185 -14.1303 -18.73698 128.7 203.5)"/><circle r="1" fill="#f5cfbd" transform="matrix(13.13473 5.66086 -36.4401 84.55084 17.8 226)"/></g></g></svg>