<svg xmlns="http://www.w3.org/2000/svg" width="300" height="300"><g filter="blur(12px)"><rect width="200%" height="200%" x="-50%" y="-50%" fill="#a07c55"/><rect width="100%" height="100%" fill="#a07c55"/><g fill-opacity=".5" transform="translate(.6 .6)scale(1.17188)"><ellipse cx="144" cy="114" fill="#b2aa96" rx="165" ry="154"/><circle r="1" fill="#f9dec3" transform="rotate(-28.1 240.2 -227.1)scale(27.44505 35.77174)"/><ellipse cx="107" cy="184" fill="#837657" rx="46" ry="70"/><circle r="1" fill="#ffe0c7" transform="rotate(-12.3 357.6 -931.6)scale(27.20743 11.98068)"/><circle r="1" fill="#f4c0a3" transform="matrix(33.9246 18.88949 -8.17609 14.68386 60.1 70.2)"/><path fill="#6e6f4d" d="m226 241-66 7 81-108z"/><path fill="#f2e6db" d="m210.2 145.3-11.3-9.9 24.9-28.7 11.3 9.9z"/><path fill="#ffe1b6" d="m11.4 110.3-1.9 23.9L34.3 121 21.8 63.8z"/></g></g></svg>