<svg xmlns="http://www.w3.org/2000/svg" width="300" height="300"><g filter="blur(12px)"><rect width="200%" height="200%" x="-50%" y="-50%" fill="#9e9b67"/><rect width="100%" height="100%" fill="#9e9b67"/><circle r="1" fill="#a497bb" fill-opacity=".5" transform="matrix(168.56923 -92.65043 143.93615 261.87904 161.4 135.9)"/><circle r="1" fill="#fff" fill-opacity=".5" transform="matrix(3.14079 21.30593 -32.79441 4.83435 200 182.6)"/><path fill="#1b1d29" fill-opacity=".5" d="m216.7 239.5 29.9-51.8 25.4 14.6-30 51.8z"/><circle r="1" fill="#372440" fill-opacity=".5" transform="rotate(-121.7 88.4 101.9)scale(28.0491 14.29941)"/><path fill="#1d1728" fill-opacity=".5" d="m225.3 45-7.6-61.6 12.8-1.5 7.6 61.6z"/><circle r="1" fill="#504250" fill-opacity=".5" transform="matrix(10.17163 34.56426 -19.54883 5.75286 .6 133.9)"/><circle r="1" fill="#eed6cd" fill-opacity=".5" transform="rotate(-51.7 190.5 -286.2)scale(22.30308 35.70563)"/><path fill="#636062" fill-opacity=".5" d="m188.6 237.3 40.7 59.4 10.7 21.5 29.5-120.4z"/></g></svg>