<svg xmlns="http://www.w3.org/2000/svg" width="300" height="300"><g filter="blur(12px)"><rect width="200%" height="200%" x="-50%" y="-50%" fill="#ac7ca4"/><rect width="100%" height="100%" fill="#ac7ca4"/><g fill-opacity=".5" transform="translate(.6 .6)scale(1.17188)"><circle cx="81" cy="135" r="203" fill="#c3d394"/><circle r="1" fill="#687a55" transform="matrix(-14.82353 -15.50995 63.3544 -60.55054 160.7 243.7)"/><circle r="1" fill="#6b7b4b" transform="matrix(-7.27723 24.98477 -39.17375 -11.41 158 8.3)"/><circle r="1" fill="#58722d" transform="matrix(27.93184 -1.2473 .89846 20.12017 255 192)"/><circle r="1" fill="#3e5a42" transform="rotate(-171.3 20.1 43.8)scale(26.22517 8.83817)"/><circle r="1" fill="#fcd7d1" transform="rotate(100.9 -.8 112.3)scale(16.68807 45.3946)"/><circle r="1" fill="#e9d7ab" transform="matrix(-13.5455 21.93204 -58.66377 -36.23149 78.2 228.4)"/><circle r="1" fill="#fffdff" transform="matrix(16.0005 -7.44986 5.45441 11.71476 78.9 92)"/></g></g></svg>