<svg xmlns="http://www.w3.org/2000/svg" width="300" height="300"><g filter="blur(12px)"><rect width="200%" height="200%" x="-50%" y="-50%" fill="#8c8c8c"/><rect width="100%" height="100%" fill="#8c8c8c"/><circle r="1" fill="#d9d4e1" fill-opacity=".5" transform="rotate(164.6 26 120.7)scale(24.4136 38.24556)"/><path fill="#e4dbe9" fill-opacity=".5" d="m151.3 12.4 45.2 53.8-27.9 23.4-45.2-53.9z"/><path fill="#f2e4fa" fill-opacity=".5" d="m-6.5-7 76-27.7L85 8.3 9 35.8z"/><path fill="#fff6ff" fill-opacity=".5" d="m-12.3 252.5-5.9-72.6L25.2 256z"/><path fill="#c9c4cf" fill-opacity=".5" d="m211.5 159 80.5 32.8-112.2.6 17-31.6z"/><path fill="#fff5ff" fill-opacity=".5" d="m112 252.2 29-15.4 6 11.4-29 15.4z"/><path fill="#fff" fill-opacity=".5" d="m266.6 294.7 22.3 23.5-10.6-41z"/><circle r="1" fill="#e0ddef" fill-opacity=".5" transform="matrix(-12.55284 -1.16517 1.0369 -11.17088 89.5 85.1)"/></g></svg>