<svg xmlns="http://www.w3.org/2000/svg" width="300" height="300"><g filter="blur(12px)"><rect width="200%" height="200%" x="-50%" y="-50%" fill="#6c8b73"/><rect width="100%" height="100%" fill="#6c8b73"/><g fill-opacity=".5" transform="translate(.6 .6)scale(1.17188)"><circle cx="138" cy="17" r="156" fill="#c9b3a9"/><circle r="1" fill="#ffe6e6" transform="matrix(68.39765 11.52906 -3.57876 21.23146 222.9 217)"/><circle r="1" fill="#ffebf0" transform="matrix(150.33825 -49.4287 9.44598 28.73012 25.6 18.7)"/><circle r="1" fill="#fff1ff" transform="matrix(-44.70317 -59.44167 24.46964 -18.40242 11.6 255)"/><path fill="#124c2a" d="M155 0h101v19H155z"/><circle r="1" fill="#4c674a" transform="matrix(-52.85147 -45.08886 14.40539 -16.88545 127.8 92)"/><path fill="#fff1ff" d="m52.5 239 22.3-16.8 24.7 32.7-22.3 16.9z"/><circle r="1" fill="#254826" transform="matrix(31.60737 -6.2726 2.93913 14.81018 59 126.1)"/></g></g></svg>