<svg xmlns="http://www.w3.org/2000/svg" width="300" height="300"><g filter="blur(12px)"><rect width="200%" height="200%" x="-50%" y="-50%" fill="#899462"/><rect width="100%" height="100%" fill="#899462"/><g fill-opacity=".5" transform="translate(.6 .6)scale(1.17188)"><circle r="1" fill="#ae5435" transform="matrix(49.52976 -250.14356 158.99145 31.48115 98.8 126.8)"/><ellipse cx="215" cy="46" fill="#f8cbab" rx="20" ry="34"/><circle r="1" fill="#635522" transform="matrix(-57.04797 91.29583 -38.75593 -24.21739 72 234.7)"/><path fill="#deb08a" d="m-16 52 223 146L91 68z"/><ellipse cx="247" cy="221" fill="#f8b291" rx="12" ry="114"/><circle r="1" fill="#d6b6aa" transform="matrix(-19.05566 -4.56799 7.06795 -29.48438 194 196.6)"/><path fill="#ffecc6" d="m11.5 156.6 23.6 6 6.7-11.5-24.1-23.7z"/><circle r="1" fill="#ffd3a6" transform="matrix(7.20852 -24.65123 13.60033 3.97701 26.6 78.4)"/></g></g></svg>