<svg xmlns="http://www.w3.org/2000/svg" width="300" height="300"><g filter="blur(12px)"><rect width="200%" height="200%" x="-50%" y="-50%" fill="#6491ad"/><rect width="100%" height="100%" fill="#6491ad"/><g fill-opacity=".5" transform="translate(.6 .6)scale(1.17188)"><circle r="1" fill="#ffb27f" transform="matrix(-117.22424 -141.69558 160.87244 -133.08918 142.2 116.6)"/><circle r="1" fill="#efa193" transform="matrix(-210.74374 -78.93105 43.8444 -117.06336 147.6 120.7)"/><circle r="1" fill="#f95167" transform="matrix(5.15012 -16.12933 38.49204 12.29057 242.6 39)"/><circle r="1" fill="#92bfc8" transform="matrix(-37.51786 11.10733 -5.61696 -18.9727 198.4 133.1)"/><circle r="1" fill="#e55a72" transform="rotate(157.2 34.4 101.4)scale(38.68742 19.92506)"/><circle r="1" fill="#f34c60" transform="matrix(5.90474 -17.13504 26.25963 9.04908 22.5 135.7)"/><circle cy="40" r="62" fill="#a3a4af"/><path fill="#daf7ff" d="m27.6 212.1-20.7-7.5 7.5-20.7 20.7 7.5z"/></g></g></svg>