<svg xmlns="http://www.w3.org/2000/svg" width="300" height="300"><g filter="blur(12px)"><rect width="200%" height="200%" x="-50%" y="-50%" fill="#88756b"/><rect width="100%" height="100%" fill="#88756b"/><g fill-opacity=".5" transform="translate(.6 .6)scale(1.17188)"><circle r="1" fill="#ffdba4" transform="rotate(-161.1 82.8 48.1)scale(199.90997 173.14263)"/><circle r="1" fill="#ffbf82" transform="rotate(-85.3 59 -63)scale(41.77914 119.95893)"/><circle r="1" fill="#ffc192" transform="matrix(103.4151 -47.71664 8.74491 18.95264 70.2 144.6)"/><circle r="1" fill="#876b5d" transform="rotate(154.2 11 31.4)scale(53.75012 14.47651)"/><ellipse cx="234" cy="242" fill="#7a8975" rx="22" ry="56"/><path fill="#ffbd84" d="m256 197.9-53.5-19.5 15.4-42.3 53.6 19.5z"/><path fill="#617766" d="m95 126 14-47-34-15z"/><path fill="#3d312d" d="m161.6 184.2-4.5 5.3-30.7-25.7 4.5-5.3z"/></g></g></svg>