<svg xmlns="http://www.w3.org/2000/svg" width="300" height="300"><g filter="blur(12px)"><rect width="200%" height="200%" x="-50%" y="-50%" fill="#a48858"/><rect width="100%" height="100%" fill="#a48858"/><g fill-opacity=".5" transform="translate(.6 .6)scale(1.17188)"><circle r="1" fill="#72613b" transform="rotate(113.2 8.6 91.2)scale(255 152.90648)"/><circle r="1" fill="#cebd95" transform="matrix(-7.19782 -11.11331 52.5875 -34.05964 106.5 183.9)"/><path fill="#e1d4ac" d="m33 162-36-20 47-41z"/><path fill="#24281a" d="m223.1 164.7 1.7 32-52 2.6-1.6-32z"/><ellipse cx="172" cy="88" fill="#2f3125" rx="30" ry="19"/><ellipse cx="160" cy="44" fill="#f7cd7d" rx="43" ry="8"/><circle r="1" fill="#2c322b" transform="matrix(-34.98177 -18.08127 3.5935 -6.95234 90.2 156.8)"/><circle r="1" fill="#171711" transform="matrix(-5.29109 9.6429 -24.764 -13.5881 140.7 14.6)"/></g></g></svg>