<svg xmlns="http://www.w3.org/2000/svg" width="300" height="300"><g filter="blur(12px)"><rect width="200%" height="200%" x="-50%" y="-50%" fill="#9f7f53"/><rect width="100%" height="100%" fill="#9f7f53"/><g fill-opacity=".5" transform="translate(.6 .6)scale(1.17188)"><path fill="#843a04" d="m173 197-45.6 50.5L7.1 139l45.5-50.6z"/><circle r="1" fill="#5d310e" transform="matrix(42.44426 27.98683 -39.95216 60.59064 239.5 66.2)"/><ellipse cx="17" cy="20" fill="#8f4f17" rx="77" ry="57"/><circle r="1" fill="#e1cea5" transform="matrix(-23.12433 27.96308 -11.01035 -9.10511 162.1 148.9)"/><circle r="1" fill="#653408" transform="matrix(12.84624 13.2396 -43.03472 41.75611 175.1 10.7)"/><path fill="#793d09" d="m264 179-20-56-66 100z"/><path fill="#883a04" d="m158 259-57-54 141 37z"/><circle r="1" fill="#ccc58f" transform="matrix(25.91 3.9505 -1.54886 10.15843 75.8 137.7)"/></g></g></svg>