<svg xmlns="http://www.w3.org/2000/svg" width="300" height="300"><g filter="blur(12px)"><rect width="200%" height="200%" x="-50%" y="-50%" fill="#924a06"/><rect width="100%" height="100%" fill="#924a06"/><g fill-opacity=".5" transform="translate(.6 .6)scale(1.17188)"><circle r="1" fill="#fff3ff" transform="rotate(76.2 -12 155)scale(217.95049 180.23462)"/><ellipse cx="55" cy="158" fill="#fb5800" rx="120" ry="30"/><circle r="1" fill="#e8bcdd" transform="matrix(16.86974 -37.44308 232.49266 104.74809 169 58.9)"/><circle r="1" fill="#ffd5d5" transform="matrix(11.92735 -28.72542 62.10145 25.78572 187.7 221.5)"/><circle r="1" fill="#ff6b00" transform="matrix(12.63254 25.99109 -40.0679 19.47434 11 184.1)"/><circle r="1" fill="#ffb6d6" transform="rotate(-104.9 110 98)scale(25.51978 78.0904)"/><path fill="#a2ace8" d="m47 69 5 96 77-65z"/><path fill="#fc7300" d="m105 151 24-75 36 110z"/></g></g></svg>