<svg xmlns="http://www.w3.org/2000/svg" width="300" height="300"><g filter="blur(12px)"><rect width="200%" height="200%" x="-50%" y="-50%" fill="#af6662"/><rect width="100%" height="100%" fill="#af6662"/><g fill-opacity=".5" transform="translate(.6 .6)scale(1.17188)"><circle r="1" fill="#ffd300" transform="matrix(-128.23935 -62.5406 111.7761 -229.19665 112.9 101.5)"/><circle r="1" fill="#1c00d6" transform="matrix(26.70274 -9.2685 9.18685 26.4675 95 208.5)"/><circle r="1" fill="#ffd733" transform="matrix(75.30472 31.74615 -12.29117 29.15577 198.3 255)"/><ellipse cx="119" cy="86" fill="#ffa216" rx="255" ry="99"/><circle r="1" fill="#626af5" transform="matrix(-24.6541 -3.24577 3.07854 -23.38383 230 217.9)"/><circle r="1" fill="#f6d05d" transform="matrix(30.99397 -8.04733 19.11306 73.61315 255 119.6)"/><circle r="1" fill="#f6e587" transform="matrix(16.60863 -8.75963 13.52016 25.6348 55 135.4)"/><circle cx="142" cy="24" r="78" fill="#f47b02"/></g></g></svg>