<svg xmlns="http://www.w3.org/2000/svg" width="300" height="300"><g filter="blur(12px)"><rect width="200%" height="200%" x="-50%" y="-50%" fill="#69b5ac"/><rect width="100%" height="100%" fill="#69b5ac"/><g fill-opacity=".5" transform="translate(.6 .6)scale(1.17188)"><circle r="1" fill="#400007" transform="matrix(-30.76034 126.32446 -247.76047 -60.33033 138.4 87.5)"/><circle r="1" fill="#bbdce6" transform="matrix(-204.6066 28.78066 -3.91976 -27.86622 233.3 69.7)"/><circle r="1" fill="#00000e" transform="matrix(21.4069 65.07813 -106.58972 35.0618 104.4 2.8)"/><ellipse cx="87" cy="220" fill="#d3989a" rx="255" ry="38"/><circle r="1" fill="#160200" transform="rotate(88.8 30.6 182.2)scale(38.34147 109.25311)"/><circle r="1" fill="#000219" transform="matrix(1.15084 22.71794 -221.21666 11.20635 96.5 12.7)"/><circle r="1" fill="#1c2e31" transform="matrix(56.32278 -6.23634 1.42388 12.8596 223.8 207)"/><ellipse cx="94" cy="94" fill="#bdc3c8" rx="247" ry="10"/></g></g></svg>