<svg xmlns="http://www.w3.org/2000/svg" width="300" height="300"><g filter="blur(12px)"><rect width="200%" height="200%" x="-50%" y="-50%" fill="#62a89f"/><rect width="100%" height="100%" fill="#62a89f"/><g fill-opacity=".5" transform="translate(.6 .6)scale(1.17188)"><circle r="1" fill="#150000" transform="matrix(201.39791 156.40934 -76.90426 99.02451 60.3 145.5)"/><circle r="1" fill="#040000" transform="matrix(-243.34189 -59.4979 20.14178 -82.37835 132.3 238.5)"/><circle r="1" fill="#a29078" transform="matrix(-17.51296 58.6577 -122.28967 -36.51105 176.6 87.6)"/><circle r="1" fill="#644137" transform="matrix(.67111 128.1717 -28.69356 .15024 254.9 65.2)"/><path fill="#21767d" d="M271-3.6 42.2 79.7l38-95.7h112.6z"/><ellipse cx="178" cy="84" fill="#c3b382" rx="131" ry="19"/><circle r="1" fill="#130708" transform="rotate(-16.1 52.9 -209.6)scale(79.68439 17.86121)"/><circle r="1" fill="#050000" transform="matrix(-13.8187 56.2139 -247.62776 -60.87275 116.3 254.1)"/></g></g></svg>