<svg xmlns="http://www.w3.org/2000/svg" width="300" height="300"><g filter="blur(12px)"><rect width="200%" height="200%" x="-50%" y="-50%" fill="#8e7f6b"/><rect width="100%" height="100%" fill="#8e7f6b"/><g fill-opacity=".5" transform="translate(.6 .6)scale(1.17188)"><circle r="1" fill="#130b0d" transform="matrix(16.40425 -254.4718 83.58565 5.38826 61.5 144.2)"/><circle r="1" fill="#261006" transform="matrix(1.40677 -64.39254 178.66526 3.90327 143.2 17.5)"/><circle r="1" fill="#a89d89" transform="matrix(-26.17462 48.91162 -69.35201 -37.11312 111.6 145)"/><ellipse cx="82" cy="252" rx="128" ry="34"/><circle r="1" fill="#2d2423" transform="matrix(-26.29395 .53169 -3.93234 -194.46864 255 118.8)"/><circle r="1" fill="#a4794f" transform="rotate(171.5 74.4 28.9)scale(73.7956 13.21201)"/><circle r="1" fill="#090917" transform="rotate(109.5 -48.9 136.8)scale(23.57655 204.71664)"/><circle r="1" fill="#8e9692" transform="matrix(115.78424 -17.51072 3.20104 21.16591 134.9 113.1)"/></g></g></svg>