<svg xmlns="http://www.w3.org/2000/svg" width="300" height="300"><g filter="blur(12px)"><rect width="200%" height="200%" x="-50%" y="-50%" fill="#b0684f"/><rect width="100%" height="100%" fill="#b0684f"/><g fill-opacity=".5" transform="translate(.6 .6)scale(1.17188)"><circle cx="144" cy="181" r="233" fill="#570000"/><circle r="1" fill="#0a0000" transform="rotate(-.7 18889.8 -8864.3)scale(243.13536 45.64682)"/><circle r="1" fill="#c2573e" transform="matrix(-2.09067 -63.21604 254.86066 -8.4287 128.6 103.4)"/><circle r="1" fill="#7e120e" transform="rotate(120 14.3 133.2)scale(79.07618 40.50794)"/><circle r="1" fill="#170000" transform="matrix(-61.13517 -44.59604 27.47905 -37.67008 6.8 235.1)"/><circle r="1" fill="#cd7a59" transform="matrix(1.3573 19.28777 -43.67868 3.07371 134 98.5)"/><circle r="1" fill="#851106" transform="matrix(17.47563 28.1043 -43.75284 27.2061 97.2 18.9)"/><circle r="1" fill="#1d0000" transform="matrix(-69.845 41.82953 -24.1795 -40.3738 211.4 255)"/></g></g></svg>