<svg xmlns="http://www.w3.org/2000/svg" width="300" height="300"><g filter="blur(12px)"><rect width="200%" height="200%" x="-50%" y="-50%" fill="#9c945b"/><rect width="100%" height="100%" fill="#9c945b"/><g fill-opacity=".5" transform="translate(.6 .6)scale(1.17188)"><circle r="1" transform="matrix(3.87196 114.83683 -254.85518 8.59298 128.1 200.2)"/><circle r="1" fill="#f8ffff" transform="matrix(212.04472 -30.70038 6.4756 44.72632 170 37.2)"/><path d="m253.9 94.8 3.2 184-255 4.4-3.2-184z"/><circle r="1" fill="#e3e4ff" transform="rotate(-163.9 88.9 9.1)scale(118.15651 36.38952)"/><path fill="#00000f" d="M131 271 101 83l92-7z"/><ellipse cx="217" cy="222" fill="#b9b5bd" rx="40" ry="6"/><circle r="1" fill="#484e7d" transform="matrix(-2.18089 33.72486 -43.91396 -2.83979 22.4 0)"/><circle r="1" fill="#000007" transform="matrix(53.94907 101.89206 -71.96785 38.10501 37.5 201.6)"/></g></g></svg>