<svg xmlns="http://www.w3.org/2000/svg" width="300" height="600"><g filter="blur(12px)"><rect width="200%" height="200%" x="-50%" y="-50%" fill="#54589c"/><rect width="100%" height="100%" fill="#54589c"/><g fill-opacity=".5" transform="translate(1.2 1.2)scale(2.34375)"><ellipse cx="75" cy="130" fill="#d55e30" rx="127" ry="117"/><ellipse cx="89" cy="239" fill="#fff" rx="45" ry="9"/><path fill="#000046" d="m97.6 90-90 50-11.2-20 90-50z"/><circle r="1" fill="#000053" transform="matrix(42.20593 -13.17553 4.93442 15.8067 99.5 178.5)"/><ellipse cx="40" cy="8" fill="#000010" rx="119" ry="13"/><circle r="1" fill="#000018" transform="matrix(107.17064 60.72048 -17.51319 30.91049 0 255)"/><circle r="1" fill="#ff340c" transform="matrix(-42.75982 19.21702 -8.03895 -17.88748 83.4 125.7)"/><path fill="#fcfff4" d="M38.8 247.2 30 234.8l46.9 12.8-90.9-71.4z"/></g></g></svg>