<svg xmlns="http://www.w3.org/2000/svg" width="300" height="600"><g filter="blur(12px)"><rect width="200%" height="200%" x="-50%" y="-50%" fill="#9b8d64"/><rect width="100%" height="100%" fill="#9b8d64"/><g fill-opacity=".5" transform="translate(1.2 1.2)scale(2.34375)"><circle r="1" fill="#1d0500" transform="matrix(3.59918 36.05917 -126.37207 12.6136 61.2 96.5)"/><circle r="1" fill="#531d0f" transform="matrix(126.98655 -1.84818 .27856 19.13948 63.9 160.4)"/><ellipse cx="91" cy="224" fill="#2c0b08" rx="72" ry="7"/><circle r="1" fill="#f3b566" transform="matrix(125.58288 -2.84987 .36043 15.8828 61 194)"/><ellipse cx="74" cy="79" fill="#ff3a00" rx="108" ry="4"/><circle r="1" fill="#002b23" transform="matrix(-104.49097 4.00767 -.30851 -8.0437 67 111.6)"/><path fill="#da9c4a" d="m100 26.8 43 31.7-159 12.1L-.8 55z"/><circle r="1" fill="#db3d00" transform="matrix(.05857 -5.55354 88.62818 .93476 62.7 171.7)"/></g></g></svg>