<svg xmlns="http://www.w3.org/2000/svg" width="300" height="600"><g filter="blur(12px)"><rect width="200%" height="200%" x="-50%" y="-50%" fill="#5baa54"/><rect width="100%" height="100%" fill="#5baa54"/><g fill-opacity=".5" transform="translate(1.2 1.2)scale(2.34375)"><circle r="1" fill="#020009" transform="rotate(-179.3 35.4 93.2)scale(127 20.41376)"/><path fill="#b3d9ad" d="m42.2 193.2 95.6 25.7-16 59.9L26.2 253z"/><path fill="#fff" d="m156.1-6.6-.3 16-164-2.8.4-16z"/><ellipse cx="62" cy="162" fill="#fff" rx="110" ry="5"/><path d="m85 188-101 29 17-32z"/><path fill="#fff" d="M0 181h128v4H0z"/><ellipse cx="97" cy="86" fill="#9cc895" rx="125" ry="22"/><path fill="#fffcff" d="m-16 217.3 91.8-22.2-52.4 24.8-11-2.6z"/></g></g></svg>