<svg xmlns="http://www.w3.org/2000/svg" width="300" height="600"><g filter="blur(12px)"><rect width="200%" height="200%" x="-50%" y="-50%" fill="#687c52"/><rect width="100%" height="100%" fill="#687c52"/><g fill-opacity=".5" transform="translate(1.2 1.2)scale(2.34375)"><circle r="1" fill="#fff" transform="matrix(-1.45888 15.43336 -113.23499 -10.70386 63.1 71.6)"/><circle r="1" fill="#0e4e00" transform="matrix(-126.59058 -10.18947 2.47766 -30.78158 62.3 25.7)"/><circle r="1" fill="#296c00" transform="matrix(61.16796 49.29132 -29.98633 37.21147 67.7 144.3)"/><path fill="#fff" d="M43 205h85v9H43z"/><circle r="1" fill="#fff" transform="matrix(-53.65284 -45.76879 3.97385 -4.65838 .3 166.5)"/><circle r="1" fill="#fff" transform="rotate(7 -1004.6 874.6)scale(48.37207 3.30333)"/><ellipse cx="48" cy="249" fill="#206d00" rx="127" ry="18"/><circle r="1" transform="matrix(88.9823 11.59862 -.86218 6.61445 88.7 100.8)"/></g></g></svg>