<svg xmlns="http://www.w3.org/2000/svg" width="300" height="600"><g filter="blur(12px)"><rect width="200%" height="200%" x="-50%" y="-50%" fill="#74ac94"/><rect width="100%" height="100%" fill="#74ac94"/><g fill-opacity=".5" transform="translate(1.2 1.2)scale(2.34375)"><circle r="1" fill="#ffffe6" transform="matrix(18.80172 67.21937 -122.30573 34.20975 16.8 187.8)"/><circle r="1" fill="#006812" transform="rotate(-168.4 30.2 34.9)scale(127 14.50527)"/><circle cx="40" cy="178" r="62" fill="#fffbc5"/><path fill="#ffffd0" d="m-16-2 159 28-23-42z"/><circle r="1" fill="#fffcc7" transform="rotate(-101.4 133 35.8)scale(57.1096 25.73916)"/><circle r="1" fill="#489170" transform="matrix(-19.30472 12.50354 -5.20551 -8.037 95 220)"/><circle r="1" fill="#107324" transform="matrix(-45.0027 -14.79613 1.65168 -5.0236 88.8 23.4)"/><path fill="#016b1e" d="m-31 34.7 14.5-16.6L47 73.3 32.5 89.9z"/></g></g></svg>