<svg xmlns="http://www.w3.org/2000/svg" width="300" height="600"><g filter="blur(12px)"><rect width="200%" height="200%" x="-50%" y="-50%" fill="#7e8a53"/><rect width="100%" height="100%" fill="#7e8a53"/><g fill-opacity=".5" transform="translate(1.2 1.2)scale(2.34375)"><circle r="1" fill="#cee2f0" transform="matrix(-65.82908 66.58338 -57.71138 -57.05758 63.4 48.2)"/><circle r="1" fill="#002e10" transform="matrix(11.35093 21.47387 -51.19298 27.06022 25.4 178.3)"/><circle r="1" fill="#002a00" transform="matrix(44.10686 -16.92255 4.3336 11.29508 76.5 91.3)"/><circle r="1" fill="#002c0f" transform="matrix(-5.11724 -14.63672 69.42075 -24.27063 68.8 222.6)"/><circle r="1" fill="#daf5f6" transform="matrix(-9.50401 -23.36457 38.76808 -15.7697 107.7 251.3)"/><circle r="1" fill="#b1d7d3" transform="rotate(20.7 -424 360.4)scale(28.01311 21.80497)"/><path fill="#002000" d="M0 96h88v9H0z"/><ellipse cx="26" cy="24" fill="#e6d7db" rx="117" ry="20"/></g></g></svg>