<svg xmlns="http://www.w3.org/2000/svg" width="300" height="600"><g filter="blur(12px)"><rect width="200%" height="200%" x="-50%" y="-50%" fill="#a1575a"/><rect width="100%" height="100%" fill="#a1575a"/><g fill-opacity=".5" transform="translate(1.2 1.2)scale(2.34375)"><circle r="1" fill="#61b4dc" transform="matrix(-90.3462 -66.85267 52.21593 -70.56578 80.8 49.7)"/><ellipse cx="113" cy="78" fill="#ffc1a3" rx="56" ry="26"/><circle r="1" fill="#f67e7e" transform="matrix(-91.7249 -87.83817 31.50642 -32.90054 54 181)"/><circle r="1" fill="#004a8f" transform="matrix(-15.02739 -23.07808 72.73646 -47.36265 20.6 22.4)"/><path fill="#ffffe0" d="m6.4 94 97.7-83.6L77.8 16 49 33.8z"/><circle r="1" fill="#003981" transform="matrix(-9.30358 15.4302 -26.51291 -15.98585 74.7 120)"/><circle r="1" fill="#ea716e" transform="rotate(-158.9 65.3 39.7)scale(65.83157 18.69251)"/><circle r="1" fill="#fff" transform="matrix(-27.35236 -13.9969 4.88456 -9.54526 113.1 67.5)"/></g></g></svg>