<svg xmlns="http://www.w3.org/2000/svg" width="300" height="600"><g filter="blur(12px)"><rect width="200%" height="200%" x="-50%" y="-50%" fill="#907f67"/><rect width="100%" height="100%" fill="#907f67"/><g fill-opacity=".5" transform="translate(1.2 1.2)scale(2.34375)"><circle r="1" fill="#000e3a" transform="matrix(94.01997 11.7802 -2.25666 18.0108 41.3 155.7)"/><path fill="#000019" d="m107.3 38.3 1.5 12-126.1 15.4-1.5-12z"/><circle r="1" fill="#7d2a03" transform="rotate(-94.4 137.9 105.3)scale(15.7397 126.99998)"/><circle r="1" fill="#531a1c" transform="matrix(-76.43722 4.94297 -.76516 -11.83223 101.4 85.3)"/><circle r="1" fill="#b24d00" transform="matrix(55.0529 18.52734 -3.9938 11.86735 65.4 133.3)"/><circle cx="22" cy="146" r="25" fill="#013357"/><path fill="#eba6a6" d="m2 175.8 126.8 4.4-.7 22-127-4.4z"/><ellipse cx="11" cy="7" fill="#b9b5a2" rx="127" ry="18"/></g></g></svg>