<svg xmlns="http://www.w3.org/2000/svg" width="300" height="600"><g filter="blur(12px)"><rect width="200%" height="200%" x="-50%" y="-50%" fill="#987157"/><rect width="100%" height="100%" fill="#987157"/><g fill-opacity=".5" transform="translate(1.2 1.2)scale(2.34375)"><circle r="1" fill="#4f6732" transform="matrix(126.98278 -2.0914 1.83286 111.28497 59 132.8)"/><path fill="#ffcf68" d="m131 181 12-43-150 56z"/><circle r="1" fill="#ffb899" transform="matrix(101.08463 -5.28346 .777 14.86585 85.7 8)"/><circle r="1" fill="#ffffd2" transform="matrix(-88.20384 4.55365 -.26615 -5.15527 58.6 246.5)"/><circle r="1" fill="#ffa027" transform="matrix(-71.0277 8.90282 -.76713 -6.12028 40.5 53)"/><circle r="1" fill="#002837" transform="matrix(-1.50294 -9.38315 125.40154 -20.08607 64.6 202.7)"/><ellipse cx="27" cy="34" fill="#0b3246" rx="108" ry="12"/><ellipse cx="97" cy="106" fill="#ffcc7f" rx="53" ry="7"/></g></g></svg>