<svg xmlns="http://www.w3.org/2000/svg" width="300" height="600"><g filter="blur(12px)"><rect width="200%" height="200%" x="-50%" y="-50%" fill="#7a7670"/><rect width="100%" height="100%" fill="#7a7670"/><g fill-opacity=".5" transform="translate(1.2 1.2)scale(2.34375)"><circle r="1" fill="#ff8a00" transform="matrix(-33.9947 -70.32143 103.70765 -50.13424 39.7 141.3)"/><circle r="1" fill="#110300" transform="matrix(58.32772 -55.8464 38.28835 39.98954 63.4 255)"/><path fill="#231e15" d="m144.7-6.5 3.3 63-152.7 8-3.3-63z"/><ellipse cx="95" cy="161" fill="#fc9500" rx="106" ry="30"/><ellipse cx="67" cy="87" fill="#ff9e00" rx="67" ry="31"/><path fill="#00081d" d="M105.1 217.4-16 255.5 31.8 226l44.1-62.2z"/><circle r="1" fill="#0c1f20" transform="matrix(2.1678 8.56706 -63.02417 15.94757 31 131.7)"/><path fill="#ff9d00" d="m-10 239.7-3.8-93.8 96.2-16.1-45.5 92.5z"/></g></g></svg>