<svg xmlns="http://www.w3.org/2000/svg" width="300" height="600"><g filter="blur(12px)"><rect width="200%" height="200%" x="-50%" y="-50%" fill="#56aeb5"/><rect width="100%" height="100%" fill="#56aeb5"/><g fill-opacity=".5" transform="translate(1.2 1.2)scale(2.34375)"><circle cx="38" cy="160" r="172" fill="#2e5f89"/><circle r="1" fill="#702956" transform="matrix(-5.75657 -17.61225 44.425 -14.52033 17.8 182.5)"/><circle r="1" fill="#702956" transform="rotate(-77.6 172 38)scale(9.31119 55.60583)"/><circle r="1" fill="#42b0b3" transform="matrix(-5.83618 27.68271 -77.13791 -16.26251 92 44.7)"/><circle r="1" fill="#744764" transform="matrix(-27.34508 -17.66853 5.79674 -8.97145 114.1 116)"/><path fill="#0073b7" d="m82.2 158.3-103-3.6.6-17 103 3.6z"/><circle r="1" fill="#43afb3" transform="matrix(-8.44976 13.95996 -35.98427 -21.78076 47 95.7)"/><circle r="1" fill="#0c76b3" transform="matrix(3.35558 13.66146 -48.26347 11.85465 .8 120.8)"/></g></g></svg>