<svg xmlns="http://www.w3.org/2000/svg" width="300" height="600"><g filter="blur(12px)"><rect width="200%" height="200%" x="-50%" y="-50%" fill="#ab6560"/><rect width="100%" height="100%" fill="#ab6560"/><g fill-opacity=".5" transform="translate(1.2 1.2)scale(2.34375)"><circle r="1" fill="#ffbdbc" transform="matrix(-126.7906 7.28997 -3.32736 -57.871 87.7 228.7)"/><circle r="1" fill="#f9999a" transform="matrix(126.39367 12.3952 -6.76591 68.99188 61.6 47.9)"/><circle r="1" fill="#dd696c" transform="matrix(-2.45224 -45.06678 126.8124 -6.9003 49.7 178.7)"/><circle r="1" fill="#e8d8ce" transform="rotate(179.1 30.8 122.1)scale(111.12613 15.09398)"/><circle r="1" fill="#e8dbd0" transform="matrix(-.4779 6.43016 -105.30553 -7.82663 69.8 4)"/><path fill="#bc2e37" d="M0 87h128v13H0z"/><ellipse cx="51" cy="125" fill="#bc413f" rx="127" ry="11"/><path fill="#e4cbc2" d="m139 227-52 6 27-23z"/></g></g></svg>