<svg xmlns="http://www.w3.org/2000/svg" width="300" height="600"><g filter="blur(12px)"><rect width="200%" height="200%" x="-50%" y="-50%" fill="#967352"/><rect width="100%" height="100%" fill="#967352"/><circle r="1" fill="#5798d1" fill-opacity=".5" transform="matrix(297.57733 -6.85391 1.1164 48.47077 151.7 461.5)"/><circle r="1" fill="#1c4a25" fill-opacity=".5" transform="matrix(266.98828 -.40908 .05868 38.30067 72.2 388.7)"/><circle r="1" fill="#d49272" fill-opacity=".5" transform="rotate(-83.6 144.2 -40)scale(120.00834 178.01631)"/><circle r="1" fill="#1c3d27" fill-opacity=".5" transform="matrix(-117.87876 -40.35892 8.90446 -26.00781 142.7 263.8)"/><circle r="1" fill="#dcd4cf" fill-opacity=".5" transform="matrix(-9.02787 29.74771 -38.67918 -11.7384 171.5 316.8)"/><circle r="1" fill="#8c98b2" fill-opacity=".5" transform="rotate(80.8 16.5 142.3)scale(35.27566 186.5593)"/><circle r="1" fill="#da6d2d" fill-opacity=".5" transform="matrix(-4.6592 -59.20077 257.19352 -20.24157 112.5 568.2)"/><path fill="#d5d9d5" fill-opacity=".5" d="M124.5 295.3-23 272.6l41 88.3-19.6-27.6z"/></g></svg>