<svg xmlns="http://www.w3.org/2000/svg" width="300" height="600"><g filter="blur(12px)"><rect width="200%" height="200%" x="-50%" y="-50%" fill="#a48c84"/><rect width="100%" height="100%" fill="#a48c84"/><g fill-opacity=".5" transform="translate(1.2 1.2)scale(2.34375)"><circle r="1" fill="#020000" transform="matrix(123.25999 -30.59371 14.63528 58.96453 36.9 177.3)"/><circle r="1" fill="#040000" transform="matrix(-107.70735 -12.56661 3.19964 -27.42383 108.4 56)"/><circle cx="44" cy="178" r="65" fill="#500000"/><circle r="1" fill="#fff" transform="matrix(1.78336 -17.20264 100.3861 10.40678 38.2 92.8)"/><circle r="1" fill="#360000" transform="matrix(2.15612 32.88015 -38.99724 2.55724 83.7 51.4)"/><circle r="1" fill="#fff" transform="matrix(-22.93036 -16.5379 15.15784 -21.01687 30.7 83.1)"/><ellipse cx="92" cy="144" fill="#4e0000" rx="127" ry="34"/><path fill="#ff2707" d="M40 257.5 153.2 200l26.8 52.6L66.8 310z"/></g></g></svg>