<svg xmlns="http://www.w3.org/2000/svg" width="300" height="600"><g filter="blur(12px)"><rect width="200%" height="200%" x="-50%" y="-50%" fill="#4b9974"/><rect width="100%" height="100%" fill="#4b9974"/><g fill-opacity=".5" transform="translate(1.2 1.2)scale(2.34375)"><circle r="1" fill="#ffd086" transform="matrix(88.95993 21.35739 -8.78238 36.58126 62.4 11.4)"/><ellipse cx="58" cy="225" fill="#ffc899" rx="127" ry="36"/><circle r="1" fill="#001800" transform="matrix(124.06539 -3.92145 .9565 30.26146 72.3 161)"/><circle r="1" fill="#ffaa56" transform="matrix(-1.1224 -14.26746 99.50705 -7.82808 48.5 117.6)"/><circle r="1" fill="#0a542d" transform="matrix(3.50768 -18.84948 117.9833 21.95542 50 66.9)"/><circle r="1" fill="#ffb47d" transform="matrix(80.597 19.3192 -8.41386 35.10144 66.3 14.3)"/><path fill="#003d1d" d="M0 207h96v10H0z"/><circle r="1" fill="#ffbe7c" transform="matrix(58.384 3.76985 -.98383 15.23668 98.3 229.8)"/></g></g></svg>