<svg xmlns="http://www.w3.org/2000/svg" width="300" height="600"><g filter="blur(12px)"><rect width="200%" height="200%" x="-50%" y="-50%" fill="#54ac71"/><rect width="100%" height="100%" fill="#54ac71"/><g fill-opacity=".5" transform="translate(1.2 1.2)scale(2.34375)"><circle cx="28" cy="109" r="184" fill="#ef3238"/><circle r="1" fill="#cb0000" transform="matrix(119.26497 43.64478 -10.37143 28.34127 36.6 65.3)"/><circle r="1" fill="#a5c5ca" transform="rotate(94.1 -58.2 156.9)scale(22.75739 119.88853)"/><path fill="#85c0dc" d="M30.6 16.6 36-3.7l101.4 27.1-5.4 20.3z"/><circle r="1" fill="#c31700" transform="rotate(150.2 3.6 28.3)scale(28.66928 53.638)"/><circle r="1" fill="#4d6a42" transform="matrix(-92.43848 -8.08732 1.52868 -17.47289 40.8 127.2)"/><path fill="#cad3e5" d="m113.9 152.6 15.2 13.5L21.5 172l-37.5-2.6z"/><path fill="#ac3c00" d="m68.9 218.6 4 9-75.8 33.8-4-9z"/></g></g></svg>