<svg xmlns="http://www.w3.org/2000/svg" width="300" height="600"><g filter="blur(12px)"><rect width="200%" height="200%" x="-50%" y="-50%" fill="#65b8a2"/><rect width="100%" height="100%" fill="#65b8a2"/><g fill-opacity=".5" transform="translate(1.2 1.2)scale(2.34375)"><circle r="1" fill="#06845c" transform="matrix(122.29574 34.24546 -29.68975 106.02658 50.5 70.5)"/><circle r="1" fill="#fffefc" transform="matrix(-.78404 7.71871 -91.96135 -9.3411 88.5 130)"/><path fill="#fff8f5" d="m-16 187.1 123 4.6 2.4-8.7-125.4-6.3z"/><circle r="1" fill="#fffbf9" transform="matrix(-73.93713 -.6229 .0337 -3.9996 69.9 241)"/><circle r="1" fill="#fff" transform="rotate(91.9 -47.4 114.8)scale(2.18828 120.81852)"/><circle r="1" fill="#006538" transform="matrix(-1.15539 11.1857 -93.4488 -9.65245 55.6 150.2)"/><path fill="#05734a" d="m65 43-79 27 157 5z"/><ellipse cx="101" cy="228" fill="#009a75" rx="127" ry="8"/></g></g></svg>