<svg xmlns="http://www.w3.org/2000/svg" width="300" height="600"><g filter="blur(12px)"><rect width="200%" height="200%" x="-50%" y="-50%" fill="#af604f"/><rect width="100%" height="100%" fill="#af604f"/><g fill-opacity=".5" transform="translate(1.2 1.2)scale(2.34375)"><circle cx="72" cy="107" r="158" fill="#ed574b"/><ellipse cx="118" cy="228" fill="#feffff" rx="127" ry="6"/><circle r="1" fill="#8ee1fe" transform="matrix(106.71537 7.18343 -.53196 7.90264 68.3 154.7)"/><circle r="1" fill="#60adda" transform="matrix(114.10675 2.2667 -.18412 9.2688 39.7 72.5)"/><circle r="1" fill="#d00000" transform="matrix(102.67825 -10.06769 1.2728 12.98095 60.4 120.5)"/><circle r="1" fill="#e03800" transform="matrix(1.4264 19.62697 -94.17358 6.84414 97.7 191.1)"/><path fill="#d10000" d="m-26-3 126.5-11L102 3-24.5 14z"/><path fill="#f5f9ec" d="m27.2 182 10.8-1.2 9.4-6.5L-16 182z"/></g></g></svg>