<svg xmlns="http://www.w3.org/2000/svg" width="300" height="600"><g filter="blur(12px)"><rect width="200%" height="200%" x="-50%" y="-50%" fill="#848484"/><rect width="100%" height="100%" fill="#848484"/><g fill-opacity=".5" transform="translate(1.2 1.2)scale(2.34375)"><circle r="1" fill="#fff" transform="matrix(-2.08615 -60.87916 126.9255 -4.34937 52.1 205)"/><ellipse cx="60" cy="83" fill="#2e2e2e" rx="103" ry="62"/><circle r="1" fill="#fff" transform="rotate(163.8 37 103)scale(110.11414 49.81639)"/><circle r="1" fill="#fff" transform="matrix(1.4311 7.58387 -57.89947 10.9258 39.6 111.4)"/><path fill="#fff" d="m95.2 66.8-27.4 54.3 66.5-66-23.9 4.5z"/><ellipse cx="31" fill="#eaeaea" rx="63" ry="27"/><circle r="1" fill="#1a1a1a" transform="matrix(-3.06727 -11.75272 98.25456 -25.64282 69.5 33.7)"/><circle r="1" fill="#fff" transform="matrix(-86.81588 -23.91308 4.9717 -18.04967 25.7 163.5)"/></g></g></svg>