<svg xmlns="http://www.w3.org/2000/svg" width="300" height="600"><g filter="blur(12px)"><rect width="200%" height="200%" x="-50%" y="-50%" fill="#587196"/><rect width="100%" height="100%" fill="#587196"/><g fill-opacity=".5" transform="translate(1.2 1.2)scale(2.34375)"><circle r="1" fill="#0b1200" transform="matrix(2.35244 -40.32608 126.78446 7.39602 74.5 73.7)"/><ellipse cx="61" cy="246" fill="#c6ac5e" rx="98" ry="138"/><circle r="1" fill="#ff8f0f" transform="matrix(.80102 -14.59082 126.80905 6.96168 63 24)"/><circle r="1" fill="#ff6607" transform="matrix(1.62054 26.75764 -42.78535 2.59124 91.8 255)"/><circle r="1" fill="#067c6e" transform="matrix(-1.16177 -13.56963 94.41202 -8.08316 68.8 156.6)"/><circle r="1" fill="#e2c7da" transform="matrix(-109.63833 42.44664 -6.39877 -16.52781 37.6 219)"/><path fill="#ff5814" d="m50.5 95.5-43 51.8 45.1-25 16.1-5.6z"/><circle r="1" fill="#ff7d33" transform="matrix(21.83338 -11.22083 6.4888 12.62585 17.7 19.6)"/></g></g></svg>