<svg xmlns="http://www.w3.org/2000/svg" width="300" height="600"><g filter="blur(12px)"><rect width="200%" height="200%" x="-50%" y="-50%" fill="#c08c72"/><rect width="100%" height="100%" fill="#c08c72"/><g fill-opacity=".5" transform="translate(1.2 1.2)scale(2.34375)"><circle r="1" fill="#dd2b21" transform="matrix(-126.9975 .79701 -.32745 -52.17706 60.7 106.8)"/><circle r="1" fill="#efc5be" transform="matrix(88.6869 -1.23838 .37923 27.15847 68 31)"/><ellipse cx="53" cy="90" fill="#d3e4e3" rx="57" ry="6"/><ellipse cx="26" cy="25" fill="#d33904" rx="126" ry="7"/><circle r="1" fill="#f1cbcb" transform="rotate(-95.7 111.9 92.5)scale(11.31834 126.71446)"/><path fill="#d40000" d="m143 254.4-61.7-8.6-72.9 4.9-24.4 15.2z"/><circle r="1" fill="#da0f02" transform="rotate(-114 75.4 84.5)scale(9.29203 30.04645)"/><circle r="1" fill="#dc271f" transform="matrix(50.90038 15.17406 -2.96981 9.96204 127.3 193.8)"/></g></g></svg>