<svg xmlns="http://www.w3.org/2000/svg" width="300" height="600"><g filter="blur(12px)"><rect width="200%" height="200%" x="-50%" y="-50%" fill="#a26361"/><rect width="100%" height="100%" fill="#a26361"/><g fill-opacity=".5" transform="translate(1.2 1.2)scale(2.34375)"><circle cx="11" cy="140" r="173" fill="#ffeacd"/><circle r="1" fill="#ecbe33" transform="matrix(-3.16124 13.10899 -46.44295 -11.19974 65.8 130.6)"/><path fill="#ca3f4d" d="m1.7 222.2-10-19.6 60.6-30.8 10 19.6z"/><ellipse cx="47" cy="84" fill="#e7e4e3" rx="122" ry="10"/><circle r="1" fill="#d35d6a" transform="matrix(-80.33447 4.7165 -.72798 -12.39944 65.6 22)"/><circle r="1" fill="#eedfdc" transform="matrix(-120.5846 .05471 -.00445 -9.80614 54.6 227)"/><circle r="1" fill="#dcd8da" transform="matrix(-90.93029 -5.56153 .554 -9.05775 44.3 155)"/><path fill="#cc4555" d="M175.4 224.1 49 210.8l1.5-14.9L177 209.2z"/></g></g></svg>