<svg xmlns="http://www.w3.org/2000/svg" width="300" height="600"><g filter="blur(12px)"><rect width="200%" height="200%" x="-50%" y="-50%" fill="#6e8d96"/><rect width="100%" height="100%" fill="#6e8d96"/><g fill-opacity=".5" transform="translate(1.2 1.2)scale(2.34375)"><circle r="1" fill="#e99a45" transform="matrix(-117.66914 47.78048 -47.33306 -116.56726 72.7 149.8)"/><circle r="1" fill="#559fdf" transform="matrix(97.66064 -14.24715 2.56569 17.58714 34.6 66.8)"/><circle r="1" fill="#525e13" transform="matrix(126.69063 -8.85907 .91833 13.13274 65.9 22.5)"/><ellipse cx="66" cy="164" fill="#c39300" rx="105" ry="15"/><circle r="1" fill="#73542c" transform="matrix(124.76146 -9.54864 1.77706 23.2189 43.8 242.2)"/><circle r="1" fill="#ecb18d" transform="matrix(126.9441 -3.76761 .89036 29.9994 83.6 109.5)"/><circle r="1" fill="#b2c7b9" transform="matrix(-104.5765 1.2777 -.17974 -14.71121 46.6 197.7)"/><ellipse cx="19" cy="43" fill="#ff6101" rx="48" ry="6"/></g></g></svg>