<svg xmlns="http://www.w3.org/2000/svg" width="300" height="600"><g filter="blur(12px)"><rect width="200%" height="200%" x="-50%" y="-50%" fill="#8b9c54"/><rect width="100%" height="100%" fill="#8b9c54"/><g fill-opacity=".5" transform="translate(1.2 1.2)scale(2.34375)"><circle cx="62" cy="194" r="193" fill="#636fb8"/><path fill="#cfd76c" d="m85 238 58-48-159 32z"/><path fill="#000050" d="M-1.1 136.3-4 151.7l29.7-26.2L77.2 149z"/><circle r="1" fill="#3c5087" transform="rotate(100.4 9.5 34.4)scale(19.64043 81.05958)"/><path fill="#dcdabb" d="m142 145-82-3-32-35z"/><path fill="#000050" d="m20.9 122.3 29 1.5-.8 14-29-1.6z"/><circle r="1" fill="#021b71" transform="rotate(-10.6 1101.7 -9.7)scale(52.4556 4.45705)"/><path fill="#00035d" d="m57.6 144.7 57.4 7.6 25.8-41.1 2.2 36.5z"/></g></g></svg>