<svg xmlns="http://www.w3.org/2000/svg" width="300" height="600"><g filter="blur(12px)"><rect width="200%" height="200%" x="-50%" y="-50%" fill="#8a838c"/><rect width="100%" height="100%" fill="#8a838c"/><circle r="1" fill-opacity=".5" transform="matrix(-297.649 -2.07802 .34118 -48.86978 124.8 168.8)"/><path fill-opacity=".5" d="m-31.6 570.7 196.8-44.5 133.6 58.6z"/><circle r="1" fill="#181e0f" fill-opacity=".5" transform="matrix(-272.65465 12.58877 -1.26132 -27.31843 119.2 20.9)"/><circle r="1" fill-opacity=".5" transform="matrix(-68.92149 17.04849 -3.0836 -12.46598 144.8 491.1)"/><path fill="#ffffdb" fill-opacity=".5" d="M257.8 444.1 137.3 433l-173.6 47 199-99.1z"/><circle r="1" fill="#d8d5b2" fill-opacity=".5" transform="rotate(177.8 83.3 45.9)scale(191.26905 43.92808)"/><path fill="#000200" fill-opacity=".5" d="M1.2 137.1h300v75H1.2z"/><circle r="1" fill-opacity=".5" transform="matrix(133.83417 -38.65241 2.3696 8.20474 51.7 412.5)"/></g></svg>