<svg xmlns="http://www.w3.org/2000/svg" width="300" height="600"><g filter="blur(12px)"><rect width="200%" height="200%" x="-50%" y="-50%" fill="#84827c"/><rect width="100%" height="100%" fill="#84827c"/><g fill-opacity=".5" transform="translate(1.2 1.2)scale(2.34375)"><ellipse cx="54" cy="195" rx="127" ry="12"/><path fill="#fff" d="m3.5 64 4.7-20.4L148.5 76l-4.7 20.4z"/><circle r="1" transform="matrix(116.29787 19.71495 -1.3529 7.98073 99.1 54.5)"/><circle r="1" transform="matrix(-89.29827 -23.76043 1.95267 -7.33867 60 88)"/><circle r="1" fill="#fffff1" transform="rotate(95.4 33.2 56.1)scale(9.66162 127.00001)"/><circle r="1" transform="matrix(.35485 6.28533 -87.90838 4.96308 51 244.1)"/><path fill="#fff" d="M42.3 141.8h79.5L8.9 117.3l-23.5 13.4z"/><ellipse cx="33" cy="145" rx="98" ry="5"/></g></g></svg>