<svg xmlns="http://www.w3.org/2000/svg" width="300" height="600"><g filter="blur(12px)"><rect width="200%" height="200%" x="-50%" y="-50%" fill="#a26561"/><rect width="100%" height="100%" fill="#a26561"/><g fill-opacity=".5" transform="translate(1.2 1.2)scale(2.34375)"><circle cx="40" cy="150" r="174" fill="#a8c8b9"/><circle r="1" fill="#0c4e5d" transform="rotate(3.9 -967.8 1330)scale(77.38376 17.37333)"/><path fill="#fff" d="M23.4 167 143 178.8-16 141l12.8 20.8z"/><path fill="#fffff3" d="M59 65h69v9H59z"/><ellipse cx="97" cy="158" fill="#00293c" rx="45" ry="5"/><path fill="#fffff4" d="M60.6 71.8 9.9 55.1l16.4-1.9 28.3 10.1z"/><circle r="1" fill="#2d8742" transform="matrix(.45442 -5.90565 92.47229 7.11535 72.2 124)"/><path fill="#002231" d="M143 54.7 26.8 50.2 58.4 63l66.9-.1z"/></g></g></svg>