<svg xmlns="http://www.w3.org/2000/svg" width="300" height="600"><g filter="blur(12px)"><rect width="200%" height="200%" x="-50%" y="-50%" fill="#aca264"/><rect width="100%" height="100%" fill="#aca264"/><g fill-opacity=".5" transform="translate(1.2 1.2)scale(2.34375)"><circle r="1" fill="#00417f" transform="matrix(-2.39238 25.12875 -78.19962 -7.445 94.4 47.6)"/><ellipse cx="51" cy="169" fill="#2e5b6d" rx="95" ry="26"/><circle r="1" fill="#003c86" transform="matrix(.36998 16.30373 -74.64536 1.69394 39.4 1)"/><circle r="1" fill="#faa21c" transform="matrix(-16.13652 -12.2595 19.19531 -25.26575 23.6 82.5)"/><ellipse cx="120" cy="246" fill="#095685" rx="35" ry="10"/><circle r="1" fill="#105070" transform="rotate(26.8 -322.6 256.8)scale(93.79679 9.06086)"/><circle r="1" fill="#d9b15d" transform="matrix(38.72396 -19.39151 20.79866 41.53397 107.1 129.4)"/><path fill="#fcd076" d="M48.6 22.9 143 9.4l-51 16 51 26.5z"/></g></g></svg>