<svg xmlns="http://www.w3.org/2000/svg" width="300" height="600"><g filter="blur(12px)"><rect width="200%" height="200%" x="-50%" y="-50%" fill="#b4989c"/><rect width="100%" height="100%" fill="#b4989c"/><g fill-opacity=".5" transform="translate(1.2 1.2)scale(2.34375)"><circle r="1" fill="#fb8468" transform="matrix(79.83375 94.33013 -96.94198 82.04421 55.1 138.4)"/><circle r="1" fill="#b60000" transform="matrix(70.2104 -4.80203 .7805 11.41166 93.7 77.6)"/><circle r="1" fill="#ffffe0" transform="matrix(1.43663 19.56311 -77.69516 5.70558 61.3 2)"/><path fill="#a80000" d="m94 233-30-37 77 44z"/><path fill="#a00" d="m-7.6 142 81.1-21.7 2.1 7.7-81.1 21.7z"/><circle r="1" fill="#e6dfc5" transform="rotate(-.9 7525.2 -3323.2)scale(109.67016 10.61355)"/><path fill="#f1fee6" d="m126.1 247-5.7 14.8L30 227.1l5.7-15z"/><ellipse cx="81" cy="154" fill="#e1a5d5" rx="89" ry="16"/></g></g></svg>