<svg xmlns="http://www.w3.org/2000/svg" width="300" height="600"><g filter="blur(12px)"><rect width="200%" height="200%" x="-50%" y="-50%" fill="#5b8d7e"/><rect width="100%" height="100%" fill="#5b8d7e"/><g fill-opacity=".5" transform="translate(1.2 1.2)scale(2.34375)"><circle cx="63" cy="118" r="124" fill="#dedabf"/><circle r="1" fill="#588162" transform="matrix(103.21555 -6.67465 1.86342 28.81553 74.2 103.6)"/><ellipse cx="41" cy="219" fill="#efede5" rx="127" ry="18"/><ellipse cx="72" cy="114" fill="#ffd74b" rx="93" ry="5"/><circle r="1" fill="#ffbd3b" transform="matrix(-.3416 6.98464 -72.7918 -3.56011 69.3 155.6)"/><path fill="#055658" d="m17.6 131.5 125.4-5.4-95.5-7.7-57.3 7.2z"/><path fill="#dde3dc" d="m-6 161 114.2 14-2.2 18-114.2-14z"/><path fill="#045255" d="m142.4 80.1.6-7.4-44.6 1.8-60.7 21.4z"/></g></g></svg>