<svg xmlns="http://www.w3.org/2000/svg" width="300" height="600"><g filter="blur(12px)"><rect width="200%" height="200%" x="-50%" y="-50%" fill="#9c7a5a"/><rect width="100%" height="100%" fill="#9c7a5a"/><circle r="1" fill="#e60000" fill-opacity=".5" transform="matrix(-58.41246 153.77188 -278.2567 -105.6998 115.7 173.2)"/><path fill="#ffdd52" fill-opacity=".5" d="m-109.5 607.2 26-296.5 411 36-26 296.5z"/><circle r="1" fill="#feffff" fill-opacity=".5" transform="rotate(94.1 -42.4 208.7)scale(10.46118 236.34475)"/><circle r="1" fill="#ffffc4" fill-opacity=".5" transform="matrix(-18.23985 48.27035 -106.607 -40.28343 242.7 1.3)"/><circle r="1" fill="#ae0000" fill-opacity=".5" transform="matrix(9.99425 -56.1074 265.34335 47.26485 75.6 176.2)"/><circle r="1" fill="#d9b0a7" fill-opacity=".5" transform="matrix(-15.28328 25.84262 -176.78583 -104.55085 10.6 36.8)"/><circle r="1" fill="#fbe7cd" fill-opacity=".5" transform="rotate(-81.5 386.3 240.7)scale(27.53024 274.81758)"/><circle r="1" fill="#ed8710" fill-opacity=".5" transform="matrix(168.63365 200.28543 -44.71509 37.64861 1.2 387.8)"/></g></svg>