<svg xmlns="http://www.w3.org/2000/svg" width="300" height="600"><g filter="blur(12px)"><rect width="200%" height="200%" x="-50%" y="-50%" fill="#655ca3"/><rect width="100%" height="100%" fill="#655ca3"/><g fill-opacity=".5" transform="translate(1.2 1.2)scale(2.34375)"><circle r="1" fill="#c0a4f1" transform="rotate(-178.4 49.4 28.8)scale(127)"/><circle r="1" fill="#d8a9f3" transform="matrix(123.84397 28.13666 -5.41622 23.8396 75.3 254.3)"/><circle r="1" fill="#69455c" transform="matrix(-54.27853 -22.34612 10.10675 -24.5492 57 204.8)"/><path fill="#05a" d="m39 155 78 38-30-50z"/><circle r="1" fill="#ffc2ff" transform="matrix(-115.62228 7.47696 -.5256 -8.12778 49.9 89.2)"/><ellipse cx="47" cy="67" fill="#6d4569" rx="127" ry="12"/><circle r="1" fill="#654061" transform="rotate(167.4 15 57.3)scale(62.22768 7.42659)"/><circle r="1" fill="#ddadff" transform="matrix(58.18585 39.26885 -6.3565 9.41863 112.4 153.8)"/></g></g></svg>