<svg xmlns="http://www.w3.org/2000/svg" width="300" height="600"><g filter="blur(12px)"><rect width="200%" height="200%" x="-50%" y="-50%" fill="#6fa65a"/><rect width="100%" height="100%" fill="#6fa65a"/><g fill-opacity=".5" transform="translate(1.2 1.2)scale(2.34375)"><ellipse cx="70" cy="87" fill="#c0b1ff" rx="127" ry="234"/><circle r="1" fill="#fceaff" transform="rotate(87.5 -26.4 95)scale(19.69153 116.74082)"/><circle r="1" fill="#d7d2f8" transform="matrix(3.56922 27.38384 -93.12742 12.13827 75.7 52.3)"/><circle r="1" fill="#5c9763" transform="matrix(-126.81654 -6.82387 1.58129 -29.38708 91.2 181.8)"/><path fill="#396a95" d="m1.6 28.4-1.9-26 126.7-8.8 1.9 26z"/><circle r="1" fill="#5576b4" transform="matrix(-37.73285 14.6356 -7.99092 -20.60183 5.3 210.2)"/><circle r="1" fill="#8898d2" transform="matrix(-2.99317 36.4066 -96.78887 -7.9575 84.5 240.2)"/><ellipse cx="78" cy="173" fill="#a7cf71" rx="127" ry="12"/></g></g></svg>