<svg xmlns="http://www.w3.org/2000/svg" width="300" height="600"><g filter="blur(12px)"><rect width="200%" height="200%" x="-50%" y="-50%" fill="#73aea8"/><rect width="100%" height="100%" fill="#73aea8"/><g fill-opacity=".5" transform="translate(1.2 1.2)scale(2.34375)"><circle r="1" fill="#005474" transform="matrix(-82.87264 2.09446 -.5688 -22.50585 66 38.8)"/><path fill="#f0ebe2" d="m59 139-75 42 159-11z"/><ellipse cx="52" cy="107" fill="#2e7f84" rx="127" ry="35"/><path fill="#ffda79" d="m143 255-99 16-60-44z"/><circle r="1" fill="#247179" transform="matrix(3.54339 -14.5224 71.3401 17.40659 54 224.7)"/><circle r="1" fill="#efb93e" transform="rotate(7.5 -1509.7 620.9)scale(38.75033 8.05459)"/><circle r="1" fill="#fff0e5" transform="matrix(-5.71725 -22.189 58.72053 -15.13 14.6 0)"/><path fill="#ffda60" d="m55.9 109.9 17.9-31.3 16.5 49.8-7.2-13.1z"/></g></g></svg>