<svg xmlns="http://www.w3.org/2000/svg" width="300" height="600"><g filter="blur(12px)"><rect width="200%" height="200%" x="-50%" y="-50%" fill="#549863"/><rect width="100%" height="100%" fill="#549863"/><g fill-opacity=".5" transform="translate(1.2 1.2)scale(2.34375)"><circle r="1" fill="#fff" transform="rotate(96.4 -48.3 121.7)scale(13.36336 96.75285)"/><circle r="1" fill="#c3f5d4" transform="matrix(4.91884 14.7866 -46.9364 15.61366 45.6 18.8)"/><circle r="1" fill="#00932b" transform="matrix(-5.14514 30.1003 -125.18435 -21.39815 44.7 134)"/><circle r="1" fill="#008a1d" transform="matrix(-122.09103 34.96827 -5.197 -18.14523 84 46.4)"/><path fill="#fff" d="M13.6 225.1-16 213.8l31.8-1L86 229.2z"/><ellipse cx="95" cy="213" fill="#006d00" rx="73" ry="8"/><path fill="#fff" d="M74 224h54v7H74z"/><circle r="1" fill="#009f35" transform="matrix(-1.09258 16.1242 -83.99006 -5.69117 80 245.4)"/></g></g></svg>