<svg xmlns="http://www.w3.org/2000/svg" width="300" height="600"><g filter="blur(12px)"><rect width="200%" height="200%" x="-50%" y="-50%" fill="#7294aa"/><rect width="100%" height="100%" fill="#7294aa"/><g fill-opacity=".5" transform="translate(1.2 1.2)scale(2.34375)"><circle r="1" fill="#000043" transform="matrix(1.37122 20.64478 -53.08575 3.52595 35.7 215.1)"/><circle r="1" fill="#000254" transform="rotate(176.8 30 32.3)scale(127 14.13918)"/><circle r="1" fill="#ffe5c4" transform="matrix(-5.1409 -21.24994 27.40262 -6.6294 114 217.7)"/><ellipse cx="94" cy="107" fill="#c1cfcf" rx="125" ry="23"/><circle r="1" fill="#053d7c" transform="matrix(-.2792 -10.02997 126.95082 -3.53385 58.7 12.6)"/><path fill="#001c67" d="m68.3 232.4 32-40.2-16.2-7.4L-16 214.3z"/><circle r="1" fill="#00276d" transform="matrix(78.7513 -9.8149 1.64704 13.21527 91.8 255)"/><ellipse cx="12" cy="241" fill="#ffe9c8" rx="73" ry="7"/></g></g></svg>