<svg xmlns="http://www.w3.org/2000/svg" width="300" height="600"><g filter="blur(12px)"><rect width="200%" height="200%" x="-50%" y="-50%" fill="#94a35b"/><rect width="100%" height="100%" fill="#94a35b"/><circle r="1" fill="#384ab9" fill-opacity=".5" transform="matrix(221.758 112.01802 -42.94258 85.01186 120.1 77.8)"/><circle r="1" fill="#00003e" fill-opacity=".5" transform="rotate(35.7 -64.6 90.3)scale(20.63172 92.11917)"/><circle r="1" fill="#c0c799" fill-opacity=".5" transform="matrix(-183.93618 -11.25002 3.51988 -57.5495 139 366.8)"/><circle r="1" fill="#001359" fill-opacity=".5" transform="matrix(115.38346 101.35948 -11.05964 12.58984 235.7 65.8)"/><circle r="1" fill="#bfcd46" fill-opacity=".5" transform="rotate(108.8 5 130.5)scale(16.80097 65.88568)"/><circle r="1" fill="#3e52b9" fill-opacity=".5" transform="matrix(-18.21809 40.27284 -47.16265 -21.3348 1.2 148.3)"/><circle r="1" fill="#9ba68c" fill-opacity=".5" transform="matrix(217.85986 -96.22053 32.18573 72.87404 194.4 559)"/><path fill="#001878" fill-opacity=".5" d="m241.6 516-21-16.3 85 133.3 21.6-1.8z"/></g></svg>