<svg xmlns="http://www.w3.org/2000/svg" width="300" height="600"><g filter="blur(12px)"><rect width="200%" height="200%" x="-50%" y="-50%" fill="#a39354"/><rect width="100%" height="100%" fill="#a39354"/><g fill-opacity=".5" transform="translate(1.2 1.2)scale(2.34375)"><circle r="1" fill="#000272" transform="matrix(1.3493 -85.98989 126.98437 1.99256 70.3 194)"/><ellipse cx="64" cy="37" fill="#ede9e7" rx="127" ry="41"/><circle r="1" fill="#ff5931" transform="rotate(-2.5 3181.2 -1248.6)scale(99.9444 8.57865)"/><circle r="1" fill="#063979" transform="matrix(1.0445 -39.9419 121.68862 3.18224 67 199.5)"/><path fill="#ffab87" d="m132.2 208 10.8 5.8-88.7 4.4-70.3-11.7z"/><ellipse cx="70" cy="99" fill="#ffdf4c" rx="90" ry="8"/><path fill="#00013f" d="m120 240.2-126.8-4.4.7-22 127 4.4z"/><circle r="1" fill="#025fbc" transform="rotate(-3.8 2780.7 -857)scale(84.04622 10.09262)"/></g></g></svg>