<svg xmlns="http://www.w3.org/2000/svg" width="300" height="600"><g filter="blur(12px)"><rect width="200%" height="200%" x="-50%" y="-50%" fill="#5ca496"/><rect width="100%" height="100%" fill="#5ca496"/><g fill-opacity=".5" transform="translate(1.2 1.2)scale(2.34375)"><circle r="1" fill="#ffffd4" transform="matrix(-.1089 -20.79716 126.99824 -.66497 45.2 167)"/><circle r="1" fill="#7f5e64" transform="matrix(12.52023 -95.27469 125.91741 16.54704 62 53.8)"/><circle r="1" fill="#95786a" transform="matrix(-123.56725 -7.16477 2.3941 -41.28975 73 228.9)"/><circle r="1" fill="#fff6bc" transform="rotate(172.8 26 85.5)scale(127 17.28636)"/><ellipse cx="64" cy="112" fill="#6fc799" rx="99" ry="14"/><path fill="#f8ffca" d="m6.6 229.9 90.1-12.7.7 5-90.1 12.6z"/><path fill="#5c5571" d="m94.4 191.1 3 21.8-113.8 16-3-21.8z"/><circle r="1" fill="#6b6875" transform="matrix(-.21677 41.39977 -112.37628 -.5884 63.2 47.7)"/></g></g></svg>