<svg xmlns="http://www.w3.org/2000/svg" width="300" height="600"><g filter="blur(12px)"><rect width="200%" height="200%" x="-50%" y="-50%" fill="#87847d"/><rect width="100%" height="100%" fill="#87847d"/><g fill-opacity=".5" transform="translate(1.2 1.2)scale(2.34375)"><circle r="1" fill="#1d180f" transform="matrix(-80.30519 -7.30834 1.64413 -18.06595 31.6 106.2)"/><circle r="1" fill="#1f1b15" transform="matrix(-126.9996 -.32083 .04348 -17.212 51.1 181.2)"/><circle r="1" fill="#2f2b24" transform="matrix(70.56448 -11.17632 3.0166 19.04605 34.9 245.6)"/><ellipse cx="72" cy="140" fill="#fff" rx="127" ry="4"/><ellipse cx="90" cy="203" fill="#ffff72" rx="111" ry="4"/><path fill="#eae5da" d="M64.1 5.5 9.5 66.6l35.6-34 82.1 14.7z"/><circle r="1" transform="rotate(110.7 40.3 31.4)scale(10.51248 21.15159)"/><circle r="1" fill="#272010" transform="matrix(-35.54403 -.16413 .02691 -5.82765 57 58)"/></g></g></svg>