<svg xmlns="http://www.w3.org/2000/svg" width="300" height="600"><g filter="blur(12px)"><rect width="200%" height="200%" x="-50%" y="-50%" fill="#6b7a99"/><rect width="100%" height="100%" fill="#6b7a99"/><g fill-opacity=".5" transform="translate(1.2 1.2)scale(2.34375)"><circle cx="44" cy="87" r="143" fill="#2e2835"/><circle r="1" fill="#ffe67f" transform="matrix(-10.43199 -14.29373 44.82342 -32.71346 61.3 148.4)"/><circle r="1" fill="#021655" transform="matrix(-26.65956 -28.03444 47.92163 -45.57143 34.4 108.6)"/><path fill="#ffe97e" d="m67.2 114.8 75.8 39.8-29.1 6.5-58.2-33.8z"/><circle r="1" fill="#793b0b" transform="matrix(92.28497 -5.2109 .59146 10.47476 79.5 249.8)"/><ellipse cx="46" cy="28" fill="#ffb626" rx="103" ry="5"/><path fill="#fff686" d="m143 191-44-9-50 22z"/><circle r="1" fill="#001e6c" transform="matrix(-10.67027 -24.52251 16.01738 -6.9695 112.4 116.3)"/></g></g></svg>