<svg xmlns="http://www.w3.org/2000/svg" width="300" height="600"><g filter="blur(12px)"><rect width="200%" height="200%" x="-50%" y="-50%" fill="#bb6cac"/><rect width="100%" height="100%" fill="#bb6cac"/><g fill-opacity=".5" transform="translate(1.2 1.2)scale(2.34375)"><circle cx="106" cy="96" r="149" fill="#c62a68"/><path d="M130.4 76.1 3.4 74l.2-10 127 2.2z"/><ellipse cx="81" cy="192" fill="#980044" rx="96" ry="25"/><circle r="1" fill="#e586c5" transform="matrix(-1.5019 27.73188 -126.81417 -6.86801 93.1 38.8)"/><path fill="#f69ad5" d="m127.6 138.9-105.9 45L10.4 157l105.9-45z"/><path fill="#3c1e25" d="m40.8 145.4-56.8 3.1 114.9-36L60 140.2z"/><circle r="1" fill="#deffff" transform="matrix(.16851 2.6784 -34.39429 2.1639 86.9 219.5)"/><circle r="1" transform="matrix(-.72714 -4.03925 30.05088 -5.40968 105 211.3)"/></g></g></svg>