<svg xmlns="http://www.w3.org/2000/svg" width="300" height="600"><g filter="blur(12px)"><rect width="200%" height="200%" x="-50%" y="-50%" fill="#5ba47a"/><rect width="100%" height="100%" fill="#5ba47a"/><g fill-opacity=".5" transform="translate(1.2 1.2)scale(2.34375)"><circle r="1" fill="#fc2800" transform="rotate(170.1 29 58.3)scale(127 123.11289)"/><circle r="1" fill="#13192c" transform="matrix(11.31675 -33.69313 110.80706 37.21757 49.9 226.8)"/><circle r="1" fill="#dac079" transform="matrix(9.69153 -32.92899 115.71743 34.0575 70.6 41.3)"/><circle r="1" fill="#d60000" transform="matrix(-20.09682 18.41423 -25.49725 -27.82704 17.8 161.1)"/><circle r="1" fill="#ec7305" transform="rotate(116.4 -3.3 95)scale(34.56662 89.42175)"/><path fill="#0a4970" d="m36 101 72-26-85-13z"/><path fill="#002014" d="M127.8 120.6 82.5 91.2l7.7-11.8 45.3 29.4z"/><ellipse cx="49" cy="209" fill="#002b4e" rx="31" ry="17"/></g></g></svg>