<svg xmlns="http://www.w3.org/2000/svg" width="300" height="600"><g filter="blur(12px)"><rect width="200%" height="200%" x="-50%" y="-50%" fill="#98805d"/><rect width="100%" height="100%" fill="#98805d"/><g fill-opacity=".5" transform="translate(1.2 1.2)scale(2.34375)"><circle r="1" fill="#155f88" transform="matrix(-110.79576 4.25634 -.69473 -18.08446 70.7 142)"/><path fill="#ffd59f" d="M9 212h119v19H9z"/><circle r="1" fill="#6f433e" transform="rotate(178.4 51.4 92.8)scale(127 27.86892)"/><circle r="1" fill="#eaac8f" transform="matrix(101.46086 -9.94832 1.4409 14.69542 47.4 51.6)"/><circle r="1" fill="#2e3c50" transform="matrix(-94.77777 13.6712 -1.27968 -8.8716 76.2 72.1)"/><circle r="1" fill="#5b5243" transform="matrix(116.03719 -4.25489 .59931 16.34416 48 18.8)"/><path fill="#de8e05" d="m137.7 122.1 5.3-16.9-32.5-3.3-123.2 23.5z"/><ellipse cx="72" cy="192" fill="#e89d61" rx="96" ry="3"/></g></g></svg>