<svg xmlns="http://www.w3.org/2000/svg" width="300" height="600"><g filter="blur(12px)"><rect width="200%" height="200%" x="-50%" y="-50%" fill="#597293"/><rect width="100%" height="100%" fill="#597293"/><g fill-opacity=".5" transform="translate(1.2 1.2)scale(2.34375)"><circle r="1" fill="#f7c472" transform="matrix(27.7685 -68.421 117.67776 47.75924 84.2 66.3)"/><circle r="1" fill="#264700" transform="rotate(98.6 -74 124.4)scale(76.49633 127)"/><circle r="1" fill="#908e6d" transform="matrix(-8.72239 -14.43268 57.26091 -34.60561 50.7 209.7)"/><circle r="1" fill="#ff6d2e" transform="matrix(-2.52067 12.85468 -65.7348 -12.8899 90.4 110.8)"/><circle r="1" fill="#022f11" transform="matrix(30.29503 -15.70345 12.17404 23.4861 25 162.5)"/><ellipse cx="78" cy="29" fill="#72a7b7" rx="78" ry="23"/><circle r="1" fill="#03380d" transform="matrix(-3.2891 -10.62496 58.47265 -18.10097 65.6 242)"/><circle r="1" fill="#f0a264" transform="matrix(-9.00165 -4.53511 20.68432 -41.05588 0 120.6)"/></g></g></svg>