<svg xmlns="http://www.w3.org/2000/svg" width="300" height="600"><g filter="blur(12px)"><rect width="200%" height="200%" x="-50%" y="-50%" fill="#9f657d"/><rect width="100%" height="100%" fill="#9f657d"/><g fill-opacity=".5" transform="translate(1.2 1.2)scale(2.34375)"><circle r="1" fill="#008600" transform="matrix(121.28073 -.45137 .0594 15.96102 92.4 185.3)"/><ellipse cx="114" cy="47" fill="#008100" rx="48" ry="19"/><circle r="1" fill="#00860b" transform="matrix(-.2698 7.28264 -126.91294 -4.70159 94.5 118.5)"/><path fill="#198627" d="M-8 58 93 39 5 28z"/><circle r="1" fill="#007713" transform="matrix(-8.49268 -16.8969 14.27981 -7.17728 86.9 169.5)"/><ellipse cx="99" cy="102" fill="#ffba9d" rx="127" ry="9"/><circle r="1" fill="#ffa5ac" transform="matrix(-65.80799 -9.05318 .85507 -6.21558 60.6 238.4)"/><path fill="#2a8331" d="m49.2 112.2 37.6-10.3-90.6 62 42.2-7.7z"/></g></g></svg>