<svg xmlns="http://www.w3.org/2000/svg" width="300" height="600"><g filter="blur(12px)"><rect width="200%" height="200%" x="-50%" y="-50%" fill="#5e8247"/><rect width="100%" height="100%" fill="#5e8247"/><g fill-opacity=".5" transform="translate(1.2 1.2)scale(2.34375)"><circle cx="66" cy="177" r="207" fill="#ff7ca5"/><circle r="1" fill="#e50000" transform="rotate(89.1 -26.3 78.1)scale(42.65579 81.19364)"/><circle r="1" fill="#fff" transform="matrix(-126.78941 7.31063 -2.67014 -46.30867 65 244.7)"/><ellipse cx="56" cy="6" fill="#f9b8a8" rx="126" ry="46"/><path fill="#e70000" d="m-16.3 163.4 127 2.2-.4 17-127-2.2z"/><circle r="1" fill="#ffbeb7" transform="matrix(-47.6154 16.7089 -3.85368 -10.98185 84 149.4)"/><path fill="#c80000" d="m112.6 7.2 25.3 12.7.5 10.4-58.1-15.1z"/><circle r="1" fill="#e00d12" transform="matrix(6.37203 9.7305 -29.89235 19.57507 127 154.7)"/></g></g></svg>