<svg xmlns="http://www.w3.org/2000/svg" width="300" height="600"><g filter="blur(12px)"><rect width="200%" height="200%" x="-50%" y="-50%" fill="#6c83b8"/><rect width="100%" height="100%" fill="#6c83b8"/><g fill-opacity=".5" transform="translate(1.2 1.2)scale(2.34375)"><circle cx="98" cy="145" r="132" fill="#ffffd4"/><circle r="1" fill="#003fa7" transform="matrix(-7.9377 -9.40719 32.84807 -27.71688 62.6 62.8)"/><circle r="1" fill="#fffccb" transform="matrix(-126.93018 -4.2107 2.55023 -76.8756 82.5 174.6)"/><circle r="1" fill="#003fa5" transform="rotate(125 37.8 67.7)scale(7.67048 59.19167)"/><circle r="1" fill="#0053a2" transform="matrix(29.5332 -.42418 .32965 22.95145 24.2 15.5)"/><circle r="1" fill="#002e9b" transform="rotate(6 -2394.8 626)scale(57.75455 3.40638)"/><circle r="1" fill="#034aa2" transform="rotate(-103.6 46.7 20)scale(5.09164 35.39393)"/><path fill="#fffdcf" d="m15.6 51.4 57.8-10.3-77.5-6.6L-16 48.6z"/></g></g></svg>