<svg xmlns="http://www.w3.org/2000/svg" width="300" height="600"><g filter="blur(12px)"><rect width="200%" height="200%" x="-50%" y="-50%" fill="#a6524e"/><rect width="100%" height="100%" fill="#a6524e"/><g fill-opacity=".5" transform="translate(1.2 1.2)scale(2.34375)"><circle r="1" fill="#fc958b" transform="matrix(-122.53217 -33.38963 21.36832 -78.41677 62.8 66)"/><ellipse cx="84" cy="91" fill="#bd0000" rx="127" ry="11"/><circle r="1" fill="#d9ddb4" transform="matrix(-81.80113 -3.48545 .45336 -10.64005 67 207.6)"/><circle r="1" fill="#e31014" transform="matrix(-1.87556 23.88775 -126.61034 -9.94089 53 173.6)"/><ellipse cx="60" cy="237" fill="#ef3133" rx="127" ry="22"/><circle r="1" fill="#c8f7d5" transform="matrix(35.94824 -1.69824 .44603 9.44152 101 115)"/><circle r="1" fill="#baedc4" transform="rotate(-179.3 43.6 36.9)scale(83.85358 5.61814)"/><path fill="#fdffff" d="m167.3 235.9 1.4 5.8-130 32.4-1.4-5.8z"/></g></g></svg>