<svg xmlns="http://www.w3.org/2000/svg" width="300" height="600"><g filter="blur(12px)"><rect width="200%" height="200%" x="-50%" y="-50%" fill="#967c4e"/><rect width="100%" height="100%" fill="#967c4e"/><g fill-opacity=".5" transform="translate(1.2 1.2)scale(2.34375)"><circle cx="66" cy="20" r="153" fill="#051b3f"/><circle r="1" fill="#00052a" transform="matrix(-.53357 -49.55301 100.16256 -1.0785 80.9 235.8)"/><path fill="#fff" d="m-1 78.5 1.2-21 190.7 10-1 21zM-14.5 233l52.9 13.7-1.8-.3 65.6-22z"/><ellipse cx="67" cy="15" rx="127" ry="19"/><ellipse cx="23" cy="184" fill="#b2bcc4" rx="105" ry="19"/><path fill="#fffff9" d="m98 232.9-36.6.9 30.8-21.1 19.1-27.5z"/><circle r="1" transform="matrix(24.82412 19.39473 -74.63917 95.53378 127 238)"/></g></g></svg>