<svg xmlns="http://www.w3.org/2000/svg" width="300" height="600"><g filter="blur(12px)"><rect width="200%" height="200%" x="-50%" y="-50%" fill="#74aa8b"/><rect width="100%" height="100%" fill="#74aa8b"/><g fill-opacity=".5" transform="translate(1.2 1.2)scale(2.34375)"><ellipse cx="55" cy="171" fill="#f2e7dc" rx="127" ry="71"/><circle r="1" fill="#002700" transform="matrix(-104.51395 27.82496 -5.44383 -20.44767 76.1 42.3)"/><ellipse cx="127" cy="204" fill="#004512" rx="105" ry="8"/><circle r="1" fill="#eae5d8" transform="matrix(-7.01877 -17.54817 48.83316 -19.53187 24.8 234.8)"/><circle r="1" fill="#004f27" transform="matrix(40.86747 8.42067 -4.53136 21.99175 48.8 52)"/><circle r="1" fill="#005124" transform="matrix(-3.35262 -13.4037 26.42693 -6.61007 69 251.7)"/><circle r="1" fill="#005f32" transform="matrix(-20.80818 -2.34027 1.165 -10.35852 109.5 208.4)"/><path fill="#daddce" d="m60 207 83-120-159 52z"/></g></g></svg>