<svg xmlns="http://www.w3.org/2000/svg" width="300" height="600"><g filter="blur(12px)"><rect width="200%" height="200%" x="-50%" y="-50%" fill="#579685"/><rect width="100%" height="100%" fill="#579685"/><g fill-opacity=".5" transform="translate(1.2 1.2)scale(2.34375)"><circle cx="58" cy="112" r="158" fill="#ef4a2c"/><circle r="1" fill="#c5cfa8" transform="matrix(-10.26854 -31.79202 110.566 -35.71185 104.6 124.5)"/><circle r="1" fill="#310b2b" transform="matrix(4.82145 33.45855 -123.3246 17.77135 64.9 255)"/><circle r="1" fill="#ca1a27" transform="matrix(111.15154 .931 -.39463 47.11533 29.5 21.8)"/><ellipse cx="118" cy="85" fill="#2d97a1" rx="118" ry="13"/><circle r="1" fill="#dd9729" transform="rotate(-8.2 1290.8 -510.4)scale(127 17.212)"/><circle r="1" fill="#6d9858" transform="matrix(-58.5162 21.36414 -6.23889 -17.08826 43.7 90.7)"/><path fill="#2a89fd" d="m147.4 79.5-2 19.9-46.8-5 2-19.8z"/></g></g></svg>