<svg xmlns="http://www.w3.org/2000/svg" width="300" height="600"><g filter="blur(12px)"><rect width="200%" height="200%" x="-50%" y="-50%" fill="#748c6a"/><rect width="100%" height="100%" fill="#748c6a"/><g fill-opacity=".5" transform="translate(1.2 1.2)scale(2.34375)"><circle cx="77" cy="124" r="157" fill="#eb9e74"/><path fill="#c1ebe2" d="m-22.6 63.2.2-15 149 2.6-.2 15z"/><circle r="1" fill="#639f86" transform="matrix(39.86064 -5.96502 3.32686 22.2314 25.1 151.5)"/><circle r="1" fill="#eb6026" transform="rotate(91.7 -20.8 100)scale(8.84704 63.44835)"/><circle r="1" fill="#377452" transform="matrix(3.03352 -10.57915 26.80158 7.68523 99.8 174.5)"/><circle r="1" fill="#dc7f4b" transform="matrix(94.55547 -.36373 .10822 28.13304 75.4 243.3)"/><path fill="#488362" d="m30.6 209.8 34.7-18.7 72.3 17.3 5.4 9.6z"/><circle r="1" fill="#f6652a" transform="matrix(-96.75418 -1.74989 .06978 -3.85805 68.7 42.8)"/></g></g></svg>