<svg xmlns="http://www.w3.org/2000/svg" width="300" height="600"><g filter="blur(12px)"><rect width="200%" height="200%" x="-50%" y="-50%" fill="#5f9984"/><rect width="100%" height="100%" fill="#5f9984"/><g fill-opacity=".5" transform="translate(1.2 1.2)scale(2.34375)"><circle r="1" fill="#d24d2d" transform="rotate(65.7 -93 146)scale(110.56173 127)"/><path fill="#ff0700" d="m-16 140 156-41-3 42z"/><circle r="1" fill="#e5fffa" transform="matrix(-95.62535 -2.45423 .20716 -8.0718 66.9 226.4)"/><circle r="1" fill="#01a8ff" transform="matrix(.85377 7.71473 -69.5853 7.70086 47 110.8)"/><circle r="1" fill="#4f584c" transform="matrix(100.53708 -4.7412 2.52648 53.57384 63.3 3.5)"/><circle r="1" fill="#d1d3c3" transform="rotate(96.4 -8 48.7)scale(5.81978 48.36852)"/><circle r="1" fill="#f50" transform="matrix(-1.07672 -5.8787 112.3535 -20.57819 77.2 89)"/><ellipse cx="88" cy="164" fill="#4e847c" rx="127" ry="21"/></g></g></svg>