<svg xmlns="http://www.w3.org/2000/svg" width="300" height="600"><g filter="blur(12px)"><rect width="200%" height="200%" x="-50%" y="-50%" fill="#a37d68"/><rect width="100%" height="100%" fill="#a37d68"/><g fill-opacity=".5" transform="translate(1.2 1.2)scale(2.34375)"><circle cx="42" cy="116" r="159" fill="#fe5f55"/><path fill="#b20000" d="m11.6 127.1 99 38L98.4 197l-99-38z"/><circle r="1" fill="#e4c5ba" transform="matrix(-14.69944 15.15012 -59.17822 -57.41779 102.4 75)"/><circle r="1" fill="#b00" transform="matrix(-6.18782 18.33508 -104.48963 -35.2637 109.6 22.2)"/><circle r="1" fill="#b30000" transform="matrix(-7.77535 11.5062 -49.99693 -33.78557 70.7 101.2)"/><circle r="1" fill="#eadfd3" transform="matrix(-11.31206 15.91762 -19.62081 -13.94378 37 112.9)"/><circle r="1" fill="#e4c6ba" transform="rotate(179.5 35.8 107.1)scale(97.26175 12.88718)"/><circle r="1" fill="#e6d1c6" transform="rotate(24.2 -289.6 278.1)scale(76.49192 11.47445)"/></g></g></svg>