<svg xmlns="http://www.w3.org/2000/svg" width="300" height="600"><g filter="blur(12px)"><rect width="200%" height="200%" x="-50%" y="-50%" fill="#7f7a72"/><rect width="100%" height="100%" fill="#7f7a72"/><g fill-opacity=".5" transform="translate(1.2 1.2)scale(2.34375)"><circle cx="23" cy="68" r="157" fill="#f58800"/><circle r="1" fill="#00043b" transform="matrix(118.93433 14.7804 -2.84207 22.86945 45 104.2)"/><circle r="1" fill="#16130c" transform="matrix(-8.59007 -32.4151 122.76256 -32.53235 80 242)"/><circle r="1" fill="#ffb100" transform="matrix(88.7058 7.1371 -4.11368 51.1282 73.2 32)"/><circle r="1" fill="#ffa300" transform="matrix(105.05247 -26.19252 9.71044 38.94647 42.1 180.7)"/><path fill="#00062d" d="m48 161-14-16 50-3z"/><circle r="1" fill="#192e2f" transform="matrix(-64.2056 -37.60615 9.16612 -15.64948 21.7 92.6)"/><path fill="#556369" d="M0 82h128v16H0z"/></g></g></svg>