<svg xmlns="http://www.w3.org/2000/svg" width="300" height="600"><g filter="blur(12px)"><rect width="200%" height="200%" x="-50%" y="-50%" fill="#7a9a4d"/><rect width="100%" height="100%" fill="#7a9a4d"/><g fill-opacity=".5" transform="translate(1.2 1.2)scale(2.34375)"><circle r="1" fill="#0e4700" transform="matrix(.99103 -28.40484 125.63944 4.38351 83.5 153)"/><circle r="1" fill="#1a4b00" transform="rotate(171.3 28.6 39.7)scale(75.62179 19.82954)"/><ellipse cx="79" cy="207" fill="#fffffe" rx="108" ry="4"/><path fill="#dedabc" d="m143 113-154-7 97-22z"/><circle r="1" fill="#225900" transform="matrix(91.38724 1.32674 -.1603 11.0416 88.8 0)"/><path fill="#114b00" d="m162.7 242.1-2.3 16.9-93.1-13.1 2.3-16.9z"/><path fill="#194f00" d="m-16 238.9 86.9-14.2-25.5 11.6-29.5 18.3z"/><path fill="#406d03" d="M0 36h65v64H0z"/></g></g></svg>