<svg xmlns="http://www.w3.org/2000/svg" width="300" height="600"><g filter="blur(12px)"><rect width="200%" height="200%" x="-50%" y="-50%" fill="#b88274"/><rect width="100%" height="100%" fill="#b88274"/><g fill-opacity=".5" transform="translate(1.2 1.2)scale(2.34375)"><circle cx="67" cy="106" r="171" fill="#ff9b80"/><circle r="1" fill="#f12c02" transform="matrix(.74718 -37.67278 126.97503 2.51836 89.2 118.7)"/><path fill="#eeeced" d="M126 196.4-.7 187.5 2 149.6l126.7 8.9z"/><circle r="1" fill="#e4c6c1" transform="rotate(-106.2 39.8 10.2)scale(22.74327 92.85465)"/><circle r="1" fill="#ee3108" transform="matrix(.80612 -9.40295 96.22048 8.249 11.7 205.2)"/><path fill="#d3dbdf" d="M0 216h128v13H0z"/><circle r="1" fill="#f02100" transform="matrix(-.02125 -3.62545 50.19294 -.29417 47.8 18.3)"/><circle r="1" fill="#d4ebf3" transform="rotate(-91.6 23.6 -23)scale(7.00018 114.23236)"/></g></g></svg>