<svg xmlns="http://www.w3.org/2000/svg" width="300" height="600"><g filter="blur(12px)"><rect width="200%" height="200%" x="-50%" y="-50%" fill="#6a9a99"/><rect width="100%" height="100%" fill="#6a9a99"/><circle r="1" fill="#fffdd7" fill-opacity=".5" transform="matrix(12.32292 81.48151 -254.14144 38.43528 109.5 3.3)"/><circle r="1" fill="#fbdbcd" fill-opacity=".5" transform="matrix(167.90647 -8.30695 2.66636 53.89444 29.8 542.8)"/><circle r="1" fill="#000819" fill-opacity=".5" transform="matrix(-.57217 -13.16049 282.43827 -12.27947 87.9 289.4)"/><circle r="1" fill="#2e545b" fill-opacity=".5" transform="matrix(-189.8943 47.51177 -10.19912 -40.76368 181 185.8)"/><path fill="#00202e" fill-opacity=".5" d="m64.3 112.1 264.9-71 7.3 27.2-265 71z"/><path fill="#d8bfb5" fill-opacity=".5" d="M188.7 479.3h112.5v117.2H188.7z"/><path fill="#efe6d7" fill-opacity=".5" d="M212.1 120.7 95 181.7l-131.2-35.2z"/><circle r="1" fill="#ded7ca" fill-opacity=".5" transform="matrix(-2.57655 -23.33807 193.31994 -21.34272 15.5 446.9)"/></g></svg>