<svg xmlns="http://www.w3.org/2000/svg" width="300" height="600"><g filter="blur(12px)"><rect width="200%" height="200%" x="-50%" y="-50%" fill="#a26377"/><rect width="100%" height="100%" fill="#a26377"/><g fill-opacity=".5" transform="translate(1.2 1.2)scale(2.34375)"><circle r="1" fill="#cf0000" transform="matrix(-126.9892 -1.65583 .62338 -47.80875 61.6 216.3)"/><circle r="1" fill="#ffcde4" transform="matrix(111.3135 4.08168 -1.96277 53.52769 61.8 119)"/><circle r="1" fill="#ef0000" transform="matrix(126.53733 -10.83075 2.91932 34.10684 84.8 26.9)"/><circle r="1" fill="#b60000" transform="matrix(6.15514 -48.01197 120.93712 15.50416 64.3 220)"/><circle r="1" fill="#c62700" transform="matrix(-124.53197 -6.09063 1.26618 -25.88902 62.2 34.5)"/><ellipse cx="97" cy="72" fill="#eb5390" rx="110" ry="14"/><circle r="1" fill="#b10000" transform="matrix(-.2833 -34.81727 126.9958 -1.03331 78.2 221.1)"/><circle r="1" fill="#eeb8bf" transform="rotate(5.9 -1148 789.7)scale(127 36.1569)"/></g></g></svg>