<svg xmlns="http://www.w3.org/2000/svg" width="300" height="600"><g filter="blur(12px)"><rect width="200%" height="200%" x="-50%" y="-50%" fill="#9d9557"/><rect width="100%" height="100%" fill="#9d9557"/><g fill-opacity=".5" transform="translate(1.2 1.2)scale(2.34375)"><circle r="1" fill="#131815" transform="rotate(87.2 -98.8 150)scale(12.40253 127.00004)"/><circle r="1" fill="#1c0016" transform="matrix(4.0134 9.47151 -53.2002 22.54275 35.8 184.6)"/><circle r="1" fill="#100528" transform="matrix(-101.21165 3.92416 -.33506 -8.64174 61 93.8)"/><ellipse cx="60" cy="14" fill="#9b5003" rx="127" ry="35"/><path fill="#620007" d="m104 125 38 33L8 134z"/><circle r="1" fill="#ddbab7" transform="matrix(112.83575 -5.3212 .82216 17.43392 73 65.4)"/><path fill="#c9a9c4" d="m102 145-74 85 115-42z"/><circle r="1" fill="#e9ac77" transform="matrix(59.17052 -5.49686 1.68487 18.13666 19.8 157)"/></g></g></svg>