<svg xmlns="http://www.w3.org/2000/svg" width="300" height="600"><g filter="blur(12px)"><rect width="200%" height="200%" x="-50%" y="-50%" fill="#888680"/><rect width="100%" height="100%" fill="#888680"/><g fill-opacity=".5" transform="translate(1.2 1.2)scale(2.34375)"><circle r="1" fill="#ffffeb" transform="matrix(.79098 -24.59788 117.02607 3.76315 81.9 43)"/><circle r="1" fill="#3f3c35" transform="matrix(3.05093 52.54266 -116.84335 6.7846 93.2 122.2)"/><ellipse cx="55" cy="10" rx="127" ry="6"/><path d="m-11 229 23-22 65 18z"/><path fill="#fef7e9" d="m7.1 132.4 109.7 17.4-2 11.8L5.3 144.2z"/><path fill="#fff" d="m-3 205 14-26 66 41z"/><path d="M116.5 174.1-9.8 160.8l1.3-12.9 126.3 13.3z"/><circle r="1" transform="matrix(57.30785 -3.40471 .33168 5.58274 49 249)"/></g></g></svg>