<svg xmlns="http://www.w3.org/2000/svg" width="300" height="600"><g filter="blur(12px)"><rect width="200%" height="200%" x="-50%" y="-50%" fill="#7c7c7c"/><rect width="100%" height="100%" fill="#7c7c7c"/><g fill-opacity=".5" transform="translate(1.2 1.2)scale(2.34375)"><circle r="1" fill="#fff" transform="matrix(43.16846 -7.87012 1.8232 10.00045 92.7 157)"/><circle cx="32" cy="83" r="77" fill="#454545"/><circle r="1" fill="#f8f8f8" transform="matrix(1.77712 -8.15062 80.76684 17.61002 71.4 201.2)"/><path fill="#080808" d="m2 261 134-19-152-19z"/><circle r="1" fill="#cbcbcb" transform="matrix(88.56824 -26.44616 3.2522 10.89162 57.8 96)"/><circle r="1" transform="matrix(123.4588 14.113 -.82804 7.24359 96.2 183.6)"/><path fill="#fff" d="m104 167-86 2 125-43z"/><circle r="1" transform="matrix(54.43502 -9.9323 1.8506 10.14245 35.2 77.5)"/></g></g></svg>