<svg xmlns="http://www.w3.org/2000/svg" width="300" height="600"><g filter="blur(12px)"><rect width="200%" height="200%" x="-50%" y="-50%" fill="#ad5390"/><rect width="100%" height="100%" fill="#ad5390"/><g fill-opacity=".5" transform="translate(1.2 1.2)scale(2.34375)"><circle cx="59" cy="116" r="154" fill="#788720"/><path fill="#a1a67b" d="M131.4 62.1 5.1 75.4-3.4-6l126.3-13.3z"/><circle r="1" fill="#001247" transform="matrix(-126.99154 1.46556 -.05177 -4.48588 33.7 230)"/><path fill="#543b14" d="M13 99h115v16H13z"/><circle r="1" fill="#c9292f" transform="matrix(.08021 -9.1917 120.16663 1.04868 40.4 215.7)"/><path fill="#102030" d="m-2.5 147.9 145.5-4.8-17.4 11.2-59.9-2.7z"/><circle r="1" fill="#ef2116" transform="matrix(42.8091 -3.65538 .59544 6.97332 41.8 170.6)"/><ellipse cx="35" cy="185" fill="#af997e" rx="124" ry="10"/></g></g></svg>