<svg xmlns="http://www.w3.org/2000/svg" width="300" height="600"><g filter="blur(12px)"><rect width="200%" height="200%" x="-50%" y="-50%" fill="#625d90"/><rect width="100%" height="100%" fill="#625d90"/><g fill-opacity=".5" transform="translate(1.2 1.2)scale(2.34375)"><circle r="1" fill="#fcf5da" transform="matrix(-3.29666 -25.68568 125.96673 -16.16738 92.7 46.2)"/><ellipse cx="48" cy="229" fill="#ddf1b6" rx="126" ry="35"/><circle r="1" fill="#d7d1c3" transform="rotate(84.6 -44.4 102.6)scale(24.9894 126.99998)"/><circle r="1" fill="#00002e" transform="matrix(77.27868 -6.89694 1.64272 18.40626 44.3 8.5)"/><circle r="1" fill="#000029" transform="rotate(-88.2 145.4 40.6)scale(13.02805 99.8392)"/><circle r="1" fill="#17541f" transform="rotate(-3.1 1799.8 -852)scale(80.85747 17.0412)"/><circle r="1" fill="#001f21" transform="matrix(1.19315 7.53324 -50.4185 7.9855 25.8 241.7)"/><circle r="1" fill="#f1dee3" transform="matrix(-.54407 -11.88005 110.90864 -5.0793 37.5 211.4)"/></g></g></svg>