<svg xmlns="http://www.w3.org/2000/svg" width="300" height="600"><g filter="blur(12px)"><rect width="200%" height="200%" x="-50%" y="-50%" fill="#b5a179"/><rect width="100%" height="100%" fill="#b5a179"/><g fill-opacity=".5" transform="translate(1.2 1.2)scale(2.34375)"><circle cx="24" cy="118" r="174" fill="#5a2e00"/><circle r="1" fill="#ffcf0b" transform="matrix(109.68746 15.90426 -4.59737 31.70685 87.4 79.2)"/><path fill="#ffce00" d="m-35 140 5.8-33.5L149.1 138l-6 33.5z"/><circle r="1" fill="#112b4c" transform="matrix(-124.5715 -24.7172 12.93086 -65.16987 83.4 240.9)"/><ellipse cx="80" cy="15" fill="#001131" rx="126" ry="30"/><path fill="#000004" d="m44.3 121.9 81.9 4.8-81.8-22.3L-16 84.7z"/><ellipse cx="93" cy="71" fill="#ff9c14" rx="115" ry="27"/><path fill="#ffefff" d="M129.3 104.9 20 83.1l49.2 21.5 1.5-.5z"/></g></g></svg>