<svg xmlns="http://www.w3.org/2000/svg" width="300" height="600"><g filter="blur(12px)"><rect width="200%" height="200%" x="-50%" y="-50%" fill="#5c60a4"/><rect width="100%" height="100%" fill="#5c60a4"/><g fill-opacity=".5" transform="translate(1.2 1.2)scale(2.34375)"><circle r="1" fill="#f26222" transform="rotate(-157.1 42 53.8)scale(127 110.30585)"/><circle r="1" fill="#080000" transform="rotate(178.6 26 126.3)scale(69.53813 28.81284)"/><circle r="1" fill="#1b144c" transform="matrix(-3.77451 -22.0818 125.18437 -21.39816 113.8 97)"/><circle r="1" fill="#00014a" transform="matrix(1.75926 8.06335 -68.53052 14.95196 39 164.7)"/><ellipse cx="28" cy="198" fill="#efa791" rx="127" ry="26"/><circle r="1" fill="#ff714e" transform="rotate(-64.9 64 -11.7)scale(37.15222 56.5232)"/><path fill="#ffcea9" d="m68.6 216.4 6.5-14.6 80.3 35.8-6.5 14.6z"/><path fill="#ff633b" d="m55.3 240.2 77.5 26.2-138.1-8.1L69.9 245z"/></g></g></svg>