<svg xmlns="http://www.w3.org/2000/svg" width="300" height="600"><g filter="blur(12px)"><rect width="200%" height="200%" x="-50%" y="-50%" fill="#a0675f"/><rect width="100%" height="100%" fill="#a0675f"/><g fill-opacity=".5" transform="translate(1.2 1.2)scale(2.34375)"><circle r="1" fill="#4f572f" transform="matrix(-59.47454 112.2131 -98.62046 -52.27024 70.7 125.3)"/><path fill="#003917" d="m7 133.4-8.8-18L45 92.6l8.8 18z"/><ellipse cx="83" cy="87" fill="#a59489" rx="52" ry="15"/><circle r="1" fill="#4d6ea2" transform="matrix(113.84838 5.13862 -.3584 7.94072 93.8 47.6)"/><path fill="#124624" d="m140 121.6-2.8 15.8-119.2-21 2.8-15.8z"/><path fill="#bfe5d5" d="m-10 1 68 4-38 8z"/><circle r="1" fill="#f9c8cb" transform="rotate(40.3 -86 31.5)scale(17.986 4.57473)"/><path fill="#ffc0bc" d="M23 76h88v5H23z"/></g></g></svg>