<svg xmlns="http://www.w3.org/2000/svg" width="300" height="600"><g filter="blur(12px)"><rect width="200%" height="200%" x="-50%" y="-50%" fill="#8d8b84"/><rect width="100%" height="100%" fill="#8d8b84"/><g fill-opacity=".5" transform="translate(1.2 1.2)scale(2.34375)"><circle r="1" fill="#ffffdb" transform="rotate(-1.3 1372.4 -5216.3)scale(127 25.04618)"/><ellipse cx="108" cy="223" fill="#ccc3b0" rx="116" ry="46"/><path fill="#e1d7c0" d="m.6 146 32.3-44.4 44.5 32.3-32.3 44.5z"/><path d="M74 112h54v12H74z"/><circle r="1" fill="#dcd2bd" transform="rotate(-15.2 577.4 -313)scale(20.47124 19.8193)"/><path fill="#32302b" d="M51 65h65v13H51z"/><path d="m69.5 102.6 30 5.6 27.1 19.9-30-30.2z"/><path fill="#525048" d="m11.3 216.9 81-29.7-2.5 3.9 53.2 2.7z"/></g></g></svg>