<svg xmlns="http://www.w3.org/2000/svg" width="300" height="600"><g filter="blur(12px)"><rect width="200%" height="200%" x="-50%" y="-50%" fill="#6c509b"/><rect width="100%" height="100%" fill="#6c509b"/><g fill-opacity=".5" transform="translate(1.2 1.2)scale(2.34375)"><circle r="1" fill="#ffb2d5" transform="matrix(-2.37215 -19.4701 97.60153 -11.89132 33.4 33)"/><circle r="1" fill="#ffa9cf" transform="matrix(-.39933 25.42028 -84.61085 -1.32917 106.7 138.6)"/><circle r="1" fill="#ffbcda" transform="matrix(-7.53224 25.55953 -17.86673 -5.26522 0 155.4)"/><circle r="1" fill="#fda0ca" transform="matrix(-1.59576 -3.72547 107.07238 -45.86313 36.7 74.4)"/><path fill="#f49fca" d="m115 194-62 8 66 10z"/><ellipse cx="51" cy="21" fill="#ffa8ce" rx="59" ry="9"/><path fill="#fa9cc9" d="M10.3 233.3 124.5 271 11.4 221.1-.7 241.5z"/><circle r="1" fill="#224997" transform="matrix(-4.61995 -13.41882 44.52583 -15.32973 43.7 176)"/></g></g></svg>