<svg xmlns="http://www.w3.org/2000/svg" width="300" height="600"><g filter="blur(12px)"><rect width="200%" height="200%" x="-50%" y="-50%" fill="#508d9b"/><rect width="100%" height="100%" fill="#508d9b"/><g fill-opacity=".5" transform="translate(1.2 1.2)scale(2.34375)"><circle r="1" fill="#ffd657" transform="matrix(-126.19722 -14.25697 9.47472 -83.86656 81.9 127.6)"/><ellipse cx="68" cy="19" fill="#ffffef" rx="120" ry="11"/><circle r="1" fill="#ffb750" transform="matrix(7.0624 -37.37671 112.37204 21.23292 50.9 167.4)"/><circle r="1" fill="#fff" transform="matrix(-.68706 10.01612 -78.4933 -5.3843 60.5 66.7)"/><circle r="1" fill="#004093" transform="matrix(-120.3469 -19.59202 1.09522 -6.72754 70 118)"/><ellipse cx="73" cy="236" fill="#1c4659" rx="90" ry="26"/><path fill="#fff" d="M122 146.3-3.8 128.6l1.8-12.9 125.8 17.7z"/><path fill="#00112e" d="M0 31h128v12H0z"/></g></g></svg>