<svg xmlns="http://www.w3.org/2000/svg" width="300" height="600"><g filter="blur(12px)"><rect width="200%" height="200%" x="-50%" y="-50%" fill="#a4a755"/><rect width="100%" height="100%" fill="#a4a755"/><g fill-opacity=".5" transform="translate(1.2 1.2)scale(2.34375)"><path fill="#9f1511" d="m-12.3 172.4-4.3-123.9 198.9-7 4.3 124z"/><circle r="1" fill="#f0aac4" transform="rotate(-92 36.9 -19)scale(29.46248 127.00001)"/><circle r="1" fill="#b85474" transform="matrix(-116.85184 16.45333 -8.29067 -58.8805 58.2 221.6)"/><circle r="1" fill="#1b3172" transform="matrix(-.08591 8.20354 -110.27987 -1.15489 40.3 209.3)"/><circle r="1" fill="#3151da" transform="rotate(-173.6 36.4 34.8)scale(62.00238 4.93999)"/><circle r="1" fill="#955000" transform="rotate(-84 174.9 90.6)scale(19.87366 87.83448)"/><circle r="1" fill="#e6a896" transform="matrix(76.0146 -2.31975 .54454 17.84382 65.8 183)"/><ellipse cx="71" cy="135" fill="#d7a40e" rx="127" ry="16"/></g></g></svg>