<svg xmlns="http://www.w3.org/2000/svg" width="300" height="600"><g filter="blur(12px)"><rect width="200%" height="200%" x="-50%" y="-50%" fill="#5778a0"/><rect width="100%" height="100%" fill="#5778a0"/><g fill-opacity=".5" transform="translate(1.2 1.2)scale(2.34375)"><circle r="1" fill="#ffbac9" transform="rotate(-176.1 42.8 43.8)scale(107.66482 94.77684)"/><circle r="1" fill="#ff3369" transform="matrix(-5.49881 25.78781 -104.21705 -22.22252 48.3 55)"/><circle r="1" fill="#99c8d9" transform="matrix(112.03011 59.8185 -43.2254 80.95397 54 183)"/><circle r="1" fill="#59669e" transform="matrix(-69.78208 -6.3306 1.9314 -21.28967 87.6 32)"/><circle r="1" fill="#e7ffeb" transform="matrix(-67.81757 -19.70283 4.83509 -16.64248 75.9 158.4)"/><circle r="1" fill="#f7fff1" transform="matrix(27.73439 27.15952 -8.8378 9.02487 19.9 114.2)"/><ellipse cx="101" cy="110" fill="#6593b8" rx="69" ry="22"/><ellipse cx="99" cy="42" fill="#ff587c" rx="42" ry="5"/></g></g></svg>