<svg xmlns="http://www.w3.org/2000/svg" width="300" height="600"><g filter="blur(12px)"><rect width="200%" height="200%" x="-50%" y="-50%" fill="#8a867d"/><rect width="100%" height="100%" fill="#8a867d"/><g fill-opacity=".5" transform="translate(1.2 1.2)scale(2.34375)"><circle r="1" fill="#fffced" transform="matrix(-89.05506 74.75203 -33.18829 -39.53852 96 198)"/><circle r="1" fill="#fff" transform="matrix(5.43138 -26.6961 86.52258 17.60322 81.5 60.2)"/><circle r="1" fill="#403e3a" transform="matrix(-15.08383 19.95916 -43.60914 -32.95694 14.2 197.3)"/><path fill="#0c0c0b" d="M39 88h35v58H39z"/><circle r="1" fill="#2c2b28" transform="matrix(78.49775 18.20956 -2.58805 11.15655 83.4 105.7)"/><ellipse cx="16" cy="128" fill="#fff" rx="29" ry="9"/><circle r="1" transform="matrix(21.21156 10.5757 -3.15966 6.33729 13.2 12.5)"/><circle r="1" fill="#ede5d6" transform="rotate(-73.8 151.2 36)scale(15.19561 64.86131)"/></g></g></svg>