<svg xmlns="http://www.w3.org/2000/svg" width="300" height="600"><g filter="blur(12px)"><rect width="200%" height="200%" x="-50%" y="-50%" fill="#7f4919"/><rect width="100%" height="100%" fill="#7f4919"/><g fill-opacity=".5" transform="translate(1.2 1.2)scale(2.34375)"><circle cx="55" cy="149" r="171" fill="#ffb254"/><ellipse cx="84" cy="255" fill="#fff" rx="15" ry="13"/><circle r="1" fill="#d67c36" transform="rotate(-175.7 35.4 57.2)scale(124.06084 127)"/><circle r="1" fill="#fff" transform="matrix(21.43838 19.92946 -4.84289 5.20956 .7 255)"/><path fill="#fff" d="m129.4 258.2-14 1.5-.8-8 14-1.4z"/><circle r="1" fill="#c96515" transform="matrix(-38.31036 -16.49096 10.05185 -23.35157 30.5 235.3)"/><circle r="1" fill="#c0641c" transform="matrix(2.49726 -16.32425 82.82248 12.67007 38.2 138.7)"/><path fill="#fafdff" d="m64 256.9 13.8 13.8 10.5-26.3-8.2-2.5z"/></g></g></svg>