<svg xmlns="http://www.w3.org/2000/svg" width="300" height="600"><g filter="blur(12px)"><rect width="200%" height="200%" x="-50%" y="-50%" fill="#589f88"/><rect width="100%" height="100%" fill="#589f88"/><g fill-opacity=".5" transform="translate(1.2 1.2)scale(2.34375)"><ellipse cx="73" cy="139" fill="#ff6a1e" rx="126" ry="165"/><circle r="1" fill="#c5f5f8" transform="matrix(1.60212 -8.41202 110.01824 20.9537 58.2 32)"/><circle r="1" fill="#c4c5ae" transform="matrix(-104.19412 -5.30464 1.03595 -20.34812 62.4 165.6)"/><circle r="1" fill="#ad0900" transform="matrix(-100.26772 -14.6274 1.3372 -9.16622 87.2 128.8)"/><circle r="1" fill="#120019" transform="rotate(-86.4 72.4 -.7)scale(3.98964 52.07481)"/><circle r="1" fill="#cc3713" transform="matrix(-.61932 14.2018 -90.72072 -3.95618 71.8 246.5)"/><path fill="#9cc39e" d="m-2 86.3 126.8 4.4-.7 21-127-4.4z"/><ellipse cx="78" cy="200" fill="#d06e24" rx="127" ry="16"/></g></g></svg>