<svg xmlns="http://www.w3.org/2000/svg" width="300" height="600"><g filter="blur(12px)"><rect width="200%" height="200%" x="-50%" y="-50%" fill="#a05a7d"/><rect width="100%" height="100%" fill="#a05a7d"/><circle r="1" fill="#a27525" fill-opacity=".5" transform="rotate(71.2 -101.7 269.1)scale(267.73565 297.65625)"/><path fill="#62a788" fill-opacity=".5" d="m-10.9-78 296.6-26 18.1 207.8-296.5 26z"/><circle r="1" fill="#c1daca" fill-opacity=".5" transform="matrix(145.44803 41.70655 -6.36115 22.18396 151.6 409.5)"/><circle r="1" fill="#e43420" fill-opacity=".5" transform="matrix(-283.13403 16.2934 -3.68685 -64.06724 148.4 190.2)"/><circle r="1" fill="#ed3e0e" fill-opacity=".5" transform="matrix(-2.32043 29.7268 -268.74546 -20.9779 88.8 490.8)"/><circle r="1" fill="#0b4c14" fill-opacity=".5" transform="rotate(174.1 91.4 25.2)scale(132.12148 19.49152)"/><circle r="1" fill="#92b47e" fill-opacity=".5" transform="rotate(3.5 -9569.2 2820.9)scale(297.65625 65.01835)"/><circle r="1" fill="#014b63" fill-opacity=".5" transform="rotate(-158.4 77.6 203.7)scale(137.65961 16.69191)"/></g></svg>