<svg xmlns="http://www.w3.org/2000/svg" width="300" height="600"><g filter="blur(12px)"><rect width="200%" height="200%" x="-50%" y="-50%" fill="#54ac74"/><rect width="100%" height="100%" fill="#54ac74"/><g fill-opacity=".5" transform="translate(1.2 1.2)scale(2.34375)"><circle cx="91" cy="138" r="162" fill="#d13655"/><ellipse cx="87" cy="101" fill="#63210f" rx="127" ry="27"/><circle r="1" fill="#ebbb8c" transform="rotate(-79.2 123.3 36.6)scale(24.42893 81.26642)"/><circle r="1" fill="#ffc68d" transform="matrix(-46.11728 21.38663 -5.50254 -11.86546 84.7 40.6)"/><circle r="1" fill="#135496" transform="rotate(169.7 49.2 37)scale(53.59013 10.81155)"/><path fill="#ffbd88" d="M-.8 35.3 103 58-.1 63l-.1-13.1z"/><circle r="1" fill="#415e63" transform="matrix(-8.81684 29.80377 -51.43559 -15.21617 19 0)"/><path fill="#4c2a51" d="m142.8 207.9-94.9-15 3.3-20.8 94.9 15z"/></g></g></svg>