<svg xmlns="http://www.w3.org/2000/svg" width="300" height="600"><g filter="blur(12px)"><rect width="200%" height="200%" x="-50%" y="-50%" fill="#60759c"/><rect width="100%" height="100%" fill="#60759c"/><g fill-opacity=".5" transform="translate(1.2 1.2)scale(2.34375)"><circle r="1" fill="#7a3e00" transform="rotate(82.9 -66 144)scale(72.04749 127)"/><circle r="1" fill="#ffe597" transform="matrix(118.02725 3.50297 -.62389 21.02091 69.2 7.3)"/><circle r="1" fill="#f28b00" transform="matrix(-3.94932 -15.74476 87.59231 -21.97113 55.6 194)"/><ellipse cx="48" cy="47" fill="#0b514c" rx="94" ry="23"/><circle r="1" fill="#486000" transform="matrix(6.38434 22.26485 -72.08457 20.66992 59 159.2)"/><ellipse cx="102" cy="234" fill="#0035b9" rx="32" ry="11"/><circle r="1" fill="#1e255d" transform="matrix(3.06985 29.20764 -41.33877 4.34488 38.2 243.8)"/><path fill="#000900" d="m89.9 201.8-3.3-16.6 46.3 18.8 8.4 19.9z"/></g></g></svg>