<svg xmlns="http://www.w3.org/2000/svg" width="300" height="600"><g filter="blur(12px)"><rect width="200%" height="200%" x="-50%" y="-50%" fill="#a35551"/><rect width="100%" height="100%" fill="#a35551"/><g fill-opacity=".5" transform="translate(1.2 1.2)scale(2.34375)"><ellipse cx="84" cy="141" fill="#8bfcff" rx="124" ry="167"/><circle r="1" fill="#fa0000" transform="matrix(.44581 8.1711 -97.12322 5.29902 25.8 110.5)"/><circle r="1" fill="#92daff" transform="matrix(-75.52867 -5.0166 2.43629 -36.68005 54.1 68.2)"/><circle cx="91" cy="177" r="63" fill="#9bcfff"/><path fill="#e70000" d="m22.1 227 96.3 32.4-103.5-48.5-30.9 32.4z"/><path fill="#f80000" d="M97.6 39.9 143 16.5l-62.8 5L-16-1.3z"/><path fill="#ed1c00" d="m81 170-28-17-63 23z"/><circle r="1" fill="#e00" transform="matrix(.01925 4.85636 -67.4543 .26736 127 243.6)"/></g></g></svg>