<svg xmlns="http://www.w3.org/2000/svg" width="300" height="600"><g filter="blur(12px)"><rect width="200%" height="200%" x="-50%" y="-50%" fill="#6362a4"/><rect width="100%" height="100%" fill="#6362a4"/><g fill-opacity=".5" transform="translate(1.2 1.2)scale(2.34375)"><circle cx="56" cy="150" r="161" fill="#b26f17"/><circle r="1" fill="#000041" transform="matrix(6.5127 32.49263 -115.74746 23.19995 71.6 92.6)"/><circle r="1" fill="#ffd088" transform="rotate(170 24 121.6)scale(95.60578 27.70469)"/><circle r="1" fill="#ffb642" transform="matrix(-53.44198 24.47808 -14.82885 -32.37523 66.6 0)"/><path fill="#ffea8f" d="M145.7 157 32.2 147l2-24 113.6 10z"/><circle r="1" fill="#ffcb52" transform="matrix(-108.38454 7.18544 -.7729 -11.65833 87 184.4)"/><path fill="#00003b" d="m79.7 194.8 54.8 3.1L3.1 219.6l-9.9-16.5z"/><path fill="#00003d" d="m87 148.2 16 18-119 16.9L61.1 147z"/></g></g></svg>