<svg xmlns="http://www.w3.org/2000/svg" width="300" height="600"><g filter="blur(12px)"><rect width="200%" height="200%" x="-50%" y="-50%" fill="#89867d"/><rect width="100%" height="100%" fill="#89867d"/><circle r="1" fill="#fffff7" fill-opacity=".5" transform="matrix(85.61471 72.3982 -110.24285 130.36801 60.6 316.5)"/><circle r="1" fill="#fffff2" fill-opacity=".5" transform="rotate(-153.2 154 238.6)scale(61.46723 92.68977)"/><circle r="1" fill="#fff" fill-opacity=".5" transform="rotate(71.2 8.2 44.4)scale(78.18724 65.90085)"/><path fill="#090806" fill-opacity=".5" d="m329.3 282.4-192.2 157-23.4-65.6z"/><path fill-opacity=".5" d="M308.4 75.6 159 62.6l3.7-42.1 149.4 13z"/><path fill="#f6ecdc" fill-opacity=".5" d="m367.9 206-5 93.6L61 283.8l5-93.6z"/><path fill="#0d0c09" fill-opacity=".5" d="M198 559h103.2v42.2H198z"/><circle r="1" fill="#ede6d7" fill-opacity=".5" transform="matrix(-6.81331 -32.62534 91.87118 -19.18592 20.6 564.3)"/></g></svg>