<svg xmlns="http://www.w3.org/2000/svg" width="300" height="600"><g filter="blur(12px)"><rect width="200%" height="200%" x="-50%" y="-50%" fill="#5e9caf"/><rect width="100%" height="100%" fill="#5e9caf"/><g fill-opacity=".5" transform="translate(1.2 1.2)scale(2.34375)"><circle cx="68" cy="124" r="147" fill="#fff"/><circle r="1" fill="#fafefe" transform="matrix(.69056 -55.47361 126.99016 1.58083 53.4 60.7)"/><path fill="#2088a9" d="m36.8 129.7 106.2 5-118.5 10L-16 99.6z"/><ellipse cx="79" cy="207" fill="#1a85a7" rx="127" ry="6"/><path fill="#006689" d="M47 40h81v3H47z"/><path fill="#4497af" d="m36.6 84.6-40.1-8.3 50.9 21.6 6.4-10.1z"/><circle r="1" fill="#60aac0" transform="matrix(-46.1086 19.22732 -2.29362 -5.50028 49.9 227)"/><path fill="#107fa1" d="m5.6 255.8 67-7.6 20.3-14.3-71 23.8z"/></g></g></svg>