<svg xmlns="http://www.w3.org/2000/svg" width="300" height="600"><g filter="blur(12px)"><rect width="200%" height="200%" x="-50%" y="-50%" fill="#a49ca0"/><rect width="100%" height="100%" fill="#a49ca0"/><g fill-opacity=".5" transform="translate(1.2 1.2)scale(2.34375)"><circle r="1" fill="#00aea7" transform="rotate(73.7 -77.7 139.8)scale(111.73484 127)"/><circle r="1" transform="rotate(-89.2 131 61)scale(11.25239 114.68157)"/><circle r="1" transform="rotate(-32.2 76.2 -23.1)scale(32.6639 9.70701)"/><circle r="1" fill="#fff" transform="matrix(47.054 -13.7364 4.75586 16.29117 43.5 56.2)"/><circle r="1" fill="#48f4ee" transform="rotate(103.3 41.5 45.1)scale(20.23832 126.99999)"/><ellipse cx="51" cy="191" rx="115" ry="11"/><circle r="1" fill="#a8f2f1" transform="rotate(-90.3 116.8 40)scale(16.77434 112.28172)"/><path d="M116.6 68.5 93.4 52.6l-4.1-15.4L143 71.5z"/></g></g></svg>