<svg xmlns="http://www.w3.org/2000/svg" width="300" height="600"><g filter="blur(12px)"><rect width="200%" height="200%" x="-50%" y="-50%" fill="#548cac"/><rect width="100%" height="100%" fill="#548cac"/><g fill-opacity=".5" transform="translate(1.2 1.2)scale(2.34375)"><ellipse cx="89" cy="123" fill="#ffecb7" rx="127" ry="74"/><path fill="#000030" d="m93 87 50-29L39 86z"/><circle r="1" fill="#fff0c6" transform="matrix(-109.53593 2.7138 -.47275 -19.08143 51.5 172.4)"/><circle r="1" fill="#7d7674" transform="matrix(1.4959 35.69093 -126.88859 5.3182 85 223.4)"/><path fill="#ffe2c5" d="m100.3 15.3-50.4 8-4.2-26.6 50.4-8z"/><circle r="1" fill="#ffe2ad" transform="matrix(2.99977 8.34828 -93.86205 33.72728 62.2 68.2)"/><ellipse cx="41" cy="38" fill="#5a5d68" rx="58" ry="22"/><circle r="1" fill="#c3c7be" transform="matrix(1.67636 21.21087 -33.30398 2.63211 14.6 230.2)"/></g></g></svg>