<svg xmlns="http://www.w3.org/2000/svg" width="300" height="600"><g filter="blur(12px)"><rect width="200%" height="200%" x="-50%" y="-50%" fill="#76917e"/><rect width="100%" height="100%" fill="#76917e"/><g fill-opacity=".5" transform="translate(1.2 1.2)scale(2.34375)"><circle cx="111" cy="178" r="139" fill="#b34523"/><circle r="1" fill="#ffd994" transform="rotate(160.5 19.1 11.3)scale(99.92396 52.55599)"/><circle r="1" fill="#d8ffd4" transform="rotate(178.7 61.2 88.6)scale(127 13.51651)"/><circle r="1" fill="#691d1a" transform="matrix(-125.13358 21.69304 -2.43385 -14.03935 48 87.2)"/><path fill="#00000e" d="M134 42 78 79l29-33z"/><path fill="#6b3a2a" d="m8.3 192.6 123 15-3.6 29.8-123-15z"/><circle r="1" fill="#fcd846" transform="matrix(43.04178 2.70796 -.27717 4.40542 22 120.1)"/><circle r="1" fill="#ba4837" transform="matrix(94.32091 60.32074 -13.60192 21.26873 22.2 238.2)"/></g></g></svg>