<svg xmlns="http://www.w3.org/2000/svg" width="300" height="600"><g filter="blur(12px)"><rect width="200%" height="200%" x="-50%" y="-50%" fill="#578aad"/><rect width="100%" height="100%" fill="#578aad"/><g fill-opacity=".5" transform="translate(1.2 1.2)scale(2.34375)"><circle r="1" fill="#fff4d9" transform="matrix(-9.88738 19.13487 -97.27146 -50.26215 30.4 76.9)"/><circle r="1" fill="#ffcdb5" transform="matrix(8.78473 -29.19179 69.89824 21.03459 84.5 0)"/><ellipse cx="53" cy="205" fill="#adadb1" rx="127" ry="44"/><circle r="1" fill="#062b67" transform="matrix(-99.06343 -17.99235 2.712 -14.93187 47.7 129.7)"/><path fill="#ffffe4" d="m-16 137.8 124.1 23.6-54.8-19.6-23.9 12.8z"/><path fill="#ffffdf" d="M171.1 66 65.7 55 67 44l105.4 11z"/><path fill="#002b72" d="M74 11h54v10H74z"/><ellipse cx="90" cy="242" fill="#ffdec1" rx="94" ry="5"/></g></g></svg>