<svg xmlns="http://www.w3.org/2000/svg" width="300" height="600"><g filter="blur(12px)"><rect width="200%" height="200%" x="-50%" y="-50%" fill="#598865"/><rect width="100%" height="100%" fill="#598865"/><g fill-opacity=".5" transform="translate(1.2 1.2)scale(2.34375)"><circle r="1" fill="#003101" transform="matrix(8.4707 -22.53593 99.80144 37.5129 51.8 25.2)"/><circle r="1" fill="#fff" transform="matrix(-1.2314 5.82293 -60.17576 -12.7257 55.1 63.2)"/><circle r="1" fill="#008207" transform="matrix(-126.04594 -15.5377 2.20108 -17.8557 39.8 101)"/><circle r="1" fill="#3add77" transform="matrix(11.66666 -76.86241 125.56182 19.05856 73.6 198.6)"/><circle r="1" fill="#fffdff" transform="rotate(-85.3 120.8 34)scale(4.09799 56.40519)"/><ellipse cx="11" cy="50" fill="#fff" rx="24" ry="10"/><circle r="1" fill="#007708" transform="rotate(5.2 -1978.2 488.5)scale(104.42634 8.89629)"/><path fill="#ffdeff" d="m72.6 28.8-83.5-7.9L-16 5.7l51.1 26.9z"/></g></g></svg>