<svg xmlns="http://www.w3.org/2000/svg" width="300" height="600"><g filter="blur(12px)"><rect width="200%" height="200%" x="-50%" y="-50%" fill="#8f7449"/><rect width="100%" height="100%" fill="#8f7449"/><g fill-opacity=".5" transform="translate(1.2 1.2)scale(2.34375)"><circle r="1" fill="#abaeb3" transform="matrix(126.97475 -2.53223 .61639 30.90767 76 255)"/><ellipse cx="65" cy="100" fill="#232c44" rx="126" ry="10"/><circle r="1" fill="#bbbad0" transform="rotate(-89.9 75.3 6.8)scale(6.11271 93.14384)"/><circle r="1" fill="#bb471c" transform="matrix(71.53433 2.93493 -.79105 19.2806 69.8 56)"/><ellipse cx="21" cy="138" fill="#5d4d39" rx="64" ry="24"/><circle r="1" fill="#8b748c" transform="rotate(92.2 -66.3 106)scale(13.19704 126.40294)"/><path fill="#e21709" d="m119.5 155.9-51.3 10.4 18.2-16 8.5-4.9z"/><path fill="#d0b5a8" d="m101.8 133.7 41.2 32.7V177l-47.3-35.6z"/></g></g></svg>