<svg xmlns="http://www.w3.org/2000/svg" width="300" height="600"><g filter="blur(12px)"><rect width="200%" height="200%" x="-50%" y="-50%" fill="#9e7059"/><rect width="100%" height="100%" fill="#9e7059"/><g fill-opacity=".5" transform="translate(1.2 1.2)scale(2.34375)"><circle r="1" fill="#5e1f16" transform="matrix(97.99544 52.8664 -48.12288 89.20264 63.3 34.8)"/><ellipse cx="104" cy="195" fill="#a6a6af" rx="106" ry="66"/><circle r="1" fill="#ffb538" transform="matrix(2.58 -7.59119 41.15524 13.9873 109.5 29.3)"/><circle r="1" fill="#de5000" transform="rotate(150.8 -18.5 118.8)scale(39.62252 17.97806)"/><circle r="1" fill="#ed0000" transform="matrix(2.16573 -11.2465 37.44902 7.21154 79.8 55)"/><circle r="1" fill="#ffd297" transform="rotate(76.5 -70.4 128.3)scale(11.20339 76.08969)"/><circle r="1" fill="#00043e" transform="matrix(-122.59072 33.174 -1.86756 -6.90135 73.7 6.4)"/><path fill="#298ef9" d="m81.2 240.1-17.5 22.6L80 208.6l36.3 17.8z"/></g></g></svg>