<svg xmlns="http://www.w3.org/2000/svg" width="300" height="600"><g filter="blur(12px)"><rect width="200%" height="200%" x="-50%" y="-50%" fill="#6babac"/><rect width="100%" height="100%" fill="#6babac"/><g fill-opacity=".5" transform="translate(1.2 1.2)scale(2.34375)"><ellipse cx="32" cy="212" fill="#6c4d00" rx="114" ry="63"/><circle r="1" fill="#006e84" transform="rotate(-62.2 36.4 -18)scale(93.00248 127.00001)"/><circle r="1" fill="#00356d" transform="matrix(5.29692 -12.5146 116.9552 49.50234 69.5 234.5)"/><circle r="1" fill="#d0a10c" transform="rotate(-80.2 166.6 45.7)scale(24.05953 68.41151)"/><circle r="1" fill="#ffba00" transform="matrix(5.17816 -10.76815 84.19448 40.48723 31.4 246.6)"/><circle r="1" fill="#acd7cc" transform="matrix(-126.9998 -.22166 .02165 -12.40272 44.2 55.8)"/><path fill="#003597" d="m50 190 30 8-24-28z"/><circle r="1" fill="#fcb200" transform="matrix(18.84709 15.05666 -5.60945 7.0216 21.4 160.6)"/></g></g></svg>