<svg xmlns="http://www.w3.org/2000/svg" width="300" height="600"><g filter="blur(12px)"><rect width="200%" height="200%" x="-50%" y="-50%" fill="#89867d"/><rect width="100%" height="100%" fill="#89867d"/><g fill-opacity=".5" transform="translate(1.2 1.2)scale(2.34375)"><circle r="1" fill="#fff8e8" transform="matrix(15.3489 14.09774 -85.9094 93.53382 49 74.7)"/><circle r="1" fill="#fffbec" transform="matrix(-11.6379 -18.1279 36.29723 -23.3024 107.8 125.9)"/><ellipse cx="98" cy="73" fill="#191816" rx="16" ry="35"/><circle r="1" fill="#fffcec" transform="rotate(-20 619.3 -87.3)scale(15.36639 34.0704)"/><path fill="#fef6e7" d="M62.5 24h-69V-2h69z"/><path d="M0 145h34v15H0z"/><path fill="#030201" d="M23.4 47.3-11 30.5l5.8 55.2 28.9-5z"/><circle r="1" fill="#e5ddd0" transform="matrix(4.005 23.18651 -118.57621 20.48167 105.8 247.7)"/></g></g></svg>