<svg xmlns="http://www.w3.org/2000/svg" width="300" height="600"><g filter="blur(12px)"><rect width="200%" height="200%" x="-50%" y="-50%" fill="#a3615c"/><rect width="100%" height="100%" fill="#a3615c"/><g fill-opacity=".5" transform="translate(1.2 1.2)scale(2.34375)"><circle cx="92" cy="160" r="153" fill="#ffdc98"/><ellipse cx="26" cy="158" fill="#f0da5c" rx="126" ry="56"/><circle r="1" fill="#d86686" transform="matrix(1.35185 -57.66644 110.34617 2.58679 64 45.4)"/><circle r="1" fill="#d87698" transform="rotate(-106.6 130.2 87.2)scale(30.27214 126.99998)"/><path fill="#e9d2c3" d="m75.6 207.7 2 9.8-79.2 16.8-2-9.8z"/><circle r="1" fill="#c74240" transform="matrix(55.67847 -4.96917 .96356 10.79652 82.8 .8)"/><circle r="1" fill="#efd765" transform="rotate(-78.2 130.7 -19.4)scale(9.28177 32.24932)"/><path fill="#e8a594" d="m-8.5-.7 30.3-15.5 8.7 17L.2 16.1z"/></g></g></svg>