<svg xmlns="http://www.w3.org/2000/svg" width="300" height="600"><g filter="blur(12px)"><rect width="200%" height="200%" x="-50%" y="-50%" fill="#66806e"/><rect width="100%" height="100%" fill="#66806e"/><g fill-opacity=".5" transform="translate(1.2 1.2)scale(2.34375)"><circle r="1" fill="#862e14" transform="rotate(4.9 -1055.8 790.3)scale(127 113.3255)"/><circle r="1" fill="#eea464" transform="matrix(-125.0169 -19.13028 5.41255 -35.3712 64 209.7)"/><circle r="1" fill="#00496b" transform="matrix(89.93404 3.83166 -1.01957 23.93067 52.1 93.8)"/><circle r="1" fill="#ffb936" transform="matrix(39.62425 3.20577 -.69688 8.61365 96.8 54)"/><circle r="1" fill="#351835" transform="matrix(-5.36746 24.82546 -50.60402 -10.94098 82.7 20.5)"/><ellipse cx="32" cy="124" fill="#ff6025" rx="127" ry="7"/><path fill="#e2a51f" d="m129 200 14-40-146 33z"/><circle r="1" fill="#012940" transform="matrix(-.08176 7.25603 -30.78346 -.34688 110 207.9)"/></g></g></svg>