<svg xmlns="http://www.w3.org/2000/svg" width="300" height="600"><g filter="blur(12px)"><rect width="200%" height="200%" x="-50%" y="-50%" fill="#7c7c7c"/><rect width="100%" height="100%" fill="#7c7c7c"/><g fill-opacity=".5" transform="translate(1.2 1.2)scale(2.34375)"><ellipse cx="49" cy="36" rx="127" ry="52"/><circle r="1" fill="#1b1b1b" transform="matrix(8.26098 33.02902 -111.79426 27.96119 75.2 237.2)"/><circle r="1" fill="#dadada" transform="matrix(-4.14074 26.69552 -125.49927 -19.4662 55.2 154.2)"/><ellipse cx="110" cy="113" fill="#1e1e1e" rx="127" ry="10"/><circle r="1" fill="#171717" transform="rotate(-2.8 803 -1105)scale(79.73943 54.92993)"/><circle r="1" fill="#fff" transform="matrix(21.8385 -10.06627 3.30162 7.16277 10 205.3)"/><path fill="#dedede" d="m143 229.9-69.1-33.4L65 207l71.8 23.7z"/><path fill="#0c0c0c" d="m45 173 10 14-60 10z"/></g></g></svg>