<svg xmlns="http://www.w3.org/2000/svg" width="300" height="600"><g filter="blur(12px)"><rect width="200%" height="200%" x="-50%" y="-50%" fill="#57a78f"/><rect width="100%" height="100%" fill="#57a78f"/><g fill-opacity=".5" transform="translate(1.2 1.2)scale(2.34375)"><circle r="1" fill="#a2e47c" transform="matrix(-17.39879 -36.47018 68.64732 -32.7495 69.3 231.4)"/><circle r="1" fill="#7bc487" transform="matrix(4.51315 -45.43439 114.59584 11.3832 99.8 115)"/><ellipse cx="23" cy="6" fill="#8bc974" rx="54" ry="15"/><path fill="#416e51" d="m108.2 262.3-23-20.7 10.6-12 23 20.8z"/><circle r="1" fill="#3c8f94" transform="rotate(-8.7 284.8 -562.9)scale(117.81474 29.80644)"/><circle r="1" fill="#94e596" transform="matrix(-3.61223 -19.90254 34.62632 -6.28454 63.2 225.4)"/><ellipse cx="127" cy="89" fill="#5b8651" rx="118" ry="6"/><path fill="#4a7854" d="m103.4 199.4-2.7 9.6-22.1-6.4 2.7-9.6z"/></g></g></svg>