<svg xmlns="http://www.w3.org/2000/svg" width="300" height="600"><g filter="blur(12px)"><rect width="200%" height="200%" x="-50%" y="-50%" fill="#62a49a"/><rect width="100%" height="100%" fill="#62a49a"/><g fill-opacity=".5" transform="translate(1.2 1.2)scale(2.34375)"><circle cx="75" cy="131" r="148" fill="#ffd281"/><path fill="#001b40" d="m10.3 188.7 23.5 11 20.7 1.1 63.4-14.6z"/><path fill="#001740" d="m123.2 247.6-75.4-9.3 1-7.9 75.4 9.3z"/><path fill="#002e44" d="M24.3 56.4 143 71.6 36.9 69.1l-51.4 2.5z"/><ellipse cx="67" cy="97" fill="#fee8a8" rx="127" ry="27"/><ellipse cx="88" cy="158" fill="#5c755a" rx="111" ry="8"/><path fill="#000333" d="m37.3 39.3-1 3.8-41.6-10.4 1-3.8z"/><circle r="1" fill="#ffebb3" transform="rotate(-171.1 33.3 10.3)scale(75.48987 11.28264)"/></g></g></svg>