<svg xmlns="http://www.w3.org/2000/svg" width="300" height="600"><g filter="blur(12px)"><rect width="200%" height="200%" x="-50%" y="-50%" fill="#60809f"/><rect width="100%" height="100%" fill="#60809f"/><g fill-opacity=".5" transform="translate(1.2 1.2)scale(2.34375)"><circle cx="78" cy="133" r="148" fill="#ac4e1f"/><circle r="1" fill="#ffe58e" transform="matrix(-.16202 11.81129 -93.83219 -1.28714 52.7 179.5)"/><ellipse cx="102" cy="16" fill="#a92c00" rx="86" ry="25"/><circle r="1" fill="#4c86bb" transform="matrix(-2.39568 24.433 -115.679 -11.34242 37 71.8)"/><circle r="1" fill="#4f1239" transform="matrix(0 20.76451 -127.00002 0 64.1 222.5)"/><path fill="#004b24" d="m-8.8 129-.4-19 170-3 .4 19z"/><circle r="1" fill="#f9752e" transform="matrix(.0973 10.4641 -126.95227 1.1804 66.3 138.3)"/><path fill="#001053" d="m66.3 35.8 76.7 22-83.4-34.7-26.3-1.9z"/></g></g></svg>