<svg xmlns="http://www.w3.org/2000/svg" width="300" height="600"><g filter="blur(12px)"><rect width="200%" height="200%" x="-50%" y="-50%" fill="#7b7871"/><rect width="100%" height="100%" fill="#7b7871"/><g fill-opacity=".5" transform="translate(1.2 1.2)scale(2.34375)"><circle cx="113" cy="53" r="184" fill="#4a2700"/><path fill="#ffbd00" d="m20 271-36-68 159 49z"/><circle r="1" fill="#ffbf04" transform="matrix(2.0002 12.33579 -118.06158 19.1432 111.7 100)"/><path d="M-16 105 143-7l-10 82z"/><path fill="#ffcd00" d="M77.1 29 70 54-3 33 4 8z"/><path fill="#ffb300" d="M122.4-9.3 51.7 61.4 37.6 47.3l70.7-70.7z"/><circle r="1" fill="#000009" transform="matrix(-10.82856 -32.10396 25.23872 -8.51294 16.7 67)"/><ellipse cx="66" cy="141" fill="#ffe30d" rx="77" ry="4"/></g></g></svg>