<svg xmlns="http://www.w3.org/2000/svg" width="300" height="600"><g filter="blur(12px)"><rect width="200%" height="200%" x="-50%" y="-50%" fill="#4c9190"/><rect width="100%" height="100%" fill="#4c9190"/><g fill-opacity=".5" transform="translate(1.2 1.2)scale(2.34375)"><circle r="1" fill="#fff8e0" transform="matrix(124.2008 -4.91156 1.89455 47.90824 56.8 61.2)"/><circle r="1" fill="#f9eed5" transform="rotate(89.4 -77.1 108.6)scale(17.05296 111.60865)"/><ellipse cx="89" cy="133" fill="#fffffb" rx="127" ry="8"/><circle r="1" fill="#00435f" transform="matrix(112.92169 -8.72085 .49013 6.3465 28.4 86.2)"/><circle r="1" fill="#fff8d8" transform="matrix(-.85352 14.18785 -50.51154 -3.0387 57 255)"/><circle r="1" fill="#fff69d" transform="matrix(-42.63413 -20.5785 2.78629 -5.77258 115.2 207.8)"/><ellipse cx="62" cy="201" fill="#004b6b" rx="23" ry="11"/><path fill="#fff7af" d="M-16 205.5v9.2l38.6-3.9 42.8-30.2z"/></g></g></svg>