<svg xmlns="http://www.w3.org/2000/svg" width="300" height="600"><g filter="blur(12px)"><rect width="200%" height="200%" x="-50%" y="-50%" fill="#7c9472"/><rect width="100%" height="100%" fill="#7c9472"/><g fill-opacity=".5" transform="translate(1.2 1.2)scale(2.34375)"><circle r="1" fill="#ffccab" transform="matrix(117.39018 41.21199 -19.38587 55.21964 65.8 31)"/><circle r="1" fill="#ffcfab" transform="matrix(-126.92812 -4.27224 .83338 -24.75982 61.3 200.6)"/><ellipse cx="57" cy="244" fill="#022600" rx="125" ry="17"/><circle r="1" fill="#fabea0" transform="matrix(-3.4276 14.39698 -56.86105 -13.53736 54.4 137.8)"/><circle r="1" fill="#204823" transform="matrix(-.10535 -25.66644 28.76773 -.11808 71.2 110.6)"/><circle r="1" fill="#f9be9f" transform="matrix(-18.95744 -34.43873 11.92373 -6.56364 15 100.7)"/><circle r="1" fill="#fb9" transform="matrix(5.81608 -36.39845 74.8967 11.9677 69 25.2)"/><circle r="1" fill="#ffb996" transform="matrix(-40.1224 -40.54477 11.73268 -11.61046 14.6 184)"/></g></g></svg>