<svg xmlns="http://www.w3.org/2000/svg" width="300" height="600"><g filter="blur(12px)"><rect width="200%" height="200%" x="-50%" y="-50%" fill="#ac9d6b"/><rect width="100%" height="100%" fill="#ac9d6b"/><g fill-opacity=".5" transform="translate(1.2 1.2)scale(2.34375)"><circle r="1" fill="#311f74" transform="matrix(-80.13942 -8.52271 2.4033 -22.59842 72 234.5)"/><ellipse cx="80" cy="142" fill="#ddddc1" rx="88" ry="39"/><circle r="1" fill="#3f2d75" transform="rotate(166.3 8.1 47.1)scale(67.9675 22.11668)"/><circle r="1" fill="#dbdab5" transform="rotate(-87.7 51.7 -11)scale(28.28495 127.00001)"/><path fill="#210f73" d="m-16-.1 149.3.1-4.9 12.3-87.2 2.5z"/><ellipse cx="48" cy="145" fill="#1b024c" rx="119" ry="4"/><path fill="#281673" d="m166.6 190.5-1 10-142.2-15 1-10z"/><path fill="#4a386e" d="M49.8 73.6 57.2 56l81 34.3-7.4 17.5z"/></g></g></svg>