<svg xmlns="http://www.w3.org/2000/svg" width="300" height="600"><g filter="blur(12px)"><rect width="200%" height="200%" x="-50%" y="-50%" fill="#5681a6"/><rect width="100%" height="100%" fill="#5681a6"/><g fill-opacity=".5" transform="translate(1.2 1.2)scale(2.34375)"><ellipse cx="65" cy="117" fill="#ff353f" rx="127" ry="154"/><circle r="1" fill="#dbb3c1" transform="matrix(-108.90563 -17.09177 4.34835 -27.7069 51.4 49.2)"/><circle r="1" fill="#e1445e" transform="rotate(176.5 11.5 75.7)scale(127 76.98639)"/><circle r="1" fill="#000018" transform="matrix(-1.3602 -21.61966 20.59775 -1.2959 70.3 255)"/><ellipse cx="57" cy="123" fill="#b3eaf2" rx="113" ry="5"/><path fill="#050031" d="m3.9 85.8 10.3 3 24.3 10.9 103.8 3.7z"/><path fill="#00000d" d="m143 21-57 1 35 10z"/><path fill="#9fdaea" d="m21 24.9 27.2-14 23.5 8.9 15.9 27.1z"/></g></g></svg>