<svg xmlns="http://www.w3.org/2000/svg" width="300" height="600"><g filter="blur(12px)"><rect width="200%" height="200%" x="-50%" y="-50%" fill="#a89354"/><rect width="100%" height="100%" fill="#a89354"/><g fill-opacity=".5" transform="translate(1.2 1.2)scale(2.34375)"><circle r="1" fill="#d1c9be" transform="matrix(-3.60609 -67.60134 126.8197 -6.765 66.1 59)"/><path fill="#fce0e5" d="m134.3 221.2 4 57.9-138.6 9.7-4-57.9z"/><circle r="1" fill="#434239" transform="matrix(104.00694 -10.33541 2.37823 23.93252 49.7 149.4)"/><circle r="1" fill="#001769" transform="rotate(175.1 42 33.4)scale(112.46426 5.66193)"/><path fill="#40578f" d="M5 201h120v24H5z"/><ellipse cx="78" cy="186" fill="#e3c48d" rx="74" ry="17"/><path fill="#143c87" d="M21.6 192.7 44 226.6l31.8-1.3L-9 196.7z"/><circle r="1" fill="#f3cb8a" transform="rotate(-96.5 41.8 -12.5)scale(15.50206 77.0803)"/></g></g></svg>