<svg xmlns="http://www.w3.org/2000/svg" width="300" height="600"><g filter="blur(12px)"><rect width="200%" height="200%" x="-50%" y="-50%" fill="#61969c"/><rect width="100%" height="100%" fill="#61969c"/><g fill-opacity=".5" transform="translate(1.2 1.2)scale(2.34375)"><circle cx="60" cy="43" r="131" fill="#c0bfac"/><circle r="1" fill="#e9e2d6" transform="matrix(118.32479 -46.1329 6.84179 17.54828 89.8 254.8)"/><path fill="#00284a" d="M96.7 90.4 20.3 62.8 143 88.2l-19.4-28.9z"/><ellipse cx="35" cy="158" fill="#f7f2e8" rx="123" ry="11"/><circle r="1" fill="#ffbd4c" transform="matrix(-.14394 -9.163 79.6478 -1.2512 81.9 93.6)"/><circle r="1" fill="#e3e7e0" transform="matrix(-84.4824 16.50254 -2.36526 -12.10863 47.2 26.3)"/><circle r="1" fill="#477c80" transform="matrix(78.64826 .55575 -.09958 14.0923 55 115.2)"/><path fill="#084759" d="m1.6 83.5-12.3 2.8L19 95.7l56.6-30.2z"/></g></g></svg>