<svg xmlns="http://www.w3.org/2000/svg" width="300" height="600"><g filter="blur(12px)"><rect width="200%" height="200%" x="-50%" y="-50%" fill="#58a676"/><rect width="100%" height="100%" fill="#58a676"/><g fill-opacity=".5" transform="translate(1.2 1.2)scale(2.34375)"><circle r="1" fill="#ffe9ff" transform="matrix(-16.97094 -72.32043 123.64135 -29.01407 79 191.6)"/><path fill="#fff" d="m-16 65.6 133.5-19.5L143 59.3l-158.6 30z"/><circle r="1" fill="#ffceea" transform="matrix(.8675 -49.64738 126.98062 2.21877 38.5 176.8)"/><circle r="1" fill="#fff" transform="matrix(.03594 -10.29497 85.69299 .29913 66.2 .4)"/><path fill="#ffc6da" d="M109 89h19v137h-19z"/><path fill="#fff" d="m121 47 2.4 14.9L3 80.9.6 66.2z"/><circle r="1" fill="#fff" transform="rotate(81 -98.5 120.2)scale(9.50412 90.1829)"/><ellipse cx="55" cy="3" fill="#fff" rx="98" ry="6"/></g></g></svg>