<svg xmlns="http://www.w3.org/2000/svg" width="300" height="600"><g filter="blur(12px)"><rect width="200%" height="200%" x="-50%" y="-50%" fill="#888680"/><rect width="100%" height="100%" fill="#888680"/><g fill-opacity=".5" transform="translate(1.2 1.2)scale(2.34375)"><circle r="1" transform="matrix(114.94277 -4.481 .52034 13.34725 58 137)"/><circle r="1" transform="matrix(-.33051 -11.21725 81.3954 -2.39828 51.2 239)"/><ellipse cx="58" cy="86" rx="127" ry="9"/><path fill="#ffffe6" d="m170 49.9-1 29L-24 72l1-29z"/><circle r="1" fill="#d7cebb" transform="rotate(96.2 -47.6 129)scale(37.21676 122.41612)"/><path fill="#fffff9" d="m-25.3 234.8-1.4-9.9 98-13.7 1.4 9.9z"/><ellipse cx="68" cy="28" fill="#ffe" rx="34" ry="7"/><circle r="1" fill="#e5dbc1" transform="matrix(70.96 -.26359 .03059 8.2341 51.7 113.8)"/></g></g></svg>