<svg xmlns="http://www.w3.org/2000/svg" width="300" height="600"><g filter="blur(12px)"><rect width="200%" height="200%" x="-50%" y="-50%" fill="#576a9e"/><rect width="100%" height="100%" fill="#576a9e"/><circle r="1" fill="#be671b" fill-opacity=".5" transform="matrix(-129.08134 -268.2112 231.85565 -111.58459 227.3 203.2)"/><circle r="1" fill="#ead280" fill-opacity=".5" transform="matrix(9.95276 -47.80578 291.4079 60.66863 168 589.4)"/><circle r="1" fill="#202762" fill-opacity=".5" transform="rotate(48.5 -438.7 310)scale(149.29213 72.49272)"/><circle r="1" fill="#ce0034" fill-opacity=".5" transform="matrix(-80.85737 -124.98647 46.06837 -29.80297 231.6 262.4)"/><circle r="1" fill="#e5bba1" fill-opacity=".5" transform="matrix(-2.4981 50.80466 -297.29707 -14.6183 231 30)"/><circle r="1" fill="#001c7f" fill-opacity=".5" transform="matrix(-3.14944 21.32799 -190.07562 -28.06793 198 106.6)"/><circle r="1" fill="#bab544" fill-opacity=".5" transform="matrix(-41.07728 37.60314 -86.7666 -94.78294 49.4 250.8)"/><circle r="1" fill="#ff9956" fill-opacity=".5" transform="matrix(-21.2739 26.36503 -60.71255 -48.98885 1 511.1)"/></g></svg>