<svg xmlns="http://www.w3.org/2000/svg" width="300" height="600"><g filter="blur(12px)"><rect width="200%" height="200%" x="-50%" y="-50%" fill="#6c9899"/><rect width="100%" height="100%" fill="#6c9899"/><g fill-opacity=".5" transform="translate(1.2 1.2)scale(2.34375)"><circle r="1" fill="#00111f" transform="matrix(12.81753 31.32638 -102.54369 41.95685 106.7 42.8)"/><circle r="1" fill="#002934" transform="matrix(83.57194 18.0689 -4.4791 20.71664 68.4 197.5)"/><circle r="1" fill="#00343f" transform="rotate(-77.8 94.4 49.6)scale(14.43158 126.99996)"/><ellipse cx="12" cy="17" fill="#fff7e3" rx="28" ry="42"/><circle r="1" fill="#efe7d6" transform="rotate(102 -57.7 151.1)scale(17.58946 123.13191)"/><path fill="#00111f" d="m143 130-42-31-51 12z"/><circle r="1" fill="#fffce8" transform="rotate(-5.4 1698 -426)scale(34.35983 7.34583)"/><path fill="#00434c" d="M119.7 8.6 24.5 8l24.2 16.2L143 99.4z"/></g></g></svg>