<svg xmlns="http://www.w3.org/2000/svg" width="300" height="600"><g filter="blur(12px)"><rect width="200%" height="200%" x="-50%" y="-50%" fill="#a85b5b"/><rect width="100%" height="100%" fill="#a85b5b"/><g fill-opacity=".5" transform="translate(1.2 1.2)scale(2.34375)"><circle r="1" fill="#98d2c5" transform="matrix(24.71873 -66.36489 119.01262 44.32827 61.7 230.3)"/><circle r="1" fill="#2ec4c5" transform="matrix(88.02935 -6.92273 3.72364 47.34983 42 5.1)"/><path fill="#00082f" d="m83.4 86-52.9 3.6 105.4-51.8-7.8 35.5z"/><ellipse cx="47" cy="118" fill="#fe4c00" rx="127" ry="12"/><circle r="1" fill="#f1c0aa" transform="matrix(.121 23.10893 -61.6685 .3229 28.4 7.8)"/><circle r="1" fill="#1b1f17" transform="rotate(3.3 -2419 1413.9)scale(98.66054 6.92061)"/><circle r="1" fill="#00667d" transform="rotate(173.8 16 20.8)scale(58.77329 10.9473)"/><circle r="1" fill="#a47f55" transform="matrix(-1.89266 -27.09689 112.91156 -7.88662 21.7 183.9)"/></g></g></svg>