<svg xmlns="http://www.w3.org/2000/svg" width="300" height="600"><g filter="blur(12px)"><rect width="200%" height="200%" x="-50%" y="-50%" fill="#5587a9"/><rect width="100%" height="100%" fill="#5587a9"/><g fill-opacity=".5" transform="translate(1.2 1.2)scale(2.34375)"><circle cx="70" cy="82" r="184" fill="#e9554f"/><circle r="1" fill="#41a5c9" transform="rotate(76.2 -55.8 146)scale(13.31778 124.19917)"/><circle r="1" fill="#ea3f3a" transform="rotate(174.6 26.1 105.3)scale(82.63021 17.77781)"/><circle r="1" fill="#005795" transform="rotate(22.7 -229 303.7)scale(31.69723 12.67741)"/><circle r="1" fill="#005d9c" transform="rotate(170.4 7.5 65.7)scale(50.68848 8.1785)"/><circle r="1" fill="#fe9b90" transform="matrix(96.56087 -8.60956 1.98432 22.2552 65.7 0)"/><path fill="#087ab2" d="m-8.6 99.1-3.3-15.6 68.5-14.6 3.3 15.6z"/><circle r="1" fill="#e94843" transform="matrix(-29.34565 14.77535 -7.18329 -14.2669 48.9 101.9)"/></g></g></svg>