<svg xmlns="http://www.w3.org/2000/svg" width="300" height="600"><g filter="blur(12px)"><rect width="200%" height="200%" x="-50%" y="-50%" fill="#5886b3"/><rect width="100%" height="100%" fill="#5886b3"/><g fill-opacity=".5" transform="translate(1.2 1.2)scale(2.34375)"><circle r="1" fill="#b5d6e1" transform="matrix(113.85378 -56.27004 21.16474 42.82359 109.5 47.6)"/><ellipse cx="95" cy="255" fill="#ff6f50" rx="118" ry="25"/><path fill="#fff" d="m143 224.2-71.2-17.1-73.9 27.1 65.6-11.6z"/><circle r="1" fill="#ff563c" transform="matrix(66.08333 4.736 -.40923 5.71019 95.3 157.8)"/><path fill="#edfbee" d="m8 80 120-11-28-24z"/><ellipse cx="8" cy="163" fill="#1b4b8f" rx="39" ry="37"/><path fill="#145ba4" d="M95.3 36.3 12.5 43 62 9.1l6.4 62.5z"/><circle r="1" fill="#f8ffff" transform="rotate(-18.2 656.7 86)scale(40.22943 4.63683)"/></g></g></svg>