<svg xmlns="http://www.w3.org/2000/svg" width="300" height="600"><g filter="blur(12px)"><rect width="200%" height="200%" x="-50%" y="-50%" fill="#bf846f"/><rect width="100%" height="100%" fill="#bf846f"/><g fill-opacity=".5" transform="translate(1.2 1.2)scale(2.34375)"><circle r="1" fill="#e02d1b" transform="matrix(117.62607 -6.92448 3.6691 62.32694 69.3 166.7)"/><circle r="1" fill="#facdc2" transform="matrix(2.66973 -23.59503 90.88565 10.28354 76.2 79.3)"/><circle r="1" fill="#f9d6ce" transform="matrix(-77.1638 -3.10512 .67878 -16.86802 84.2 25)"/><circle r="1" fill="#f9fba9" transform="matrix(.0561 -6.50918 69.01682 .5949 41.5 190)"/><ellipse cx="81" cy="47" fill="#c70000" rx="105" ry="6"/><path fill="#e6dacb" d="M143 130 38 117l71 29z"/><circle r="1" fill="#e3c4b6" transform="matrix(-75.14736 -13.39215 1.1767 -6.60283 49.4 154.2)"/><circle r="1" fill="#c00c03" transform="rotate(97 -56 102.3)scale(9.64384 90.42968)"/></g></g></svg>