<svg xmlns="http://www.w3.org/2000/svg" width="300" height="600"><g filter="blur(12px)"><rect width="200%" height="200%" x="-50%" y="-50%" fill="#ae666c"/><rect width="100%" height="100%" fill="#ae666c"/><g fill-opacity=".5" transform="translate(1.2 1.2)scale(2.34375)"><ellipse cx="94" cy="29" fill="#002061" rx="127" ry="20"/><circle r="1" fill="#afe078" transform="matrix(-5.92254 55.41856 -114.21625 -12.2062 68.5 114.7)"/><circle r="1" fill="#e78100" transform="matrix(-.607 27.23677 -126.96847 -2.82965 54.7 207.5)"/><circle r="1" fill="#002f74" transform="matrix(.37994 8.7021 -111.62146 4.8735 38 250.3)"/><ellipse cx="48" cy="4" fill="#f4bc00" rx="55" ry="12"/><path fill="#ffc141" d="m110.2 148.6-86.5-28.1 12-37.1 86.6 28.1z"/><path fill="#47644f" d="m127 181-143-10 68-29z"/><circle r="1" fill="#3c6483" transform="matrix(-28.87204 43.18645 -25.12126 -16.79467 11.3 66)"/></g></g></svg>