<svg xmlns="http://www.w3.org/2000/svg" width="300" height="600"><g filter="blur(12px)"><rect width="200%" height="200%" x="-50%" y="-50%" fill="#ad9199"/><rect width="100%" height="100%" fill="#ad9199"/><g fill-opacity=".5" transform="translate(1.2 1.2)scale(2.34375)"><circle cx="51" cy="198" r="218" fill="#eddce3"/><circle r="1" fill="#ece7e9" transform="matrix(80.48215 -10.73861 3.87937 29.07452 68.8 252.5)"/><ellipse cx="21" cy="90" fill="#e9e1e4" rx="38" ry="26"/><circle r="1" fill="#bd9ca7" transform="matrix(69.98696 -33.08269 15.35896 32.49214 22.2 187.9)"/><circle r="1" fill="#e6dee1" transform="rotate(124.1 17.8 97.1)scale(14.66776 73.94702)"/><circle r="1" fill="#c1a3ae" transform="matrix(11.11333 -73.00907 76.94144 11.7119 121.5 48.6)"/><path fill="#e6dee1" d="m66 199.4 20.5 19L64 242.7l-20.5-19z"/><circle r="1" fill="#c0a1ac" transform="matrix(-15.90849 26.47617 -20.77809 -12.48473 105.2 193)"/></g></g></svg>