<svg xmlns="http://www.w3.org/2000/svg" width="300" height="600"><g filter="blur(12px)"><rect width="200%" height="200%" x="-50%" y="-50%" fill="#8c8983"/><rect width="100%" height="100%" fill="#8c8983"/><circle r="1" fill-opacity=".5" transform="matrix(-135.25344 -23.88867 9.48242 -53.68777 98 154.2)"/><circle r="1" fill="#ffffed" fill-opacity=".5" transform="matrix(-97.53455 -70.08569 36.57013 -50.89271 224.9 354.4)"/><circle r="1" fill-opacity=".5" transform="matrix(-159.88648 -41.05403 6.9724 -27.15426 81.7 586.2)"/><circle r="1" fill="#fff" fill-opacity=".5" transform="rotate(-147.1 105.8 202.4)scale(130.67942 32.87813)"/><circle r="1" fill-opacity=".5" transform="matrix(111.79866 40.81339 -7.42948 20.35132 256.6 277.7)"/><path fill="#fff" fill-opacity=".5" d="M-36.3 268.4 55 198l168.7 16.5z"/><circle r="1" fill-opacity=".5" transform="matrix(-116.48132 44.4799 -18.91157 -49.5245 36 157)"/><path fill-opacity=".5" d="m-19 264.4 168-17.7 3.6 35-167.8 17.6z"/></g></svg>