<svg xmlns="http://www.w3.org/2000/svg" width="300" height="600"><g filter="blur(12px)"><rect width="200%" height="200%" x="-50%" y="-50%" fill="#8e590a"/><rect width="100%" height="100%" fill="#8e590a"/><g fill-opacity=".5" transform="translate(1.2 1.2)scale(2.34375)"><circle r="1" fill="#fff0a7" transform="matrix(45.3942 -67.85617 86.0938 57.59476 51.3 124.3)"/><path fill="#fff" d="m126.1 266.2-127-4.4.8-20 127 4.4z"/><circle r="1" fill="#e90030" transform="matrix(-126.98433 -1.99483 .4283 -27.26395 74.3 217.6)"/><circle r="1" fill="#ed0029" transform="matrix(-122.38107 -33.93927 10.7968 -38.93203 86.4 19)"/><circle r="1" fill="#fed17a" transform="matrix(-124.42194 -11.98047 4.66337 -48.43095 47.3 123.9)"/><ellipse cx="57" cy="58" fill="#eb9a27" rx="41" ry="23"/><ellipse cx="59" cy="206" fill="#fcffff" rx="81" ry="2"/><circle r="1" fill="#f38200" transform="matrix(-.20804 6.6551 -90.19817 -2.81964 79.6 178.5)"/></g></g></svg>