<svg xmlns="http://www.w3.org/2000/svg" width="300" height="600"><g filter="blur(12px)"><rect width="200%" height="200%" x="-50%" y="-50%" fill="#546a96"/><rect width="100%" height="100%" fill="#546a96"/><circle r="1" fill="#fff6da" fill-opacity=".5" transform="matrix(-7.6308 -62.22159 167.51356 -20.5437 116.6 346)"/><circle r="1" fill="#ffffe9" fill-opacity=".5" transform="matrix(235.34002 -19.43424 5.1419 62.26602 122.1 14.8)"/><path fill="#fffcdd" fill-opacity=".5" d="m373.4 501.5 16 113.7-376 52.8-16-113.7z"/><circle r="1" fill="#101d47" fill-opacity=".5" transform="matrix(236.65704 23.0864 -10.00712 102.58222 156.8 182.3)"/><circle r="1" fill="#fbf789" fill-opacity=".5" transform="matrix(-4.58508 20.45134 -101.81502 -22.8264 69.3 488.3)"/><path fill="#000019" fill-opacity=".5" d="m336.3 380.9-225 79.6 147.7-103z"/><circle r="1" fill="#d8d888" fill-opacity=".5" transform="matrix(14.86343 18.95603 -60.25908 47.24915 218.8 454)"/><path fill="#021043" fill-opacity=".5" d="m8 414.1 172.5 4.3-32 72.4-30.1 2.6z"/></g></svg>