<svg xmlns="http://www.w3.org/2000/svg" width="300" height="600"><g filter="blur(12px)"><rect width="200%" height="200%" x="-50%" y="-50%" fill="#67989b"/><rect width="100%" height="100%" fill="#67989b"/><g fill-opacity=".5" transform="translate(1.2 1.2)scale(2.34375)"><circle r="1" fill="#ffffdf" transform="matrix(126.99606 1 -.45482 57.76112 65.8 45.2)"/><circle cx="71" cy="255" r="48" fill="#000713"/><circle r="1" fill="#00121f" transform="matrix(120.44498 1.47159 -.18426 15.08115 61.9 118.7)"/><circle r="1" fill="#ece2cd" transform="matrix(-5.45866 34.50012 -30.63536 -4.84718 11.6 206.6)"/><circle r="1" fill="#0f3f46" transform="rotate(94.1 -38.7 117.2)scale(13.45611 83.67116)"/><ellipse cx="78" cy="141" fill="#ffefdc" rx="127" ry="8"/><circle r="1" fill="#e7dac6" transform="matrix(-125.7947 -17.45546 4.70913 -33.9369 78.4 61.4)"/><path fill="#033f48" d="m44.9 254-60.9 3.9L105.4 196l-14.8 62.7z"/></g></g></svg>