<svg xmlns="http://www.w3.org/2000/svg" width="300" height="600"><g filter="blur(12px)"><rect width="200%" height="200%" x="-50%" y="-50%" fill="#a4826b"/><rect width="100%" height="100%" fill="#a4826b"/><g fill-opacity=".5" transform="translate(1.2 1.2)scale(2.34375)"><circle r="1" fill="#ede8e6" transform="matrix(45.21587 42.653 -61.7221 65.43076 71.1 225.6)"/><circle r="1" fill="#baa192" transform="matrix(120.37722 -10.76638 5.07668 56.76154 67.1 173.6)"/><ellipse cx="80" cy="246" fill="#edebe7" rx="127" ry="14"/><path fill="#d2c1b6" d="m28.4 175-44.4-8.1L.4 248.4l12.4-81.9z"/><circle r="1" fill="#a88977" transform="matrix(-107.60055 67.462 -65.1411 -103.89876 68.1 3.6)"/><path fill="#a37f6b" d="M0 136h66v31H0z"/><path fill="#97725c" d="m17 199.4 13-13.9 3.3-10.9-35.9 20z"/><path fill="#a17d68" d="m108 152-40-16 73-11z"/></g></g></svg>