<svg xmlns="http://www.w3.org/2000/svg" width="300" height="600"><g filter="blur(12px)"><rect width="200%" height="200%" x="-50%" y="-50%" fill="#a6985b"/><rect width="100%" height="100%" fill="#a6985b"/><g fill-opacity=".5" transform="translate(1.2 1.2)scale(2.34375)"><circle r="1" fill="#fdffdd" transform="matrix(-53.6781 111.37197 -114.4053 -55.14007 71.3 161.6)"/><circle r="1" fill="#0c4b97" transform="matrix(-126.94714 3.66393 -.47581 -16.48585 37.2 24.3)"/><circle r="1" fill="#758954" transform="matrix(-119.98983 5.43906 -.63762 -14.06646 71.5 133.6)"/><circle r="1" fill="#fcedb9" transform="rotate(175.4 33 47)scale(111.66469 29.4062)"/><circle r="1" fill="#f6fbd2" transform="matrix(6.76682 -16.30659 41.71175 17.30932 104.9 196)"/><ellipse cx="7" cy="48" fill="#d6e3ba" rx="39" ry="9"/><circle r="1" fill="#aa9e5e" transform="matrix(18.42137 24.30363 -14.72363 11.16003 39.8 251.9)"/><path fill="#d7e7c0" d="M92 37h36v15H92z"/></g></g></svg>