<svg xmlns="http://www.w3.org/2000/svg" width="300" height="600"><g filter="blur(12px)"><rect width="200%" height="200%" x="-50%" y="-50%" fill="#5dae84"/><rect width="100%" height="100%" fill="#5dae84"/><g fill-opacity=".5" transform="translate(1.2 1.2)scale(2.34375)"><circle cx="67" cy="129" r="144" fill="#ff6703"/><path fill="#fc9d56" d="m126.4 160.1-127-2.2 2.2-130 127 2.2z"/><ellipse cx="86" cy="23" fill="#002f0f" rx="127" ry="5"/><circle r="1" fill="#dc7316" transform="matrix(2.00788 24.70797 -126.58272 10.28666 93.6 172.6)"/><path fill="#003b10" d="m104.3 209.9 38.7 8.7-100.9-2.1L8.5 215z"/><path fill="#f69c49" d="m-19.3 260.3 1.9-36 176.7 9.4-1.9 36z"/><circle r="1" fill="#faad93" transform="matrix(119.54237 -1.7021 .09898 6.95153 75.5 202)"/><ellipse cx="71" cy="57" fill="#dcb6ac" rx="109" ry="7"/></g></g></svg>