<svg xmlns="http://www.w3.org/2000/svg" width="300" height="600"><g filter="blur(12px)"><rect width="200%" height="200%" x="-50%" y="-50%" fill="#a8965a"/><rect width="100%" height="100%" fill="#a8965a"/><g fill-opacity=".5" transform="translate(1.2 1.2)scale(2.34375)"><circle r="1" fill="#58302c" transform="matrix(122.25487 -18.70762 2.73198 17.8536 45.5 56.6)"/><ellipse cx="47" cy="193" fill="#17559d" rx="127" ry="7"/><circle r="1" fill="#0e0900" transform="rotate(99.8 -2.8 102.3)scale(4.90321 48.20275)"/><circle r="1" fill="#8392cd" transform="matrix(.12794 -10.61788 103.57284 1.24799 34.2 218.2)"/><circle r="1" fill="#ff713f" transform="rotate(172.9 26.4 45.8)scale(85.61549 13.84479)"/><circle r="1" fill="#ff544c" transform="matrix(81.36993 -.96196 .09846 8.32813 79 173.2)"/><path fill="#000800" d="m-2 142.2-1.8-5.7L60 115.8l1.9 5.7z"/><circle r="1" fill="#4f321f" transform="rotate(155.8 33.2 139.3)scale(31.74773 22.02741)"/></g></g></svg>