<svg xmlns="http://www.w3.org/2000/svg" width="300" height="600"><g filter="blur(12px)"><rect width="200%" height="200%" x="-50%" y="-50%" fill="#a18e5f"/><rect width="100%" height="100%" fill="#a18e5f"/><g fill-opacity=".5" transform="translate(1.2 1.2)scale(2.34375)"><ellipse cx="83" cy="222" fill="#2e0000" rx="94" ry="46"/><circle r="1" fill="#005697" transform="matrix(2.21175 11.06872 -69.26015 13.83954 33.8 126.8)"/><circle r="1" fill="#dad2df" transform="matrix(-114.31344 -4.5913 .64107 -15.96123 75.4 31.1)"/><circle r="1" fill="#cdc9c6" transform="matrix(1.7199 -19.79727 126.52344 10.99179 76.6 87)"/><circle r="1" transform="rotate(-108.8 124.5 40.5)scale(8.49341 26.35922)"/><circle r="1" fill="#611d1b" transform="matrix(20.9458 35.44741 -93.07031 54.99504 40.6 238.6)"/><ellipse cx="13" cy="182" fill="#f4c85e" rx="21" ry="13"/><circle r="1" fill="#002153" transform="matrix(28.94491 5.672 -1.5998 8.16395 75.9 241)"/></g></g></svg>