<svg xmlns="http://www.w3.org/2000/svg" width="300" height="600"><g filter="blur(12px)"><rect width="200%" height="200%" x="-50%" y="-50%" fill="#848077"/><rect width="100%" height="100%" fill="#848077"/><g fill-opacity=".5" transform="translate(1.2 1.2)scale(2.34375)"><circle r="1" fill="#fffff6" transform="matrix(7.69149 28.30938 -82.2891 22.35746 83 150)"/><circle r="1" fill="#fffdee" transform="rotate(8.7 -94.1 345.1)scale(46.28373 27.32226)"/><circle r="1" fill="#fffff8" transform="matrix(-35.46243 20.4164 -13.09315 -22.74225 14.3 224.1)"/><ellipse cx="127" cy="70" fill="#fffff5" rx="35" ry="37"/><circle r="1" fill="#222220" transform="matrix(-6.59984 -22.09562 47.83318 -14.2875 81.3 237.6)"/><circle r="1" fill="#2e2d2b" transform="matrix(-23.02306 4.0039 -7.52221 -43.25387 48.2 90)"/><circle r="1" fill="#f3eddf" transform="matrix(.86458 14.65317 -26.40482 1.55797 10 90.7)"/><ellipse cx="124" cy="185" fill="#f6efe1" rx="23" ry="19"/></g></g></svg>