<svg xmlns="http://www.w3.org/2000/svg" width="300" height="600"><g filter="blur(12px)"><rect width="200%" height="200%" x="-50%" y="-50%" fill="#547cac"/><rect width="100%" height="100%" fill="#547cac"/><g fill-opacity=".5" transform="translate(1.2 1.2)scale(2.34375)"><circle cx="107" cy="95" r="156" fill="#f4f3f4"/><circle r="1" fill="#416ba3" transform="matrix(-.99861 -22.36006 114.9966 -5.1358 77.7 100.6)"/><circle r="1" fill="#fff" transform="matrix(101.60681 -.46206 .05076 11.1624 72 137.2)"/><circle r="1" fill="#f1f4f4" transform="matrix(-126.23304 -13.93626 3.01116 -27.27472 83.4 193.2)"/><circle r="1" fill="#4a71a6" transform="rotate(177.5 18.4 16.2)scale(109.84295 14.49018)"/><circle r="1" fill="#7a96bd" transform="rotate(7.9 -1726.2 635.2)scale(127 24.02845)"/><circle r="1" fill="#587cac" transform="matrix(63.97578 .19745 -.02331 7.55367 72 157)"/><circle r="1" fill="#eceff1" transform="matrix(-.4167 -15.28293 65.20675 -1.7779 70 0)"/></g></g></svg>