<svg xmlns="http://www.w3.org/2000/svg" width="300" height="600"><g filter="blur(12px)"><rect width="200%" height="200%" x="-50%" y="-50%" fill="#8a9c55"/><rect width="100%" height="100%" fill="#8a9c55"/><g fill-opacity=".5" transform="translate(1.2 1.2)scale(2.34375)"><circle r="1" fill="#e4dfe3" transform="matrix(122.58903 33.18025 -19.21602 70.99624 44 252.8)"/><circle r="1" fill="#d6d7b1" transform="matrix(-75.895 -42.41628 17.32269 -30.9953 92 62.4)"/><path fill="#00003a" d="m70.3 108.2 79.9 26-2.5 7.6-79.9-26z"/><path fill="#00003e" d="m38.8 72.3-26.1-10 2.5-6.6 26.1 10z"/><ellipse cx="2" cy="37" fill="#d7d8b1" rx="22" ry="26"/><path fill="#d4d5ab" d="m-16 103.8 53.5 77.6-1.2-6.5-48.1 21.7z"/><path fill="#000049" d="m59 105 17 5-30-37z"/><circle cx="106" cy="37" r="32" fill="#b5be85"/></g></g></svg>