<svg xmlns="http://www.w3.org/2000/svg" width="300" height="600"><g filter="blur(12px)"><rect width="200%" height="200%" x="-50%" y="-50%" fill="#4b9974"/><rect width="100%" height="100%" fill="#4b9974"/><g fill-opacity=".5" transform="translate(1.2 1.2)scale(2.34375)"><circle cx="38" cy="74" r="185" fill="#946a23"/><path fill="#00482d" d="m-16 244 44-132 90 45z"/><ellipse cx="91" cy="209" fill="#f5b56a" rx="39" ry="34"/><path fill="#ffc279" d="m130.4-23.4-.8 49-122-2.2.8-49z"/><circle r="1" fill="#ffa94f" transform="matrix(-33.86516 31.52156 -13.45545 -14.45585 12.4 108)"/><circle r="1" fill="#ffbf76" transform="rotate(28.9 -201.2 286)scale(51.43467 11.73387)"/><path fill="#00381d" d="M47.5 99.2 52.6 79l103.9 25.9-5.1 20.3z"/><circle r="1" fill="#f3b66d" transform="matrix(-7.03249 -21.04702 46.30485 -15.47194 31.3 249.5)"/></g></g></svg>