<svg xmlns="http://www.w3.org/2000/svg" width="300" height="600"><g filter="blur(12px)"><rect width="200%" height="200%" x="-50%" y="-50%" fill="#a07159"/><rect width="100%" height="100%" fill="#a07159"/><g fill-opacity=".5" transform="translate(1.2 1.2)scale(2.34375)"><circle r="1" fill="#3d3657" transform="matrix(-.93485 99.90495 -108.91636 -1.01917 33.9 69.6)"/><circle r="1" fill="#ff4100" transform="rotate(92 -88.2 155.9)scale(29.07526 80.46896)"/><circle r="1" fill="#869dc8" transform="rotate(89.1 -71 118.7)scale(22.63802 126.99997)"/><circle r="1" fill="#ff7e02" transform="rotate(-149.7 50.2 59)scale(48.32962 9.89205)"/><path fill="#ff7e00" d="m121.3 4.2.3 10-100.9 3.6-.3-10z"/><path fill="#121c52" d="m45.1 207.6 58.7 21.8 39.2-10.1-20-10.9z"/><circle r="1" fill="#ff7804" transform="matrix(-23.42088 18.89827 -9.07248 -11.24364 .1 135.2)"/><ellipse cx="87" cy="62" fill="#342e52" rx="127" ry="23"/></g></g></svg>