<svg xmlns="http://www.w3.org/2000/svg" width="300" height="600"><g filter="blur(12px)"><rect width="200%" height="200%" x="-50%" y="-50%" fill="#bb6263"/><rect width="100%" height="100%" fill="#bb6263"/><g fill-opacity=".5" transform="translate(1.2 1.2)scale(2.34375)"><circle r="1" fill="#002500" transform="matrix(125.8669 -16.92698 3.64462 27.10094 85.4 235.2)"/><circle cx="46" cy="88" r="121" fill="#80ab8d"/><ellipse cx="51" cy="177" fill="#e1bbb7" rx="127" ry="27"/><circle r="1" fill="#675c5f" transform="matrix(-8.20208 -44.68963 74.3289 -13.6419 72.5 86.6)"/><path d="m119.7 145.2-90.5 9.5-.9-8 90.5-9.4z"/><circle r="1" fill="#ff5d00" transform="matrix(49.82738 -2.0336 .25796 6.32063 51.5 47.4)"/><circle r="1" fill="#ff7b00" transform="matrix(52.27874 -2.52957 .2674 5.52635 88 243.3)"/><circle r="1" fill="#002b23" transform="matrix(-.26821 -9.91123 69.43955 -1.87915 104.7 224.6)"/></g></g></svg>