<svg xmlns="http://www.w3.org/2000/svg" width="300" height="600"><g filter="blur(12px)"><rect width="200%" height="200%" x="-50%" y="-50%" fill="#849450"/><rect width="100%" height="100%" fill="#849450"/><g fill-opacity=".5" transform="translate(1.2 1.2)scale(2.34375)"><circle r="1" fill="#d55e1a" transform="matrix(68.05908 93.25565 -102.58544 74.86807 75.2 152.7)"/><circle r="1" fill="#a6cae6" transform="matrix(-5.8472 -25.26646 112.73409 -26.08905 55.8 14)"/><ellipse cx="106" cy="214" fill="#00005b" rx="127" ry="5"/><path fill="#005b83" d="m3 72 87 3 8-25z"/><ellipse cx="83" cy="165" fill="#f2ab0f" rx="121" ry="20"/><circle r="1" fill="#c80200" transform="matrix(113.413 -16.97008 1.3292 8.88323 94.7 121)"/><path fill="#00658e" d="M143 82.1 116.4 99-16 125.1l143.3-41.2z"/><circle r="1" fill="#f49e00" transform="matrix(3.14705 11.99585 -61.87444 16.23246 52.8 91.6)"/></g></g></svg>