<svg xmlns="http://www.w3.org/2000/svg" width="300" height="600"><g filter="blur(12px)"><rect width="200%" height="200%" x="-50%" y="-50%" fill="#6c948b"/><rect width="100%" height="100%" fill="#6c948b"/><circle r="1" fill="#fcfdff" fill-opacity=".5" transform="rotate(-.7 44401 -13581.8)scale(297.65625 104.54791)"/><circle r="1" fill="#fff" fill-opacity=".5" transform="matrix(291.88608 58.3246 -15.95308 79.83738 168.4 44.2)"/><circle r="1" fill="#e9eced" fill-opacity=".5" transform="rotate(.9 -2084.3 5288)scale(297.65625 49.68799)"/><circle r="1" fill="#8bada7" fill-opacity=".5" transform="matrix(268.61382 47.09254 -11.67739 66.60734 245 459.9)"/><path fill="#e2e7e7" fill-opacity=".5" d="M334 582.4-27 456l40 180.3z"/><circle r="1" fill="#84a6a2" fill-opacity=".5" transform="rotate(-155.7 134 55)scale(119.13417 70.8197)"/><path fill="#c3d5d4" fill-opacity=".5" d="m-8.4 376.2-16.7-5.9-11.2 73.1 104.3-34z"/><path fill="#fff" fill-opacity=".5" d="M-36.3 24.6 172.3 1.2-36.3-36.3z"/></g></svg>