<svg xmlns="http://www.w3.org/2000/svg" width="300" height="600"><g filter="blur(12px)"><rect width="200%" height="200%" x="-50%" y="-50%" fill="#5484ac"/><rect width="100%" height="100%" fill="#5484ac"/><g fill-opacity=".5" transform="translate(1.2 1.2)scale(2.34375)"><circle r="1" fill="#fff" transform="rotate(-173.9 39.5 94.6)scale(127 87.56571)"/><ellipse cx="56" cy="114" fill="#e1e9ec" rx="127" ry="184"/><ellipse cx="73" cy="81" fill="#286698" rx="120" ry="28"/><circle r="1" fill="#266395" transform="matrix(-47.54441 29.59379 -5.81101 -9.33579 21.5 157.9)"/><circle r="1" fill="#fff" transform="matrix(-11.5489 -35.88252 88.6845 -28.54336 77.3 243)"/><path fill="#00437f" d="m145.7 209-62.6-37.5 5.2-8.6 62.6 37.6z"/><circle r="1" fill="#fff" transform="matrix(-30.41321 21.8541 -14.46439 -20.12933 46.4 177.7)"/><circle r="1" fill="#fffffa" transform="matrix(.3974 11.9797 -72.76305 2.4138 49.5 43.2)"/></g></g></svg>