<svg xmlns="http://www.w3.org/2000/svg" width="300" height="600"><g filter="blur(12px)"><rect width="200%" height="200%" x="-50%" y="-50%" fill="#b6755e"/><rect width="100%" height="100%" fill="#b6755e"/><g fill-opacity=".5" transform="translate(1.2 1.2)scale(2.34375)"><circle r="1" fill="#e21b10" transform="matrix(-126.8523 -6.12314 3.88793 -80.5457 52.8 82.6)"/><circle r="1" fill="#fff7f2" transform="rotate(-1.7 5991.6 -2762.8)scale(114.3715 11.71233)"/><circle r="1" fill="#fadcd8" transform="matrix(-.92444 -16.12826 111.50612 -6.39132 60.7 227)"/><circle r="1" fill="#de0000" transform="matrix(-84.69405 3.84593 -.40986 -9.02572 58 199.9)"/><path fill="#fdffff" d="M49 54 16 38l-32 8z"/><ellipse cx="16" cy="68" fill="#f6ed98" rx="62" ry="7"/><path fill="#bc0100" d="m57 126 86-39-159 22z"/><circle r="1" fill="#e01912" transform="matrix(1.98456 14.14727 -39.65564 5.56285 81.3 255)"/></g></g></svg>