<svg xmlns="http://www.w3.org/2000/svg" width="300" height="600"><g filter="blur(12px)"><rect width="200%" height="200%" x="-50%" y="-50%" fill="#ab6e58"/><rect width="100%" height="100%" fill="#ab6e58"/><g fill-opacity=".5" transform="translate(1.2 1.2)scale(2.34375)"><circle r="1" fill="#ffd2c0" transform="rotate(37.3 -188.9 189.4)scale(113.50059 127)"/><circle r="1" fill="#c10000" transform="matrix(-2.87226 7.45752 -58.72812 -22.61909 52.2 192)"/><circle r="1" fill="#eadbcb" transform="rotate(-67 155.2 31)scale(28.39052 64.71046)"/><circle r="1" fill="#e44d27" transform="rotate(141.1 26.5 24.1)scale(37.88609 33.62105)"/><ellipse cx="113" cy="205" fill="#c31300" rx="66" ry="9"/><circle r="1" fill="#fedb82" transform="matrix(-72.01933 38.27952 -10.24253 -19.27036 3.5 12.5)"/><circle r="1" fill="#f7ffff" transform="rotate(-70.6 143.9 90)scale(9.30178 42.51016)"/><path fill="#c12308" d="m85.8 218.2-47.6-49.7-13.3-5-4.2 15.5z"/></g></g></svg>