<svg xmlns="http://www.w3.org/2000/svg" width="300" height="600"><g filter="blur(12px)"><rect width="200%" height="200%" x="-50%" y="-50%" fill="#64a07f"/><rect width="100%" height="100%" fill="#64a07f"/><g fill-opacity=".5" transform="translate(1.2 1.2)scale(2.34375)"><circle r="1" fill="#fff6f3" transform="matrix(.23685 19.32597 -126.99046 1.5563 71.8 221.1)"/><circle r="1" fill="#fff0ea" transform="rotate(-1.9 289.2 -1973)scale(126.55489 24.03323)"/><ellipse cx="106" cy="152" fill="#e4e5d8" rx="124" ry="18"/><circle r="1" fill="#085d33" transform="rotate(-13.3 268.6 -121)scale(63.08349 19.93084)"/><path fill="#016235" d="m-2 173.4 122.9 4.3-.9 25-122.9-4.4z"/><circle r="1" fill="#ffbf83" transform="matrix(2.82922 6.85435 -50.97216 21.03941 73.5 71.8)"/><path fill="#ffb96c" d="m112 82 30 30-57-19z"/><path fill="#004f25" d="M50 123h78v10H50z"/></g></g></svg>