<svg xmlns="http://www.w3.org/2000/svg" width="300" height="600"><g filter="blur(12px)"><rect width="200%" height="200%" x="-50%" y="-50%" fill="#7e7a71"/><rect width="100%" height="100%" fill="#7e7a71"/><g fill-opacity=".5" transform="translate(1.2 1.2)scale(2.34375)"><circle cx="38" cy="168" r="135" fill="#ffb600"/><circle r="1" transform="matrix(9.35195 -28.61086 120.7149 39.45774 78 12.8)"/><circle r="1" fill="#fff" transform="matrix(30.35325 6.89609 -3.3913 14.92684 27.2 55.1)"/><circle r="1" fill="#ff8a00" transform="matrix(66.01562 -55.68401 79.4173 94.15237 47 177.5)"/><path fill="#fff" d="m97.5 98.5 29.9-3.5L-16 31l99.2 65z"/><path fill="#000625" d="m143 209.3-21.2-14.9-102.3 4.7L143 178.8z"/><path fill="#122428" d="m59.3 188.1 46.6 9.2-55.7-.3-34.6-28.4z"/><path fill="#ffa20f" d="M28.2 39.6 143 105.1 56.1 25.2-16 47.5z"/></g></g></svg>