<svg xmlns="http://www.w3.org/2000/svg" width="300" height="600"><g filter="blur(12px)"><rect width="200%" height="200%" x="-50%" y="-50%" fill="#5c82a9"/><rect width="100%" height="100%" fill="#5c82a9"/><g fill-opacity=".5" transform="translate(1.2 1.2)scale(2.34375)"><circle cx="52" cy="108" r="181" fill="#ba4200"/><circle r="1" fill="#ff5400" transform="matrix(-.87445 15.64073 -121.88915 -6.81466 62 98)"/><circle r="1" fill="#b0dbd2" transform="matrix(69.98697 2.59818 -.39017 10.50998 69.7 59.3)"/><path fill="#7d86a6" d="m-1.8 226.3 1.6-89 142 2.4-1.6 89z"/><path fill="#3f190b" d="M3.5 11h127v34H3.5z"/><circle r="1" fill="#682500" transform="matrix(.28823 12.66534 -126.96713 2.8894 87.4 242.4)"/><circle r="1" fill="#000721" transform="matrix(60.87561 3.29424 -.3497 6.4623 67 119)"/><path fill="#004c90" d="M0 208h128v13H0z"/></g></g></svg>