<svg xmlns="http://www.w3.org/2000/svg" width="300" height="600"><g filter="blur(12px)"><rect width="200%" height="200%" x="-50%" y="-50%" fill="#569a6b"/><rect width="100%" height="100%" fill="#569a6b"/><circle r="1" fill="#e2ffe9" fill-opacity=".5" transform="rotate(93.4 7.7 136.2)scale(47.51756 189.25917)"/><circle r="1" fill="#007e12" fill-opacity=".5" transform="matrix(292.48659 -26.43016 8.71968 96.49547 78.2 363.7)"/><circle r="1" fill="#006f00" fill-opacity=".5" transform="matrix(-181.1093 4.2329 -1.4723 -62.99402 143.9 26)"/><path fill="#fff" fill-opacity=".5" d="m72.4 327.2 1.1-16.4 226.8 15.9-1.1 16.4z"/><circle r="1" fill="#fffffb" fill-opacity=".5" transform="matrix(243.05327 -19.55116 .851 10.57925 236.9 457)"/><path fill="#fff5f8" fill-opacity=".5" d="m99.6 308.2-136-7 54 25.8z"/><path fill="#008227" fill-opacity=".5" d="M1.2 345.7h211v114.8H1.1z"/><path fill="#36c474" fill-opacity=".5" d="m-1 474.9 297.7-5.2 2 112.5L1 587.4z"/></g></svg>