<svg xmlns="http://www.w3.org/2000/svg" width="300" height="600"><g filter="blur(12px)"><rect width="200%" height="200%" x="-50%" y="-50%" fill="#6c8662"/><rect width="100%" height="100%" fill="#6c8662"/><g fill-opacity=".5" transform="translate(1.2 1.2)scale(2.34375)"><circle cx="59" cy="214" r="85" fill="#ffb48c"/><circle r="1" fill="#ffd5b2" transform="rotate(72.6 13.4 49)scale(42.23799 127.00001)"/><circle r="1" fill="#004826" transform="matrix(95.54784 8.19323 -.90986 10.61064 69.5 219.6)"/><circle r="1" fill="#ffb58e" transform="rotate(6.8 -1421.6 700.3)scale(127 33.76917)"/><circle r="1" fill="#ffb796" transform="matrix(2.34502 -31.44233 123.50268 9.21101 111 25)"/><circle r="1" fill="#294e29" transform="rotate(93.9 -13 101.2)scale(14.9804 79.72249)"/><path fill="#ffbd99" d="m140.8 235-.7 18-174.9-6 .7-18z"/><path fill="#cd8a5c" d="m-16 87.5 159-49.2L-16 47l.5 43.2z"/></g></g></svg>