<svg xmlns="http://www.w3.org/2000/svg" width="300" height="600"><g filter="blur(12px)"><rect width="200%" height="200%" x="-50%" y="-50%" fill="#61729a"/><rect width="100%" height="100%" fill="#61729a"/><g fill-opacity=".5" transform="translate(1.2 1.2)scale(2.34375)"><circle r="1" fill="#082382" transform="matrix(-7.4316 34.66535 -109.92418 -23.5657 68.7 77)"/><circle r="1" fill="#cf9965" transform="matrix(-2.16875 16.94756 -38.39437 -4.91325 92.8 27.5)"/><circle r="1" fill="#9a8068" transform="matrix(3.52641 -38.44512 126.46908 11.60049 50.3 150.8)"/><path fill="#ffb75e" d="m7 31-23-45 59 34z"/><circle r="1" fill="#22557f" transform="matrix(126.99968 .28481 -.06801 30.32681 58.4 219.1)"/><ellipse cx="63" cy="255" fill="#ffa853" rx="66" ry="5"/><path fill="#1c5589" d="m59.2 39.6-55.3-3 56.9-18.7L83 65.1z"/><ellipse cx="86" cy="235" fill="#eea36f" rx="102" ry="2"/></g></g></svg>