<svg xmlns="http://www.w3.org/2000/svg" width="300" height="600"><g filter="blur(12px)"><rect width="200%" height="200%" x="-50%" y="-50%" fill="#5282a1"/><rect width="100%" height="100%" fill="#5282a1"/><g fill-opacity=".5" transform="translate(1.2 1.2)scale(2.34375)"><circle r="1" fill="#170000" transform="matrix(122.18444 -34.64047 8.91617 31.44927 66.5 249.4)"/><circle cx="35" cy="103" r="127" fill="#a07755"/><circle r="1" fill="#d0d3cc" transform="matrix(-58.65708 41.65183 -16.03334 -22.57929 42.7 152.6)"/><circle r="1" transform="rotate(-10.7 38.5 -410.3)scale(127 19.08782)"/><circle r="1" fill="#00000a" transform="rotate(77.1 -47 37.4)scale(14.16986 90.13271)"/><circle r="1" fill="#cdd9d8" transform="matrix(-21.05693 3.18456 -4.94257 -32.6812 109.6 146.4)"/><circle r="1" fill="#000105" transform="matrix(6.7416 10.5822 -19.1553 12.20327 89.6 212.2)"/><path fill="#11161c" d="m57 72 79 36-43 5z"/></g></g></svg>