<svg xmlns="http://www.w3.org/2000/svg" width="300" height="600"><g filter="blur(12px)"><rect width="200%" height="200%" x="-50%" y="-50%" fill="#a66b5d"/><rect width="100%" height="100%" fill="#a66b5d"/><g fill-opacity=".5" transform="translate(1.2 1.2)scale(2.34375)"><circle r="1" fill="#a00" transform="rotate(87.9 -17.2 83)scale(25.52603 70.39602)"/><circle r="1" fill="#ffcfa0" transform="matrix(126.98013 2.24655 -.31253 17.66513 37 181.6)"/><circle r="1" fill="#ffec9c" transform="matrix(-33.33373 -4.55608 2.03166 -14.8643 110.4 58.8)"/><path fill="#001a00" d="m143 205.2-98.3 15-60.7-9.7 60.4-4.1z"/><circle r="1" fill="#b40f09" transform="matrix(.46363 -12.06856 126.90637 4.87525 32.2 151.9)"/><ellipse cx="44" cy="20" fill="#c13f33" rx="127" ry="20"/><path fill="#fccb8e" d="M43 37h40v15H43z"/><circle r="1" fill="#dc6156" transform="matrix(-2.1719 -31.85854 100.68858 -6.86426 56.7 246.3)"/></g></g></svg>