<svg xmlns="http://www.w3.org/2000/svg" width="300" height="600"><g filter="blur(12px)"><rect width="200%" height="200%" x="-50%" y="-50%" fill="#5489aa"/><rect width="100%" height="100%" fill="#5489aa"/><g fill-opacity=".5" transform="translate(1.2 1.2)scale(2.34375)"><ellipse cx="72" cy="120" fill="#ff3400" rx="126" ry="156"/><path fill="#00242e" d="m-58.3 143.2-1.2-35 213.8-7.4 1.2 35z"/><circle r="1" fill="#ff591b" transform="matrix(-126.86926 5.7611 -3.84852 -84.75094 59.3 21.5)"/><circle r="1" fill="#e7a37c" transform="rotate(-81.6 140 48.8)scale(31.87897 76.179)"/><path fill="#100424" d="M126 233-5 198l47 36z"/><circle r="1" fill="#dd73cb" transform="matrix(82.80989 -12.02805 1.47434 10.15045 75.1 72.9)"/><circle r="1" fill="#dc6c00" transform="matrix(.54637 -11.5549 53.72126 2.5402 66.2 244.6)"/><ellipse cx="92" cy="150" fill="#f16a00" rx="120" ry="9"/></g></g></svg>