<svg xmlns="http://www.w3.org/2000/svg" width="300" height="600"><g filter="blur(12px)"><rect width="200%" height="200%" x="-50%" y="-50%" fill="#ac8f57"/><rect width="100%" height="100%" fill="#ac8f57"/><g fill-opacity=".5" transform="translate(1.2 1.2)scale(2.34375)"><circle r="1" fill="red" transform="rotate(170.9 26.4 75)scale(91.2458 46.03697)"/><circle r="1" fill="#fffee9" transform="matrix(.53717 -25.64445 123.78058 2.59283 49.2 71.3)"/><circle r="1" fill="#ff0006" transform="matrix(2.01379 18.61518 -126.1709 13.64914 87.3 246)"/><circle r="1" fill="#ff3e3e" transform="rotate(98.9 19.4 21.6)scale(26.91587 127)"/><circle r="1" fill="#f9d6ac" transform="matrix(-2.56035 -20.55572 118.1882 -14.72112 88.1 205)"/><circle r="1" fill="#fd3121" transform="matrix(-8.50713 19.08667 -98.65662 -43.97228 50.6 139)"/><circle r="1" fill="#e9b07b" transform="matrix(126.83848 6.40313 -.64423 12.76152 30.2 37.4)"/><ellipse cx="24" cy="100" fill="#ed9e76" rx="71" ry="10"/></g></g></svg>