<svg xmlns="http://www.w3.org/2000/svg" width="300" height="600"><g filter="blur(12px)"><rect width="200%" height="200%" x="-50%" y="-50%" fill="#807386"/><rect width="100%" height="100%" fill="#807386"/><g fill-opacity=".5" transform="translate(1.2 1.2)scale(2.34375)"><circle r="1" fill="#fffff1" transform="rotate(-179 25.5 36)scale(127 18.05383)"/><circle r="1" fill="#eccea1" transform="rotate(-1.6 7118.8 -2652.2)scale(127 31.00563)"/><circle r="1" fill="#2d1e2d" transform="rotate(-82.6 43.2 -19)scale(27.17025 110.52054)"/><circle r="1" fill="#ffd252" transform="matrix(-.56422 -12.42515 75.23965 -3.41661 40.7 113.1)"/><circle r="1" fill="#27162a" transform="matrix(-102.7097 4.43268 -.68028 -15.76273 46.7 140.8)"/><circle r="1" fill="#100932" transform="matrix(.13342 5.45905 -82.2944 2.01123 75.3 205.2)"/><path fill="#090014" d="m-6 244.7-10-11.4 149.9-.1 9.1 11.1z"/><ellipse cx="60" cy="222" fill="#ffd384" rx="127" ry="9"/></g></g></svg>