<svg xmlns="http://www.w3.org/2000/svg" width="300" height="600"><g filter="blur(12px)"><rect width="200%" height="200%" x="-50%" y="-50%" fill="#89867d"/><rect width="100%" height="100%" fill="#89867d"/><g fill-opacity=".5" transform="translate(1.2 1.2)scale(2.34375)"><ellipse cx="40" cy="128" fill="#bfb9ad" rx="88" ry="255"/><circle r="1" transform="matrix(-36.36464 -16.57232 3.68932 -8.09548 107 218)"/><circle r="1" fill="#1f1e1c" transform="matrix(-37.77013 -5.3931 1.44363 -10.11037 60 129.5)"/><circle r="1" fill="#3e3c3a" transform="matrix(-20.67024 -19.88073 9.769 -10.15695 42.2 179.1)"/><path d="M36.1 39.9-16 18.4l32.4 3.3L31.2 4.3z"/><path fill="#fffffe" d="M94 0h21v44H94z"/><circle r="1" fill="#f4eddf" transform="matrix(1.53933 -8.34687 124.89389 23.03295 114.4 98)"/><path fill="#030303" d="M22 49h13v31H22z"/></g></g></svg>