<svg xmlns="http://www.w3.org/2000/svg" width="300" height="600"><g filter="blur(12px)"><rect width="200%" height="200%" x="-50%" y="-50%" fill="#5c94a4"/><rect width="100%" height="100%" fill="#5c94a4"/><g fill-opacity=".5" transform="translate(1.2 1.2)scale(2.34375)"><circle cx="52" cy="111" r="159" fill="#e2a16a"/><circle r="1" fill="#334e68" transform="rotate(-92.5 62.4 15.8)scale(37.08798 119.93915)"/><circle r="1" fill="#f6d090" transform="matrix(.86262 -30.8823 125.043 3.49277 75.9 145)"/><circle r="1" fill="#ffe1aa" transform="rotate(166.8 -7.5 124.2)scale(127 20.96893)"/><path fill="#fff7b9" d="m60.2 68 1.3-9.7 72.1 7.6-17.2 11.7z"/><ellipse cx="38" cy="24" fill="#000034" rx="126" ry="3"/><path fill="#000037" d="m73.3 59.5 65.2 4.1 4.5-15.7-75.7-4.1z"/><path fill="#fff9b2" d="m26.1 69.2-30.2 3.7.9-9.1 54.1-16.3z"/></g></g></svg>