<svg xmlns="http://www.w3.org/2000/svg" width="300" height="600"><g filter="blur(12px)"><rect width="200%" height="200%" x="-50%" y="-50%" fill="#8f7485"/><rect width="100%" height="100%" fill="#8f7485"/><g fill-opacity=".5" transform="translate(1.2 1.2)scale(2.34375)"><circle r="1" fill="#000005" transform="matrix(6.46208 -28.9097 98.40473 21.99606 51.2 238.1)"/><circle r="1" fill="#2a1928" transform="matrix(-.13612 41.60603 -126.55814 -.41405 70.1 35.4)"/><ellipse cx="86" cy="169" fill="#2f1c2c" rx="64" ry="17"/><circle r="1" fill="#ffffe4" transform="matrix(.32745 7.82732 -100.92298 4.22207 28.5 125.6)"/><ellipse cx="20" cy="108" fill="#000006" rx="115" ry="7"/><circle r="1" fill="#fbb0c0" transform="rotate(-84.2 89.5 1)scale(11.91441 82.59801)"/><circle r="1" fill="#593d4e" transform="matrix(-93.28754 14.12608 -4.5034 -29.74007 42.9 162.7)"/><path fill="#f1a3bc" d="M43.8 208.9 58 178l28.1 13.1L72 222z"/></g></g></svg>