<svg xmlns="http://www.w3.org/2000/svg" width="300" height="600"><g filter="blur(12px)"><rect width="200%" height="200%" x="-50%" y="-50%" fill="#9c6869"/><rect width="100%" height="100%" fill="#9c6869"/><g fill-opacity=".5" transform="translate(1.2 1.2)scale(2.34375)"><circle r="1" fill="#1e3237" transform="matrix(113.96714 .64089 -.1721 30.60337 59 139.9)"/><ellipse cx="61" cy="17" fill="#f0fa82" rx="96" ry="13"/><circle r="1" fill="#3d1130" transform="matrix(1.58434 -17.68184 86.2762 7.73057 89.5 231.2)"/><circle r="1" fill="#e74912" transform="matrix(-112.77438 -2.80208 .5878 -23.65719 85.6 88.3)"/><circle r="1" fill="#edd285" transform="matrix(-111.30022 15.30044 -1.46979 -10.69171 33 195)"/><circle r="1" fill="#c82d0e" transform="matrix(-11.4013 17.64002 -87.07095 -56.27672 14.7 232)"/><ellipse cx="79" cy="36" fill="#66b8a8" rx="127" ry="9"/><circle r="1" fill="#005ba6" transform="matrix(-32.18726 -10.02521 2.28099 -7.32342 86.3 221.5)"/></g></g></svg>