<svg xmlns="http://www.w3.org/2000/svg" width="300" height="600"><g filter="blur(12px)"><rect width="200%" height="200%" x="-50%" y="-50%" fill="#686396"/><rect width="100%" height="100%" fill="#686396"/><g fill-opacity=".5" transform="translate(1.2 1.2)scale(2.34375)"><circle r="1" fill="#ff6d00" transform="rotate(176.3 28.4 5.3)scale(124.31123 34.08363)"/><circle r="1" fill="#c8c2b9" transform="matrix(-4.62447 -48.01628 124.10512 -11.95263 80.7 132.2)"/><circle r="1" fill="#ffffe2" transform="rotate(-7.8 1851.5 -143.6)scale(84.62905 12.13121)"/><circle r="1" fill="#ff6000" transform="rotate(-92 24.4 -11.4)scale(27.84881 114.4094)"/><ellipse cx="104" cy="63" fill="#201e53" rx="81" ry="21"/><path fill="#ffffec" d="m9.2 54.9 46.7 34.6L25.3 85-6.4 70.3z"/><circle r="1" fill="#201c5f" transform="matrix(.62001 7.87801 -53.97085 4.2476 83 96.6)"/><path fill="#fffde3" d="m100.9 104.3 3.8-7.6L143 114l-154.4-1z"/></g></g></svg>