<svg xmlns="http://www.w3.org/2000/svg" width="300" height="600"><g filter="blur(12px)"><rect width="200%" height="200%" x="-50%" y="-50%" fill="#6a9354"/><rect width="100%" height="100%" fill="#6a9354"/><g fill-opacity=".5" transform="translate(1.2 1.2)scale(2.34375)"><circle cx="75" cy="191" r="173" fill="#f73d51"/><circle r="1" fill="#d20000" transform="rotate(-178.1 42.2 26.6)scale(114.54789 24.73105)"/><ellipse cx="69" cy="146" fill="#7bb378" rx="127" ry="29"/><circle r="1" fill="#e6e5d1" transform="rotate(-96.9 36 -31.9)scale(12.37278 98.81768)"/><circle r="1" fill="#9affc9" transform="matrix(-117.47802 -9.45206 .60778 -7.55399 40 88.4)"/><circle r="1" fill="#ca0000" transform="matrix(.2654 -8.93637 99.86175 2.96582 66.3 109.3)"/><path fill="#f8c3c3" d="M118.3 205.6 45.5 271l64.6-85.1-63.2-2.3z"/><path fill="#e6172a" d="m81.2 151.4 46.2 18.8-71.4-1.9-23.6-8.5z"/></g></g></svg>