<svg xmlns="http://www.w3.org/2000/svg" width="300" height="600"><g filter="blur(12px)"><rect width="200%" height="200%" x="-50%" y="-50%" fill="#6b829c"/><rect width="100%" height="100%" fill="#6b829c"/><g fill-opacity=".5" transform="translate(1.2 1.2)scale(2.34375)"><circle r="1" fill="#f7ecd8" transform="rotate(-154.3 35 35.3)scale(113.64781 24.36708)"/><circle r="1" fill="#001649" transform="matrix(58.95849 23.03406 -6.77644 17.34512 98.6 148.1)"/><circle r="1" fill="#1b2f55" transform="matrix(75.70927 22.10099 -6.50092 22.2696 73 28.9)"/><circle cx="14" cy="166" r="44" fill="#cbca9e"/><ellipse cx="103" cy="246" fill="#bdbebc" rx="44" ry="29"/><circle r="1" fill="#c7c8c5" transform="rotate(-178 17.2 37.7)scale(48.44663 30.58387)"/><path fill="#fff8e0" d="m33.7 243.1-43.3.9 63.2 9 12.7-13z"/><path fill="#00104a" d="M-11.3 118.1 1.2 98.8l20.1 13-12.5 19.4z"/></g></g></svg>