<svg xmlns="http://www.w3.org/2000/svg" width="300" height="600"><g filter="blur(12px)"><rect width="200%" height="200%" x="-50%" y="-50%" fill="#619ba9"/><rect width="100%" height="100%" fill="#619ba9"/><g fill-opacity=".5" transform="translate(1.2 1.2)scale(2.34375)"><circle r="1" fill="#0f4355" transform="matrix(-5.1021 -23.2057 124.03739 -27.27139 115.6 207.2)"/><circle r="1" fill="#3a503f" transform="matrix(-9.2514 -26.50474 77.26765 -26.97006 75.6 87.3)"/><circle r="1" fill="#cccbbc" transform="matrix(105.42484 -34.74472 11.88812 36.07176 46.2 163.8)"/><circle r="1" fill="#ffffe3" transform="rotate(86.9 -91.5 173)scale(16.04421 94.99376)"/><path fill="#ffe05d" d="m-16 85.4 47.1-6.6L143 72.3 37.5 96z"/><path fill="#fde7d0" d="M0 0h128v17H0z"/><ellipse cx="113" cy="185" fill="#024158" rx="25" ry="18"/><circle r="1" fill="#004269" transform="matrix(3.20533 13.9952 -46.52274 10.65513 63.7 108.3)"/></g></g></svg>