<svg xmlns="http://www.w3.org/2000/svg" width="300" height="600"><g filter="blur(12px)"><rect width="200%" height="200%" x="-50%" y="-50%" fill="#60839c"/><rect width="100%" height="100%" fill="#60839c"/><g fill-opacity=".5" transform="translate(1.2 1.2)scale(2.34375)"><circle r="1" fill="#0c1e23" transform="matrix(126.66537 9.2133 -9.0869 124.92773 62.4 162.4)"/><path fill="#0d2125" d="m140.6-.7-17.2 42.6L21.4.7l17.2-42.6z"/><ellipse cx="100" cy="183" fill="#71aac8" rx="127" ry="8"/><ellipse cx="104" cy="94" fill="#0a1014" rx="109" ry="18"/><circle r="1" fill="#6397b1" transform="matrix(-3.24081 -10.21634 121.05516 -38.40096 62 57)"/><circle r="1" fill="#0b1114" transform="matrix(-33.99962 9.11017 -2.29498 -8.56498 63.2 170)"/><circle r="1" fill="#74afce" transform="matrix(.47941 3.18736 -48.40733 7.28097 67.2 233)"/><circle r="1" transform="matrix(-18.14565 5.34056 -1.56623 -5.32158 3.7 14.7)"/></g></g></svg>