<svg xmlns="http://www.w3.org/2000/svg" width="300" height="600"><g filter="blur(12px)"><rect width="200%" height="200%" x="-50%" y="-50%" fill="#a76961"/><rect width="100%" height="100%" fill="#a76961"/><g fill-opacity=".5" transform="translate(1.2 1.2)scale(2.34375)"><circle r="1" fill="#294600" transform="matrix(-6.72099 28.65508 -123.64452 -29.00056 48.2 103.8)"/><ellipse cx="81" cy="28" fill="#d7cbc3" rx="80" ry="35"/><circle r="1" fill="#bacc87" transform="rotate(101.4 -61.9 139.8)scale(60.14092 127)"/><circle r="1" fill="#0d7a99" transform="matrix(1.64057 -13.09685 90.06509 11.28193 76.7 160.1)"/><circle r="1" fill="#ff9500" transform="rotate(-85.7 103.4 22)scale(5.69728 85.36982)"/><circle r="1" fill="#002732" transform="rotate(-116.5 21.3 31.8)scale(32.5907 15.17923)"/><circle r="1" fill="#00044d" transform="rotate(103.2 -13.5 66.7)scale(6.73298 60.62879)"/><circle r="1" fill="#feb21c" transform="matrix(-1.35042 8.67863 -81.14766 -12.62677 62.9 204)"/></g></g></svg>