<svg xmlns="http://www.w3.org/2000/svg" width="300" height="600"><g filter="blur(12px)"><rect width="200%" height="200%" x="-50%" y="-50%" fill="#a4746c"/><rect width="100%" height="100%" fill="#a4746c"/><g fill-opacity=".5" transform="translate(1.2 1.2)scale(2.34375)"><circle cx="87" cy="4" r="70" fill="#010900"/><circle r="1" transform="rotate(15.4 -622.2 239.8)scale(91.07915 14.46424)"/><ellipse cx="84" cy="154" fill="#ff8b39" rx="49" ry="29"/><circle r="1" transform="rotate(87.6 12.5 25.8)scale(8.64032 94.09773)"/><path d="m47 93.8-48.9 33-11.1-16.6 48.9-33z"/><circle r="1" fill="#ff8f47" transform="matrix(-55.06766 7.70111 -2.5889 -18.51226 43 126.5)"/><circle r="1" fill="#ffdfa7" transform="matrix(9.58118 16.14013 -18.72796 11.11739 111.1 87.7)"/><path fill="#ff8736" d="M143 29.6 10 33.9l-26-4L123.1 12z"/></g></g></svg>