<svg xmlns="http://www.w3.org/2000/svg" width="300" height="600"><g filter="blur(12px)"><rect width="200%" height="200%" x="-50%" y="-50%" fill="#a66657"/><rect width="100%" height="100%" fill="#a66657"/><circle r="1" fill="#710000" fill-opacity=".5" transform="matrix(269.3401 -13.64418 3.01885 59.593 127.1 146.7)"/><circle r="1" fill="#daf8c1" fill-opacity=".5" transform="rotate(74.8 -240.6 362.7)scale(49.30193 260.83368)"/><circle r="1" fill="#22041c" fill-opacity=".5" transform="rotate(79.2 -180.2 289.4)scale(40.74981 202.88365)"/><circle r="1" fill="#c3d89b" fill-opacity=".5" transform="matrix(-.36213 -41.49636 197.36684 -1.7224 166.8 246)"/><circle r="1" fill="#3a5c54" fill-opacity=".5" transform="matrix(9.40639 -59.62144 294.01953 46.38703 250.7 54.8)"/><circle r="1" fill="#1b1f3b" fill-opacity=".5" transform="matrix(-244.19392 20.9348 -1.56924 -18.30444 87.3 320.9)"/><circle r="1" fill="#c30000" fill-opacity=".5" transform="matrix(136.27955 38.62666 -9.19467 32.4399 260.4 159.8)"/><circle r="1" fill="#6f9c99" fill-opacity=".5" transform="matrix(-3.56073 -30.33461 239.9917 -28.17065 181.3 352)"/></g></svg>