<svg xmlns="http://www.w3.org/2000/svg" width="300" height="600"><g filter="blur(12px)"><rect width="200%" height="200%" x="-50%" y="-50%" fill="#4d8b98"/><rect width="100%" height="100%" fill="#4d8b98"/><g fill-opacity=".5" transform="translate(1.2 1.2)scale(2.34375)"><circle cx="91" cy="121" r="160" fill="#89681f"/><circle r="1" fill="#ffdd47" transform="matrix(-116.56432 -29.06275 3.34208 -13.40434 49.5 243.5)"/><circle r="1" fill="#ffc936" transform="matrix(115.13215 30.84957 -3.97785 14.84554 101.4 90.2)"/><circle r="1" fill="#13536c" transform="matrix(-65.4822 -33.3145 19.3329 -38.00031 70 190.4)"/><ellipse cx="83" cy="132" fill="#ffe668" rx="127" ry="7"/><circle r="1" fill="#002e65" transform="rotate(-156.3 24.6 47.4)scale(65.50469 15.94909)"/><path fill="#ffd750" d="M52.5 26.3 27.7 10.4 143 26.6l-37.8 5.8z"/><circle r="1" fill="#ffbd3e" transform="matrix(.52752 4.35622 -51.0696 6.18437 102.4 211.8)"/></g></g></svg>