<svg xmlns="http://www.w3.org/2000/svg" width="300" height="600"><g filter="blur(12px)"><rect width="200%" height="200%" x="-50%" y="-50%" fill="#72618e"/><rect width="100%" height="100%" fill="#72618e"/><g fill-opacity=".5" transform="translate(1.2 1.2)scale(2.34375)"><circle r="1" fill="#008b09" transform="matrix(-.00155 36.67922 -64.50116 -.00272 57 19.8)"/><circle r="1" fill="#bfa7e7" transform="matrix(106.9543 7.85423 -3.8025 51.78008 93 125.6)"/><ellipse cx="64" cy="243" fill="#008500" rx="127" ry="15"/><circle r="1" fill="#e5ceff" transform="matrix(91.26745 -1.75894 .20544 10.65964 60 217.5)"/><circle r="1" fill="#b8a5e8" transform="matrix(-.50804 -4.66185 65.5279 -7.14111 113.2 16.8)"/><circle r="1" fill="#006b18" transform="matrix(-2.61801 -17.18421 125.5513 -19.12773 65 0)"/><circle r="1" fill="#bfaae5" transform="rotate(-122.2 91.4 29.6)scale(39.79151 18.51297)"/><path fill="#006c0d" d="M88 20h40v11H88z"/></g></g></svg>