<svg xmlns="http://www.w3.org/2000/svg" width="300" height="600"><g filter="blur(12px)"><rect width="200%" height="200%" x="-50%" y="-50%" fill="#b38058"/><rect width="100%" height="100%" fill="#b38058"/><g fill-opacity=".5" transform="translate(1.2 1.2)scale(2.34375)"><circle cx="81" cy="113" r="185" fill="#ffba8e"/><circle r="1" fill="#e9dbc4" transform="matrix(-119.10751 8.0645 -1.04298 -15.40413 57 116.7)"/><circle r="1" fill="#d36c35" transform="rotate(-94.2 92.1 59.3)scale(19.20343 126.99997)"/><circle r="1" fill="#e9d9c3" transform="matrix(-.2773 -9.95379 126.95075 -3.5367 32.2 68.9)"/><path fill="#d4723b" d="m-16 209 104 12 55-37z"/><circle r="1" fill="#d67c48" transform="matrix(-.56906 -8.15553 106.12565 -7.40504 58.3 91.4)"/><circle r="1" fill="#e5c1a1" transform="rotate(-5 2179 -434)scale(60.87492 8.79324)"/><path fill="#d67a45" d="M129 263.2 2.2 269.8l-1.2-23 126.8-6.6z"/></g></g></svg>