<svg xmlns="http://www.w3.org/2000/svg" width="300" height="600"><g filter="blur(12px)"><rect width="200%" height="200%" x="-50%" y="-50%" fill="#797c52"/><rect width="100%" height="100%" fill="#797c52"/><g fill-opacity=".5" transform="translate(1.2 1.2)scale(2.34375)"><circle cx="84" cy="81" r="163" fill="#ffffed"/><path fill="#001030" d="m-16 196.4 57.1-29.3 92.4 7.2-26.6 12.9z"/><circle r="1" fill="#fde7a7" transform="rotate(-31.5 171 -58.2)scale(109.51657 82.57906)"/><circle r="1" fill="#719cb4" transform="matrix(106.09006 .47269 -.06743 15.13372 51.3 245.5)"/><path fill="#fff7c1" d="m143 226-159-1 55-44z"/><path fill="#003250" d="m24.3 180 60.2 12.3 58.5-22.2-129.9 8.6z"/><ellipse cx="39" cy="255" fill="#ffffc1" rx="119" ry="3"/><path fill="#001430" d="m-12.7 226.3 95.6 8.4-.2 3-95.6-8.4z"/></g></g></svg>