<svg xmlns="http://www.w3.org/2000/svg" width="300" height="600"><g filter="blur(12px)"><rect width="200%" height="200%" x="-50%" y="-50%" fill="#5270ac"/><rect width="100%" height="100%" fill="#5270ac"/><g fill-opacity=".5" transform="translate(1.2 1.2)scale(2.34375)"><circle cx="60" cy="97" r="146" fill="#d4bc8d"/><path d="M0 241h128v15H0z"/><circle r="1" fill="#f0f1e9" transform="matrix(-1.02457 18.38179 -49.61334 -2.76537 106.6 110.4)"/><path fill="#e1e5e4" d="m39 244 104-23-159-25z"/><circle r="1" fill="#002" transform="matrix(.2097 2.85569 -52.19278 3.8328 67.9 17.7)"/><path fill="#363641" d="M41.7 102.4-16 185.9l75.8-36.8-57.9-7.7z"/><circle r="1" fill="#000020" transform="matrix(-.23513 -4.88517 60.59295 -2.9164 48.6 0)"/><path fill="#ffea7c" d="M31.6 19.4 143 3.1l-87.8-.5-71.2 9.8z"/></g></g></svg>