<svg xmlns="http://www.w3.org/2000/svg" width="300" height="600"><g filter="blur(12px)"><rect width="200%" height="200%" x="-50%" y="-50%" fill="#7a7e7d"/><rect width="100%" height="100%" fill="#7a7e7d"/><g fill-opacity=".5" transform="translate(1.2 1.2)scale(2.34375)"><ellipse cx="76" cy="68" fill="#fea676" rx="127" ry="85"/><circle r="1" fill="#864d1e" transform="matrix(-120.08086 41.34716 -28.2766 -82.1212 96.4 201)"/><circle r="1" fill="#003e7c" transform="rotate(176.9 21.3 109.3)scale(93.95312 16.58878)"/><circle r="1" fill="#ffc241" transform="rotate(-177 32.7 92.9)scale(93.27867 7.72374)"/><path fill="#bbc5c1" d="M1 24.1 128 22l1 56L2 80z"/><circle r="1" fill="#b82923" transform="rotate(-90.8 26.1 -25.7)scale(23.586 111.97951)"/><path d="m53 146-37 17 78-2z"/><path d="m89.4 161.6 41.8-13.6 3.4 10.4L92.8 172z"/></g></g></svg>