<svg xmlns="http://www.w3.org/2000/svg" width="300" height="600"><g filter="blur(12px)"><rect width="200%" height="200%" x="-50%" y="-50%" fill="#5f859e"/><rect width="100%" height="100%" fill="#5f859e"/><g fill-opacity=".5" transform="translate(1.2 1.2)scale(2.34375)"><circle cx="53" cy="126" r="143" fill="#b97b4f"/><circle r="1" fill="#1373b4" transform="matrix(-81.60693 7.57045 -2.33494 -25.16987 91.5 183.8)"/><circle r="1" fill="#e09353" transform="matrix(8.91953 -14.05494 76.21465 48.36729 28.9 31.3)"/><circle cx="34" cy="123" r="45" fill="#c38259"/><circle r="1" fill="#2478ad" transform="matrix(-1.30726 13.19705 -56.7698 -5.62345 11.8 68)"/><path fill="#ffbd55" d="m18.2 240.5-19.8 19.3 121.8-8.1-86.4-2.6z"/><path fill="#ffbc53" d="m19 211.3 47 18.3-82-28 30.9-4.3z"/><circle r="1" fill="#477e9c" transform="matrix(38.0775 -14.0098 6.194 16.8348 91.8 161.3)"/></g></g></svg>