<svg xmlns="http://www.w3.org/2000/svg" width="300" height="600"><g filter="blur(12px)"><rect width="200%" height="200%" x="-50%" y="-50%" fill="#a45e5e"/><rect width="100%" height="100%" fill="#a45e5e"/><g fill-opacity=".5" transform="translate(1.2 1.2)scale(2.34375)"><circle cx="47" cy="196" r="127" fill="#c0c0b6"/><circle r="1" fill="#00071b" transform="matrix(-89.3504 -8.76982 .92326 -9.40658 84.8 192.5)"/><circle r="1" fill="#001c2c" transform="matrix(-1.48619 -7.6797 43.32207 -8.38377 103 71.3)"/><circle r="1" fill="#c9e6c5" transform="matrix(126.6085 9.9643 -1.1437 14.5322 126 100.7)"/><path fill="#002131" d="m55 55-71 24 31-28z"/><circle r="1" fill="#002b38" transform="matrix(21.7931 12.55324 -3.65453 6.34447 66.5 69.5)"/><path fill="#003744" d="M76 0h52v10H76z"/><path fill="#00303e" d="m-51 171 2.5-9.7L77.1 195l-2.6 9.7z"/></g></g></svg>