<svg xmlns="http://www.w3.org/2000/svg" width="300" height="600"><g filter="blur(12px)"><rect width="200%" height="200%" x="-50%" y="-50%" fill="#988378"/><rect width="100%" height="100%" fill="#988378"/><g fill-opacity=".5" transform="translate(1.2 1.2)scale(2.34375)"><circle r="1" fill="#460a00" transform="matrix(-.73757 23.46972 -100.77286 -3.16691 80.7 79.8)"/><circle r="1" fill="#923211" transform="rotate(82 29.4 38.8)scale(15.7787 108.88862)"/><circle r="1" fill="#593221" transform="matrix(-.40717 11.1041 -126.91465 -4.65375 33.8 151.2)"/><circle r="1" fill="#ef9577" transform="rotate(90.9 -18 109.4)scale(17.14888 125.07044)"/><circle r="1" fill="#f6b289" transform="rotate(82.4 -62.4 169.5)scale(17.42904 75.6648)"/><ellipse cx="49" cy="46" fill="#ffc972" rx="84" ry="7"/><path fill="#591300" d="m101 252 37-31-57 21z"/><circle r="1" fill="#82dacb" transform="matrix(56.80357 2.18217 -.20832 5.4228 51.6 174)"/></g></g></svg>