<svg xmlns="http://www.w3.org/2000/svg" width="300" height="600"><g filter="blur(12px)"><rect width="200%" height="200%" x="-50%" y="-50%" fill="#607ba7"/><rect width="100%" height="100%" fill="#607ba7"/><g fill-opacity=".5" transform="translate(1.2 1.2)scale(2.34375)"><circle r="1" fill="#ff9100" transform="matrix(-122.22969 -34.48048 13.29867 -47.1424 73.4 202.8)"/><circle r="1" fill="#004" transform="matrix(-126.17208 -14.47776 9.5186 -82.95361 80 61)"/><circle r="1" fill="#ff9400" transform="matrix(123.09243 19.65101 -5.37809 33.68793 75.5 205)"/><path fill="#0044b6" d="m-17 159.8.7-8 117.4 12.4-.8 8z"/><circle r="1" fill="#05286d" transform="matrix(-5.71296 -43.09164 75.66257 -10.0311 75 92.6)"/><path fill="#ff9400" d="M85 161h43v5H85z"/><ellipse cx="9" cy="253" fill="#365286" rx="60" ry="22"/><ellipse cx="103" cy="246" fill="#004bbd" rx="38" ry="3"/></g></g></svg>