<svg xmlns="http://www.w3.org/2000/svg" width="300" height="600"><g filter="blur(12px)"><rect width="200%" height="200%" x="-50%" y="-50%" fill="#95a360"/><rect width="100%" height="100%" fill="#95a360"/><g fill-opacity=".5" transform="translate(1.2 1.2)scale(2.34375)"><ellipse cx="52" cy="160" fill="#3548b0" rx="121" ry="147"/><circle r="1" fill="#000043" transform="matrix(-1.99218 11.07206 -90.68044 -16.31599 24 158)"/><circle r="1" fill="#cbd651" transform="matrix(82.03652 18.25392 -3.17668 14.2766 88.8 144.8)"/><circle r="1" fill="#95a2bf" transform="rotate(-175.6 34.3 42.5)scale(127 29.71452)"/><circle r="1" fill="#000a55" transform="matrix(-.37475 9.22392 -91.3562 -3.71164 21.1 227.3)"/><circle r="1" fill="#001a55" transform="matrix(-29.12791 -5.18847 3.13743 -17.61343 15.5 157.8)"/><path fill="#1c365c" d="m136.5 161.6 1.8 25.9-70.8 5-1.8-26z"/><path fill="#18305c" d="M.3 203.9 48 255.1-.3 300-48 248.9z"/></g></g></svg>