<svg xmlns="http://www.w3.org/2000/svg" width="300" height="600"><g filter="blur(12px)"><rect width="200%" height="200%" x="-50%" y="-50%" fill="#5f9fba"/><rect width="100%" height="100%" fill="#5f9fba"/><g fill-opacity=".5" transform="translate(1.2 1.2)scale(2.34375)"><circle r="1" fill="#fffffb" transform="rotate(19.4 -299.9 227.3)scale(104.51355 29.47412)"/><circle r="1" fill="#fffcf4" transform="matrix(-117.8658 -17.19431 .9218 -6.3189 74.4 182.7)"/><ellipse cx="97" cy="108" fill="#ffffef" rx="40" ry="11"/><path fill="#2373c0" d="M41 152h80v28H41z"/><path fill="#fffceb" d="M42 142-5 41l-11 59z"/><path fill="#3a80c4" d="m136.9 99.9-152-71.6L25 70.8l58.5 26.7z"/><path fill="#2170b0" d="m26.1 104 48.3 33.1-13.7-1.3-30.8-17.9z"/><path fill="#fffbec" d="m34 128.3 73.4 18.3-39.5 7 21.9 16.1z"/></g></g></svg>