<svg xmlns="http://www.w3.org/2000/svg" width="300" height="600"><g filter="blur(12px)"><rect width="200%" height="200%" x="-50%" y="-50%" fill="#6f8566"/><rect width="100%" height="100%" fill="#6f8566"/><circle r="1" fill="#ffdec4" fill-opacity=".5" transform="matrix(285.25715 -85.01531 20.0716 67.34748 179.8 573.3)"/><circle r="1" fill="#c62613" fill-opacity=".5" transform="matrix(297.58968 6.29474 -2.57289 121.6358 255 36.8)"/><circle r="1" fill="#991627" fill-opacity=".5" transform="matrix(3.52369 44.409 -197.18524 15.6459 116 403)"/><circle r="1" fill="#214548" fill-opacity=".5" transform="matrix(11.02702 -46.83191 202.06987 47.5793 218.4 161.4)"/><circle r="1" fill="#b26b44" fill-opacity=".5" transform="matrix(-6.93616 44.29342 -270.06516 -42.29108 120 269.3)"/><circle r="1" fill="#e85e4f" fill-opacity=".5" transform="rotate(103.8 37.4 57.5)scale(62.96571 125.48753)"/><path fill="#186acd" fill-opacity=".5" d="M43.4 500.4H184v23.4H43.4z"/><circle r="1" fill="#c69a6d" fill-opacity=".5" transform="matrix(52.02284 48.8527 -83.39379 88.80536 233.6 487.6)"/></g></svg>