<svg xmlns="http://www.w3.org/2000/svg" width="300" height="600"><g filter="blur(12px)"><rect width="200%" height="200%" x="-50%" y="-50%" fill="#5d8d87"/><rect width="100%" height="100%" fill="#5d8d87"/><g fill-opacity=".5" transform="translate(1.2 1.2)scale(2.34375)"><circle cx="59" cy="137" r="151" fill="#ae644b"/><circle r="1" fill="#3c4b41" transform="matrix(126.99923 .44331 -.15628 44.77018 96.6 40.9)"/><circle r="1" fill="#c79c86" transform="rotate(8.8 -792.2 572.6)scale(83.2586 53.77293)"/><path fill="#d8cdd5" d="m-22.3 215.4 127 2.2-.4 17-127-2.2z"/><ellipse cx="58" cy="247" fill="#3c3c42" rx="127" ry="9"/><circle r="1" fill="#926e1f" transform="matrix(-1.8185 -12.50204 73.74188 -10.72619 89.5 124.3)"/><circle r="1" fill="#b5b9b9" transform="matrix(-1.47869 -9.91748 114.01744 -16.9999 106.3 148.4)"/><circle r="1" fill="#3a0e1c" transform="matrix(-.81317 9.11135 -30.58392 -2.72954 53.4 54.7)"/></g></g></svg>