<svg xmlns="http://www.w3.org/2000/svg" width="300" height="600"><g filter="blur(12px)"><rect width="200%" height="200%" x="-50%" y="-50%" fill="#908865"/><rect width="100%" height="100%" fill="#908865"/><g fill-opacity=".5" transform="translate(1.2 1.2)scale(2.34375)"><circle r="1" fill="#361300" transform="matrix(126.94092 3.87344 -.3934 12.8927 44.5 148)"/><path d="m133.2 26.6.4 8-166.8 8.8-.4-8z"/><ellipse cx="36" cy="248" fill="#2c0a00" rx="81" ry="6"/><circle r="1" fill="#3e1f19" transform="matrix(-112.06351 -10.98792 .53206 -5.42637 12 78.2)"/><circle r="1" fill="#eaafa6" transform="matrix(.21451 -7.67973 74.29281 2.07519 33.6 233.8)"/><circle r="1" fill="#c8c8c5" transform="matrix(97.3018 -8.02944 .48404 5.86571 79.4 20.1)"/><path fill="#200004" d="m76 253 67-16-24-11z"/><path fill="#f6a98f" d="M104 186h24v42h-24z"/></g></g></svg>